M48
; DRILL file {KiCad (5.1.0)-1} date 10/11/2020 1:47:31 PM
; FORMAT={-:-/ absolute / inch / decimal}
; #@! TF.CreationDate,2020-10-11T13:47:31-04:00
; #@! TF.GenerationSoftware,Kicad,Pcbnew,(5.1.0)-1
; #@! TF.FileFunction,Plated,1,2,PTH
FMAT,2
INCH
T1C0.0157
T2C0.0236
T3C0.0315
T4C0.0354
T5C0.0590
%
G90
G05
T1
X3.8756Y-1.7398
X3.8756Y-1.7791
X4.1236Y-1.4976
X4.2061Y-1.6967
X3.2701Y-1.3868
X3.2703Y-1.439
X3.3035Y-1.3868
X3.3037Y-1.439
X3.337Y-1.3868
X3.3372Y-1.439
X3.3705Y-1.3868
X3.3707Y-1.439
X3.4039Y-1.3868
X3.4041Y-1.439
X3.4374Y-1.3868
X3.4376Y-1.439
X3.4709Y-1.3868
X3.4711Y-1.439
X3.5045Y-1.3868
X3.5045Y-1.439
T3
X2.6118Y-1.622
X2.6118Y-1.922
X2.978Y-1.5193
X3.278Y-1.5193
X3.2024Y-1.622
X3.2024Y-1.922
X3.5567Y-1.622
X3.5567Y-1.922
X2.9661Y-1.622
X2.9661Y-1.922
X2.7299Y-1.622
X2.7299Y-1.922
X3.0843Y-1.622
X3.0843Y-1.922
X3.3205Y-1.622
X3.3205Y-1.922
X2.7606Y-1.3244
X3.0606Y-1.3244
X3.4386Y-1.622
X3.4386Y-1.922
X2.848Y-1.622
X2.848Y-1.922
X2.5953Y-1.5193
X2.8953Y-1.5193
T4
X3.6929Y-1.576
X3.7929Y-1.576
X3.6929Y-1.8319
X3.7929Y-1.8319
X4.2047Y-1.8319
X4.3047Y-1.8319
X3.9488Y-1.3201
X4.0488Y-1.3201
X3.6929Y-1.3201
X3.7929Y-1.3201
X3.9488Y-1.8319
X4.0488Y-1.8319
X4.2047Y-1.3201
X4.3047Y-1.3201
X3.9488Y-1.576
X4.0488Y-1.576
X4.2047Y-1.576
X4.3047Y-1.576
T5
X3.4433Y-2.4835
X3.6933Y-2.3835
X4.1126Y-2.4835
X4.3626Y-2.3835
X2.774Y-2.4835
X3.024Y-2.3835
X4.1126Y-3.1528
X4.3626Y-3.0528
X3.4433Y-3.822
X3.6933Y-3.722
X4.1126Y-3.822
X4.3626Y-3.722
X2.774Y-3.1528
X3.024Y-3.0528
X3.4433Y-3.1528
X3.6933Y-3.0528
X2.774Y-3.822
X3.024Y-3.722
T2
G00X3.2171Y-1.2831
M15
G01X3.2171Y-1.2516
M16
G05
G00X3.2171Y-1.4299
M15
G01X3.2171Y-1.3709
M16
G05
G00X3.5577Y-1.2831
M15
G01X3.5577Y-1.2516
M16
G05
G00X3.5577Y-1.4299
M15
G01X3.5577Y-1.3709
M16
G05
T0
M30
