G04 #@! TF.GenerationSoftware,KiCad,Pcbnew,(5.1.0)-1*
G04 #@! TF.CreationDate,2020-10-11T13:47:28-04:00*
G04 #@! TF.ProjectId,switch_tester,73776974-6368-45f7-9465-737465722e6b,rev?*
G04 #@! TF.SameCoordinates,Original*
G04 #@! TF.FileFunction,Copper,L1,Top*
G04 #@! TF.FilePolarity,Positive*
%FSLAX46Y46*%
G04 Gerber Fmt 4.6, Leading zero omitted, Abs format (unit mm)*
G04 Created by KiCad (PCBNEW (5.1.0)-1) date 2020-10-11 13:47:28*
%MOMM*%
%LPD*%
G04 APERTURE LIST*
%ADD10C,2.286000*%
%ADD11C,1.800000*%
%ADD12R,1.800000X1.800000*%
%ADD13O,1.600000X1.600000*%
%ADD14C,1.600000*%
%ADD15C,0.650000*%
%ADD16O,0.900000X2.400000*%
%ADD17O,0.900000X1.700000*%
%ADD18R,1.600000X1.600000*%
%ADD19C,0.800000*%
%ADD20C,0.250000*%
%ADD21C,0.254000*%
G04 APERTURE END LIST*
D10*
X110810000Y-94540000D03*
X104460000Y-97080000D03*
X110810000Y-77540000D03*
X104460000Y-80080000D03*
X110810000Y-60540000D03*
X104460000Y-63080000D03*
X93810000Y-94540000D03*
X87460000Y-97080000D03*
X93810000Y-77540000D03*
X87460000Y-80080000D03*
X93810000Y-60540000D03*
X87460000Y-63080000D03*
X76810000Y-94540000D03*
X70460000Y-97080000D03*
X76810000Y-77540000D03*
X70460000Y-80080000D03*
X76810000Y-60540000D03*
X70460000Y-63080000D03*
D11*
X106800000Y-33530000D03*
D12*
X109340000Y-33530000D03*
D13*
X65920000Y-38590000D03*
D14*
X73540000Y-38590000D03*
D13*
X83260000Y-38590000D03*
D14*
X75640000Y-38590000D03*
D15*
X87315000Y-36550000D03*
X89015000Y-36550000D03*
X88165000Y-36550000D03*
X86465000Y-36550000D03*
X85615000Y-36550000D03*
X84765000Y-36550000D03*
X83915000Y-36550000D03*
X83065000Y-36550000D03*
X89015000Y-35225000D03*
X88160000Y-35225000D03*
X87310000Y-35225000D03*
X86460000Y-35225000D03*
X85610000Y-35225000D03*
X84760000Y-35225000D03*
X83910000Y-35225000D03*
X83060000Y-35225000D03*
D16*
X90365000Y-35570000D03*
X81715000Y-35570000D03*
D17*
X90365000Y-32190000D03*
X81715000Y-32190000D03*
D11*
X106800000Y-46530000D03*
D12*
X109340000Y-46530000D03*
D13*
X70120000Y-33640000D03*
D18*
X77740000Y-33640000D03*
D13*
X90340000Y-41200000D03*
D14*
X90340000Y-48820000D03*
D13*
X87340000Y-41200000D03*
D14*
X87340000Y-48820000D03*
D13*
X84340000Y-41200000D03*
D14*
X84340000Y-48820000D03*
D13*
X81340000Y-41200000D03*
D14*
X81340000Y-48820000D03*
D13*
X78340000Y-41200000D03*
D14*
X78340000Y-48820000D03*
D13*
X75340000Y-41200000D03*
D14*
X75340000Y-48820000D03*
D13*
X72340000Y-41200000D03*
D14*
X72340000Y-48820000D03*
D13*
X69340000Y-41200000D03*
D14*
X69340000Y-48820000D03*
D13*
X66340000Y-41200000D03*
D14*
X66340000Y-48820000D03*
D11*
X106800000Y-40030000D03*
D12*
X109340000Y-40030000D03*
D11*
X100300000Y-46530000D03*
D12*
X102840000Y-46530000D03*
D11*
X100300000Y-40030000D03*
D12*
X102840000Y-40030000D03*
D11*
X100300000Y-33530000D03*
D12*
X102840000Y-33530000D03*
D11*
X93800000Y-46530000D03*
D12*
X96340000Y-46530000D03*
D11*
X93800000Y-40030000D03*
D12*
X96340000Y-40030000D03*
D11*
X93800000Y-33530000D03*
D12*
X96340000Y-33530000D03*
D19*
X98440000Y-45190000D03*
X98440000Y-44189997D03*
X106835000Y-43095000D03*
X104740000Y-38040000D03*
D20*
X66340000Y-41200000D02*
X72310000Y-47170000D01*
X94699999Y-34429999D02*
X93800000Y-33530000D01*
X95025001Y-34755001D02*
X94699999Y-34429999D01*
X95025001Y-47118001D02*
X95025001Y-34755001D01*
X94388001Y-47755001D02*
X95025001Y-47118001D01*
X93211999Y-47755001D02*
X94388001Y-47755001D01*
X92626998Y-47170000D02*
X93211999Y-47755001D01*
X72310000Y-47170000D02*
X92626998Y-47170000D01*
X72880001Y-40074999D02*
X73940000Y-41134998D01*
X69340000Y-41200000D02*
X70465001Y-40074999D01*
X70465001Y-40074999D02*
X72880001Y-40074999D01*
X73940000Y-41465002D02*
X76234998Y-43760000D01*
X73940000Y-41134998D02*
X73940000Y-41465002D01*
X90070000Y-43760000D02*
X93800000Y-40030000D01*
X76234998Y-43760000D02*
X90070000Y-43760000D01*
X72340000Y-41200000D02*
X75780000Y-44640000D01*
X91910000Y-44640000D02*
X93800000Y-46530000D01*
X75780000Y-44640000D02*
X91910000Y-44640000D01*
X101199999Y-34429999D02*
X100300000Y-33530000D01*
X101525001Y-34755001D02*
X101199999Y-34429999D01*
X101525001Y-42670684D02*
X101525001Y-34755001D01*
X99005685Y-45190000D02*
X101525001Y-42670684D01*
X98440000Y-45190000D02*
X99005685Y-45190000D01*
X100300000Y-42329997D02*
X100300000Y-40030000D01*
X98440000Y-44189997D02*
X100300000Y-42329997D01*
X106800000Y-33530000D02*
X108025001Y-34755001D01*
X108025001Y-34755001D02*
X108025001Y-41904999D01*
X108025001Y-41904999D02*
X106835000Y-43095000D01*
X105900001Y-45630001D02*
X106800000Y-46530000D01*
X105139999Y-44869999D02*
X105900001Y-45630001D01*
X105139999Y-38439999D02*
X105139999Y-44869999D01*
X104740000Y-38040000D02*
X105139999Y-38439999D01*
X75193554Y-60540000D02*
X76810000Y-60540000D01*
X68719666Y-60540000D02*
X75193554Y-60540000D01*
X65540001Y-57360335D02*
X68719666Y-60540000D01*
X65540001Y-49619999D02*
X65540001Y-57360335D01*
X66340000Y-48820000D02*
X65540001Y-49619999D01*
X79255901Y-76710545D02*
X78426446Y-77540000D01*
X77514641Y-59071999D02*
X79255901Y-60813259D01*
X78426446Y-77540000D02*
X76810000Y-77540000D01*
X77411665Y-59071999D02*
X77514641Y-59071999D01*
X69340000Y-51000334D02*
X77411665Y-59071999D01*
X79255901Y-60813259D02*
X79255901Y-76710545D01*
X69340000Y-48820000D02*
X69340000Y-51000334D01*
X78426446Y-94540000D02*
X76810000Y-94540000D01*
X79705911Y-93260535D02*
X78426446Y-94540000D01*
X78644433Y-56824099D02*
X79705911Y-57885577D01*
X75800175Y-56824099D02*
X78644433Y-56824099D01*
X72340000Y-53363924D02*
X75800175Y-56824099D01*
X79705911Y-57885577D02*
X79705911Y-93260535D01*
X72340000Y-48820000D02*
X72340000Y-53363924D01*
X92193554Y-60540000D02*
X93810000Y-60540000D01*
X84040000Y-60540000D02*
X92193554Y-60540000D01*
X77365001Y-53865001D02*
X84040000Y-60540000D01*
X77365001Y-50845001D02*
X77365001Y-53865001D01*
X75340000Y-48820000D02*
X77365001Y-50845001D01*
X95426446Y-77540000D02*
X93810000Y-77540000D01*
X96255901Y-76710545D02*
X95426446Y-77540000D01*
X96255901Y-60855901D02*
X96255901Y-76710545D01*
X89034999Y-53634999D02*
X96255901Y-60855901D01*
X83154999Y-53634999D02*
X89034999Y-53634999D01*
X78340000Y-48820000D02*
X83154999Y-53634999D01*
X96705911Y-93260535D02*
X95426446Y-94540000D01*
X96705911Y-57885577D02*
X96705911Y-93260535D01*
X95426446Y-94540000D02*
X93810000Y-94540000D01*
X95644433Y-56824099D02*
X96705911Y-57885577D01*
X93743097Y-56824099D02*
X95644433Y-56824099D01*
X90103987Y-53184989D02*
X93743097Y-56824099D01*
X85704989Y-53184989D02*
X90103987Y-53184989D01*
X81340000Y-48820000D02*
X85704989Y-53184989D01*
X100744099Y-58544099D02*
X102740000Y-60540000D01*
X102740000Y-60540000D02*
X102719666Y-60540000D01*
X84340000Y-48820000D02*
X86614999Y-51094999D01*
X86614999Y-51094999D02*
X93794999Y-51094999D01*
X110810000Y-60540000D02*
X102740000Y-60540000D01*
X93794999Y-51094999D02*
X100744099Y-58044099D01*
X100744099Y-58044099D02*
X100744099Y-58544099D01*
X112426446Y-77540000D02*
X110810000Y-77540000D01*
X113255901Y-76710545D02*
X112426446Y-77540000D01*
X113255901Y-57435567D02*
X113255901Y-76710545D01*
X112644433Y-56824099D02*
X113255901Y-57435567D01*
X104563987Y-50644989D02*
X110743097Y-56824099D01*
X110743097Y-56824099D02*
X112644433Y-56824099D01*
X89164989Y-50644989D02*
X104563987Y-50644989D01*
X87340000Y-48820000D02*
X89164989Y-50644989D01*
X112426446Y-94540000D02*
X110810000Y-94540000D01*
X113705911Y-93260535D02*
X112426446Y-94540000D01*
X113705911Y-54205911D02*
X113705911Y-93260535D01*
X108320000Y-48820000D02*
X113705911Y-54205911D01*
X90340000Y-48820000D02*
X108320000Y-48820000D01*
X87315000Y-37009619D02*
X87315000Y-36550000D01*
X85734619Y-38590000D02*
X87315000Y-37009619D01*
X83260000Y-38590000D02*
X85734619Y-38590000D01*
X67045001Y-37464999D02*
X66719999Y-37790001D01*
X66719999Y-37790001D02*
X65920000Y-38590000D01*
X76670003Y-37464999D02*
X67045001Y-37464999D01*
X80090012Y-34044990D02*
X76670003Y-37464999D01*
X83691992Y-34044990D02*
X80090012Y-34044990D01*
X84760000Y-35112998D02*
X83691992Y-34044990D01*
X84760000Y-35225000D02*
X84760000Y-35112998D01*
D21*
G36*
X80883413Y-31081609D02*
G01*
X80761191Y-31257455D01*
X80675624Y-31453767D01*
X80630000Y-31663000D01*
X80630000Y-32063000D01*
X81588000Y-32063000D01*
X81588000Y-32043000D01*
X81842000Y-32043000D01*
X81842000Y-32063000D01*
X82800000Y-32063000D01*
X82800000Y-31663000D01*
X82754376Y-31453767D01*
X82668809Y-31257455D01*
X82546587Y-31081609D01*
X82524170Y-31060000D01*
X89555830Y-31060000D01*
X89533413Y-31081609D01*
X89411191Y-31257455D01*
X89325624Y-31453767D01*
X89280000Y-31663000D01*
X89280000Y-32063000D01*
X90238000Y-32063000D01*
X90238000Y-32043000D01*
X90492000Y-32043000D01*
X90492000Y-32063000D01*
X91450000Y-32063000D01*
X91450000Y-31663000D01*
X91404376Y-31453767D01*
X91318809Y-31257455D01*
X91196587Y-31081609D01*
X91174170Y-31060000D01*
X114125536Y-31060000D01*
X113878169Y-31162463D01*
X113594002Y-31352337D01*
X113352337Y-31594002D01*
X113162463Y-31878169D01*
X113031675Y-32193919D01*
X112965000Y-32529117D01*
X112965000Y-32870883D01*
X113031675Y-33206081D01*
X113162463Y-33521831D01*
X113352337Y-33805998D01*
X113594002Y-34047663D01*
X113878169Y-34237537D01*
X114193919Y-34368325D01*
X114529117Y-34435000D01*
X114870883Y-34435000D01*
X115206081Y-34368325D01*
X115521831Y-34237537D01*
X115805998Y-34047663D01*
X116047663Y-33805998D01*
X116237537Y-33521831D01*
X116340000Y-33274464D01*
X116340001Y-97125539D01*
X116237537Y-96878169D01*
X116047663Y-96594002D01*
X115805998Y-96352337D01*
X115521831Y-96162463D01*
X115206081Y-96031675D01*
X114870883Y-95965000D01*
X114529117Y-95965000D01*
X114193919Y-96031675D01*
X113878169Y-96162463D01*
X113594002Y-96352337D01*
X113352337Y-96594002D01*
X113162463Y-96878169D01*
X113031675Y-97193919D01*
X112965000Y-97529117D01*
X112965000Y-97870883D01*
X113031675Y-98206081D01*
X113162463Y-98521831D01*
X113352337Y-98805998D01*
X113594002Y-99047663D01*
X113878169Y-99237537D01*
X114125536Y-99340000D01*
X65874464Y-99340000D01*
X66121831Y-99237537D01*
X66405998Y-99047663D01*
X66647663Y-98805998D01*
X66837537Y-98521831D01*
X66968325Y-98206081D01*
X67035000Y-97870883D01*
X67035000Y-97529117D01*
X66968325Y-97193919D01*
X66848602Y-96904882D01*
X68682000Y-96904882D01*
X68682000Y-97255118D01*
X68750328Y-97598623D01*
X68884357Y-97922199D01*
X69078937Y-98213409D01*
X69326591Y-98461063D01*
X69617801Y-98655643D01*
X69941377Y-98789672D01*
X70284882Y-98858000D01*
X70635118Y-98858000D01*
X70978623Y-98789672D01*
X71302199Y-98655643D01*
X71593409Y-98461063D01*
X71841063Y-98213409D01*
X72035643Y-97922199D01*
X72169672Y-97598623D01*
X72238000Y-97255118D01*
X72238000Y-96904882D01*
X85682000Y-96904882D01*
X85682000Y-97255118D01*
X85750328Y-97598623D01*
X85884357Y-97922199D01*
X86078937Y-98213409D01*
X86326591Y-98461063D01*
X86617801Y-98655643D01*
X86941377Y-98789672D01*
X87284882Y-98858000D01*
X87635118Y-98858000D01*
X87978623Y-98789672D01*
X88302199Y-98655643D01*
X88593409Y-98461063D01*
X88841063Y-98213409D01*
X89035643Y-97922199D01*
X89169672Y-97598623D01*
X89238000Y-97255118D01*
X89238000Y-96904882D01*
X102682000Y-96904882D01*
X102682000Y-97255118D01*
X102750328Y-97598623D01*
X102884357Y-97922199D01*
X103078937Y-98213409D01*
X103326591Y-98461063D01*
X103617801Y-98655643D01*
X103941377Y-98789672D01*
X104284882Y-98858000D01*
X104635118Y-98858000D01*
X104978623Y-98789672D01*
X105302199Y-98655643D01*
X105593409Y-98461063D01*
X105841063Y-98213409D01*
X106035643Y-97922199D01*
X106169672Y-97598623D01*
X106238000Y-97255118D01*
X106238000Y-96904882D01*
X106169672Y-96561377D01*
X106035643Y-96237801D01*
X105841063Y-95946591D01*
X105593409Y-95698937D01*
X105302199Y-95504357D01*
X104978623Y-95370328D01*
X104635118Y-95302000D01*
X104284882Y-95302000D01*
X103941377Y-95370328D01*
X103617801Y-95504357D01*
X103326591Y-95698937D01*
X103078937Y-95946591D01*
X102884357Y-96237801D01*
X102750328Y-96561377D01*
X102682000Y-96904882D01*
X89238000Y-96904882D01*
X89169672Y-96561377D01*
X89035643Y-96237801D01*
X88841063Y-95946591D01*
X88593409Y-95698937D01*
X88302199Y-95504357D01*
X87978623Y-95370328D01*
X87635118Y-95302000D01*
X87284882Y-95302000D01*
X86941377Y-95370328D01*
X86617801Y-95504357D01*
X86326591Y-95698937D01*
X86078937Y-95946591D01*
X85884357Y-96237801D01*
X85750328Y-96561377D01*
X85682000Y-96904882D01*
X72238000Y-96904882D01*
X72169672Y-96561377D01*
X72035643Y-96237801D01*
X71841063Y-95946591D01*
X71593409Y-95698937D01*
X71302199Y-95504357D01*
X70978623Y-95370328D01*
X70635118Y-95302000D01*
X70284882Y-95302000D01*
X69941377Y-95370328D01*
X69617801Y-95504357D01*
X69326591Y-95698937D01*
X69078937Y-95946591D01*
X68884357Y-96237801D01*
X68750328Y-96561377D01*
X68682000Y-96904882D01*
X66848602Y-96904882D01*
X66837537Y-96878169D01*
X66647663Y-96594002D01*
X66405998Y-96352337D01*
X66121831Y-96162463D01*
X65806081Y-96031675D01*
X65470883Y-95965000D01*
X65129117Y-95965000D01*
X64793919Y-96031675D01*
X64478169Y-96162463D01*
X64194002Y-96352337D01*
X63952337Y-96594002D01*
X63762463Y-96878169D01*
X63660000Y-97125536D01*
X63660000Y-91853652D01*
X66434100Y-91853652D01*
X66434100Y-92146348D01*
X66491202Y-92433421D01*
X66603212Y-92703838D01*
X66765826Y-92947206D01*
X66972794Y-93154174D01*
X67216162Y-93316788D01*
X67486579Y-93428798D01*
X67773652Y-93485900D01*
X68066348Y-93485900D01*
X68353421Y-93428798D01*
X68623838Y-93316788D01*
X68867206Y-93154174D01*
X69074174Y-92947206D01*
X69236788Y-92703838D01*
X69348798Y-92433421D01*
X69405900Y-92146348D01*
X69405900Y-91853652D01*
X69354451Y-91595000D01*
X69400279Y-91595000D01*
X69812756Y-91512953D01*
X70201302Y-91352012D01*
X70507708Y-91147279D01*
X70472127Y-91233178D01*
X70371100Y-91741076D01*
X70371100Y-92258924D01*
X70472127Y-92766822D01*
X70670299Y-93245251D01*
X70958000Y-93675826D01*
X71324174Y-94042000D01*
X71754749Y-94329701D01*
X72233178Y-94527873D01*
X72741076Y-94628900D01*
X73258924Y-94628900D01*
X73766822Y-94527873D01*
X74245251Y-94329701D01*
X74675826Y-94042000D01*
X75042000Y-93675826D01*
X75329701Y-93245251D01*
X75527873Y-92766822D01*
X75628900Y-92258924D01*
X75628900Y-91741076D01*
X75527873Y-91233178D01*
X75329701Y-90754749D01*
X75042000Y-90324174D01*
X74675826Y-89958000D01*
X74245251Y-89670299D01*
X73766822Y-89472127D01*
X73258924Y-89371100D01*
X72741076Y-89371100D01*
X72233178Y-89472127D01*
X71754749Y-89670299D01*
X71324174Y-89958000D01*
X71253763Y-90028411D01*
X71325000Y-89670279D01*
X71325000Y-89249721D01*
X71242953Y-88837244D01*
X71082012Y-88448698D01*
X70848363Y-88099017D01*
X70550983Y-87801637D01*
X70201302Y-87567988D01*
X69812756Y-87407047D01*
X69400279Y-87325000D01*
X68979721Y-87325000D01*
X68567244Y-87407047D01*
X68178698Y-87567988D01*
X67829017Y-87801637D01*
X67531637Y-88099017D01*
X67297988Y-88448698D01*
X67137047Y-88837244D01*
X67055000Y-89249721D01*
X67055000Y-89670279D01*
X67137047Y-90082756D01*
X67297988Y-90471302D01*
X67391150Y-90610730D01*
X67216162Y-90683212D01*
X66972794Y-90845826D01*
X66765826Y-91052794D01*
X66603212Y-91296162D01*
X66491202Y-91566579D01*
X66434100Y-91853652D01*
X63660000Y-91853652D01*
X63660000Y-86709721D01*
X73405000Y-86709721D01*
X73405000Y-87130279D01*
X73487047Y-87542756D01*
X73647988Y-87931302D01*
X73881637Y-88280983D01*
X74179017Y-88578363D01*
X74528698Y-88812012D01*
X74917244Y-88972953D01*
X75329721Y-89055000D01*
X75750279Y-89055000D01*
X76162756Y-88972953D01*
X76551302Y-88812012D01*
X76900983Y-88578363D01*
X77198363Y-88280983D01*
X77432012Y-87931302D01*
X77592953Y-87542756D01*
X77675000Y-87130279D01*
X77675000Y-86709721D01*
X77592953Y-86297244D01*
X77432012Y-85908698D01*
X77198363Y-85559017D01*
X76900983Y-85261637D01*
X76551302Y-85027988D01*
X76162756Y-84867047D01*
X75750279Y-84785000D01*
X75329721Y-84785000D01*
X74917244Y-84867047D01*
X74528698Y-85027988D01*
X74179017Y-85261637D01*
X73881637Y-85559017D01*
X73647988Y-85908698D01*
X73487047Y-86297244D01*
X73405000Y-86709721D01*
X63660000Y-86709721D01*
X63660000Y-79904882D01*
X68682000Y-79904882D01*
X68682000Y-80255118D01*
X68750328Y-80598623D01*
X68884357Y-80922199D01*
X69078937Y-81213409D01*
X69326591Y-81461063D01*
X69617801Y-81655643D01*
X69941377Y-81789672D01*
X70284882Y-81858000D01*
X70635118Y-81858000D01*
X70978623Y-81789672D01*
X71302199Y-81655643D01*
X71593409Y-81461063D01*
X71841063Y-81213409D01*
X72035643Y-80922199D01*
X72169672Y-80598623D01*
X72238000Y-80255118D01*
X72238000Y-79904882D01*
X72169672Y-79561377D01*
X72035643Y-79237801D01*
X71841063Y-78946591D01*
X71593409Y-78698937D01*
X71302199Y-78504357D01*
X70978623Y-78370328D01*
X70635118Y-78302000D01*
X70284882Y-78302000D01*
X69941377Y-78370328D01*
X69617801Y-78504357D01*
X69326591Y-78698937D01*
X69078937Y-78946591D01*
X68884357Y-79237801D01*
X68750328Y-79561377D01*
X68682000Y-79904882D01*
X63660000Y-79904882D01*
X63660000Y-74853652D01*
X66434100Y-74853652D01*
X66434100Y-75146348D01*
X66491202Y-75433421D01*
X66603212Y-75703838D01*
X66765826Y-75947206D01*
X66972794Y-76154174D01*
X67216162Y-76316788D01*
X67486579Y-76428798D01*
X67773652Y-76485900D01*
X68066348Y-76485900D01*
X68353421Y-76428798D01*
X68623838Y-76316788D01*
X68867206Y-76154174D01*
X69074174Y-75947206D01*
X69236788Y-75703838D01*
X69348798Y-75433421D01*
X69405900Y-75146348D01*
X69405900Y-74853652D01*
X69354451Y-74595000D01*
X69400279Y-74595000D01*
X69812756Y-74512953D01*
X70201302Y-74352012D01*
X70507708Y-74147279D01*
X70472127Y-74233178D01*
X70371100Y-74741076D01*
X70371100Y-75258924D01*
X70472127Y-75766822D01*
X70670299Y-76245251D01*
X70958000Y-76675826D01*
X71324174Y-77042000D01*
X71754749Y-77329701D01*
X72233178Y-77527873D01*
X72741076Y-77628900D01*
X73258924Y-77628900D01*
X73766822Y-77527873D01*
X74245251Y-77329701D01*
X74675826Y-77042000D01*
X75042000Y-76675826D01*
X75329701Y-76245251D01*
X75527873Y-75766822D01*
X75628900Y-75258924D01*
X75628900Y-74741076D01*
X75527873Y-74233178D01*
X75329701Y-73754749D01*
X75042000Y-73324174D01*
X74675826Y-72958000D01*
X74245251Y-72670299D01*
X73766822Y-72472127D01*
X73258924Y-72371100D01*
X72741076Y-72371100D01*
X72233178Y-72472127D01*
X71754749Y-72670299D01*
X71324174Y-72958000D01*
X71253763Y-73028411D01*
X71325000Y-72670279D01*
X71325000Y-72249721D01*
X71242953Y-71837244D01*
X71082012Y-71448698D01*
X70848363Y-71099017D01*
X70550983Y-70801637D01*
X70201302Y-70567988D01*
X69812756Y-70407047D01*
X69400279Y-70325000D01*
X68979721Y-70325000D01*
X68567244Y-70407047D01*
X68178698Y-70567988D01*
X67829017Y-70801637D01*
X67531637Y-71099017D01*
X67297988Y-71448698D01*
X67137047Y-71837244D01*
X67055000Y-72249721D01*
X67055000Y-72670279D01*
X67137047Y-73082756D01*
X67297988Y-73471302D01*
X67391150Y-73610730D01*
X67216162Y-73683212D01*
X66972794Y-73845826D01*
X66765826Y-74052794D01*
X66603212Y-74296162D01*
X66491202Y-74566579D01*
X66434100Y-74853652D01*
X63660000Y-74853652D01*
X63660000Y-69709721D01*
X73405000Y-69709721D01*
X73405000Y-70130279D01*
X73487047Y-70542756D01*
X73647988Y-70931302D01*
X73881637Y-71280983D01*
X74179017Y-71578363D01*
X74528698Y-71812012D01*
X74917244Y-71972953D01*
X75329721Y-72055000D01*
X75750279Y-72055000D01*
X76162756Y-71972953D01*
X76551302Y-71812012D01*
X76900983Y-71578363D01*
X77198363Y-71280983D01*
X77432012Y-70931302D01*
X77592953Y-70542756D01*
X77675000Y-70130279D01*
X77675000Y-69709721D01*
X77592953Y-69297244D01*
X77432012Y-68908698D01*
X77198363Y-68559017D01*
X76900983Y-68261637D01*
X76551302Y-68027988D01*
X76162756Y-67867047D01*
X75750279Y-67785000D01*
X75329721Y-67785000D01*
X74917244Y-67867047D01*
X74528698Y-68027988D01*
X74179017Y-68261637D01*
X73881637Y-68559017D01*
X73647988Y-68908698D01*
X73487047Y-69297244D01*
X73405000Y-69709721D01*
X63660000Y-69709721D01*
X63660000Y-62904882D01*
X68682000Y-62904882D01*
X68682000Y-63255118D01*
X68750328Y-63598623D01*
X68884357Y-63922199D01*
X69078937Y-64213409D01*
X69326591Y-64461063D01*
X69617801Y-64655643D01*
X69941377Y-64789672D01*
X70284882Y-64858000D01*
X70635118Y-64858000D01*
X70978623Y-64789672D01*
X71302199Y-64655643D01*
X71593409Y-64461063D01*
X71841063Y-64213409D01*
X72035643Y-63922199D01*
X72169672Y-63598623D01*
X72238000Y-63255118D01*
X72238000Y-62904882D01*
X72169672Y-62561377D01*
X72035643Y-62237801D01*
X71841063Y-61946591D01*
X71593409Y-61698937D01*
X71302199Y-61504357D01*
X70978623Y-61370328D01*
X70635118Y-61302000D01*
X70284882Y-61302000D01*
X69941377Y-61370328D01*
X69617801Y-61504357D01*
X69326591Y-61698937D01*
X69078937Y-61946591D01*
X68884357Y-62237801D01*
X68750328Y-62561377D01*
X68682000Y-62904882D01*
X63660000Y-62904882D01*
X63660000Y-38590000D01*
X64478057Y-38590000D01*
X64505764Y-38871309D01*
X64587818Y-39141808D01*
X64721068Y-39391101D01*
X64900392Y-39609608D01*
X65118899Y-39788932D01*
X65368192Y-39922182D01*
X65571247Y-39983777D01*
X65538899Y-40001068D01*
X65320392Y-40180392D01*
X65141068Y-40398899D01*
X65007818Y-40648192D01*
X64925764Y-40918691D01*
X64898057Y-41200000D01*
X64925764Y-41481309D01*
X65007818Y-41751808D01*
X65141068Y-42001101D01*
X65320392Y-42219608D01*
X65538899Y-42398932D01*
X65788192Y-42532182D01*
X66058691Y-42614236D01*
X66269508Y-42635000D01*
X66410492Y-42635000D01*
X66621309Y-42614236D01*
X66665907Y-42600708D01*
X71632245Y-47567047D01*
X71425241Y-47705363D01*
X71225363Y-47905241D01*
X71068320Y-48140273D01*
X70960147Y-48401426D01*
X70905000Y-48678665D01*
X70905000Y-48961335D01*
X70960147Y-49238574D01*
X71068320Y-49499727D01*
X71225363Y-49734759D01*
X71425241Y-49934637D01*
X71580000Y-50038044D01*
X71580001Y-52165534D01*
X70100000Y-50685533D01*
X70100000Y-50038043D01*
X70254759Y-49934637D01*
X70454637Y-49734759D01*
X70611680Y-49499727D01*
X70719853Y-49238574D01*
X70775000Y-48961335D01*
X70775000Y-48678665D01*
X70719853Y-48401426D01*
X70611680Y-48140273D01*
X70454637Y-47905241D01*
X70254759Y-47705363D01*
X70019727Y-47548320D01*
X69758574Y-47440147D01*
X69481335Y-47385000D01*
X69198665Y-47385000D01*
X68921426Y-47440147D01*
X68660273Y-47548320D01*
X68425241Y-47705363D01*
X68225363Y-47905241D01*
X68068320Y-48140273D01*
X67960147Y-48401426D01*
X67905000Y-48678665D01*
X67905000Y-48961335D01*
X67960147Y-49238574D01*
X68068320Y-49499727D01*
X68225363Y-49734759D01*
X68425241Y-49934637D01*
X68580001Y-50038044D01*
X68580001Y-50963002D01*
X68576324Y-51000334D01*
X68590998Y-51149319D01*
X68634454Y-51292580D01*
X68705026Y-51424610D01*
X68776201Y-51511336D01*
X68800000Y-51540335D01*
X68828998Y-51564133D01*
X72653404Y-55388539D01*
X72233178Y-55472127D01*
X71754749Y-55670299D01*
X71324174Y-55958000D01*
X71253763Y-56028411D01*
X71325000Y-55670279D01*
X71325000Y-55249721D01*
X71242953Y-54837244D01*
X71082012Y-54448698D01*
X70848363Y-54099017D01*
X70550983Y-53801637D01*
X70201302Y-53567988D01*
X69812756Y-53407047D01*
X69400279Y-53325000D01*
X68979721Y-53325000D01*
X68567244Y-53407047D01*
X68178698Y-53567988D01*
X67829017Y-53801637D01*
X67531637Y-54099017D01*
X67297988Y-54448698D01*
X67137047Y-54837244D01*
X67055000Y-55249721D01*
X67055000Y-55670279D01*
X67137047Y-56082756D01*
X67297988Y-56471302D01*
X67391150Y-56610730D01*
X67216162Y-56683212D01*
X66972794Y-56845826D01*
X66765826Y-57052794D01*
X66603212Y-57296162D01*
X66587811Y-57333344D01*
X66300001Y-57045534D01*
X66300001Y-50255000D01*
X66481335Y-50255000D01*
X66758574Y-50199853D01*
X67019727Y-50091680D01*
X67254759Y-49934637D01*
X67454637Y-49734759D01*
X67611680Y-49499727D01*
X67719853Y-49238574D01*
X67775000Y-48961335D01*
X67775000Y-48678665D01*
X67719853Y-48401426D01*
X67611680Y-48140273D01*
X67454637Y-47905241D01*
X67254759Y-47705363D01*
X67019727Y-47548320D01*
X66758574Y-47440147D01*
X66481335Y-47385000D01*
X66198665Y-47385000D01*
X65921426Y-47440147D01*
X65660273Y-47548320D01*
X65425241Y-47705363D01*
X65225363Y-47905241D01*
X65068320Y-48140273D01*
X64960147Y-48401426D01*
X64905000Y-48678665D01*
X64905000Y-48961335D01*
X64942533Y-49150023D01*
X64905027Y-49195723D01*
X64834456Y-49327752D01*
X64834455Y-49327753D01*
X64790998Y-49471014D01*
X64780001Y-49582667D01*
X64780001Y-49582677D01*
X64776325Y-49619999D01*
X64780001Y-49657321D01*
X64780002Y-57323003D01*
X64776325Y-57360335D01*
X64780002Y-57397668D01*
X64786270Y-57461302D01*
X64790999Y-57509320D01*
X64834455Y-57652581D01*
X64905027Y-57784611D01*
X64949297Y-57838553D01*
X65000001Y-57900336D01*
X65028999Y-57924134D01*
X68155867Y-61051003D01*
X68179665Y-61080001D01*
X68295390Y-61174974D01*
X68427419Y-61245546D01*
X68570680Y-61289003D01*
X68682333Y-61300000D01*
X68682342Y-61300000D01*
X68719665Y-61303676D01*
X68756988Y-61300000D01*
X75200309Y-61300000D01*
X75234357Y-61382199D01*
X75428937Y-61673409D01*
X75676591Y-61921063D01*
X75967801Y-62115643D01*
X76291377Y-62249672D01*
X76634882Y-62318000D01*
X76985118Y-62318000D01*
X77328623Y-62249672D01*
X77652199Y-62115643D01*
X77943409Y-61921063D01*
X78191063Y-61673409D01*
X78385643Y-61382199D01*
X78492372Y-61124532D01*
X78495901Y-61128061D01*
X78495902Y-73567717D01*
X78226348Y-73514100D01*
X77933652Y-73514100D01*
X77646579Y-73571202D01*
X77376162Y-73683212D01*
X77132794Y-73845826D01*
X76925826Y-74052794D01*
X76763212Y-74296162D01*
X76651202Y-74566579D01*
X76594100Y-74853652D01*
X76594100Y-75146348D01*
X76651202Y-75433421D01*
X76763212Y-75703838D01*
X76802075Y-75762000D01*
X76634882Y-75762000D01*
X76291377Y-75830328D01*
X75967801Y-75964357D01*
X75676591Y-76158937D01*
X75428937Y-76406591D01*
X75234357Y-76697801D01*
X75100328Y-77021377D01*
X75032000Y-77364882D01*
X75032000Y-77715118D01*
X75100328Y-78058623D01*
X75234357Y-78382199D01*
X75428937Y-78673409D01*
X75676591Y-78921063D01*
X75967801Y-79115643D01*
X76291377Y-79249672D01*
X76634882Y-79318000D01*
X76985118Y-79318000D01*
X77328623Y-79249672D01*
X77652199Y-79115643D01*
X77943409Y-78921063D01*
X78191063Y-78673409D01*
X78385643Y-78382199D01*
X78418493Y-78302893D01*
X78426446Y-78303676D01*
X78463768Y-78300000D01*
X78463779Y-78300000D01*
X78575432Y-78289003D01*
X78718693Y-78245546D01*
X78850722Y-78174974D01*
X78945912Y-78096854D01*
X78945912Y-90791507D01*
X78783838Y-90683212D01*
X78513421Y-90571202D01*
X78226348Y-90514100D01*
X77933652Y-90514100D01*
X77646579Y-90571202D01*
X77376162Y-90683212D01*
X77132794Y-90845826D01*
X76925826Y-91052794D01*
X76763212Y-91296162D01*
X76651202Y-91566579D01*
X76594100Y-91853652D01*
X76594100Y-92146348D01*
X76651202Y-92433421D01*
X76763212Y-92703838D01*
X76802075Y-92762000D01*
X76634882Y-92762000D01*
X76291377Y-92830328D01*
X75967801Y-92964357D01*
X75676591Y-93158937D01*
X75428937Y-93406591D01*
X75234357Y-93697801D01*
X75100328Y-94021377D01*
X75032000Y-94364882D01*
X75032000Y-94715118D01*
X75100328Y-95058623D01*
X75234357Y-95382199D01*
X75428937Y-95673409D01*
X75676591Y-95921063D01*
X75967801Y-96115643D01*
X76291377Y-96249672D01*
X76634882Y-96318000D01*
X76985118Y-96318000D01*
X77328623Y-96249672D01*
X77652199Y-96115643D01*
X77943409Y-95921063D01*
X78191063Y-95673409D01*
X78385643Y-95382199D01*
X78418493Y-95302893D01*
X78426446Y-95303676D01*
X78463768Y-95300000D01*
X78463779Y-95300000D01*
X78575432Y-95289003D01*
X78718693Y-95245546D01*
X78850722Y-95174974D01*
X78966447Y-95080001D01*
X78990250Y-95050997D01*
X80216914Y-93824334D01*
X80245912Y-93800536D01*
X80340885Y-93684811D01*
X80411457Y-93552782D01*
X80454914Y-93409521D01*
X80465911Y-93297868D01*
X80465911Y-93297860D01*
X80469587Y-93260535D01*
X80465911Y-93223210D01*
X80465911Y-91853652D01*
X83434100Y-91853652D01*
X83434100Y-92146348D01*
X83491202Y-92433421D01*
X83603212Y-92703838D01*
X83765826Y-92947206D01*
X83972794Y-93154174D01*
X84216162Y-93316788D01*
X84486579Y-93428798D01*
X84773652Y-93485900D01*
X85066348Y-93485900D01*
X85353421Y-93428798D01*
X85623838Y-93316788D01*
X85867206Y-93154174D01*
X86074174Y-92947206D01*
X86236788Y-92703838D01*
X86348798Y-92433421D01*
X86405900Y-92146348D01*
X86405900Y-91853652D01*
X86354451Y-91595000D01*
X86400279Y-91595000D01*
X86812756Y-91512953D01*
X87201302Y-91352012D01*
X87507708Y-91147279D01*
X87472127Y-91233178D01*
X87371100Y-91741076D01*
X87371100Y-92258924D01*
X87472127Y-92766822D01*
X87670299Y-93245251D01*
X87958000Y-93675826D01*
X88324174Y-94042000D01*
X88754749Y-94329701D01*
X89233178Y-94527873D01*
X89741076Y-94628900D01*
X90258924Y-94628900D01*
X90766822Y-94527873D01*
X91245251Y-94329701D01*
X91675826Y-94042000D01*
X92042000Y-93675826D01*
X92329701Y-93245251D01*
X92527873Y-92766822D01*
X92628900Y-92258924D01*
X92628900Y-91741076D01*
X92527873Y-91233178D01*
X92329701Y-90754749D01*
X92042000Y-90324174D01*
X91675826Y-89958000D01*
X91245251Y-89670299D01*
X90766822Y-89472127D01*
X90258924Y-89371100D01*
X89741076Y-89371100D01*
X89233178Y-89472127D01*
X88754749Y-89670299D01*
X88324174Y-89958000D01*
X88253763Y-90028411D01*
X88325000Y-89670279D01*
X88325000Y-89249721D01*
X88242953Y-88837244D01*
X88082012Y-88448698D01*
X87848363Y-88099017D01*
X87550983Y-87801637D01*
X87201302Y-87567988D01*
X86812756Y-87407047D01*
X86400279Y-87325000D01*
X85979721Y-87325000D01*
X85567244Y-87407047D01*
X85178698Y-87567988D01*
X84829017Y-87801637D01*
X84531637Y-88099017D01*
X84297988Y-88448698D01*
X84137047Y-88837244D01*
X84055000Y-89249721D01*
X84055000Y-89670279D01*
X84137047Y-90082756D01*
X84297988Y-90471302D01*
X84391150Y-90610730D01*
X84216162Y-90683212D01*
X83972794Y-90845826D01*
X83765826Y-91052794D01*
X83603212Y-91296162D01*
X83491202Y-91566579D01*
X83434100Y-91853652D01*
X80465911Y-91853652D01*
X80465911Y-86709721D01*
X90405000Y-86709721D01*
X90405000Y-87130279D01*
X90487047Y-87542756D01*
X90647988Y-87931302D01*
X90881637Y-88280983D01*
X91179017Y-88578363D01*
X91528698Y-88812012D01*
X91917244Y-88972953D01*
X92329721Y-89055000D01*
X92750279Y-89055000D01*
X93162756Y-88972953D01*
X93551302Y-88812012D01*
X93900983Y-88578363D01*
X94198363Y-88280983D01*
X94432012Y-87931302D01*
X94592953Y-87542756D01*
X94675000Y-87130279D01*
X94675000Y-86709721D01*
X94592953Y-86297244D01*
X94432012Y-85908698D01*
X94198363Y-85559017D01*
X93900983Y-85261637D01*
X93551302Y-85027988D01*
X93162756Y-84867047D01*
X92750279Y-84785000D01*
X92329721Y-84785000D01*
X91917244Y-84867047D01*
X91528698Y-85027988D01*
X91179017Y-85261637D01*
X90881637Y-85559017D01*
X90647988Y-85908698D01*
X90487047Y-86297244D01*
X90405000Y-86709721D01*
X80465911Y-86709721D01*
X80465911Y-79904882D01*
X85682000Y-79904882D01*
X85682000Y-80255118D01*
X85750328Y-80598623D01*
X85884357Y-80922199D01*
X86078937Y-81213409D01*
X86326591Y-81461063D01*
X86617801Y-81655643D01*
X86941377Y-81789672D01*
X87284882Y-81858000D01*
X87635118Y-81858000D01*
X87978623Y-81789672D01*
X88302199Y-81655643D01*
X88593409Y-81461063D01*
X88841063Y-81213409D01*
X89035643Y-80922199D01*
X89169672Y-80598623D01*
X89238000Y-80255118D01*
X89238000Y-79904882D01*
X89169672Y-79561377D01*
X89035643Y-79237801D01*
X88841063Y-78946591D01*
X88593409Y-78698937D01*
X88302199Y-78504357D01*
X87978623Y-78370328D01*
X87635118Y-78302000D01*
X87284882Y-78302000D01*
X86941377Y-78370328D01*
X86617801Y-78504357D01*
X86326591Y-78698937D01*
X86078937Y-78946591D01*
X85884357Y-79237801D01*
X85750328Y-79561377D01*
X85682000Y-79904882D01*
X80465911Y-79904882D01*
X80465911Y-74853652D01*
X83434100Y-74853652D01*
X83434100Y-75146348D01*
X83491202Y-75433421D01*
X83603212Y-75703838D01*
X83765826Y-75947206D01*
X83972794Y-76154174D01*
X84216162Y-76316788D01*
X84486579Y-76428798D01*
X84773652Y-76485900D01*
X85066348Y-76485900D01*
X85353421Y-76428798D01*
X85623838Y-76316788D01*
X85867206Y-76154174D01*
X86074174Y-75947206D01*
X86236788Y-75703838D01*
X86348798Y-75433421D01*
X86405900Y-75146348D01*
X86405900Y-74853652D01*
X86354451Y-74595000D01*
X86400279Y-74595000D01*
X86812756Y-74512953D01*
X87201302Y-74352012D01*
X87507708Y-74147279D01*
X87472127Y-74233178D01*
X87371100Y-74741076D01*
X87371100Y-75258924D01*
X87472127Y-75766822D01*
X87670299Y-76245251D01*
X87958000Y-76675826D01*
X88324174Y-77042000D01*
X88754749Y-77329701D01*
X89233178Y-77527873D01*
X89741076Y-77628900D01*
X90258924Y-77628900D01*
X90766822Y-77527873D01*
X91245251Y-77329701D01*
X91675826Y-77042000D01*
X92042000Y-76675826D01*
X92329701Y-76245251D01*
X92527873Y-75766822D01*
X92628900Y-75258924D01*
X92628900Y-74741076D01*
X92527873Y-74233178D01*
X92329701Y-73754749D01*
X92042000Y-73324174D01*
X91675826Y-72958000D01*
X91245251Y-72670299D01*
X90766822Y-72472127D01*
X90258924Y-72371100D01*
X89741076Y-72371100D01*
X89233178Y-72472127D01*
X88754749Y-72670299D01*
X88324174Y-72958000D01*
X88253763Y-73028411D01*
X88325000Y-72670279D01*
X88325000Y-72249721D01*
X88242953Y-71837244D01*
X88082012Y-71448698D01*
X87848363Y-71099017D01*
X87550983Y-70801637D01*
X87201302Y-70567988D01*
X86812756Y-70407047D01*
X86400279Y-70325000D01*
X85979721Y-70325000D01*
X85567244Y-70407047D01*
X85178698Y-70567988D01*
X84829017Y-70801637D01*
X84531637Y-71099017D01*
X84297988Y-71448698D01*
X84137047Y-71837244D01*
X84055000Y-72249721D01*
X84055000Y-72670279D01*
X84137047Y-73082756D01*
X84297988Y-73471302D01*
X84391150Y-73610730D01*
X84216162Y-73683212D01*
X83972794Y-73845826D01*
X83765826Y-74052794D01*
X83603212Y-74296162D01*
X83491202Y-74566579D01*
X83434100Y-74853652D01*
X80465911Y-74853652D01*
X80465911Y-69709721D01*
X90405000Y-69709721D01*
X90405000Y-70130279D01*
X90487047Y-70542756D01*
X90647988Y-70931302D01*
X90881637Y-71280983D01*
X91179017Y-71578363D01*
X91528698Y-71812012D01*
X91917244Y-71972953D01*
X92329721Y-72055000D01*
X92750279Y-72055000D01*
X93162756Y-71972953D01*
X93551302Y-71812012D01*
X93900983Y-71578363D01*
X94198363Y-71280983D01*
X94432012Y-70931302D01*
X94592953Y-70542756D01*
X94675000Y-70130279D01*
X94675000Y-69709721D01*
X94592953Y-69297244D01*
X94432012Y-68908698D01*
X94198363Y-68559017D01*
X93900983Y-68261637D01*
X93551302Y-68027988D01*
X93162756Y-67867047D01*
X92750279Y-67785000D01*
X92329721Y-67785000D01*
X91917244Y-67867047D01*
X91528698Y-68027988D01*
X91179017Y-68261637D01*
X90881637Y-68559017D01*
X90647988Y-68908698D01*
X90487047Y-69297244D01*
X90405000Y-69709721D01*
X80465911Y-69709721D01*
X80465911Y-62904882D01*
X85682000Y-62904882D01*
X85682000Y-63255118D01*
X85750328Y-63598623D01*
X85884357Y-63922199D01*
X86078937Y-64213409D01*
X86326591Y-64461063D01*
X86617801Y-64655643D01*
X86941377Y-64789672D01*
X87284882Y-64858000D01*
X87635118Y-64858000D01*
X87978623Y-64789672D01*
X88302199Y-64655643D01*
X88593409Y-64461063D01*
X88841063Y-64213409D01*
X89035643Y-63922199D01*
X89169672Y-63598623D01*
X89238000Y-63255118D01*
X89238000Y-62904882D01*
X89169672Y-62561377D01*
X89035643Y-62237801D01*
X88841063Y-61946591D01*
X88593409Y-61698937D01*
X88302199Y-61504357D01*
X87978623Y-61370328D01*
X87635118Y-61302000D01*
X87284882Y-61302000D01*
X86941377Y-61370328D01*
X86617801Y-61504357D01*
X86326591Y-61698937D01*
X86078937Y-61946591D01*
X85884357Y-62237801D01*
X85750328Y-62561377D01*
X85682000Y-62904882D01*
X80465911Y-62904882D01*
X80465911Y-58040713D01*
X83476201Y-61051003D01*
X83499999Y-61080001D01*
X83528997Y-61103799D01*
X83615723Y-61174974D01*
X83732766Y-61237535D01*
X83747753Y-61245546D01*
X83891014Y-61289003D01*
X84002667Y-61300000D01*
X84002676Y-61300000D01*
X84039999Y-61303676D01*
X84077322Y-61300000D01*
X92200309Y-61300000D01*
X92234357Y-61382199D01*
X92428937Y-61673409D01*
X92676591Y-61921063D01*
X92967801Y-62115643D01*
X93291377Y-62249672D01*
X93634882Y-62318000D01*
X93985118Y-62318000D01*
X94328623Y-62249672D01*
X94652199Y-62115643D01*
X94943409Y-61921063D01*
X95191063Y-61673409D01*
X95385643Y-61382199D01*
X95479882Y-61154684D01*
X95495901Y-61170703D01*
X95495902Y-73567717D01*
X95226348Y-73514100D01*
X94933652Y-73514100D01*
X94646579Y-73571202D01*
X94376162Y-73683212D01*
X94132794Y-73845826D01*
X93925826Y-74052794D01*
X93763212Y-74296162D01*
X93651202Y-74566579D01*
X93594100Y-74853652D01*
X93594100Y-75146348D01*
X93651202Y-75433421D01*
X93763212Y-75703838D01*
X93802075Y-75762000D01*
X93634882Y-75762000D01*
X93291377Y-75830328D01*
X92967801Y-75964357D01*
X92676591Y-76158937D01*
X92428937Y-76406591D01*
X92234357Y-76697801D01*
X92100328Y-77021377D01*
X92032000Y-77364882D01*
X92032000Y-77715118D01*
X92100328Y-78058623D01*
X92234357Y-78382199D01*
X92428937Y-78673409D01*
X92676591Y-78921063D01*
X92967801Y-79115643D01*
X93291377Y-79249672D01*
X93634882Y-79318000D01*
X93985118Y-79318000D01*
X94328623Y-79249672D01*
X94652199Y-79115643D01*
X94943409Y-78921063D01*
X95191063Y-78673409D01*
X95385643Y-78382199D01*
X95418493Y-78302893D01*
X95426446Y-78303676D01*
X95463768Y-78300000D01*
X95463779Y-78300000D01*
X95575432Y-78289003D01*
X95718693Y-78245546D01*
X95850722Y-78174974D01*
X95945912Y-78096854D01*
X95945912Y-90791507D01*
X95783838Y-90683212D01*
X95513421Y-90571202D01*
X95226348Y-90514100D01*
X94933652Y-90514100D01*
X94646579Y-90571202D01*
X94376162Y-90683212D01*
X94132794Y-90845826D01*
X93925826Y-91052794D01*
X93763212Y-91296162D01*
X93651202Y-91566579D01*
X93594100Y-91853652D01*
X93594100Y-92146348D01*
X93651202Y-92433421D01*
X93763212Y-92703838D01*
X93802075Y-92762000D01*
X93634882Y-92762000D01*
X93291377Y-92830328D01*
X92967801Y-92964357D01*
X92676591Y-93158937D01*
X92428937Y-93406591D01*
X92234357Y-93697801D01*
X92100328Y-94021377D01*
X92032000Y-94364882D01*
X92032000Y-94715118D01*
X92100328Y-95058623D01*
X92234357Y-95382199D01*
X92428937Y-95673409D01*
X92676591Y-95921063D01*
X92967801Y-96115643D01*
X93291377Y-96249672D01*
X93634882Y-96318000D01*
X93985118Y-96318000D01*
X94328623Y-96249672D01*
X94652199Y-96115643D01*
X94943409Y-95921063D01*
X95191063Y-95673409D01*
X95385643Y-95382199D01*
X95418493Y-95302893D01*
X95426446Y-95303676D01*
X95463768Y-95300000D01*
X95463779Y-95300000D01*
X95575432Y-95289003D01*
X95718693Y-95245546D01*
X95850722Y-95174974D01*
X95966447Y-95080001D01*
X95990250Y-95050997D01*
X97216914Y-93824334D01*
X97245912Y-93800536D01*
X97340885Y-93684811D01*
X97411457Y-93552782D01*
X97454914Y-93409521D01*
X97465911Y-93297868D01*
X97465911Y-93297860D01*
X97469587Y-93260535D01*
X97465911Y-93223210D01*
X97465911Y-91853652D01*
X100434100Y-91853652D01*
X100434100Y-92146348D01*
X100491202Y-92433421D01*
X100603212Y-92703838D01*
X100765826Y-92947206D01*
X100972794Y-93154174D01*
X101216162Y-93316788D01*
X101486579Y-93428798D01*
X101773652Y-93485900D01*
X102066348Y-93485900D01*
X102353421Y-93428798D01*
X102623838Y-93316788D01*
X102867206Y-93154174D01*
X103074174Y-92947206D01*
X103236788Y-92703838D01*
X103348798Y-92433421D01*
X103405900Y-92146348D01*
X103405900Y-91853652D01*
X103354451Y-91595000D01*
X103400279Y-91595000D01*
X103812756Y-91512953D01*
X104201302Y-91352012D01*
X104507708Y-91147279D01*
X104472127Y-91233178D01*
X104371100Y-91741076D01*
X104371100Y-92258924D01*
X104472127Y-92766822D01*
X104670299Y-93245251D01*
X104958000Y-93675826D01*
X105324174Y-94042000D01*
X105754749Y-94329701D01*
X106233178Y-94527873D01*
X106741076Y-94628900D01*
X107258924Y-94628900D01*
X107766822Y-94527873D01*
X108245251Y-94329701D01*
X108675826Y-94042000D01*
X109042000Y-93675826D01*
X109329701Y-93245251D01*
X109527873Y-92766822D01*
X109628900Y-92258924D01*
X109628900Y-91741076D01*
X109527873Y-91233178D01*
X109329701Y-90754749D01*
X109042000Y-90324174D01*
X108675826Y-89958000D01*
X108245251Y-89670299D01*
X107766822Y-89472127D01*
X107258924Y-89371100D01*
X106741076Y-89371100D01*
X106233178Y-89472127D01*
X105754749Y-89670299D01*
X105324174Y-89958000D01*
X105253763Y-90028411D01*
X105325000Y-89670279D01*
X105325000Y-89249721D01*
X105242953Y-88837244D01*
X105082012Y-88448698D01*
X104848363Y-88099017D01*
X104550983Y-87801637D01*
X104201302Y-87567988D01*
X103812756Y-87407047D01*
X103400279Y-87325000D01*
X102979721Y-87325000D01*
X102567244Y-87407047D01*
X102178698Y-87567988D01*
X101829017Y-87801637D01*
X101531637Y-88099017D01*
X101297988Y-88448698D01*
X101137047Y-88837244D01*
X101055000Y-89249721D01*
X101055000Y-89670279D01*
X101137047Y-90082756D01*
X101297988Y-90471302D01*
X101391150Y-90610730D01*
X101216162Y-90683212D01*
X100972794Y-90845826D01*
X100765826Y-91052794D01*
X100603212Y-91296162D01*
X100491202Y-91566579D01*
X100434100Y-91853652D01*
X97465911Y-91853652D01*
X97465911Y-86709721D01*
X107405000Y-86709721D01*
X107405000Y-87130279D01*
X107487047Y-87542756D01*
X107647988Y-87931302D01*
X107881637Y-88280983D01*
X108179017Y-88578363D01*
X108528698Y-88812012D01*
X108917244Y-88972953D01*
X109329721Y-89055000D01*
X109750279Y-89055000D01*
X110162756Y-88972953D01*
X110551302Y-88812012D01*
X110900983Y-88578363D01*
X111198363Y-88280983D01*
X111432012Y-87931302D01*
X111592953Y-87542756D01*
X111675000Y-87130279D01*
X111675000Y-86709721D01*
X111592953Y-86297244D01*
X111432012Y-85908698D01*
X111198363Y-85559017D01*
X110900983Y-85261637D01*
X110551302Y-85027988D01*
X110162756Y-84867047D01*
X109750279Y-84785000D01*
X109329721Y-84785000D01*
X108917244Y-84867047D01*
X108528698Y-85027988D01*
X108179017Y-85261637D01*
X107881637Y-85559017D01*
X107647988Y-85908698D01*
X107487047Y-86297244D01*
X107405000Y-86709721D01*
X97465911Y-86709721D01*
X97465911Y-79904882D01*
X102682000Y-79904882D01*
X102682000Y-80255118D01*
X102750328Y-80598623D01*
X102884357Y-80922199D01*
X103078937Y-81213409D01*
X103326591Y-81461063D01*
X103617801Y-81655643D01*
X103941377Y-81789672D01*
X104284882Y-81858000D01*
X104635118Y-81858000D01*
X104978623Y-81789672D01*
X105302199Y-81655643D01*
X105593409Y-81461063D01*
X105841063Y-81213409D01*
X106035643Y-80922199D01*
X106169672Y-80598623D01*
X106238000Y-80255118D01*
X106238000Y-79904882D01*
X106169672Y-79561377D01*
X106035643Y-79237801D01*
X105841063Y-78946591D01*
X105593409Y-78698937D01*
X105302199Y-78504357D01*
X104978623Y-78370328D01*
X104635118Y-78302000D01*
X104284882Y-78302000D01*
X103941377Y-78370328D01*
X103617801Y-78504357D01*
X103326591Y-78698937D01*
X103078937Y-78946591D01*
X102884357Y-79237801D01*
X102750328Y-79561377D01*
X102682000Y-79904882D01*
X97465911Y-79904882D01*
X97465911Y-74853652D01*
X100434100Y-74853652D01*
X100434100Y-75146348D01*
X100491202Y-75433421D01*
X100603212Y-75703838D01*
X100765826Y-75947206D01*
X100972794Y-76154174D01*
X101216162Y-76316788D01*
X101486579Y-76428798D01*
X101773652Y-76485900D01*
X102066348Y-76485900D01*
X102353421Y-76428798D01*
X102623838Y-76316788D01*
X102867206Y-76154174D01*
X103074174Y-75947206D01*
X103236788Y-75703838D01*
X103348798Y-75433421D01*
X103405900Y-75146348D01*
X103405900Y-74853652D01*
X103354451Y-74595000D01*
X103400279Y-74595000D01*
X103812756Y-74512953D01*
X104201302Y-74352012D01*
X104507708Y-74147279D01*
X104472127Y-74233178D01*
X104371100Y-74741076D01*
X104371100Y-75258924D01*
X104472127Y-75766822D01*
X104670299Y-76245251D01*
X104958000Y-76675826D01*
X105324174Y-77042000D01*
X105754749Y-77329701D01*
X106233178Y-77527873D01*
X106741076Y-77628900D01*
X107258924Y-77628900D01*
X107766822Y-77527873D01*
X108245251Y-77329701D01*
X108675826Y-77042000D01*
X109042000Y-76675826D01*
X109329701Y-76245251D01*
X109527873Y-75766822D01*
X109628900Y-75258924D01*
X109628900Y-74741076D01*
X109527873Y-74233178D01*
X109329701Y-73754749D01*
X109042000Y-73324174D01*
X108675826Y-72958000D01*
X108245251Y-72670299D01*
X107766822Y-72472127D01*
X107258924Y-72371100D01*
X106741076Y-72371100D01*
X106233178Y-72472127D01*
X105754749Y-72670299D01*
X105324174Y-72958000D01*
X105253763Y-73028411D01*
X105325000Y-72670279D01*
X105325000Y-72249721D01*
X105242953Y-71837244D01*
X105082012Y-71448698D01*
X104848363Y-71099017D01*
X104550983Y-70801637D01*
X104201302Y-70567988D01*
X103812756Y-70407047D01*
X103400279Y-70325000D01*
X102979721Y-70325000D01*
X102567244Y-70407047D01*
X102178698Y-70567988D01*
X101829017Y-70801637D01*
X101531637Y-71099017D01*
X101297988Y-71448698D01*
X101137047Y-71837244D01*
X101055000Y-72249721D01*
X101055000Y-72670279D01*
X101137047Y-73082756D01*
X101297988Y-73471302D01*
X101391150Y-73610730D01*
X101216162Y-73683212D01*
X100972794Y-73845826D01*
X100765826Y-74052794D01*
X100603212Y-74296162D01*
X100491202Y-74566579D01*
X100434100Y-74853652D01*
X97465911Y-74853652D01*
X97465911Y-69709721D01*
X107405000Y-69709721D01*
X107405000Y-70130279D01*
X107487047Y-70542756D01*
X107647988Y-70931302D01*
X107881637Y-71280983D01*
X108179017Y-71578363D01*
X108528698Y-71812012D01*
X108917244Y-71972953D01*
X109329721Y-72055000D01*
X109750279Y-72055000D01*
X110162756Y-71972953D01*
X110551302Y-71812012D01*
X110900983Y-71578363D01*
X111198363Y-71280983D01*
X111432012Y-70931302D01*
X111592953Y-70542756D01*
X111675000Y-70130279D01*
X111675000Y-69709721D01*
X111592953Y-69297244D01*
X111432012Y-68908698D01*
X111198363Y-68559017D01*
X110900983Y-68261637D01*
X110551302Y-68027988D01*
X110162756Y-67867047D01*
X109750279Y-67785000D01*
X109329721Y-67785000D01*
X108917244Y-67867047D01*
X108528698Y-68027988D01*
X108179017Y-68261637D01*
X107881637Y-68559017D01*
X107647988Y-68908698D01*
X107487047Y-69297244D01*
X107405000Y-69709721D01*
X97465911Y-69709721D01*
X97465911Y-62904882D01*
X102682000Y-62904882D01*
X102682000Y-63255118D01*
X102750328Y-63598623D01*
X102884357Y-63922199D01*
X103078937Y-64213409D01*
X103326591Y-64461063D01*
X103617801Y-64655643D01*
X103941377Y-64789672D01*
X104284882Y-64858000D01*
X104635118Y-64858000D01*
X104978623Y-64789672D01*
X105302199Y-64655643D01*
X105593409Y-64461063D01*
X105841063Y-64213409D01*
X106035643Y-63922199D01*
X106169672Y-63598623D01*
X106238000Y-63255118D01*
X106238000Y-62904882D01*
X106169672Y-62561377D01*
X106035643Y-62237801D01*
X105841063Y-61946591D01*
X105593409Y-61698937D01*
X105302199Y-61504357D01*
X104978623Y-61370328D01*
X104635118Y-61302000D01*
X104284882Y-61302000D01*
X103941377Y-61370328D01*
X103617801Y-61504357D01*
X103326591Y-61698937D01*
X103078937Y-61946591D01*
X102884357Y-62237801D01*
X102750328Y-62561377D01*
X102682000Y-62904882D01*
X97465911Y-62904882D01*
X97465911Y-57922910D01*
X97469588Y-57885577D01*
X97464957Y-57838553D01*
X97454914Y-57736591D01*
X97411457Y-57593330D01*
X97340885Y-57461301D01*
X97245912Y-57345576D01*
X97216915Y-57321779D01*
X96208237Y-56313101D01*
X96184434Y-56284098D01*
X96068709Y-56189125D01*
X95936680Y-56118553D01*
X95793419Y-56075096D01*
X95681766Y-56064099D01*
X95681755Y-56064099D01*
X95644433Y-56060423D01*
X95607111Y-56064099D01*
X94057899Y-56064099D01*
X92999272Y-55005472D01*
X93162756Y-54972953D01*
X93551302Y-54812012D01*
X93900983Y-54578363D01*
X94198363Y-54280983D01*
X94432012Y-53931302D01*
X94592953Y-53542756D01*
X94675000Y-53130279D01*
X94675000Y-53049801D01*
X99984099Y-58358902D01*
X99984099Y-58506777D01*
X99980423Y-58544099D01*
X99984099Y-58581421D01*
X99984099Y-58581432D01*
X99995096Y-58693085D01*
X100038553Y-58836346D01*
X100109125Y-58968375D01*
X100204099Y-59084100D01*
X100233097Y-59107898D01*
X102079201Y-60954003D01*
X102084692Y-60964276D01*
X102179665Y-61080001D01*
X102295390Y-61174974D01*
X102427419Y-61245546D01*
X102570680Y-61289003D01*
X102682333Y-61300000D01*
X102702676Y-61300000D01*
X102739999Y-61303676D01*
X102777322Y-61300000D01*
X109200309Y-61300000D01*
X109234357Y-61382199D01*
X109428937Y-61673409D01*
X109676591Y-61921063D01*
X109967801Y-62115643D01*
X110291377Y-62249672D01*
X110634882Y-62318000D01*
X110985118Y-62318000D01*
X111328623Y-62249672D01*
X111652199Y-62115643D01*
X111943409Y-61921063D01*
X112191063Y-61673409D01*
X112385643Y-61382199D01*
X112495901Y-61116011D01*
X112495902Y-73567717D01*
X112226348Y-73514100D01*
X111933652Y-73514100D01*
X111646579Y-73571202D01*
X111376162Y-73683212D01*
X111132794Y-73845826D01*
X110925826Y-74052794D01*
X110763212Y-74296162D01*
X110651202Y-74566579D01*
X110594100Y-74853652D01*
X110594100Y-75146348D01*
X110651202Y-75433421D01*
X110763212Y-75703838D01*
X110802075Y-75762000D01*
X110634882Y-75762000D01*
X110291377Y-75830328D01*
X109967801Y-75964357D01*
X109676591Y-76158937D01*
X109428937Y-76406591D01*
X109234357Y-76697801D01*
X109100328Y-77021377D01*
X109032000Y-77364882D01*
X109032000Y-77715118D01*
X109100328Y-78058623D01*
X109234357Y-78382199D01*
X109428937Y-78673409D01*
X109676591Y-78921063D01*
X109967801Y-79115643D01*
X110291377Y-79249672D01*
X110634882Y-79318000D01*
X110985118Y-79318000D01*
X111328623Y-79249672D01*
X111652199Y-79115643D01*
X111943409Y-78921063D01*
X112191063Y-78673409D01*
X112385643Y-78382199D01*
X112418493Y-78302893D01*
X112426446Y-78303676D01*
X112463768Y-78300000D01*
X112463779Y-78300000D01*
X112575432Y-78289003D01*
X112718693Y-78245546D01*
X112850722Y-78174974D01*
X112945912Y-78096854D01*
X112945912Y-90791507D01*
X112783838Y-90683212D01*
X112513421Y-90571202D01*
X112226348Y-90514100D01*
X111933652Y-90514100D01*
X111646579Y-90571202D01*
X111376162Y-90683212D01*
X111132794Y-90845826D01*
X110925826Y-91052794D01*
X110763212Y-91296162D01*
X110651202Y-91566579D01*
X110594100Y-91853652D01*
X110594100Y-92146348D01*
X110651202Y-92433421D01*
X110763212Y-92703838D01*
X110802075Y-92762000D01*
X110634882Y-92762000D01*
X110291377Y-92830328D01*
X109967801Y-92964357D01*
X109676591Y-93158937D01*
X109428937Y-93406591D01*
X109234357Y-93697801D01*
X109100328Y-94021377D01*
X109032000Y-94364882D01*
X109032000Y-94715118D01*
X109100328Y-95058623D01*
X109234357Y-95382199D01*
X109428937Y-95673409D01*
X109676591Y-95921063D01*
X109967801Y-96115643D01*
X110291377Y-96249672D01*
X110634882Y-96318000D01*
X110985118Y-96318000D01*
X111328623Y-96249672D01*
X111652199Y-96115643D01*
X111943409Y-95921063D01*
X112191063Y-95673409D01*
X112385643Y-95382199D01*
X112418493Y-95302893D01*
X112426446Y-95303676D01*
X112463768Y-95300000D01*
X112463779Y-95300000D01*
X112575432Y-95289003D01*
X112718693Y-95245546D01*
X112850722Y-95174974D01*
X112966447Y-95080001D01*
X112990250Y-95050997D01*
X114216914Y-93824334D01*
X114245912Y-93800536D01*
X114340885Y-93684811D01*
X114411457Y-93552782D01*
X114454914Y-93409521D01*
X114465911Y-93297868D01*
X114465911Y-93297860D01*
X114469587Y-93260535D01*
X114465911Y-93223210D01*
X114465911Y-54243233D01*
X114469587Y-54205910D01*
X114465911Y-54168587D01*
X114465911Y-54168578D01*
X114454914Y-54056925D01*
X114411457Y-53913664D01*
X114340885Y-53781635D01*
X114287033Y-53716016D01*
X114269710Y-53694907D01*
X114269706Y-53694903D01*
X114245912Y-53665910D01*
X114216920Y-53642117D01*
X108883804Y-48309003D01*
X108860001Y-48279999D01*
X108744276Y-48185026D01*
X108612247Y-48114454D01*
X108468986Y-48070997D01*
X108357333Y-48060000D01*
X108357322Y-48060000D01*
X108320000Y-48056324D01*
X108282678Y-48060000D01*
X106976321Y-48060000D01*
X107247743Y-48006011D01*
X107527095Y-47890299D01*
X107778505Y-47722312D01*
X107844944Y-47655873D01*
X107850498Y-47674180D01*
X107909463Y-47784494D01*
X107988815Y-47881185D01*
X108085506Y-47960537D01*
X108195820Y-48019502D01*
X108315518Y-48055812D01*
X108440000Y-48068072D01*
X109054250Y-48065000D01*
X109213000Y-47906250D01*
X109213000Y-46657000D01*
X109467000Y-46657000D01*
X109467000Y-47906250D01*
X109625750Y-48065000D01*
X110240000Y-48068072D01*
X110364482Y-48055812D01*
X110484180Y-48019502D01*
X110594494Y-47960537D01*
X110691185Y-47881185D01*
X110770537Y-47784494D01*
X110829502Y-47674180D01*
X110865812Y-47554482D01*
X110878072Y-47430000D01*
X110875000Y-46815750D01*
X110716250Y-46657000D01*
X109467000Y-46657000D01*
X109213000Y-46657000D01*
X109193000Y-46657000D01*
X109193000Y-46403000D01*
X109213000Y-46403000D01*
X109213000Y-45153750D01*
X109467000Y-45153750D01*
X109467000Y-46403000D01*
X110716250Y-46403000D01*
X110875000Y-46244250D01*
X110878072Y-45630000D01*
X110865812Y-45505518D01*
X110829502Y-45385820D01*
X110770537Y-45275506D01*
X110691185Y-45178815D01*
X110594494Y-45099463D01*
X110484180Y-45040498D01*
X110364482Y-45004188D01*
X110240000Y-44991928D01*
X109625750Y-44995000D01*
X109467000Y-45153750D01*
X109213000Y-45153750D01*
X109054250Y-44995000D01*
X108440000Y-44991928D01*
X108315518Y-45004188D01*
X108195820Y-45040498D01*
X108085506Y-45099463D01*
X107988815Y-45178815D01*
X107909463Y-45275506D01*
X107850498Y-45385820D01*
X107844944Y-45404127D01*
X107778505Y-45337688D01*
X107527095Y-45169701D01*
X107247743Y-45053989D01*
X106951184Y-44995000D01*
X106648816Y-44995000D01*
X106391070Y-45046269D01*
X105899999Y-44555198D01*
X105899999Y-43542293D01*
X105917795Y-43585256D01*
X106031063Y-43754774D01*
X106175226Y-43898937D01*
X106344744Y-44012205D01*
X106533102Y-44090226D01*
X106733061Y-44130000D01*
X106936939Y-44130000D01*
X107136898Y-44090226D01*
X107325256Y-44012205D01*
X107494774Y-43898937D01*
X107638937Y-43754774D01*
X107752205Y-43585256D01*
X107830226Y-43396898D01*
X107870000Y-43196939D01*
X107870000Y-43134801D01*
X108536004Y-42468798D01*
X108565002Y-42445000D01*
X108659975Y-42329275D01*
X108730547Y-42197246D01*
X108774004Y-42053985D01*
X108785001Y-41942332D01*
X108788678Y-41904999D01*
X108785001Y-41867666D01*
X108785001Y-41566347D01*
X109054250Y-41565000D01*
X109213000Y-41406250D01*
X109213000Y-40157000D01*
X109467000Y-40157000D01*
X109467000Y-41406250D01*
X109625750Y-41565000D01*
X110240000Y-41568072D01*
X110364482Y-41555812D01*
X110484180Y-41519502D01*
X110594494Y-41460537D01*
X110691185Y-41381185D01*
X110770537Y-41284494D01*
X110829502Y-41174180D01*
X110865812Y-41054482D01*
X110878072Y-40930000D01*
X110875000Y-40315750D01*
X110716250Y-40157000D01*
X109467000Y-40157000D01*
X109213000Y-40157000D01*
X109193000Y-40157000D01*
X109193000Y-39903000D01*
X109213000Y-39903000D01*
X109213000Y-38653750D01*
X109467000Y-38653750D01*
X109467000Y-39903000D01*
X110716250Y-39903000D01*
X110875000Y-39744250D01*
X110878072Y-39130000D01*
X110865812Y-39005518D01*
X110829502Y-38885820D01*
X110770537Y-38775506D01*
X110691185Y-38678815D01*
X110594494Y-38599463D01*
X110484180Y-38540498D01*
X110364482Y-38504188D01*
X110240000Y-38491928D01*
X109625750Y-38495000D01*
X109467000Y-38653750D01*
X109213000Y-38653750D01*
X109054250Y-38495000D01*
X108785001Y-38493653D01*
X108785001Y-35066347D01*
X109054250Y-35065000D01*
X109213000Y-34906250D01*
X109213000Y-33657000D01*
X109467000Y-33657000D01*
X109467000Y-34906250D01*
X109625750Y-35065000D01*
X110240000Y-35068072D01*
X110364482Y-35055812D01*
X110484180Y-35019502D01*
X110594494Y-34960537D01*
X110691185Y-34881185D01*
X110770537Y-34784494D01*
X110829502Y-34674180D01*
X110865812Y-34554482D01*
X110878072Y-34430000D01*
X110875000Y-33815750D01*
X110716250Y-33657000D01*
X109467000Y-33657000D01*
X109213000Y-33657000D01*
X109193000Y-33657000D01*
X109193000Y-33403000D01*
X109213000Y-33403000D01*
X109213000Y-32153750D01*
X109467000Y-32153750D01*
X109467000Y-33403000D01*
X110716250Y-33403000D01*
X110875000Y-33244250D01*
X110878072Y-32630000D01*
X110865812Y-32505518D01*
X110829502Y-32385820D01*
X110770537Y-32275506D01*
X110691185Y-32178815D01*
X110594494Y-32099463D01*
X110484180Y-32040498D01*
X110364482Y-32004188D01*
X110240000Y-31991928D01*
X109625750Y-31995000D01*
X109467000Y-32153750D01*
X109213000Y-32153750D01*
X109054250Y-31995000D01*
X108440000Y-31991928D01*
X108315518Y-32004188D01*
X108195820Y-32040498D01*
X108085506Y-32099463D01*
X107988815Y-32178815D01*
X107909463Y-32275506D01*
X107850498Y-32385820D01*
X107844944Y-32404127D01*
X107778505Y-32337688D01*
X107527095Y-32169701D01*
X107247743Y-32053989D01*
X106951184Y-31995000D01*
X106648816Y-31995000D01*
X106352257Y-32053989D01*
X106072905Y-32169701D01*
X105821495Y-32337688D01*
X105607688Y-32551495D01*
X105439701Y-32802905D01*
X105323989Y-33082257D01*
X105265000Y-33378816D01*
X105265000Y-33681184D01*
X105323989Y-33977743D01*
X105439701Y-34257095D01*
X105607688Y-34508505D01*
X105821495Y-34722312D01*
X106072905Y-34890299D01*
X106352257Y-35006011D01*
X106648816Y-35065000D01*
X106951184Y-35065000D01*
X107208930Y-35013731D01*
X107265001Y-35069803D01*
X107265002Y-38561138D01*
X107247743Y-38553989D01*
X106951184Y-38495000D01*
X106648816Y-38495000D01*
X106352257Y-38553989D01*
X106072905Y-38669701D01*
X105899999Y-38785233D01*
X105899999Y-38477321D01*
X105903675Y-38439998D01*
X105899999Y-38402676D01*
X105899999Y-38402666D01*
X105889002Y-38291013D01*
X105845545Y-38147752D01*
X105775000Y-38015774D01*
X105775000Y-37938061D01*
X105735226Y-37738102D01*
X105657205Y-37549744D01*
X105543937Y-37380226D01*
X105399774Y-37236063D01*
X105230256Y-37122795D01*
X105041898Y-37044774D01*
X104841939Y-37005000D01*
X104638061Y-37005000D01*
X104438102Y-37044774D01*
X104249744Y-37122795D01*
X104080226Y-37236063D01*
X103936063Y-37380226D01*
X103822795Y-37549744D01*
X103744774Y-37738102D01*
X103705000Y-37938061D01*
X103705000Y-38141939D01*
X103744774Y-38341898D01*
X103809765Y-38498799D01*
X103740000Y-38491928D01*
X103125750Y-38495000D01*
X102967000Y-38653750D01*
X102967000Y-39903000D01*
X104216250Y-39903000D01*
X104375000Y-39744250D01*
X104378072Y-39130000D01*
X104365812Y-39005518D01*
X104365730Y-39005248D01*
X104379999Y-39011159D01*
X104380000Y-44832667D01*
X104376323Y-44869999D01*
X104380000Y-44907332D01*
X104381687Y-44924455D01*
X104390997Y-45018984D01*
X104434453Y-45162245D01*
X104505025Y-45294275D01*
X104541719Y-45338986D01*
X104599999Y-45410000D01*
X104628997Y-45433798D01*
X105316269Y-46121070D01*
X105265000Y-46378816D01*
X105265000Y-46681184D01*
X105323989Y-46977743D01*
X105439701Y-47257095D01*
X105607688Y-47508505D01*
X105821495Y-47722312D01*
X106072905Y-47890299D01*
X106352257Y-48006011D01*
X106623679Y-48060000D01*
X103821959Y-48060000D01*
X103864482Y-48055812D01*
X103984180Y-48019502D01*
X104094494Y-47960537D01*
X104191185Y-47881185D01*
X104270537Y-47784494D01*
X104329502Y-47674180D01*
X104365812Y-47554482D01*
X104378072Y-47430000D01*
X104375000Y-46815750D01*
X104216250Y-46657000D01*
X102967000Y-46657000D01*
X102967000Y-46677000D01*
X102713000Y-46677000D01*
X102713000Y-46657000D01*
X102693000Y-46657000D01*
X102693000Y-46403000D01*
X102713000Y-46403000D01*
X102713000Y-45153750D01*
X102967000Y-45153750D01*
X102967000Y-46403000D01*
X104216250Y-46403000D01*
X104375000Y-46244250D01*
X104378072Y-45630000D01*
X104365812Y-45505518D01*
X104329502Y-45385820D01*
X104270537Y-45275506D01*
X104191185Y-45178815D01*
X104094494Y-45099463D01*
X103984180Y-45040498D01*
X103864482Y-45004188D01*
X103740000Y-44991928D01*
X103125750Y-44995000D01*
X102967000Y-45153750D01*
X102713000Y-45153750D01*
X102554250Y-44995000D01*
X101940000Y-44991928D01*
X101815518Y-45004188D01*
X101695820Y-45040498D01*
X101585506Y-45099463D01*
X101488815Y-45178815D01*
X101409463Y-45275506D01*
X101350498Y-45385820D01*
X101344944Y-45404127D01*
X101278505Y-45337688D01*
X101027095Y-45169701D01*
X100747743Y-45053989D01*
X100451184Y-44995000D01*
X100275486Y-44995000D01*
X102036005Y-43234482D01*
X102065002Y-43210685D01*
X102159975Y-43094960D01*
X102230547Y-42962931D01*
X102274004Y-42819670D01*
X102285001Y-42708017D01*
X102285001Y-42708007D01*
X102288677Y-42670684D01*
X102285001Y-42633361D01*
X102285001Y-41566347D01*
X102554250Y-41565000D01*
X102713000Y-41406250D01*
X102713000Y-40157000D01*
X102967000Y-40157000D01*
X102967000Y-41406250D01*
X103125750Y-41565000D01*
X103740000Y-41568072D01*
X103864482Y-41555812D01*
X103984180Y-41519502D01*
X104094494Y-41460537D01*
X104191185Y-41381185D01*
X104270537Y-41284494D01*
X104329502Y-41174180D01*
X104365812Y-41054482D01*
X104378072Y-40930000D01*
X104375000Y-40315750D01*
X104216250Y-40157000D01*
X102967000Y-40157000D01*
X102713000Y-40157000D01*
X102693000Y-40157000D01*
X102693000Y-39903000D01*
X102713000Y-39903000D01*
X102713000Y-38653750D01*
X102554250Y-38495000D01*
X102285001Y-38493653D01*
X102285001Y-35066347D01*
X102554250Y-35065000D01*
X102713000Y-34906250D01*
X102713000Y-33657000D01*
X102967000Y-33657000D01*
X102967000Y-34906250D01*
X103125750Y-35065000D01*
X103740000Y-35068072D01*
X103864482Y-35055812D01*
X103984180Y-35019502D01*
X104094494Y-34960537D01*
X104191185Y-34881185D01*
X104270537Y-34784494D01*
X104329502Y-34674180D01*
X104365812Y-34554482D01*
X104378072Y-34430000D01*
X104375000Y-33815750D01*
X104216250Y-33657000D01*
X102967000Y-33657000D01*
X102713000Y-33657000D01*
X102693000Y-33657000D01*
X102693000Y-33403000D01*
X102713000Y-33403000D01*
X102713000Y-32153750D01*
X102967000Y-32153750D01*
X102967000Y-33403000D01*
X104216250Y-33403000D01*
X104375000Y-33244250D01*
X104378072Y-32630000D01*
X104365812Y-32505518D01*
X104329502Y-32385820D01*
X104270537Y-32275506D01*
X104191185Y-32178815D01*
X104094494Y-32099463D01*
X103984180Y-32040498D01*
X103864482Y-32004188D01*
X103740000Y-31991928D01*
X103125750Y-31995000D01*
X102967000Y-32153750D01*
X102713000Y-32153750D01*
X102554250Y-31995000D01*
X101940000Y-31991928D01*
X101815518Y-32004188D01*
X101695820Y-32040498D01*
X101585506Y-32099463D01*
X101488815Y-32178815D01*
X101409463Y-32275506D01*
X101350498Y-32385820D01*
X101344944Y-32404127D01*
X101278505Y-32337688D01*
X101027095Y-32169701D01*
X100747743Y-32053989D01*
X100451184Y-31995000D01*
X100148816Y-31995000D01*
X99852257Y-32053989D01*
X99572905Y-32169701D01*
X99321495Y-32337688D01*
X99107688Y-32551495D01*
X98939701Y-32802905D01*
X98823989Y-33082257D01*
X98765000Y-33378816D01*
X98765000Y-33681184D01*
X98823989Y-33977743D01*
X98939701Y-34257095D01*
X99107688Y-34508505D01*
X99321495Y-34722312D01*
X99572905Y-34890299D01*
X99852257Y-35006011D01*
X100148816Y-35065000D01*
X100451184Y-35065000D01*
X100708930Y-35013731D01*
X100765002Y-35069803D01*
X100765002Y-38561138D01*
X100747743Y-38553989D01*
X100451184Y-38495000D01*
X100148816Y-38495000D01*
X99852257Y-38553989D01*
X99572905Y-38669701D01*
X99321495Y-38837688D01*
X99107688Y-39051495D01*
X98939701Y-39302905D01*
X98823989Y-39582257D01*
X98765000Y-39878816D01*
X98765000Y-40181184D01*
X98823989Y-40477743D01*
X98939701Y-40757095D01*
X99107688Y-41008505D01*
X99321495Y-41222312D01*
X99540000Y-41368313D01*
X99540000Y-42015195D01*
X98400199Y-43154997D01*
X98338061Y-43154997D01*
X98138102Y-43194771D01*
X97949744Y-43272792D01*
X97780226Y-43386060D01*
X97636063Y-43530223D01*
X97522795Y-43699741D01*
X97444774Y-43888099D01*
X97405000Y-44088058D01*
X97405000Y-44291936D01*
X97444774Y-44491895D01*
X97522795Y-44680253D01*
X97529307Y-44689998D01*
X97522795Y-44699744D01*
X97444774Y-44888102D01*
X97418428Y-45020552D01*
X97364482Y-45004188D01*
X97240000Y-44991928D01*
X96625750Y-44995000D01*
X96467000Y-45153750D01*
X96467000Y-46403000D01*
X97716250Y-46403000D01*
X97875000Y-46244250D01*
X97875932Y-46057886D01*
X97949744Y-46107205D01*
X98138102Y-46185226D01*
X98338061Y-46225000D01*
X98541939Y-46225000D01*
X98741898Y-46185226D01*
X98809039Y-46157415D01*
X98765000Y-46378816D01*
X98765000Y-46681184D01*
X98823989Y-46977743D01*
X98939701Y-47257095D01*
X99107688Y-47508505D01*
X99321495Y-47722312D01*
X99572905Y-47890299D01*
X99852257Y-48006011D01*
X100123679Y-48060000D01*
X97321959Y-48060000D01*
X97364482Y-48055812D01*
X97484180Y-48019502D01*
X97594494Y-47960537D01*
X97691185Y-47881185D01*
X97770537Y-47784494D01*
X97829502Y-47674180D01*
X97865812Y-47554482D01*
X97878072Y-47430000D01*
X97875000Y-46815750D01*
X97716250Y-46657000D01*
X96467000Y-46657000D01*
X96467000Y-46677000D01*
X96213000Y-46677000D01*
X96213000Y-46657000D01*
X96193000Y-46657000D01*
X96193000Y-46403000D01*
X96213000Y-46403000D01*
X96213000Y-45153750D01*
X96054250Y-44995000D01*
X95785001Y-44993653D01*
X95785001Y-41566347D01*
X96054250Y-41565000D01*
X96213000Y-41406250D01*
X96213000Y-40157000D01*
X96467000Y-40157000D01*
X96467000Y-41406250D01*
X96625750Y-41565000D01*
X97240000Y-41568072D01*
X97364482Y-41555812D01*
X97484180Y-41519502D01*
X97594494Y-41460537D01*
X97691185Y-41381185D01*
X97770537Y-41284494D01*
X97829502Y-41174180D01*
X97865812Y-41054482D01*
X97878072Y-40930000D01*
X97875000Y-40315750D01*
X97716250Y-40157000D01*
X96467000Y-40157000D01*
X96213000Y-40157000D01*
X96193000Y-40157000D01*
X96193000Y-39903000D01*
X96213000Y-39903000D01*
X96213000Y-38653750D01*
X96467000Y-38653750D01*
X96467000Y-39903000D01*
X97716250Y-39903000D01*
X97875000Y-39744250D01*
X97878072Y-39130000D01*
X97865812Y-39005518D01*
X97829502Y-38885820D01*
X97770537Y-38775506D01*
X97691185Y-38678815D01*
X97594494Y-38599463D01*
X97484180Y-38540498D01*
X97364482Y-38504188D01*
X97240000Y-38491928D01*
X96625750Y-38495000D01*
X96467000Y-38653750D01*
X96213000Y-38653750D01*
X96054250Y-38495000D01*
X95785001Y-38493653D01*
X95785001Y-35066347D01*
X96054250Y-35065000D01*
X96213000Y-34906250D01*
X96213000Y-33657000D01*
X96467000Y-33657000D01*
X96467000Y-34906250D01*
X96625750Y-35065000D01*
X97240000Y-35068072D01*
X97364482Y-35055812D01*
X97484180Y-35019502D01*
X97594494Y-34960537D01*
X97691185Y-34881185D01*
X97770537Y-34784494D01*
X97829502Y-34674180D01*
X97865812Y-34554482D01*
X97878072Y-34430000D01*
X97875000Y-33815750D01*
X97716250Y-33657000D01*
X96467000Y-33657000D01*
X96213000Y-33657000D01*
X96193000Y-33657000D01*
X96193000Y-33403000D01*
X96213000Y-33403000D01*
X96213000Y-32153750D01*
X96467000Y-32153750D01*
X96467000Y-33403000D01*
X97716250Y-33403000D01*
X97875000Y-33244250D01*
X97878072Y-32630000D01*
X97865812Y-32505518D01*
X97829502Y-32385820D01*
X97770537Y-32275506D01*
X97691185Y-32178815D01*
X97594494Y-32099463D01*
X97484180Y-32040498D01*
X97364482Y-32004188D01*
X97240000Y-31991928D01*
X96625750Y-31995000D01*
X96467000Y-32153750D01*
X96213000Y-32153750D01*
X96054250Y-31995000D01*
X95440000Y-31991928D01*
X95315518Y-32004188D01*
X95195820Y-32040498D01*
X95085506Y-32099463D01*
X94988815Y-32178815D01*
X94909463Y-32275506D01*
X94850498Y-32385820D01*
X94844944Y-32404127D01*
X94778505Y-32337688D01*
X94527095Y-32169701D01*
X94247743Y-32053989D01*
X93951184Y-31995000D01*
X93648816Y-31995000D01*
X93352257Y-32053989D01*
X93072905Y-32169701D01*
X92821495Y-32337688D01*
X92607688Y-32551495D01*
X92439701Y-32802905D01*
X92323989Y-33082257D01*
X92265000Y-33378816D01*
X92265000Y-33681184D01*
X92323989Y-33977743D01*
X92439701Y-34257095D01*
X92607688Y-34508505D01*
X92821495Y-34722312D01*
X93072905Y-34890299D01*
X93352257Y-35006011D01*
X93648816Y-35065000D01*
X93951184Y-35065000D01*
X94208930Y-35013731D01*
X94265002Y-35069803D01*
X94265002Y-38561138D01*
X94247743Y-38553989D01*
X93951184Y-38495000D01*
X93648816Y-38495000D01*
X93352257Y-38553989D01*
X93072905Y-38669701D01*
X92821495Y-38837688D01*
X92607688Y-39051495D01*
X92439701Y-39302905D01*
X92323989Y-39582257D01*
X92265000Y-39878816D01*
X92265000Y-40181184D01*
X92316269Y-40438930D01*
X91761613Y-40993586D01*
X91754236Y-40918691D01*
X91672182Y-40648192D01*
X91538932Y-40398899D01*
X91359608Y-40180392D01*
X91141101Y-40001068D01*
X90891808Y-39867818D01*
X90621309Y-39785764D01*
X90410492Y-39765000D01*
X90269508Y-39765000D01*
X90058691Y-39785764D01*
X89788192Y-39867818D01*
X89538899Y-40001068D01*
X89320392Y-40180392D01*
X89141068Y-40398899D01*
X89007818Y-40648192D01*
X88925764Y-40918691D01*
X88898057Y-41200000D01*
X88925764Y-41481309D01*
X89007818Y-41751808D01*
X89141068Y-42001101D01*
X89320392Y-42219608D01*
X89538899Y-42398932D01*
X89788192Y-42532182D01*
X90058691Y-42614236D01*
X90133586Y-42621613D01*
X89755199Y-43000000D01*
X76549800Y-43000000D01*
X76015739Y-42465939D01*
X76141101Y-42398932D01*
X76359608Y-42219608D01*
X76538932Y-42001101D01*
X76672182Y-41751808D01*
X76754236Y-41481309D01*
X76781943Y-41200000D01*
X76898057Y-41200000D01*
X76925764Y-41481309D01*
X77007818Y-41751808D01*
X77141068Y-42001101D01*
X77320392Y-42219608D01*
X77538899Y-42398932D01*
X77788192Y-42532182D01*
X78058691Y-42614236D01*
X78269508Y-42635000D01*
X78410492Y-42635000D01*
X78621309Y-42614236D01*
X78891808Y-42532182D01*
X79141101Y-42398932D01*
X79359608Y-42219608D01*
X79538932Y-42001101D01*
X79672182Y-41751808D01*
X79754236Y-41481309D01*
X79781943Y-41200000D01*
X79898057Y-41200000D01*
X79925764Y-41481309D01*
X80007818Y-41751808D01*
X80141068Y-42001101D01*
X80320392Y-42219608D01*
X80538899Y-42398932D01*
X80788192Y-42532182D01*
X81058691Y-42614236D01*
X81269508Y-42635000D01*
X81410492Y-42635000D01*
X81621309Y-42614236D01*
X81891808Y-42532182D01*
X82141101Y-42398932D01*
X82359608Y-42219608D01*
X82538932Y-42001101D01*
X82672182Y-41751808D01*
X82754236Y-41481309D01*
X82781943Y-41200000D01*
X82754236Y-40918691D01*
X82672182Y-40648192D01*
X82538932Y-40398899D01*
X82359608Y-40180392D01*
X82141101Y-40001068D01*
X81891808Y-39867818D01*
X81621309Y-39785764D01*
X81410492Y-39765000D01*
X81269508Y-39765000D01*
X81058691Y-39785764D01*
X80788192Y-39867818D01*
X80538899Y-40001068D01*
X80320392Y-40180392D01*
X80141068Y-40398899D01*
X80007818Y-40648192D01*
X79925764Y-40918691D01*
X79898057Y-41200000D01*
X79781943Y-41200000D01*
X79754236Y-40918691D01*
X79672182Y-40648192D01*
X79538932Y-40398899D01*
X79359608Y-40180392D01*
X79141101Y-40001068D01*
X78891808Y-39867818D01*
X78621309Y-39785764D01*
X78410492Y-39765000D01*
X78269508Y-39765000D01*
X78058691Y-39785764D01*
X77788192Y-39867818D01*
X77538899Y-40001068D01*
X77320392Y-40180392D01*
X77141068Y-40398899D01*
X77007818Y-40648192D01*
X76925764Y-40918691D01*
X76898057Y-41200000D01*
X76781943Y-41200000D01*
X76754236Y-40918691D01*
X76672182Y-40648192D01*
X76538932Y-40398899D01*
X76359608Y-40180392D01*
X76141101Y-40001068D01*
X76066817Y-39961362D01*
X76256292Y-39893603D01*
X76381514Y-39826671D01*
X76453097Y-39582702D01*
X75640000Y-38769605D01*
X74826903Y-39582702D01*
X74898486Y-39826671D01*
X74908389Y-39831357D01*
X74788192Y-39867818D01*
X74538899Y-40001068D01*
X74320392Y-40180392D01*
X74203107Y-40323304D01*
X73871370Y-39991567D01*
X73890130Y-39988787D01*
X74156292Y-39893603D01*
X74281514Y-39826671D01*
X74353097Y-39582702D01*
X73540000Y-38769605D01*
X73525858Y-38783748D01*
X73346253Y-38604143D01*
X73360395Y-38590000D01*
X73346253Y-38575858D01*
X73525858Y-38396253D01*
X73540000Y-38410395D01*
X73554143Y-38396253D01*
X73733748Y-38575858D01*
X73719605Y-38590000D01*
X74336971Y-39207366D01*
X74403329Y-39331514D01*
X74485116Y-39355511D01*
X74532702Y-39403097D01*
X74590000Y-39386285D01*
X74647298Y-39403097D01*
X74694884Y-39355511D01*
X74776671Y-39331514D01*
X74828575Y-39221820D01*
X75460395Y-38590000D01*
X75446253Y-38575858D01*
X75625858Y-38396253D01*
X75640000Y-38410395D01*
X75654143Y-38396253D01*
X75833748Y-38575858D01*
X75819605Y-38590000D01*
X76632702Y-39403097D01*
X76876671Y-39331514D01*
X76997571Y-39076004D01*
X77066300Y-38801816D01*
X77080217Y-38519488D01*
X77038787Y-38239870D01*
X77005691Y-38147325D01*
X77094279Y-38099973D01*
X77210004Y-38005000D01*
X77233807Y-37975996D01*
X79512803Y-35697000D01*
X80630000Y-35697000D01*
X80630000Y-36447000D01*
X80675624Y-36656233D01*
X80761191Y-36852545D01*
X80883413Y-37028391D01*
X81037592Y-37177014D01*
X81217803Y-37292702D01*
X81420999Y-37364408D01*
X81588000Y-37237502D01*
X81588000Y-35697000D01*
X80630000Y-35697000D01*
X79512803Y-35697000D01*
X80404814Y-34804990D01*
X80630000Y-34804990D01*
X80630000Y-35443000D01*
X81588000Y-35443000D01*
X81588000Y-35423000D01*
X81842000Y-35423000D01*
X81842000Y-35443000D01*
X82124369Y-35443000D01*
X82135392Y-35500028D01*
X82206813Y-35675126D01*
X82211730Y-35684323D01*
X82394073Y-35697000D01*
X81842000Y-35697000D01*
X81842000Y-37237502D01*
X82009001Y-37364408D01*
X82212197Y-37292702D01*
X82392408Y-37177014D01*
X82546587Y-37028391D01*
X82668809Y-36852545D01*
X82735225Y-36700170D01*
X82885395Y-36550000D01*
X82871253Y-36535858D01*
X82955829Y-36451281D01*
X82955000Y-36455448D01*
X82955000Y-36644552D01*
X82987361Y-36807244D01*
X82592069Y-37202536D01*
X82599935Y-37315682D01*
X82458899Y-37391068D01*
X82240392Y-37570392D01*
X82061068Y-37788899D01*
X81927818Y-38038192D01*
X81845764Y-38308691D01*
X81818057Y-38590000D01*
X81845764Y-38871309D01*
X81927818Y-39141808D01*
X82061068Y-39391101D01*
X82240392Y-39609608D01*
X82458899Y-39788932D01*
X82708192Y-39922182D01*
X82978691Y-40004236D01*
X83189508Y-40025000D01*
X83330492Y-40025000D01*
X83534184Y-40004938D01*
X83320392Y-40180392D01*
X83141068Y-40398899D01*
X83007818Y-40648192D01*
X82925764Y-40918691D01*
X82898057Y-41200000D01*
X82925764Y-41481309D01*
X83007818Y-41751808D01*
X83141068Y-42001101D01*
X83320392Y-42219608D01*
X83538899Y-42398932D01*
X83788192Y-42532182D01*
X84058691Y-42614236D01*
X84269508Y-42635000D01*
X84410492Y-42635000D01*
X84621309Y-42614236D01*
X84891808Y-42532182D01*
X85141101Y-42398932D01*
X85359608Y-42219608D01*
X85538932Y-42001101D01*
X85672182Y-41751808D01*
X85754236Y-41481309D01*
X85781943Y-41200000D01*
X85898057Y-41200000D01*
X85925764Y-41481309D01*
X86007818Y-41751808D01*
X86141068Y-42001101D01*
X86320392Y-42219608D01*
X86538899Y-42398932D01*
X86788192Y-42532182D01*
X87058691Y-42614236D01*
X87269508Y-42635000D01*
X87410492Y-42635000D01*
X87621309Y-42614236D01*
X87891808Y-42532182D01*
X88141101Y-42398932D01*
X88359608Y-42219608D01*
X88538932Y-42001101D01*
X88672182Y-41751808D01*
X88754236Y-41481309D01*
X88781943Y-41200000D01*
X88754236Y-40918691D01*
X88672182Y-40648192D01*
X88538932Y-40398899D01*
X88359608Y-40180392D01*
X88141101Y-40001068D01*
X87891808Y-39867818D01*
X87621309Y-39785764D01*
X87410492Y-39765000D01*
X87269508Y-39765000D01*
X87058691Y-39785764D01*
X86788192Y-39867818D01*
X86538899Y-40001068D01*
X86320392Y-40180392D01*
X86141068Y-40398899D01*
X86007818Y-40648192D01*
X85925764Y-40918691D01*
X85898057Y-41200000D01*
X85781943Y-41200000D01*
X85754236Y-40918691D01*
X85672182Y-40648192D01*
X85538932Y-40398899D01*
X85359608Y-40180392D01*
X85141101Y-40001068D01*
X84891808Y-39867818D01*
X84621309Y-39785764D01*
X84410492Y-39765000D01*
X84269508Y-39765000D01*
X84065816Y-39785062D01*
X84279608Y-39609608D01*
X84458932Y-39391101D01*
X84480901Y-39350000D01*
X85697297Y-39350000D01*
X85734619Y-39353676D01*
X85771941Y-39350000D01*
X85771952Y-39350000D01*
X85883605Y-39339003D01*
X86026866Y-39295546D01*
X86158895Y-39224974D01*
X86274620Y-39130001D01*
X86298423Y-39100997D01*
X87826004Y-37573417D01*
X87855001Y-37549620D01*
X87913188Y-37478719D01*
X88070448Y-37510000D01*
X88259552Y-37510000D01*
X88445022Y-37473108D01*
X88590420Y-37412882D01*
X88729992Y-37471581D01*
X88915260Y-37509475D01*
X89104361Y-37510497D01*
X89290028Y-37474608D01*
X89465126Y-37403187D01*
X89474323Y-37398270D01*
X89487931Y-37202536D01*
X89092639Y-36807244D01*
X89125000Y-36644552D01*
X89125000Y-36455448D01*
X89124171Y-36451281D01*
X89208748Y-36535858D01*
X89194605Y-36550000D01*
X89344775Y-36700170D01*
X89411191Y-36852545D01*
X89533413Y-37028391D01*
X89687592Y-37177014D01*
X89867803Y-37292702D01*
X90070999Y-37364408D01*
X90238000Y-37237502D01*
X90238000Y-35697000D01*
X90492000Y-35697000D01*
X90492000Y-37237502D01*
X90659001Y-37364408D01*
X90862197Y-37292702D01*
X91042408Y-37177014D01*
X91196587Y-37028391D01*
X91318809Y-36852545D01*
X91404376Y-36656233D01*
X91450000Y-36447000D01*
X91450000Y-35697000D01*
X90492000Y-35697000D01*
X90238000Y-35697000D01*
X89680927Y-35697000D01*
X89863270Y-35684323D01*
X89936581Y-35510008D01*
X89950287Y-35443000D01*
X90238000Y-35443000D01*
X90238000Y-33902498D01*
X90492000Y-33902498D01*
X90492000Y-35443000D01*
X91450000Y-35443000D01*
X91450000Y-34693000D01*
X91404376Y-34483767D01*
X91318809Y-34287455D01*
X91196587Y-34111609D01*
X91042408Y-33962986D01*
X90862197Y-33847298D01*
X90659001Y-33775592D01*
X90492000Y-33902498D01*
X90238000Y-33902498D01*
X90070999Y-33775592D01*
X89867803Y-33847298D01*
X89687592Y-33962986D01*
X89533413Y-34111609D01*
X89411191Y-34287455D01*
X89388087Y-34340462D01*
X89300008Y-34303419D01*
X89114740Y-34265525D01*
X88925639Y-34264503D01*
X88739972Y-34300392D01*
X88587019Y-34362780D01*
X88440022Y-34301892D01*
X88254552Y-34265000D01*
X88065448Y-34265000D01*
X87879978Y-34301892D01*
X87735000Y-34361944D01*
X87590022Y-34301892D01*
X87404552Y-34265000D01*
X87215448Y-34265000D01*
X87029978Y-34301892D01*
X86885000Y-34361944D01*
X86740022Y-34301892D01*
X86554552Y-34265000D01*
X86365448Y-34265000D01*
X86179978Y-34301892D01*
X86035000Y-34361944D01*
X85890022Y-34301892D01*
X85704552Y-34265000D01*
X85515448Y-34265000D01*
X85329978Y-34301892D01*
X85185000Y-34361944D01*
X85040022Y-34301892D01*
X85019643Y-34297838D01*
X84255795Y-33533992D01*
X84231993Y-33504989D01*
X84116268Y-33410016D01*
X83984239Y-33339444D01*
X83840978Y-33295987D01*
X83729325Y-33284990D01*
X83729314Y-33284990D01*
X83691992Y-33281314D01*
X83654670Y-33284990D01*
X82555901Y-33284990D01*
X82668809Y-33122545D01*
X82754376Y-32926233D01*
X82800000Y-32717000D01*
X82800000Y-32317000D01*
X89280000Y-32317000D01*
X89280000Y-32717000D01*
X89325624Y-32926233D01*
X89411191Y-33122545D01*
X89533413Y-33298391D01*
X89687592Y-33447014D01*
X89867803Y-33562702D01*
X90070999Y-33634408D01*
X90238000Y-33507502D01*
X90238000Y-32317000D01*
X90492000Y-32317000D01*
X90492000Y-33507502D01*
X90659001Y-33634408D01*
X90862197Y-33562702D01*
X91042408Y-33447014D01*
X91196587Y-33298391D01*
X91318809Y-33122545D01*
X91404376Y-32926233D01*
X91450000Y-32717000D01*
X91450000Y-32317000D01*
X90492000Y-32317000D01*
X90238000Y-32317000D01*
X89280000Y-32317000D01*
X82800000Y-32317000D01*
X81842000Y-32317000D01*
X81842000Y-32337000D01*
X81588000Y-32337000D01*
X81588000Y-32317000D01*
X80630000Y-32317000D01*
X80630000Y-32717000D01*
X80675624Y-32926233D01*
X80761191Y-33122545D01*
X80874099Y-33284990D01*
X80127334Y-33284990D01*
X80090011Y-33281314D01*
X80052688Y-33284990D01*
X80052679Y-33284990D01*
X79941026Y-33295987D01*
X79797765Y-33339444D01*
X79665735Y-33410016D01*
X79582095Y-33478658D01*
X79550011Y-33504989D01*
X79526213Y-33533987D01*
X79178072Y-33882128D01*
X79178072Y-32840000D01*
X79165812Y-32715518D01*
X79129502Y-32595820D01*
X79070537Y-32485506D01*
X78991185Y-32388815D01*
X78894494Y-32309463D01*
X78784180Y-32250498D01*
X78664482Y-32214188D01*
X78540000Y-32201928D01*
X76940000Y-32201928D01*
X76815518Y-32214188D01*
X76695820Y-32250498D01*
X76585506Y-32309463D01*
X76488815Y-32388815D01*
X76409463Y-32485506D01*
X76350498Y-32595820D01*
X76314188Y-32715518D01*
X76301928Y-32840000D01*
X76301928Y-34440000D01*
X76314188Y-34564482D01*
X76350498Y-34684180D01*
X76409463Y-34794494D01*
X76488815Y-34891185D01*
X76585506Y-34970537D01*
X76695820Y-35029502D01*
X76815518Y-35065812D01*
X76940000Y-35078072D01*
X77982128Y-35078072D01*
X76355202Y-36704999D01*
X67082323Y-36704999D01*
X67045000Y-36701323D01*
X67007677Y-36704999D01*
X67007668Y-36704999D01*
X66896015Y-36715996D01*
X66752754Y-36759453D01*
X66620725Y-36830025D01*
X66505000Y-36924998D01*
X66481197Y-36954002D01*
X66245907Y-37189292D01*
X66201309Y-37175764D01*
X65990492Y-37155000D01*
X65849508Y-37155000D01*
X65638691Y-37175764D01*
X65368192Y-37257818D01*
X65118899Y-37391068D01*
X64900392Y-37570392D01*
X64721068Y-37788899D01*
X64587818Y-38038192D01*
X64505764Y-38308691D01*
X64478057Y-38590000D01*
X63660000Y-38590000D01*
X63660000Y-33274464D01*
X63762463Y-33521831D01*
X63952337Y-33805998D01*
X64194002Y-34047663D01*
X64478169Y-34237537D01*
X64793919Y-34368325D01*
X65129117Y-34435000D01*
X65470883Y-34435000D01*
X65806081Y-34368325D01*
X66121831Y-34237537D01*
X66405998Y-34047663D01*
X66647663Y-33805998D01*
X66758579Y-33640000D01*
X68678057Y-33640000D01*
X68705764Y-33921309D01*
X68787818Y-34191808D01*
X68921068Y-34441101D01*
X69100392Y-34659608D01*
X69318899Y-34838932D01*
X69568192Y-34972182D01*
X69838691Y-35054236D01*
X70049508Y-35075000D01*
X70190492Y-35075000D01*
X70401309Y-35054236D01*
X70671808Y-34972182D01*
X70921101Y-34838932D01*
X71139608Y-34659608D01*
X71318932Y-34441101D01*
X71452182Y-34191808D01*
X71534236Y-33921309D01*
X71561943Y-33640000D01*
X71534236Y-33358691D01*
X71452182Y-33088192D01*
X71318932Y-32838899D01*
X71139608Y-32620392D01*
X70921101Y-32441068D01*
X70671808Y-32307818D01*
X70401309Y-32225764D01*
X70190492Y-32205000D01*
X70049508Y-32205000D01*
X69838691Y-32225764D01*
X69568192Y-32307818D01*
X69318899Y-32441068D01*
X69100392Y-32620392D01*
X68921068Y-32838899D01*
X68787818Y-33088192D01*
X68705764Y-33358691D01*
X68678057Y-33640000D01*
X66758579Y-33640000D01*
X66837537Y-33521831D01*
X66968325Y-33206081D01*
X67035000Y-32870883D01*
X67035000Y-32529117D01*
X66968325Y-32193919D01*
X66837537Y-31878169D01*
X66647663Y-31594002D01*
X66405998Y-31352337D01*
X66121831Y-31162463D01*
X65874464Y-31060000D01*
X80905830Y-31060000D01*
X80883413Y-31081609D01*
X80883413Y-31081609D01*
G37*
X80883413Y-31081609D02*
X80761191Y-31257455D01*
X80675624Y-31453767D01*
X80630000Y-31663000D01*
X80630000Y-32063000D01*
X81588000Y-32063000D01*
X81588000Y-32043000D01*
X81842000Y-32043000D01*
X81842000Y-32063000D01*
X82800000Y-32063000D01*
X82800000Y-31663000D01*
X82754376Y-31453767D01*
X82668809Y-31257455D01*
X82546587Y-31081609D01*
X82524170Y-31060000D01*
X89555830Y-31060000D01*
X89533413Y-31081609D01*
X89411191Y-31257455D01*
X89325624Y-31453767D01*
X89280000Y-31663000D01*
X89280000Y-32063000D01*
X90238000Y-32063000D01*
X90238000Y-32043000D01*
X90492000Y-32043000D01*
X90492000Y-32063000D01*
X91450000Y-32063000D01*
X91450000Y-31663000D01*
X91404376Y-31453767D01*
X91318809Y-31257455D01*
X91196587Y-31081609D01*
X91174170Y-31060000D01*
X114125536Y-31060000D01*
X113878169Y-31162463D01*
X113594002Y-31352337D01*
X113352337Y-31594002D01*
X113162463Y-31878169D01*
X113031675Y-32193919D01*
X112965000Y-32529117D01*
X112965000Y-32870883D01*
X113031675Y-33206081D01*
X113162463Y-33521831D01*
X113352337Y-33805998D01*
X113594002Y-34047663D01*
X113878169Y-34237537D01*
X114193919Y-34368325D01*
X114529117Y-34435000D01*
X114870883Y-34435000D01*
X115206081Y-34368325D01*
X115521831Y-34237537D01*
X115805998Y-34047663D01*
X116047663Y-33805998D01*
X116237537Y-33521831D01*
X116340000Y-33274464D01*
X116340001Y-97125539D01*
X116237537Y-96878169D01*
X116047663Y-96594002D01*
X115805998Y-96352337D01*
X115521831Y-96162463D01*
X115206081Y-96031675D01*
X114870883Y-95965000D01*
X114529117Y-95965000D01*
X114193919Y-96031675D01*
X113878169Y-96162463D01*
X113594002Y-96352337D01*
X113352337Y-96594002D01*
X113162463Y-96878169D01*
X113031675Y-97193919D01*
X112965000Y-97529117D01*
X112965000Y-97870883D01*
X113031675Y-98206081D01*
X113162463Y-98521831D01*
X113352337Y-98805998D01*
X113594002Y-99047663D01*
X113878169Y-99237537D01*
X114125536Y-99340000D01*
X65874464Y-99340000D01*
X66121831Y-99237537D01*
X66405998Y-99047663D01*
X66647663Y-98805998D01*
X66837537Y-98521831D01*
X66968325Y-98206081D01*
X67035000Y-97870883D01*
X67035000Y-97529117D01*
X66968325Y-97193919D01*
X66848602Y-96904882D01*
X68682000Y-96904882D01*
X68682000Y-97255118D01*
X68750328Y-97598623D01*
X68884357Y-97922199D01*
X69078937Y-98213409D01*
X69326591Y-98461063D01*
X69617801Y-98655643D01*
X69941377Y-98789672D01*
X70284882Y-98858000D01*
X70635118Y-98858000D01*
X70978623Y-98789672D01*
X71302199Y-98655643D01*
X71593409Y-98461063D01*
X71841063Y-98213409D01*
X72035643Y-97922199D01*
X72169672Y-97598623D01*
X72238000Y-97255118D01*
X72238000Y-96904882D01*
X85682000Y-96904882D01*
X85682000Y-97255118D01*
X85750328Y-97598623D01*
X85884357Y-97922199D01*
X86078937Y-98213409D01*
X86326591Y-98461063D01*
X86617801Y-98655643D01*
X86941377Y-98789672D01*
X87284882Y-98858000D01*
X87635118Y-98858000D01*
X87978623Y-98789672D01*
X88302199Y-98655643D01*
X88593409Y-98461063D01*
X88841063Y-98213409D01*
X89035643Y-97922199D01*
X89169672Y-97598623D01*
X89238000Y-97255118D01*
X89238000Y-96904882D01*
X102682000Y-96904882D01*
X102682000Y-97255118D01*
X102750328Y-97598623D01*
X102884357Y-97922199D01*
X103078937Y-98213409D01*
X103326591Y-98461063D01*
X103617801Y-98655643D01*
X103941377Y-98789672D01*
X104284882Y-98858000D01*
X104635118Y-98858000D01*
X104978623Y-98789672D01*
X105302199Y-98655643D01*
X105593409Y-98461063D01*
X105841063Y-98213409D01*
X106035643Y-97922199D01*
X106169672Y-97598623D01*
X106238000Y-97255118D01*
X106238000Y-96904882D01*
X106169672Y-96561377D01*
X106035643Y-96237801D01*
X105841063Y-95946591D01*
X105593409Y-95698937D01*
X105302199Y-95504357D01*
X104978623Y-95370328D01*
X104635118Y-95302000D01*
X104284882Y-95302000D01*
X103941377Y-95370328D01*
X103617801Y-95504357D01*
X103326591Y-95698937D01*
X103078937Y-95946591D01*
X102884357Y-96237801D01*
X102750328Y-96561377D01*
X102682000Y-96904882D01*
X89238000Y-96904882D01*
X89169672Y-96561377D01*
X89035643Y-96237801D01*
X88841063Y-95946591D01*
X88593409Y-95698937D01*
X88302199Y-95504357D01*
X87978623Y-95370328D01*
X87635118Y-95302000D01*
X87284882Y-95302000D01*
X86941377Y-95370328D01*
X86617801Y-95504357D01*
X86326591Y-95698937D01*
X86078937Y-95946591D01*
X85884357Y-96237801D01*
X85750328Y-96561377D01*
X85682000Y-96904882D01*
X72238000Y-96904882D01*
X72169672Y-96561377D01*
X72035643Y-96237801D01*
X71841063Y-95946591D01*
X71593409Y-95698937D01*
X71302199Y-95504357D01*
X70978623Y-95370328D01*
X70635118Y-95302000D01*
X70284882Y-95302000D01*
X69941377Y-95370328D01*
X69617801Y-95504357D01*
X69326591Y-95698937D01*
X69078937Y-95946591D01*
X68884357Y-96237801D01*
X68750328Y-96561377D01*
X68682000Y-96904882D01*
X66848602Y-96904882D01*
X66837537Y-96878169D01*
X66647663Y-96594002D01*
X66405998Y-96352337D01*
X66121831Y-96162463D01*
X65806081Y-96031675D01*
X65470883Y-95965000D01*
X65129117Y-95965000D01*
X64793919Y-96031675D01*
X64478169Y-96162463D01*
X64194002Y-96352337D01*
X63952337Y-96594002D01*
X63762463Y-96878169D01*
X63660000Y-97125536D01*
X63660000Y-91853652D01*
X66434100Y-91853652D01*
X66434100Y-92146348D01*
X66491202Y-92433421D01*
X66603212Y-92703838D01*
X66765826Y-92947206D01*
X66972794Y-93154174D01*
X67216162Y-93316788D01*
X67486579Y-93428798D01*
X67773652Y-93485900D01*
X68066348Y-93485900D01*
X68353421Y-93428798D01*
X68623838Y-93316788D01*
X68867206Y-93154174D01*
X69074174Y-92947206D01*
X69236788Y-92703838D01*
X69348798Y-92433421D01*
X69405900Y-92146348D01*
X69405900Y-91853652D01*
X69354451Y-91595000D01*
X69400279Y-91595000D01*
X69812756Y-91512953D01*
X70201302Y-91352012D01*
X70507708Y-91147279D01*
X70472127Y-91233178D01*
X70371100Y-91741076D01*
X70371100Y-92258924D01*
X70472127Y-92766822D01*
X70670299Y-93245251D01*
X70958000Y-93675826D01*
X71324174Y-94042000D01*
X71754749Y-94329701D01*
X72233178Y-94527873D01*
X72741076Y-94628900D01*
X73258924Y-94628900D01*
X73766822Y-94527873D01*
X74245251Y-94329701D01*
X74675826Y-94042000D01*
X75042000Y-93675826D01*
X75329701Y-93245251D01*
X75527873Y-92766822D01*
X75628900Y-92258924D01*
X75628900Y-91741076D01*
X75527873Y-91233178D01*
X75329701Y-90754749D01*
X75042000Y-90324174D01*
X74675826Y-89958000D01*
X74245251Y-89670299D01*
X73766822Y-89472127D01*
X73258924Y-89371100D01*
X72741076Y-89371100D01*
X72233178Y-89472127D01*
X71754749Y-89670299D01*
X71324174Y-89958000D01*
X71253763Y-90028411D01*
X71325000Y-89670279D01*
X71325000Y-89249721D01*
X71242953Y-88837244D01*
X71082012Y-88448698D01*
X70848363Y-88099017D01*
X70550983Y-87801637D01*
X70201302Y-87567988D01*
X69812756Y-87407047D01*
X69400279Y-87325000D01*
X68979721Y-87325000D01*
X68567244Y-87407047D01*
X68178698Y-87567988D01*
X67829017Y-87801637D01*
X67531637Y-88099017D01*
X67297988Y-88448698D01*
X67137047Y-88837244D01*
X67055000Y-89249721D01*
X67055000Y-89670279D01*
X67137047Y-90082756D01*
X67297988Y-90471302D01*
X67391150Y-90610730D01*
X67216162Y-90683212D01*
X66972794Y-90845826D01*
X66765826Y-91052794D01*
X66603212Y-91296162D01*
X66491202Y-91566579D01*
X66434100Y-91853652D01*
X63660000Y-91853652D01*
X63660000Y-86709721D01*
X73405000Y-86709721D01*
X73405000Y-87130279D01*
X73487047Y-87542756D01*
X73647988Y-87931302D01*
X73881637Y-88280983D01*
X74179017Y-88578363D01*
X74528698Y-88812012D01*
X74917244Y-88972953D01*
X75329721Y-89055000D01*
X75750279Y-89055000D01*
X76162756Y-88972953D01*
X76551302Y-88812012D01*
X76900983Y-88578363D01*
X77198363Y-88280983D01*
X77432012Y-87931302D01*
X77592953Y-87542756D01*
X77675000Y-87130279D01*
X77675000Y-86709721D01*
X77592953Y-86297244D01*
X77432012Y-85908698D01*
X77198363Y-85559017D01*
X76900983Y-85261637D01*
X76551302Y-85027988D01*
X76162756Y-84867047D01*
X75750279Y-84785000D01*
X75329721Y-84785000D01*
X74917244Y-84867047D01*
X74528698Y-85027988D01*
X74179017Y-85261637D01*
X73881637Y-85559017D01*
X73647988Y-85908698D01*
X73487047Y-86297244D01*
X73405000Y-86709721D01*
X63660000Y-86709721D01*
X63660000Y-79904882D01*
X68682000Y-79904882D01*
X68682000Y-80255118D01*
X68750328Y-80598623D01*
X68884357Y-80922199D01*
X69078937Y-81213409D01*
X69326591Y-81461063D01*
X69617801Y-81655643D01*
X69941377Y-81789672D01*
X70284882Y-81858000D01*
X70635118Y-81858000D01*
X70978623Y-81789672D01*
X71302199Y-81655643D01*
X71593409Y-81461063D01*
X71841063Y-81213409D01*
X72035643Y-80922199D01*
X72169672Y-80598623D01*
X72238000Y-80255118D01*
X72238000Y-79904882D01*
X72169672Y-79561377D01*
X72035643Y-79237801D01*
X71841063Y-78946591D01*
X71593409Y-78698937D01*
X71302199Y-78504357D01*
X70978623Y-78370328D01*
X70635118Y-78302000D01*
X70284882Y-78302000D01*
X69941377Y-78370328D01*
X69617801Y-78504357D01*
X69326591Y-78698937D01*
X69078937Y-78946591D01*
X68884357Y-79237801D01*
X68750328Y-79561377D01*
X68682000Y-79904882D01*
X63660000Y-79904882D01*
X63660000Y-74853652D01*
X66434100Y-74853652D01*
X66434100Y-75146348D01*
X66491202Y-75433421D01*
X66603212Y-75703838D01*
X66765826Y-75947206D01*
X66972794Y-76154174D01*
X67216162Y-76316788D01*
X67486579Y-76428798D01*
X67773652Y-76485900D01*
X68066348Y-76485900D01*
X68353421Y-76428798D01*
X68623838Y-76316788D01*
X68867206Y-76154174D01*
X69074174Y-75947206D01*
X69236788Y-75703838D01*
X69348798Y-75433421D01*
X69405900Y-75146348D01*
X69405900Y-74853652D01*
X69354451Y-74595000D01*
X69400279Y-74595000D01*
X69812756Y-74512953D01*
X70201302Y-74352012D01*
X70507708Y-74147279D01*
X70472127Y-74233178D01*
X70371100Y-74741076D01*
X70371100Y-75258924D01*
X70472127Y-75766822D01*
X70670299Y-76245251D01*
X70958000Y-76675826D01*
X71324174Y-77042000D01*
X71754749Y-77329701D01*
X72233178Y-77527873D01*
X72741076Y-77628900D01*
X73258924Y-77628900D01*
X73766822Y-77527873D01*
X74245251Y-77329701D01*
X74675826Y-77042000D01*
X75042000Y-76675826D01*
X75329701Y-76245251D01*
X75527873Y-75766822D01*
X75628900Y-75258924D01*
X75628900Y-74741076D01*
X75527873Y-74233178D01*
X75329701Y-73754749D01*
X75042000Y-73324174D01*
X74675826Y-72958000D01*
X74245251Y-72670299D01*
X73766822Y-72472127D01*
X73258924Y-72371100D01*
X72741076Y-72371100D01*
X72233178Y-72472127D01*
X71754749Y-72670299D01*
X71324174Y-72958000D01*
X71253763Y-73028411D01*
X71325000Y-72670279D01*
X71325000Y-72249721D01*
X71242953Y-71837244D01*
X71082012Y-71448698D01*
X70848363Y-71099017D01*
X70550983Y-70801637D01*
X70201302Y-70567988D01*
X69812756Y-70407047D01*
X69400279Y-70325000D01*
X68979721Y-70325000D01*
X68567244Y-70407047D01*
X68178698Y-70567988D01*
X67829017Y-70801637D01*
X67531637Y-71099017D01*
X67297988Y-71448698D01*
X67137047Y-71837244D01*
X67055000Y-72249721D01*
X67055000Y-72670279D01*
X67137047Y-73082756D01*
X67297988Y-73471302D01*
X67391150Y-73610730D01*
X67216162Y-73683212D01*
X66972794Y-73845826D01*
X66765826Y-74052794D01*
X66603212Y-74296162D01*
X66491202Y-74566579D01*
X66434100Y-74853652D01*
X63660000Y-74853652D01*
X63660000Y-69709721D01*
X73405000Y-69709721D01*
X73405000Y-70130279D01*
X73487047Y-70542756D01*
X73647988Y-70931302D01*
X73881637Y-71280983D01*
X74179017Y-71578363D01*
X74528698Y-71812012D01*
X74917244Y-71972953D01*
X75329721Y-72055000D01*
X75750279Y-72055000D01*
X76162756Y-71972953D01*
X76551302Y-71812012D01*
X76900983Y-71578363D01*
X77198363Y-71280983D01*
X77432012Y-70931302D01*
X77592953Y-70542756D01*
X77675000Y-70130279D01*
X77675000Y-69709721D01*
X77592953Y-69297244D01*
X77432012Y-68908698D01*
X77198363Y-68559017D01*
X76900983Y-68261637D01*
X76551302Y-68027988D01*
X76162756Y-67867047D01*
X75750279Y-67785000D01*
X75329721Y-67785000D01*
X74917244Y-67867047D01*
X74528698Y-68027988D01*
X74179017Y-68261637D01*
X73881637Y-68559017D01*
X73647988Y-68908698D01*
X73487047Y-69297244D01*
X73405000Y-69709721D01*
X63660000Y-69709721D01*
X63660000Y-62904882D01*
X68682000Y-62904882D01*
X68682000Y-63255118D01*
X68750328Y-63598623D01*
X68884357Y-63922199D01*
X69078937Y-64213409D01*
X69326591Y-64461063D01*
X69617801Y-64655643D01*
X69941377Y-64789672D01*
X70284882Y-64858000D01*
X70635118Y-64858000D01*
X70978623Y-64789672D01*
X71302199Y-64655643D01*
X71593409Y-64461063D01*
X71841063Y-64213409D01*
X72035643Y-63922199D01*
X72169672Y-63598623D01*
X72238000Y-63255118D01*
X72238000Y-62904882D01*
X72169672Y-62561377D01*
X72035643Y-62237801D01*
X71841063Y-61946591D01*
X71593409Y-61698937D01*
X71302199Y-61504357D01*
X70978623Y-61370328D01*
X70635118Y-61302000D01*
X70284882Y-61302000D01*
X69941377Y-61370328D01*
X69617801Y-61504357D01*
X69326591Y-61698937D01*
X69078937Y-61946591D01*
X68884357Y-62237801D01*
X68750328Y-62561377D01*
X68682000Y-62904882D01*
X63660000Y-62904882D01*
X63660000Y-38590000D01*
X64478057Y-38590000D01*
X64505764Y-38871309D01*
X64587818Y-39141808D01*
X64721068Y-39391101D01*
X64900392Y-39609608D01*
X65118899Y-39788932D01*
X65368192Y-39922182D01*
X65571247Y-39983777D01*
X65538899Y-40001068D01*
X65320392Y-40180392D01*
X65141068Y-40398899D01*
X65007818Y-40648192D01*
X64925764Y-40918691D01*
X64898057Y-41200000D01*
X64925764Y-41481309D01*
X65007818Y-41751808D01*
X65141068Y-42001101D01*
X65320392Y-42219608D01*
X65538899Y-42398932D01*
X65788192Y-42532182D01*
X66058691Y-42614236D01*
X66269508Y-42635000D01*
X66410492Y-42635000D01*
X66621309Y-42614236D01*
X66665907Y-42600708D01*
X71632245Y-47567047D01*
X71425241Y-47705363D01*
X71225363Y-47905241D01*
X71068320Y-48140273D01*
X70960147Y-48401426D01*
X70905000Y-48678665D01*
X70905000Y-48961335D01*
X70960147Y-49238574D01*
X71068320Y-49499727D01*
X71225363Y-49734759D01*
X71425241Y-49934637D01*
X71580000Y-50038044D01*
X71580001Y-52165534D01*
X70100000Y-50685533D01*
X70100000Y-50038043D01*
X70254759Y-49934637D01*
X70454637Y-49734759D01*
X70611680Y-49499727D01*
X70719853Y-49238574D01*
X70775000Y-48961335D01*
X70775000Y-48678665D01*
X70719853Y-48401426D01*
X70611680Y-48140273D01*
X70454637Y-47905241D01*
X70254759Y-47705363D01*
X70019727Y-47548320D01*
X69758574Y-47440147D01*
X69481335Y-47385000D01*
X69198665Y-47385000D01*
X68921426Y-47440147D01*
X68660273Y-47548320D01*
X68425241Y-47705363D01*
X68225363Y-47905241D01*
X68068320Y-48140273D01*
X67960147Y-48401426D01*
X67905000Y-48678665D01*
X67905000Y-48961335D01*
X67960147Y-49238574D01*
X68068320Y-49499727D01*
X68225363Y-49734759D01*
X68425241Y-49934637D01*
X68580001Y-50038044D01*
X68580001Y-50963002D01*
X68576324Y-51000334D01*
X68590998Y-51149319D01*
X68634454Y-51292580D01*
X68705026Y-51424610D01*
X68776201Y-51511336D01*
X68800000Y-51540335D01*
X68828998Y-51564133D01*
X72653404Y-55388539D01*
X72233178Y-55472127D01*
X71754749Y-55670299D01*
X71324174Y-55958000D01*
X71253763Y-56028411D01*
X71325000Y-55670279D01*
X71325000Y-55249721D01*
X71242953Y-54837244D01*
X71082012Y-54448698D01*
X70848363Y-54099017D01*
X70550983Y-53801637D01*
X70201302Y-53567988D01*
X69812756Y-53407047D01*
X69400279Y-53325000D01*
X68979721Y-53325000D01*
X68567244Y-53407047D01*
X68178698Y-53567988D01*
X67829017Y-53801637D01*
X67531637Y-54099017D01*
X67297988Y-54448698D01*
X67137047Y-54837244D01*
X67055000Y-55249721D01*
X67055000Y-55670279D01*
X67137047Y-56082756D01*
X67297988Y-56471302D01*
X67391150Y-56610730D01*
X67216162Y-56683212D01*
X66972794Y-56845826D01*
X66765826Y-57052794D01*
X66603212Y-57296162D01*
X66587811Y-57333344D01*
X66300001Y-57045534D01*
X66300001Y-50255000D01*
X66481335Y-50255000D01*
X66758574Y-50199853D01*
X67019727Y-50091680D01*
X67254759Y-49934637D01*
X67454637Y-49734759D01*
X67611680Y-49499727D01*
X67719853Y-49238574D01*
X67775000Y-48961335D01*
X67775000Y-48678665D01*
X67719853Y-48401426D01*
X67611680Y-48140273D01*
X67454637Y-47905241D01*
X67254759Y-47705363D01*
X67019727Y-47548320D01*
X66758574Y-47440147D01*
X66481335Y-47385000D01*
X66198665Y-47385000D01*
X65921426Y-47440147D01*
X65660273Y-47548320D01*
X65425241Y-47705363D01*
X65225363Y-47905241D01*
X65068320Y-48140273D01*
X64960147Y-48401426D01*
X64905000Y-48678665D01*
X64905000Y-48961335D01*
X64942533Y-49150023D01*
X64905027Y-49195723D01*
X64834456Y-49327752D01*
X64834455Y-49327753D01*
X64790998Y-49471014D01*
X64780001Y-49582667D01*
X64780001Y-49582677D01*
X64776325Y-49619999D01*
X64780001Y-49657321D01*
X64780002Y-57323003D01*
X64776325Y-57360335D01*
X64780002Y-57397668D01*
X64786270Y-57461302D01*
X64790999Y-57509320D01*
X64834455Y-57652581D01*
X64905027Y-57784611D01*
X64949297Y-57838553D01*
X65000001Y-57900336D01*
X65028999Y-57924134D01*
X68155867Y-61051003D01*
X68179665Y-61080001D01*
X68295390Y-61174974D01*
X68427419Y-61245546D01*
X68570680Y-61289003D01*
X68682333Y-61300000D01*
X68682342Y-61300000D01*
X68719665Y-61303676D01*
X68756988Y-61300000D01*
X75200309Y-61300000D01*
X75234357Y-61382199D01*
X75428937Y-61673409D01*
X75676591Y-61921063D01*
X75967801Y-62115643D01*
X76291377Y-62249672D01*
X76634882Y-62318000D01*
X76985118Y-62318000D01*
X77328623Y-62249672D01*
X77652199Y-62115643D01*
X77943409Y-61921063D01*
X78191063Y-61673409D01*
X78385643Y-61382199D01*
X78492372Y-61124532D01*
X78495901Y-61128061D01*
X78495902Y-73567717D01*
X78226348Y-73514100D01*
X77933652Y-73514100D01*
X77646579Y-73571202D01*
X77376162Y-73683212D01*
X77132794Y-73845826D01*
X76925826Y-74052794D01*
X76763212Y-74296162D01*
X76651202Y-74566579D01*
X76594100Y-74853652D01*
X76594100Y-75146348D01*
X76651202Y-75433421D01*
X76763212Y-75703838D01*
X76802075Y-75762000D01*
X76634882Y-75762000D01*
X76291377Y-75830328D01*
X75967801Y-75964357D01*
X75676591Y-76158937D01*
X75428937Y-76406591D01*
X75234357Y-76697801D01*
X75100328Y-77021377D01*
X75032000Y-77364882D01*
X75032000Y-77715118D01*
X75100328Y-78058623D01*
X75234357Y-78382199D01*
X75428937Y-78673409D01*
X75676591Y-78921063D01*
X75967801Y-79115643D01*
X76291377Y-79249672D01*
X76634882Y-79318000D01*
X76985118Y-79318000D01*
X77328623Y-79249672D01*
X77652199Y-79115643D01*
X77943409Y-78921063D01*
X78191063Y-78673409D01*
X78385643Y-78382199D01*
X78418493Y-78302893D01*
X78426446Y-78303676D01*
X78463768Y-78300000D01*
X78463779Y-78300000D01*
X78575432Y-78289003D01*
X78718693Y-78245546D01*
X78850722Y-78174974D01*
X78945912Y-78096854D01*
X78945912Y-90791507D01*
X78783838Y-90683212D01*
X78513421Y-90571202D01*
X78226348Y-90514100D01*
X77933652Y-90514100D01*
X77646579Y-90571202D01*
X77376162Y-90683212D01*
X77132794Y-90845826D01*
X76925826Y-91052794D01*
X76763212Y-91296162D01*
X76651202Y-91566579D01*
X76594100Y-91853652D01*
X76594100Y-92146348D01*
X76651202Y-92433421D01*
X76763212Y-92703838D01*
X76802075Y-92762000D01*
X76634882Y-92762000D01*
X76291377Y-92830328D01*
X75967801Y-92964357D01*
X75676591Y-93158937D01*
X75428937Y-93406591D01*
X75234357Y-93697801D01*
X75100328Y-94021377D01*
X75032000Y-94364882D01*
X75032000Y-94715118D01*
X75100328Y-95058623D01*
X75234357Y-95382199D01*
X75428937Y-95673409D01*
X75676591Y-95921063D01*
X75967801Y-96115643D01*
X76291377Y-96249672D01*
X76634882Y-96318000D01*
X76985118Y-96318000D01*
X77328623Y-96249672D01*
X77652199Y-96115643D01*
X77943409Y-95921063D01*
X78191063Y-95673409D01*
X78385643Y-95382199D01*
X78418493Y-95302893D01*
X78426446Y-95303676D01*
X78463768Y-95300000D01*
X78463779Y-95300000D01*
X78575432Y-95289003D01*
X78718693Y-95245546D01*
X78850722Y-95174974D01*
X78966447Y-95080001D01*
X78990250Y-95050997D01*
X80216914Y-93824334D01*
X80245912Y-93800536D01*
X80340885Y-93684811D01*
X80411457Y-93552782D01*
X80454914Y-93409521D01*
X80465911Y-93297868D01*
X80465911Y-93297860D01*
X80469587Y-93260535D01*
X80465911Y-93223210D01*
X80465911Y-91853652D01*
X83434100Y-91853652D01*
X83434100Y-92146348D01*
X83491202Y-92433421D01*
X83603212Y-92703838D01*
X83765826Y-92947206D01*
X83972794Y-93154174D01*
X84216162Y-93316788D01*
X84486579Y-93428798D01*
X84773652Y-93485900D01*
X85066348Y-93485900D01*
X85353421Y-93428798D01*
X85623838Y-93316788D01*
X85867206Y-93154174D01*
X86074174Y-92947206D01*
X86236788Y-92703838D01*
X86348798Y-92433421D01*
X86405900Y-92146348D01*
X86405900Y-91853652D01*
X86354451Y-91595000D01*
X86400279Y-91595000D01*
X86812756Y-91512953D01*
X87201302Y-91352012D01*
X87507708Y-91147279D01*
X87472127Y-91233178D01*
X87371100Y-91741076D01*
X87371100Y-92258924D01*
X87472127Y-92766822D01*
X87670299Y-93245251D01*
X87958000Y-93675826D01*
X88324174Y-94042000D01*
X88754749Y-94329701D01*
X89233178Y-94527873D01*
X89741076Y-94628900D01*
X90258924Y-94628900D01*
X90766822Y-94527873D01*
X91245251Y-94329701D01*
X91675826Y-94042000D01*
X92042000Y-93675826D01*
X92329701Y-93245251D01*
X92527873Y-92766822D01*
X92628900Y-92258924D01*
X92628900Y-91741076D01*
X92527873Y-91233178D01*
X92329701Y-90754749D01*
X92042000Y-90324174D01*
X91675826Y-89958000D01*
X91245251Y-89670299D01*
X90766822Y-89472127D01*
X90258924Y-89371100D01*
X89741076Y-89371100D01*
X89233178Y-89472127D01*
X88754749Y-89670299D01*
X88324174Y-89958000D01*
X88253763Y-90028411D01*
X88325000Y-89670279D01*
X88325000Y-89249721D01*
X88242953Y-88837244D01*
X88082012Y-88448698D01*
X87848363Y-88099017D01*
X87550983Y-87801637D01*
X87201302Y-87567988D01*
X86812756Y-87407047D01*
X86400279Y-87325000D01*
X85979721Y-87325000D01*
X85567244Y-87407047D01*
X85178698Y-87567988D01*
X84829017Y-87801637D01*
X84531637Y-88099017D01*
X84297988Y-88448698D01*
X84137047Y-88837244D01*
X84055000Y-89249721D01*
X84055000Y-89670279D01*
X84137047Y-90082756D01*
X84297988Y-90471302D01*
X84391150Y-90610730D01*
X84216162Y-90683212D01*
X83972794Y-90845826D01*
X83765826Y-91052794D01*
X83603212Y-91296162D01*
X83491202Y-91566579D01*
X83434100Y-91853652D01*
X80465911Y-91853652D01*
X80465911Y-86709721D01*
X90405000Y-86709721D01*
X90405000Y-87130279D01*
X90487047Y-87542756D01*
X90647988Y-87931302D01*
X90881637Y-88280983D01*
X91179017Y-88578363D01*
X91528698Y-88812012D01*
X91917244Y-88972953D01*
X92329721Y-89055000D01*
X92750279Y-89055000D01*
X93162756Y-88972953D01*
X93551302Y-88812012D01*
X93900983Y-88578363D01*
X94198363Y-88280983D01*
X94432012Y-87931302D01*
X94592953Y-87542756D01*
X94675000Y-87130279D01*
X94675000Y-86709721D01*
X94592953Y-86297244D01*
X94432012Y-85908698D01*
X94198363Y-85559017D01*
X93900983Y-85261637D01*
X93551302Y-85027988D01*
X93162756Y-84867047D01*
X92750279Y-84785000D01*
X92329721Y-84785000D01*
X91917244Y-84867047D01*
X91528698Y-85027988D01*
X91179017Y-85261637D01*
X90881637Y-85559017D01*
X90647988Y-85908698D01*
X90487047Y-86297244D01*
X90405000Y-86709721D01*
X80465911Y-86709721D01*
X80465911Y-79904882D01*
X85682000Y-79904882D01*
X85682000Y-80255118D01*
X85750328Y-80598623D01*
X85884357Y-80922199D01*
X86078937Y-81213409D01*
X86326591Y-81461063D01*
X86617801Y-81655643D01*
X86941377Y-81789672D01*
X87284882Y-81858000D01*
X87635118Y-81858000D01*
X87978623Y-81789672D01*
X88302199Y-81655643D01*
X88593409Y-81461063D01*
X88841063Y-81213409D01*
X89035643Y-80922199D01*
X89169672Y-80598623D01*
X89238000Y-80255118D01*
X89238000Y-79904882D01*
X89169672Y-79561377D01*
X89035643Y-79237801D01*
X88841063Y-78946591D01*
X88593409Y-78698937D01*
X88302199Y-78504357D01*
X87978623Y-78370328D01*
X87635118Y-78302000D01*
X87284882Y-78302000D01*
X86941377Y-78370328D01*
X86617801Y-78504357D01*
X86326591Y-78698937D01*
X86078937Y-78946591D01*
X85884357Y-79237801D01*
X85750328Y-79561377D01*
X85682000Y-79904882D01*
X80465911Y-79904882D01*
X80465911Y-74853652D01*
X83434100Y-74853652D01*
X83434100Y-75146348D01*
X83491202Y-75433421D01*
X83603212Y-75703838D01*
X83765826Y-75947206D01*
X83972794Y-76154174D01*
X84216162Y-76316788D01*
X84486579Y-76428798D01*
X84773652Y-76485900D01*
X85066348Y-76485900D01*
X85353421Y-76428798D01*
X85623838Y-76316788D01*
X85867206Y-76154174D01*
X86074174Y-75947206D01*
X86236788Y-75703838D01*
X86348798Y-75433421D01*
X86405900Y-75146348D01*
X86405900Y-74853652D01*
X86354451Y-74595000D01*
X86400279Y-74595000D01*
X86812756Y-74512953D01*
X87201302Y-74352012D01*
X87507708Y-74147279D01*
X87472127Y-74233178D01*
X87371100Y-74741076D01*
X87371100Y-75258924D01*
X87472127Y-75766822D01*
X87670299Y-76245251D01*
X87958000Y-76675826D01*
X88324174Y-77042000D01*
X88754749Y-77329701D01*
X89233178Y-77527873D01*
X89741076Y-77628900D01*
X90258924Y-77628900D01*
X90766822Y-77527873D01*
X91245251Y-77329701D01*
X91675826Y-77042000D01*
X92042000Y-76675826D01*
X92329701Y-76245251D01*
X92527873Y-75766822D01*
X92628900Y-75258924D01*
X92628900Y-74741076D01*
X92527873Y-74233178D01*
X92329701Y-73754749D01*
X92042000Y-73324174D01*
X91675826Y-72958000D01*
X91245251Y-72670299D01*
X90766822Y-72472127D01*
X90258924Y-72371100D01*
X89741076Y-72371100D01*
X89233178Y-72472127D01*
X88754749Y-72670299D01*
X88324174Y-72958000D01*
X88253763Y-73028411D01*
X88325000Y-72670279D01*
X88325000Y-72249721D01*
X88242953Y-71837244D01*
X88082012Y-71448698D01*
X87848363Y-71099017D01*
X87550983Y-70801637D01*
X87201302Y-70567988D01*
X86812756Y-70407047D01*
X86400279Y-70325000D01*
X85979721Y-70325000D01*
X85567244Y-70407047D01*
X85178698Y-70567988D01*
X84829017Y-70801637D01*
X84531637Y-71099017D01*
X84297988Y-71448698D01*
X84137047Y-71837244D01*
X84055000Y-72249721D01*
X84055000Y-72670279D01*
X84137047Y-73082756D01*
X84297988Y-73471302D01*
X84391150Y-73610730D01*
X84216162Y-73683212D01*
X83972794Y-73845826D01*
X83765826Y-74052794D01*
X83603212Y-74296162D01*
X83491202Y-74566579D01*
X83434100Y-74853652D01*
X80465911Y-74853652D01*
X80465911Y-69709721D01*
X90405000Y-69709721D01*
X90405000Y-70130279D01*
X90487047Y-70542756D01*
X90647988Y-70931302D01*
X90881637Y-71280983D01*
X91179017Y-71578363D01*
X91528698Y-71812012D01*
X91917244Y-71972953D01*
X92329721Y-72055000D01*
X92750279Y-72055000D01*
X93162756Y-71972953D01*
X93551302Y-71812012D01*
X93900983Y-71578363D01*
X94198363Y-71280983D01*
X94432012Y-70931302D01*
X94592953Y-70542756D01*
X94675000Y-70130279D01*
X94675000Y-69709721D01*
X94592953Y-69297244D01*
X94432012Y-68908698D01*
X94198363Y-68559017D01*
X93900983Y-68261637D01*
X93551302Y-68027988D01*
X93162756Y-67867047D01*
X92750279Y-67785000D01*
X92329721Y-67785000D01*
X91917244Y-67867047D01*
X91528698Y-68027988D01*
X91179017Y-68261637D01*
X90881637Y-68559017D01*
X90647988Y-68908698D01*
X90487047Y-69297244D01*
X90405000Y-69709721D01*
X80465911Y-69709721D01*
X80465911Y-62904882D01*
X85682000Y-62904882D01*
X85682000Y-63255118D01*
X85750328Y-63598623D01*
X85884357Y-63922199D01*
X86078937Y-64213409D01*
X86326591Y-64461063D01*
X86617801Y-64655643D01*
X86941377Y-64789672D01*
X87284882Y-64858000D01*
X87635118Y-64858000D01*
X87978623Y-64789672D01*
X88302199Y-64655643D01*
X88593409Y-64461063D01*
X88841063Y-64213409D01*
X89035643Y-63922199D01*
X89169672Y-63598623D01*
X89238000Y-63255118D01*
X89238000Y-62904882D01*
X89169672Y-62561377D01*
X89035643Y-62237801D01*
X88841063Y-61946591D01*
X88593409Y-61698937D01*
X88302199Y-61504357D01*
X87978623Y-61370328D01*
X87635118Y-61302000D01*
X87284882Y-61302000D01*
X86941377Y-61370328D01*
X86617801Y-61504357D01*
X86326591Y-61698937D01*
X86078937Y-61946591D01*
X85884357Y-62237801D01*
X85750328Y-62561377D01*
X85682000Y-62904882D01*
X80465911Y-62904882D01*
X80465911Y-58040713D01*
X83476201Y-61051003D01*
X83499999Y-61080001D01*
X83528997Y-61103799D01*
X83615723Y-61174974D01*
X83732766Y-61237535D01*
X83747753Y-61245546D01*
X83891014Y-61289003D01*
X84002667Y-61300000D01*
X84002676Y-61300000D01*
X84039999Y-61303676D01*
X84077322Y-61300000D01*
X92200309Y-61300000D01*
X92234357Y-61382199D01*
X92428937Y-61673409D01*
X92676591Y-61921063D01*
X92967801Y-62115643D01*
X93291377Y-62249672D01*
X93634882Y-62318000D01*
X93985118Y-62318000D01*
X94328623Y-62249672D01*
X94652199Y-62115643D01*
X94943409Y-61921063D01*
X95191063Y-61673409D01*
X95385643Y-61382199D01*
X95479882Y-61154684D01*
X95495901Y-61170703D01*
X95495902Y-73567717D01*
X95226348Y-73514100D01*
X94933652Y-73514100D01*
X94646579Y-73571202D01*
X94376162Y-73683212D01*
X94132794Y-73845826D01*
X93925826Y-74052794D01*
X93763212Y-74296162D01*
X93651202Y-74566579D01*
X93594100Y-74853652D01*
X93594100Y-75146348D01*
X93651202Y-75433421D01*
X93763212Y-75703838D01*
X93802075Y-75762000D01*
X93634882Y-75762000D01*
X93291377Y-75830328D01*
X92967801Y-75964357D01*
X92676591Y-76158937D01*
X92428937Y-76406591D01*
X92234357Y-76697801D01*
X92100328Y-77021377D01*
X92032000Y-77364882D01*
X92032000Y-77715118D01*
X92100328Y-78058623D01*
X92234357Y-78382199D01*
X92428937Y-78673409D01*
X92676591Y-78921063D01*
X92967801Y-79115643D01*
X93291377Y-79249672D01*
X93634882Y-79318000D01*
X93985118Y-79318000D01*
X94328623Y-79249672D01*
X94652199Y-79115643D01*
X94943409Y-78921063D01*
X95191063Y-78673409D01*
X95385643Y-78382199D01*
X95418493Y-78302893D01*
X95426446Y-78303676D01*
X95463768Y-78300000D01*
X95463779Y-78300000D01*
X95575432Y-78289003D01*
X95718693Y-78245546D01*
X95850722Y-78174974D01*
X95945912Y-78096854D01*
X95945912Y-90791507D01*
X95783838Y-90683212D01*
X95513421Y-90571202D01*
X95226348Y-90514100D01*
X94933652Y-90514100D01*
X94646579Y-90571202D01*
X94376162Y-90683212D01*
X94132794Y-90845826D01*
X93925826Y-91052794D01*
X93763212Y-91296162D01*
X93651202Y-91566579D01*
X93594100Y-91853652D01*
X93594100Y-92146348D01*
X93651202Y-92433421D01*
X93763212Y-92703838D01*
X93802075Y-92762000D01*
X93634882Y-92762000D01*
X93291377Y-92830328D01*
X92967801Y-92964357D01*
X92676591Y-93158937D01*
X92428937Y-93406591D01*
X92234357Y-93697801D01*
X92100328Y-94021377D01*
X92032000Y-94364882D01*
X92032000Y-94715118D01*
X92100328Y-95058623D01*
X92234357Y-95382199D01*
X92428937Y-95673409D01*
X92676591Y-95921063D01*
X92967801Y-96115643D01*
X93291377Y-96249672D01*
X93634882Y-96318000D01*
X93985118Y-96318000D01*
X94328623Y-96249672D01*
X94652199Y-96115643D01*
X94943409Y-95921063D01*
X95191063Y-95673409D01*
X95385643Y-95382199D01*
X95418493Y-95302893D01*
X95426446Y-95303676D01*
X95463768Y-95300000D01*
X95463779Y-95300000D01*
X95575432Y-95289003D01*
X95718693Y-95245546D01*
X95850722Y-95174974D01*
X95966447Y-95080001D01*
X95990250Y-95050997D01*
X97216914Y-93824334D01*
X97245912Y-93800536D01*
X97340885Y-93684811D01*
X97411457Y-93552782D01*
X97454914Y-93409521D01*
X97465911Y-93297868D01*
X97465911Y-93297860D01*
X97469587Y-93260535D01*
X97465911Y-93223210D01*
X97465911Y-91853652D01*
X100434100Y-91853652D01*
X100434100Y-92146348D01*
X100491202Y-92433421D01*
X100603212Y-92703838D01*
X100765826Y-92947206D01*
X100972794Y-93154174D01*
X101216162Y-93316788D01*
X101486579Y-93428798D01*
X101773652Y-93485900D01*
X102066348Y-93485900D01*
X102353421Y-93428798D01*
X102623838Y-93316788D01*
X102867206Y-93154174D01*
X103074174Y-92947206D01*
X103236788Y-92703838D01*
X103348798Y-92433421D01*
X103405900Y-92146348D01*
X103405900Y-91853652D01*
X103354451Y-91595000D01*
X103400279Y-91595000D01*
X103812756Y-91512953D01*
X104201302Y-91352012D01*
X104507708Y-91147279D01*
X104472127Y-91233178D01*
X104371100Y-91741076D01*
X104371100Y-92258924D01*
X104472127Y-92766822D01*
X104670299Y-93245251D01*
X104958000Y-93675826D01*
X105324174Y-94042000D01*
X105754749Y-94329701D01*
X106233178Y-94527873D01*
X106741076Y-94628900D01*
X107258924Y-94628900D01*
X107766822Y-94527873D01*
X108245251Y-94329701D01*
X108675826Y-94042000D01*
X109042000Y-93675826D01*
X109329701Y-93245251D01*
X109527873Y-92766822D01*
X109628900Y-92258924D01*
X109628900Y-91741076D01*
X109527873Y-91233178D01*
X109329701Y-90754749D01*
X109042000Y-90324174D01*
X108675826Y-89958000D01*
X108245251Y-89670299D01*
X107766822Y-89472127D01*
X107258924Y-89371100D01*
X106741076Y-89371100D01*
X106233178Y-89472127D01*
X105754749Y-89670299D01*
X105324174Y-89958000D01*
X105253763Y-90028411D01*
X105325000Y-89670279D01*
X105325000Y-89249721D01*
X105242953Y-88837244D01*
X105082012Y-88448698D01*
X104848363Y-88099017D01*
X104550983Y-87801637D01*
X104201302Y-87567988D01*
X103812756Y-87407047D01*
X103400279Y-87325000D01*
X102979721Y-87325000D01*
X102567244Y-87407047D01*
X102178698Y-87567988D01*
X101829017Y-87801637D01*
X101531637Y-88099017D01*
X101297988Y-88448698D01*
X101137047Y-88837244D01*
X101055000Y-89249721D01*
X101055000Y-89670279D01*
X101137047Y-90082756D01*
X101297988Y-90471302D01*
X101391150Y-90610730D01*
X101216162Y-90683212D01*
X100972794Y-90845826D01*
X100765826Y-91052794D01*
X100603212Y-91296162D01*
X100491202Y-91566579D01*
X100434100Y-91853652D01*
X97465911Y-91853652D01*
X97465911Y-86709721D01*
X107405000Y-86709721D01*
X107405000Y-87130279D01*
X107487047Y-87542756D01*
X107647988Y-87931302D01*
X107881637Y-88280983D01*
X108179017Y-88578363D01*
X108528698Y-88812012D01*
X108917244Y-88972953D01*
X109329721Y-89055000D01*
X109750279Y-89055000D01*
X110162756Y-88972953D01*
X110551302Y-88812012D01*
X110900983Y-88578363D01*
X111198363Y-88280983D01*
X111432012Y-87931302D01*
X111592953Y-87542756D01*
X111675000Y-87130279D01*
X111675000Y-86709721D01*
X111592953Y-86297244D01*
X111432012Y-85908698D01*
X111198363Y-85559017D01*
X110900983Y-85261637D01*
X110551302Y-85027988D01*
X110162756Y-84867047D01*
X109750279Y-84785000D01*
X109329721Y-84785000D01*
X108917244Y-84867047D01*
X108528698Y-85027988D01*
X108179017Y-85261637D01*
X107881637Y-85559017D01*
X107647988Y-85908698D01*
X107487047Y-86297244D01*
X107405000Y-86709721D01*
X97465911Y-86709721D01*
X97465911Y-79904882D01*
X102682000Y-79904882D01*
X102682000Y-80255118D01*
X102750328Y-80598623D01*
X102884357Y-80922199D01*
X103078937Y-81213409D01*
X103326591Y-81461063D01*
X103617801Y-81655643D01*
X103941377Y-81789672D01*
X104284882Y-81858000D01*
X104635118Y-81858000D01*
X104978623Y-81789672D01*
X105302199Y-81655643D01*
X105593409Y-81461063D01*
X105841063Y-81213409D01*
X106035643Y-80922199D01*
X106169672Y-80598623D01*
X106238000Y-80255118D01*
X106238000Y-79904882D01*
X106169672Y-79561377D01*
X106035643Y-79237801D01*
X105841063Y-78946591D01*
X105593409Y-78698937D01*
X105302199Y-78504357D01*
X104978623Y-78370328D01*
X104635118Y-78302000D01*
X104284882Y-78302000D01*
X103941377Y-78370328D01*
X103617801Y-78504357D01*
X103326591Y-78698937D01*
X103078937Y-78946591D01*
X102884357Y-79237801D01*
X102750328Y-79561377D01*
X102682000Y-79904882D01*
X97465911Y-79904882D01*
X97465911Y-74853652D01*
X100434100Y-74853652D01*
X100434100Y-75146348D01*
X100491202Y-75433421D01*
X100603212Y-75703838D01*
X100765826Y-75947206D01*
X100972794Y-76154174D01*
X101216162Y-76316788D01*
X101486579Y-76428798D01*
X101773652Y-76485900D01*
X102066348Y-76485900D01*
X102353421Y-76428798D01*
X102623838Y-76316788D01*
X102867206Y-76154174D01*
X103074174Y-75947206D01*
X103236788Y-75703838D01*
X103348798Y-75433421D01*
X103405900Y-75146348D01*
X103405900Y-74853652D01*
X103354451Y-74595000D01*
X103400279Y-74595000D01*
X103812756Y-74512953D01*
X104201302Y-74352012D01*
X104507708Y-74147279D01*
X104472127Y-74233178D01*
X104371100Y-74741076D01*
X104371100Y-75258924D01*
X104472127Y-75766822D01*
X104670299Y-76245251D01*
X104958000Y-76675826D01*
X105324174Y-77042000D01*
X105754749Y-77329701D01*
X106233178Y-77527873D01*
X106741076Y-77628900D01*
X107258924Y-77628900D01*
X107766822Y-77527873D01*
X108245251Y-77329701D01*
X108675826Y-77042000D01*
X109042000Y-76675826D01*
X109329701Y-76245251D01*
X109527873Y-75766822D01*
X109628900Y-75258924D01*
X109628900Y-74741076D01*
X109527873Y-74233178D01*
X109329701Y-73754749D01*
X109042000Y-73324174D01*
X108675826Y-72958000D01*
X108245251Y-72670299D01*
X107766822Y-72472127D01*
X107258924Y-72371100D01*
X106741076Y-72371100D01*
X106233178Y-72472127D01*
X105754749Y-72670299D01*
X105324174Y-72958000D01*
X105253763Y-73028411D01*
X105325000Y-72670279D01*
X105325000Y-72249721D01*
X105242953Y-71837244D01*
X105082012Y-71448698D01*
X104848363Y-71099017D01*
X104550983Y-70801637D01*
X104201302Y-70567988D01*
X103812756Y-70407047D01*
X103400279Y-70325000D01*
X102979721Y-70325000D01*
X102567244Y-70407047D01*
X102178698Y-70567988D01*
X101829017Y-70801637D01*
X101531637Y-71099017D01*
X101297988Y-71448698D01*
X101137047Y-71837244D01*
X101055000Y-72249721D01*
X101055000Y-72670279D01*
X101137047Y-73082756D01*
X101297988Y-73471302D01*
X101391150Y-73610730D01*
X101216162Y-73683212D01*
X100972794Y-73845826D01*
X100765826Y-74052794D01*
X100603212Y-74296162D01*
X100491202Y-74566579D01*
X100434100Y-74853652D01*
X97465911Y-74853652D01*
X97465911Y-69709721D01*
X107405000Y-69709721D01*
X107405000Y-70130279D01*
X107487047Y-70542756D01*
X107647988Y-70931302D01*
X107881637Y-71280983D01*
X108179017Y-71578363D01*
X108528698Y-71812012D01*
X108917244Y-71972953D01*
X109329721Y-72055000D01*
X109750279Y-72055000D01*
X110162756Y-71972953D01*
X110551302Y-71812012D01*
X110900983Y-71578363D01*
X111198363Y-71280983D01*
X111432012Y-70931302D01*
X111592953Y-70542756D01*
X111675000Y-70130279D01*
X111675000Y-69709721D01*
X111592953Y-69297244D01*
X111432012Y-68908698D01*
X111198363Y-68559017D01*
X110900983Y-68261637D01*
X110551302Y-68027988D01*
X110162756Y-67867047D01*
X109750279Y-67785000D01*
X109329721Y-67785000D01*
X108917244Y-67867047D01*
X108528698Y-68027988D01*
X108179017Y-68261637D01*
X107881637Y-68559017D01*
X107647988Y-68908698D01*
X107487047Y-69297244D01*
X107405000Y-69709721D01*
X97465911Y-69709721D01*
X97465911Y-62904882D01*
X102682000Y-62904882D01*
X102682000Y-63255118D01*
X102750328Y-63598623D01*
X102884357Y-63922199D01*
X103078937Y-64213409D01*
X103326591Y-64461063D01*
X103617801Y-64655643D01*
X103941377Y-64789672D01*
X104284882Y-64858000D01*
X104635118Y-64858000D01*
X104978623Y-64789672D01*
X105302199Y-64655643D01*
X105593409Y-64461063D01*
X105841063Y-64213409D01*
X106035643Y-63922199D01*
X106169672Y-63598623D01*
X106238000Y-63255118D01*
X106238000Y-62904882D01*
X106169672Y-62561377D01*
X106035643Y-62237801D01*
X105841063Y-61946591D01*
X105593409Y-61698937D01*
X105302199Y-61504357D01*
X104978623Y-61370328D01*
X104635118Y-61302000D01*
X104284882Y-61302000D01*
X103941377Y-61370328D01*
X103617801Y-61504357D01*
X103326591Y-61698937D01*
X103078937Y-61946591D01*
X102884357Y-62237801D01*
X102750328Y-62561377D01*
X102682000Y-62904882D01*
X97465911Y-62904882D01*
X97465911Y-57922910D01*
X97469588Y-57885577D01*
X97464957Y-57838553D01*
X97454914Y-57736591D01*
X97411457Y-57593330D01*
X97340885Y-57461301D01*
X97245912Y-57345576D01*
X97216915Y-57321779D01*
X96208237Y-56313101D01*
X96184434Y-56284098D01*
X96068709Y-56189125D01*
X95936680Y-56118553D01*
X95793419Y-56075096D01*
X95681766Y-56064099D01*
X95681755Y-56064099D01*
X95644433Y-56060423D01*
X95607111Y-56064099D01*
X94057899Y-56064099D01*
X92999272Y-55005472D01*
X93162756Y-54972953D01*
X93551302Y-54812012D01*
X93900983Y-54578363D01*
X94198363Y-54280983D01*
X94432012Y-53931302D01*
X94592953Y-53542756D01*
X94675000Y-53130279D01*
X94675000Y-53049801D01*
X99984099Y-58358902D01*
X99984099Y-58506777D01*
X99980423Y-58544099D01*
X99984099Y-58581421D01*
X99984099Y-58581432D01*
X99995096Y-58693085D01*
X100038553Y-58836346D01*
X100109125Y-58968375D01*
X100204099Y-59084100D01*
X100233097Y-59107898D01*
X102079201Y-60954003D01*
X102084692Y-60964276D01*
X102179665Y-61080001D01*
X102295390Y-61174974D01*
X102427419Y-61245546D01*
X102570680Y-61289003D01*
X102682333Y-61300000D01*
X102702676Y-61300000D01*
X102739999Y-61303676D01*
X102777322Y-61300000D01*
X109200309Y-61300000D01*
X109234357Y-61382199D01*
X109428937Y-61673409D01*
X109676591Y-61921063D01*
X109967801Y-62115643D01*
X110291377Y-62249672D01*
X110634882Y-62318000D01*
X110985118Y-62318000D01*
X111328623Y-62249672D01*
X111652199Y-62115643D01*
X111943409Y-61921063D01*
X112191063Y-61673409D01*
X112385643Y-61382199D01*
X112495901Y-61116011D01*
X112495902Y-73567717D01*
X112226348Y-73514100D01*
X111933652Y-73514100D01*
X111646579Y-73571202D01*
X111376162Y-73683212D01*
X111132794Y-73845826D01*
X110925826Y-74052794D01*
X110763212Y-74296162D01*
X110651202Y-74566579D01*
X110594100Y-74853652D01*
X110594100Y-75146348D01*
X110651202Y-75433421D01*
X110763212Y-75703838D01*
X110802075Y-75762000D01*
X110634882Y-75762000D01*
X110291377Y-75830328D01*
X109967801Y-75964357D01*
X109676591Y-76158937D01*
X109428937Y-76406591D01*
X109234357Y-76697801D01*
X109100328Y-77021377D01*
X109032000Y-77364882D01*
X109032000Y-77715118D01*
X109100328Y-78058623D01*
X109234357Y-78382199D01*
X109428937Y-78673409D01*
X109676591Y-78921063D01*
X109967801Y-79115643D01*
X110291377Y-79249672D01*
X110634882Y-79318000D01*
X110985118Y-79318000D01*
X111328623Y-79249672D01*
X111652199Y-79115643D01*
X111943409Y-78921063D01*
X112191063Y-78673409D01*
X112385643Y-78382199D01*
X112418493Y-78302893D01*
X112426446Y-78303676D01*
X112463768Y-78300000D01*
X112463779Y-78300000D01*
X112575432Y-78289003D01*
X112718693Y-78245546D01*
X112850722Y-78174974D01*
X112945912Y-78096854D01*
X112945912Y-90791507D01*
X112783838Y-90683212D01*
X112513421Y-90571202D01*
X112226348Y-90514100D01*
X111933652Y-90514100D01*
X111646579Y-90571202D01*
X111376162Y-90683212D01*
X111132794Y-90845826D01*
X110925826Y-91052794D01*
X110763212Y-91296162D01*
X110651202Y-91566579D01*
X110594100Y-91853652D01*
X110594100Y-92146348D01*
X110651202Y-92433421D01*
X110763212Y-92703838D01*
X110802075Y-92762000D01*
X110634882Y-92762000D01*
X110291377Y-92830328D01*
X109967801Y-92964357D01*
X109676591Y-93158937D01*
X109428937Y-93406591D01*
X109234357Y-93697801D01*
X109100328Y-94021377D01*
X109032000Y-94364882D01*
X109032000Y-94715118D01*
X109100328Y-95058623D01*
X109234357Y-95382199D01*
X109428937Y-95673409D01*
X109676591Y-95921063D01*
X109967801Y-96115643D01*
X110291377Y-96249672D01*
X110634882Y-96318000D01*
X110985118Y-96318000D01*
X111328623Y-96249672D01*
X111652199Y-96115643D01*
X111943409Y-95921063D01*
X112191063Y-95673409D01*
X112385643Y-95382199D01*
X112418493Y-95302893D01*
X112426446Y-95303676D01*
X112463768Y-95300000D01*
X112463779Y-95300000D01*
X112575432Y-95289003D01*
X112718693Y-95245546D01*
X112850722Y-95174974D01*
X112966447Y-95080001D01*
X112990250Y-95050997D01*
X114216914Y-93824334D01*
X114245912Y-93800536D01*
X114340885Y-93684811D01*
X114411457Y-93552782D01*
X114454914Y-93409521D01*
X114465911Y-93297868D01*
X114465911Y-93297860D01*
X114469587Y-93260535D01*
X114465911Y-93223210D01*
X114465911Y-54243233D01*
X114469587Y-54205910D01*
X114465911Y-54168587D01*
X114465911Y-54168578D01*
X114454914Y-54056925D01*
X114411457Y-53913664D01*
X114340885Y-53781635D01*
X114287033Y-53716016D01*
X114269710Y-53694907D01*
X114269706Y-53694903D01*
X114245912Y-53665910D01*
X114216920Y-53642117D01*
X108883804Y-48309003D01*
X108860001Y-48279999D01*
X108744276Y-48185026D01*
X108612247Y-48114454D01*
X108468986Y-48070997D01*
X108357333Y-48060000D01*
X108357322Y-48060000D01*
X108320000Y-48056324D01*
X108282678Y-48060000D01*
X106976321Y-48060000D01*
X107247743Y-48006011D01*
X107527095Y-47890299D01*
X107778505Y-47722312D01*
X107844944Y-47655873D01*
X107850498Y-47674180D01*
X107909463Y-47784494D01*
X107988815Y-47881185D01*
X108085506Y-47960537D01*
X108195820Y-48019502D01*
X108315518Y-48055812D01*
X108440000Y-48068072D01*
X109054250Y-48065000D01*
X109213000Y-47906250D01*
X109213000Y-46657000D01*
X109467000Y-46657000D01*
X109467000Y-47906250D01*
X109625750Y-48065000D01*
X110240000Y-48068072D01*
X110364482Y-48055812D01*
X110484180Y-48019502D01*
X110594494Y-47960537D01*
X110691185Y-47881185D01*
X110770537Y-47784494D01*
X110829502Y-47674180D01*
X110865812Y-47554482D01*
X110878072Y-47430000D01*
X110875000Y-46815750D01*
X110716250Y-46657000D01*
X109467000Y-46657000D01*
X109213000Y-46657000D01*
X109193000Y-46657000D01*
X109193000Y-46403000D01*
X109213000Y-46403000D01*
X109213000Y-45153750D01*
X109467000Y-45153750D01*
X109467000Y-46403000D01*
X110716250Y-46403000D01*
X110875000Y-46244250D01*
X110878072Y-45630000D01*
X110865812Y-45505518D01*
X110829502Y-45385820D01*
X110770537Y-45275506D01*
X110691185Y-45178815D01*
X110594494Y-45099463D01*
X110484180Y-45040498D01*
X110364482Y-45004188D01*
X110240000Y-44991928D01*
X109625750Y-44995000D01*
X109467000Y-45153750D01*
X109213000Y-45153750D01*
X109054250Y-44995000D01*
X108440000Y-44991928D01*
X108315518Y-45004188D01*
X108195820Y-45040498D01*
X108085506Y-45099463D01*
X107988815Y-45178815D01*
X107909463Y-45275506D01*
X107850498Y-45385820D01*
X107844944Y-45404127D01*
X107778505Y-45337688D01*
X107527095Y-45169701D01*
X107247743Y-45053989D01*
X106951184Y-44995000D01*
X106648816Y-44995000D01*
X106391070Y-45046269D01*
X105899999Y-44555198D01*
X105899999Y-43542293D01*
X105917795Y-43585256D01*
X106031063Y-43754774D01*
X106175226Y-43898937D01*
X106344744Y-44012205D01*
X106533102Y-44090226D01*
X106733061Y-44130000D01*
X106936939Y-44130000D01*
X107136898Y-44090226D01*
X107325256Y-44012205D01*
X107494774Y-43898937D01*
X107638937Y-43754774D01*
X107752205Y-43585256D01*
X107830226Y-43396898D01*
X107870000Y-43196939D01*
X107870000Y-43134801D01*
X108536004Y-42468798D01*
X108565002Y-42445000D01*
X108659975Y-42329275D01*
X108730547Y-42197246D01*
X108774004Y-42053985D01*
X108785001Y-41942332D01*
X108788678Y-41904999D01*
X108785001Y-41867666D01*
X108785001Y-41566347D01*
X109054250Y-41565000D01*
X109213000Y-41406250D01*
X109213000Y-40157000D01*
X109467000Y-40157000D01*
X109467000Y-41406250D01*
X109625750Y-41565000D01*
X110240000Y-41568072D01*
X110364482Y-41555812D01*
X110484180Y-41519502D01*
X110594494Y-41460537D01*
X110691185Y-41381185D01*
X110770537Y-41284494D01*
X110829502Y-41174180D01*
X110865812Y-41054482D01*
X110878072Y-40930000D01*
X110875000Y-40315750D01*
X110716250Y-40157000D01*
X109467000Y-40157000D01*
X109213000Y-40157000D01*
X109193000Y-40157000D01*
X109193000Y-39903000D01*
X109213000Y-39903000D01*
X109213000Y-38653750D01*
X109467000Y-38653750D01*
X109467000Y-39903000D01*
X110716250Y-39903000D01*
X110875000Y-39744250D01*
X110878072Y-39130000D01*
X110865812Y-39005518D01*
X110829502Y-38885820D01*
X110770537Y-38775506D01*
X110691185Y-38678815D01*
X110594494Y-38599463D01*
X110484180Y-38540498D01*
X110364482Y-38504188D01*
X110240000Y-38491928D01*
X109625750Y-38495000D01*
X109467000Y-38653750D01*
X109213000Y-38653750D01*
X109054250Y-38495000D01*
X108785001Y-38493653D01*
X108785001Y-35066347D01*
X109054250Y-35065000D01*
X109213000Y-34906250D01*
X109213000Y-33657000D01*
X109467000Y-33657000D01*
X109467000Y-34906250D01*
X109625750Y-35065000D01*
X110240000Y-35068072D01*
X110364482Y-35055812D01*
X110484180Y-35019502D01*
X110594494Y-34960537D01*
X110691185Y-34881185D01*
X110770537Y-34784494D01*
X110829502Y-34674180D01*
X110865812Y-34554482D01*
X110878072Y-34430000D01*
X110875000Y-33815750D01*
X110716250Y-33657000D01*
X109467000Y-33657000D01*
X109213000Y-33657000D01*
X109193000Y-33657000D01*
X109193000Y-33403000D01*
X109213000Y-33403000D01*
X109213000Y-32153750D01*
X109467000Y-32153750D01*
X109467000Y-33403000D01*
X110716250Y-33403000D01*
X110875000Y-33244250D01*
X110878072Y-32630000D01*
X110865812Y-32505518D01*
X110829502Y-32385820D01*
X110770537Y-32275506D01*
X110691185Y-32178815D01*
X110594494Y-32099463D01*
X110484180Y-32040498D01*
X110364482Y-32004188D01*
X110240000Y-31991928D01*
X109625750Y-31995000D01*
X109467000Y-32153750D01*
X109213000Y-32153750D01*
X109054250Y-31995000D01*
X108440000Y-31991928D01*
X108315518Y-32004188D01*
X108195820Y-32040498D01*
X108085506Y-32099463D01*
X107988815Y-32178815D01*
X107909463Y-32275506D01*
X107850498Y-32385820D01*
X107844944Y-32404127D01*
X107778505Y-32337688D01*
X107527095Y-32169701D01*
X107247743Y-32053989D01*
X106951184Y-31995000D01*
X106648816Y-31995000D01*
X106352257Y-32053989D01*
X106072905Y-32169701D01*
X105821495Y-32337688D01*
X105607688Y-32551495D01*
X105439701Y-32802905D01*
X105323989Y-33082257D01*
X105265000Y-33378816D01*
X105265000Y-33681184D01*
X105323989Y-33977743D01*
X105439701Y-34257095D01*
X105607688Y-34508505D01*
X105821495Y-34722312D01*
X106072905Y-34890299D01*
X106352257Y-35006011D01*
X106648816Y-35065000D01*
X106951184Y-35065000D01*
X107208930Y-35013731D01*
X107265001Y-35069803D01*
X107265002Y-38561138D01*
X107247743Y-38553989D01*
X106951184Y-38495000D01*
X106648816Y-38495000D01*
X106352257Y-38553989D01*
X106072905Y-38669701D01*
X105899999Y-38785233D01*
X105899999Y-38477321D01*
X105903675Y-38439998D01*
X105899999Y-38402676D01*
X105899999Y-38402666D01*
X105889002Y-38291013D01*
X105845545Y-38147752D01*
X105775000Y-38015774D01*
X105775000Y-37938061D01*
X105735226Y-37738102D01*
X105657205Y-37549744D01*
X105543937Y-37380226D01*
X105399774Y-37236063D01*
X105230256Y-37122795D01*
X105041898Y-37044774D01*
X104841939Y-37005000D01*
X104638061Y-37005000D01*
X104438102Y-37044774D01*
X104249744Y-37122795D01*
X104080226Y-37236063D01*
X103936063Y-37380226D01*
X103822795Y-37549744D01*
X103744774Y-37738102D01*
X103705000Y-37938061D01*
X103705000Y-38141939D01*
X103744774Y-38341898D01*
X103809765Y-38498799D01*
X103740000Y-38491928D01*
X103125750Y-38495000D01*
X102967000Y-38653750D01*
X102967000Y-39903000D01*
X104216250Y-39903000D01*
X104375000Y-39744250D01*
X104378072Y-39130000D01*
X104365812Y-39005518D01*
X104365730Y-39005248D01*
X104379999Y-39011159D01*
X104380000Y-44832667D01*
X104376323Y-44869999D01*
X104380000Y-44907332D01*
X104381687Y-44924455D01*
X104390997Y-45018984D01*
X104434453Y-45162245D01*
X104505025Y-45294275D01*
X104541719Y-45338986D01*
X104599999Y-45410000D01*
X104628997Y-45433798D01*
X105316269Y-46121070D01*
X105265000Y-46378816D01*
X105265000Y-46681184D01*
X105323989Y-46977743D01*
X105439701Y-47257095D01*
X105607688Y-47508505D01*
X105821495Y-47722312D01*
X106072905Y-47890299D01*
X106352257Y-48006011D01*
X106623679Y-48060000D01*
X103821959Y-48060000D01*
X103864482Y-48055812D01*
X103984180Y-48019502D01*
X104094494Y-47960537D01*
X104191185Y-47881185D01*
X104270537Y-47784494D01*
X104329502Y-47674180D01*
X104365812Y-47554482D01*
X104378072Y-47430000D01*
X104375000Y-46815750D01*
X104216250Y-46657000D01*
X102967000Y-46657000D01*
X102967000Y-46677000D01*
X102713000Y-46677000D01*
X102713000Y-46657000D01*
X102693000Y-46657000D01*
X102693000Y-46403000D01*
X102713000Y-46403000D01*
X102713000Y-45153750D01*
X102967000Y-45153750D01*
X102967000Y-46403000D01*
X104216250Y-46403000D01*
X104375000Y-46244250D01*
X104378072Y-45630000D01*
X104365812Y-45505518D01*
X104329502Y-45385820D01*
X104270537Y-45275506D01*
X104191185Y-45178815D01*
X104094494Y-45099463D01*
X103984180Y-45040498D01*
X103864482Y-45004188D01*
X103740000Y-44991928D01*
X103125750Y-44995000D01*
X102967000Y-45153750D01*
X102713000Y-45153750D01*
X102554250Y-44995000D01*
X101940000Y-44991928D01*
X101815518Y-45004188D01*
X101695820Y-45040498D01*
X101585506Y-45099463D01*
X101488815Y-45178815D01*
X101409463Y-45275506D01*
X101350498Y-45385820D01*
X101344944Y-45404127D01*
X101278505Y-45337688D01*
X101027095Y-45169701D01*
X100747743Y-45053989D01*
X100451184Y-44995000D01*
X100275486Y-44995000D01*
X102036005Y-43234482D01*
X102065002Y-43210685D01*
X102159975Y-43094960D01*
X102230547Y-42962931D01*
X102274004Y-42819670D01*
X102285001Y-42708017D01*
X102285001Y-42708007D01*
X102288677Y-42670684D01*
X102285001Y-42633361D01*
X102285001Y-41566347D01*
X102554250Y-41565000D01*
X102713000Y-41406250D01*
X102713000Y-40157000D01*
X102967000Y-40157000D01*
X102967000Y-41406250D01*
X103125750Y-41565000D01*
X103740000Y-41568072D01*
X103864482Y-41555812D01*
X103984180Y-41519502D01*
X104094494Y-41460537D01*
X104191185Y-41381185D01*
X104270537Y-41284494D01*
X104329502Y-41174180D01*
X104365812Y-41054482D01*
X104378072Y-40930000D01*
X104375000Y-40315750D01*
X104216250Y-40157000D01*
X102967000Y-40157000D01*
X102713000Y-40157000D01*
X102693000Y-40157000D01*
X102693000Y-39903000D01*
X102713000Y-39903000D01*
X102713000Y-38653750D01*
X102554250Y-38495000D01*
X102285001Y-38493653D01*
X102285001Y-35066347D01*
X102554250Y-35065000D01*
X102713000Y-34906250D01*
X102713000Y-33657000D01*
X102967000Y-33657000D01*
X102967000Y-34906250D01*
X103125750Y-35065000D01*
X103740000Y-35068072D01*
X103864482Y-35055812D01*
X103984180Y-35019502D01*
X104094494Y-34960537D01*
X104191185Y-34881185D01*
X104270537Y-34784494D01*
X104329502Y-34674180D01*
X104365812Y-34554482D01*
X104378072Y-34430000D01*
X104375000Y-33815750D01*
X104216250Y-33657000D01*
X102967000Y-33657000D01*
X102713000Y-33657000D01*
X102693000Y-33657000D01*
X102693000Y-33403000D01*
X102713000Y-33403000D01*
X102713000Y-32153750D01*
X102967000Y-32153750D01*
X102967000Y-33403000D01*
X104216250Y-33403000D01*
X104375000Y-33244250D01*
X104378072Y-32630000D01*
X104365812Y-32505518D01*
X104329502Y-32385820D01*
X104270537Y-32275506D01*
X104191185Y-32178815D01*
X104094494Y-32099463D01*
X103984180Y-32040498D01*
X103864482Y-32004188D01*
X103740000Y-31991928D01*
X103125750Y-31995000D01*
X102967000Y-32153750D01*
X102713000Y-32153750D01*
X102554250Y-31995000D01*
X101940000Y-31991928D01*
X101815518Y-32004188D01*
X101695820Y-32040498D01*
X101585506Y-32099463D01*
X101488815Y-32178815D01*
X101409463Y-32275506D01*
X101350498Y-32385820D01*
X101344944Y-32404127D01*
X101278505Y-32337688D01*
X101027095Y-32169701D01*
X100747743Y-32053989D01*
X100451184Y-31995000D01*
X100148816Y-31995000D01*
X99852257Y-32053989D01*
X99572905Y-32169701D01*
X99321495Y-32337688D01*
X99107688Y-32551495D01*
X98939701Y-32802905D01*
X98823989Y-33082257D01*
X98765000Y-33378816D01*
X98765000Y-33681184D01*
X98823989Y-33977743D01*
X98939701Y-34257095D01*
X99107688Y-34508505D01*
X99321495Y-34722312D01*
X99572905Y-34890299D01*
X99852257Y-35006011D01*
X100148816Y-35065000D01*
X100451184Y-35065000D01*
X100708930Y-35013731D01*
X100765002Y-35069803D01*
X100765002Y-38561138D01*
X100747743Y-38553989D01*
X100451184Y-38495000D01*
X100148816Y-38495000D01*
X99852257Y-38553989D01*
X99572905Y-38669701D01*
X99321495Y-38837688D01*
X99107688Y-39051495D01*
X98939701Y-39302905D01*
X98823989Y-39582257D01*
X98765000Y-39878816D01*
X98765000Y-40181184D01*
X98823989Y-40477743D01*
X98939701Y-40757095D01*
X99107688Y-41008505D01*
X99321495Y-41222312D01*
X99540000Y-41368313D01*
X99540000Y-42015195D01*
X98400199Y-43154997D01*
X98338061Y-43154997D01*
X98138102Y-43194771D01*
X97949744Y-43272792D01*
X97780226Y-43386060D01*
X97636063Y-43530223D01*
X97522795Y-43699741D01*
X97444774Y-43888099D01*
X97405000Y-44088058D01*
X97405000Y-44291936D01*
X97444774Y-44491895D01*
X97522795Y-44680253D01*
X97529307Y-44689998D01*
X97522795Y-44699744D01*
X97444774Y-44888102D01*
X97418428Y-45020552D01*
X97364482Y-45004188D01*
X97240000Y-44991928D01*
X96625750Y-44995000D01*
X96467000Y-45153750D01*
X96467000Y-46403000D01*
X97716250Y-46403000D01*
X97875000Y-46244250D01*
X97875932Y-46057886D01*
X97949744Y-46107205D01*
X98138102Y-46185226D01*
X98338061Y-46225000D01*
X98541939Y-46225000D01*
X98741898Y-46185226D01*
X98809039Y-46157415D01*
X98765000Y-46378816D01*
X98765000Y-46681184D01*
X98823989Y-46977743D01*
X98939701Y-47257095D01*
X99107688Y-47508505D01*
X99321495Y-47722312D01*
X99572905Y-47890299D01*
X99852257Y-48006011D01*
X100123679Y-48060000D01*
X97321959Y-48060000D01*
X97364482Y-48055812D01*
X97484180Y-48019502D01*
X97594494Y-47960537D01*
X97691185Y-47881185D01*
X97770537Y-47784494D01*
X97829502Y-47674180D01*
X97865812Y-47554482D01*
X97878072Y-47430000D01*
X97875000Y-46815750D01*
X97716250Y-46657000D01*
X96467000Y-46657000D01*
X96467000Y-46677000D01*
X96213000Y-46677000D01*
X96213000Y-46657000D01*
X96193000Y-46657000D01*
X96193000Y-46403000D01*
X96213000Y-46403000D01*
X96213000Y-45153750D01*
X96054250Y-44995000D01*
X95785001Y-44993653D01*
X95785001Y-41566347D01*
X96054250Y-41565000D01*
X96213000Y-41406250D01*
X96213000Y-40157000D01*
X96467000Y-40157000D01*
X96467000Y-41406250D01*
X96625750Y-41565000D01*
X97240000Y-41568072D01*
X97364482Y-41555812D01*
X97484180Y-41519502D01*
X97594494Y-41460537D01*
X97691185Y-41381185D01*
X97770537Y-41284494D01*
X97829502Y-41174180D01*
X97865812Y-41054482D01*
X97878072Y-40930000D01*
X97875000Y-40315750D01*
X97716250Y-40157000D01*
X96467000Y-40157000D01*
X96213000Y-40157000D01*
X96193000Y-40157000D01*
X96193000Y-39903000D01*
X96213000Y-39903000D01*
X96213000Y-38653750D01*
X96467000Y-38653750D01*
X96467000Y-39903000D01*
X97716250Y-39903000D01*
X97875000Y-39744250D01*
X97878072Y-39130000D01*
X97865812Y-39005518D01*
X97829502Y-38885820D01*
X97770537Y-38775506D01*
X97691185Y-38678815D01*
X97594494Y-38599463D01*
X97484180Y-38540498D01*
X97364482Y-38504188D01*
X97240000Y-38491928D01*
X96625750Y-38495000D01*
X96467000Y-38653750D01*
X96213000Y-38653750D01*
X96054250Y-38495000D01*
X95785001Y-38493653D01*
X95785001Y-35066347D01*
X96054250Y-35065000D01*
X96213000Y-34906250D01*
X96213000Y-33657000D01*
X96467000Y-33657000D01*
X96467000Y-34906250D01*
X96625750Y-35065000D01*
X97240000Y-35068072D01*
X97364482Y-35055812D01*
X97484180Y-35019502D01*
X97594494Y-34960537D01*
X97691185Y-34881185D01*
X97770537Y-34784494D01*
X97829502Y-34674180D01*
X97865812Y-34554482D01*
X97878072Y-34430000D01*
X97875000Y-33815750D01*
X97716250Y-33657000D01*
X96467000Y-33657000D01*
X96213000Y-33657000D01*
X96193000Y-33657000D01*
X96193000Y-33403000D01*
X96213000Y-33403000D01*
X96213000Y-32153750D01*
X96467000Y-32153750D01*
X96467000Y-33403000D01*
X97716250Y-33403000D01*
X97875000Y-33244250D01*
X97878072Y-32630000D01*
X97865812Y-32505518D01*
X97829502Y-32385820D01*
X97770537Y-32275506D01*
X97691185Y-32178815D01*
X97594494Y-32099463D01*
X97484180Y-32040498D01*
X97364482Y-32004188D01*
X97240000Y-31991928D01*
X96625750Y-31995000D01*
X96467000Y-32153750D01*
X96213000Y-32153750D01*
X96054250Y-31995000D01*
X95440000Y-31991928D01*
X95315518Y-32004188D01*
X95195820Y-32040498D01*
X95085506Y-32099463D01*
X94988815Y-32178815D01*
X94909463Y-32275506D01*
X94850498Y-32385820D01*
X94844944Y-32404127D01*
X94778505Y-32337688D01*
X94527095Y-32169701D01*
X94247743Y-32053989D01*
X93951184Y-31995000D01*
X93648816Y-31995000D01*
X93352257Y-32053989D01*
X93072905Y-32169701D01*
X92821495Y-32337688D01*
X92607688Y-32551495D01*
X92439701Y-32802905D01*
X92323989Y-33082257D01*
X92265000Y-33378816D01*
X92265000Y-33681184D01*
X92323989Y-33977743D01*
X92439701Y-34257095D01*
X92607688Y-34508505D01*
X92821495Y-34722312D01*
X93072905Y-34890299D01*
X93352257Y-35006011D01*
X93648816Y-35065000D01*
X93951184Y-35065000D01*
X94208930Y-35013731D01*
X94265002Y-35069803D01*
X94265002Y-38561138D01*
X94247743Y-38553989D01*
X93951184Y-38495000D01*
X93648816Y-38495000D01*
X93352257Y-38553989D01*
X93072905Y-38669701D01*
X92821495Y-38837688D01*
X92607688Y-39051495D01*
X92439701Y-39302905D01*
X92323989Y-39582257D01*
X92265000Y-39878816D01*
X92265000Y-40181184D01*
X92316269Y-40438930D01*
X91761613Y-40993586D01*
X91754236Y-40918691D01*
X91672182Y-40648192D01*
X91538932Y-40398899D01*
X91359608Y-40180392D01*
X91141101Y-40001068D01*
X90891808Y-39867818D01*
X90621309Y-39785764D01*
X90410492Y-39765000D01*
X90269508Y-39765000D01*
X90058691Y-39785764D01*
X89788192Y-39867818D01*
X89538899Y-40001068D01*
X89320392Y-40180392D01*
X89141068Y-40398899D01*
X89007818Y-40648192D01*
X88925764Y-40918691D01*
X88898057Y-41200000D01*
X88925764Y-41481309D01*
X89007818Y-41751808D01*
X89141068Y-42001101D01*
X89320392Y-42219608D01*
X89538899Y-42398932D01*
X89788192Y-42532182D01*
X90058691Y-42614236D01*
X90133586Y-42621613D01*
X89755199Y-43000000D01*
X76549800Y-43000000D01*
X76015739Y-42465939D01*
X76141101Y-42398932D01*
X76359608Y-42219608D01*
X76538932Y-42001101D01*
X76672182Y-41751808D01*
X76754236Y-41481309D01*
X76781943Y-41200000D01*
X76898057Y-41200000D01*
X76925764Y-41481309D01*
X77007818Y-41751808D01*
X77141068Y-42001101D01*
X77320392Y-42219608D01*
X77538899Y-42398932D01*
X77788192Y-42532182D01*
X78058691Y-42614236D01*
X78269508Y-42635000D01*
X78410492Y-42635000D01*
X78621309Y-42614236D01*
X78891808Y-42532182D01*
X79141101Y-42398932D01*
X79359608Y-42219608D01*
X79538932Y-42001101D01*
X79672182Y-41751808D01*
X79754236Y-41481309D01*
X79781943Y-41200000D01*
X79898057Y-41200000D01*
X79925764Y-41481309D01*
X80007818Y-41751808D01*
X80141068Y-42001101D01*
X80320392Y-42219608D01*
X80538899Y-42398932D01*
X80788192Y-42532182D01*
X81058691Y-42614236D01*
X81269508Y-42635000D01*
X81410492Y-42635000D01*
X81621309Y-42614236D01*
X81891808Y-42532182D01*
X82141101Y-42398932D01*
X82359608Y-42219608D01*
X82538932Y-42001101D01*
X82672182Y-41751808D01*
X82754236Y-41481309D01*
X82781943Y-41200000D01*
X82754236Y-40918691D01*
X82672182Y-40648192D01*
X82538932Y-40398899D01*
X82359608Y-40180392D01*
X82141101Y-40001068D01*
X81891808Y-39867818D01*
X81621309Y-39785764D01*
X81410492Y-39765000D01*
X81269508Y-39765000D01*
X81058691Y-39785764D01*
X80788192Y-39867818D01*
X80538899Y-40001068D01*
X80320392Y-40180392D01*
X80141068Y-40398899D01*
X80007818Y-40648192D01*
X79925764Y-40918691D01*
X79898057Y-41200000D01*
X79781943Y-41200000D01*
X79754236Y-40918691D01*
X79672182Y-40648192D01*
X79538932Y-40398899D01*
X79359608Y-40180392D01*
X79141101Y-40001068D01*
X78891808Y-39867818D01*
X78621309Y-39785764D01*
X78410492Y-39765000D01*
X78269508Y-39765000D01*
X78058691Y-39785764D01*
X77788192Y-39867818D01*
X77538899Y-40001068D01*
X77320392Y-40180392D01*
X77141068Y-40398899D01*
X77007818Y-40648192D01*
X76925764Y-40918691D01*
X76898057Y-41200000D01*
X76781943Y-41200000D01*
X76754236Y-40918691D01*
X76672182Y-40648192D01*
X76538932Y-40398899D01*
X76359608Y-40180392D01*
X76141101Y-40001068D01*
X76066817Y-39961362D01*
X76256292Y-39893603D01*
X76381514Y-39826671D01*
X76453097Y-39582702D01*
X75640000Y-38769605D01*
X74826903Y-39582702D01*
X74898486Y-39826671D01*
X74908389Y-39831357D01*
X74788192Y-39867818D01*
X74538899Y-40001068D01*
X74320392Y-40180392D01*
X74203107Y-40323304D01*
X73871370Y-39991567D01*
X73890130Y-39988787D01*
X74156292Y-39893603D01*
X74281514Y-39826671D01*
X74353097Y-39582702D01*
X73540000Y-38769605D01*
X73525858Y-38783748D01*
X73346253Y-38604143D01*
X73360395Y-38590000D01*
X73346253Y-38575858D01*
X73525858Y-38396253D01*
X73540000Y-38410395D01*
X73554143Y-38396253D01*
X73733748Y-38575858D01*
X73719605Y-38590000D01*
X74336971Y-39207366D01*
X74403329Y-39331514D01*
X74485116Y-39355511D01*
X74532702Y-39403097D01*
X74590000Y-39386285D01*
X74647298Y-39403097D01*
X74694884Y-39355511D01*
X74776671Y-39331514D01*
X74828575Y-39221820D01*
X75460395Y-38590000D01*
X75446253Y-38575858D01*
X75625858Y-38396253D01*
X75640000Y-38410395D01*
X75654143Y-38396253D01*
X75833748Y-38575858D01*
X75819605Y-38590000D01*
X76632702Y-39403097D01*
X76876671Y-39331514D01*
X76997571Y-39076004D01*
X77066300Y-38801816D01*
X77080217Y-38519488D01*
X77038787Y-38239870D01*
X77005691Y-38147325D01*
X77094279Y-38099973D01*
X77210004Y-38005000D01*
X77233807Y-37975996D01*
X79512803Y-35697000D01*
X80630000Y-35697000D01*
X80630000Y-36447000D01*
X80675624Y-36656233D01*
X80761191Y-36852545D01*
X80883413Y-37028391D01*
X81037592Y-37177014D01*
X81217803Y-37292702D01*
X81420999Y-37364408D01*
X81588000Y-37237502D01*
X81588000Y-35697000D01*
X80630000Y-35697000D01*
X79512803Y-35697000D01*
X80404814Y-34804990D01*
X80630000Y-34804990D01*
X80630000Y-35443000D01*
X81588000Y-35443000D01*
X81588000Y-35423000D01*
X81842000Y-35423000D01*
X81842000Y-35443000D01*
X82124369Y-35443000D01*
X82135392Y-35500028D01*
X82206813Y-35675126D01*
X82211730Y-35684323D01*
X82394073Y-35697000D01*
X81842000Y-35697000D01*
X81842000Y-37237502D01*
X82009001Y-37364408D01*
X82212197Y-37292702D01*
X82392408Y-37177014D01*
X82546587Y-37028391D01*
X82668809Y-36852545D01*
X82735225Y-36700170D01*
X82885395Y-36550000D01*
X82871253Y-36535858D01*
X82955829Y-36451281D01*
X82955000Y-36455448D01*
X82955000Y-36644552D01*
X82987361Y-36807244D01*
X82592069Y-37202536D01*
X82599935Y-37315682D01*
X82458899Y-37391068D01*
X82240392Y-37570392D01*
X82061068Y-37788899D01*
X81927818Y-38038192D01*
X81845764Y-38308691D01*
X81818057Y-38590000D01*
X81845764Y-38871309D01*
X81927818Y-39141808D01*
X82061068Y-39391101D01*
X82240392Y-39609608D01*
X82458899Y-39788932D01*
X82708192Y-39922182D01*
X82978691Y-40004236D01*
X83189508Y-40025000D01*
X83330492Y-40025000D01*
X83534184Y-40004938D01*
X83320392Y-40180392D01*
X83141068Y-40398899D01*
X83007818Y-40648192D01*
X82925764Y-40918691D01*
X82898057Y-41200000D01*
X82925764Y-41481309D01*
X83007818Y-41751808D01*
X83141068Y-42001101D01*
X83320392Y-42219608D01*
X83538899Y-42398932D01*
X83788192Y-42532182D01*
X84058691Y-42614236D01*
X84269508Y-42635000D01*
X84410492Y-42635000D01*
X84621309Y-42614236D01*
X84891808Y-42532182D01*
X85141101Y-42398932D01*
X85359608Y-42219608D01*
X85538932Y-42001101D01*
X85672182Y-41751808D01*
X85754236Y-41481309D01*
X85781943Y-41200000D01*
X85898057Y-41200000D01*
X85925764Y-41481309D01*
X86007818Y-41751808D01*
X86141068Y-42001101D01*
X86320392Y-42219608D01*
X86538899Y-42398932D01*
X86788192Y-42532182D01*
X87058691Y-42614236D01*
X87269508Y-42635000D01*
X87410492Y-42635000D01*
X87621309Y-42614236D01*
X87891808Y-42532182D01*
X88141101Y-42398932D01*
X88359608Y-42219608D01*
X88538932Y-42001101D01*
X88672182Y-41751808D01*
X88754236Y-41481309D01*
X88781943Y-41200000D01*
X88754236Y-40918691D01*
X88672182Y-40648192D01*
X88538932Y-40398899D01*
X88359608Y-40180392D01*
X88141101Y-40001068D01*
X87891808Y-39867818D01*
X87621309Y-39785764D01*
X87410492Y-39765000D01*
X87269508Y-39765000D01*
X87058691Y-39785764D01*
X86788192Y-39867818D01*
X86538899Y-40001068D01*
X86320392Y-40180392D01*
X86141068Y-40398899D01*
X86007818Y-40648192D01*
X85925764Y-40918691D01*
X85898057Y-41200000D01*
X85781943Y-41200000D01*
X85754236Y-40918691D01*
X85672182Y-40648192D01*
X85538932Y-40398899D01*
X85359608Y-40180392D01*
X85141101Y-40001068D01*
X84891808Y-39867818D01*
X84621309Y-39785764D01*
X84410492Y-39765000D01*
X84269508Y-39765000D01*
X84065816Y-39785062D01*
X84279608Y-39609608D01*
X84458932Y-39391101D01*
X84480901Y-39350000D01*
X85697297Y-39350000D01*
X85734619Y-39353676D01*
X85771941Y-39350000D01*
X85771952Y-39350000D01*
X85883605Y-39339003D01*
X86026866Y-39295546D01*
X86158895Y-39224974D01*
X86274620Y-39130001D01*
X86298423Y-39100997D01*
X87826004Y-37573417D01*
X87855001Y-37549620D01*
X87913188Y-37478719D01*
X88070448Y-37510000D01*
X88259552Y-37510000D01*
X88445022Y-37473108D01*
X88590420Y-37412882D01*
X88729992Y-37471581D01*
X88915260Y-37509475D01*
X89104361Y-37510497D01*
X89290028Y-37474608D01*
X89465126Y-37403187D01*
X89474323Y-37398270D01*
X89487931Y-37202536D01*
X89092639Y-36807244D01*
X89125000Y-36644552D01*
X89125000Y-36455448D01*
X89124171Y-36451281D01*
X89208748Y-36535858D01*
X89194605Y-36550000D01*
X89344775Y-36700170D01*
X89411191Y-36852545D01*
X89533413Y-37028391D01*
X89687592Y-37177014D01*
X89867803Y-37292702D01*
X90070999Y-37364408D01*
X90238000Y-37237502D01*
X90238000Y-35697000D01*
X90492000Y-35697000D01*
X90492000Y-37237502D01*
X90659001Y-37364408D01*
X90862197Y-37292702D01*
X91042408Y-37177014D01*
X91196587Y-37028391D01*
X91318809Y-36852545D01*
X91404376Y-36656233D01*
X91450000Y-36447000D01*
X91450000Y-35697000D01*
X90492000Y-35697000D01*
X90238000Y-35697000D01*
X89680927Y-35697000D01*
X89863270Y-35684323D01*
X89936581Y-35510008D01*
X89950287Y-35443000D01*
X90238000Y-35443000D01*
X90238000Y-33902498D01*
X90492000Y-33902498D01*
X90492000Y-35443000D01*
X91450000Y-35443000D01*
X91450000Y-34693000D01*
X91404376Y-34483767D01*
X91318809Y-34287455D01*
X91196587Y-34111609D01*
X91042408Y-33962986D01*
X90862197Y-33847298D01*
X90659001Y-33775592D01*
X90492000Y-33902498D01*
X90238000Y-33902498D01*
X90070999Y-33775592D01*
X89867803Y-33847298D01*
X89687592Y-33962986D01*
X89533413Y-34111609D01*
X89411191Y-34287455D01*
X89388087Y-34340462D01*
X89300008Y-34303419D01*
X89114740Y-34265525D01*
X88925639Y-34264503D01*
X88739972Y-34300392D01*
X88587019Y-34362780D01*
X88440022Y-34301892D01*
X88254552Y-34265000D01*
X88065448Y-34265000D01*
X87879978Y-34301892D01*
X87735000Y-34361944D01*
X87590022Y-34301892D01*
X87404552Y-34265000D01*
X87215448Y-34265000D01*
X87029978Y-34301892D01*
X86885000Y-34361944D01*
X86740022Y-34301892D01*
X86554552Y-34265000D01*
X86365448Y-34265000D01*
X86179978Y-34301892D01*
X86035000Y-34361944D01*
X85890022Y-34301892D01*
X85704552Y-34265000D01*
X85515448Y-34265000D01*
X85329978Y-34301892D01*
X85185000Y-34361944D01*
X85040022Y-34301892D01*
X85019643Y-34297838D01*
X84255795Y-33533992D01*
X84231993Y-33504989D01*
X84116268Y-33410016D01*
X83984239Y-33339444D01*
X83840978Y-33295987D01*
X83729325Y-33284990D01*
X83729314Y-33284990D01*
X83691992Y-33281314D01*
X83654670Y-33284990D01*
X82555901Y-33284990D01*
X82668809Y-33122545D01*
X82754376Y-32926233D01*
X82800000Y-32717000D01*
X82800000Y-32317000D01*
X89280000Y-32317000D01*
X89280000Y-32717000D01*
X89325624Y-32926233D01*
X89411191Y-33122545D01*
X89533413Y-33298391D01*
X89687592Y-33447014D01*
X89867803Y-33562702D01*
X90070999Y-33634408D01*
X90238000Y-33507502D01*
X90238000Y-32317000D01*
X90492000Y-32317000D01*
X90492000Y-33507502D01*
X90659001Y-33634408D01*
X90862197Y-33562702D01*
X91042408Y-33447014D01*
X91196587Y-33298391D01*
X91318809Y-33122545D01*
X91404376Y-32926233D01*
X91450000Y-32717000D01*
X91450000Y-32317000D01*
X90492000Y-32317000D01*
X90238000Y-32317000D01*
X89280000Y-32317000D01*
X82800000Y-32317000D01*
X81842000Y-32317000D01*
X81842000Y-32337000D01*
X81588000Y-32337000D01*
X81588000Y-32317000D01*
X80630000Y-32317000D01*
X80630000Y-32717000D01*
X80675624Y-32926233D01*
X80761191Y-33122545D01*
X80874099Y-33284990D01*
X80127334Y-33284990D01*
X80090011Y-33281314D01*
X80052688Y-33284990D01*
X80052679Y-33284990D01*
X79941026Y-33295987D01*
X79797765Y-33339444D01*
X79665735Y-33410016D01*
X79582095Y-33478658D01*
X79550011Y-33504989D01*
X79526213Y-33533987D01*
X79178072Y-33882128D01*
X79178072Y-32840000D01*
X79165812Y-32715518D01*
X79129502Y-32595820D01*
X79070537Y-32485506D01*
X78991185Y-32388815D01*
X78894494Y-32309463D01*
X78784180Y-32250498D01*
X78664482Y-32214188D01*
X78540000Y-32201928D01*
X76940000Y-32201928D01*
X76815518Y-32214188D01*
X76695820Y-32250498D01*
X76585506Y-32309463D01*
X76488815Y-32388815D01*
X76409463Y-32485506D01*
X76350498Y-32595820D01*
X76314188Y-32715518D01*
X76301928Y-32840000D01*
X76301928Y-34440000D01*
X76314188Y-34564482D01*
X76350498Y-34684180D01*
X76409463Y-34794494D01*
X76488815Y-34891185D01*
X76585506Y-34970537D01*
X76695820Y-35029502D01*
X76815518Y-35065812D01*
X76940000Y-35078072D01*
X77982128Y-35078072D01*
X76355202Y-36704999D01*
X67082323Y-36704999D01*
X67045000Y-36701323D01*
X67007677Y-36704999D01*
X67007668Y-36704999D01*
X66896015Y-36715996D01*
X66752754Y-36759453D01*
X66620725Y-36830025D01*
X66505000Y-36924998D01*
X66481197Y-36954002D01*
X66245907Y-37189292D01*
X66201309Y-37175764D01*
X65990492Y-37155000D01*
X65849508Y-37155000D01*
X65638691Y-37175764D01*
X65368192Y-37257818D01*
X65118899Y-37391068D01*
X64900392Y-37570392D01*
X64721068Y-37788899D01*
X64587818Y-38038192D01*
X64505764Y-38308691D01*
X64478057Y-38590000D01*
X63660000Y-38590000D01*
X63660000Y-33274464D01*
X63762463Y-33521831D01*
X63952337Y-33805998D01*
X64194002Y-34047663D01*
X64478169Y-34237537D01*
X64793919Y-34368325D01*
X65129117Y-34435000D01*
X65470883Y-34435000D01*
X65806081Y-34368325D01*
X66121831Y-34237537D01*
X66405998Y-34047663D01*
X66647663Y-33805998D01*
X66758579Y-33640000D01*
X68678057Y-33640000D01*
X68705764Y-33921309D01*
X68787818Y-34191808D01*
X68921068Y-34441101D01*
X69100392Y-34659608D01*
X69318899Y-34838932D01*
X69568192Y-34972182D01*
X69838691Y-35054236D01*
X70049508Y-35075000D01*
X70190492Y-35075000D01*
X70401309Y-35054236D01*
X70671808Y-34972182D01*
X70921101Y-34838932D01*
X71139608Y-34659608D01*
X71318932Y-34441101D01*
X71452182Y-34191808D01*
X71534236Y-33921309D01*
X71561943Y-33640000D01*
X71534236Y-33358691D01*
X71452182Y-33088192D01*
X71318932Y-32838899D01*
X71139608Y-32620392D01*
X70921101Y-32441068D01*
X70671808Y-32307818D01*
X70401309Y-32225764D01*
X70190492Y-32205000D01*
X70049508Y-32205000D01*
X69838691Y-32225764D01*
X69568192Y-32307818D01*
X69318899Y-32441068D01*
X69100392Y-32620392D01*
X68921068Y-32838899D01*
X68787818Y-33088192D01*
X68705764Y-33358691D01*
X68678057Y-33640000D01*
X66758579Y-33640000D01*
X66837537Y-33521831D01*
X66968325Y-33206081D01*
X67035000Y-32870883D01*
X67035000Y-32529117D01*
X66968325Y-32193919D01*
X66837537Y-31878169D01*
X66647663Y-31594002D01*
X66405998Y-31352337D01*
X66121831Y-31162463D01*
X65874464Y-31060000D01*
X80905830Y-31060000D01*
X80883413Y-31081609D01*
G36*
X89208748Y-35210858D02*
G01*
X89194605Y-35225000D01*
X89208748Y-35239143D01*
X89117930Y-35329960D01*
X89120000Y-35319552D01*
X89120000Y-35130448D01*
X89117930Y-35120040D01*
X89208748Y-35210858D01*
X89208748Y-35210858D01*
G37*
X89208748Y-35210858D02*
X89194605Y-35225000D01*
X89208748Y-35239143D01*
X89117930Y-35329960D01*
X89120000Y-35319552D01*
X89120000Y-35130448D01*
X89117930Y-35120040D01*
X89208748Y-35210858D01*
G36*
X82950000Y-35130448D02*
G01*
X82950000Y-35319552D01*
X82950829Y-35323719D01*
X82866253Y-35239143D01*
X82880395Y-35225000D01*
X82866253Y-35210858D01*
X82950829Y-35126281D01*
X82950000Y-35130448D01*
X82950000Y-35130448D01*
G37*
X82950000Y-35130448D02*
X82950000Y-35319552D01*
X82950829Y-35323719D01*
X82866253Y-35239143D01*
X82880395Y-35225000D01*
X82866253Y-35210858D01*
X82950829Y-35126281D01*
X82950000Y-35130448D01*
M02*
