M48
; DRILL file {KiCad (5.1.0)-1} date 10/11/2020 1:47:31 PM
; FORMAT={-:-/ absolute / inch / decimal}
; #@! TF.CreationDate,2020-10-11T13:47:31-04:00
; #@! TF.GenerationSoftware,Kicad,Pcbnew,(5.1.0)-1
; #@! TF.FileFunction,NonPlated,1,2,NPTH
FMAT,2
INCH
T1C0.0670
T2C0.0866
T3C0.1181
T4C0.1570
%
G90
G05
T1
X3.3433Y-2.2835
X4.0126Y-2.2835
X2.674Y-2.2835
X3.074Y-2.2835
X4.0126Y-2.9528
X4.4126Y-2.9528
X3.3433Y-3.622
X3.7433Y-3.622
X4.0126Y-3.622
X4.4126Y-3.622
X2.674Y-2.9528
X3.074Y-2.9528
X3.3433Y-2.9528
X3.7433Y-2.9528
X2.674Y-3.622
X3.074Y-3.622
X3.7433Y-2.2835
X4.4126Y-2.2835
T2
X2.5709Y-3.8465
X2.5709Y-1.2874
X4.5157Y-1.2874
X4.5157Y-3.8465
T3
X3.3933Y-2.1835
X3.6433Y-2.0835
X4.0626Y-2.1835
X4.3126Y-2.0835
X2.724Y-2.1835
X2.974Y-2.0835
X4.0626Y-2.8528
X4.3126Y-2.7528
X3.3933Y-3.522
X3.6433Y-3.422
X4.0626Y-3.522
X4.3126Y-3.422
X2.724Y-2.8528
X2.974Y-2.7528
X3.3933Y-2.8528
X3.6433Y-2.7528
X2.724Y-3.522
X2.974Y-3.422
T4
X3.5433Y-2.2835
X4.2126Y-2.2835
X2.874Y-2.2835
X4.2126Y-2.9528
X3.5433Y-3.622
X4.2126Y-3.622
X2.874Y-2.9528
X3.5433Y-2.9528
X2.874Y-3.622
T0
M30
