G04 #@! TF.GenerationSoftware,KiCad,Pcbnew,(5.1.0)-1*
G04 #@! TF.CreationDate,2020-10-11T13:47:29-04:00*
G04 #@! TF.ProjectId,switch_tester,73776974-6368-45f7-9465-737465722e6b,rev?*
G04 #@! TF.SameCoordinates,Original*
G04 #@! TF.FileFunction,Copper,L2,Bot*
G04 #@! TF.FilePolarity,Positive*
%FSLAX46Y46*%
G04 Gerber Fmt 4.6, Leading zero omitted, Abs format (unit mm)*
G04 Created by KiCad (PCBNEW (5.1.0)-1) date 2020-10-11 13:47:29*
%MOMM*%
%LPD*%
G04 APERTURE LIST*
%ADD10C,0.250000*%
%ADD11C,0.300000*%
%ADD12R,2.550000X2.500000*%
%ADD13C,2.286000*%
%ADD14C,1.800000*%
%ADD15R,1.800000X1.800000*%
%ADD16O,1.600000X1.600000*%
%ADD17C,1.600000*%
%ADD18C,0.650000*%
%ADD19O,0.900000X2.400000*%
%ADD20O,0.900000X1.700000*%
%ADD21R,1.600000X1.600000*%
%ADD22C,0.800000*%
%ADD23C,0.254000*%
G04 APERTURE END LIST*
D10*
X101542857Y-99252380D02*
X101876190Y-98776190D01*
X102114285Y-99252380D02*
X102114285Y-98252380D01*
X101733333Y-98252380D01*
X101638095Y-98300000D01*
X101590476Y-98347619D01*
X101542857Y-98442857D01*
X101542857Y-98585714D01*
X101590476Y-98680952D01*
X101638095Y-98728571D01*
X101733333Y-98776190D01*
X102114285Y-98776190D01*
X101114285Y-98728571D02*
X100780952Y-98728571D01*
X100638095Y-99252380D02*
X101114285Y-99252380D01*
X101114285Y-98252380D01*
X100638095Y-98252380D01*
X100352380Y-98252380D02*
X100019047Y-99252380D01*
X99685714Y-98252380D01*
X98066666Y-99252380D02*
X98638095Y-99252380D01*
X98352380Y-99252380D02*
X98352380Y-98252380D01*
X98447619Y-98395238D01*
X98542857Y-98490476D01*
X98638095Y-98538095D01*
X97638095Y-99157142D02*
X97590476Y-99204761D01*
X97638095Y-99252380D01*
X97685714Y-99204761D01*
X97638095Y-99157142D01*
X97638095Y-99252380D01*
X96638095Y-99252380D02*
X97209523Y-99252380D01*
X96923809Y-99252380D02*
X96923809Y-98252380D01*
X97019047Y-98395238D01*
X97114285Y-98490476D01*
X97209523Y-98538095D01*
D11*
X102328571Y-95378571D02*
X101971428Y-96878571D01*
X101685714Y-95807142D01*
X101400000Y-96878571D01*
X101042857Y-95378571D01*
X100542857Y-96450000D02*
X99828571Y-96450000D01*
X100685714Y-96878571D02*
X100185714Y-95378571D01*
X99685714Y-96878571D01*
X99185714Y-96878571D02*
X99185714Y-95378571D01*
X98471428Y-96878571D02*
X98471428Y-95378571D01*
X97757142Y-96092857D02*
X97257142Y-96092857D01*
X97042857Y-96878571D02*
X97757142Y-96878571D01*
X97757142Y-95378571D01*
X97042857Y-95378571D01*
X95542857Y-96878571D02*
X96042857Y-96164285D01*
X96400000Y-96878571D02*
X96400000Y-95378571D01*
X95828571Y-95378571D01*
X95685714Y-95450000D01*
X95614285Y-95521428D01*
X95542857Y-95664285D01*
X95542857Y-95878571D01*
X95614285Y-96021428D01*
X95685714Y-96092857D01*
X95828571Y-96164285D01*
X96400000Y-96164285D01*
D12*
X99440000Y-89460000D03*
D13*
X110810000Y-94540000D03*
X104460000Y-97080000D03*
D12*
X113290000Y-86920000D03*
X99440000Y-72460000D03*
D13*
X110810000Y-77540000D03*
X104460000Y-80080000D03*
D12*
X113290000Y-69920000D03*
X99440000Y-55460000D03*
D13*
X110810000Y-60540000D03*
X104460000Y-63080000D03*
D12*
X113290000Y-52920000D03*
X82440000Y-89460000D03*
D13*
X93810000Y-94540000D03*
X87460000Y-97080000D03*
D12*
X96290000Y-86920000D03*
X82440000Y-72460000D03*
D13*
X93810000Y-77540000D03*
X87460000Y-80080000D03*
D12*
X96290000Y-69920000D03*
X82440000Y-55460000D03*
D13*
X93810000Y-60540000D03*
X87460000Y-63080000D03*
D12*
X96290000Y-52920000D03*
X65440000Y-89460000D03*
D13*
X76810000Y-94540000D03*
X70460000Y-97080000D03*
D12*
X79290000Y-86920000D03*
X65440000Y-72460000D03*
D13*
X76810000Y-77540000D03*
X70460000Y-80080000D03*
D12*
X79290000Y-69920000D03*
X65440000Y-55460000D03*
D13*
X76810000Y-60540000D03*
X70460000Y-63080000D03*
D12*
X79290000Y-52920000D03*
D14*
X106800000Y-33530000D03*
D15*
X109340000Y-33530000D03*
D16*
X65920000Y-38590000D03*
D17*
X73540000Y-38590000D03*
D16*
X83260000Y-38590000D03*
D17*
X75640000Y-38590000D03*
D18*
X87315000Y-36550000D03*
X89015000Y-36550000D03*
X88165000Y-36550000D03*
X86465000Y-36550000D03*
X85615000Y-36550000D03*
X84765000Y-36550000D03*
X83915000Y-36550000D03*
X83065000Y-36550000D03*
X89015000Y-35225000D03*
X88160000Y-35225000D03*
X87310000Y-35225000D03*
X86460000Y-35225000D03*
X85610000Y-35225000D03*
X84760000Y-35225000D03*
X83910000Y-35225000D03*
X83060000Y-35225000D03*
D19*
X90365000Y-35570000D03*
X81715000Y-35570000D03*
D20*
X90365000Y-32190000D03*
X81715000Y-32190000D03*
D14*
X106800000Y-46530000D03*
D15*
X109340000Y-46530000D03*
D16*
X70120000Y-33640000D03*
D21*
X77740000Y-33640000D03*
D16*
X90340000Y-41200000D03*
D17*
X90340000Y-48820000D03*
D16*
X87340000Y-41200000D03*
D17*
X87340000Y-48820000D03*
D16*
X84340000Y-41200000D03*
D17*
X84340000Y-48820000D03*
D16*
X81340000Y-41200000D03*
D17*
X81340000Y-48820000D03*
D16*
X78340000Y-41200000D03*
D17*
X78340000Y-48820000D03*
D16*
X75340000Y-41200000D03*
D17*
X75340000Y-48820000D03*
D16*
X72340000Y-41200000D03*
D17*
X72340000Y-48820000D03*
D16*
X69340000Y-41200000D03*
D17*
X69340000Y-48820000D03*
D16*
X66340000Y-41200000D03*
D17*
X66340000Y-48820000D03*
D14*
X106800000Y-40030000D03*
D15*
X109340000Y-40030000D03*
D14*
X100300000Y-46530000D03*
D15*
X102840000Y-46530000D03*
D14*
X100300000Y-40030000D03*
D15*
X102840000Y-40030000D03*
D14*
X100300000Y-33530000D03*
D15*
X102840000Y-33530000D03*
D14*
X93800000Y-46530000D03*
D15*
X96340000Y-46530000D03*
D14*
X93800000Y-40030000D03*
D15*
X96340000Y-40030000D03*
D14*
X93800000Y-33530000D03*
D15*
X96340000Y-33530000D03*
D22*
X98440000Y-45190000D03*
X98440000Y-44189997D03*
X106835000Y-43095000D03*
X104740000Y-38040000D03*
D10*
X80664998Y-45190000D02*
X98440000Y-45190000D01*
X75340000Y-41200000D02*
X79330000Y-45190000D01*
X79330000Y-45190000D02*
X80664998Y-45190000D01*
X98433604Y-44196393D02*
X98440000Y-44189997D01*
X78340000Y-41200000D02*
X81336393Y-44196393D01*
X81336393Y-44196393D02*
X98433604Y-44196393D01*
X100300000Y-45257208D02*
X100300000Y-46530000D01*
X100300000Y-44976995D02*
X100300000Y-45257208D01*
X98788001Y-43464996D02*
X100300000Y-44976995D01*
X83604996Y-43464996D02*
X98788001Y-43464996D01*
X81340000Y-41200000D02*
X83604996Y-43464996D01*
X84340000Y-41200000D02*
X86154986Y-43014986D01*
X86154986Y-43014986D02*
X99015014Y-43014986D01*
X106754986Y-43014986D02*
X106835000Y-43095000D01*
X99015014Y-43014986D02*
X106754986Y-43014986D01*
X105900001Y-40929999D02*
X106800000Y-40030000D01*
X104265024Y-42564976D02*
X105900001Y-40929999D01*
X88704976Y-42564976D02*
X104265024Y-42564976D01*
X87340000Y-41200000D02*
X88704976Y-42564976D01*
X90340000Y-41200000D02*
X93500000Y-38040000D01*
X93500000Y-38040000D02*
X104740000Y-38040000D01*
X65440000Y-56960000D02*
X65440000Y-55460000D01*
X65440000Y-57260334D02*
X65440000Y-56960000D01*
X68719666Y-60540000D02*
X65440000Y-57260334D01*
X76810000Y-60540000D02*
X68719666Y-60540000D01*
X65440000Y-73960000D02*
X65440000Y-72460000D01*
X65440000Y-74260334D02*
X65440000Y-73960000D01*
X68719666Y-77540000D02*
X65440000Y-74260334D01*
X76810000Y-77540000D02*
X68719666Y-77540000D01*
X65440000Y-90960000D02*
X65440000Y-89460000D01*
X65440000Y-91260334D02*
X65440000Y-90960000D01*
X68719666Y-94540000D02*
X65440000Y-91260334D01*
X76810000Y-94540000D02*
X68719666Y-94540000D01*
X82440000Y-56960000D02*
X82440000Y-55460000D01*
X82440000Y-57260334D02*
X82440000Y-56960000D01*
X85498567Y-60318901D02*
X82440000Y-57260334D01*
X93588901Y-60318901D02*
X85498567Y-60318901D01*
X93810000Y-60540000D02*
X93588901Y-60318901D01*
X82440000Y-73960000D02*
X82440000Y-72460000D01*
X82440000Y-74260334D02*
X82440000Y-73960000D01*
X85498567Y-77318901D02*
X82440000Y-74260334D01*
X93588901Y-77318901D02*
X85498567Y-77318901D01*
X93810000Y-77540000D02*
X93588901Y-77318901D01*
X82440000Y-90960000D02*
X82440000Y-89460000D01*
X82440000Y-91260334D02*
X82440000Y-90960000D01*
X85719666Y-94540000D02*
X82440000Y-91260334D01*
X93810000Y-94540000D02*
X85719666Y-94540000D01*
X99440000Y-56960000D02*
X99440000Y-55460000D01*
X99440000Y-57260334D02*
X99440000Y-56960000D01*
X102719666Y-60540000D02*
X99440000Y-57260334D01*
X110810000Y-60540000D02*
X102719666Y-60540000D01*
X99440000Y-73960000D02*
X99440000Y-72460000D01*
X99440000Y-74260334D02*
X99440000Y-73960000D01*
X102498567Y-77318901D02*
X99440000Y-74260334D01*
X110588901Y-77318901D02*
X102498567Y-77318901D01*
X110810000Y-77540000D02*
X110588901Y-77318901D01*
X99440000Y-90960000D02*
X99440000Y-89460000D01*
X99440000Y-91260334D02*
X99440000Y-90960000D01*
X102719666Y-94540000D02*
X99440000Y-91260334D01*
X110810000Y-94540000D02*
X102719666Y-94540000D01*
X83910000Y-36545000D02*
X83915000Y-36550000D01*
X83910000Y-35225000D02*
X83910000Y-36545000D01*
X88160000Y-36545000D02*
X88165000Y-36550000D01*
X88160000Y-35225000D02*
X88160000Y-36545000D01*
X83915000Y-37009619D02*
X83915000Y-36550000D01*
X83724618Y-37200001D02*
X83915000Y-37009619D01*
X80250001Y-37200001D02*
X83724618Y-37200001D01*
X77740000Y-34690000D02*
X80250001Y-37200001D01*
X77740000Y-33640000D02*
X77740000Y-34690000D01*
X88160000Y-34765381D02*
X88160000Y-35225000D01*
X87969618Y-34574999D02*
X88160000Y-34765381D01*
X84447999Y-34574999D02*
X87969618Y-34574999D01*
X83910000Y-35112998D02*
X84447999Y-34574999D01*
X83910000Y-35225000D02*
X83910000Y-35112998D01*
X82060000Y-35225000D02*
X81715000Y-35570000D01*
X83060000Y-35225000D02*
X82060000Y-35225000D01*
X82085000Y-35570000D02*
X83065000Y-36550000D01*
X81715000Y-35570000D02*
X82085000Y-35570000D01*
X90020000Y-35225000D02*
X90365000Y-35570000D01*
X89015000Y-35225000D02*
X90020000Y-35225000D01*
X89995000Y-35570000D02*
X89015000Y-36550000D01*
X90365000Y-35570000D02*
X89995000Y-35570000D01*
X89015000Y-36550000D02*
X89015000Y-35225000D01*
D23*
G36*
X80808492Y-31184290D02*
G01*
X80707742Y-31372780D01*
X80645700Y-31577303D01*
X80630000Y-31736706D01*
X80630000Y-32643293D01*
X80645700Y-32802696D01*
X80707741Y-33007219D01*
X80808491Y-33195710D01*
X80944078Y-33360922D01*
X81109290Y-33496509D01*
X81297780Y-33597259D01*
X81502303Y-33659300D01*
X81715000Y-33680249D01*
X81927696Y-33659300D01*
X82132219Y-33597259D01*
X82320710Y-33496509D01*
X82485922Y-33360922D01*
X82621509Y-33195710D01*
X82722259Y-33007220D01*
X82784300Y-32802697D01*
X82800000Y-32643294D01*
X82800000Y-31736707D01*
X82784300Y-31577304D01*
X82722259Y-31372780D01*
X82621509Y-31184290D01*
X82519506Y-31060000D01*
X89560495Y-31060000D01*
X89458492Y-31184290D01*
X89357742Y-31372780D01*
X89295700Y-31577303D01*
X89280000Y-31736706D01*
X89280000Y-32643293D01*
X89295700Y-32802696D01*
X89357741Y-33007219D01*
X89458491Y-33195710D01*
X89594078Y-33360922D01*
X89759290Y-33496509D01*
X89947780Y-33597259D01*
X90152303Y-33659300D01*
X90365000Y-33680249D01*
X90577696Y-33659300D01*
X90782219Y-33597259D01*
X90970710Y-33496509D01*
X91114118Y-33378816D01*
X92265000Y-33378816D01*
X92265000Y-33681184D01*
X92323989Y-33977743D01*
X92439701Y-34257095D01*
X92607688Y-34508505D01*
X92821495Y-34722312D01*
X93072905Y-34890299D01*
X93352257Y-35006011D01*
X93648816Y-35065000D01*
X93951184Y-35065000D01*
X94247743Y-35006011D01*
X94527095Y-34890299D01*
X94778505Y-34722312D01*
X94844944Y-34655873D01*
X94850498Y-34674180D01*
X94909463Y-34784494D01*
X94988815Y-34881185D01*
X95085506Y-34960537D01*
X95195820Y-35019502D01*
X95315518Y-35055812D01*
X95440000Y-35068072D01*
X97240000Y-35068072D01*
X97364482Y-35055812D01*
X97484180Y-35019502D01*
X97594494Y-34960537D01*
X97691185Y-34881185D01*
X97770537Y-34784494D01*
X97829502Y-34674180D01*
X97865812Y-34554482D01*
X97878072Y-34430000D01*
X97878072Y-33378816D01*
X98765000Y-33378816D01*
X98765000Y-33681184D01*
X98823989Y-33977743D01*
X98939701Y-34257095D01*
X99107688Y-34508505D01*
X99321495Y-34722312D01*
X99572905Y-34890299D01*
X99852257Y-35006011D01*
X100148816Y-35065000D01*
X100451184Y-35065000D01*
X100747743Y-35006011D01*
X101027095Y-34890299D01*
X101278505Y-34722312D01*
X101344944Y-34655873D01*
X101350498Y-34674180D01*
X101409463Y-34784494D01*
X101488815Y-34881185D01*
X101585506Y-34960537D01*
X101695820Y-35019502D01*
X101815518Y-35055812D01*
X101940000Y-35068072D01*
X103740000Y-35068072D01*
X103864482Y-35055812D01*
X103984180Y-35019502D01*
X104094494Y-34960537D01*
X104191185Y-34881185D01*
X104270537Y-34784494D01*
X104329502Y-34674180D01*
X104365812Y-34554482D01*
X104378072Y-34430000D01*
X104378072Y-33378816D01*
X105265000Y-33378816D01*
X105265000Y-33681184D01*
X105323989Y-33977743D01*
X105439701Y-34257095D01*
X105607688Y-34508505D01*
X105821495Y-34722312D01*
X106072905Y-34890299D01*
X106352257Y-35006011D01*
X106648816Y-35065000D01*
X106951184Y-35065000D01*
X107247743Y-35006011D01*
X107527095Y-34890299D01*
X107778505Y-34722312D01*
X107844944Y-34655873D01*
X107850498Y-34674180D01*
X107909463Y-34784494D01*
X107988815Y-34881185D01*
X108085506Y-34960537D01*
X108195820Y-35019502D01*
X108315518Y-35055812D01*
X108440000Y-35068072D01*
X110240000Y-35068072D01*
X110364482Y-35055812D01*
X110484180Y-35019502D01*
X110594494Y-34960537D01*
X110691185Y-34881185D01*
X110770537Y-34784494D01*
X110829502Y-34674180D01*
X110865812Y-34554482D01*
X110878072Y-34430000D01*
X110878072Y-32630000D01*
X110865812Y-32505518D01*
X110829502Y-32385820D01*
X110770537Y-32275506D01*
X110691185Y-32178815D01*
X110594494Y-32099463D01*
X110484180Y-32040498D01*
X110364482Y-32004188D01*
X110240000Y-31991928D01*
X108440000Y-31991928D01*
X108315518Y-32004188D01*
X108195820Y-32040498D01*
X108085506Y-32099463D01*
X107988815Y-32178815D01*
X107909463Y-32275506D01*
X107850498Y-32385820D01*
X107844944Y-32404127D01*
X107778505Y-32337688D01*
X107527095Y-32169701D01*
X107247743Y-32053989D01*
X106951184Y-31995000D01*
X106648816Y-31995000D01*
X106352257Y-32053989D01*
X106072905Y-32169701D01*
X105821495Y-32337688D01*
X105607688Y-32551495D01*
X105439701Y-32802905D01*
X105323989Y-33082257D01*
X105265000Y-33378816D01*
X104378072Y-33378816D01*
X104378072Y-32630000D01*
X104365812Y-32505518D01*
X104329502Y-32385820D01*
X104270537Y-32275506D01*
X104191185Y-32178815D01*
X104094494Y-32099463D01*
X103984180Y-32040498D01*
X103864482Y-32004188D01*
X103740000Y-31991928D01*
X101940000Y-31991928D01*
X101815518Y-32004188D01*
X101695820Y-32040498D01*
X101585506Y-32099463D01*
X101488815Y-32178815D01*
X101409463Y-32275506D01*
X101350498Y-32385820D01*
X101344944Y-32404127D01*
X101278505Y-32337688D01*
X101027095Y-32169701D01*
X100747743Y-32053989D01*
X100451184Y-31995000D01*
X100148816Y-31995000D01*
X99852257Y-32053989D01*
X99572905Y-32169701D01*
X99321495Y-32337688D01*
X99107688Y-32551495D01*
X98939701Y-32802905D01*
X98823989Y-33082257D01*
X98765000Y-33378816D01*
X97878072Y-33378816D01*
X97878072Y-32630000D01*
X97865812Y-32505518D01*
X97829502Y-32385820D01*
X97770537Y-32275506D01*
X97691185Y-32178815D01*
X97594494Y-32099463D01*
X97484180Y-32040498D01*
X97364482Y-32004188D01*
X97240000Y-31991928D01*
X95440000Y-31991928D01*
X95315518Y-32004188D01*
X95195820Y-32040498D01*
X95085506Y-32099463D01*
X94988815Y-32178815D01*
X94909463Y-32275506D01*
X94850498Y-32385820D01*
X94844944Y-32404127D01*
X94778505Y-32337688D01*
X94527095Y-32169701D01*
X94247743Y-32053989D01*
X93951184Y-31995000D01*
X93648816Y-31995000D01*
X93352257Y-32053989D01*
X93072905Y-32169701D01*
X92821495Y-32337688D01*
X92607688Y-32551495D01*
X92439701Y-32802905D01*
X92323989Y-33082257D01*
X92265000Y-33378816D01*
X91114118Y-33378816D01*
X91135922Y-33360922D01*
X91271509Y-33195710D01*
X91372259Y-33007220D01*
X91434300Y-32802697D01*
X91450000Y-32643294D01*
X91450000Y-31736707D01*
X91434300Y-31577304D01*
X91372259Y-31372780D01*
X91271509Y-31184290D01*
X91169506Y-31060000D01*
X114125536Y-31060000D01*
X113878169Y-31162463D01*
X113594002Y-31352337D01*
X113352337Y-31594002D01*
X113162463Y-31878169D01*
X113031675Y-32193919D01*
X112965000Y-32529117D01*
X112965000Y-32870883D01*
X113031675Y-33206081D01*
X113162463Y-33521831D01*
X113352337Y-33805998D01*
X113594002Y-34047663D01*
X113878169Y-34237537D01*
X114193919Y-34368325D01*
X114529117Y-34435000D01*
X114870883Y-34435000D01*
X115206081Y-34368325D01*
X115521831Y-34237537D01*
X115805998Y-34047663D01*
X116047663Y-33805998D01*
X116237537Y-33521831D01*
X116340000Y-33274464D01*
X116340001Y-97125539D01*
X116237537Y-96878169D01*
X116047663Y-96594002D01*
X115805998Y-96352337D01*
X115521831Y-96162463D01*
X115206081Y-96031675D01*
X114870883Y-95965000D01*
X114529117Y-95965000D01*
X114193919Y-96031675D01*
X113878169Y-96162463D01*
X113594002Y-96352337D01*
X113352337Y-96594002D01*
X113162463Y-96878169D01*
X113031675Y-97193919D01*
X112965000Y-97529117D01*
X112965000Y-97870883D01*
X113031675Y-98206081D01*
X113162463Y-98521831D01*
X113352337Y-98805998D01*
X113594002Y-99047663D01*
X113878169Y-99237537D01*
X114125536Y-99340000D01*
X103112381Y-99340000D01*
X103112381Y-98317360D01*
X103402245Y-98317360D01*
X103515264Y-98596384D01*
X103829249Y-98751556D01*
X104167473Y-98842491D01*
X104516938Y-98865694D01*
X104864216Y-98820275D01*
X105195960Y-98707977D01*
X105404736Y-98596384D01*
X105517755Y-98317360D01*
X104460000Y-97259605D01*
X103402245Y-98317360D01*
X103112381Y-98317360D01*
X103112381Y-98230000D01*
X103327857Y-98230000D01*
X103327857Y-98032538D01*
X104280395Y-97080000D01*
X104639605Y-97080000D01*
X105697360Y-98137755D01*
X105976384Y-98024736D01*
X106131556Y-97710751D01*
X106222491Y-97372527D01*
X106245694Y-97023062D01*
X106200275Y-96675784D01*
X106087977Y-96344040D01*
X105976384Y-96135264D01*
X105697360Y-96022245D01*
X104639605Y-97080000D01*
X104280395Y-97080000D01*
X104266253Y-97065858D01*
X104445858Y-96886253D01*
X104460000Y-96900395D01*
X105517755Y-95842640D01*
X105404736Y-95563616D01*
X105090751Y-95408444D01*
X104752527Y-95317509D01*
X104488820Y-95300000D01*
X109200309Y-95300000D01*
X109234357Y-95382199D01*
X109428937Y-95673409D01*
X109676591Y-95921063D01*
X109967801Y-96115643D01*
X110291377Y-96249672D01*
X110634882Y-96318000D01*
X110985118Y-96318000D01*
X111328623Y-96249672D01*
X111652199Y-96115643D01*
X111943409Y-95921063D01*
X112191063Y-95673409D01*
X112385643Y-95382199D01*
X112519672Y-95058623D01*
X112588000Y-94715118D01*
X112588000Y-94364882D01*
X112519672Y-94021377D01*
X112385643Y-93697801D01*
X112241978Y-93482791D01*
X112513421Y-93428798D01*
X112783838Y-93316788D01*
X113027206Y-93154174D01*
X113234174Y-92947206D01*
X113396788Y-92703838D01*
X113508798Y-92433421D01*
X113565900Y-92146348D01*
X113565900Y-91853652D01*
X113508798Y-91566579D01*
X113396788Y-91296162D01*
X113234174Y-91052794D01*
X113027206Y-90845826D01*
X112783838Y-90683212D01*
X112513421Y-90571202D01*
X112226348Y-90514100D01*
X111933652Y-90514100D01*
X111646579Y-90571202D01*
X111376162Y-90683212D01*
X111132794Y-90845826D01*
X110925826Y-91052794D01*
X110763212Y-91296162D01*
X110651202Y-91566579D01*
X110594100Y-91853652D01*
X110594100Y-92146348D01*
X110651202Y-92433421D01*
X110763212Y-92703838D01*
X110802075Y-92762000D01*
X110634882Y-92762000D01*
X110291377Y-92830328D01*
X109967801Y-92964357D01*
X109676591Y-93158937D01*
X109428937Y-93406591D01*
X109234357Y-93697801D01*
X109200309Y-93780000D01*
X108937826Y-93780000D01*
X109042000Y-93675826D01*
X109329701Y-93245251D01*
X109527873Y-92766822D01*
X109628900Y-92258924D01*
X109628900Y-91741076D01*
X109527873Y-91233178D01*
X109329701Y-90754749D01*
X109042000Y-90324174D01*
X108675826Y-89958000D01*
X108245251Y-89670299D01*
X107766822Y-89472127D01*
X107258924Y-89371100D01*
X106741076Y-89371100D01*
X106233178Y-89472127D01*
X105754749Y-89670299D01*
X105324174Y-89958000D01*
X105253763Y-90028411D01*
X105325000Y-89670279D01*
X105325000Y-89249721D01*
X105242953Y-88837244D01*
X105082012Y-88448698D01*
X104848363Y-88099017D01*
X104550983Y-87801637D01*
X104201302Y-87567988D01*
X103812756Y-87407047D01*
X103400279Y-87325000D01*
X102979721Y-87325000D01*
X102567244Y-87407047D01*
X102178698Y-87567988D01*
X101829017Y-87801637D01*
X101531637Y-88099017D01*
X101353072Y-88366259D01*
X101353072Y-88210000D01*
X101340812Y-88085518D01*
X101304502Y-87965820D01*
X101245537Y-87855506D01*
X101166185Y-87758815D01*
X101069494Y-87679463D01*
X100959180Y-87620498D01*
X100839482Y-87584188D01*
X100715000Y-87571928D01*
X98201167Y-87571928D01*
X98200000Y-87205750D01*
X98041250Y-87047000D01*
X96417000Y-87047000D01*
X96417000Y-88646250D01*
X96575750Y-88805000D01*
X97526928Y-88807954D01*
X97526928Y-90710000D01*
X97539188Y-90834482D01*
X97575498Y-90954180D01*
X97634463Y-91064494D01*
X97713815Y-91161185D01*
X97810506Y-91240537D01*
X97920820Y-91299502D01*
X98040518Y-91335812D01*
X98165000Y-91348072D01*
X98684965Y-91348072D01*
X98690997Y-91409319D01*
X98734454Y-91552580D01*
X98805026Y-91684610D01*
X98825045Y-91709003D01*
X98899999Y-91800335D01*
X98929003Y-91824138D01*
X101514864Y-94410000D01*
X95588000Y-94410000D01*
X95588000Y-94364882D01*
X95519672Y-94021377D01*
X95385643Y-93697801D01*
X95241978Y-93482791D01*
X95513421Y-93428798D01*
X95783838Y-93316788D01*
X96027206Y-93154174D01*
X96234174Y-92947206D01*
X96396788Y-92703838D01*
X96508798Y-92433421D01*
X96565900Y-92146348D01*
X96565900Y-91853652D01*
X96508798Y-91566579D01*
X96396788Y-91296162D01*
X96234174Y-91052794D01*
X96027206Y-90845826D01*
X95783838Y-90683212D01*
X95513421Y-90571202D01*
X95226348Y-90514100D01*
X94933652Y-90514100D01*
X94646579Y-90571202D01*
X94376162Y-90683212D01*
X94132794Y-90845826D01*
X93925826Y-91052794D01*
X93763212Y-91296162D01*
X93651202Y-91566579D01*
X93594100Y-91853652D01*
X93594100Y-92146348D01*
X93651202Y-92433421D01*
X93763212Y-92703838D01*
X93802075Y-92762000D01*
X93634882Y-92762000D01*
X93291377Y-92830328D01*
X92967801Y-92964357D01*
X92676591Y-93158937D01*
X92428937Y-93406591D01*
X92234357Y-93697801D01*
X92200309Y-93780000D01*
X91937826Y-93780000D01*
X92042000Y-93675826D01*
X92329701Y-93245251D01*
X92527873Y-92766822D01*
X92628900Y-92258924D01*
X92628900Y-91741076D01*
X92527873Y-91233178D01*
X92329701Y-90754749D01*
X92042000Y-90324174D01*
X91675826Y-89958000D01*
X91245251Y-89670299D01*
X90766822Y-89472127D01*
X90258924Y-89371100D01*
X89741076Y-89371100D01*
X89233178Y-89472127D01*
X88754749Y-89670299D01*
X88324174Y-89958000D01*
X88253763Y-90028411D01*
X88325000Y-89670279D01*
X88325000Y-89249721D01*
X88242953Y-88837244D01*
X88082012Y-88448698D01*
X87848363Y-88099017D01*
X87550983Y-87801637D01*
X87201302Y-87567988D01*
X86812756Y-87407047D01*
X86400279Y-87325000D01*
X85979721Y-87325000D01*
X85567244Y-87407047D01*
X85178698Y-87567988D01*
X84829017Y-87801637D01*
X84531637Y-88099017D01*
X84353072Y-88366259D01*
X84353072Y-88210000D01*
X84340812Y-88085518D01*
X84304502Y-87965820D01*
X84245537Y-87855506D01*
X84166185Y-87758815D01*
X84069494Y-87679463D01*
X83959180Y-87620498D01*
X83839482Y-87584188D01*
X83715000Y-87571928D01*
X81201167Y-87571928D01*
X81200000Y-87205750D01*
X81041250Y-87047000D01*
X79417000Y-87047000D01*
X79417000Y-88646250D01*
X79575750Y-88805000D01*
X80526928Y-88807954D01*
X80526928Y-90710000D01*
X80539188Y-90834482D01*
X80575498Y-90954180D01*
X80634463Y-91064494D01*
X80713815Y-91161185D01*
X80810506Y-91240537D01*
X80920820Y-91299502D01*
X81040518Y-91335812D01*
X81165000Y-91348072D01*
X81684965Y-91348072D01*
X81690997Y-91409319D01*
X81734454Y-91552580D01*
X81805026Y-91684610D01*
X81825045Y-91709003D01*
X81899999Y-91800335D01*
X81929003Y-91824138D01*
X85155867Y-95051003D01*
X85179665Y-95080001D01*
X85208663Y-95103799D01*
X85295389Y-95174974D01*
X85427419Y-95245546D01*
X85570680Y-95289003D01*
X85682333Y-95300000D01*
X85682342Y-95300000D01*
X85719665Y-95303676D01*
X85756988Y-95300000D01*
X87359525Y-95300000D01*
X87055784Y-95339725D01*
X86724040Y-95452023D01*
X86515264Y-95563616D01*
X86402245Y-95842640D01*
X87460000Y-96900395D01*
X88517755Y-95842640D01*
X88404736Y-95563616D01*
X88090751Y-95408444D01*
X87752527Y-95317509D01*
X87488820Y-95300000D01*
X92200309Y-95300000D01*
X92234357Y-95382199D01*
X92428937Y-95673409D01*
X92676591Y-95921063D01*
X92967801Y-96115643D01*
X93291377Y-96249672D01*
X93634882Y-96318000D01*
X93985118Y-96318000D01*
X94328623Y-96249672D01*
X94472143Y-96190224D01*
X94472143Y-98230000D01*
X95687619Y-98230000D01*
X95687619Y-99340000D01*
X65874464Y-99340000D01*
X66121831Y-99237537D01*
X66405998Y-99047663D01*
X66647663Y-98805998D01*
X66837537Y-98521831D01*
X66922231Y-98317360D01*
X69402245Y-98317360D01*
X69515264Y-98596384D01*
X69829249Y-98751556D01*
X70167473Y-98842491D01*
X70516938Y-98865694D01*
X70864216Y-98820275D01*
X71195960Y-98707977D01*
X71404736Y-98596384D01*
X71517755Y-98317360D01*
X86402245Y-98317360D01*
X86515264Y-98596384D01*
X86829249Y-98751556D01*
X87167473Y-98842491D01*
X87516938Y-98865694D01*
X87864216Y-98820275D01*
X88195960Y-98707977D01*
X88404736Y-98596384D01*
X88517755Y-98317360D01*
X87460000Y-97259605D01*
X86402245Y-98317360D01*
X71517755Y-98317360D01*
X70460000Y-97259605D01*
X69402245Y-98317360D01*
X66922231Y-98317360D01*
X66968325Y-98206081D01*
X67035000Y-97870883D01*
X67035000Y-97529117D01*
X66968325Y-97193919D01*
X66944723Y-97136938D01*
X68674306Y-97136938D01*
X68719725Y-97484216D01*
X68832023Y-97815960D01*
X68943616Y-98024736D01*
X69222640Y-98137755D01*
X70280395Y-97080000D01*
X70639605Y-97080000D01*
X71697360Y-98137755D01*
X71976384Y-98024736D01*
X72131556Y-97710751D01*
X72222491Y-97372527D01*
X72238133Y-97136938D01*
X85674306Y-97136938D01*
X85719725Y-97484216D01*
X85832023Y-97815960D01*
X85943616Y-98024736D01*
X86222640Y-98137755D01*
X87280395Y-97080000D01*
X87639605Y-97080000D01*
X88697360Y-98137755D01*
X88976384Y-98024736D01*
X89131556Y-97710751D01*
X89222491Y-97372527D01*
X89245694Y-97023062D01*
X89200275Y-96675784D01*
X89087977Y-96344040D01*
X88976384Y-96135264D01*
X88697360Y-96022245D01*
X87639605Y-97080000D01*
X87280395Y-97080000D01*
X86222640Y-96022245D01*
X85943616Y-96135264D01*
X85788444Y-96449249D01*
X85697509Y-96787473D01*
X85674306Y-97136938D01*
X72238133Y-97136938D01*
X72245694Y-97023062D01*
X72200275Y-96675784D01*
X72087977Y-96344040D01*
X71976384Y-96135264D01*
X71697360Y-96022245D01*
X70639605Y-97080000D01*
X70280395Y-97080000D01*
X69222640Y-96022245D01*
X68943616Y-96135264D01*
X68788444Y-96449249D01*
X68697509Y-96787473D01*
X68674306Y-97136938D01*
X66944723Y-97136938D01*
X66837537Y-96878169D01*
X66647663Y-96594002D01*
X66405998Y-96352337D01*
X66121831Y-96162463D01*
X65806081Y-96031675D01*
X65470883Y-95965000D01*
X65129117Y-95965000D01*
X64793919Y-96031675D01*
X64478169Y-96162463D01*
X64194002Y-96352337D01*
X63952337Y-96594002D01*
X63762463Y-96878169D01*
X63660000Y-97125536D01*
X63660000Y-91095611D01*
X63713815Y-91161185D01*
X63810506Y-91240537D01*
X63920820Y-91299502D01*
X64040518Y-91335812D01*
X64165000Y-91348072D01*
X64684965Y-91348072D01*
X64690997Y-91409319D01*
X64734454Y-91552580D01*
X64805026Y-91684610D01*
X64825045Y-91709003D01*
X64899999Y-91800335D01*
X64929003Y-91824138D01*
X68155867Y-95051003D01*
X68179665Y-95080001D01*
X68208663Y-95103799D01*
X68295389Y-95174974D01*
X68427419Y-95245546D01*
X68570680Y-95289003D01*
X68682333Y-95300000D01*
X68682342Y-95300000D01*
X68719665Y-95303676D01*
X68756988Y-95300000D01*
X70359525Y-95300000D01*
X70055784Y-95339725D01*
X69724040Y-95452023D01*
X69515264Y-95563616D01*
X69402245Y-95842640D01*
X70460000Y-96900395D01*
X71517755Y-95842640D01*
X71404736Y-95563616D01*
X71090751Y-95408444D01*
X70752527Y-95317509D01*
X70488820Y-95300000D01*
X75200309Y-95300000D01*
X75234357Y-95382199D01*
X75428937Y-95673409D01*
X75676591Y-95921063D01*
X75967801Y-96115643D01*
X76291377Y-96249672D01*
X76634882Y-96318000D01*
X76985118Y-96318000D01*
X77328623Y-96249672D01*
X77652199Y-96115643D01*
X77943409Y-95921063D01*
X78191063Y-95673409D01*
X78385643Y-95382199D01*
X78519672Y-95058623D01*
X78588000Y-94715118D01*
X78588000Y-94364882D01*
X78519672Y-94021377D01*
X78385643Y-93697801D01*
X78241978Y-93482791D01*
X78513421Y-93428798D01*
X78783838Y-93316788D01*
X79027206Y-93154174D01*
X79234174Y-92947206D01*
X79396788Y-92703838D01*
X79508798Y-92433421D01*
X79565900Y-92146348D01*
X79565900Y-91853652D01*
X79508798Y-91566579D01*
X79396788Y-91296162D01*
X79234174Y-91052794D01*
X79027206Y-90845826D01*
X78783838Y-90683212D01*
X78513421Y-90571202D01*
X78226348Y-90514100D01*
X77933652Y-90514100D01*
X77646579Y-90571202D01*
X77376162Y-90683212D01*
X77132794Y-90845826D01*
X76925826Y-91052794D01*
X76763212Y-91296162D01*
X76651202Y-91566579D01*
X76594100Y-91853652D01*
X76594100Y-92146348D01*
X76651202Y-92433421D01*
X76763212Y-92703838D01*
X76802075Y-92762000D01*
X76634882Y-92762000D01*
X76291377Y-92830328D01*
X75967801Y-92964357D01*
X75676591Y-93158937D01*
X75428937Y-93406591D01*
X75234357Y-93697801D01*
X75200309Y-93780000D01*
X74937826Y-93780000D01*
X75042000Y-93675826D01*
X75329701Y-93245251D01*
X75527873Y-92766822D01*
X75628900Y-92258924D01*
X75628900Y-91741076D01*
X75527873Y-91233178D01*
X75329701Y-90754749D01*
X75042000Y-90324174D01*
X74675826Y-89958000D01*
X74245251Y-89670299D01*
X73766822Y-89472127D01*
X73258924Y-89371100D01*
X72741076Y-89371100D01*
X72233178Y-89472127D01*
X71754749Y-89670299D01*
X71324174Y-89958000D01*
X71253763Y-90028411D01*
X71325000Y-89670279D01*
X71325000Y-89249721D01*
X71242953Y-88837244D01*
X71082012Y-88448698D01*
X70848363Y-88099017D01*
X70550983Y-87801637D01*
X70201302Y-87567988D01*
X69812756Y-87407047D01*
X69400279Y-87325000D01*
X68979721Y-87325000D01*
X68567244Y-87407047D01*
X68178698Y-87567988D01*
X67829017Y-87801637D01*
X67531637Y-88099017D01*
X67353072Y-88366259D01*
X67353072Y-88210000D01*
X67340812Y-88085518D01*
X67304502Y-87965820D01*
X67245537Y-87855506D01*
X67166185Y-87758815D01*
X67069494Y-87679463D01*
X66959180Y-87620498D01*
X66839482Y-87584188D01*
X66715000Y-87571928D01*
X64165000Y-87571928D01*
X64040518Y-87584188D01*
X63920820Y-87620498D01*
X63810506Y-87679463D01*
X63713815Y-87758815D01*
X63660000Y-87824389D01*
X63660000Y-86709721D01*
X73405000Y-86709721D01*
X73405000Y-87130279D01*
X73487047Y-87542756D01*
X73647988Y-87931302D01*
X73881637Y-88280983D01*
X74179017Y-88578363D01*
X74528698Y-88812012D01*
X74917244Y-88972953D01*
X75329721Y-89055000D01*
X75750279Y-89055000D01*
X76162756Y-88972953D01*
X76551302Y-88812012D01*
X76900983Y-88578363D01*
X77198363Y-88280983D01*
X77377428Y-88012993D01*
X77376928Y-88170000D01*
X77389188Y-88294482D01*
X77425498Y-88414180D01*
X77484463Y-88524494D01*
X77563815Y-88621185D01*
X77660506Y-88700537D01*
X77770820Y-88759502D01*
X77890518Y-88795812D01*
X78015000Y-88808072D01*
X79004250Y-88805000D01*
X79163000Y-88646250D01*
X79163000Y-87047000D01*
X79143000Y-87047000D01*
X79143000Y-86793000D01*
X79163000Y-86793000D01*
X79163000Y-85193750D01*
X79417000Y-85193750D01*
X79417000Y-86793000D01*
X81041250Y-86793000D01*
X81124529Y-86709721D01*
X90405000Y-86709721D01*
X90405000Y-87130279D01*
X90487047Y-87542756D01*
X90647988Y-87931302D01*
X90881637Y-88280983D01*
X91179017Y-88578363D01*
X91528698Y-88812012D01*
X91917244Y-88972953D01*
X92329721Y-89055000D01*
X92750279Y-89055000D01*
X93162756Y-88972953D01*
X93551302Y-88812012D01*
X93900983Y-88578363D01*
X94198363Y-88280983D01*
X94377428Y-88012993D01*
X94376928Y-88170000D01*
X94389188Y-88294482D01*
X94425498Y-88414180D01*
X94484463Y-88524494D01*
X94563815Y-88621185D01*
X94660506Y-88700537D01*
X94770820Y-88759502D01*
X94890518Y-88795812D01*
X95015000Y-88808072D01*
X96004250Y-88805000D01*
X96163000Y-88646250D01*
X96163000Y-87047000D01*
X96143000Y-87047000D01*
X96143000Y-86793000D01*
X96163000Y-86793000D01*
X96163000Y-85193750D01*
X96417000Y-85193750D01*
X96417000Y-86793000D01*
X98041250Y-86793000D01*
X98124529Y-86709721D01*
X107405000Y-86709721D01*
X107405000Y-87130279D01*
X107487047Y-87542756D01*
X107647988Y-87931302D01*
X107881637Y-88280983D01*
X108179017Y-88578363D01*
X108528698Y-88812012D01*
X108917244Y-88972953D01*
X109329721Y-89055000D01*
X109750279Y-89055000D01*
X110162756Y-88972953D01*
X110551302Y-88812012D01*
X110900983Y-88578363D01*
X111198363Y-88280983D01*
X111377428Y-88012993D01*
X111376928Y-88170000D01*
X111389188Y-88294482D01*
X111425498Y-88414180D01*
X111484463Y-88524494D01*
X111563815Y-88621185D01*
X111660506Y-88700537D01*
X111770820Y-88759502D01*
X111890518Y-88795812D01*
X112015000Y-88808072D01*
X113004250Y-88805000D01*
X113163000Y-88646250D01*
X113163000Y-87047000D01*
X113417000Y-87047000D01*
X113417000Y-88646250D01*
X113575750Y-88805000D01*
X114565000Y-88808072D01*
X114689482Y-88795812D01*
X114809180Y-88759502D01*
X114919494Y-88700537D01*
X115016185Y-88621185D01*
X115095537Y-88524494D01*
X115154502Y-88414180D01*
X115190812Y-88294482D01*
X115203072Y-88170000D01*
X115200000Y-87205750D01*
X115041250Y-87047000D01*
X113417000Y-87047000D01*
X113163000Y-87047000D01*
X113143000Y-87047000D01*
X113143000Y-86793000D01*
X113163000Y-86793000D01*
X113163000Y-85193750D01*
X113417000Y-85193750D01*
X113417000Y-86793000D01*
X115041250Y-86793000D01*
X115200000Y-86634250D01*
X115203072Y-85670000D01*
X115190812Y-85545518D01*
X115154502Y-85425820D01*
X115095537Y-85315506D01*
X115016185Y-85218815D01*
X114919494Y-85139463D01*
X114809180Y-85080498D01*
X114689482Y-85044188D01*
X114565000Y-85031928D01*
X113575750Y-85035000D01*
X113417000Y-85193750D01*
X113163000Y-85193750D01*
X113004250Y-85035000D01*
X112015000Y-85031928D01*
X111890518Y-85044188D01*
X111770820Y-85080498D01*
X111660506Y-85139463D01*
X111563815Y-85218815D01*
X111484463Y-85315506D01*
X111425498Y-85425820D01*
X111389188Y-85545518D01*
X111376928Y-85670000D01*
X111377428Y-85827007D01*
X111198363Y-85559017D01*
X110900983Y-85261637D01*
X110551302Y-85027988D01*
X110162756Y-84867047D01*
X109750279Y-84785000D01*
X109329721Y-84785000D01*
X108917244Y-84867047D01*
X108528698Y-85027988D01*
X108179017Y-85261637D01*
X107881637Y-85559017D01*
X107647988Y-85908698D01*
X107487047Y-86297244D01*
X107405000Y-86709721D01*
X98124529Y-86709721D01*
X98200000Y-86634250D01*
X98203072Y-85670000D01*
X98190812Y-85545518D01*
X98154502Y-85425820D01*
X98095537Y-85315506D01*
X98016185Y-85218815D01*
X97919494Y-85139463D01*
X97809180Y-85080498D01*
X97689482Y-85044188D01*
X97565000Y-85031928D01*
X96575750Y-85035000D01*
X96417000Y-85193750D01*
X96163000Y-85193750D01*
X96004250Y-85035000D01*
X95015000Y-85031928D01*
X94890518Y-85044188D01*
X94770820Y-85080498D01*
X94660506Y-85139463D01*
X94563815Y-85218815D01*
X94484463Y-85315506D01*
X94425498Y-85425820D01*
X94389188Y-85545518D01*
X94376928Y-85670000D01*
X94377428Y-85827007D01*
X94198363Y-85559017D01*
X93900983Y-85261637D01*
X93551302Y-85027988D01*
X93162756Y-84867047D01*
X92750279Y-84785000D01*
X92329721Y-84785000D01*
X91917244Y-84867047D01*
X91528698Y-85027988D01*
X91179017Y-85261637D01*
X90881637Y-85559017D01*
X90647988Y-85908698D01*
X90487047Y-86297244D01*
X90405000Y-86709721D01*
X81124529Y-86709721D01*
X81200000Y-86634250D01*
X81203072Y-85670000D01*
X81190812Y-85545518D01*
X81154502Y-85425820D01*
X81095537Y-85315506D01*
X81016185Y-85218815D01*
X80919494Y-85139463D01*
X80809180Y-85080498D01*
X80689482Y-85044188D01*
X80565000Y-85031928D01*
X79575750Y-85035000D01*
X79417000Y-85193750D01*
X79163000Y-85193750D01*
X79004250Y-85035000D01*
X78015000Y-85031928D01*
X77890518Y-85044188D01*
X77770820Y-85080498D01*
X77660506Y-85139463D01*
X77563815Y-85218815D01*
X77484463Y-85315506D01*
X77425498Y-85425820D01*
X77389188Y-85545518D01*
X77376928Y-85670000D01*
X77377428Y-85827007D01*
X77198363Y-85559017D01*
X76900983Y-85261637D01*
X76551302Y-85027988D01*
X76162756Y-84867047D01*
X75750279Y-84785000D01*
X75329721Y-84785000D01*
X74917244Y-84867047D01*
X74528698Y-85027988D01*
X74179017Y-85261637D01*
X73881637Y-85559017D01*
X73647988Y-85908698D01*
X73487047Y-86297244D01*
X73405000Y-86709721D01*
X63660000Y-86709721D01*
X63660000Y-81317360D01*
X69402245Y-81317360D01*
X69515264Y-81596384D01*
X69829249Y-81751556D01*
X70167473Y-81842491D01*
X70516938Y-81865694D01*
X70864216Y-81820275D01*
X71195960Y-81707977D01*
X71404736Y-81596384D01*
X71517755Y-81317360D01*
X86402245Y-81317360D01*
X86515264Y-81596384D01*
X86829249Y-81751556D01*
X87167473Y-81842491D01*
X87516938Y-81865694D01*
X87864216Y-81820275D01*
X88195960Y-81707977D01*
X88404736Y-81596384D01*
X88517755Y-81317360D01*
X103402245Y-81317360D01*
X103515264Y-81596384D01*
X103829249Y-81751556D01*
X104167473Y-81842491D01*
X104516938Y-81865694D01*
X104864216Y-81820275D01*
X105195960Y-81707977D01*
X105404736Y-81596384D01*
X105517755Y-81317360D01*
X104460000Y-80259605D01*
X103402245Y-81317360D01*
X88517755Y-81317360D01*
X87460000Y-80259605D01*
X86402245Y-81317360D01*
X71517755Y-81317360D01*
X70460000Y-80259605D01*
X69402245Y-81317360D01*
X63660000Y-81317360D01*
X63660000Y-80136938D01*
X68674306Y-80136938D01*
X68719725Y-80484216D01*
X68832023Y-80815960D01*
X68943616Y-81024736D01*
X69222640Y-81137755D01*
X70280395Y-80080000D01*
X70639605Y-80080000D01*
X71697360Y-81137755D01*
X71976384Y-81024736D01*
X72131556Y-80710751D01*
X72222491Y-80372527D01*
X72238133Y-80136938D01*
X85674306Y-80136938D01*
X85719725Y-80484216D01*
X85832023Y-80815960D01*
X85943616Y-81024736D01*
X86222640Y-81137755D01*
X87280395Y-80080000D01*
X87639605Y-80080000D01*
X88697360Y-81137755D01*
X88976384Y-81024736D01*
X89131556Y-80710751D01*
X89222491Y-80372527D01*
X89238133Y-80136938D01*
X102674306Y-80136938D01*
X102719725Y-80484216D01*
X102832023Y-80815960D01*
X102943616Y-81024736D01*
X103222640Y-81137755D01*
X104280395Y-80080000D01*
X104639605Y-80080000D01*
X105697360Y-81137755D01*
X105976384Y-81024736D01*
X106131556Y-80710751D01*
X106222491Y-80372527D01*
X106245694Y-80023062D01*
X106200275Y-79675784D01*
X106087977Y-79344040D01*
X105976384Y-79135264D01*
X105697360Y-79022245D01*
X104639605Y-80080000D01*
X104280395Y-80080000D01*
X103222640Y-79022245D01*
X102943616Y-79135264D01*
X102788444Y-79449249D01*
X102697509Y-79787473D01*
X102674306Y-80136938D01*
X89238133Y-80136938D01*
X89245694Y-80023062D01*
X89200275Y-79675784D01*
X89087977Y-79344040D01*
X88976384Y-79135264D01*
X88697360Y-79022245D01*
X87639605Y-80080000D01*
X87280395Y-80080000D01*
X86222640Y-79022245D01*
X85943616Y-79135264D01*
X85788444Y-79449249D01*
X85697509Y-79787473D01*
X85674306Y-80136938D01*
X72238133Y-80136938D01*
X72245694Y-80023062D01*
X72200275Y-79675784D01*
X72087977Y-79344040D01*
X71976384Y-79135264D01*
X71697360Y-79022245D01*
X70639605Y-80080000D01*
X70280395Y-80080000D01*
X69222640Y-79022245D01*
X68943616Y-79135264D01*
X68788444Y-79449249D01*
X68697509Y-79787473D01*
X68674306Y-80136938D01*
X63660000Y-80136938D01*
X63660000Y-74095611D01*
X63713815Y-74161185D01*
X63810506Y-74240537D01*
X63920820Y-74299502D01*
X64040518Y-74335812D01*
X64165000Y-74348072D01*
X64684965Y-74348072D01*
X64690997Y-74409319D01*
X64734454Y-74552580D01*
X64805026Y-74684610D01*
X64825045Y-74709003D01*
X64899999Y-74800335D01*
X64929003Y-74824138D01*
X68155867Y-78051003D01*
X68179665Y-78080001D01*
X68208663Y-78103799D01*
X68295389Y-78174974D01*
X68427419Y-78245546D01*
X68570680Y-78289003D01*
X68682333Y-78300000D01*
X68682342Y-78300000D01*
X68719665Y-78303676D01*
X68756988Y-78300000D01*
X70359525Y-78300000D01*
X70055784Y-78339725D01*
X69724040Y-78452023D01*
X69515264Y-78563616D01*
X69402245Y-78842640D01*
X70460000Y-79900395D01*
X71517755Y-78842640D01*
X71404736Y-78563616D01*
X71090751Y-78408444D01*
X70752527Y-78317509D01*
X70488820Y-78300000D01*
X75200309Y-78300000D01*
X75234357Y-78382199D01*
X75428937Y-78673409D01*
X75676591Y-78921063D01*
X75967801Y-79115643D01*
X76291377Y-79249672D01*
X76634882Y-79318000D01*
X76985118Y-79318000D01*
X77328623Y-79249672D01*
X77652199Y-79115643D01*
X77943409Y-78921063D01*
X78021832Y-78842640D01*
X86402245Y-78842640D01*
X87460000Y-79900395D01*
X88517755Y-78842640D01*
X88404736Y-78563616D01*
X88090751Y-78408444D01*
X87752527Y-78317509D01*
X87403062Y-78294306D01*
X87055784Y-78339725D01*
X86724040Y-78452023D01*
X86515264Y-78563616D01*
X86402245Y-78842640D01*
X78021832Y-78842640D01*
X78191063Y-78673409D01*
X78385643Y-78382199D01*
X78519672Y-78058623D01*
X78588000Y-77715118D01*
X78588000Y-77364882D01*
X78519672Y-77021377D01*
X78385643Y-76697801D01*
X78241978Y-76482791D01*
X78513421Y-76428798D01*
X78783838Y-76316788D01*
X79027206Y-76154174D01*
X79234174Y-75947206D01*
X79396788Y-75703838D01*
X79508798Y-75433421D01*
X79565900Y-75146348D01*
X79565900Y-74853652D01*
X79508798Y-74566579D01*
X79396788Y-74296162D01*
X79234174Y-74052794D01*
X79027206Y-73845826D01*
X78783838Y-73683212D01*
X78513421Y-73571202D01*
X78226348Y-73514100D01*
X77933652Y-73514100D01*
X77646579Y-73571202D01*
X77376162Y-73683212D01*
X77132794Y-73845826D01*
X76925826Y-74052794D01*
X76763212Y-74296162D01*
X76651202Y-74566579D01*
X76594100Y-74853652D01*
X76594100Y-75146348D01*
X76651202Y-75433421D01*
X76763212Y-75703838D01*
X76802075Y-75762000D01*
X76634882Y-75762000D01*
X76291377Y-75830328D01*
X75967801Y-75964357D01*
X75676591Y-76158937D01*
X75428937Y-76406591D01*
X75234357Y-76697801D01*
X75200309Y-76780000D01*
X74937826Y-76780000D01*
X75042000Y-76675826D01*
X75329701Y-76245251D01*
X75527873Y-75766822D01*
X75628900Y-75258924D01*
X75628900Y-74741076D01*
X75527873Y-74233178D01*
X75329701Y-73754749D01*
X75042000Y-73324174D01*
X74675826Y-72958000D01*
X74245251Y-72670299D01*
X73766822Y-72472127D01*
X73258924Y-72371100D01*
X72741076Y-72371100D01*
X72233178Y-72472127D01*
X71754749Y-72670299D01*
X71324174Y-72958000D01*
X71253763Y-73028411D01*
X71325000Y-72670279D01*
X71325000Y-72249721D01*
X71242953Y-71837244D01*
X71082012Y-71448698D01*
X70848363Y-71099017D01*
X70550983Y-70801637D01*
X70201302Y-70567988D01*
X69812756Y-70407047D01*
X69400279Y-70325000D01*
X68979721Y-70325000D01*
X68567244Y-70407047D01*
X68178698Y-70567988D01*
X67829017Y-70801637D01*
X67531637Y-71099017D01*
X67353072Y-71366259D01*
X67353072Y-71210000D01*
X67340812Y-71085518D01*
X67304502Y-70965820D01*
X67245537Y-70855506D01*
X67166185Y-70758815D01*
X67069494Y-70679463D01*
X66959180Y-70620498D01*
X66839482Y-70584188D01*
X66715000Y-70571928D01*
X64165000Y-70571928D01*
X64040518Y-70584188D01*
X63920820Y-70620498D01*
X63810506Y-70679463D01*
X63713815Y-70758815D01*
X63660000Y-70824389D01*
X63660000Y-69709721D01*
X73405000Y-69709721D01*
X73405000Y-70130279D01*
X73487047Y-70542756D01*
X73647988Y-70931302D01*
X73881637Y-71280983D01*
X74179017Y-71578363D01*
X74528698Y-71812012D01*
X74917244Y-71972953D01*
X75329721Y-72055000D01*
X75750279Y-72055000D01*
X76162756Y-71972953D01*
X76551302Y-71812012D01*
X76900983Y-71578363D01*
X77198363Y-71280983D01*
X77377428Y-71012993D01*
X77376928Y-71170000D01*
X77389188Y-71294482D01*
X77425498Y-71414180D01*
X77484463Y-71524494D01*
X77563815Y-71621185D01*
X77660506Y-71700537D01*
X77770820Y-71759502D01*
X77890518Y-71795812D01*
X78015000Y-71808072D01*
X79004250Y-71805000D01*
X79163000Y-71646250D01*
X79163000Y-70047000D01*
X79417000Y-70047000D01*
X79417000Y-71646250D01*
X79575750Y-71805000D01*
X80526928Y-71807954D01*
X80526928Y-73710000D01*
X80539188Y-73834482D01*
X80575498Y-73954180D01*
X80634463Y-74064494D01*
X80713815Y-74161185D01*
X80810506Y-74240537D01*
X80920820Y-74299502D01*
X81040518Y-74335812D01*
X81165000Y-74348072D01*
X81684965Y-74348072D01*
X81690997Y-74409319D01*
X81734454Y-74552580D01*
X81805026Y-74684610D01*
X81825045Y-74709003D01*
X81899999Y-74800335D01*
X81929003Y-74824138D01*
X84934767Y-77829903D01*
X84958566Y-77858902D01*
X84987564Y-77882700D01*
X85074290Y-77953875D01*
X85206320Y-78024447D01*
X85349581Y-78067904D01*
X85461234Y-78078901D01*
X85461244Y-78078901D01*
X85498567Y-78082577D01*
X85535890Y-78078901D01*
X92108727Y-78078901D01*
X92234357Y-78382199D01*
X92428937Y-78673409D01*
X92676591Y-78921063D01*
X92967801Y-79115643D01*
X93291377Y-79249672D01*
X93634882Y-79318000D01*
X93985118Y-79318000D01*
X94328623Y-79249672D01*
X94652199Y-79115643D01*
X94943409Y-78921063D01*
X95021832Y-78842640D01*
X103402245Y-78842640D01*
X104460000Y-79900395D01*
X105517755Y-78842640D01*
X105404736Y-78563616D01*
X105090751Y-78408444D01*
X104752527Y-78317509D01*
X104403062Y-78294306D01*
X104055784Y-78339725D01*
X103724040Y-78452023D01*
X103515264Y-78563616D01*
X103402245Y-78842640D01*
X95021832Y-78842640D01*
X95191063Y-78673409D01*
X95385643Y-78382199D01*
X95519672Y-78058623D01*
X95588000Y-77715118D01*
X95588000Y-77364882D01*
X95519672Y-77021377D01*
X95385643Y-76697801D01*
X95241978Y-76482791D01*
X95513421Y-76428798D01*
X95783838Y-76316788D01*
X96027206Y-76154174D01*
X96234174Y-75947206D01*
X96396788Y-75703838D01*
X96508798Y-75433421D01*
X96565900Y-75146348D01*
X96565900Y-74853652D01*
X96508798Y-74566579D01*
X96396788Y-74296162D01*
X96234174Y-74052794D01*
X96027206Y-73845826D01*
X95783838Y-73683212D01*
X95513421Y-73571202D01*
X95226348Y-73514100D01*
X94933652Y-73514100D01*
X94646579Y-73571202D01*
X94376162Y-73683212D01*
X94132794Y-73845826D01*
X93925826Y-74052794D01*
X93763212Y-74296162D01*
X93651202Y-74566579D01*
X93594100Y-74853652D01*
X93594100Y-75146348D01*
X93651202Y-75433421D01*
X93763212Y-75703838D01*
X93802075Y-75762000D01*
X93634882Y-75762000D01*
X93291377Y-75830328D01*
X92967801Y-75964357D01*
X92676591Y-76158937D01*
X92428937Y-76406591D01*
X92327167Y-76558901D01*
X92120127Y-76558901D01*
X92329701Y-76245251D01*
X92527873Y-75766822D01*
X92628900Y-75258924D01*
X92628900Y-74741076D01*
X92527873Y-74233178D01*
X92329701Y-73754749D01*
X92042000Y-73324174D01*
X91675826Y-72958000D01*
X91245251Y-72670299D01*
X90766822Y-72472127D01*
X90258924Y-72371100D01*
X89741076Y-72371100D01*
X89233178Y-72472127D01*
X88754749Y-72670299D01*
X88324174Y-72958000D01*
X88253763Y-73028411D01*
X88325000Y-72670279D01*
X88325000Y-72249721D01*
X88242953Y-71837244D01*
X88082012Y-71448698D01*
X87848363Y-71099017D01*
X87550983Y-70801637D01*
X87201302Y-70567988D01*
X86812756Y-70407047D01*
X86400279Y-70325000D01*
X85979721Y-70325000D01*
X85567244Y-70407047D01*
X85178698Y-70567988D01*
X84829017Y-70801637D01*
X84531637Y-71099017D01*
X84353072Y-71366259D01*
X84353072Y-71210000D01*
X84340812Y-71085518D01*
X84304502Y-70965820D01*
X84245537Y-70855506D01*
X84166185Y-70758815D01*
X84069494Y-70679463D01*
X83959180Y-70620498D01*
X83839482Y-70584188D01*
X83715000Y-70571928D01*
X81201167Y-70571928D01*
X81200000Y-70205750D01*
X81041250Y-70047000D01*
X79417000Y-70047000D01*
X79163000Y-70047000D01*
X79143000Y-70047000D01*
X79143000Y-69793000D01*
X79163000Y-69793000D01*
X79163000Y-68193750D01*
X79417000Y-68193750D01*
X79417000Y-69793000D01*
X81041250Y-69793000D01*
X81124529Y-69709721D01*
X90405000Y-69709721D01*
X90405000Y-70130279D01*
X90487047Y-70542756D01*
X90647988Y-70931302D01*
X90881637Y-71280983D01*
X91179017Y-71578363D01*
X91528698Y-71812012D01*
X91917244Y-71972953D01*
X92329721Y-72055000D01*
X92750279Y-72055000D01*
X93162756Y-71972953D01*
X93551302Y-71812012D01*
X93900983Y-71578363D01*
X94198363Y-71280983D01*
X94377428Y-71012993D01*
X94376928Y-71170000D01*
X94389188Y-71294482D01*
X94425498Y-71414180D01*
X94484463Y-71524494D01*
X94563815Y-71621185D01*
X94660506Y-71700537D01*
X94770820Y-71759502D01*
X94890518Y-71795812D01*
X95015000Y-71808072D01*
X96004250Y-71805000D01*
X96163000Y-71646250D01*
X96163000Y-70047000D01*
X96417000Y-70047000D01*
X96417000Y-71646250D01*
X96575750Y-71805000D01*
X97526928Y-71807954D01*
X97526928Y-73710000D01*
X97539188Y-73834482D01*
X97575498Y-73954180D01*
X97634463Y-74064494D01*
X97713815Y-74161185D01*
X97810506Y-74240537D01*
X97920820Y-74299502D01*
X98040518Y-74335812D01*
X98165000Y-74348072D01*
X98684965Y-74348072D01*
X98690997Y-74409319D01*
X98734454Y-74552580D01*
X98805026Y-74684610D01*
X98825045Y-74709003D01*
X98899999Y-74800335D01*
X98929003Y-74824138D01*
X101934767Y-77829903D01*
X101958566Y-77858902D01*
X101987564Y-77882700D01*
X102074290Y-77953875D01*
X102206320Y-78024447D01*
X102349581Y-78067904D01*
X102461234Y-78078901D01*
X102461244Y-78078901D01*
X102498567Y-78082577D01*
X102535890Y-78078901D01*
X109108727Y-78078901D01*
X109234357Y-78382199D01*
X109428937Y-78673409D01*
X109676591Y-78921063D01*
X109967801Y-79115643D01*
X110291377Y-79249672D01*
X110634882Y-79318000D01*
X110985118Y-79318000D01*
X111328623Y-79249672D01*
X111652199Y-79115643D01*
X111943409Y-78921063D01*
X112191063Y-78673409D01*
X112385643Y-78382199D01*
X112519672Y-78058623D01*
X112588000Y-77715118D01*
X112588000Y-77364882D01*
X112519672Y-77021377D01*
X112385643Y-76697801D01*
X112241978Y-76482791D01*
X112513421Y-76428798D01*
X112783838Y-76316788D01*
X113027206Y-76154174D01*
X113234174Y-75947206D01*
X113396788Y-75703838D01*
X113508798Y-75433421D01*
X113565900Y-75146348D01*
X113565900Y-74853652D01*
X113508798Y-74566579D01*
X113396788Y-74296162D01*
X113234174Y-74052794D01*
X113027206Y-73845826D01*
X112783838Y-73683212D01*
X112513421Y-73571202D01*
X112226348Y-73514100D01*
X111933652Y-73514100D01*
X111646579Y-73571202D01*
X111376162Y-73683212D01*
X111132794Y-73845826D01*
X110925826Y-74052794D01*
X110763212Y-74296162D01*
X110651202Y-74566579D01*
X110594100Y-74853652D01*
X110594100Y-75146348D01*
X110651202Y-75433421D01*
X110763212Y-75703838D01*
X110802075Y-75762000D01*
X110634882Y-75762000D01*
X110291377Y-75830328D01*
X109967801Y-75964357D01*
X109676591Y-76158937D01*
X109428937Y-76406591D01*
X109327167Y-76558901D01*
X109120127Y-76558901D01*
X109329701Y-76245251D01*
X109527873Y-75766822D01*
X109628900Y-75258924D01*
X109628900Y-74741076D01*
X109527873Y-74233178D01*
X109329701Y-73754749D01*
X109042000Y-73324174D01*
X108675826Y-72958000D01*
X108245251Y-72670299D01*
X107766822Y-72472127D01*
X107258924Y-72371100D01*
X106741076Y-72371100D01*
X106233178Y-72472127D01*
X105754749Y-72670299D01*
X105324174Y-72958000D01*
X105253763Y-73028411D01*
X105325000Y-72670279D01*
X105325000Y-72249721D01*
X105242953Y-71837244D01*
X105082012Y-71448698D01*
X104848363Y-71099017D01*
X104550983Y-70801637D01*
X104201302Y-70567988D01*
X103812756Y-70407047D01*
X103400279Y-70325000D01*
X102979721Y-70325000D01*
X102567244Y-70407047D01*
X102178698Y-70567988D01*
X101829017Y-70801637D01*
X101531637Y-71099017D01*
X101353072Y-71366259D01*
X101353072Y-71210000D01*
X101340812Y-71085518D01*
X101304502Y-70965820D01*
X101245537Y-70855506D01*
X101166185Y-70758815D01*
X101069494Y-70679463D01*
X100959180Y-70620498D01*
X100839482Y-70584188D01*
X100715000Y-70571928D01*
X98201167Y-70571928D01*
X98200000Y-70205750D01*
X98041250Y-70047000D01*
X96417000Y-70047000D01*
X96163000Y-70047000D01*
X96143000Y-70047000D01*
X96143000Y-69793000D01*
X96163000Y-69793000D01*
X96163000Y-68193750D01*
X96417000Y-68193750D01*
X96417000Y-69793000D01*
X98041250Y-69793000D01*
X98124529Y-69709721D01*
X107405000Y-69709721D01*
X107405000Y-70130279D01*
X107487047Y-70542756D01*
X107647988Y-70931302D01*
X107881637Y-71280983D01*
X108179017Y-71578363D01*
X108528698Y-71812012D01*
X108917244Y-71972953D01*
X109329721Y-72055000D01*
X109750279Y-72055000D01*
X110162756Y-71972953D01*
X110551302Y-71812012D01*
X110900983Y-71578363D01*
X111198363Y-71280983D01*
X111377428Y-71012993D01*
X111376928Y-71170000D01*
X111389188Y-71294482D01*
X111425498Y-71414180D01*
X111484463Y-71524494D01*
X111563815Y-71621185D01*
X111660506Y-71700537D01*
X111770820Y-71759502D01*
X111890518Y-71795812D01*
X112015000Y-71808072D01*
X113004250Y-71805000D01*
X113163000Y-71646250D01*
X113163000Y-70047000D01*
X113417000Y-70047000D01*
X113417000Y-71646250D01*
X113575750Y-71805000D01*
X114565000Y-71808072D01*
X114689482Y-71795812D01*
X114809180Y-71759502D01*
X114919494Y-71700537D01*
X115016185Y-71621185D01*
X115095537Y-71524494D01*
X115154502Y-71414180D01*
X115190812Y-71294482D01*
X115203072Y-71170000D01*
X115200000Y-70205750D01*
X115041250Y-70047000D01*
X113417000Y-70047000D01*
X113163000Y-70047000D01*
X113143000Y-70047000D01*
X113143000Y-69793000D01*
X113163000Y-69793000D01*
X113163000Y-68193750D01*
X113417000Y-68193750D01*
X113417000Y-69793000D01*
X115041250Y-69793000D01*
X115200000Y-69634250D01*
X115203072Y-68670000D01*
X115190812Y-68545518D01*
X115154502Y-68425820D01*
X115095537Y-68315506D01*
X115016185Y-68218815D01*
X114919494Y-68139463D01*
X114809180Y-68080498D01*
X114689482Y-68044188D01*
X114565000Y-68031928D01*
X113575750Y-68035000D01*
X113417000Y-68193750D01*
X113163000Y-68193750D01*
X113004250Y-68035000D01*
X112015000Y-68031928D01*
X111890518Y-68044188D01*
X111770820Y-68080498D01*
X111660506Y-68139463D01*
X111563815Y-68218815D01*
X111484463Y-68315506D01*
X111425498Y-68425820D01*
X111389188Y-68545518D01*
X111376928Y-68670000D01*
X111377428Y-68827007D01*
X111198363Y-68559017D01*
X110900983Y-68261637D01*
X110551302Y-68027988D01*
X110162756Y-67867047D01*
X109750279Y-67785000D01*
X109329721Y-67785000D01*
X108917244Y-67867047D01*
X108528698Y-68027988D01*
X108179017Y-68261637D01*
X107881637Y-68559017D01*
X107647988Y-68908698D01*
X107487047Y-69297244D01*
X107405000Y-69709721D01*
X98124529Y-69709721D01*
X98200000Y-69634250D01*
X98203072Y-68670000D01*
X98190812Y-68545518D01*
X98154502Y-68425820D01*
X98095537Y-68315506D01*
X98016185Y-68218815D01*
X97919494Y-68139463D01*
X97809180Y-68080498D01*
X97689482Y-68044188D01*
X97565000Y-68031928D01*
X96575750Y-68035000D01*
X96417000Y-68193750D01*
X96163000Y-68193750D01*
X96004250Y-68035000D01*
X95015000Y-68031928D01*
X94890518Y-68044188D01*
X94770820Y-68080498D01*
X94660506Y-68139463D01*
X94563815Y-68218815D01*
X94484463Y-68315506D01*
X94425498Y-68425820D01*
X94389188Y-68545518D01*
X94376928Y-68670000D01*
X94377428Y-68827007D01*
X94198363Y-68559017D01*
X93900983Y-68261637D01*
X93551302Y-68027988D01*
X93162756Y-67867047D01*
X92750279Y-67785000D01*
X92329721Y-67785000D01*
X91917244Y-67867047D01*
X91528698Y-68027988D01*
X91179017Y-68261637D01*
X90881637Y-68559017D01*
X90647988Y-68908698D01*
X90487047Y-69297244D01*
X90405000Y-69709721D01*
X81124529Y-69709721D01*
X81200000Y-69634250D01*
X81203072Y-68670000D01*
X81190812Y-68545518D01*
X81154502Y-68425820D01*
X81095537Y-68315506D01*
X81016185Y-68218815D01*
X80919494Y-68139463D01*
X80809180Y-68080498D01*
X80689482Y-68044188D01*
X80565000Y-68031928D01*
X79575750Y-68035000D01*
X79417000Y-68193750D01*
X79163000Y-68193750D01*
X79004250Y-68035000D01*
X78015000Y-68031928D01*
X77890518Y-68044188D01*
X77770820Y-68080498D01*
X77660506Y-68139463D01*
X77563815Y-68218815D01*
X77484463Y-68315506D01*
X77425498Y-68425820D01*
X77389188Y-68545518D01*
X77376928Y-68670000D01*
X77377428Y-68827007D01*
X77198363Y-68559017D01*
X76900983Y-68261637D01*
X76551302Y-68027988D01*
X76162756Y-67867047D01*
X75750279Y-67785000D01*
X75329721Y-67785000D01*
X74917244Y-67867047D01*
X74528698Y-68027988D01*
X74179017Y-68261637D01*
X73881637Y-68559017D01*
X73647988Y-68908698D01*
X73487047Y-69297244D01*
X73405000Y-69709721D01*
X63660000Y-69709721D01*
X63660000Y-64317360D01*
X69402245Y-64317360D01*
X69515264Y-64596384D01*
X69829249Y-64751556D01*
X70167473Y-64842491D01*
X70516938Y-64865694D01*
X70864216Y-64820275D01*
X71195960Y-64707977D01*
X71404736Y-64596384D01*
X71517755Y-64317360D01*
X86402245Y-64317360D01*
X86515264Y-64596384D01*
X86829249Y-64751556D01*
X87167473Y-64842491D01*
X87516938Y-64865694D01*
X87864216Y-64820275D01*
X88195960Y-64707977D01*
X88404736Y-64596384D01*
X88517755Y-64317360D01*
X103402245Y-64317360D01*
X103515264Y-64596384D01*
X103829249Y-64751556D01*
X104167473Y-64842491D01*
X104516938Y-64865694D01*
X104864216Y-64820275D01*
X105195960Y-64707977D01*
X105404736Y-64596384D01*
X105517755Y-64317360D01*
X104460000Y-63259605D01*
X103402245Y-64317360D01*
X88517755Y-64317360D01*
X87460000Y-63259605D01*
X86402245Y-64317360D01*
X71517755Y-64317360D01*
X70460000Y-63259605D01*
X69402245Y-64317360D01*
X63660000Y-64317360D01*
X63660000Y-63136938D01*
X68674306Y-63136938D01*
X68719725Y-63484216D01*
X68832023Y-63815960D01*
X68943616Y-64024736D01*
X69222640Y-64137755D01*
X70280395Y-63080000D01*
X70639605Y-63080000D01*
X71697360Y-64137755D01*
X71976384Y-64024736D01*
X72131556Y-63710751D01*
X72222491Y-63372527D01*
X72238133Y-63136938D01*
X85674306Y-63136938D01*
X85719725Y-63484216D01*
X85832023Y-63815960D01*
X85943616Y-64024736D01*
X86222640Y-64137755D01*
X87280395Y-63080000D01*
X87639605Y-63080000D01*
X88697360Y-64137755D01*
X88976384Y-64024736D01*
X89131556Y-63710751D01*
X89222491Y-63372527D01*
X89238133Y-63136938D01*
X102674306Y-63136938D01*
X102719725Y-63484216D01*
X102832023Y-63815960D01*
X102943616Y-64024736D01*
X103222640Y-64137755D01*
X104280395Y-63080000D01*
X104639605Y-63080000D01*
X105697360Y-64137755D01*
X105976384Y-64024736D01*
X106131556Y-63710751D01*
X106222491Y-63372527D01*
X106245694Y-63023062D01*
X106200275Y-62675784D01*
X106087977Y-62344040D01*
X105976384Y-62135264D01*
X105697360Y-62022245D01*
X104639605Y-63080000D01*
X104280395Y-63080000D01*
X103222640Y-62022245D01*
X102943616Y-62135264D01*
X102788444Y-62449249D01*
X102697509Y-62787473D01*
X102674306Y-63136938D01*
X89238133Y-63136938D01*
X89245694Y-63023062D01*
X89200275Y-62675784D01*
X89087977Y-62344040D01*
X88976384Y-62135264D01*
X88697360Y-62022245D01*
X87639605Y-63080000D01*
X87280395Y-63080000D01*
X86222640Y-62022245D01*
X85943616Y-62135264D01*
X85788444Y-62449249D01*
X85697509Y-62787473D01*
X85674306Y-63136938D01*
X72238133Y-63136938D01*
X72245694Y-63023062D01*
X72200275Y-62675784D01*
X72087977Y-62344040D01*
X71976384Y-62135264D01*
X71697360Y-62022245D01*
X70639605Y-63080000D01*
X70280395Y-63080000D01*
X69222640Y-62022245D01*
X68943616Y-62135264D01*
X68788444Y-62449249D01*
X68697509Y-62787473D01*
X68674306Y-63136938D01*
X63660000Y-63136938D01*
X63660000Y-57095611D01*
X63713815Y-57161185D01*
X63810506Y-57240537D01*
X63920820Y-57299502D01*
X64040518Y-57335812D01*
X64165000Y-57348072D01*
X64684965Y-57348072D01*
X64690997Y-57409319D01*
X64734454Y-57552580D01*
X64805026Y-57684610D01*
X64825045Y-57709003D01*
X64899999Y-57800335D01*
X64929003Y-57824138D01*
X68155867Y-61051003D01*
X68179665Y-61080001D01*
X68208663Y-61103799D01*
X68295389Y-61174974D01*
X68427419Y-61245546D01*
X68570680Y-61289003D01*
X68682333Y-61300000D01*
X68682342Y-61300000D01*
X68719665Y-61303676D01*
X68756988Y-61300000D01*
X70359525Y-61300000D01*
X70055784Y-61339725D01*
X69724040Y-61452023D01*
X69515264Y-61563616D01*
X69402245Y-61842640D01*
X70460000Y-62900395D01*
X71517755Y-61842640D01*
X71404736Y-61563616D01*
X71090751Y-61408444D01*
X70752527Y-61317509D01*
X70488820Y-61300000D01*
X75200309Y-61300000D01*
X75234357Y-61382199D01*
X75428937Y-61673409D01*
X75676591Y-61921063D01*
X75967801Y-62115643D01*
X76291377Y-62249672D01*
X76634882Y-62318000D01*
X76985118Y-62318000D01*
X77328623Y-62249672D01*
X77652199Y-62115643D01*
X77943409Y-61921063D01*
X78021832Y-61842640D01*
X86402245Y-61842640D01*
X87460000Y-62900395D01*
X88517755Y-61842640D01*
X88404736Y-61563616D01*
X88090751Y-61408444D01*
X87752527Y-61317509D01*
X87403062Y-61294306D01*
X87055784Y-61339725D01*
X86724040Y-61452023D01*
X86515264Y-61563616D01*
X86402245Y-61842640D01*
X78021832Y-61842640D01*
X78191063Y-61673409D01*
X78385643Y-61382199D01*
X78519672Y-61058623D01*
X78588000Y-60715118D01*
X78588000Y-60364882D01*
X78519672Y-60021377D01*
X78385643Y-59697801D01*
X78241978Y-59482791D01*
X78513421Y-59428798D01*
X78783838Y-59316788D01*
X79027206Y-59154174D01*
X79234174Y-58947206D01*
X79396788Y-58703838D01*
X79508798Y-58433421D01*
X79565900Y-58146348D01*
X79565900Y-57853652D01*
X79508798Y-57566579D01*
X79396788Y-57296162D01*
X79234174Y-57052794D01*
X79027206Y-56845826D01*
X78783838Y-56683212D01*
X78513421Y-56571202D01*
X78226348Y-56514100D01*
X77933652Y-56514100D01*
X77646579Y-56571202D01*
X77376162Y-56683212D01*
X77132794Y-56845826D01*
X76925826Y-57052794D01*
X76763212Y-57296162D01*
X76651202Y-57566579D01*
X76594100Y-57853652D01*
X76594100Y-58146348D01*
X76651202Y-58433421D01*
X76763212Y-58703838D01*
X76802075Y-58762000D01*
X76634882Y-58762000D01*
X76291377Y-58830328D01*
X75967801Y-58964357D01*
X75676591Y-59158937D01*
X75428937Y-59406591D01*
X75234357Y-59697801D01*
X75200309Y-59780000D01*
X74937826Y-59780000D01*
X75042000Y-59675826D01*
X75329701Y-59245251D01*
X75527873Y-58766822D01*
X75628900Y-58258924D01*
X75628900Y-57741076D01*
X75527873Y-57233178D01*
X75329701Y-56754749D01*
X75042000Y-56324174D01*
X74675826Y-55958000D01*
X74245251Y-55670299D01*
X73766822Y-55472127D01*
X73258924Y-55371100D01*
X72741076Y-55371100D01*
X72233178Y-55472127D01*
X71754749Y-55670299D01*
X71324174Y-55958000D01*
X71253763Y-56028411D01*
X71325000Y-55670279D01*
X71325000Y-55249721D01*
X71242953Y-54837244D01*
X71082012Y-54448698D01*
X70848363Y-54099017D01*
X70550983Y-53801637D01*
X70201302Y-53567988D01*
X69812756Y-53407047D01*
X69400279Y-53325000D01*
X68979721Y-53325000D01*
X68567244Y-53407047D01*
X68178698Y-53567988D01*
X67829017Y-53801637D01*
X67531637Y-54099017D01*
X67353072Y-54366259D01*
X67353072Y-54210000D01*
X67340812Y-54085518D01*
X67304502Y-53965820D01*
X67245537Y-53855506D01*
X67166185Y-53758815D01*
X67069494Y-53679463D01*
X66959180Y-53620498D01*
X66839482Y-53584188D01*
X66715000Y-53571928D01*
X64165000Y-53571928D01*
X64040518Y-53584188D01*
X63920820Y-53620498D01*
X63810506Y-53679463D01*
X63713815Y-53758815D01*
X63660000Y-53824389D01*
X63660000Y-52709721D01*
X73405000Y-52709721D01*
X73405000Y-53130279D01*
X73487047Y-53542756D01*
X73647988Y-53931302D01*
X73881637Y-54280983D01*
X74179017Y-54578363D01*
X74528698Y-54812012D01*
X74917244Y-54972953D01*
X75329721Y-55055000D01*
X75750279Y-55055000D01*
X76162756Y-54972953D01*
X76551302Y-54812012D01*
X76900983Y-54578363D01*
X77198363Y-54280983D01*
X77377428Y-54012993D01*
X77376928Y-54170000D01*
X77389188Y-54294482D01*
X77425498Y-54414180D01*
X77484463Y-54524494D01*
X77563815Y-54621185D01*
X77660506Y-54700537D01*
X77770820Y-54759502D01*
X77890518Y-54795812D01*
X78015000Y-54808072D01*
X79004250Y-54805000D01*
X79163000Y-54646250D01*
X79163000Y-53047000D01*
X79417000Y-53047000D01*
X79417000Y-54646250D01*
X79575750Y-54805000D01*
X80526928Y-54807954D01*
X80526928Y-56710000D01*
X80539188Y-56834482D01*
X80575498Y-56954180D01*
X80634463Y-57064494D01*
X80713815Y-57161185D01*
X80810506Y-57240537D01*
X80920820Y-57299502D01*
X81040518Y-57335812D01*
X81165000Y-57348072D01*
X81684965Y-57348072D01*
X81690997Y-57409319D01*
X81734454Y-57552580D01*
X81805026Y-57684610D01*
X81825045Y-57709003D01*
X81899999Y-57800335D01*
X81929003Y-57824138D01*
X84934767Y-60829903D01*
X84958566Y-60858902D01*
X84987564Y-60882700D01*
X85074290Y-60953875D01*
X85206320Y-61024447D01*
X85349581Y-61067904D01*
X85461234Y-61078901D01*
X85461244Y-61078901D01*
X85498567Y-61082577D01*
X85535890Y-61078901D01*
X92108727Y-61078901D01*
X92234357Y-61382199D01*
X92428937Y-61673409D01*
X92676591Y-61921063D01*
X92967801Y-62115643D01*
X93291377Y-62249672D01*
X93634882Y-62318000D01*
X93985118Y-62318000D01*
X94328623Y-62249672D01*
X94652199Y-62115643D01*
X94943409Y-61921063D01*
X95191063Y-61673409D01*
X95385643Y-61382199D01*
X95519672Y-61058623D01*
X95588000Y-60715118D01*
X95588000Y-60364882D01*
X95519672Y-60021377D01*
X95385643Y-59697801D01*
X95241978Y-59482791D01*
X95513421Y-59428798D01*
X95783838Y-59316788D01*
X96027206Y-59154174D01*
X96234174Y-58947206D01*
X96396788Y-58703838D01*
X96508798Y-58433421D01*
X96565900Y-58146348D01*
X96565900Y-57853652D01*
X96508798Y-57566579D01*
X96396788Y-57296162D01*
X96234174Y-57052794D01*
X96027206Y-56845826D01*
X95783838Y-56683212D01*
X95513421Y-56571202D01*
X95226348Y-56514100D01*
X94933652Y-56514100D01*
X94646579Y-56571202D01*
X94376162Y-56683212D01*
X94132794Y-56845826D01*
X93925826Y-57052794D01*
X93763212Y-57296162D01*
X93651202Y-57566579D01*
X93594100Y-57853652D01*
X93594100Y-58146348D01*
X93651202Y-58433421D01*
X93763212Y-58703838D01*
X93802075Y-58762000D01*
X93634882Y-58762000D01*
X93291377Y-58830328D01*
X92967801Y-58964357D01*
X92676591Y-59158937D01*
X92428937Y-59406591D01*
X92327167Y-59558901D01*
X92120127Y-59558901D01*
X92329701Y-59245251D01*
X92527873Y-58766822D01*
X92628900Y-58258924D01*
X92628900Y-57741076D01*
X92527873Y-57233178D01*
X92329701Y-56754749D01*
X92042000Y-56324174D01*
X91675826Y-55958000D01*
X91245251Y-55670299D01*
X90766822Y-55472127D01*
X90258924Y-55371100D01*
X89741076Y-55371100D01*
X89233178Y-55472127D01*
X88754749Y-55670299D01*
X88324174Y-55958000D01*
X88253763Y-56028411D01*
X88325000Y-55670279D01*
X88325000Y-55249721D01*
X88242953Y-54837244D01*
X88082012Y-54448698D01*
X87848363Y-54099017D01*
X87550983Y-53801637D01*
X87201302Y-53567988D01*
X86812756Y-53407047D01*
X86400279Y-53325000D01*
X85979721Y-53325000D01*
X85567244Y-53407047D01*
X85178698Y-53567988D01*
X84829017Y-53801637D01*
X84531637Y-54099017D01*
X84353072Y-54366259D01*
X84353072Y-54210000D01*
X84340812Y-54085518D01*
X84304502Y-53965820D01*
X84245537Y-53855506D01*
X84166185Y-53758815D01*
X84069494Y-53679463D01*
X83959180Y-53620498D01*
X83839482Y-53584188D01*
X83715000Y-53571928D01*
X81201167Y-53571928D01*
X81200000Y-53205750D01*
X81041250Y-53047000D01*
X79417000Y-53047000D01*
X79163000Y-53047000D01*
X79143000Y-53047000D01*
X79143000Y-52793000D01*
X79163000Y-52793000D01*
X79163000Y-51193750D01*
X79417000Y-51193750D01*
X79417000Y-52793000D01*
X81041250Y-52793000D01*
X81124529Y-52709721D01*
X90405000Y-52709721D01*
X90405000Y-53130279D01*
X90487047Y-53542756D01*
X90647988Y-53931302D01*
X90881637Y-54280983D01*
X91179017Y-54578363D01*
X91528698Y-54812012D01*
X91917244Y-54972953D01*
X92329721Y-55055000D01*
X92750279Y-55055000D01*
X93162756Y-54972953D01*
X93551302Y-54812012D01*
X93900983Y-54578363D01*
X94198363Y-54280983D01*
X94377428Y-54012993D01*
X94376928Y-54170000D01*
X94389188Y-54294482D01*
X94425498Y-54414180D01*
X94484463Y-54524494D01*
X94563815Y-54621185D01*
X94660506Y-54700537D01*
X94770820Y-54759502D01*
X94890518Y-54795812D01*
X95015000Y-54808072D01*
X96004250Y-54805000D01*
X96163000Y-54646250D01*
X96163000Y-53047000D01*
X96417000Y-53047000D01*
X96417000Y-54646250D01*
X96575750Y-54805000D01*
X97526928Y-54807954D01*
X97526928Y-56710000D01*
X97539188Y-56834482D01*
X97575498Y-56954180D01*
X97634463Y-57064494D01*
X97713815Y-57161185D01*
X97810506Y-57240537D01*
X97920820Y-57299502D01*
X98040518Y-57335812D01*
X98165000Y-57348072D01*
X98684965Y-57348072D01*
X98690997Y-57409319D01*
X98734454Y-57552580D01*
X98805026Y-57684610D01*
X98825045Y-57709003D01*
X98899999Y-57800335D01*
X98929003Y-57824138D01*
X102155867Y-61051003D01*
X102179665Y-61080001D01*
X102208663Y-61103799D01*
X102295389Y-61174974D01*
X102427419Y-61245546D01*
X102570680Y-61289003D01*
X102682333Y-61300000D01*
X102682342Y-61300000D01*
X102719665Y-61303676D01*
X102756988Y-61300000D01*
X104359525Y-61300000D01*
X104055784Y-61339725D01*
X103724040Y-61452023D01*
X103515264Y-61563616D01*
X103402245Y-61842640D01*
X104460000Y-62900395D01*
X105517755Y-61842640D01*
X105404736Y-61563616D01*
X105090751Y-61408444D01*
X104752527Y-61317509D01*
X104488820Y-61300000D01*
X109200309Y-61300000D01*
X109234357Y-61382199D01*
X109428937Y-61673409D01*
X109676591Y-61921063D01*
X109967801Y-62115643D01*
X110291377Y-62249672D01*
X110634882Y-62318000D01*
X110985118Y-62318000D01*
X111328623Y-62249672D01*
X111652199Y-62115643D01*
X111943409Y-61921063D01*
X112191063Y-61673409D01*
X112385643Y-61382199D01*
X112519672Y-61058623D01*
X112588000Y-60715118D01*
X112588000Y-60364882D01*
X112519672Y-60021377D01*
X112385643Y-59697801D01*
X112241978Y-59482791D01*
X112513421Y-59428798D01*
X112783838Y-59316788D01*
X113027206Y-59154174D01*
X113234174Y-58947206D01*
X113396788Y-58703838D01*
X113508798Y-58433421D01*
X113565900Y-58146348D01*
X113565900Y-57853652D01*
X113508798Y-57566579D01*
X113396788Y-57296162D01*
X113234174Y-57052794D01*
X113027206Y-56845826D01*
X112783838Y-56683212D01*
X112513421Y-56571202D01*
X112226348Y-56514100D01*
X111933652Y-56514100D01*
X111646579Y-56571202D01*
X111376162Y-56683212D01*
X111132794Y-56845826D01*
X110925826Y-57052794D01*
X110763212Y-57296162D01*
X110651202Y-57566579D01*
X110594100Y-57853652D01*
X110594100Y-58146348D01*
X110651202Y-58433421D01*
X110763212Y-58703838D01*
X110802075Y-58762000D01*
X110634882Y-58762000D01*
X110291377Y-58830328D01*
X109967801Y-58964357D01*
X109676591Y-59158937D01*
X109428937Y-59406591D01*
X109234357Y-59697801D01*
X109200309Y-59780000D01*
X108937826Y-59780000D01*
X109042000Y-59675826D01*
X109329701Y-59245251D01*
X109527873Y-58766822D01*
X109628900Y-58258924D01*
X109628900Y-57741076D01*
X109527873Y-57233178D01*
X109329701Y-56754749D01*
X109042000Y-56324174D01*
X108675826Y-55958000D01*
X108245251Y-55670299D01*
X107766822Y-55472127D01*
X107258924Y-55371100D01*
X106741076Y-55371100D01*
X106233178Y-55472127D01*
X105754749Y-55670299D01*
X105324174Y-55958000D01*
X105253763Y-56028411D01*
X105325000Y-55670279D01*
X105325000Y-55249721D01*
X105242953Y-54837244D01*
X105082012Y-54448698D01*
X104848363Y-54099017D01*
X104550983Y-53801637D01*
X104201302Y-53567988D01*
X103812756Y-53407047D01*
X103400279Y-53325000D01*
X102979721Y-53325000D01*
X102567244Y-53407047D01*
X102178698Y-53567988D01*
X101829017Y-53801637D01*
X101531637Y-54099017D01*
X101353072Y-54366259D01*
X101353072Y-54210000D01*
X101340812Y-54085518D01*
X101304502Y-53965820D01*
X101245537Y-53855506D01*
X101166185Y-53758815D01*
X101069494Y-53679463D01*
X100959180Y-53620498D01*
X100839482Y-53584188D01*
X100715000Y-53571928D01*
X98201167Y-53571928D01*
X98200000Y-53205750D01*
X98041250Y-53047000D01*
X96417000Y-53047000D01*
X96163000Y-53047000D01*
X96143000Y-53047000D01*
X96143000Y-52793000D01*
X96163000Y-52793000D01*
X96163000Y-51193750D01*
X96417000Y-51193750D01*
X96417000Y-52793000D01*
X98041250Y-52793000D01*
X98124529Y-52709721D01*
X107405000Y-52709721D01*
X107405000Y-53130279D01*
X107487047Y-53542756D01*
X107647988Y-53931302D01*
X107881637Y-54280983D01*
X108179017Y-54578363D01*
X108528698Y-54812012D01*
X108917244Y-54972953D01*
X109329721Y-55055000D01*
X109750279Y-55055000D01*
X110162756Y-54972953D01*
X110551302Y-54812012D01*
X110900983Y-54578363D01*
X111198363Y-54280983D01*
X111377428Y-54012993D01*
X111376928Y-54170000D01*
X111389188Y-54294482D01*
X111425498Y-54414180D01*
X111484463Y-54524494D01*
X111563815Y-54621185D01*
X111660506Y-54700537D01*
X111770820Y-54759502D01*
X111890518Y-54795812D01*
X112015000Y-54808072D01*
X113004250Y-54805000D01*
X113163000Y-54646250D01*
X113163000Y-53047000D01*
X113417000Y-53047000D01*
X113417000Y-54646250D01*
X113575750Y-54805000D01*
X114565000Y-54808072D01*
X114689482Y-54795812D01*
X114809180Y-54759502D01*
X114919494Y-54700537D01*
X115016185Y-54621185D01*
X115095537Y-54524494D01*
X115154502Y-54414180D01*
X115190812Y-54294482D01*
X115203072Y-54170000D01*
X115200000Y-53205750D01*
X115041250Y-53047000D01*
X113417000Y-53047000D01*
X113163000Y-53047000D01*
X113143000Y-53047000D01*
X113143000Y-52793000D01*
X113163000Y-52793000D01*
X113163000Y-51193750D01*
X113417000Y-51193750D01*
X113417000Y-52793000D01*
X115041250Y-52793000D01*
X115200000Y-52634250D01*
X115203072Y-51670000D01*
X115190812Y-51545518D01*
X115154502Y-51425820D01*
X115095537Y-51315506D01*
X115016185Y-51218815D01*
X114919494Y-51139463D01*
X114809180Y-51080498D01*
X114689482Y-51044188D01*
X114565000Y-51031928D01*
X113575750Y-51035000D01*
X113417000Y-51193750D01*
X113163000Y-51193750D01*
X113004250Y-51035000D01*
X112015000Y-51031928D01*
X111890518Y-51044188D01*
X111770820Y-51080498D01*
X111660506Y-51139463D01*
X111563815Y-51218815D01*
X111484463Y-51315506D01*
X111425498Y-51425820D01*
X111389188Y-51545518D01*
X111376928Y-51670000D01*
X111377428Y-51827007D01*
X111198363Y-51559017D01*
X110900983Y-51261637D01*
X110551302Y-51027988D01*
X110162756Y-50867047D01*
X109750279Y-50785000D01*
X109329721Y-50785000D01*
X108917244Y-50867047D01*
X108528698Y-51027988D01*
X108179017Y-51261637D01*
X107881637Y-51559017D01*
X107647988Y-51908698D01*
X107487047Y-52297244D01*
X107405000Y-52709721D01*
X98124529Y-52709721D01*
X98200000Y-52634250D01*
X98203072Y-51670000D01*
X98190812Y-51545518D01*
X98154502Y-51425820D01*
X98095537Y-51315506D01*
X98016185Y-51218815D01*
X97919494Y-51139463D01*
X97809180Y-51080498D01*
X97689482Y-51044188D01*
X97565000Y-51031928D01*
X96575750Y-51035000D01*
X96417000Y-51193750D01*
X96163000Y-51193750D01*
X96004250Y-51035000D01*
X95015000Y-51031928D01*
X94890518Y-51044188D01*
X94770820Y-51080498D01*
X94660506Y-51139463D01*
X94563815Y-51218815D01*
X94484463Y-51315506D01*
X94425498Y-51425820D01*
X94389188Y-51545518D01*
X94376928Y-51670000D01*
X94377428Y-51827007D01*
X94198363Y-51559017D01*
X93900983Y-51261637D01*
X93551302Y-51027988D01*
X93162756Y-50867047D01*
X92750279Y-50785000D01*
X92329721Y-50785000D01*
X91917244Y-50867047D01*
X91528698Y-51027988D01*
X91179017Y-51261637D01*
X90881637Y-51559017D01*
X90647988Y-51908698D01*
X90487047Y-52297244D01*
X90405000Y-52709721D01*
X81124529Y-52709721D01*
X81200000Y-52634250D01*
X81203072Y-51670000D01*
X81190812Y-51545518D01*
X81154502Y-51425820D01*
X81095537Y-51315506D01*
X81016185Y-51218815D01*
X80919494Y-51139463D01*
X80809180Y-51080498D01*
X80689482Y-51044188D01*
X80565000Y-51031928D01*
X79575750Y-51035000D01*
X79417000Y-51193750D01*
X79163000Y-51193750D01*
X79004250Y-51035000D01*
X78015000Y-51031928D01*
X77890518Y-51044188D01*
X77770820Y-51080498D01*
X77660506Y-51139463D01*
X77563815Y-51218815D01*
X77484463Y-51315506D01*
X77425498Y-51425820D01*
X77389188Y-51545518D01*
X77376928Y-51670000D01*
X77377428Y-51827007D01*
X77198363Y-51559017D01*
X76900983Y-51261637D01*
X76551302Y-51027988D01*
X76162756Y-50867047D01*
X75750279Y-50785000D01*
X75329721Y-50785000D01*
X74917244Y-50867047D01*
X74528698Y-51027988D01*
X74179017Y-51261637D01*
X73881637Y-51559017D01*
X73647988Y-51908698D01*
X73487047Y-52297244D01*
X73405000Y-52709721D01*
X63660000Y-52709721D01*
X63660000Y-48678665D01*
X64905000Y-48678665D01*
X64905000Y-48961335D01*
X64960147Y-49238574D01*
X65068320Y-49499727D01*
X65225363Y-49734759D01*
X65425241Y-49934637D01*
X65660273Y-50091680D01*
X65921426Y-50199853D01*
X66198665Y-50255000D01*
X66481335Y-50255000D01*
X66758574Y-50199853D01*
X67019727Y-50091680D01*
X67254759Y-49934637D01*
X67454637Y-49734759D01*
X67611680Y-49499727D01*
X67719853Y-49238574D01*
X67775000Y-48961335D01*
X67775000Y-48678665D01*
X67905000Y-48678665D01*
X67905000Y-48961335D01*
X67960147Y-49238574D01*
X68068320Y-49499727D01*
X68225363Y-49734759D01*
X68425241Y-49934637D01*
X68660273Y-50091680D01*
X68921426Y-50199853D01*
X69198665Y-50255000D01*
X69481335Y-50255000D01*
X69758574Y-50199853D01*
X70019727Y-50091680D01*
X70254759Y-49934637D01*
X70454637Y-49734759D01*
X70611680Y-49499727D01*
X70719853Y-49238574D01*
X70775000Y-48961335D01*
X70775000Y-48678665D01*
X70905000Y-48678665D01*
X70905000Y-48961335D01*
X70960147Y-49238574D01*
X71068320Y-49499727D01*
X71225363Y-49734759D01*
X71425241Y-49934637D01*
X71660273Y-50091680D01*
X71921426Y-50199853D01*
X72198665Y-50255000D01*
X72481335Y-50255000D01*
X72758574Y-50199853D01*
X73019727Y-50091680D01*
X73254759Y-49934637D01*
X73454637Y-49734759D01*
X73611680Y-49499727D01*
X73719853Y-49238574D01*
X73775000Y-48961335D01*
X73775000Y-48678665D01*
X73905000Y-48678665D01*
X73905000Y-48961335D01*
X73960147Y-49238574D01*
X74068320Y-49499727D01*
X74225363Y-49734759D01*
X74425241Y-49934637D01*
X74660273Y-50091680D01*
X74921426Y-50199853D01*
X75198665Y-50255000D01*
X75481335Y-50255000D01*
X75758574Y-50199853D01*
X76019727Y-50091680D01*
X76254759Y-49934637D01*
X76454637Y-49734759D01*
X76611680Y-49499727D01*
X76719853Y-49238574D01*
X76775000Y-48961335D01*
X76775000Y-48678665D01*
X76905000Y-48678665D01*
X76905000Y-48961335D01*
X76960147Y-49238574D01*
X77068320Y-49499727D01*
X77225363Y-49734759D01*
X77425241Y-49934637D01*
X77660273Y-50091680D01*
X77921426Y-50199853D01*
X78198665Y-50255000D01*
X78481335Y-50255000D01*
X78758574Y-50199853D01*
X79019727Y-50091680D01*
X79254759Y-49934637D01*
X79454637Y-49734759D01*
X79611680Y-49499727D01*
X79719853Y-49238574D01*
X79775000Y-48961335D01*
X79775000Y-48678665D01*
X79905000Y-48678665D01*
X79905000Y-48961335D01*
X79960147Y-49238574D01*
X80068320Y-49499727D01*
X80225363Y-49734759D01*
X80425241Y-49934637D01*
X80660273Y-50091680D01*
X80921426Y-50199853D01*
X81198665Y-50255000D01*
X81481335Y-50255000D01*
X81758574Y-50199853D01*
X82019727Y-50091680D01*
X82254759Y-49934637D01*
X82454637Y-49734759D01*
X82611680Y-49499727D01*
X82719853Y-49238574D01*
X82775000Y-48961335D01*
X82775000Y-48678665D01*
X82905000Y-48678665D01*
X82905000Y-48961335D01*
X82960147Y-49238574D01*
X83068320Y-49499727D01*
X83225363Y-49734759D01*
X83425241Y-49934637D01*
X83660273Y-50091680D01*
X83921426Y-50199853D01*
X84198665Y-50255000D01*
X84481335Y-50255000D01*
X84758574Y-50199853D01*
X85019727Y-50091680D01*
X85254759Y-49934637D01*
X85454637Y-49734759D01*
X85611680Y-49499727D01*
X85719853Y-49238574D01*
X85775000Y-48961335D01*
X85775000Y-48678665D01*
X85905000Y-48678665D01*
X85905000Y-48961335D01*
X85960147Y-49238574D01*
X86068320Y-49499727D01*
X86225363Y-49734759D01*
X86425241Y-49934637D01*
X86660273Y-50091680D01*
X86921426Y-50199853D01*
X87198665Y-50255000D01*
X87481335Y-50255000D01*
X87758574Y-50199853D01*
X88019727Y-50091680D01*
X88254759Y-49934637D01*
X88454637Y-49734759D01*
X88611680Y-49499727D01*
X88719853Y-49238574D01*
X88775000Y-48961335D01*
X88775000Y-48678665D01*
X88905000Y-48678665D01*
X88905000Y-48961335D01*
X88960147Y-49238574D01*
X89068320Y-49499727D01*
X89225363Y-49734759D01*
X89425241Y-49934637D01*
X89660273Y-50091680D01*
X89921426Y-50199853D01*
X90198665Y-50255000D01*
X90481335Y-50255000D01*
X90758574Y-50199853D01*
X91019727Y-50091680D01*
X91254759Y-49934637D01*
X91454637Y-49734759D01*
X91611680Y-49499727D01*
X91719853Y-49238574D01*
X91775000Y-48961335D01*
X91775000Y-48678665D01*
X91719853Y-48401426D01*
X91611680Y-48140273D01*
X91454637Y-47905241D01*
X91254759Y-47705363D01*
X91019727Y-47548320D01*
X90758574Y-47440147D01*
X90481335Y-47385000D01*
X90198665Y-47385000D01*
X89921426Y-47440147D01*
X89660273Y-47548320D01*
X89425241Y-47705363D01*
X89225363Y-47905241D01*
X89068320Y-48140273D01*
X88960147Y-48401426D01*
X88905000Y-48678665D01*
X88775000Y-48678665D01*
X88719853Y-48401426D01*
X88611680Y-48140273D01*
X88454637Y-47905241D01*
X88254759Y-47705363D01*
X88019727Y-47548320D01*
X87758574Y-47440147D01*
X87481335Y-47385000D01*
X87198665Y-47385000D01*
X86921426Y-47440147D01*
X86660273Y-47548320D01*
X86425241Y-47705363D01*
X86225363Y-47905241D01*
X86068320Y-48140273D01*
X85960147Y-48401426D01*
X85905000Y-48678665D01*
X85775000Y-48678665D01*
X85719853Y-48401426D01*
X85611680Y-48140273D01*
X85454637Y-47905241D01*
X85254759Y-47705363D01*
X85019727Y-47548320D01*
X84758574Y-47440147D01*
X84481335Y-47385000D01*
X84198665Y-47385000D01*
X83921426Y-47440147D01*
X83660273Y-47548320D01*
X83425241Y-47705363D01*
X83225363Y-47905241D01*
X83068320Y-48140273D01*
X82960147Y-48401426D01*
X82905000Y-48678665D01*
X82775000Y-48678665D01*
X82719853Y-48401426D01*
X82611680Y-48140273D01*
X82454637Y-47905241D01*
X82254759Y-47705363D01*
X82019727Y-47548320D01*
X81758574Y-47440147D01*
X81481335Y-47385000D01*
X81198665Y-47385000D01*
X80921426Y-47440147D01*
X80660273Y-47548320D01*
X80425241Y-47705363D01*
X80225363Y-47905241D01*
X80068320Y-48140273D01*
X79960147Y-48401426D01*
X79905000Y-48678665D01*
X79775000Y-48678665D01*
X79719853Y-48401426D01*
X79611680Y-48140273D01*
X79454637Y-47905241D01*
X79254759Y-47705363D01*
X79019727Y-47548320D01*
X78758574Y-47440147D01*
X78481335Y-47385000D01*
X78198665Y-47385000D01*
X77921426Y-47440147D01*
X77660273Y-47548320D01*
X77425241Y-47705363D01*
X77225363Y-47905241D01*
X77068320Y-48140273D01*
X76960147Y-48401426D01*
X76905000Y-48678665D01*
X76775000Y-48678665D01*
X76719853Y-48401426D01*
X76611680Y-48140273D01*
X76454637Y-47905241D01*
X76254759Y-47705363D01*
X76019727Y-47548320D01*
X75758574Y-47440147D01*
X75481335Y-47385000D01*
X75198665Y-47385000D01*
X74921426Y-47440147D01*
X74660273Y-47548320D01*
X74425241Y-47705363D01*
X74225363Y-47905241D01*
X74068320Y-48140273D01*
X73960147Y-48401426D01*
X73905000Y-48678665D01*
X73775000Y-48678665D01*
X73719853Y-48401426D01*
X73611680Y-48140273D01*
X73454637Y-47905241D01*
X73254759Y-47705363D01*
X73019727Y-47548320D01*
X72758574Y-47440147D01*
X72481335Y-47385000D01*
X72198665Y-47385000D01*
X71921426Y-47440147D01*
X71660273Y-47548320D01*
X71425241Y-47705363D01*
X71225363Y-47905241D01*
X71068320Y-48140273D01*
X70960147Y-48401426D01*
X70905000Y-48678665D01*
X70775000Y-48678665D01*
X70719853Y-48401426D01*
X70611680Y-48140273D01*
X70454637Y-47905241D01*
X70254759Y-47705363D01*
X70019727Y-47548320D01*
X69758574Y-47440147D01*
X69481335Y-47385000D01*
X69198665Y-47385000D01*
X68921426Y-47440147D01*
X68660273Y-47548320D01*
X68425241Y-47705363D01*
X68225363Y-47905241D01*
X68068320Y-48140273D01*
X67960147Y-48401426D01*
X67905000Y-48678665D01*
X67775000Y-48678665D01*
X67719853Y-48401426D01*
X67611680Y-48140273D01*
X67454637Y-47905241D01*
X67254759Y-47705363D01*
X67019727Y-47548320D01*
X66758574Y-47440147D01*
X66481335Y-47385000D01*
X66198665Y-47385000D01*
X65921426Y-47440147D01*
X65660273Y-47548320D01*
X65425241Y-47705363D01*
X65225363Y-47905241D01*
X65068320Y-48140273D01*
X64960147Y-48401426D01*
X64905000Y-48678665D01*
X63660000Y-48678665D01*
X63660000Y-38590000D01*
X64478057Y-38590000D01*
X64505764Y-38871309D01*
X64587818Y-39141808D01*
X64721068Y-39391101D01*
X64900392Y-39609608D01*
X65118899Y-39788932D01*
X65368192Y-39922182D01*
X65571247Y-39983777D01*
X65538899Y-40001068D01*
X65320392Y-40180392D01*
X65141068Y-40398899D01*
X65007818Y-40648192D01*
X64925764Y-40918691D01*
X64898057Y-41200000D01*
X64925764Y-41481309D01*
X65007818Y-41751808D01*
X65141068Y-42001101D01*
X65320392Y-42219608D01*
X65538899Y-42398932D01*
X65788192Y-42532182D01*
X66058691Y-42614236D01*
X66269508Y-42635000D01*
X66410492Y-42635000D01*
X66621309Y-42614236D01*
X66891808Y-42532182D01*
X67141101Y-42398932D01*
X67359608Y-42219608D01*
X67538932Y-42001101D01*
X67672182Y-41751808D01*
X67754236Y-41481309D01*
X67781943Y-41200000D01*
X67898057Y-41200000D01*
X67925764Y-41481309D01*
X68007818Y-41751808D01*
X68141068Y-42001101D01*
X68320392Y-42219608D01*
X68538899Y-42398932D01*
X68788192Y-42532182D01*
X69058691Y-42614236D01*
X69269508Y-42635000D01*
X69410492Y-42635000D01*
X69621309Y-42614236D01*
X69891808Y-42532182D01*
X70141101Y-42398932D01*
X70359608Y-42219608D01*
X70538932Y-42001101D01*
X70672182Y-41751808D01*
X70754236Y-41481309D01*
X70781943Y-41200000D01*
X70898057Y-41200000D01*
X70925764Y-41481309D01*
X71007818Y-41751808D01*
X71141068Y-42001101D01*
X71320392Y-42219608D01*
X71538899Y-42398932D01*
X71788192Y-42532182D01*
X72058691Y-42614236D01*
X72269508Y-42635000D01*
X72410492Y-42635000D01*
X72621309Y-42614236D01*
X72891808Y-42532182D01*
X73141101Y-42398932D01*
X73359608Y-42219608D01*
X73538932Y-42001101D01*
X73672182Y-41751808D01*
X73754236Y-41481309D01*
X73781943Y-41200000D01*
X73754236Y-40918691D01*
X73672182Y-40648192D01*
X73538932Y-40398899D01*
X73359608Y-40180392D01*
X73141101Y-40001068D01*
X72949367Y-39898584D01*
X73121426Y-39969853D01*
X73398665Y-40025000D01*
X73681335Y-40025000D01*
X73958574Y-39969853D01*
X74219727Y-39861680D01*
X74454759Y-39704637D01*
X74590000Y-39569396D01*
X74725241Y-39704637D01*
X74912861Y-39830000D01*
X74788192Y-39867818D01*
X74538899Y-40001068D01*
X74320392Y-40180392D01*
X74141068Y-40398899D01*
X74007818Y-40648192D01*
X73925764Y-40918691D01*
X73898057Y-41200000D01*
X73925764Y-41481309D01*
X74007818Y-41751808D01*
X74141068Y-42001101D01*
X74320392Y-42219608D01*
X74538899Y-42398932D01*
X74788192Y-42532182D01*
X75058691Y-42614236D01*
X75269508Y-42635000D01*
X75410492Y-42635000D01*
X75621309Y-42614236D01*
X75665906Y-42600708D01*
X78766201Y-45701003D01*
X78789999Y-45730001D01*
X78818997Y-45753799D01*
X78905723Y-45824974D01*
X79031459Y-45892182D01*
X79037753Y-45895546D01*
X79181014Y-45939003D01*
X79292667Y-45950000D01*
X79292676Y-45950000D01*
X79329999Y-45953676D01*
X79367322Y-45950000D01*
X92378772Y-45950000D01*
X92323989Y-46082257D01*
X92265000Y-46378816D01*
X92265000Y-46681184D01*
X92323989Y-46977743D01*
X92439701Y-47257095D01*
X92607688Y-47508505D01*
X92821495Y-47722312D01*
X93072905Y-47890299D01*
X93352257Y-48006011D01*
X93648816Y-48065000D01*
X93951184Y-48065000D01*
X94247743Y-48006011D01*
X94527095Y-47890299D01*
X94778505Y-47722312D01*
X94844944Y-47655873D01*
X94850498Y-47674180D01*
X94909463Y-47784494D01*
X94988815Y-47881185D01*
X95085506Y-47960537D01*
X95195820Y-48019502D01*
X95315518Y-48055812D01*
X95440000Y-48068072D01*
X97240000Y-48068072D01*
X97364482Y-48055812D01*
X97484180Y-48019502D01*
X97594494Y-47960537D01*
X97691185Y-47881185D01*
X97770537Y-47784494D01*
X97829502Y-47674180D01*
X97865812Y-47554482D01*
X97878072Y-47430000D01*
X97878072Y-46059315D01*
X97949744Y-46107205D01*
X98138102Y-46185226D01*
X98338061Y-46225000D01*
X98541939Y-46225000D01*
X98741898Y-46185226D01*
X98809039Y-46157415D01*
X98765000Y-46378816D01*
X98765000Y-46681184D01*
X98823989Y-46977743D01*
X98939701Y-47257095D01*
X99107688Y-47508505D01*
X99321495Y-47722312D01*
X99572905Y-47890299D01*
X99852257Y-48006011D01*
X100148816Y-48065000D01*
X100451184Y-48065000D01*
X100747743Y-48006011D01*
X101027095Y-47890299D01*
X101278505Y-47722312D01*
X101344944Y-47655873D01*
X101350498Y-47674180D01*
X101409463Y-47784494D01*
X101488815Y-47881185D01*
X101585506Y-47960537D01*
X101695820Y-48019502D01*
X101815518Y-48055812D01*
X101940000Y-48068072D01*
X103740000Y-48068072D01*
X103864482Y-48055812D01*
X103984180Y-48019502D01*
X104094494Y-47960537D01*
X104191185Y-47881185D01*
X104270537Y-47784494D01*
X104329502Y-47674180D01*
X104365812Y-47554482D01*
X104378072Y-47430000D01*
X104378072Y-46378816D01*
X105265000Y-46378816D01*
X105265000Y-46681184D01*
X105323989Y-46977743D01*
X105439701Y-47257095D01*
X105607688Y-47508505D01*
X105821495Y-47722312D01*
X106072905Y-47890299D01*
X106352257Y-48006011D01*
X106648816Y-48065000D01*
X106951184Y-48065000D01*
X107247743Y-48006011D01*
X107527095Y-47890299D01*
X107778505Y-47722312D01*
X107844944Y-47655873D01*
X107850498Y-47674180D01*
X107909463Y-47784494D01*
X107988815Y-47881185D01*
X108085506Y-47960537D01*
X108195820Y-48019502D01*
X108315518Y-48055812D01*
X108440000Y-48068072D01*
X110240000Y-48068072D01*
X110364482Y-48055812D01*
X110484180Y-48019502D01*
X110594494Y-47960537D01*
X110691185Y-47881185D01*
X110770537Y-47784494D01*
X110829502Y-47674180D01*
X110865812Y-47554482D01*
X110878072Y-47430000D01*
X110878072Y-45630000D01*
X110865812Y-45505518D01*
X110829502Y-45385820D01*
X110770537Y-45275506D01*
X110691185Y-45178815D01*
X110594494Y-45099463D01*
X110484180Y-45040498D01*
X110364482Y-45004188D01*
X110240000Y-44991928D01*
X108440000Y-44991928D01*
X108315518Y-45004188D01*
X108195820Y-45040498D01*
X108085506Y-45099463D01*
X107988815Y-45178815D01*
X107909463Y-45275506D01*
X107850498Y-45385820D01*
X107844944Y-45404127D01*
X107778505Y-45337688D01*
X107527095Y-45169701D01*
X107247743Y-45053989D01*
X106951184Y-44995000D01*
X106648816Y-44995000D01*
X106352257Y-45053989D01*
X106072905Y-45169701D01*
X105821495Y-45337688D01*
X105607688Y-45551495D01*
X105439701Y-45802905D01*
X105323989Y-46082257D01*
X105265000Y-46378816D01*
X104378072Y-46378816D01*
X104378072Y-45630000D01*
X104365812Y-45505518D01*
X104329502Y-45385820D01*
X104270537Y-45275506D01*
X104191185Y-45178815D01*
X104094494Y-45099463D01*
X103984180Y-45040498D01*
X103864482Y-45004188D01*
X103740000Y-44991928D01*
X101940000Y-44991928D01*
X101815518Y-45004188D01*
X101695820Y-45040498D01*
X101585506Y-45099463D01*
X101488815Y-45178815D01*
X101409463Y-45275506D01*
X101350498Y-45385820D01*
X101344944Y-45404127D01*
X101278505Y-45337688D01*
X101060000Y-45191687D01*
X101060000Y-45014317D01*
X101063676Y-44976994D01*
X101060000Y-44939671D01*
X101060000Y-44939662D01*
X101049003Y-44828009D01*
X101005546Y-44684748D01*
X100934974Y-44552719D01*
X100921811Y-44536680D01*
X100863799Y-44465991D01*
X100863795Y-44465987D01*
X100840001Y-44436994D01*
X100811009Y-44413201D01*
X100172793Y-43774986D01*
X106051275Y-43774986D01*
X106175226Y-43898937D01*
X106344744Y-44012205D01*
X106533102Y-44090226D01*
X106733061Y-44130000D01*
X106936939Y-44130000D01*
X107136898Y-44090226D01*
X107325256Y-44012205D01*
X107494774Y-43898937D01*
X107638937Y-43754774D01*
X107752205Y-43585256D01*
X107830226Y-43396898D01*
X107870000Y-43196939D01*
X107870000Y-42993061D01*
X107830226Y-42793102D01*
X107752205Y-42604744D01*
X107638937Y-42435226D01*
X107494774Y-42291063D01*
X107325256Y-42177795D01*
X107136898Y-42099774D01*
X106936939Y-42060000D01*
X106733061Y-42060000D01*
X106533102Y-42099774D01*
X106344744Y-42177795D01*
X106229219Y-42254986D01*
X105649816Y-42254986D01*
X106391071Y-41513731D01*
X106648816Y-41565000D01*
X106951184Y-41565000D01*
X107247743Y-41506011D01*
X107527095Y-41390299D01*
X107778505Y-41222312D01*
X107844944Y-41155873D01*
X107850498Y-41174180D01*
X107909463Y-41284494D01*
X107988815Y-41381185D01*
X108085506Y-41460537D01*
X108195820Y-41519502D01*
X108315518Y-41555812D01*
X108440000Y-41568072D01*
X110240000Y-41568072D01*
X110364482Y-41555812D01*
X110484180Y-41519502D01*
X110594494Y-41460537D01*
X110691185Y-41381185D01*
X110770537Y-41284494D01*
X110829502Y-41174180D01*
X110865812Y-41054482D01*
X110878072Y-40930000D01*
X110878072Y-39130000D01*
X110865812Y-39005518D01*
X110829502Y-38885820D01*
X110770537Y-38775506D01*
X110691185Y-38678815D01*
X110594494Y-38599463D01*
X110484180Y-38540498D01*
X110364482Y-38504188D01*
X110240000Y-38491928D01*
X108440000Y-38491928D01*
X108315518Y-38504188D01*
X108195820Y-38540498D01*
X108085506Y-38599463D01*
X107988815Y-38678815D01*
X107909463Y-38775506D01*
X107850498Y-38885820D01*
X107844944Y-38904127D01*
X107778505Y-38837688D01*
X107527095Y-38669701D01*
X107247743Y-38553989D01*
X106951184Y-38495000D01*
X106648816Y-38495000D01*
X106352257Y-38553989D01*
X106072905Y-38669701D01*
X105821495Y-38837688D01*
X105607688Y-39051495D01*
X105439701Y-39302905D01*
X105323989Y-39582257D01*
X105265000Y-39878816D01*
X105265000Y-40181184D01*
X105316269Y-40438929D01*
X103950223Y-41804976D01*
X91643763Y-41804976D01*
X91672182Y-41751808D01*
X91754236Y-41481309D01*
X91781943Y-41200000D01*
X91754236Y-40918691D01*
X91740708Y-40874094D01*
X92292975Y-40321826D01*
X92323989Y-40477743D01*
X92439701Y-40757095D01*
X92607688Y-41008505D01*
X92821495Y-41222312D01*
X93072905Y-41390299D01*
X93352257Y-41506011D01*
X93648816Y-41565000D01*
X93951184Y-41565000D01*
X94247743Y-41506011D01*
X94527095Y-41390299D01*
X94778505Y-41222312D01*
X94844944Y-41155873D01*
X94850498Y-41174180D01*
X94909463Y-41284494D01*
X94988815Y-41381185D01*
X95085506Y-41460537D01*
X95195820Y-41519502D01*
X95315518Y-41555812D01*
X95440000Y-41568072D01*
X97240000Y-41568072D01*
X97364482Y-41555812D01*
X97484180Y-41519502D01*
X97594494Y-41460537D01*
X97691185Y-41381185D01*
X97770537Y-41284494D01*
X97829502Y-41174180D01*
X97865812Y-41054482D01*
X97878072Y-40930000D01*
X97878072Y-39130000D01*
X97865812Y-39005518D01*
X97829502Y-38885820D01*
X97783630Y-38800000D01*
X99377899Y-38800000D01*
X99321495Y-38837688D01*
X99107688Y-39051495D01*
X98939701Y-39302905D01*
X98823989Y-39582257D01*
X98765000Y-39878816D01*
X98765000Y-40181184D01*
X98823989Y-40477743D01*
X98939701Y-40757095D01*
X99107688Y-41008505D01*
X99321495Y-41222312D01*
X99572905Y-41390299D01*
X99852257Y-41506011D01*
X100148816Y-41565000D01*
X100451184Y-41565000D01*
X100747743Y-41506011D01*
X101027095Y-41390299D01*
X101278505Y-41222312D01*
X101344944Y-41155873D01*
X101350498Y-41174180D01*
X101409463Y-41284494D01*
X101488815Y-41381185D01*
X101585506Y-41460537D01*
X101695820Y-41519502D01*
X101815518Y-41555812D01*
X101940000Y-41568072D01*
X103740000Y-41568072D01*
X103864482Y-41555812D01*
X103984180Y-41519502D01*
X104094494Y-41460537D01*
X104191185Y-41381185D01*
X104270537Y-41284494D01*
X104329502Y-41174180D01*
X104365812Y-41054482D01*
X104378072Y-40930000D01*
X104378072Y-39130000D01*
X104365812Y-39005518D01*
X104365730Y-39005248D01*
X104438102Y-39035226D01*
X104638061Y-39075000D01*
X104841939Y-39075000D01*
X105041898Y-39035226D01*
X105230256Y-38957205D01*
X105399774Y-38843937D01*
X105543937Y-38699774D01*
X105657205Y-38530256D01*
X105735226Y-38341898D01*
X105775000Y-38141939D01*
X105775000Y-37938061D01*
X105735226Y-37738102D01*
X105657205Y-37549744D01*
X105543937Y-37380226D01*
X105399774Y-37236063D01*
X105230256Y-37122795D01*
X105041898Y-37044774D01*
X104841939Y-37005000D01*
X104638061Y-37005000D01*
X104438102Y-37044774D01*
X104249744Y-37122795D01*
X104080226Y-37236063D01*
X104036289Y-37280000D01*
X93537323Y-37280000D01*
X93500000Y-37276324D01*
X93462677Y-37280000D01*
X93462667Y-37280000D01*
X93351014Y-37290997D01*
X93207753Y-37334454D01*
X93075724Y-37405026D01*
X92959999Y-37499999D01*
X92936201Y-37528997D01*
X90665906Y-39799292D01*
X90621309Y-39785764D01*
X90410492Y-39765000D01*
X90269508Y-39765000D01*
X90058691Y-39785764D01*
X89788192Y-39867818D01*
X89538899Y-40001068D01*
X89320392Y-40180392D01*
X89141068Y-40398899D01*
X89007818Y-40648192D01*
X88925764Y-40918691D01*
X88898057Y-41200000D01*
X88925764Y-41481309D01*
X89007818Y-41751808D01*
X89036237Y-41804976D01*
X89019778Y-41804976D01*
X88740708Y-41525906D01*
X88754236Y-41481309D01*
X88781943Y-41200000D01*
X88754236Y-40918691D01*
X88672182Y-40648192D01*
X88538932Y-40398899D01*
X88359608Y-40180392D01*
X88141101Y-40001068D01*
X87891808Y-39867818D01*
X87621309Y-39785764D01*
X87410492Y-39765000D01*
X87269508Y-39765000D01*
X87058691Y-39785764D01*
X86788192Y-39867818D01*
X86538899Y-40001068D01*
X86320392Y-40180392D01*
X86141068Y-40398899D01*
X86007818Y-40648192D01*
X85925764Y-40918691D01*
X85898057Y-41200000D01*
X85925764Y-41481309D01*
X86007818Y-41751808D01*
X86055137Y-41840335D01*
X85740708Y-41525906D01*
X85754236Y-41481309D01*
X85781943Y-41200000D01*
X85754236Y-40918691D01*
X85672182Y-40648192D01*
X85538932Y-40398899D01*
X85359608Y-40180392D01*
X85141101Y-40001068D01*
X84891808Y-39867818D01*
X84621309Y-39785764D01*
X84410492Y-39765000D01*
X84269508Y-39765000D01*
X84065816Y-39785062D01*
X84279608Y-39609608D01*
X84458932Y-39391101D01*
X84592182Y-39141808D01*
X84674236Y-38871309D01*
X84701943Y-38590000D01*
X84674236Y-38308691D01*
X84592182Y-38038192D01*
X84458932Y-37788899D01*
X84346960Y-37652460D01*
X84425998Y-37573422D01*
X84455001Y-37549620D01*
X84513188Y-37478719D01*
X84670448Y-37510000D01*
X84859552Y-37510000D01*
X85045022Y-37473108D01*
X85190000Y-37413056D01*
X85334978Y-37473108D01*
X85520448Y-37510000D01*
X85709552Y-37510000D01*
X85895022Y-37473108D01*
X86040000Y-37413056D01*
X86184978Y-37473108D01*
X86370448Y-37510000D01*
X86559552Y-37510000D01*
X86745022Y-37473108D01*
X86890000Y-37413056D01*
X87034978Y-37473108D01*
X87220448Y-37510000D01*
X87409552Y-37510000D01*
X87595022Y-37473108D01*
X87740000Y-37413056D01*
X87884978Y-37473108D01*
X88070448Y-37510000D01*
X88259552Y-37510000D01*
X88445022Y-37473108D01*
X88590000Y-37413056D01*
X88734978Y-37473108D01*
X88920448Y-37510000D01*
X89109552Y-37510000D01*
X89295022Y-37473108D01*
X89469731Y-37400741D01*
X89626964Y-37295681D01*
X89724603Y-37198042D01*
X89759290Y-37226509D01*
X89947780Y-37327259D01*
X90152303Y-37389300D01*
X90365000Y-37410249D01*
X90577696Y-37389300D01*
X90782219Y-37327259D01*
X90970710Y-37226509D01*
X91135922Y-37090922D01*
X91271509Y-36925710D01*
X91372259Y-36737220D01*
X91434300Y-36532697D01*
X91450000Y-36373294D01*
X91450000Y-34766706D01*
X91434300Y-34607303D01*
X91372259Y-34402780D01*
X91271509Y-34214290D01*
X91135922Y-34049078D01*
X90970710Y-33913491D01*
X90782220Y-33812741D01*
X90577697Y-33750700D01*
X90365000Y-33729751D01*
X90152304Y-33750700D01*
X89947781Y-33812741D01*
X89759291Y-33913491D01*
X89594079Y-34049078D01*
X89458492Y-34214290D01*
X89390524Y-34341450D01*
X89295022Y-34301892D01*
X89109552Y-34265000D01*
X88920448Y-34265000D01*
X88758889Y-34297136D01*
X88700001Y-34225380D01*
X88670998Y-34201578D01*
X88533422Y-34064002D01*
X88509619Y-34034998D01*
X88393894Y-33940025D01*
X88261865Y-33869453D01*
X88118604Y-33825996D01*
X88006951Y-33814999D01*
X88006940Y-33814999D01*
X87969618Y-33811323D01*
X87932296Y-33814999D01*
X84485321Y-33814999D01*
X84447998Y-33811323D01*
X84410675Y-33814999D01*
X84410666Y-33814999D01*
X84299013Y-33825996D01*
X84155752Y-33869453D01*
X84023723Y-33940025D01*
X84007684Y-33953188D01*
X83936995Y-34011200D01*
X83936991Y-34011204D01*
X83907998Y-34034998D01*
X83884204Y-34063992D01*
X83650358Y-34297838D01*
X83629978Y-34301892D01*
X83485000Y-34361944D01*
X83340022Y-34301892D01*
X83154552Y-34265000D01*
X82965448Y-34265000D01*
X82779978Y-34301892D01*
X82688571Y-34339754D01*
X82621509Y-34214290D01*
X82485922Y-34049078D01*
X82320710Y-33913491D01*
X82132220Y-33812741D01*
X81927697Y-33750700D01*
X81715000Y-33729751D01*
X81502304Y-33750700D01*
X81297781Y-33812741D01*
X81109291Y-33913491D01*
X80944079Y-34049078D01*
X80808492Y-34214290D01*
X80707742Y-34402780D01*
X80645700Y-34607303D01*
X80630000Y-34766706D01*
X80630000Y-36373293D01*
X80636570Y-36440001D01*
X80564804Y-36440001D01*
X79002364Y-34877563D01*
X79070537Y-34794494D01*
X79129502Y-34684180D01*
X79165812Y-34564482D01*
X79178072Y-34440000D01*
X79178072Y-32840000D01*
X79165812Y-32715518D01*
X79129502Y-32595820D01*
X79070537Y-32485506D01*
X78991185Y-32388815D01*
X78894494Y-32309463D01*
X78784180Y-32250498D01*
X78664482Y-32214188D01*
X78540000Y-32201928D01*
X76940000Y-32201928D01*
X76815518Y-32214188D01*
X76695820Y-32250498D01*
X76585506Y-32309463D01*
X76488815Y-32388815D01*
X76409463Y-32485506D01*
X76350498Y-32595820D01*
X76314188Y-32715518D01*
X76301928Y-32840000D01*
X76301928Y-34440000D01*
X76314188Y-34564482D01*
X76350498Y-34684180D01*
X76409463Y-34794494D01*
X76488815Y-34891185D01*
X76585506Y-34970537D01*
X76695820Y-35029502D01*
X76815518Y-35065812D01*
X76940000Y-35078072D01*
X77085674Y-35078072D01*
X77105026Y-35114276D01*
X77176201Y-35201002D01*
X77200000Y-35230001D01*
X77228998Y-35253799D01*
X79686206Y-37711009D01*
X79710000Y-37740002D01*
X79738993Y-37763796D01*
X79738997Y-37763800D01*
X79769581Y-37788899D01*
X79825725Y-37834975D01*
X79957754Y-37905547D01*
X80101015Y-37949004D01*
X80212668Y-37960001D01*
X80212677Y-37960001D01*
X80250000Y-37963677D01*
X80287323Y-37960001D01*
X81969612Y-37960001D01*
X81927818Y-38038192D01*
X81845764Y-38308691D01*
X81818057Y-38590000D01*
X81845764Y-38871309D01*
X81927818Y-39141808D01*
X82061068Y-39391101D01*
X82240392Y-39609608D01*
X82458899Y-39788932D01*
X82708192Y-39922182D01*
X82978691Y-40004236D01*
X83189508Y-40025000D01*
X83330492Y-40025000D01*
X83534184Y-40004938D01*
X83320392Y-40180392D01*
X83141068Y-40398899D01*
X83007818Y-40648192D01*
X82925764Y-40918691D01*
X82898057Y-41200000D01*
X82925764Y-41481309D01*
X83007818Y-41751808D01*
X83055137Y-41840335D01*
X82740708Y-41525906D01*
X82754236Y-41481309D01*
X82781943Y-41200000D01*
X82754236Y-40918691D01*
X82672182Y-40648192D01*
X82538932Y-40398899D01*
X82359608Y-40180392D01*
X82141101Y-40001068D01*
X81891808Y-39867818D01*
X81621309Y-39785764D01*
X81410492Y-39765000D01*
X81269508Y-39765000D01*
X81058691Y-39785764D01*
X80788192Y-39867818D01*
X80538899Y-40001068D01*
X80320392Y-40180392D01*
X80141068Y-40398899D01*
X80007818Y-40648192D01*
X79925764Y-40918691D01*
X79898057Y-41200000D01*
X79925764Y-41481309D01*
X80007818Y-41751808D01*
X80055136Y-41840335D01*
X79740708Y-41525906D01*
X79754236Y-41481309D01*
X79781943Y-41200000D01*
X79754236Y-40918691D01*
X79672182Y-40648192D01*
X79538932Y-40398899D01*
X79359608Y-40180392D01*
X79141101Y-40001068D01*
X78891808Y-39867818D01*
X78621309Y-39785764D01*
X78410492Y-39765000D01*
X78269508Y-39765000D01*
X78058691Y-39785764D01*
X77788192Y-39867818D01*
X77538899Y-40001068D01*
X77320392Y-40180392D01*
X77141068Y-40398899D01*
X77007818Y-40648192D01*
X76925764Y-40918691D01*
X76898057Y-41200000D01*
X76925764Y-41481309D01*
X77007818Y-41751808D01*
X77055136Y-41840335D01*
X76740708Y-41525906D01*
X76754236Y-41481309D01*
X76781943Y-41200000D01*
X76754236Y-40918691D01*
X76672182Y-40648192D01*
X76538932Y-40398899D01*
X76359608Y-40180392D01*
X76141101Y-40001068D01*
X76072168Y-39964222D01*
X76319727Y-39861680D01*
X76554759Y-39704637D01*
X76754637Y-39504759D01*
X76911680Y-39269727D01*
X77019853Y-39008574D01*
X77075000Y-38731335D01*
X77075000Y-38448665D01*
X77019853Y-38171426D01*
X76911680Y-37910273D01*
X76754637Y-37675241D01*
X76554759Y-37475363D01*
X76319727Y-37318320D01*
X76058574Y-37210147D01*
X75781335Y-37155000D01*
X75498665Y-37155000D01*
X75221426Y-37210147D01*
X74960273Y-37318320D01*
X74725241Y-37475363D01*
X74590000Y-37610604D01*
X74454759Y-37475363D01*
X74219727Y-37318320D01*
X73958574Y-37210147D01*
X73681335Y-37155000D01*
X73398665Y-37155000D01*
X73121426Y-37210147D01*
X72860273Y-37318320D01*
X72625241Y-37475363D01*
X72425363Y-37675241D01*
X72268320Y-37910273D01*
X72160147Y-38171426D01*
X72105000Y-38448665D01*
X72105000Y-38731335D01*
X72160147Y-39008574D01*
X72268320Y-39269727D01*
X72425363Y-39504759D01*
X72625241Y-39704637D01*
X72850877Y-39855402D01*
X72621309Y-39785764D01*
X72410492Y-39765000D01*
X72269508Y-39765000D01*
X72058691Y-39785764D01*
X71788192Y-39867818D01*
X71538899Y-40001068D01*
X71320392Y-40180392D01*
X71141068Y-40398899D01*
X71007818Y-40648192D01*
X70925764Y-40918691D01*
X70898057Y-41200000D01*
X70781943Y-41200000D01*
X70754236Y-40918691D01*
X70672182Y-40648192D01*
X70538932Y-40398899D01*
X70359608Y-40180392D01*
X70141101Y-40001068D01*
X69891808Y-39867818D01*
X69621309Y-39785764D01*
X69410492Y-39765000D01*
X69269508Y-39765000D01*
X69058691Y-39785764D01*
X68788192Y-39867818D01*
X68538899Y-40001068D01*
X68320392Y-40180392D01*
X68141068Y-40398899D01*
X68007818Y-40648192D01*
X67925764Y-40918691D01*
X67898057Y-41200000D01*
X67781943Y-41200000D01*
X67754236Y-40918691D01*
X67672182Y-40648192D01*
X67538932Y-40398899D01*
X67359608Y-40180392D01*
X67141101Y-40001068D01*
X66891808Y-39867818D01*
X66688753Y-39806223D01*
X66721101Y-39788932D01*
X66939608Y-39609608D01*
X67118932Y-39391101D01*
X67252182Y-39141808D01*
X67334236Y-38871309D01*
X67361943Y-38590000D01*
X67334236Y-38308691D01*
X67252182Y-38038192D01*
X67118932Y-37788899D01*
X66939608Y-37570392D01*
X66721101Y-37391068D01*
X66471808Y-37257818D01*
X66201309Y-37175764D01*
X65990492Y-37155000D01*
X65849508Y-37155000D01*
X65638691Y-37175764D01*
X65368192Y-37257818D01*
X65118899Y-37391068D01*
X64900392Y-37570392D01*
X64721068Y-37788899D01*
X64587818Y-38038192D01*
X64505764Y-38308691D01*
X64478057Y-38590000D01*
X63660000Y-38590000D01*
X63660000Y-33274464D01*
X63762463Y-33521831D01*
X63952337Y-33805998D01*
X64194002Y-34047663D01*
X64478169Y-34237537D01*
X64793919Y-34368325D01*
X65129117Y-34435000D01*
X65470883Y-34435000D01*
X65806081Y-34368325D01*
X66121831Y-34237537D01*
X66405998Y-34047663D01*
X66464622Y-33989039D01*
X68728096Y-33989039D01*
X68768754Y-34123087D01*
X68888963Y-34377420D01*
X69056481Y-34603414D01*
X69264869Y-34792385D01*
X69506119Y-34937070D01*
X69770960Y-35031909D01*
X69993000Y-34910624D01*
X69993000Y-33767000D01*
X70247000Y-33767000D01*
X70247000Y-34910624D01*
X70469040Y-35031909D01*
X70733881Y-34937070D01*
X70975131Y-34792385D01*
X71183519Y-34603414D01*
X71351037Y-34377420D01*
X71471246Y-34123087D01*
X71511904Y-33989039D01*
X71389915Y-33767000D01*
X70247000Y-33767000D01*
X69993000Y-33767000D01*
X68850085Y-33767000D01*
X68728096Y-33989039D01*
X66464622Y-33989039D01*
X66647663Y-33805998D01*
X66837537Y-33521831D01*
X66933166Y-33290961D01*
X68728096Y-33290961D01*
X68850085Y-33513000D01*
X69993000Y-33513000D01*
X69993000Y-32369376D01*
X70247000Y-32369376D01*
X70247000Y-33513000D01*
X71389915Y-33513000D01*
X71511904Y-33290961D01*
X71471246Y-33156913D01*
X71351037Y-32902580D01*
X71183519Y-32676586D01*
X70975131Y-32487615D01*
X70733881Y-32342930D01*
X70469040Y-32248091D01*
X70247000Y-32369376D01*
X69993000Y-32369376D01*
X69770960Y-32248091D01*
X69506119Y-32342930D01*
X69264869Y-32487615D01*
X69056481Y-32676586D01*
X68888963Y-32902580D01*
X68768754Y-33156913D01*
X68728096Y-33290961D01*
X66933166Y-33290961D01*
X66968325Y-33206081D01*
X67035000Y-32870883D01*
X67035000Y-32529117D01*
X66968325Y-32193919D01*
X66837537Y-31878169D01*
X66647663Y-31594002D01*
X66405998Y-31352337D01*
X66121831Y-31162463D01*
X65874464Y-31060000D01*
X80910495Y-31060000D01*
X80808492Y-31184290D01*
X80808492Y-31184290D01*
G37*
X80808492Y-31184290D02*
X80707742Y-31372780D01*
X80645700Y-31577303D01*
X80630000Y-31736706D01*
X80630000Y-32643293D01*
X80645700Y-32802696D01*
X80707741Y-33007219D01*
X80808491Y-33195710D01*
X80944078Y-33360922D01*
X81109290Y-33496509D01*
X81297780Y-33597259D01*
X81502303Y-33659300D01*
X81715000Y-33680249D01*
X81927696Y-33659300D01*
X82132219Y-33597259D01*
X82320710Y-33496509D01*
X82485922Y-33360922D01*
X82621509Y-33195710D01*
X82722259Y-33007220D01*
X82784300Y-32802697D01*
X82800000Y-32643294D01*
X82800000Y-31736707D01*
X82784300Y-31577304D01*
X82722259Y-31372780D01*
X82621509Y-31184290D01*
X82519506Y-31060000D01*
X89560495Y-31060000D01*
X89458492Y-31184290D01*
X89357742Y-31372780D01*
X89295700Y-31577303D01*
X89280000Y-31736706D01*
X89280000Y-32643293D01*
X89295700Y-32802696D01*
X89357741Y-33007219D01*
X89458491Y-33195710D01*
X89594078Y-33360922D01*
X89759290Y-33496509D01*
X89947780Y-33597259D01*
X90152303Y-33659300D01*
X90365000Y-33680249D01*
X90577696Y-33659300D01*
X90782219Y-33597259D01*
X90970710Y-33496509D01*
X91114118Y-33378816D01*
X92265000Y-33378816D01*
X92265000Y-33681184D01*
X92323989Y-33977743D01*
X92439701Y-34257095D01*
X92607688Y-34508505D01*
X92821495Y-34722312D01*
X93072905Y-34890299D01*
X93352257Y-35006011D01*
X93648816Y-35065000D01*
X93951184Y-35065000D01*
X94247743Y-35006011D01*
X94527095Y-34890299D01*
X94778505Y-34722312D01*
X94844944Y-34655873D01*
X94850498Y-34674180D01*
X94909463Y-34784494D01*
X94988815Y-34881185D01*
X95085506Y-34960537D01*
X95195820Y-35019502D01*
X95315518Y-35055812D01*
X95440000Y-35068072D01*
X97240000Y-35068072D01*
X97364482Y-35055812D01*
X97484180Y-35019502D01*
X97594494Y-34960537D01*
X97691185Y-34881185D01*
X97770537Y-34784494D01*
X97829502Y-34674180D01*
X97865812Y-34554482D01*
X97878072Y-34430000D01*
X97878072Y-33378816D01*
X98765000Y-33378816D01*
X98765000Y-33681184D01*
X98823989Y-33977743D01*
X98939701Y-34257095D01*
X99107688Y-34508505D01*
X99321495Y-34722312D01*
X99572905Y-34890299D01*
X99852257Y-35006011D01*
X100148816Y-35065000D01*
X100451184Y-35065000D01*
X100747743Y-35006011D01*
X101027095Y-34890299D01*
X101278505Y-34722312D01*
X101344944Y-34655873D01*
X101350498Y-34674180D01*
X101409463Y-34784494D01*
X101488815Y-34881185D01*
X101585506Y-34960537D01*
X101695820Y-35019502D01*
X101815518Y-35055812D01*
X101940000Y-35068072D01*
X103740000Y-35068072D01*
X103864482Y-35055812D01*
X103984180Y-35019502D01*
X104094494Y-34960537D01*
X104191185Y-34881185D01*
X104270537Y-34784494D01*
X104329502Y-34674180D01*
X104365812Y-34554482D01*
X104378072Y-34430000D01*
X104378072Y-33378816D01*
X105265000Y-33378816D01*
X105265000Y-33681184D01*
X105323989Y-33977743D01*
X105439701Y-34257095D01*
X105607688Y-34508505D01*
X105821495Y-34722312D01*
X106072905Y-34890299D01*
X106352257Y-35006011D01*
X106648816Y-35065000D01*
X106951184Y-35065000D01*
X107247743Y-35006011D01*
X107527095Y-34890299D01*
X107778505Y-34722312D01*
X107844944Y-34655873D01*
X107850498Y-34674180D01*
X107909463Y-34784494D01*
X107988815Y-34881185D01*
X108085506Y-34960537D01*
X108195820Y-35019502D01*
X108315518Y-35055812D01*
X108440000Y-35068072D01*
X110240000Y-35068072D01*
X110364482Y-35055812D01*
X110484180Y-35019502D01*
X110594494Y-34960537D01*
X110691185Y-34881185D01*
X110770537Y-34784494D01*
X110829502Y-34674180D01*
X110865812Y-34554482D01*
X110878072Y-34430000D01*
X110878072Y-32630000D01*
X110865812Y-32505518D01*
X110829502Y-32385820D01*
X110770537Y-32275506D01*
X110691185Y-32178815D01*
X110594494Y-32099463D01*
X110484180Y-32040498D01*
X110364482Y-32004188D01*
X110240000Y-31991928D01*
X108440000Y-31991928D01*
X108315518Y-32004188D01*
X108195820Y-32040498D01*
X108085506Y-32099463D01*
X107988815Y-32178815D01*
X107909463Y-32275506D01*
X107850498Y-32385820D01*
X107844944Y-32404127D01*
X107778505Y-32337688D01*
X107527095Y-32169701D01*
X107247743Y-32053989D01*
X106951184Y-31995000D01*
X106648816Y-31995000D01*
X106352257Y-32053989D01*
X106072905Y-32169701D01*
X105821495Y-32337688D01*
X105607688Y-32551495D01*
X105439701Y-32802905D01*
X105323989Y-33082257D01*
X105265000Y-33378816D01*
X104378072Y-33378816D01*
X104378072Y-32630000D01*
X104365812Y-32505518D01*
X104329502Y-32385820D01*
X104270537Y-32275506D01*
X104191185Y-32178815D01*
X104094494Y-32099463D01*
X103984180Y-32040498D01*
X103864482Y-32004188D01*
X103740000Y-31991928D01*
X101940000Y-31991928D01*
X101815518Y-32004188D01*
X101695820Y-32040498D01*
X101585506Y-32099463D01*
X101488815Y-32178815D01*
X101409463Y-32275506D01*
X101350498Y-32385820D01*
X101344944Y-32404127D01*
X101278505Y-32337688D01*
X101027095Y-32169701D01*
X100747743Y-32053989D01*
X100451184Y-31995000D01*
X100148816Y-31995000D01*
X99852257Y-32053989D01*
X99572905Y-32169701D01*
X99321495Y-32337688D01*
X99107688Y-32551495D01*
X98939701Y-32802905D01*
X98823989Y-33082257D01*
X98765000Y-33378816D01*
X97878072Y-33378816D01*
X97878072Y-32630000D01*
X97865812Y-32505518D01*
X97829502Y-32385820D01*
X97770537Y-32275506D01*
X97691185Y-32178815D01*
X97594494Y-32099463D01*
X97484180Y-32040498D01*
X97364482Y-32004188D01*
X97240000Y-31991928D01*
X95440000Y-31991928D01*
X95315518Y-32004188D01*
X95195820Y-32040498D01*
X95085506Y-32099463D01*
X94988815Y-32178815D01*
X94909463Y-32275506D01*
X94850498Y-32385820D01*
X94844944Y-32404127D01*
X94778505Y-32337688D01*
X94527095Y-32169701D01*
X94247743Y-32053989D01*
X93951184Y-31995000D01*
X93648816Y-31995000D01*
X93352257Y-32053989D01*
X93072905Y-32169701D01*
X92821495Y-32337688D01*
X92607688Y-32551495D01*
X92439701Y-32802905D01*
X92323989Y-33082257D01*
X92265000Y-33378816D01*
X91114118Y-33378816D01*
X91135922Y-33360922D01*
X91271509Y-33195710D01*
X91372259Y-33007220D01*
X91434300Y-32802697D01*
X91450000Y-32643294D01*
X91450000Y-31736707D01*
X91434300Y-31577304D01*
X91372259Y-31372780D01*
X91271509Y-31184290D01*
X91169506Y-31060000D01*
X114125536Y-31060000D01*
X113878169Y-31162463D01*
X113594002Y-31352337D01*
X113352337Y-31594002D01*
X113162463Y-31878169D01*
X113031675Y-32193919D01*
X112965000Y-32529117D01*
X112965000Y-32870883D01*
X113031675Y-33206081D01*
X113162463Y-33521831D01*
X113352337Y-33805998D01*
X113594002Y-34047663D01*
X113878169Y-34237537D01*
X114193919Y-34368325D01*
X114529117Y-34435000D01*
X114870883Y-34435000D01*
X115206081Y-34368325D01*
X115521831Y-34237537D01*
X115805998Y-34047663D01*
X116047663Y-33805998D01*
X116237537Y-33521831D01*
X116340000Y-33274464D01*
X116340001Y-97125539D01*
X116237537Y-96878169D01*
X116047663Y-96594002D01*
X115805998Y-96352337D01*
X115521831Y-96162463D01*
X115206081Y-96031675D01*
X114870883Y-95965000D01*
X114529117Y-95965000D01*
X114193919Y-96031675D01*
X113878169Y-96162463D01*
X113594002Y-96352337D01*
X113352337Y-96594002D01*
X113162463Y-96878169D01*
X113031675Y-97193919D01*
X112965000Y-97529117D01*
X112965000Y-97870883D01*
X113031675Y-98206081D01*
X113162463Y-98521831D01*
X113352337Y-98805998D01*
X113594002Y-99047663D01*
X113878169Y-99237537D01*
X114125536Y-99340000D01*
X103112381Y-99340000D01*
X103112381Y-98317360D01*
X103402245Y-98317360D01*
X103515264Y-98596384D01*
X103829249Y-98751556D01*
X104167473Y-98842491D01*
X104516938Y-98865694D01*
X104864216Y-98820275D01*
X105195960Y-98707977D01*
X105404736Y-98596384D01*
X105517755Y-98317360D01*
X104460000Y-97259605D01*
X103402245Y-98317360D01*
X103112381Y-98317360D01*
X103112381Y-98230000D01*
X103327857Y-98230000D01*
X103327857Y-98032538D01*
X104280395Y-97080000D01*
X104639605Y-97080000D01*
X105697360Y-98137755D01*
X105976384Y-98024736D01*
X106131556Y-97710751D01*
X106222491Y-97372527D01*
X106245694Y-97023062D01*
X106200275Y-96675784D01*
X106087977Y-96344040D01*
X105976384Y-96135264D01*
X105697360Y-96022245D01*
X104639605Y-97080000D01*
X104280395Y-97080000D01*
X104266253Y-97065858D01*
X104445858Y-96886253D01*
X104460000Y-96900395D01*
X105517755Y-95842640D01*
X105404736Y-95563616D01*
X105090751Y-95408444D01*
X104752527Y-95317509D01*
X104488820Y-95300000D01*
X109200309Y-95300000D01*
X109234357Y-95382199D01*
X109428937Y-95673409D01*
X109676591Y-95921063D01*
X109967801Y-96115643D01*
X110291377Y-96249672D01*
X110634882Y-96318000D01*
X110985118Y-96318000D01*
X111328623Y-96249672D01*
X111652199Y-96115643D01*
X111943409Y-95921063D01*
X112191063Y-95673409D01*
X112385643Y-95382199D01*
X112519672Y-95058623D01*
X112588000Y-94715118D01*
X112588000Y-94364882D01*
X112519672Y-94021377D01*
X112385643Y-93697801D01*
X112241978Y-93482791D01*
X112513421Y-93428798D01*
X112783838Y-93316788D01*
X113027206Y-93154174D01*
X113234174Y-92947206D01*
X113396788Y-92703838D01*
X113508798Y-92433421D01*
X113565900Y-92146348D01*
X113565900Y-91853652D01*
X113508798Y-91566579D01*
X113396788Y-91296162D01*
X113234174Y-91052794D01*
X113027206Y-90845826D01*
X112783838Y-90683212D01*
X112513421Y-90571202D01*
X112226348Y-90514100D01*
X111933652Y-90514100D01*
X111646579Y-90571202D01*
X111376162Y-90683212D01*
X111132794Y-90845826D01*
X110925826Y-91052794D01*
X110763212Y-91296162D01*
X110651202Y-91566579D01*
X110594100Y-91853652D01*
X110594100Y-92146348D01*
X110651202Y-92433421D01*
X110763212Y-92703838D01*
X110802075Y-92762000D01*
X110634882Y-92762000D01*
X110291377Y-92830328D01*
X109967801Y-92964357D01*
X109676591Y-93158937D01*
X109428937Y-93406591D01*
X109234357Y-93697801D01*
X109200309Y-93780000D01*
X108937826Y-93780000D01*
X109042000Y-93675826D01*
X109329701Y-93245251D01*
X109527873Y-92766822D01*
X109628900Y-92258924D01*
X109628900Y-91741076D01*
X109527873Y-91233178D01*
X109329701Y-90754749D01*
X109042000Y-90324174D01*
X108675826Y-89958000D01*
X108245251Y-89670299D01*
X107766822Y-89472127D01*
X107258924Y-89371100D01*
X106741076Y-89371100D01*
X106233178Y-89472127D01*
X105754749Y-89670299D01*
X105324174Y-89958000D01*
X105253763Y-90028411D01*
X105325000Y-89670279D01*
X105325000Y-89249721D01*
X105242953Y-88837244D01*
X105082012Y-88448698D01*
X104848363Y-88099017D01*
X104550983Y-87801637D01*
X104201302Y-87567988D01*
X103812756Y-87407047D01*
X103400279Y-87325000D01*
X102979721Y-87325000D01*
X102567244Y-87407047D01*
X102178698Y-87567988D01*
X101829017Y-87801637D01*
X101531637Y-88099017D01*
X101353072Y-88366259D01*
X101353072Y-88210000D01*
X101340812Y-88085518D01*
X101304502Y-87965820D01*
X101245537Y-87855506D01*
X101166185Y-87758815D01*
X101069494Y-87679463D01*
X100959180Y-87620498D01*
X100839482Y-87584188D01*
X100715000Y-87571928D01*
X98201167Y-87571928D01*
X98200000Y-87205750D01*
X98041250Y-87047000D01*
X96417000Y-87047000D01*
X96417000Y-88646250D01*
X96575750Y-88805000D01*
X97526928Y-88807954D01*
X97526928Y-90710000D01*
X97539188Y-90834482D01*
X97575498Y-90954180D01*
X97634463Y-91064494D01*
X97713815Y-91161185D01*
X97810506Y-91240537D01*
X97920820Y-91299502D01*
X98040518Y-91335812D01*
X98165000Y-91348072D01*
X98684965Y-91348072D01*
X98690997Y-91409319D01*
X98734454Y-91552580D01*
X98805026Y-91684610D01*
X98825045Y-91709003D01*
X98899999Y-91800335D01*
X98929003Y-91824138D01*
X101514864Y-94410000D01*
X95588000Y-94410000D01*
X95588000Y-94364882D01*
X95519672Y-94021377D01*
X95385643Y-93697801D01*
X95241978Y-93482791D01*
X95513421Y-93428798D01*
X95783838Y-93316788D01*
X96027206Y-93154174D01*
X96234174Y-92947206D01*
X96396788Y-92703838D01*
X96508798Y-92433421D01*
X96565900Y-92146348D01*
X96565900Y-91853652D01*
X96508798Y-91566579D01*
X96396788Y-91296162D01*
X96234174Y-91052794D01*
X96027206Y-90845826D01*
X95783838Y-90683212D01*
X95513421Y-90571202D01*
X95226348Y-90514100D01*
X94933652Y-90514100D01*
X94646579Y-90571202D01*
X94376162Y-90683212D01*
X94132794Y-90845826D01*
X93925826Y-91052794D01*
X93763212Y-91296162D01*
X93651202Y-91566579D01*
X93594100Y-91853652D01*
X93594100Y-92146348D01*
X93651202Y-92433421D01*
X93763212Y-92703838D01*
X93802075Y-92762000D01*
X93634882Y-92762000D01*
X93291377Y-92830328D01*
X92967801Y-92964357D01*
X92676591Y-93158937D01*
X92428937Y-93406591D01*
X92234357Y-93697801D01*
X92200309Y-93780000D01*
X91937826Y-93780000D01*
X92042000Y-93675826D01*
X92329701Y-93245251D01*
X92527873Y-92766822D01*
X92628900Y-92258924D01*
X92628900Y-91741076D01*
X92527873Y-91233178D01*
X92329701Y-90754749D01*
X92042000Y-90324174D01*
X91675826Y-89958000D01*
X91245251Y-89670299D01*
X90766822Y-89472127D01*
X90258924Y-89371100D01*
X89741076Y-89371100D01*
X89233178Y-89472127D01*
X88754749Y-89670299D01*
X88324174Y-89958000D01*
X88253763Y-90028411D01*
X88325000Y-89670279D01*
X88325000Y-89249721D01*
X88242953Y-88837244D01*
X88082012Y-88448698D01*
X87848363Y-88099017D01*
X87550983Y-87801637D01*
X87201302Y-87567988D01*
X86812756Y-87407047D01*
X86400279Y-87325000D01*
X85979721Y-87325000D01*
X85567244Y-87407047D01*
X85178698Y-87567988D01*
X84829017Y-87801637D01*
X84531637Y-88099017D01*
X84353072Y-88366259D01*
X84353072Y-88210000D01*
X84340812Y-88085518D01*
X84304502Y-87965820D01*
X84245537Y-87855506D01*
X84166185Y-87758815D01*
X84069494Y-87679463D01*
X83959180Y-87620498D01*
X83839482Y-87584188D01*
X83715000Y-87571928D01*
X81201167Y-87571928D01*
X81200000Y-87205750D01*
X81041250Y-87047000D01*
X79417000Y-87047000D01*
X79417000Y-88646250D01*
X79575750Y-88805000D01*
X80526928Y-88807954D01*
X80526928Y-90710000D01*
X80539188Y-90834482D01*
X80575498Y-90954180D01*
X80634463Y-91064494D01*
X80713815Y-91161185D01*
X80810506Y-91240537D01*
X80920820Y-91299502D01*
X81040518Y-91335812D01*
X81165000Y-91348072D01*
X81684965Y-91348072D01*
X81690997Y-91409319D01*
X81734454Y-91552580D01*
X81805026Y-91684610D01*
X81825045Y-91709003D01*
X81899999Y-91800335D01*
X81929003Y-91824138D01*
X85155867Y-95051003D01*
X85179665Y-95080001D01*
X85208663Y-95103799D01*
X85295389Y-95174974D01*
X85427419Y-95245546D01*
X85570680Y-95289003D01*
X85682333Y-95300000D01*
X85682342Y-95300000D01*
X85719665Y-95303676D01*
X85756988Y-95300000D01*
X87359525Y-95300000D01*
X87055784Y-95339725D01*
X86724040Y-95452023D01*
X86515264Y-95563616D01*
X86402245Y-95842640D01*
X87460000Y-96900395D01*
X88517755Y-95842640D01*
X88404736Y-95563616D01*
X88090751Y-95408444D01*
X87752527Y-95317509D01*
X87488820Y-95300000D01*
X92200309Y-95300000D01*
X92234357Y-95382199D01*
X92428937Y-95673409D01*
X92676591Y-95921063D01*
X92967801Y-96115643D01*
X93291377Y-96249672D01*
X93634882Y-96318000D01*
X93985118Y-96318000D01*
X94328623Y-96249672D01*
X94472143Y-96190224D01*
X94472143Y-98230000D01*
X95687619Y-98230000D01*
X95687619Y-99340000D01*
X65874464Y-99340000D01*
X66121831Y-99237537D01*
X66405998Y-99047663D01*
X66647663Y-98805998D01*
X66837537Y-98521831D01*
X66922231Y-98317360D01*
X69402245Y-98317360D01*
X69515264Y-98596384D01*
X69829249Y-98751556D01*
X70167473Y-98842491D01*
X70516938Y-98865694D01*
X70864216Y-98820275D01*
X71195960Y-98707977D01*
X71404736Y-98596384D01*
X71517755Y-98317360D01*
X86402245Y-98317360D01*
X86515264Y-98596384D01*
X86829249Y-98751556D01*
X87167473Y-98842491D01*
X87516938Y-98865694D01*
X87864216Y-98820275D01*
X88195960Y-98707977D01*
X88404736Y-98596384D01*
X88517755Y-98317360D01*
X87460000Y-97259605D01*
X86402245Y-98317360D01*
X71517755Y-98317360D01*
X70460000Y-97259605D01*
X69402245Y-98317360D01*
X66922231Y-98317360D01*
X66968325Y-98206081D01*
X67035000Y-97870883D01*
X67035000Y-97529117D01*
X66968325Y-97193919D01*
X66944723Y-97136938D01*
X68674306Y-97136938D01*
X68719725Y-97484216D01*
X68832023Y-97815960D01*
X68943616Y-98024736D01*
X69222640Y-98137755D01*
X70280395Y-97080000D01*
X70639605Y-97080000D01*
X71697360Y-98137755D01*
X71976384Y-98024736D01*
X72131556Y-97710751D01*
X72222491Y-97372527D01*
X72238133Y-97136938D01*
X85674306Y-97136938D01*
X85719725Y-97484216D01*
X85832023Y-97815960D01*
X85943616Y-98024736D01*
X86222640Y-98137755D01*
X87280395Y-97080000D01*
X87639605Y-97080000D01*
X88697360Y-98137755D01*
X88976384Y-98024736D01*
X89131556Y-97710751D01*
X89222491Y-97372527D01*
X89245694Y-97023062D01*
X89200275Y-96675784D01*
X89087977Y-96344040D01*
X88976384Y-96135264D01*
X88697360Y-96022245D01*
X87639605Y-97080000D01*
X87280395Y-97080000D01*
X86222640Y-96022245D01*
X85943616Y-96135264D01*
X85788444Y-96449249D01*
X85697509Y-96787473D01*
X85674306Y-97136938D01*
X72238133Y-97136938D01*
X72245694Y-97023062D01*
X72200275Y-96675784D01*
X72087977Y-96344040D01*
X71976384Y-96135264D01*
X71697360Y-96022245D01*
X70639605Y-97080000D01*
X70280395Y-97080000D01*
X69222640Y-96022245D01*
X68943616Y-96135264D01*
X68788444Y-96449249D01*
X68697509Y-96787473D01*
X68674306Y-97136938D01*
X66944723Y-97136938D01*
X66837537Y-96878169D01*
X66647663Y-96594002D01*
X66405998Y-96352337D01*
X66121831Y-96162463D01*
X65806081Y-96031675D01*
X65470883Y-95965000D01*
X65129117Y-95965000D01*
X64793919Y-96031675D01*
X64478169Y-96162463D01*
X64194002Y-96352337D01*
X63952337Y-96594002D01*
X63762463Y-96878169D01*
X63660000Y-97125536D01*
X63660000Y-91095611D01*
X63713815Y-91161185D01*
X63810506Y-91240537D01*
X63920820Y-91299502D01*
X64040518Y-91335812D01*
X64165000Y-91348072D01*
X64684965Y-91348072D01*
X64690997Y-91409319D01*
X64734454Y-91552580D01*
X64805026Y-91684610D01*
X64825045Y-91709003D01*
X64899999Y-91800335D01*
X64929003Y-91824138D01*
X68155867Y-95051003D01*
X68179665Y-95080001D01*
X68208663Y-95103799D01*
X68295389Y-95174974D01*
X68427419Y-95245546D01*
X68570680Y-95289003D01*
X68682333Y-95300000D01*
X68682342Y-95300000D01*
X68719665Y-95303676D01*
X68756988Y-95300000D01*
X70359525Y-95300000D01*
X70055784Y-95339725D01*
X69724040Y-95452023D01*
X69515264Y-95563616D01*
X69402245Y-95842640D01*
X70460000Y-96900395D01*
X71517755Y-95842640D01*
X71404736Y-95563616D01*
X71090751Y-95408444D01*
X70752527Y-95317509D01*
X70488820Y-95300000D01*
X75200309Y-95300000D01*
X75234357Y-95382199D01*
X75428937Y-95673409D01*
X75676591Y-95921063D01*
X75967801Y-96115643D01*
X76291377Y-96249672D01*
X76634882Y-96318000D01*
X76985118Y-96318000D01*
X77328623Y-96249672D01*
X77652199Y-96115643D01*
X77943409Y-95921063D01*
X78191063Y-95673409D01*
X78385643Y-95382199D01*
X78519672Y-95058623D01*
X78588000Y-94715118D01*
X78588000Y-94364882D01*
X78519672Y-94021377D01*
X78385643Y-93697801D01*
X78241978Y-93482791D01*
X78513421Y-93428798D01*
X78783838Y-93316788D01*
X79027206Y-93154174D01*
X79234174Y-92947206D01*
X79396788Y-92703838D01*
X79508798Y-92433421D01*
X79565900Y-92146348D01*
X79565900Y-91853652D01*
X79508798Y-91566579D01*
X79396788Y-91296162D01*
X79234174Y-91052794D01*
X79027206Y-90845826D01*
X78783838Y-90683212D01*
X78513421Y-90571202D01*
X78226348Y-90514100D01*
X77933652Y-90514100D01*
X77646579Y-90571202D01*
X77376162Y-90683212D01*
X77132794Y-90845826D01*
X76925826Y-91052794D01*
X76763212Y-91296162D01*
X76651202Y-91566579D01*
X76594100Y-91853652D01*
X76594100Y-92146348D01*
X76651202Y-92433421D01*
X76763212Y-92703838D01*
X76802075Y-92762000D01*
X76634882Y-92762000D01*
X76291377Y-92830328D01*
X75967801Y-92964357D01*
X75676591Y-93158937D01*
X75428937Y-93406591D01*
X75234357Y-93697801D01*
X75200309Y-93780000D01*
X74937826Y-93780000D01*
X75042000Y-93675826D01*
X75329701Y-93245251D01*
X75527873Y-92766822D01*
X75628900Y-92258924D01*
X75628900Y-91741076D01*
X75527873Y-91233178D01*
X75329701Y-90754749D01*
X75042000Y-90324174D01*
X74675826Y-89958000D01*
X74245251Y-89670299D01*
X73766822Y-89472127D01*
X73258924Y-89371100D01*
X72741076Y-89371100D01*
X72233178Y-89472127D01*
X71754749Y-89670299D01*
X71324174Y-89958000D01*
X71253763Y-90028411D01*
X71325000Y-89670279D01*
X71325000Y-89249721D01*
X71242953Y-88837244D01*
X71082012Y-88448698D01*
X70848363Y-88099017D01*
X70550983Y-87801637D01*
X70201302Y-87567988D01*
X69812756Y-87407047D01*
X69400279Y-87325000D01*
X68979721Y-87325000D01*
X68567244Y-87407047D01*
X68178698Y-87567988D01*
X67829017Y-87801637D01*
X67531637Y-88099017D01*
X67353072Y-88366259D01*
X67353072Y-88210000D01*
X67340812Y-88085518D01*
X67304502Y-87965820D01*
X67245537Y-87855506D01*
X67166185Y-87758815D01*
X67069494Y-87679463D01*
X66959180Y-87620498D01*
X66839482Y-87584188D01*
X66715000Y-87571928D01*
X64165000Y-87571928D01*
X64040518Y-87584188D01*
X63920820Y-87620498D01*
X63810506Y-87679463D01*
X63713815Y-87758815D01*
X63660000Y-87824389D01*
X63660000Y-86709721D01*
X73405000Y-86709721D01*
X73405000Y-87130279D01*
X73487047Y-87542756D01*
X73647988Y-87931302D01*
X73881637Y-88280983D01*
X74179017Y-88578363D01*
X74528698Y-88812012D01*
X74917244Y-88972953D01*
X75329721Y-89055000D01*
X75750279Y-89055000D01*
X76162756Y-88972953D01*
X76551302Y-88812012D01*
X76900983Y-88578363D01*
X77198363Y-88280983D01*
X77377428Y-88012993D01*
X77376928Y-88170000D01*
X77389188Y-88294482D01*
X77425498Y-88414180D01*
X77484463Y-88524494D01*
X77563815Y-88621185D01*
X77660506Y-88700537D01*
X77770820Y-88759502D01*
X77890518Y-88795812D01*
X78015000Y-88808072D01*
X79004250Y-88805000D01*
X79163000Y-88646250D01*
X79163000Y-87047000D01*
X79143000Y-87047000D01*
X79143000Y-86793000D01*
X79163000Y-86793000D01*
X79163000Y-85193750D01*
X79417000Y-85193750D01*
X79417000Y-86793000D01*
X81041250Y-86793000D01*
X81124529Y-86709721D01*
X90405000Y-86709721D01*
X90405000Y-87130279D01*
X90487047Y-87542756D01*
X90647988Y-87931302D01*
X90881637Y-88280983D01*
X91179017Y-88578363D01*
X91528698Y-88812012D01*
X91917244Y-88972953D01*
X92329721Y-89055000D01*
X92750279Y-89055000D01*
X93162756Y-88972953D01*
X93551302Y-88812012D01*
X93900983Y-88578363D01*
X94198363Y-88280983D01*
X94377428Y-88012993D01*
X94376928Y-88170000D01*
X94389188Y-88294482D01*
X94425498Y-88414180D01*
X94484463Y-88524494D01*
X94563815Y-88621185D01*
X94660506Y-88700537D01*
X94770820Y-88759502D01*
X94890518Y-88795812D01*
X95015000Y-88808072D01*
X96004250Y-88805000D01*
X96163000Y-88646250D01*
X96163000Y-87047000D01*
X96143000Y-87047000D01*
X96143000Y-86793000D01*
X96163000Y-86793000D01*
X96163000Y-85193750D01*
X96417000Y-85193750D01*
X96417000Y-86793000D01*
X98041250Y-86793000D01*
X98124529Y-86709721D01*
X107405000Y-86709721D01*
X107405000Y-87130279D01*
X107487047Y-87542756D01*
X107647988Y-87931302D01*
X107881637Y-88280983D01*
X108179017Y-88578363D01*
X108528698Y-88812012D01*
X108917244Y-88972953D01*
X109329721Y-89055000D01*
X109750279Y-89055000D01*
X110162756Y-88972953D01*
X110551302Y-88812012D01*
X110900983Y-88578363D01*
X111198363Y-88280983D01*
X111377428Y-88012993D01*
X111376928Y-88170000D01*
X111389188Y-88294482D01*
X111425498Y-88414180D01*
X111484463Y-88524494D01*
X111563815Y-88621185D01*
X111660506Y-88700537D01*
X111770820Y-88759502D01*
X111890518Y-88795812D01*
X112015000Y-88808072D01*
X113004250Y-88805000D01*
X113163000Y-88646250D01*
X113163000Y-87047000D01*
X113417000Y-87047000D01*
X113417000Y-88646250D01*
X113575750Y-88805000D01*
X114565000Y-88808072D01*
X114689482Y-88795812D01*
X114809180Y-88759502D01*
X114919494Y-88700537D01*
X115016185Y-88621185D01*
X115095537Y-88524494D01*
X115154502Y-88414180D01*
X115190812Y-88294482D01*
X115203072Y-88170000D01*
X115200000Y-87205750D01*
X115041250Y-87047000D01*
X113417000Y-87047000D01*
X113163000Y-87047000D01*
X113143000Y-87047000D01*
X113143000Y-86793000D01*
X113163000Y-86793000D01*
X113163000Y-85193750D01*
X113417000Y-85193750D01*
X113417000Y-86793000D01*
X115041250Y-86793000D01*
X115200000Y-86634250D01*
X115203072Y-85670000D01*
X115190812Y-85545518D01*
X115154502Y-85425820D01*
X115095537Y-85315506D01*
X115016185Y-85218815D01*
X114919494Y-85139463D01*
X114809180Y-85080498D01*
X114689482Y-85044188D01*
X114565000Y-85031928D01*
X113575750Y-85035000D01*
X113417000Y-85193750D01*
X113163000Y-85193750D01*
X113004250Y-85035000D01*
X112015000Y-85031928D01*
X111890518Y-85044188D01*
X111770820Y-85080498D01*
X111660506Y-85139463D01*
X111563815Y-85218815D01*
X111484463Y-85315506D01*
X111425498Y-85425820D01*
X111389188Y-85545518D01*
X111376928Y-85670000D01*
X111377428Y-85827007D01*
X111198363Y-85559017D01*
X110900983Y-85261637D01*
X110551302Y-85027988D01*
X110162756Y-84867047D01*
X109750279Y-84785000D01*
X109329721Y-84785000D01*
X108917244Y-84867047D01*
X108528698Y-85027988D01*
X108179017Y-85261637D01*
X107881637Y-85559017D01*
X107647988Y-85908698D01*
X107487047Y-86297244D01*
X107405000Y-86709721D01*
X98124529Y-86709721D01*
X98200000Y-86634250D01*
X98203072Y-85670000D01*
X98190812Y-85545518D01*
X98154502Y-85425820D01*
X98095537Y-85315506D01*
X98016185Y-85218815D01*
X97919494Y-85139463D01*
X97809180Y-85080498D01*
X97689482Y-85044188D01*
X97565000Y-85031928D01*
X96575750Y-85035000D01*
X96417000Y-85193750D01*
X96163000Y-85193750D01*
X96004250Y-85035000D01*
X95015000Y-85031928D01*
X94890518Y-85044188D01*
X94770820Y-85080498D01*
X94660506Y-85139463D01*
X94563815Y-85218815D01*
X94484463Y-85315506D01*
X94425498Y-85425820D01*
X94389188Y-85545518D01*
X94376928Y-85670000D01*
X94377428Y-85827007D01*
X94198363Y-85559017D01*
X93900983Y-85261637D01*
X93551302Y-85027988D01*
X93162756Y-84867047D01*
X92750279Y-84785000D01*
X92329721Y-84785000D01*
X91917244Y-84867047D01*
X91528698Y-85027988D01*
X91179017Y-85261637D01*
X90881637Y-85559017D01*
X90647988Y-85908698D01*
X90487047Y-86297244D01*
X90405000Y-86709721D01*
X81124529Y-86709721D01*
X81200000Y-86634250D01*
X81203072Y-85670000D01*
X81190812Y-85545518D01*
X81154502Y-85425820D01*
X81095537Y-85315506D01*
X81016185Y-85218815D01*
X80919494Y-85139463D01*
X80809180Y-85080498D01*
X80689482Y-85044188D01*
X80565000Y-85031928D01*
X79575750Y-85035000D01*
X79417000Y-85193750D01*
X79163000Y-85193750D01*
X79004250Y-85035000D01*
X78015000Y-85031928D01*
X77890518Y-85044188D01*
X77770820Y-85080498D01*
X77660506Y-85139463D01*
X77563815Y-85218815D01*
X77484463Y-85315506D01*
X77425498Y-85425820D01*
X77389188Y-85545518D01*
X77376928Y-85670000D01*
X77377428Y-85827007D01*
X77198363Y-85559017D01*
X76900983Y-85261637D01*
X76551302Y-85027988D01*
X76162756Y-84867047D01*
X75750279Y-84785000D01*
X75329721Y-84785000D01*
X74917244Y-84867047D01*
X74528698Y-85027988D01*
X74179017Y-85261637D01*
X73881637Y-85559017D01*
X73647988Y-85908698D01*
X73487047Y-86297244D01*
X73405000Y-86709721D01*
X63660000Y-86709721D01*
X63660000Y-81317360D01*
X69402245Y-81317360D01*
X69515264Y-81596384D01*
X69829249Y-81751556D01*
X70167473Y-81842491D01*
X70516938Y-81865694D01*
X70864216Y-81820275D01*
X71195960Y-81707977D01*
X71404736Y-81596384D01*
X71517755Y-81317360D01*
X86402245Y-81317360D01*
X86515264Y-81596384D01*
X86829249Y-81751556D01*
X87167473Y-81842491D01*
X87516938Y-81865694D01*
X87864216Y-81820275D01*
X88195960Y-81707977D01*
X88404736Y-81596384D01*
X88517755Y-81317360D01*
X103402245Y-81317360D01*
X103515264Y-81596384D01*
X103829249Y-81751556D01*
X104167473Y-81842491D01*
X104516938Y-81865694D01*
X104864216Y-81820275D01*
X105195960Y-81707977D01*
X105404736Y-81596384D01*
X105517755Y-81317360D01*
X104460000Y-80259605D01*
X103402245Y-81317360D01*
X88517755Y-81317360D01*
X87460000Y-80259605D01*
X86402245Y-81317360D01*
X71517755Y-81317360D01*
X70460000Y-80259605D01*
X69402245Y-81317360D01*
X63660000Y-81317360D01*
X63660000Y-80136938D01*
X68674306Y-80136938D01*
X68719725Y-80484216D01*
X68832023Y-80815960D01*
X68943616Y-81024736D01*
X69222640Y-81137755D01*
X70280395Y-80080000D01*
X70639605Y-80080000D01*
X71697360Y-81137755D01*
X71976384Y-81024736D01*
X72131556Y-80710751D01*
X72222491Y-80372527D01*
X72238133Y-80136938D01*
X85674306Y-80136938D01*
X85719725Y-80484216D01*
X85832023Y-80815960D01*
X85943616Y-81024736D01*
X86222640Y-81137755D01*
X87280395Y-80080000D01*
X87639605Y-80080000D01*
X88697360Y-81137755D01*
X88976384Y-81024736D01*
X89131556Y-80710751D01*
X89222491Y-80372527D01*
X89238133Y-80136938D01*
X102674306Y-80136938D01*
X102719725Y-80484216D01*
X102832023Y-80815960D01*
X102943616Y-81024736D01*
X103222640Y-81137755D01*
X104280395Y-80080000D01*
X104639605Y-80080000D01*
X105697360Y-81137755D01*
X105976384Y-81024736D01*
X106131556Y-80710751D01*
X106222491Y-80372527D01*
X106245694Y-80023062D01*
X106200275Y-79675784D01*
X106087977Y-79344040D01*
X105976384Y-79135264D01*
X105697360Y-79022245D01*
X104639605Y-80080000D01*
X104280395Y-80080000D01*
X103222640Y-79022245D01*
X102943616Y-79135264D01*
X102788444Y-79449249D01*
X102697509Y-79787473D01*
X102674306Y-80136938D01*
X89238133Y-80136938D01*
X89245694Y-80023062D01*
X89200275Y-79675784D01*
X89087977Y-79344040D01*
X88976384Y-79135264D01*
X88697360Y-79022245D01*
X87639605Y-80080000D01*
X87280395Y-80080000D01*
X86222640Y-79022245D01*
X85943616Y-79135264D01*
X85788444Y-79449249D01*
X85697509Y-79787473D01*
X85674306Y-80136938D01*
X72238133Y-80136938D01*
X72245694Y-80023062D01*
X72200275Y-79675784D01*
X72087977Y-79344040D01*
X71976384Y-79135264D01*
X71697360Y-79022245D01*
X70639605Y-80080000D01*
X70280395Y-80080000D01*
X69222640Y-79022245D01*
X68943616Y-79135264D01*
X68788444Y-79449249D01*
X68697509Y-79787473D01*
X68674306Y-80136938D01*
X63660000Y-80136938D01*
X63660000Y-74095611D01*
X63713815Y-74161185D01*
X63810506Y-74240537D01*
X63920820Y-74299502D01*
X64040518Y-74335812D01*
X64165000Y-74348072D01*
X64684965Y-74348072D01*
X64690997Y-74409319D01*
X64734454Y-74552580D01*
X64805026Y-74684610D01*
X64825045Y-74709003D01*
X64899999Y-74800335D01*
X64929003Y-74824138D01*
X68155867Y-78051003D01*
X68179665Y-78080001D01*
X68208663Y-78103799D01*
X68295389Y-78174974D01*
X68427419Y-78245546D01*
X68570680Y-78289003D01*
X68682333Y-78300000D01*
X68682342Y-78300000D01*
X68719665Y-78303676D01*
X68756988Y-78300000D01*
X70359525Y-78300000D01*
X70055784Y-78339725D01*
X69724040Y-78452023D01*
X69515264Y-78563616D01*
X69402245Y-78842640D01*
X70460000Y-79900395D01*
X71517755Y-78842640D01*
X71404736Y-78563616D01*
X71090751Y-78408444D01*
X70752527Y-78317509D01*
X70488820Y-78300000D01*
X75200309Y-78300000D01*
X75234357Y-78382199D01*
X75428937Y-78673409D01*
X75676591Y-78921063D01*
X75967801Y-79115643D01*
X76291377Y-79249672D01*
X76634882Y-79318000D01*
X76985118Y-79318000D01*
X77328623Y-79249672D01*
X77652199Y-79115643D01*
X77943409Y-78921063D01*
X78021832Y-78842640D01*
X86402245Y-78842640D01*
X87460000Y-79900395D01*
X88517755Y-78842640D01*
X88404736Y-78563616D01*
X88090751Y-78408444D01*
X87752527Y-78317509D01*
X87403062Y-78294306D01*
X87055784Y-78339725D01*
X86724040Y-78452023D01*
X86515264Y-78563616D01*
X86402245Y-78842640D01*
X78021832Y-78842640D01*
X78191063Y-78673409D01*
X78385643Y-78382199D01*
X78519672Y-78058623D01*
X78588000Y-77715118D01*
X78588000Y-77364882D01*
X78519672Y-77021377D01*
X78385643Y-76697801D01*
X78241978Y-76482791D01*
X78513421Y-76428798D01*
X78783838Y-76316788D01*
X79027206Y-76154174D01*
X79234174Y-75947206D01*
X79396788Y-75703838D01*
X79508798Y-75433421D01*
X79565900Y-75146348D01*
X79565900Y-74853652D01*
X79508798Y-74566579D01*
X79396788Y-74296162D01*
X79234174Y-74052794D01*
X79027206Y-73845826D01*
X78783838Y-73683212D01*
X78513421Y-73571202D01*
X78226348Y-73514100D01*
X77933652Y-73514100D01*
X77646579Y-73571202D01*
X77376162Y-73683212D01*
X77132794Y-73845826D01*
X76925826Y-74052794D01*
X76763212Y-74296162D01*
X76651202Y-74566579D01*
X76594100Y-74853652D01*
X76594100Y-75146348D01*
X76651202Y-75433421D01*
X76763212Y-75703838D01*
X76802075Y-75762000D01*
X76634882Y-75762000D01*
X76291377Y-75830328D01*
X75967801Y-75964357D01*
X75676591Y-76158937D01*
X75428937Y-76406591D01*
X75234357Y-76697801D01*
X75200309Y-76780000D01*
X74937826Y-76780000D01*
X75042000Y-76675826D01*
X75329701Y-76245251D01*
X75527873Y-75766822D01*
X75628900Y-75258924D01*
X75628900Y-74741076D01*
X75527873Y-74233178D01*
X75329701Y-73754749D01*
X75042000Y-73324174D01*
X74675826Y-72958000D01*
X74245251Y-72670299D01*
X73766822Y-72472127D01*
X73258924Y-72371100D01*
X72741076Y-72371100D01*
X72233178Y-72472127D01*
X71754749Y-72670299D01*
X71324174Y-72958000D01*
X71253763Y-73028411D01*
X71325000Y-72670279D01*
X71325000Y-72249721D01*
X71242953Y-71837244D01*
X71082012Y-71448698D01*
X70848363Y-71099017D01*
X70550983Y-70801637D01*
X70201302Y-70567988D01*
X69812756Y-70407047D01*
X69400279Y-70325000D01*
X68979721Y-70325000D01*
X68567244Y-70407047D01*
X68178698Y-70567988D01*
X67829017Y-70801637D01*
X67531637Y-71099017D01*
X67353072Y-71366259D01*
X67353072Y-71210000D01*
X67340812Y-71085518D01*
X67304502Y-70965820D01*
X67245537Y-70855506D01*
X67166185Y-70758815D01*
X67069494Y-70679463D01*
X66959180Y-70620498D01*
X66839482Y-70584188D01*
X66715000Y-70571928D01*
X64165000Y-70571928D01*
X64040518Y-70584188D01*
X63920820Y-70620498D01*
X63810506Y-70679463D01*
X63713815Y-70758815D01*
X63660000Y-70824389D01*
X63660000Y-69709721D01*
X73405000Y-69709721D01*
X73405000Y-70130279D01*
X73487047Y-70542756D01*
X73647988Y-70931302D01*
X73881637Y-71280983D01*
X74179017Y-71578363D01*
X74528698Y-71812012D01*
X74917244Y-71972953D01*
X75329721Y-72055000D01*
X75750279Y-72055000D01*
X76162756Y-71972953D01*
X76551302Y-71812012D01*
X76900983Y-71578363D01*
X77198363Y-71280983D01*
X77377428Y-71012993D01*
X77376928Y-71170000D01*
X77389188Y-71294482D01*
X77425498Y-71414180D01*
X77484463Y-71524494D01*
X77563815Y-71621185D01*
X77660506Y-71700537D01*
X77770820Y-71759502D01*
X77890518Y-71795812D01*
X78015000Y-71808072D01*
X79004250Y-71805000D01*
X79163000Y-71646250D01*
X79163000Y-70047000D01*
X79417000Y-70047000D01*
X79417000Y-71646250D01*
X79575750Y-71805000D01*
X80526928Y-71807954D01*
X80526928Y-73710000D01*
X80539188Y-73834482D01*
X80575498Y-73954180D01*
X80634463Y-74064494D01*
X80713815Y-74161185D01*
X80810506Y-74240537D01*
X80920820Y-74299502D01*
X81040518Y-74335812D01*
X81165000Y-74348072D01*
X81684965Y-74348072D01*
X81690997Y-74409319D01*
X81734454Y-74552580D01*
X81805026Y-74684610D01*
X81825045Y-74709003D01*
X81899999Y-74800335D01*
X81929003Y-74824138D01*
X84934767Y-77829903D01*
X84958566Y-77858902D01*
X84987564Y-77882700D01*
X85074290Y-77953875D01*
X85206320Y-78024447D01*
X85349581Y-78067904D01*
X85461234Y-78078901D01*
X85461244Y-78078901D01*
X85498567Y-78082577D01*
X85535890Y-78078901D01*
X92108727Y-78078901D01*
X92234357Y-78382199D01*
X92428937Y-78673409D01*
X92676591Y-78921063D01*
X92967801Y-79115643D01*
X93291377Y-79249672D01*
X93634882Y-79318000D01*
X93985118Y-79318000D01*
X94328623Y-79249672D01*
X94652199Y-79115643D01*
X94943409Y-78921063D01*
X95021832Y-78842640D01*
X103402245Y-78842640D01*
X104460000Y-79900395D01*
X105517755Y-78842640D01*
X105404736Y-78563616D01*
X105090751Y-78408444D01*
X104752527Y-78317509D01*
X104403062Y-78294306D01*
X104055784Y-78339725D01*
X103724040Y-78452023D01*
X103515264Y-78563616D01*
X103402245Y-78842640D01*
X95021832Y-78842640D01*
X95191063Y-78673409D01*
X95385643Y-78382199D01*
X95519672Y-78058623D01*
X95588000Y-77715118D01*
X95588000Y-77364882D01*
X95519672Y-77021377D01*
X95385643Y-76697801D01*
X95241978Y-76482791D01*
X95513421Y-76428798D01*
X95783838Y-76316788D01*
X96027206Y-76154174D01*
X96234174Y-75947206D01*
X96396788Y-75703838D01*
X96508798Y-75433421D01*
X96565900Y-75146348D01*
X96565900Y-74853652D01*
X96508798Y-74566579D01*
X96396788Y-74296162D01*
X96234174Y-74052794D01*
X96027206Y-73845826D01*
X95783838Y-73683212D01*
X95513421Y-73571202D01*
X95226348Y-73514100D01*
X94933652Y-73514100D01*
X94646579Y-73571202D01*
X94376162Y-73683212D01*
X94132794Y-73845826D01*
X93925826Y-74052794D01*
X93763212Y-74296162D01*
X93651202Y-74566579D01*
X93594100Y-74853652D01*
X93594100Y-75146348D01*
X93651202Y-75433421D01*
X93763212Y-75703838D01*
X93802075Y-75762000D01*
X93634882Y-75762000D01*
X93291377Y-75830328D01*
X92967801Y-75964357D01*
X92676591Y-76158937D01*
X92428937Y-76406591D01*
X92327167Y-76558901D01*
X92120127Y-76558901D01*
X92329701Y-76245251D01*
X92527873Y-75766822D01*
X92628900Y-75258924D01*
X92628900Y-74741076D01*
X92527873Y-74233178D01*
X92329701Y-73754749D01*
X92042000Y-73324174D01*
X91675826Y-72958000D01*
X91245251Y-72670299D01*
X90766822Y-72472127D01*
X90258924Y-72371100D01*
X89741076Y-72371100D01*
X89233178Y-72472127D01*
X88754749Y-72670299D01*
X88324174Y-72958000D01*
X88253763Y-73028411D01*
X88325000Y-72670279D01*
X88325000Y-72249721D01*
X88242953Y-71837244D01*
X88082012Y-71448698D01*
X87848363Y-71099017D01*
X87550983Y-70801637D01*
X87201302Y-70567988D01*
X86812756Y-70407047D01*
X86400279Y-70325000D01*
X85979721Y-70325000D01*
X85567244Y-70407047D01*
X85178698Y-70567988D01*
X84829017Y-70801637D01*
X84531637Y-71099017D01*
X84353072Y-71366259D01*
X84353072Y-71210000D01*
X84340812Y-71085518D01*
X84304502Y-70965820D01*
X84245537Y-70855506D01*
X84166185Y-70758815D01*
X84069494Y-70679463D01*
X83959180Y-70620498D01*
X83839482Y-70584188D01*
X83715000Y-70571928D01*
X81201167Y-70571928D01*
X81200000Y-70205750D01*
X81041250Y-70047000D01*
X79417000Y-70047000D01*
X79163000Y-70047000D01*
X79143000Y-70047000D01*
X79143000Y-69793000D01*
X79163000Y-69793000D01*
X79163000Y-68193750D01*
X79417000Y-68193750D01*
X79417000Y-69793000D01*
X81041250Y-69793000D01*
X81124529Y-69709721D01*
X90405000Y-69709721D01*
X90405000Y-70130279D01*
X90487047Y-70542756D01*
X90647988Y-70931302D01*
X90881637Y-71280983D01*
X91179017Y-71578363D01*
X91528698Y-71812012D01*
X91917244Y-71972953D01*
X92329721Y-72055000D01*
X92750279Y-72055000D01*
X93162756Y-71972953D01*
X93551302Y-71812012D01*
X93900983Y-71578363D01*
X94198363Y-71280983D01*
X94377428Y-71012993D01*
X94376928Y-71170000D01*
X94389188Y-71294482D01*
X94425498Y-71414180D01*
X94484463Y-71524494D01*
X94563815Y-71621185D01*
X94660506Y-71700537D01*
X94770820Y-71759502D01*
X94890518Y-71795812D01*
X95015000Y-71808072D01*
X96004250Y-71805000D01*
X96163000Y-71646250D01*
X96163000Y-70047000D01*
X96417000Y-70047000D01*
X96417000Y-71646250D01*
X96575750Y-71805000D01*
X97526928Y-71807954D01*
X97526928Y-73710000D01*
X97539188Y-73834482D01*
X97575498Y-73954180D01*
X97634463Y-74064494D01*
X97713815Y-74161185D01*
X97810506Y-74240537D01*
X97920820Y-74299502D01*
X98040518Y-74335812D01*
X98165000Y-74348072D01*
X98684965Y-74348072D01*
X98690997Y-74409319D01*
X98734454Y-74552580D01*
X98805026Y-74684610D01*
X98825045Y-74709003D01*
X98899999Y-74800335D01*
X98929003Y-74824138D01*
X101934767Y-77829903D01*
X101958566Y-77858902D01*
X101987564Y-77882700D01*
X102074290Y-77953875D01*
X102206320Y-78024447D01*
X102349581Y-78067904D01*
X102461234Y-78078901D01*
X102461244Y-78078901D01*
X102498567Y-78082577D01*
X102535890Y-78078901D01*
X109108727Y-78078901D01*
X109234357Y-78382199D01*
X109428937Y-78673409D01*
X109676591Y-78921063D01*
X109967801Y-79115643D01*
X110291377Y-79249672D01*
X110634882Y-79318000D01*
X110985118Y-79318000D01*
X111328623Y-79249672D01*
X111652199Y-79115643D01*
X111943409Y-78921063D01*
X112191063Y-78673409D01*
X112385643Y-78382199D01*
X112519672Y-78058623D01*
X112588000Y-77715118D01*
X112588000Y-77364882D01*
X112519672Y-77021377D01*
X112385643Y-76697801D01*
X112241978Y-76482791D01*
X112513421Y-76428798D01*
X112783838Y-76316788D01*
X113027206Y-76154174D01*
X113234174Y-75947206D01*
X113396788Y-75703838D01*
X113508798Y-75433421D01*
X113565900Y-75146348D01*
X113565900Y-74853652D01*
X113508798Y-74566579D01*
X113396788Y-74296162D01*
X113234174Y-74052794D01*
X113027206Y-73845826D01*
X112783838Y-73683212D01*
X112513421Y-73571202D01*
X112226348Y-73514100D01*
X111933652Y-73514100D01*
X111646579Y-73571202D01*
X111376162Y-73683212D01*
X111132794Y-73845826D01*
X110925826Y-74052794D01*
X110763212Y-74296162D01*
X110651202Y-74566579D01*
X110594100Y-74853652D01*
X110594100Y-75146348D01*
X110651202Y-75433421D01*
X110763212Y-75703838D01*
X110802075Y-75762000D01*
X110634882Y-75762000D01*
X110291377Y-75830328D01*
X109967801Y-75964357D01*
X109676591Y-76158937D01*
X109428937Y-76406591D01*
X109327167Y-76558901D01*
X109120127Y-76558901D01*
X109329701Y-76245251D01*
X109527873Y-75766822D01*
X109628900Y-75258924D01*
X109628900Y-74741076D01*
X109527873Y-74233178D01*
X109329701Y-73754749D01*
X109042000Y-73324174D01*
X108675826Y-72958000D01*
X108245251Y-72670299D01*
X107766822Y-72472127D01*
X107258924Y-72371100D01*
X106741076Y-72371100D01*
X106233178Y-72472127D01*
X105754749Y-72670299D01*
X105324174Y-72958000D01*
X105253763Y-73028411D01*
X105325000Y-72670279D01*
X105325000Y-72249721D01*
X105242953Y-71837244D01*
X105082012Y-71448698D01*
X104848363Y-71099017D01*
X104550983Y-70801637D01*
X104201302Y-70567988D01*
X103812756Y-70407047D01*
X103400279Y-70325000D01*
X102979721Y-70325000D01*
X102567244Y-70407047D01*
X102178698Y-70567988D01*
X101829017Y-70801637D01*
X101531637Y-71099017D01*
X101353072Y-71366259D01*
X101353072Y-71210000D01*
X101340812Y-71085518D01*
X101304502Y-70965820D01*
X101245537Y-70855506D01*
X101166185Y-70758815D01*
X101069494Y-70679463D01*
X100959180Y-70620498D01*
X100839482Y-70584188D01*
X100715000Y-70571928D01*
X98201167Y-70571928D01*
X98200000Y-70205750D01*
X98041250Y-70047000D01*
X96417000Y-70047000D01*
X96163000Y-70047000D01*
X96143000Y-70047000D01*
X96143000Y-69793000D01*
X96163000Y-69793000D01*
X96163000Y-68193750D01*
X96417000Y-68193750D01*
X96417000Y-69793000D01*
X98041250Y-69793000D01*
X98124529Y-69709721D01*
X107405000Y-69709721D01*
X107405000Y-70130279D01*
X107487047Y-70542756D01*
X107647988Y-70931302D01*
X107881637Y-71280983D01*
X108179017Y-71578363D01*
X108528698Y-71812012D01*
X108917244Y-71972953D01*
X109329721Y-72055000D01*
X109750279Y-72055000D01*
X110162756Y-71972953D01*
X110551302Y-71812012D01*
X110900983Y-71578363D01*
X111198363Y-71280983D01*
X111377428Y-71012993D01*
X111376928Y-71170000D01*
X111389188Y-71294482D01*
X111425498Y-71414180D01*
X111484463Y-71524494D01*
X111563815Y-71621185D01*
X111660506Y-71700537D01*
X111770820Y-71759502D01*
X111890518Y-71795812D01*
X112015000Y-71808072D01*
X113004250Y-71805000D01*
X113163000Y-71646250D01*
X113163000Y-70047000D01*
X113417000Y-70047000D01*
X113417000Y-71646250D01*
X113575750Y-71805000D01*
X114565000Y-71808072D01*
X114689482Y-71795812D01*
X114809180Y-71759502D01*
X114919494Y-71700537D01*
X115016185Y-71621185D01*
X115095537Y-71524494D01*
X115154502Y-71414180D01*
X115190812Y-71294482D01*
X115203072Y-71170000D01*
X115200000Y-70205750D01*
X115041250Y-70047000D01*
X113417000Y-70047000D01*
X113163000Y-70047000D01*
X113143000Y-70047000D01*
X113143000Y-69793000D01*
X113163000Y-69793000D01*
X113163000Y-68193750D01*
X113417000Y-68193750D01*
X113417000Y-69793000D01*
X115041250Y-69793000D01*
X115200000Y-69634250D01*
X115203072Y-68670000D01*
X115190812Y-68545518D01*
X115154502Y-68425820D01*
X115095537Y-68315506D01*
X115016185Y-68218815D01*
X114919494Y-68139463D01*
X114809180Y-68080498D01*
X114689482Y-68044188D01*
X114565000Y-68031928D01*
X113575750Y-68035000D01*
X113417000Y-68193750D01*
X113163000Y-68193750D01*
X113004250Y-68035000D01*
X112015000Y-68031928D01*
X111890518Y-68044188D01*
X111770820Y-68080498D01*
X111660506Y-68139463D01*
X111563815Y-68218815D01*
X111484463Y-68315506D01*
X111425498Y-68425820D01*
X111389188Y-68545518D01*
X111376928Y-68670000D01*
X111377428Y-68827007D01*
X111198363Y-68559017D01*
X110900983Y-68261637D01*
X110551302Y-68027988D01*
X110162756Y-67867047D01*
X109750279Y-67785000D01*
X109329721Y-67785000D01*
X108917244Y-67867047D01*
X108528698Y-68027988D01*
X108179017Y-68261637D01*
X107881637Y-68559017D01*
X107647988Y-68908698D01*
X107487047Y-69297244D01*
X107405000Y-69709721D01*
X98124529Y-69709721D01*
X98200000Y-69634250D01*
X98203072Y-68670000D01*
X98190812Y-68545518D01*
X98154502Y-68425820D01*
X98095537Y-68315506D01*
X98016185Y-68218815D01*
X97919494Y-68139463D01*
X97809180Y-68080498D01*
X97689482Y-68044188D01*
X97565000Y-68031928D01*
X96575750Y-68035000D01*
X96417000Y-68193750D01*
X96163000Y-68193750D01*
X96004250Y-68035000D01*
X95015000Y-68031928D01*
X94890518Y-68044188D01*
X94770820Y-68080498D01*
X94660506Y-68139463D01*
X94563815Y-68218815D01*
X94484463Y-68315506D01*
X94425498Y-68425820D01*
X94389188Y-68545518D01*
X94376928Y-68670000D01*
X94377428Y-68827007D01*
X94198363Y-68559017D01*
X93900983Y-68261637D01*
X93551302Y-68027988D01*
X93162756Y-67867047D01*
X92750279Y-67785000D01*
X92329721Y-67785000D01*
X91917244Y-67867047D01*
X91528698Y-68027988D01*
X91179017Y-68261637D01*
X90881637Y-68559017D01*
X90647988Y-68908698D01*
X90487047Y-69297244D01*
X90405000Y-69709721D01*
X81124529Y-69709721D01*
X81200000Y-69634250D01*
X81203072Y-68670000D01*
X81190812Y-68545518D01*
X81154502Y-68425820D01*
X81095537Y-68315506D01*
X81016185Y-68218815D01*
X80919494Y-68139463D01*
X80809180Y-68080498D01*
X80689482Y-68044188D01*
X80565000Y-68031928D01*
X79575750Y-68035000D01*
X79417000Y-68193750D01*
X79163000Y-68193750D01*
X79004250Y-68035000D01*
X78015000Y-68031928D01*
X77890518Y-68044188D01*
X77770820Y-68080498D01*
X77660506Y-68139463D01*
X77563815Y-68218815D01*
X77484463Y-68315506D01*
X77425498Y-68425820D01*
X77389188Y-68545518D01*
X77376928Y-68670000D01*
X77377428Y-68827007D01*
X77198363Y-68559017D01*
X76900983Y-68261637D01*
X76551302Y-68027988D01*
X76162756Y-67867047D01*
X75750279Y-67785000D01*
X75329721Y-67785000D01*
X74917244Y-67867047D01*
X74528698Y-68027988D01*
X74179017Y-68261637D01*
X73881637Y-68559017D01*
X73647988Y-68908698D01*
X73487047Y-69297244D01*
X73405000Y-69709721D01*
X63660000Y-69709721D01*
X63660000Y-64317360D01*
X69402245Y-64317360D01*
X69515264Y-64596384D01*
X69829249Y-64751556D01*
X70167473Y-64842491D01*
X70516938Y-64865694D01*
X70864216Y-64820275D01*
X71195960Y-64707977D01*
X71404736Y-64596384D01*
X71517755Y-64317360D01*
X86402245Y-64317360D01*
X86515264Y-64596384D01*
X86829249Y-64751556D01*
X87167473Y-64842491D01*
X87516938Y-64865694D01*
X87864216Y-64820275D01*
X88195960Y-64707977D01*
X88404736Y-64596384D01*
X88517755Y-64317360D01*
X103402245Y-64317360D01*
X103515264Y-64596384D01*
X103829249Y-64751556D01*
X104167473Y-64842491D01*
X104516938Y-64865694D01*
X104864216Y-64820275D01*
X105195960Y-64707977D01*
X105404736Y-64596384D01*
X105517755Y-64317360D01*
X104460000Y-63259605D01*
X103402245Y-64317360D01*
X88517755Y-64317360D01*
X87460000Y-63259605D01*
X86402245Y-64317360D01*
X71517755Y-64317360D01*
X70460000Y-63259605D01*
X69402245Y-64317360D01*
X63660000Y-64317360D01*
X63660000Y-63136938D01*
X68674306Y-63136938D01*
X68719725Y-63484216D01*
X68832023Y-63815960D01*
X68943616Y-64024736D01*
X69222640Y-64137755D01*
X70280395Y-63080000D01*
X70639605Y-63080000D01*
X71697360Y-64137755D01*
X71976384Y-64024736D01*
X72131556Y-63710751D01*
X72222491Y-63372527D01*
X72238133Y-63136938D01*
X85674306Y-63136938D01*
X85719725Y-63484216D01*
X85832023Y-63815960D01*
X85943616Y-64024736D01*
X86222640Y-64137755D01*
X87280395Y-63080000D01*
X87639605Y-63080000D01*
X88697360Y-64137755D01*
X88976384Y-64024736D01*
X89131556Y-63710751D01*
X89222491Y-63372527D01*
X89238133Y-63136938D01*
X102674306Y-63136938D01*
X102719725Y-63484216D01*
X102832023Y-63815960D01*
X102943616Y-64024736D01*
X103222640Y-64137755D01*
X104280395Y-63080000D01*
X104639605Y-63080000D01*
X105697360Y-64137755D01*
X105976384Y-64024736D01*
X106131556Y-63710751D01*
X106222491Y-63372527D01*
X106245694Y-63023062D01*
X106200275Y-62675784D01*
X106087977Y-62344040D01*
X105976384Y-62135264D01*
X105697360Y-62022245D01*
X104639605Y-63080000D01*
X104280395Y-63080000D01*
X103222640Y-62022245D01*
X102943616Y-62135264D01*
X102788444Y-62449249D01*
X102697509Y-62787473D01*
X102674306Y-63136938D01*
X89238133Y-63136938D01*
X89245694Y-63023062D01*
X89200275Y-62675784D01*
X89087977Y-62344040D01*
X88976384Y-62135264D01*
X88697360Y-62022245D01*
X87639605Y-63080000D01*
X87280395Y-63080000D01*
X86222640Y-62022245D01*
X85943616Y-62135264D01*
X85788444Y-62449249D01*
X85697509Y-62787473D01*
X85674306Y-63136938D01*
X72238133Y-63136938D01*
X72245694Y-63023062D01*
X72200275Y-62675784D01*
X72087977Y-62344040D01*
X71976384Y-62135264D01*
X71697360Y-62022245D01*
X70639605Y-63080000D01*
X70280395Y-63080000D01*
X69222640Y-62022245D01*
X68943616Y-62135264D01*
X68788444Y-62449249D01*
X68697509Y-62787473D01*
X68674306Y-63136938D01*
X63660000Y-63136938D01*
X63660000Y-57095611D01*
X63713815Y-57161185D01*
X63810506Y-57240537D01*
X63920820Y-57299502D01*
X64040518Y-57335812D01*
X64165000Y-57348072D01*
X64684965Y-57348072D01*
X64690997Y-57409319D01*
X64734454Y-57552580D01*
X64805026Y-57684610D01*
X64825045Y-57709003D01*
X64899999Y-57800335D01*
X64929003Y-57824138D01*
X68155867Y-61051003D01*
X68179665Y-61080001D01*
X68208663Y-61103799D01*
X68295389Y-61174974D01*
X68427419Y-61245546D01*
X68570680Y-61289003D01*
X68682333Y-61300000D01*
X68682342Y-61300000D01*
X68719665Y-61303676D01*
X68756988Y-61300000D01*
X70359525Y-61300000D01*
X70055784Y-61339725D01*
X69724040Y-61452023D01*
X69515264Y-61563616D01*
X69402245Y-61842640D01*
X70460000Y-62900395D01*
X71517755Y-61842640D01*
X71404736Y-61563616D01*
X71090751Y-61408444D01*
X70752527Y-61317509D01*
X70488820Y-61300000D01*
X75200309Y-61300000D01*
X75234357Y-61382199D01*
X75428937Y-61673409D01*
X75676591Y-61921063D01*
X75967801Y-62115643D01*
X76291377Y-62249672D01*
X76634882Y-62318000D01*
X76985118Y-62318000D01*
X77328623Y-62249672D01*
X77652199Y-62115643D01*
X77943409Y-61921063D01*
X78021832Y-61842640D01*
X86402245Y-61842640D01*
X87460000Y-62900395D01*
X88517755Y-61842640D01*
X88404736Y-61563616D01*
X88090751Y-61408444D01*
X87752527Y-61317509D01*
X87403062Y-61294306D01*
X87055784Y-61339725D01*
X86724040Y-61452023D01*
X86515264Y-61563616D01*
X86402245Y-61842640D01*
X78021832Y-61842640D01*
X78191063Y-61673409D01*
X78385643Y-61382199D01*
X78519672Y-61058623D01*
X78588000Y-60715118D01*
X78588000Y-60364882D01*
X78519672Y-60021377D01*
X78385643Y-59697801D01*
X78241978Y-59482791D01*
X78513421Y-59428798D01*
X78783838Y-59316788D01*
X79027206Y-59154174D01*
X79234174Y-58947206D01*
X79396788Y-58703838D01*
X79508798Y-58433421D01*
X79565900Y-58146348D01*
X79565900Y-57853652D01*
X79508798Y-57566579D01*
X79396788Y-57296162D01*
X79234174Y-57052794D01*
X79027206Y-56845826D01*
X78783838Y-56683212D01*
X78513421Y-56571202D01*
X78226348Y-56514100D01*
X77933652Y-56514100D01*
X77646579Y-56571202D01*
X77376162Y-56683212D01*
X77132794Y-56845826D01*
X76925826Y-57052794D01*
X76763212Y-57296162D01*
X76651202Y-57566579D01*
X76594100Y-57853652D01*
X76594100Y-58146348D01*
X76651202Y-58433421D01*
X76763212Y-58703838D01*
X76802075Y-58762000D01*
X76634882Y-58762000D01*
X76291377Y-58830328D01*
X75967801Y-58964357D01*
X75676591Y-59158937D01*
X75428937Y-59406591D01*
X75234357Y-59697801D01*
X75200309Y-59780000D01*
X74937826Y-59780000D01*
X75042000Y-59675826D01*
X75329701Y-59245251D01*
X75527873Y-58766822D01*
X75628900Y-58258924D01*
X75628900Y-57741076D01*
X75527873Y-57233178D01*
X75329701Y-56754749D01*
X75042000Y-56324174D01*
X74675826Y-55958000D01*
X74245251Y-55670299D01*
X73766822Y-55472127D01*
X73258924Y-55371100D01*
X72741076Y-55371100D01*
X72233178Y-55472127D01*
X71754749Y-55670299D01*
X71324174Y-55958000D01*
X71253763Y-56028411D01*
X71325000Y-55670279D01*
X71325000Y-55249721D01*
X71242953Y-54837244D01*
X71082012Y-54448698D01*
X70848363Y-54099017D01*
X70550983Y-53801637D01*
X70201302Y-53567988D01*
X69812756Y-53407047D01*
X69400279Y-53325000D01*
X68979721Y-53325000D01*
X68567244Y-53407047D01*
X68178698Y-53567988D01*
X67829017Y-53801637D01*
X67531637Y-54099017D01*
X67353072Y-54366259D01*
X67353072Y-54210000D01*
X67340812Y-54085518D01*
X67304502Y-53965820D01*
X67245537Y-53855506D01*
X67166185Y-53758815D01*
X67069494Y-53679463D01*
X66959180Y-53620498D01*
X66839482Y-53584188D01*
X66715000Y-53571928D01*
X64165000Y-53571928D01*
X64040518Y-53584188D01*
X63920820Y-53620498D01*
X63810506Y-53679463D01*
X63713815Y-53758815D01*
X63660000Y-53824389D01*
X63660000Y-52709721D01*
X73405000Y-52709721D01*
X73405000Y-53130279D01*
X73487047Y-53542756D01*
X73647988Y-53931302D01*
X73881637Y-54280983D01*
X74179017Y-54578363D01*
X74528698Y-54812012D01*
X74917244Y-54972953D01*
X75329721Y-55055000D01*
X75750279Y-55055000D01*
X76162756Y-54972953D01*
X76551302Y-54812012D01*
X76900983Y-54578363D01*
X77198363Y-54280983D01*
X77377428Y-54012993D01*
X77376928Y-54170000D01*
X77389188Y-54294482D01*
X77425498Y-54414180D01*
X77484463Y-54524494D01*
X77563815Y-54621185D01*
X77660506Y-54700537D01*
X77770820Y-54759502D01*
X77890518Y-54795812D01*
X78015000Y-54808072D01*
X79004250Y-54805000D01*
X79163000Y-54646250D01*
X79163000Y-53047000D01*
X79417000Y-53047000D01*
X79417000Y-54646250D01*
X79575750Y-54805000D01*
X80526928Y-54807954D01*
X80526928Y-56710000D01*
X80539188Y-56834482D01*
X80575498Y-56954180D01*
X80634463Y-57064494D01*
X80713815Y-57161185D01*
X80810506Y-57240537D01*
X80920820Y-57299502D01*
X81040518Y-57335812D01*
X81165000Y-57348072D01*
X81684965Y-57348072D01*
X81690997Y-57409319D01*
X81734454Y-57552580D01*
X81805026Y-57684610D01*
X81825045Y-57709003D01*
X81899999Y-57800335D01*
X81929003Y-57824138D01*
X84934767Y-60829903D01*
X84958566Y-60858902D01*
X84987564Y-60882700D01*
X85074290Y-60953875D01*
X85206320Y-61024447D01*
X85349581Y-61067904D01*
X85461234Y-61078901D01*
X85461244Y-61078901D01*
X85498567Y-61082577D01*
X85535890Y-61078901D01*
X92108727Y-61078901D01*
X92234357Y-61382199D01*
X92428937Y-61673409D01*
X92676591Y-61921063D01*
X92967801Y-62115643D01*
X93291377Y-62249672D01*
X93634882Y-62318000D01*
X93985118Y-62318000D01*
X94328623Y-62249672D01*
X94652199Y-62115643D01*
X94943409Y-61921063D01*
X95191063Y-61673409D01*
X95385643Y-61382199D01*
X95519672Y-61058623D01*
X95588000Y-60715118D01*
X95588000Y-60364882D01*
X95519672Y-60021377D01*
X95385643Y-59697801D01*
X95241978Y-59482791D01*
X95513421Y-59428798D01*
X95783838Y-59316788D01*
X96027206Y-59154174D01*
X96234174Y-58947206D01*
X96396788Y-58703838D01*
X96508798Y-58433421D01*
X96565900Y-58146348D01*
X96565900Y-57853652D01*
X96508798Y-57566579D01*
X96396788Y-57296162D01*
X96234174Y-57052794D01*
X96027206Y-56845826D01*
X95783838Y-56683212D01*
X95513421Y-56571202D01*
X95226348Y-56514100D01*
X94933652Y-56514100D01*
X94646579Y-56571202D01*
X94376162Y-56683212D01*
X94132794Y-56845826D01*
X93925826Y-57052794D01*
X93763212Y-57296162D01*
X93651202Y-57566579D01*
X93594100Y-57853652D01*
X93594100Y-58146348D01*
X93651202Y-58433421D01*
X93763212Y-58703838D01*
X93802075Y-58762000D01*
X93634882Y-58762000D01*
X93291377Y-58830328D01*
X92967801Y-58964357D01*
X92676591Y-59158937D01*
X92428937Y-59406591D01*
X92327167Y-59558901D01*
X92120127Y-59558901D01*
X92329701Y-59245251D01*
X92527873Y-58766822D01*
X92628900Y-58258924D01*
X92628900Y-57741076D01*
X92527873Y-57233178D01*
X92329701Y-56754749D01*
X92042000Y-56324174D01*
X91675826Y-55958000D01*
X91245251Y-55670299D01*
X90766822Y-55472127D01*
X90258924Y-55371100D01*
X89741076Y-55371100D01*
X89233178Y-55472127D01*
X88754749Y-55670299D01*
X88324174Y-55958000D01*
X88253763Y-56028411D01*
X88325000Y-55670279D01*
X88325000Y-55249721D01*
X88242953Y-54837244D01*
X88082012Y-54448698D01*
X87848363Y-54099017D01*
X87550983Y-53801637D01*
X87201302Y-53567988D01*
X86812756Y-53407047D01*
X86400279Y-53325000D01*
X85979721Y-53325000D01*
X85567244Y-53407047D01*
X85178698Y-53567988D01*
X84829017Y-53801637D01*
X84531637Y-54099017D01*
X84353072Y-54366259D01*
X84353072Y-54210000D01*
X84340812Y-54085518D01*
X84304502Y-53965820D01*
X84245537Y-53855506D01*
X84166185Y-53758815D01*
X84069494Y-53679463D01*
X83959180Y-53620498D01*
X83839482Y-53584188D01*
X83715000Y-53571928D01*
X81201167Y-53571928D01*
X81200000Y-53205750D01*
X81041250Y-53047000D01*
X79417000Y-53047000D01*
X79163000Y-53047000D01*
X79143000Y-53047000D01*
X79143000Y-52793000D01*
X79163000Y-52793000D01*
X79163000Y-51193750D01*
X79417000Y-51193750D01*
X79417000Y-52793000D01*
X81041250Y-52793000D01*
X81124529Y-52709721D01*
X90405000Y-52709721D01*
X90405000Y-53130279D01*
X90487047Y-53542756D01*
X90647988Y-53931302D01*
X90881637Y-54280983D01*
X91179017Y-54578363D01*
X91528698Y-54812012D01*
X91917244Y-54972953D01*
X92329721Y-55055000D01*
X92750279Y-55055000D01*
X93162756Y-54972953D01*
X93551302Y-54812012D01*
X93900983Y-54578363D01*
X94198363Y-54280983D01*
X94377428Y-54012993D01*
X94376928Y-54170000D01*
X94389188Y-54294482D01*
X94425498Y-54414180D01*
X94484463Y-54524494D01*
X94563815Y-54621185D01*
X94660506Y-54700537D01*
X94770820Y-54759502D01*
X94890518Y-54795812D01*
X95015000Y-54808072D01*
X96004250Y-54805000D01*
X96163000Y-54646250D01*
X96163000Y-53047000D01*
X96417000Y-53047000D01*
X96417000Y-54646250D01*
X96575750Y-54805000D01*
X97526928Y-54807954D01*
X97526928Y-56710000D01*
X97539188Y-56834482D01*
X97575498Y-56954180D01*
X97634463Y-57064494D01*
X97713815Y-57161185D01*
X97810506Y-57240537D01*
X97920820Y-57299502D01*
X98040518Y-57335812D01*
X98165000Y-57348072D01*
X98684965Y-57348072D01*
X98690997Y-57409319D01*
X98734454Y-57552580D01*
X98805026Y-57684610D01*
X98825045Y-57709003D01*
X98899999Y-57800335D01*
X98929003Y-57824138D01*
X102155867Y-61051003D01*
X102179665Y-61080001D01*
X102208663Y-61103799D01*
X102295389Y-61174974D01*
X102427419Y-61245546D01*
X102570680Y-61289003D01*
X102682333Y-61300000D01*
X102682342Y-61300000D01*
X102719665Y-61303676D01*
X102756988Y-61300000D01*
X104359525Y-61300000D01*
X104055784Y-61339725D01*
X103724040Y-61452023D01*
X103515264Y-61563616D01*
X103402245Y-61842640D01*
X104460000Y-62900395D01*
X105517755Y-61842640D01*
X105404736Y-61563616D01*
X105090751Y-61408444D01*
X104752527Y-61317509D01*
X104488820Y-61300000D01*
X109200309Y-61300000D01*
X109234357Y-61382199D01*
X109428937Y-61673409D01*
X109676591Y-61921063D01*
X109967801Y-62115643D01*
X110291377Y-62249672D01*
X110634882Y-62318000D01*
X110985118Y-62318000D01*
X111328623Y-62249672D01*
X111652199Y-62115643D01*
X111943409Y-61921063D01*
X112191063Y-61673409D01*
X112385643Y-61382199D01*
X112519672Y-61058623D01*
X112588000Y-60715118D01*
X112588000Y-60364882D01*
X112519672Y-60021377D01*
X112385643Y-59697801D01*
X112241978Y-59482791D01*
X112513421Y-59428798D01*
X112783838Y-59316788D01*
X113027206Y-59154174D01*
X113234174Y-58947206D01*
X113396788Y-58703838D01*
X113508798Y-58433421D01*
X113565900Y-58146348D01*
X113565900Y-57853652D01*
X113508798Y-57566579D01*
X113396788Y-57296162D01*
X113234174Y-57052794D01*
X113027206Y-56845826D01*
X112783838Y-56683212D01*
X112513421Y-56571202D01*
X112226348Y-56514100D01*
X111933652Y-56514100D01*
X111646579Y-56571202D01*
X111376162Y-56683212D01*
X111132794Y-56845826D01*
X110925826Y-57052794D01*
X110763212Y-57296162D01*
X110651202Y-57566579D01*
X110594100Y-57853652D01*
X110594100Y-58146348D01*
X110651202Y-58433421D01*
X110763212Y-58703838D01*
X110802075Y-58762000D01*
X110634882Y-58762000D01*
X110291377Y-58830328D01*
X109967801Y-58964357D01*
X109676591Y-59158937D01*
X109428937Y-59406591D01*
X109234357Y-59697801D01*
X109200309Y-59780000D01*
X108937826Y-59780000D01*
X109042000Y-59675826D01*
X109329701Y-59245251D01*
X109527873Y-58766822D01*
X109628900Y-58258924D01*
X109628900Y-57741076D01*
X109527873Y-57233178D01*
X109329701Y-56754749D01*
X109042000Y-56324174D01*
X108675826Y-55958000D01*
X108245251Y-55670299D01*
X107766822Y-55472127D01*
X107258924Y-55371100D01*
X106741076Y-55371100D01*
X106233178Y-55472127D01*
X105754749Y-55670299D01*
X105324174Y-55958000D01*
X105253763Y-56028411D01*
X105325000Y-55670279D01*
X105325000Y-55249721D01*
X105242953Y-54837244D01*
X105082012Y-54448698D01*
X104848363Y-54099017D01*
X104550983Y-53801637D01*
X104201302Y-53567988D01*
X103812756Y-53407047D01*
X103400279Y-53325000D01*
X102979721Y-53325000D01*
X102567244Y-53407047D01*
X102178698Y-53567988D01*
X101829017Y-53801637D01*
X101531637Y-54099017D01*
X101353072Y-54366259D01*
X101353072Y-54210000D01*
X101340812Y-54085518D01*
X101304502Y-53965820D01*
X101245537Y-53855506D01*
X101166185Y-53758815D01*
X101069494Y-53679463D01*
X100959180Y-53620498D01*
X100839482Y-53584188D01*
X100715000Y-53571928D01*
X98201167Y-53571928D01*
X98200000Y-53205750D01*
X98041250Y-53047000D01*
X96417000Y-53047000D01*
X96163000Y-53047000D01*
X96143000Y-53047000D01*
X96143000Y-52793000D01*
X96163000Y-52793000D01*
X96163000Y-51193750D01*
X96417000Y-51193750D01*
X96417000Y-52793000D01*
X98041250Y-52793000D01*
X98124529Y-52709721D01*
X107405000Y-52709721D01*
X107405000Y-53130279D01*
X107487047Y-53542756D01*
X107647988Y-53931302D01*
X107881637Y-54280983D01*
X108179017Y-54578363D01*
X108528698Y-54812012D01*
X108917244Y-54972953D01*
X109329721Y-55055000D01*
X109750279Y-55055000D01*
X110162756Y-54972953D01*
X110551302Y-54812012D01*
X110900983Y-54578363D01*
X111198363Y-54280983D01*
X111377428Y-54012993D01*
X111376928Y-54170000D01*
X111389188Y-54294482D01*
X111425498Y-54414180D01*
X111484463Y-54524494D01*
X111563815Y-54621185D01*
X111660506Y-54700537D01*
X111770820Y-54759502D01*
X111890518Y-54795812D01*
X112015000Y-54808072D01*
X113004250Y-54805000D01*
X113163000Y-54646250D01*
X113163000Y-53047000D01*
X113417000Y-53047000D01*
X113417000Y-54646250D01*
X113575750Y-54805000D01*
X114565000Y-54808072D01*
X114689482Y-54795812D01*
X114809180Y-54759502D01*
X114919494Y-54700537D01*
X115016185Y-54621185D01*
X115095537Y-54524494D01*
X115154502Y-54414180D01*
X115190812Y-54294482D01*
X115203072Y-54170000D01*
X115200000Y-53205750D01*
X115041250Y-53047000D01*
X113417000Y-53047000D01*
X113163000Y-53047000D01*
X113143000Y-53047000D01*
X113143000Y-52793000D01*
X113163000Y-52793000D01*
X113163000Y-51193750D01*
X113417000Y-51193750D01*
X113417000Y-52793000D01*
X115041250Y-52793000D01*
X115200000Y-52634250D01*
X115203072Y-51670000D01*
X115190812Y-51545518D01*
X115154502Y-51425820D01*
X115095537Y-51315506D01*
X115016185Y-51218815D01*
X114919494Y-51139463D01*
X114809180Y-51080498D01*
X114689482Y-51044188D01*
X114565000Y-51031928D01*
X113575750Y-51035000D01*
X113417000Y-51193750D01*
X113163000Y-51193750D01*
X113004250Y-51035000D01*
X112015000Y-51031928D01*
X111890518Y-51044188D01*
X111770820Y-51080498D01*
X111660506Y-51139463D01*
X111563815Y-51218815D01*
X111484463Y-51315506D01*
X111425498Y-51425820D01*
X111389188Y-51545518D01*
X111376928Y-51670000D01*
X111377428Y-51827007D01*
X111198363Y-51559017D01*
X110900983Y-51261637D01*
X110551302Y-51027988D01*
X110162756Y-50867047D01*
X109750279Y-50785000D01*
X109329721Y-50785000D01*
X108917244Y-50867047D01*
X108528698Y-51027988D01*
X108179017Y-51261637D01*
X107881637Y-51559017D01*
X107647988Y-51908698D01*
X107487047Y-52297244D01*
X107405000Y-52709721D01*
X98124529Y-52709721D01*
X98200000Y-52634250D01*
X98203072Y-51670000D01*
X98190812Y-51545518D01*
X98154502Y-51425820D01*
X98095537Y-51315506D01*
X98016185Y-51218815D01*
X97919494Y-51139463D01*
X97809180Y-51080498D01*
X97689482Y-51044188D01*
X97565000Y-51031928D01*
X96575750Y-51035000D01*
X96417000Y-51193750D01*
X96163000Y-51193750D01*
X96004250Y-51035000D01*
X95015000Y-51031928D01*
X94890518Y-51044188D01*
X94770820Y-51080498D01*
X94660506Y-51139463D01*
X94563815Y-51218815D01*
X94484463Y-51315506D01*
X94425498Y-51425820D01*
X94389188Y-51545518D01*
X94376928Y-51670000D01*
X94377428Y-51827007D01*
X94198363Y-51559017D01*
X93900983Y-51261637D01*
X93551302Y-51027988D01*
X93162756Y-50867047D01*
X92750279Y-50785000D01*
X92329721Y-50785000D01*
X91917244Y-50867047D01*
X91528698Y-51027988D01*
X91179017Y-51261637D01*
X90881637Y-51559017D01*
X90647988Y-51908698D01*
X90487047Y-52297244D01*
X90405000Y-52709721D01*
X81124529Y-52709721D01*
X81200000Y-52634250D01*
X81203072Y-51670000D01*
X81190812Y-51545518D01*
X81154502Y-51425820D01*
X81095537Y-51315506D01*
X81016185Y-51218815D01*
X80919494Y-51139463D01*
X80809180Y-51080498D01*
X80689482Y-51044188D01*
X80565000Y-51031928D01*
X79575750Y-51035000D01*
X79417000Y-51193750D01*
X79163000Y-51193750D01*
X79004250Y-51035000D01*
X78015000Y-51031928D01*
X77890518Y-51044188D01*
X77770820Y-51080498D01*
X77660506Y-51139463D01*
X77563815Y-51218815D01*
X77484463Y-51315506D01*
X77425498Y-51425820D01*
X77389188Y-51545518D01*
X77376928Y-51670000D01*
X77377428Y-51827007D01*
X77198363Y-51559017D01*
X76900983Y-51261637D01*
X76551302Y-51027988D01*
X76162756Y-50867047D01*
X75750279Y-50785000D01*
X75329721Y-50785000D01*
X74917244Y-50867047D01*
X74528698Y-51027988D01*
X74179017Y-51261637D01*
X73881637Y-51559017D01*
X73647988Y-51908698D01*
X73487047Y-52297244D01*
X73405000Y-52709721D01*
X63660000Y-52709721D01*
X63660000Y-48678665D01*
X64905000Y-48678665D01*
X64905000Y-48961335D01*
X64960147Y-49238574D01*
X65068320Y-49499727D01*
X65225363Y-49734759D01*
X65425241Y-49934637D01*
X65660273Y-50091680D01*
X65921426Y-50199853D01*
X66198665Y-50255000D01*
X66481335Y-50255000D01*
X66758574Y-50199853D01*
X67019727Y-50091680D01*
X67254759Y-49934637D01*
X67454637Y-49734759D01*
X67611680Y-49499727D01*
X67719853Y-49238574D01*
X67775000Y-48961335D01*
X67775000Y-48678665D01*
X67905000Y-48678665D01*
X67905000Y-48961335D01*
X67960147Y-49238574D01*
X68068320Y-49499727D01*
X68225363Y-49734759D01*
X68425241Y-49934637D01*
X68660273Y-50091680D01*
X68921426Y-50199853D01*
X69198665Y-50255000D01*
X69481335Y-50255000D01*
X69758574Y-50199853D01*
X70019727Y-50091680D01*
X70254759Y-49934637D01*
X70454637Y-49734759D01*
X70611680Y-49499727D01*
X70719853Y-49238574D01*
X70775000Y-48961335D01*
X70775000Y-48678665D01*
X70905000Y-48678665D01*
X70905000Y-48961335D01*
X70960147Y-49238574D01*
X71068320Y-49499727D01*
X71225363Y-49734759D01*
X71425241Y-49934637D01*
X71660273Y-50091680D01*
X71921426Y-50199853D01*
X72198665Y-50255000D01*
X72481335Y-50255000D01*
X72758574Y-50199853D01*
X73019727Y-50091680D01*
X73254759Y-49934637D01*
X73454637Y-49734759D01*
X73611680Y-49499727D01*
X73719853Y-49238574D01*
X73775000Y-48961335D01*
X73775000Y-48678665D01*
X73905000Y-48678665D01*
X73905000Y-48961335D01*
X73960147Y-49238574D01*
X74068320Y-49499727D01*
X74225363Y-49734759D01*
X74425241Y-49934637D01*
X74660273Y-50091680D01*
X74921426Y-50199853D01*
X75198665Y-50255000D01*
X75481335Y-50255000D01*
X75758574Y-50199853D01*
X76019727Y-50091680D01*
X76254759Y-49934637D01*
X76454637Y-49734759D01*
X76611680Y-49499727D01*
X76719853Y-49238574D01*
X76775000Y-48961335D01*
X76775000Y-48678665D01*
X76905000Y-48678665D01*
X76905000Y-48961335D01*
X76960147Y-49238574D01*
X77068320Y-49499727D01*
X77225363Y-49734759D01*
X77425241Y-49934637D01*
X77660273Y-50091680D01*
X77921426Y-50199853D01*
X78198665Y-50255000D01*
X78481335Y-50255000D01*
X78758574Y-50199853D01*
X79019727Y-50091680D01*
X79254759Y-49934637D01*
X79454637Y-49734759D01*
X79611680Y-49499727D01*
X79719853Y-49238574D01*
X79775000Y-48961335D01*
X79775000Y-48678665D01*
X79905000Y-48678665D01*
X79905000Y-48961335D01*
X79960147Y-49238574D01*
X80068320Y-49499727D01*
X80225363Y-49734759D01*
X80425241Y-49934637D01*
X80660273Y-50091680D01*
X80921426Y-50199853D01*
X81198665Y-50255000D01*
X81481335Y-50255000D01*
X81758574Y-50199853D01*
X82019727Y-50091680D01*
X82254759Y-49934637D01*
X82454637Y-49734759D01*
X82611680Y-49499727D01*
X82719853Y-49238574D01*
X82775000Y-48961335D01*
X82775000Y-48678665D01*
X82905000Y-48678665D01*
X82905000Y-48961335D01*
X82960147Y-49238574D01*
X83068320Y-49499727D01*
X83225363Y-49734759D01*
X83425241Y-49934637D01*
X83660273Y-50091680D01*
X83921426Y-50199853D01*
X84198665Y-50255000D01*
X84481335Y-50255000D01*
X84758574Y-50199853D01*
X85019727Y-50091680D01*
X85254759Y-49934637D01*
X85454637Y-49734759D01*
X85611680Y-49499727D01*
X85719853Y-49238574D01*
X85775000Y-48961335D01*
X85775000Y-48678665D01*
X85905000Y-48678665D01*
X85905000Y-48961335D01*
X85960147Y-49238574D01*
X86068320Y-49499727D01*
X86225363Y-49734759D01*
X86425241Y-49934637D01*
X86660273Y-50091680D01*
X86921426Y-50199853D01*
X87198665Y-50255000D01*
X87481335Y-50255000D01*
X87758574Y-50199853D01*
X88019727Y-50091680D01*
X88254759Y-49934637D01*
X88454637Y-49734759D01*
X88611680Y-49499727D01*
X88719853Y-49238574D01*
X88775000Y-48961335D01*
X88775000Y-48678665D01*
X88905000Y-48678665D01*
X88905000Y-48961335D01*
X88960147Y-49238574D01*
X89068320Y-49499727D01*
X89225363Y-49734759D01*
X89425241Y-49934637D01*
X89660273Y-50091680D01*
X89921426Y-50199853D01*
X90198665Y-50255000D01*
X90481335Y-50255000D01*
X90758574Y-50199853D01*
X91019727Y-50091680D01*
X91254759Y-49934637D01*
X91454637Y-49734759D01*
X91611680Y-49499727D01*
X91719853Y-49238574D01*
X91775000Y-48961335D01*
X91775000Y-48678665D01*
X91719853Y-48401426D01*
X91611680Y-48140273D01*
X91454637Y-47905241D01*
X91254759Y-47705363D01*
X91019727Y-47548320D01*
X90758574Y-47440147D01*
X90481335Y-47385000D01*
X90198665Y-47385000D01*
X89921426Y-47440147D01*
X89660273Y-47548320D01*
X89425241Y-47705363D01*
X89225363Y-47905241D01*
X89068320Y-48140273D01*
X88960147Y-48401426D01*
X88905000Y-48678665D01*
X88775000Y-48678665D01*
X88719853Y-48401426D01*
X88611680Y-48140273D01*
X88454637Y-47905241D01*
X88254759Y-47705363D01*
X88019727Y-47548320D01*
X87758574Y-47440147D01*
X87481335Y-47385000D01*
X87198665Y-47385000D01*
X86921426Y-47440147D01*
X86660273Y-47548320D01*
X86425241Y-47705363D01*
X86225363Y-47905241D01*
X86068320Y-48140273D01*
X85960147Y-48401426D01*
X85905000Y-48678665D01*
X85775000Y-48678665D01*
X85719853Y-48401426D01*
X85611680Y-48140273D01*
X85454637Y-47905241D01*
X85254759Y-47705363D01*
X85019727Y-47548320D01*
X84758574Y-47440147D01*
X84481335Y-47385000D01*
X84198665Y-47385000D01*
X83921426Y-47440147D01*
X83660273Y-47548320D01*
X83425241Y-47705363D01*
X83225363Y-47905241D01*
X83068320Y-48140273D01*
X82960147Y-48401426D01*
X82905000Y-48678665D01*
X82775000Y-48678665D01*
X82719853Y-48401426D01*
X82611680Y-48140273D01*
X82454637Y-47905241D01*
X82254759Y-47705363D01*
X82019727Y-47548320D01*
X81758574Y-47440147D01*
X81481335Y-47385000D01*
X81198665Y-47385000D01*
X80921426Y-47440147D01*
X80660273Y-47548320D01*
X80425241Y-47705363D01*
X80225363Y-47905241D01*
X80068320Y-48140273D01*
X79960147Y-48401426D01*
X79905000Y-48678665D01*
X79775000Y-48678665D01*
X79719853Y-48401426D01*
X79611680Y-48140273D01*
X79454637Y-47905241D01*
X79254759Y-47705363D01*
X79019727Y-47548320D01*
X78758574Y-47440147D01*
X78481335Y-47385000D01*
X78198665Y-47385000D01*
X77921426Y-47440147D01*
X77660273Y-47548320D01*
X77425241Y-47705363D01*
X77225363Y-47905241D01*
X77068320Y-48140273D01*
X76960147Y-48401426D01*
X76905000Y-48678665D01*
X76775000Y-48678665D01*
X76719853Y-48401426D01*
X76611680Y-48140273D01*
X76454637Y-47905241D01*
X76254759Y-47705363D01*
X76019727Y-47548320D01*
X75758574Y-47440147D01*
X75481335Y-47385000D01*
X75198665Y-47385000D01*
X74921426Y-47440147D01*
X74660273Y-47548320D01*
X74425241Y-47705363D01*
X74225363Y-47905241D01*
X74068320Y-48140273D01*
X73960147Y-48401426D01*
X73905000Y-48678665D01*
X73775000Y-48678665D01*
X73719853Y-48401426D01*
X73611680Y-48140273D01*
X73454637Y-47905241D01*
X73254759Y-47705363D01*
X73019727Y-47548320D01*
X72758574Y-47440147D01*
X72481335Y-47385000D01*
X72198665Y-47385000D01*
X71921426Y-47440147D01*
X71660273Y-47548320D01*
X71425241Y-47705363D01*
X71225363Y-47905241D01*
X71068320Y-48140273D01*
X70960147Y-48401426D01*
X70905000Y-48678665D01*
X70775000Y-48678665D01*
X70719853Y-48401426D01*
X70611680Y-48140273D01*
X70454637Y-47905241D01*
X70254759Y-47705363D01*
X70019727Y-47548320D01*
X69758574Y-47440147D01*
X69481335Y-47385000D01*
X69198665Y-47385000D01*
X68921426Y-47440147D01*
X68660273Y-47548320D01*
X68425241Y-47705363D01*
X68225363Y-47905241D01*
X68068320Y-48140273D01*
X67960147Y-48401426D01*
X67905000Y-48678665D01*
X67775000Y-48678665D01*
X67719853Y-48401426D01*
X67611680Y-48140273D01*
X67454637Y-47905241D01*
X67254759Y-47705363D01*
X67019727Y-47548320D01*
X66758574Y-47440147D01*
X66481335Y-47385000D01*
X66198665Y-47385000D01*
X65921426Y-47440147D01*
X65660273Y-47548320D01*
X65425241Y-47705363D01*
X65225363Y-47905241D01*
X65068320Y-48140273D01*
X64960147Y-48401426D01*
X64905000Y-48678665D01*
X63660000Y-48678665D01*
X63660000Y-38590000D01*
X64478057Y-38590000D01*
X64505764Y-38871309D01*
X64587818Y-39141808D01*
X64721068Y-39391101D01*
X64900392Y-39609608D01*
X65118899Y-39788932D01*
X65368192Y-39922182D01*
X65571247Y-39983777D01*
X65538899Y-40001068D01*
X65320392Y-40180392D01*
X65141068Y-40398899D01*
X65007818Y-40648192D01*
X64925764Y-40918691D01*
X64898057Y-41200000D01*
X64925764Y-41481309D01*
X65007818Y-41751808D01*
X65141068Y-42001101D01*
X65320392Y-42219608D01*
X65538899Y-42398932D01*
X65788192Y-42532182D01*
X66058691Y-42614236D01*
X66269508Y-42635000D01*
X66410492Y-42635000D01*
X66621309Y-42614236D01*
X66891808Y-42532182D01*
X67141101Y-42398932D01*
X67359608Y-42219608D01*
X67538932Y-42001101D01*
X67672182Y-41751808D01*
X67754236Y-41481309D01*
X67781943Y-41200000D01*
X67898057Y-41200000D01*
X67925764Y-41481309D01*
X68007818Y-41751808D01*
X68141068Y-42001101D01*
X68320392Y-42219608D01*
X68538899Y-42398932D01*
X68788192Y-42532182D01*
X69058691Y-42614236D01*
X69269508Y-42635000D01*
X69410492Y-42635000D01*
X69621309Y-42614236D01*
X69891808Y-42532182D01*
X70141101Y-42398932D01*
X70359608Y-42219608D01*
X70538932Y-42001101D01*
X70672182Y-41751808D01*
X70754236Y-41481309D01*
X70781943Y-41200000D01*
X70898057Y-41200000D01*
X70925764Y-41481309D01*
X71007818Y-41751808D01*
X71141068Y-42001101D01*
X71320392Y-42219608D01*
X71538899Y-42398932D01*
X71788192Y-42532182D01*
X72058691Y-42614236D01*
X72269508Y-42635000D01*
X72410492Y-42635000D01*
X72621309Y-42614236D01*
X72891808Y-42532182D01*
X73141101Y-42398932D01*
X73359608Y-42219608D01*
X73538932Y-42001101D01*
X73672182Y-41751808D01*
X73754236Y-41481309D01*
X73781943Y-41200000D01*
X73754236Y-40918691D01*
X73672182Y-40648192D01*
X73538932Y-40398899D01*
X73359608Y-40180392D01*
X73141101Y-40001068D01*
X72949367Y-39898584D01*
X73121426Y-39969853D01*
X73398665Y-40025000D01*
X73681335Y-40025000D01*
X73958574Y-39969853D01*
X74219727Y-39861680D01*
X74454759Y-39704637D01*
X74590000Y-39569396D01*
X74725241Y-39704637D01*
X74912861Y-39830000D01*
X74788192Y-39867818D01*
X74538899Y-40001068D01*
X74320392Y-40180392D01*
X74141068Y-40398899D01*
X74007818Y-40648192D01*
X73925764Y-40918691D01*
X73898057Y-41200000D01*
X73925764Y-41481309D01*
X74007818Y-41751808D01*
X74141068Y-42001101D01*
X74320392Y-42219608D01*
X74538899Y-42398932D01*
X74788192Y-42532182D01*
X75058691Y-42614236D01*
X75269508Y-42635000D01*
X75410492Y-42635000D01*
X75621309Y-42614236D01*
X75665906Y-42600708D01*
X78766201Y-45701003D01*
X78789999Y-45730001D01*
X78818997Y-45753799D01*
X78905723Y-45824974D01*
X79031459Y-45892182D01*
X79037753Y-45895546D01*
X79181014Y-45939003D01*
X79292667Y-45950000D01*
X79292676Y-45950000D01*
X79329999Y-45953676D01*
X79367322Y-45950000D01*
X92378772Y-45950000D01*
X92323989Y-46082257D01*
X92265000Y-46378816D01*
X92265000Y-46681184D01*
X92323989Y-46977743D01*
X92439701Y-47257095D01*
X92607688Y-47508505D01*
X92821495Y-47722312D01*
X93072905Y-47890299D01*
X93352257Y-48006011D01*
X93648816Y-48065000D01*
X93951184Y-48065000D01*
X94247743Y-48006011D01*
X94527095Y-47890299D01*
X94778505Y-47722312D01*
X94844944Y-47655873D01*
X94850498Y-47674180D01*
X94909463Y-47784494D01*
X94988815Y-47881185D01*
X95085506Y-47960537D01*
X95195820Y-48019502D01*
X95315518Y-48055812D01*
X95440000Y-48068072D01*
X97240000Y-48068072D01*
X97364482Y-48055812D01*
X97484180Y-48019502D01*
X97594494Y-47960537D01*
X97691185Y-47881185D01*
X97770537Y-47784494D01*
X97829502Y-47674180D01*
X97865812Y-47554482D01*
X97878072Y-47430000D01*
X97878072Y-46059315D01*
X97949744Y-46107205D01*
X98138102Y-46185226D01*
X98338061Y-46225000D01*
X98541939Y-46225000D01*
X98741898Y-46185226D01*
X98809039Y-46157415D01*
X98765000Y-46378816D01*
X98765000Y-46681184D01*
X98823989Y-46977743D01*
X98939701Y-47257095D01*
X99107688Y-47508505D01*
X99321495Y-47722312D01*
X99572905Y-47890299D01*
X99852257Y-48006011D01*
X100148816Y-48065000D01*
X100451184Y-48065000D01*
X100747743Y-48006011D01*
X101027095Y-47890299D01*
X101278505Y-47722312D01*
X101344944Y-47655873D01*
X101350498Y-47674180D01*
X101409463Y-47784494D01*
X101488815Y-47881185D01*
X101585506Y-47960537D01*
X101695820Y-48019502D01*
X101815518Y-48055812D01*
X101940000Y-48068072D01*
X103740000Y-48068072D01*
X103864482Y-48055812D01*
X103984180Y-48019502D01*
X104094494Y-47960537D01*
X104191185Y-47881185D01*
X104270537Y-47784494D01*
X104329502Y-47674180D01*
X104365812Y-47554482D01*
X104378072Y-47430000D01*
X104378072Y-46378816D01*
X105265000Y-46378816D01*
X105265000Y-46681184D01*
X105323989Y-46977743D01*
X105439701Y-47257095D01*
X105607688Y-47508505D01*
X105821495Y-47722312D01*
X106072905Y-47890299D01*
X106352257Y-48006011D01*
X106648816Y-48065000D01*
X106951184Y-48065000D01*
X107247743Y-48006011D01*
X107527095Y-47890299D01*
X107778505Y-47722312D01*
X107844944Y-47655873D01*
X107850498Y-47674180D01*
X107909463Y-47784494D01*
X107988815Y-47881185D01*
X108085506Y-47960537D01*
X108195820Y-48019502D01*
X108315518Y-48055812D01*
X108440000Y-48068072D01*
X110240000Y-48068072D01*
X110364482Y-48055812D01*
X110484180Y-48019502D01*
X110594494Y-47960537D01*
X110691185Y-47881185D01*
X110770537Y-47784494D01*
X110829502Y-47674180D01*
X110865812Y-47554482D01*
X110878072Y-47430000D01*
X110878072Y-45630000D01*
X110865812Y-45505518D01*
X110829502Y-45385820D01*
X110770537Y-45275506D01*
X110691185Y-45178815D01*
X110594494Y-45099463D01*
X110484180Y-45040498D01*
X110364482Y-45004188D01*
X110240000Y-44991928D01*
X108440000Y-44991928D01*
X108315518Y-45004188D01*
X108195820Y-45040498D01*
X108085506Y-45099463D01*
X107988815Y-45178815D01*
X107909463Y-45275506D01*
X107850498Y-45385820D01*
X107844944Y-45404127D01*
X107778505Y-45337688D01*
X107527095Y-45169701D01*
X107247743Y-45053989D01*
X106951184Y-44995000D01*
X106648816Y-44995000D01*
X106352257Y-45053989D01*
X106072905Y-45169701D01*
X105821495Y-45337688D01*
X105607688Y-45551495D01*
X105439701Y-45802905D01*
X105323989Y-46082257D01*
X105265000Y-46378816D01*
X104378072Y-46378816D01*
X104378072Y-45630000D01*
X104365812Y-45505518D01*
X104329502Y-45385820D01*
X104270537Y-45275506D01*
X104191185Y-45178815D01*
X104094494Y-45099463D01*
X103984180Y-45040498D01*
X103864482Y-45004188D01*
X103740000Y-44991928D01*
X101940000Y-44991928D01*
X101815518Y-45004188D01*
X101695820Y-45040498D01*
X101585506Y-45099463D01*
X101488815Y-45178815D01*
X101409463Y-45275506D01*
X101350498Y-45385820D01*
X101344944Y-45404127D01*
X101278505Y-45337688D01*
X101060000Y-45191687D01*
X101060000Y-45014317D01*
X101063676Y-44976994D01*
X101060000Y-44939671D01*
X101060000Y-44939662D01*
X101049003Y-44828009D01*
X101005546Y-44684748D01*
X100934974Y-44552719D01*
X100921811Y-44536680D01*
X100863799Y-44465991D01*
X100863795Y-44465987D01*
X100840001Y-44436994D01*
X100811009Y-44413201D01*
X100172793Y-43774986D01*
X106051275Y-43774986D01*
X106175226Y-43898937D01*
X106344744Y-44012205D01*
X106533102Y-44090226D01*
X106733061Y-44130000D01*
X106936939Y-44130000D01*
X107136898Y-44090226D01*
X107325256Y-44012205D01*
X107494774Y-43898937D01*
X107638937Y-43754774D01*
X107752205Y-43585256D01*
X107830226Y-43396898D01*
X107870000Y-43196939D01*
X107870000Y-42993061D01*
X107830226Y-42793102D01*
X107752205Y-42604744D01*
X107638937Y-42435226D01*
X107494774Y-42291063D01*
X107325256Y-42177795D01*
X107136898Y-42099774D01*
X106936939Y-42060000D01*
X106733061Y-42060000D01*
X106533102Y-42099774D01*
X106344744Y-42177795D01*
X106229219Y-42254986D01*
X105649816Y-42254986D01*
X106391071Y-41513731D01*
X106648816Y-41565000D01*
X106951184Y-41565000D01*
X107247743Y-41506011D01*
X107527095Y-41390299D01*
X107778505Y-41222312D01*
X107844944Y-41155873D01*
X107850498Y-41174180D01*
X107909463Y-41284494D01*
X107988815Y-41381185D01*
X108085506Y-41460537D01*
X108195820Y-41519502D01*
X108315518Y-41555812D01*
X108440000Y-41568072D01*
X110240000Y-41568072D01*
X110364482Y-41555812D01*
X110484180Y-41519502D01*
X110594494Y-41460537D01*
X110691185Y-41381185D01*
X110770537Y-41284494D01*
X110829502Y-41174180D01*
X110865812Y-41054482D01*
X110878072Y-40930000D01*
X110878072Y-39130000D01*
X110865812Y-39005518D01*
X110829502Y-38885820D01*
X110770537Y-38775506D01*
X110691185Y-38678815D01*
X110594494Y-38599463D01*
X110484180Y-38540498D01*
X110364482Y-38504188D01*
X110240000Y-38491928D01*
X108440000Y-38491928D01*
X108315518Y-38504188D01*
X108195820Y-38540498D01*
X108085506Y-38599463D01*
X107988815Y-38678815D01*
X107909463Y-38775506D01*
X107850498Y-38885820D01*
X107844944Y-38904127D01*
X107778505Y-38837688D01*
X107527095Y-38669701D01*
X107247743Y-38553989D01*
X106951184Y-38495000D01*
X106648816Y-38495000D01*
X106352257Y-38553989D01*
X106072905Y-38669701D01*
X105821495Y-38837688D01*
X105607688Y-39051495D01*
X105439701Y-39302905D01*
X105323989Y-39582257D01*
X105265000Y-39878816D01*
X105265000Y-40181184D01*
X105316269Y-40438929D01*
X103950223Y-41804976D01*
X91643763Y-41804976D01*
X91672182Y-41751808D01*
X91754236Y-41481309D01*
X91781943Y-41200000D01*
X91754236Y-40918691D01*
X91740708Y-40874094D01*
X92292975Y-40321826D01*
X92323989Y-40477743D01*
X92439701Y-40757095D01*
X92607688Y-41008505D01*
X92821495Y-41222312D01*
X93072905Y-41390299D01*
X93352257Y-41506011D01*
X93648816Y-41565000D01*
X93951184Y-41565000D01*
X94247743Y-41506011D01*
X94527095Y-41390299D01*
X94778505Y-41222312D01*
X94844944Y-41155873D01*
X94850498Y-41174180D01*
X94909463Y-41284494D01*
X94988815Y-41381185D01*
X95085506Y-41460537D01*
X95195820Y-41519502D01*
X95315518Y-41555812D01*
X95440000Y-41568072D01*
X97240000Y-41568072D01*
X97364482Y-41555812D01*
X97484180Y-41519502D01*
X97594494Y-41460537D01*
X97691185Y-41381185D01*
X97770537Y-41284494D01*
X97829502Y-41174180D01*
X97865812Y-41054482D01*
X97878072Y-40930000D01*
X97878072Y-39130000D01*
X97865812Y-39005518D01*
X97829502Y-38885820D01*
X97783630Y-38800000D01*
X99377899Y-38800000D01*
X99321495Y-38837688D01*
X99107688Y-39051495D01*
X98939701Y-39302905D01*
X98823989Y-39582257D01*
X98765000Y-39878816D01*
X98765000Y-40181184D01*
X98823989Y-40477743D01*
X98939701Y-40757095D01*
X99107688Y-41008505D01*
X99321495Y-41222312D01*
X99572905Y-41390299D01*
X99852257Y-41506011D01*
X100148816Y-41565000D01*
X100451184Y-41565000D01*
X100747743Y-41506011D01*
X101027095Y-41390299D01*
X101278505Y-41222312D01*
X101344944Y-41155873D01*
X101350498Y-41174180D01*
X101409463Y-41284494D01*
X101488815Y-41381185D01*
X101585506Y-41460537D01*
X101695820Y-41519502D01*
X101815518Y-41555812D01*
X101940000Y-41568072D01*
X103740000Y-41568072D01*
X103864482Y-41555812D01*
X103984180Y-41519502D01*
X104094494Y-41460537D01*
X104191185Y-41381185D01*
X104270537Y-41284494D01*
X104329502Y-41174180D01*
X104365812Y-41054482D01*
X104378072Y-40930000D01*
X104378072Y-39130000D01*
X104365812Y-39005518D01*
X104365730Y-39005248D01*
X104438102Y-39035226D01*
X104638061Y-39075000D01*
X104841939Y-39075000D01*
X105041898Y-39035226D01*
X105230256Y-38957205D01*
X105399774Y-38843937D01*
X105543937Y-38699774D01*
X105657205Y-38530256D01*
X105735226Y-38341898D01*
X105775000Y-38141939D01*
X105775000Y-37938061D01*
X105735226Y-37738102D01*
X105657205Y-37549744D01*
X105543937Y-37380226D01*
X105399774Y-37236063D01*
X105230256Y-37122795D01*
X105041898Y-37044774D01*
X104841939Y-37005000D01*
X104638061Y-37005000D01*
X104438102Y-37044774D01*
X104249744Y-37122795D01*
X104080226Y-37236063D01*
X104036289Y-37280000D01*
X93537323Y-37280000D01*
X93500000Y-37276324D01*
X93462677Y-37280000D01*
X93462667Y-37280000D01*
X93351014Y-37290997D01*
X93207753Y-37334454D01*
X93075724Y-37405026D01*
X92959999Y-37499999D01*
X92936201Y-37528997D01*
X90665906Y-39799292D01*
X90621309Y-39785764D01*
X90410492Y-39765000D01*
X90269508Y-39765000D01*
X90058691Y-39785764D01*
X89788192Y-39867818D01*
X89538899Y-40001068D01*
X89320392Y-40180392D01*
X89141068Y-40398899D01*
X89007818Y-40648192D01*
X88925764Y-40918691D01*
X88898057Y-41200000D01*
X88925764Y-41481309D01*
X89007818Y-41751808D01*
X89036237Y-41804976D01*
X89019778Y-41804976D01*
X88740708Y-41525906D01*
X88754236Y-41481309D01*
X88781943Y-41200000D01*
X88754236Y-40918691D01*
X88672182Y-40648192D01*
X88538932Y-40398899D01*
X88359608Y-40180392D01*
X88141101Y-40001068D01*
X87891808Y-39867818D01*
X87621309Y-39785764D01*
X87410492Y-39765000D01*
X87269508Y-39765000D01*
X87058691Y-39785764D01*
X86788192Y-39867818D01*
X86538899Y-40001068D01*
X86320392Y-40180392D01*
X86141068Y-40398899D01*
X86007818Y-40648192D01*
X85925764Y-40918691D01*
X85898057Y-41200000D01*
X85925764Y-41481309D01*
X86007818Y-41751808D01*
X86055137Y-41840335D01*
X85740708Y-41525906D01*
X85754236Y-41481309D01*
X85781943Y-41200000D01*
X85754236Y-40918691D01*
X85672182Y-40648192D01*
X85538932Y-40398899D01*
X85359608Y-40180392D01*
X85141101Y-40001068D01*
X84891808Y-39867818D01*
X84621309Y-39785764D01*
X84410492Y-39765000D01*
X84269508Y-39765000D01*
X84065816Y-39785062D01*
X84279608Y-39609608D01*
X84458932Y-39391101D01*
X84592182Y-39141808D01*
X84674236Y-38871309D01*
X84701943Y-38590000D01*
X84674236Y-38308691D01*
X84592182Y-38038192D01*
X84458932Y-37788899D01*
X84346960Y-37652460D01*
X84425998Y-37573422D01*
X84455001Y-37549620D01*
X84513188Y-37478719D01*
X84670448Y-37510000D01*
X84859552Y-37510000D01*
X85045022Y-37473108D01*
X85190000Y-37413056D01*
X85334978Y-37473108D01*
X85520448Y-37510000D01*
X85709552Y-37510000D01*
X85895022Y-37473108D01*
X86040000Y-37413056D01*
X86184978Y-37473108D01*
X86370448Y-37510000D01*
X86559552Y-37510000D01*
X86745022Y-37473108D01*
X86890000Y-37413056D01*
X87034978Y-37473108D01*
X87220448Y-37510000D01*
X87409552Y-37510000D01*
X87595022Y-37473108D01*
X87740000Y-37413056D01*
X87884978Y-37473108D01*
X88070448Y-37510000D01*
X88259552Y-37510000D01*
X88445022Y-37473108D01*
X88590000Y-37413056D01*
X88734978Y-37473108D01*
X88920448Y-37510000D01*
X89109552Y-37510000D01*
X89295022Y-37473108D01*
X89469731Y-37400741D01*
X89626964Y-37295681D01*
X89724603Y-37198042D01*
X89759290Y-37226509D01*
X89947780Y-37327259D01*
X90152303Y-37389300D01*
X90365000Y-37410249D01*
X90577696Y-37389300D01*
X90782219Y-37327259D01*
X90970710Y-37226509D01*
X91135922Y-37090922D01*
X91271509Y-36925710D01*
X91372259Y-36737220D01*
X91434300Y-36532697D01*
X91450000Y-36373294D01*
X91450000Y-34766706D01*
X91434300Y-34607303D01*
X91372259Y-34402780D01*
X91271509Y-34214290D01*
X91135922Y-34049078D01*
X90970710Y-33913491D01*
X90782220Y-33812741D01*
X90577697Y-33750700D01*
X90365000Y-33729751D01*
X90152304Y-33750700D01*
X89947781Y-33812741D01*
X89759291Y-33913491D01*
X89594079Y-34049078D01*
X89458492Y-34214290D01*
X89390524Y-34341450D01*
X89295022Y-34301892D01*
X89109552Y-34265000D01*
X88920448Y-34265000D01*
X88758889Y-34297136D01*
X88700001Y-34225380D01*
X88670998Y-34201578D01*
X88533422Y-34064002D01*
X88509619Y-34034998D01*
X88393894Y-33940025D01*
X88261865Y-33869453D01*
X88118604Y-33825996D01*
X88006951Y-33814999D01*
X88006940Y-33814999D01*
X87969618Y-33811323D01*
X87932296Y-33814999D01*
X84485321Y-33814999D01*
X84447998Y-33811323D01*
X84410675Y-33814999D01*
X84410666Y-33814999D01*
X84299013Y-33825996D01*
X84155752Y-33869453D01*
X84023723Y-33940025D01*
X84007684Y-33953188D01*
X83936995Y-34011200D01*
X83936991Y-34011204D01*
X83907998Y-34034998D01*
X83884204Y-34063992D01*
X83650358Y-34297838D01*
X83629978Y-34301892D01*
X83485000Y-34361944D01*
X83340022Y-34301892D01*
X83154552Y-34265000D01*
X82965448Y-34265000D01*
X82779978Y-34301892D01*
X82688571Y-34339754D01*
X82621509Y-34214290D01*
X82485922Y-34049078D01*
X82320710Y-33913491D01*
X82132220Y-33812741D01*
X81927697Y-33750700D01*
X81715000Y-33729751D01*
X81502304Y-33750700D01*
X81297781Y-33812741D01*
X81109291Y-33913491D01*
X80944079Y-34049078D01*
X80808492Y-34214290D01*
X80707742Y-34402780D01*
X80645700Y-34607303D01*
X80630000Y-34766706D01*
X80630000Y-36373293D01*
X80636570Y-36440001D01*
X80564804Y-36440001D01*
X79002364Y-34877563D01*
X79070537Y-34794494D01*
X79129502Y-34684180D01*
X79165812Y-34564482D01*
X79178072Y-34440000D01*
X79178072Y-32840000D01*
X79165812Y-32715518D01*
X79129502Y-32595820D01*
X79070537Y-32485506D01*
X78991185Y-32388815D01*
X78894494Y-32309463D01*
X78784180Y-32250498D01*
X78664482Y-32214188D01*
X78540000Y-32201928D01*
X76940000Y-32201928D01*
X76815518Y-32214188D01*
X76695820Y-32250498D01*
X76585506Y-32309463D01*
X76488815Y-32388815D01*
X76409463Y-32485506D01*
X76350498Y-32595820D01*
X76314188Y-32715518D01*
X76301928Y-32840000D01*
X76301928Y-34440000D01*
X76314188Y-34564482D01*
X76350498Y-34684180D01*
X76409463Y-34794494D01*
X76488815Y-34891185D01*
X76585506Y-34970537D01*
X76695820Y-35029502D01*
X76815518Y-35065812D01*
X76940000Y-35078072D01*
X77085674Y-35078072D01*
X77105026Y-35114276D01*
X77176201Y-35201002D01*
X77200000Y-35230001D01*
X77228998Y-35253799D01*
X79686206Y-37711009D01*
X79710000Y-37740002D01*
X79738993Y-37763796D01*
X79738997Y-37763800D01*
X79769581Y-37788899D01*
X79825725Y-37834975D01*
X79957754Y-37905547D01*
X80101015Y-37949004D01*
X80212668Y-37960001D01*
X80212677Y-37960001D01*
X80250000Y-37963677D01*
X80287323Y-37960001D01*
X81969612Y-37960001D01*
X81927818Y-38038192D01*
X81845764Y-38308691D01*
X81818057Y-38590000D01*
X81845764Y-38871309D01*
X81927818Y-39141808D01*
X82061068Y-39391101D01*
X82240392Y-39609608D01*
X82458899Y-39788932D01*
X82708192Y-39922182D01*
X82978691Y-40004236D01*
X83189508Y-40025000D01*
X83330492Y-40025000D01*
X83534184Y-40004938D01*
X83320392Y-40180392D01*
X83141068Y-40398899D01*
X83007818Y-40648192D01*
X82925764Y-40918691D01*
X82898057Y-41200000D01*
X82925764Y-41481309D01*
X83007818Y-41751808D01*
X83055137Y-41840335D01*
X82740708Y-41525906D01*
X82754236Y-41481309D01*
X82781943Y-41200000D01*
X82754236Y-40918691D01*
X82672182Y-40648192D01*
X82538932Y-40398899D01*
X82359608Y-40180392D01*
X82141101Y-40001068D01*
X81891808Y-39867818D01*
X81621309Y-39785764D01*
X81410492Y-39765000D01*
X81269508Y-39765000D01*
X81058691Y-39785764D01*
X80788192Y-39867818D01*
X80538899Y-40001068D01*
X80320392Y-40180392D01*
X80141068Y-40398899D01*
X80007818Y-40648192D01*
X79925764Y-40918691D01*
X79898057Y-41200000D01*
X79925764Y-41481309D01*
X80007818Y-41751808D01*
X80055136Y-41840335D01*
X79740708Y-41525906D01*
X79754236Y-41481309D01*
X79781943Y-41200000D01*
X79754236Y-40918691D01*
X79672182Y-40648192D01*
X79538932Y-40398899D01*
X79359608Y-40180392D01*
X79141101Y-40001068D01*
X78891808Y-39867818D01*
X78621309Y-39785764D01*
X78410492Y-39765000D01*
X78269508Y-39765000D01*
X78058691Y-39785764D01*
X77788192Y-39867818D01*
X77538899Y-40001068D01*
X77320392Y-40180392D01*
X77141068Y-40398899D01*
X77007818Y-40648192D01*
X76925764Y-40918691D01*
X76898057Y-41200000D01*
X76925764Y-41481309D01*
X77007818Y-41751808D01*
X77055136Y-41840335D01*
X76740708Y-41525906D01*
X76754236Y-41481309D01*
X76781943Y-41200000D01*
X76754236Y-40918691D01*
X76672182Y-40648192D01*
X76538932Y-40398899D01*
X76359608Y-40180392D01*
X76141101Y-40001068D01*
X76072168Y-39964222D01*
X76319727Y-39861680D01*
X76554759Y-39704637D01*
X76754637Y-39504759D01*
X76911680Y-39269727D01*
X77019853Y-39008574D01*
X77075000Y-38731335D01*
X77075000Y-38448665D01*
X77019853Y-38171426D01*
X76911680Y-37910273D01*
X76754637Y-37675241D01*
X76554759Y-37475363D01*
X76319727Y-37318320D01*
X76058574Y-37210147D01*
X75781335Y-37155000D01*
X75498665Y-37155000D01*
X75221426Y-37210147D01*
X74960273Y-37318320D01*
X74725241Y-37475363D01*
X74590000Y-37610604D01*
X74454759Y-37475363D01*
X74219727Y-37318320D01*
X73958574Y-37210147D01*
X73681335Y-37155000D01*
X73398665Y-37155000D01*
X73121426Y-37210147D01*
X72860273Y-37318320D01*
X72625241Y-37475363D01*
X72425363Y-37675241D01*
X72268320Y-37910273D01*
X72160147Y-38171426D01*
X72105000Y-38448665D01*
X72105000Y-38731335D01*
X72160147Y-39008574D01*
X72268320Y-39269727D01*
X72425363Y-39504759D01*
X72625241Y-39704637D01*
X72850877Y-39855402D01*
X72621309Y-39785764D01*
X72410492Y-39765000D01*
X72269508Y-39765000D01*
X72058691Y-39785764D01*
X71788192Y-39867818D01*
X71538899Y-40001068D01*
X71320392Y-40180392D01*
X71141068Y-40398899D01*
X71007818Y-40648192D01*
X70925764Y-40918691D01*
X70898057Y-41200000D01*
X70781943Y-41200000D01*
X70754236Y-40918691D01*
X70672182Y-40648192D01*
X70538932Y-40398899D01*
X70359608Y-40180392D01*
X70141101Y-40001068D01*
X69891808Y-39867818D01*
X69621309Y-39785764D01*
X69410492Y-39765000D01*
X69269508Y-39765000D01*
X69058691Y-39785764D01*
X68788192Y-39867818D01*
X68538899Y-40001068D01*
X68320392Y-40180392D01*
X68141068Y-40398899D01*
X68007818Y-40648192D01*
X67925764Y-40918691D01*
X67898057Y-41200000D01*
X67781943Y-41200000D01*
X67754236Y-40918691D01*
X67672182Y-40648192D01*
X67538932Y-40398899D01*
X67359608Y-40180392D01*
X67141101Y-40001068D01*
X66891808Y-39867818D01*
X66688753Y-39806223D01*
X66721101Y-39788932D01*
X66939608Y-39609608D01*
X67118932Y-39391101D01*
X67252182Y-39141808D01*
X67334236Y-38871309D01*
X67361943Y-38590000D01*
X67334236Y-38308691D01*
X67252182Y-38038192D01*
X67118932Y-37788899D01*
X66939608Y-37570392D01*
X66721101Y-37391068D01*
X66471808Y-37257818D01*
X66201309Y-37175764D01*
X65990492Y-37155000D01*
X65849508Y-37155000D01*
X65638691Y-37175764D01*
X65368192Y-37257818D01*
X65118899Y-37391068D01*
X64900392Y-37570392D01*
X64721068Y-37788899D01*
X64587818Y-38038192D01*
X64505764Y-38308691D01*
X64478057Y-38590000D01*
X63660000Y-38590000D01*
X63660000Y-33274464D01*
X63762463Y-33521831D01*
X63952337Y-33805998D01*
X64194002Y-34047663D01*
X64478169Y-34237537D01*
X64793919Y-34368325D01*
X65129117Y-34435000D01*
X65470883Y-34435000D01*
X65806081Y-34368325D01*
X66121831Y-34237537D01*
X66405998Y-34047663D01*
X66464622Y-33989039D01*
X68728096Y-33989039D01*
X68768754Y-34123087D01*
X68888963Y-34377420D01*
X69056481Y-34603414D01*
X69264869Y-34792385D01*
X69506119Y-34937070D01*
X69770960Y-35031909D01*
X69993000Y-34910624D01*
X69993000Y-33767000D01*
X70247000Y-33767000D01*
X70247000Y-34910624D01*
X70469040Y-35031909D01*
X70733881Y-34937070D01*
X70975131Y-34792385D01*
X71183519Y-34603414D01*
X71351037Y-34377420D01*
X71471246Y-34123087D01*
X71511904Y-33989039D01*
X71389915Y-33767000D01*
X70247000Y-33767000D01*
X69993000Y-33767000D01*
X68850085Y-33767000D01*
X68728096Y-33989039D01*
X66464622Y-33989039D01*
X66647663Y-33805998D01*
X66837537Y-33521831D01*
X66933166Y-33290961D01*
X68728096Y-33290961D01*
X68850085Y-33513000D01*
X69993000Y-33513000D01*
X69993000Y-32369376D01*
X70247000Y-32369376D01*
X70247000Y-33513000D01*
X71389915Y-33513000D01*
X71511904Y-33290961D01*
X71471246Y-33156913D01*
X71351037Y-32902580D01*
X71183519Y-32676586D01*
X70975131Y-32487615D01*
X70733881Y-32342930D01*
X70469040Y-32248091D01*
X70247000Y-32369376D01*
X69993000Y-32369376D01*
X69770960Y-32248091D01*
X69506119Y-32342930D01*
X69264869Y-32487615D01*
X69056481Y-32676586D01*
X68888963Y-32902580D01*
X68768754Y-33156913D01*
X68728096Y-33290961D01*
X66933166Y-33290961D01*
X66968325Y-33206081D01*
X67035000Y-32870883D01*
X67035000Y-32529117D01*
X66968325Y-32193919D01*
X66837537Y-31878169D01*
X66647663Y-31594002D01*
X66405998Y-31352337D01*
X66121831Y-31162463D01*
X65874464Y-31060000D01*
X80910495Y-31060000D01*
X80808492Y-31184290D01*
M02*
