G04 #@! TF.GenerationSoftware,KiCad,Pcbnew,(5.1.0)-1*
G04 #@! TF.CreationDate,2020-10-02T20:32:57-04:00*
G04 #@! TF.ProjectId,keyboard,6b657962-6f61-4726-942e-6b696361645f,rev?*
G04 #@! TF.SameCoordinates,Original*
G04 #@! TF.FileFunction,Legend,Bot*
G04 #@! TF.FilePolarity,Positive*
%FSLAX46Y46*%
G04 Gerber Fmt 4.6, Leading zero omitted, Abs format (unit mm)*
G04 Created by KiCad (PCBNEW (5.1.0)-1) date 2020-10-02 20:32:57*
%MOMM*%
%LPD*%
G04 APERTURE LIST*
%ADD10C,0.150000*%
%ADD11C,0.120000*%
%ADD12C,0.200000*%
G04 APERTURE END LIST*
D10*
X81248285Y-47696380D02*
X81819714Y-47696380D01*
X81534000Y-47696380D02*
X81534000Y-46696380D01*
X81629238Y-46839238D01*
X81724476Y-46934476D01*
X81819714Y-46982095D01*
D11*
X97520000Y-55824000D02*
X94835000Y-55824000D01*
X94835000Y-55824000D02*
X94835000Y-53904000D01*
X94835000Y-53904000D02*
X97520000Y-53904000D01*
X96778578Y-53542000D02*
X96261422Y-53542000D01*
X96778578Y-52122000D02*
X96261422Y-52122000D01*
D10*
X82645000Y-48355000D02*
X82070000Y-48355000D01*
X82645000Y-38005000D02*
X81970000Y-38005000D01*
X72295000Y-38005000D02*
X72970000Y-38005000D01*
X72295000Y-48355000D02*
X72970000Y-48355000D01*
X82645000Y-48355000D02*
X82645000Y-47680000D01*
X72295000Y-48355000D02*
X72295000Y-47680000D01*
X72295000Y-38005000D02*
X72295000Y-38680000D01*
X82645000Y-38005000D02*
X82645000Y-38680000D01*
X82070000Y-48355000D02*
X82070000Y-49630000D01*
D11*
X96261422Y-39930000D02*
X96778578Y-39930000D01*
X96261422Y-41350000D02*
X96778578Y-41350000D01*
X63758578Y-41350000D02*
X63241422Y-41350000D01*
X63758578Y-39930000D02*
X63241422Y-39930000D01*
X63758578Y-45518000D02*
X63241422Y-45518000D01*
X63758578Y-46938000D02*
X63241422Y-46938000D01*
X96261422Y-43382000D02*
X96778578Y-43382000D01*
X96261422Y-41962000D02*
X96778578Y-41962000D01*
X96261422Y-43994000D02*
X96778578Y-43994000D01*
X96261422Y-45414000D02*
X96778578Y-45414000D01*
X96261422Y-47446000D02*
X96778578Y-47446000D01*
X96261422Y-46026000D02*
X96778578Y-46026000D01*
X96261422Y-48058000D02*
X96778578Y-48058000D01*
X96261422Y-49478000D02*
X96778578Y-49478000D01*
X96778578Y-50090000D02*
X96261422Y-50090000D01*
X96778578Y-51510000D02*
X96261422Y-51510000D01*
D12*
X27443000Y-63176000D02*
X27443000Y-60776000D01*
X27268000Y-63176000D02*
X27268000Y-60776000D01*
X27093000Y-63176000D02*
X27093000Y-60776000D01*
X26693000Y-60776000D02*
X26693000Y-63176000D01*
X26918000Y-63176000D02*
X26918000Y-60776000D01*
X26793000Y-63176000D02*
X26793000Y-60776000D01*
X26718000Y-63176000D02*
X32518000Y-63176000D01*
X32518000Y-63176000D02*
X32518000Y-60776000D01*
X32518000Y-60776000D02*
X26718000Y-60776000D01*
X51568000Y-60776000D02*
X45768000Y-60776000D01*
X51568000Y-63176000D02*
X51568000Y-60776000D01*
X45768000Y-63176000D02*
X51568000Y-63176000D01*
X45843000Y-63176000D02*
X45843000Y-60776000D01*
X45968000Y-63176000D02*
X45968000Y-60776000D01*
X45743000Y-60776000D02*
X45743000Y-63176000D01*
X46143000Y-63176000D02*
X46143000Y-60776000D01*
X46318000Y-63176000D02*
X46318000Y-60776000D01*
X46493000Y-63176000D02*
X46493000Y-60776000D01*
X65492000Y-63430000D02*
X65492000Y-61030000D01*
X65317000Y-63430000D02*
X65317000Y-61030000D01*
X65142000Y-63430000D02*
X65142000Y-61030000D01*
X64742000Y-61030000D02*
X64742000Y-63430000D01*
X64967000Y-63430000D02*
X64967000Y-61030000D01*
X64842000Y-63430000D02*
X64842000Y-61030000D01*
X64767000Y-63430000D02*
X70567000Y-63430000D01*
X70567000Y-63430000D02*
X70567000Y-61030000D01*
X70567000Y-61030000D02*
X64767000Y-61030000D01*
X89668000Y-60776000D02*
X83868000Y-60776000D01*
X89668000Y-63176000D02*
X89668000Y-60776000D01*
X83868000Y-63176000D02*
X89668000Y-63176000D01*
X83943000Y-63176000D02*
X83943000Y-60776000D01*
X84068000Y-63176000D02*
X84068000Y-60776000D01*
X83843000Y-60776000D02*
X83843000Y-63176000D01*
X84243000Y-63176000D02*
X84243000Y-60776000D01*
X84418000Y-63176000D02*
X84418000Y-60776000D01*
X84593000Y-63176000D02*
X84593000Y-60776000D01*
X108718000Y-60776000D02*
X102918000Y-60776000D01*
X108718000Y-63176000D02*
X108718000Y-60776000D01*
X102918000Y-63176000D02*
X108718000Y-63176000D01*
X102993000Y-63176000D02*
X102993000Y-60776000D01*
X103118000Y-63176000D02*
X103118000Y-60776000D01*
X102893000Y-60776000D02*
X102893000Y-63176000D01*
X103293000Y-63176000D02*
X103293000Y-60776000D01*
X103468000Y-63176000D02*
X103468000Y-60776000D01*
X103643000Y-63176000D02*
X103643000Y-60776000D01*
X122693000Y-63176000D02*
X122693000Y-60776000D01*
X122518000Y-63176000D02*
X122518000Y-60776000D01*
X122343000Y-63176000D02*
X122343000Y-60776000D01*
X121943000Y-60776000D02*
X121943000Y-63176000D01*
X122168000Y-63176000D02*
X122168000Y-60776000D01*
X122043000Y-63176000D02*
X122043000Y-60776000D01*
X121968000Y-63176000D02*
X127768000Y-63176000D01*
X127768000Y-63176000D02*
X127768000Y-60776000D01*
X127768000Y-60776000D02*
X121968000Y-60776000D01*
X141743000Y-63176000D02*
X141743000Y-60776000D01*
X141568000Y-63176000D02*
X141568000Y-60776000D01*
X141393000Y-63176000D02*
X141393000Y-60776000D01*
X140993000Y-60776000D02*
X140993000Y-63176000D01*
X141218000Y-63176000D02*
X141218000Y-60776000D01*
X141093000Y-63176000D02*
X141093000Y-60776000D01*
X141018000Y-63176000D02*
X146818000Y-63176000D01*
X146818000Y-63176000D02*
X146818000Y-60776000D01*
X146818000Y-60776000D02*
X141018000Y-60776000D01*
X160793000Y-63176000D02*
X160793000Y-60776000D01*
X160618000Y-63176000D02*
X160618000Y-60776000D01*
X160443000Y-63176000D02*
X160443000Y-60776000D01*
X160043000Y-60776000D02*
X160043000Y-63176000D01*
X160268000Y-63176000D02*
X160268000Y-60776000D01*
X160143000Y-63176000D02*
X160143000Y-60776000D01*
X160068000Y-63176000D02*
X165868000Y-63176000D01*
X165868000Y-63176000D02*
X165868000Y-60776000D01*
X165868000Y-60776000D02*
X160068000Y-60776000D01*
X179843000Y-63176000D02*
X179843000Y-60776000D01*
X179668000Y-63176000D02*
X179668000Y-60776000D01*
X179493000Y-63176000D02*
X179493000Y-60776000D01*
X179093000Y-60776000D02*
X179093000Y-63176000D01*
X179318000Y-63176000D02*
X179318000Y-60776000D01*
X179193000Y-63176000D02*
X179193000Y-60776000D01*
X179118000Y-63176000D02*
X184918000Y-63176000D01*
X184918000Y-63176000D02*
X184918000Y-60776000D01*
X184918000Y-60776000D02*
X179118000Y-60776000D01*
X203968000Y-60776000D02*
X198168000Y-60776000D01*
X203968000Y-63176000D02*
X203968000Y-60776000D01*
X198168000Y-63176000D02*
X203968000Y-63176000D01*
X198243000Y-63176000D02*
X198243000Y-60776000D01*
X198368000Y-63176000D02*
X198368000Y-60776000D01*
X198143000Y-60776000D02*
X198143000Y-63176000D01*
X198543000Y-63176000D02*
X198543000Y-60776000D01*
X198718000Y-63176000D02*
X198718000Y-60776000D01*
X198893000Y-63176000D02*
X198893000Y-60776000D01*
X217943000Y-63176000D02*
X217943000Y-60776000D01*
X217768000Y-63176000D02*
X217768000Y-60776000D01*
X217593000Y-63176000D02*
X217593000Y-60776000D01*
X217193000Y-60776000D02*
X217193000Y-63176000D01*
X217418000Y-63176000D02*
X217418000Y-60776000D01*
X217293000Y-63176000D02*
X217293000Y-60776000D01*
X217218000Y-63176000D02*
X223018000Y-63176000D01*
X223018000Y-63176000D02*
X223018000Y-60776000D01*
X223018000Y-60776000D02*
X217218000Y-60776000D01*
X242068000Y-60776000D02*
X236268000Y-60776000D01*
X242068000Y-63176000D02*
X242068000Y-60776000D01*
X236268000Y-63176000D02*
X242068000Y-63176000D01*
X236343000Y-63176000D02*
X236343000Y-60776000D01*
X236468000Y-63176000D02*
X236468000Y-60776000D01*
X236243000Y-60776000D02*
X236243000Y-63176000D01*
X236643000Y-63176000D02*
X236643000Y-60776000D01*
X236818000Y-63176000D02*
X236818000Y-60776000D01*
X236993000Y-63176000D02*
X236993000Y-60776000D01*
X32518000Y-79826000D02*
X26718000Y-79826000D01*
X32518000Y-82226000D02*
X32518000Y-79826000D01*
X26718000Y-82226000D02*
X32518000Y-82226000D01*
X26793000Y-82226000D02*
X26793000Y-79826000D01*
X26918000Y-82226000D02*
X26918000Y-79826000D01*
X26693000Y-79826000D02*
X26693000Y-82226000D01*
X27093000Y-82226000D02*
X27093000Y-79826000D01*
X27268000Y-82226000D02*
X27268000Y-79826000D01*
X27443000Y-82226000D02*
X27443000Y-79826000D01*
X46493000Y-82226000D02*
X46493000Y-79826000D01*
X46318000Y-82226000D02*
X46318000Y-79826000D01*
X46143000Y-82226000D02*
X46143000Y-79826000D01*
X45743000Y-79826000D02*
X45743000Y-82226000D01*
X45968000Y-82226000D02*
X45968000Y-79826000D01*
X45843000Y-82226000D02*
X45843000Y-79826000D01*
X45768000Y-82226000D02*
X51568000Y-82226000D01*
X51568000Y-82226000D02*
X51568000Y-79826000D01*
X51568000Y-79826000D02*
X45768000Y-79826000D01*
X65543000Y-82226000D02*
X65543000Y-79826000D01*
X65368000Y-82226000D02*
X65368000Y-79826000D01*
X65193000Y-82226000D02*
X65193000Y-79826000D01*
X64793000Y-79826000D02*
X64793000Y-82226000D01*
X65018000Y-82226000D02*
X65018000Y-79826000D01*
X64893000Y-82226000D02*
X64893000Y-79826000D01*
X64818000Y-82226000D02*
X70618000Y-82226000D01*
X70618000Y-82226000D02*
X70618000Y-79826000D01*
X70618000Y-79826000D02*
X64818000Y-79826000D01*
X84593000Y-82226000D02*
X84593000Y-79826000D01*
X84418000Y-82226000D02*
X84418000Y-79826000D01*
X84243000Y-82226000D02*
X84243000Y-79826000D01*
X83843000Y-79826000D02*
X83843000Y-82226000D01*
X84068000Y-82226000D02*
X84068000Y-79826000D01*
X83943000Y-82226000D02*
X83943000Y-79826000D01*
X83868000Y-82226000D02*
X89668000Y-82226000D01*
X89668000Y-82226000D02*
X89668000Y-79826000D01*
X89668000Y-79826000D02*
X83868000Y-79826000D01*
X103643000Y-82226000D02*
X103643000Y-79826000D01*
X103468000Y-82226000D02*
X103468000Y-79826000D01*
X103293000Y-82226000D02*
X103293000Y-79826000D01*
X102893000Y-79826000D02*
X102893000Y-82226000D01*
X103118000Y-82226000D02*
X103118000Y-79826000D01*
X102993000Y-82226000D02*
X102993000Y-79826000D01*
X102918000Y-82226000D02*
X108718000Y-82226000D01*
X108718000Y-82226000D02*
X108718000Y-79826000D01*
X108718000Y-79826000D02*
X102918000Y-79826000D01*
X127768000Y-80080000D02*
X121968000Y-80080000D01*
X127768000Y-82480000D02*
X127768000Y-80080000D01*
X121968000Y-82480000D02*
X127768000Y-82480000D01*
X122043000Y-82480000D02*
X122043000Y-80080000D01*
X122168000Y-82480000D02*
X122168000Y-80080000D01*
X121943000Y-80080000D02*
X121943000Y-82480000D01*
X122343000Y-82480000D02*
X122343000Y-80080000D01*
X122518000Y-82480000D02*
X122518000Y-80080000D01*
X122693000Y-82480000D02*
X122693000Y-80080000D01*
X141489000Y-82226000D02*
X141489000Y-79826000D01*
X141314000Y-82226000D02*
X141314000Y-79826000D01*
X141139000Y-82226000D02*
X141139000Y-79826000D01*
X140739000Y-79826000D02*
X140739000Y-82226000D01*
X140964000Y-82226000D02*
X140964000Y-79826000D01*
X140839000Y-82226000D02*
X140839000Y-79826000D01*
X140764000Y-82226000D02*
X146564000Y-82226000D01*
X146564000Y-82226000D02*
X146564000Y-79826000D01*
X146564000Y-79826000D02*
X140764000Y-79826000D01*
X165614000Y-79826000D02*
X159814000Y-79826000D01*
X165614000Y-82226000D02*
X165614000Y-79826000D01*
X159814000Y-82226000D02*
X165614000Y-82226000D01*
X159889000Y-82226000D02*
X159889000Y-79826000D01*
X160014000Y-82226000D02*
X160014000Y-79826000D01*
X159789000Y-79826000D02*
X159789000Y-82226000D01*
X160189000Y-82226000D02*
X160189000Y-79826000D01*
X160364000Y-82226000D02*
X160364000Y-79826000D01*
X160539000Y-82226000D02*
X160539000Y-79826000D01*
X184918000Y-79826000D02*
X179118000Y-79826000D01*
X184918000Y-82226000D02*
X184918000Y-79826000D01*
X179118000Y-82226000D02*
X184918000Y-82226000D01*
X179193000Y-82226000D02*
X179193000Y-79826000D01*
X179318000Y-82226000D02*
X179318000Y-79826000D01*
X179093000Y-79826000D02*
X179093000Y-82226000D01*
X179493000Y-82226000D02*
X179493000Y-79826000D01*
X179668000Y-82226000D02*
X179668000Y-79826000D01*
X179843000Y-82226000D02*
X179843000Y-79826000D01*
X198893000Y-82226000D02*
X198893000Y-79826000D01*
X198718000Y-82226000D02*
X198718000Y-79826000D01*
X198543000Y-82226000D02*
X198543000Y-79826000D01*
X198143000Y-79826000D02*
X198143000Y-82226000D01*
X198368000Y-82226000D02*
X198368000Y-79826000D01*
X198243000Y-82226000D02*
X198243000Y-79826000D01*
X198168000Y-82226000D02*
X203968000Y-82226000D01*
X203968000Y-82226000D02*
X203968000Y-79826000D01*
X203968000Y-79826000D02*
X198168000Y-79826000D01*
X222764000Y-79826000D02*
X216964000Y-79826000D01*
X222764000Y-82226000D02*
X222764000Y-79826000D01*
X216964000Y-82226000D02*
X222764000Y-82226000D01*
X217039000Y-82226000D02*
X217039000Y-79826000D01*
X217164000Y-82226000D02*
X217164000Y-79826000D01*
X216939000Y-79826000D02*
X216939000Y-82226000D01*
X217339000Y-82226000D02*
X217339000Y-79826000D01*
X217514000Y-82226000D02*
X217514000Y-79826000D01*
X217689000Y-82226000D02*
X217689000Y-79826000D01*
X242068000Y-79826000D02*
X236268000Y-79826000D01*
X242068000Y-82226000D02*
X242068000Y-79826000D01*
X236268000Y-82226000D02*
X242068000Y-82226000D01*
X236343000Y-82226000D02*
X236343000Y-79826000D01*
X236468000Y-82226000D02*
X236468000Y-79826000D01*
X236243000Y-79826000D02*
X236243000Y-82226000D01*
X236643000Y-82226000D02*
X236643000Y-79826000D01*
X236818000Y-82226000D02*
X236818000Y-79826000D01*
X236993000Y-82226000D02*
X236993000Y-79826000D01*
X32518000Y-98876000D02*
X26718000Y-98876000D01*
X32518000Y-101276000D02*
X32518000Y-98876000D01*
X26718000Y-101276000D02*
X32518000Y-101276000D01*
X26793000Y-101276000D02*
X26793000Y-98876000D01*
X26918000Y-101276000D02*
X26918000Y-98876000D01*
X26693000Y-98876000D02*
X26693000Y-101276000D01*
X27093000Y-101276000D02*
X27093000Y-98876000D01*
X27268000Y-101276000D02*
X27268000Y-98876000D01*
X27443000Y-101276000D02*
X27443000Y-98876000D01*
X46493000Y-101276000D02*
X46493000Y-98876000D01*
X46318000Y-101276000D02*
X46318000Y-98876000D01*
X46143000Y-101276000D02*
X46143000Y-98876000D01*
X45743000Y-98876000D02*
X45743000Y-101276000D01*
X45968000Y-101276000D02*
X45968000Y-98876000D01*
X45843000Y-101276000D02*
X45843000Y-98876000D01*
X45768000Y-101276000D02*
X51568000Y-101276000D01*
X51568000Y-101276000D02*
X51568000Y-98876000D01*
X51568000Y-98876000D02*
X45768000Y-98876000D01*
X65543000Y-101276000D02*
X65543000Y-98876000D01*
X65368000Y-101276000D02*
X65368000Y-98876000D01*
X65193000Y-101276000D02*
X65193000Y-98876000D01*
X64793000Y-98876000D02*
X64793000Y-101276000D01*
X65018000Y-101276000D02*
X65018000Y-98876000D01*
X64893000Y-101276000D02*
X64893000Y-98876000D01*
X64818000Y-101276000D02*
X70618000Y-101276000D01*
X70618000Y-101276000D02*
X70618000Y-98876000D01*
X70618000Y-98876000D02*
X64818000Y-98876000D01*
X84593000Y-101276000D02*
X84593000Y-98876000D01*
X84418000Y-101276000D02*
X84418000Y-98876000D01*
X84243000Y-101276000D02*
X84243000Y-98876000D01*
X83843000Y-98876000D02*
X83843000Y-101276000D01*
X84068000Y-101276000D02*
X84068000Y-98876000D01*
X83943000Y-101276000D02*
X83943000Y-98876000D01*
X83868000Y-101276000D02*
X89668000Y-101276000D01*
X89668000Y-101276000D02*
X89668000Y-98876000D01*
X89668000Y-98876000D02*
X83868000Y-98876000D01*
X108718000Y-98876000D02*
X102918000Y-98876000D01*
X108718000Y-101276000D02*
X108718000Y-98876000D01*
X102918000Y-101276000D02*
X108718000Y-101276000D01*
X102993000Y-101276000D02*
X102993000Y-98876000D01*
X103118000Y-101276000D02*
X103118000Y-98876000D01*
X102893000Y-98876000D02*
X102893000Y-101276000D01*
X103293000Y-101276000D02*
X103293000Y-98876000D01*
X103468000Y-101276000D02*
X103468000Y-98876000D01*
X103643000Y-101276000D02*
X103643000Y-98876000D01*
X122693000Y-100768000D02*
X122693000Y-98368000D01*
X122518000Y-100768000D02*
X122518000Y-98368000D01*
X122343000Y-100768000D02*
X122343000Y-98368000D01*
X121943000Y-98368000D02*
X121943000Y-100768000D01*
X122168000Y-100768000D02*
X122168000Y-98368000D01*
X122043000Y-100768000D02*
X122043000Y-98368000D01*
X121968000Y-100768000D02*
X127768000Y-100768000D01*
X127768000Y-100768000D02*
X127768000Y-98368000D01*
X127768000Y-98368000D02*
X121968000Y-98368000D01*
X141743000Y-101276000D02*
X141743000Y-98876000D01*
X141568000Y-101276000D02*
X141568000Y-98876000D01*
X141393000Y-101276000D02*
X141393000Y-98876000D01*
X140993000Y-98876000D02*
X140993000Y-101276000D01*
X141218000Y-101276000D02*
X141218000Y-98876000D01*
X141093000Y-101276000D02*
X141093000Y-98876000D01*
X141018000Y-101276000D02*
X146818000Y-101276000D01*
X146818000Y-101276000D02*
X146818000Y-98876000D01*
X146818000Y-98876000D02*
X141018000Y-98876000D01*
X165868000Y-98876000D02*
X160068000Y-98876000D01*
X165868000Y-101276000D02*
X165868000Y-98876000D01*
X160068000Y-101276000D02*
X165868000Y-101276000D01*
X160143000Y-101276000D02*
X160143000Y-98876000D01*
X160268000Y-101276000D02*
X160268000Y-98876000D01*
X160043000Y-98876000D02*
X160043000Y-101276000D01*
X160443000Y-101276000D02*
X160443000Y-98876000D01*
X160618000Y-101276000D02*
X160618000Y-98876000D01*
X160793000Y-101276000D02*
X160793000Y-98876000D01*
X184918000Y-98876000D02*
X179118000Y-98876000D01*
X184918000Y-101276000D02*
X184918000Y-98876000D01*
X179118000Y-101276000D02*
X184918000Y-101276000D01*
X179193000Y-101276000D02*
X179193000Y-98876000D01*
X179318000Y-101276000D02*
X179318000Y-98876000D01*
X179093000Y-98876000D02*
X179093000Y-101276000D01*
X179493000Y-101276000D02*
X179493000Y-98876000D01*
X179668000Y-101276000D02*
X179668000Y-98876000D01*
X179843000Y-101276000D02*
X179843000Y-98876000D01*
X203968000Y-98876000D02*
X198168000Y-98876000D01*
X203968000Y-101276000D02*
X203968000Y-98876000D01*
X198168000Y-101276000D02*
X203968000Y-101276000D01*
X198243000Y-101276000D02*
X198243000Y-98876000D01*
X198368000Y-101276000D02*
X198368000Y-98876000D01*
X198143000Y-98876000D02*
X198143000Y-101276000D01*
X198543000Y-101276000D02*
X198543000Y-98876000D01*
X198718000Y-101276000D02*
X198718000Y-98876000D01*
X198893000Y-101276000D02*
X198893000Y-98876000D01*
X217943000Y-101276000D02*
X217943000Y-98876000D01*
X217768000Y-101276000D02*
X217768000Y-98876000D01*
X217593000Y-101276000D02*
X217593000Y-98876000D01*
X217193000Y-98876000D02*
X217193000Y-101276000D01*
X217418000Y-101276000D02*
X217418000Y-98876000D01*
X217293000Y-101276000D02*
X217293000Y-98876000D01*
X217218000Y-101276000D02*
X223018000Y-101276000D01*
X223018000Y-101276000D02*
X223018000Y-98876000D01*
X223018000Y-98876000D02*
X217218000Y-98876000D01*
X242068000Y-98876000D02*
X236268000Y-98876000D01*
X242068000Y-101276000D02*
X242068000Y-98876000D01*
X236268000Y-101276000D02*
X242068000Y-101276000D01*
X236343000Y-101276000D02*
X236343000Y-98876000D01*
X236468000Y-101276000D02*
X236468000Y-98876000D01*
X236243000Y-98876000D02*
X236243000Y-101276000D01*
X236643000Y-101276000D02*
X236643000Y-98876000D01*
X236818000Y-101276000D02*
X236818000Y-98876000D01*
X236993000Y-101276000D02*
X236993000Y-98876000D01*
X32518000Y-117926000D02*
X26718000Y-117926000D01*
X32518000Y-120326000D02*
X32518000Y-117926000D01*
X26718000Y-120326000D02*
X32518000Y-120326000D01*
X26793000Y-120326000D02*
X26793000Y-117926000D01*
X26918000Y-120326000D02*
X26918000Y-117926000D01*
X26693000Y-117926000D02*
X26693000Y-120326000D01*
X27093000Y-120326000D02*
X27093000Y-117926000D01*
X27268000Y-120326000D02*
X27268000Y-117926000D01*
X27443000Y-120326000D02*
X27443000Y-117926000D01*
X46493000Y-120326000D02*
X46493000Y-117926000D01*
X46318000Y-120326000D02*
X46318000Y-117926000D01*
X46143000Y-120326000D02*
X46143000Y-117926000D01*
X45743000Y-117926000D02*
X45743000Y-120326000D01*
X45968000Y-120326000D02*
X45968000Y-117926000D01*
X45843000Y-120326000D02*
X45843000Y-117926000D01*
X45768000Y-120326000D02*
X51568000Y-120326000D01*
X51568000Y-120326000D02*
X51568000Y-117926000D01*
X51568000Y-117926000D02*
X45768000Y-117926000D01*
X70618000Y-117926000D02*
X64818000Y-117926000D01*
X70618000Y-120326000D02*
X70618000Y-117926000D01*
X64818000Y-120326000D02*
X70618000Y-120326000D01*
X64893000Y-120326000D02*
X64893000Y-117926000D01*
X65018000Y-120326000D02*
X65018000Y-117926000D01*
X64793000Y-117926000D02*
X64793000Y-120326000D01*
X65193000Y-120326000D02*
X65193000Y-117926000D01*
X65368000Y-120326000D02*
X65368000Y-117926000D01*
X65543000Y-120326000D02*
X65543000Y-117926000D01*
X84593000Y-120326000D02*
X84593000Y-117926000D01*
X84418000Y-120326000D02*
X84418000Y-117926000D01*
X84243000Y-120326000D02*
X84243000Y-117926000D01*
X83843000Y-117926000D02*
X83843000Y-120326000D01*
X84068000Y-120326000D02*
X84068000Y-117926000D01*
X83943000Y-120326000D02*
X83943000Y-117926000D01*
X83868000Y-120326000D02*
X89668000Y-120326000D01*
X89668000Y-120326000D02*
X89668000Y-117926000D01*
X89668000Y-117926000D02*
X83868000Y-117926000D01*
X108718000Y-117926000D02*
X102918000Y-117926000D01*
X108718000Y-120326000D02*
X108718000Y-117926000D01*
X102918000Y-120326000D02*
X108718000Y-120326000D01*
X102993000Y-120326000D02*
X102993000Y-117926000D01*
X103118000Y-120326000D02*
X103118000Y-117926000D01*
X102893000Y-117926000D02*
X102893000Y-120326000D01*
X103293000Y-120326000D02*
X103293000Y-117926000D01*
X103468000Y-120326000D02*
X103468000Y-117926000D01*
X103643000Y-120326000D02*
X103643000Y-117926000D01*
X137420000Y-117926000D02*
X131620000Y-117926000D01*
X137420000Y-120326000D02*
X137420000Y-117926000D01*
X131620000Y-120326000D02*
X137420000Y-120326000D01*
X131695000Y-120326000D02*
X131695000Y-117926000D01*
X131820000Y-120326000D02*
X131820000Y-117926000D01*
X131595000Y-117926000D02*
X131595000Y-120326000D01*
X131995000Y-120326000D02*
X131995000Y-117926000D01*
X132170000Y-120326000D02*
X132170000Y-117926000D01*
X132345000Y-120326000D02*
X132345000Y-117926000D01*
X165868000Y-117926000D02*
X160068000Y-117926000D01*
X165868000Y-120326000D02*
X165868000Y-117926000D01*
X160068000Y-120326000D02*
X165868000Y-120326000D01*
X160143000Y-120326000D02*
X160143000Y-117926000D01*
X160268000Y-120326000D02*
X160268000Y-117926000D01*
X160043000Y-117926000D02*
X160043000Y-120326000D01*
X160443000Y-120326000D02*
X160443000Y-117926000D01*
X160618000Y-120326000D02*
X160618000Y-117926000D01*
X160793000Y-120326000D02*
X160793000Y-117926000D01*
X179843000Y-120326000D02*
X179843000Y-117926000D01*
X179668000Y-120326000D02*
X179668000Y-117926000D01*
X179493000Y-120326000D02*
X179493000Y-117926000D01*
X179093000Y-117926000D02*
X179093000Y-120326000D01*
X179318000Y-120326000D02*
X179318000Y-117926000D01*
X179193000Y-120326000D02*
X179193000Y-117926000D01*
X179118000Y-120326000D02*
X184918000Y-120326000D01*
X184918000Y-120326000D02*
X184918000Y-117926000D01*
X184918000Y-117926000D02*
X179118000Y-117926000D01*
X198893000Y-120326000D02*
X198893000Y-117926000D01*
X198718000Y-120326000D02*
X198718000Y-117926000D01*
X198543000Y-120326000D02*
X198543000Y-117926000D01*
X198143000Y-117926000D02*
X198143000Y-120326000D01*
X198368000Y-120326000D02*
X198368000Y-117926000D01*
X198243000Y-120326000D02*
X198243000Y-117926000D01*
X198168000Y-120326000D02*
X203968000Y-120326000D01*
X203968000Y-120326000D02*
X203968000Y-117926000D01*
X203968000Y-117926000D02*
X198168000Y-117926000D01*
X223018000Y-117926000D02*
X217218000Y-117926000D01*
X223018000Y-120326000D02*
X223018000Y-117926000D01*
X217218000Y-120326000D02*
X223018000Y-120326000D01*
X217293000Y-120326000D02*
X217293000Y-117926000D01*
X217418000Y-120326000D02*
X217418000Y-117926000D01*
X217193000Y-117926000D02*
X217193000Y-120326000D01*
X217593000Y-120326000D02*
X217593000Y-117926000D01*
X217768000Y-120326000D02*
X217768000Y-117926000D01*
X217943000Y-120326000D02*
X217943000Y-117926000D01*
X236993000Y-120326000D02*
X236993000Y-117926000D01*
X236818000Y-120326000D02*
X236818000Y-117926000D01*
X236643000Y-120326000D02*
X236643000Y-117926000D01*
X236243000Y-117926000D02*
X236243000Y-120326000D01*
X236468000Y-120326000D02*
X236468000Y-117926000D01*
X236343000Y-120326000D02*
X236343000Y-117926000D01*
X236268000Y-120326000D02*
X242068000Y-120326000D01*
X242068000Y-120326000D02*
X242068000Y-117926000D01*
X242068000Y-117926000D02*
X236268000Y-117926000D01*
D11*
X227833422Y-39676000D02*
X228350578Y-39676000D01*
X227833422Y-41096000D02*
X228350578Y-41096000D01*
X96778578Y-37898000D02*
X96261422Y-37898000D01*
X96778578Y-39318000D02*
X96261422Y-39318000D01*
X227833422Y-37644000D02*
X228350578Y-37644000D01*
X227833422Y-39064000D02*
X228350578Y-39064000D01*
X227833422Y-37032000D02*
X228350578Y-37032000D01*
X227833422Y-35612000D02*
X228350578Y-35612000D01*
D10*
X70018000Y-40634000D02*
X70018000Y-46234000D01*
X65618000Y-46234000D02*
X65618000Y-40634000D01*
X67818000Y-48434000D02*
G75*
G02X65618000Y-46234000I0J2200000D01*
G01*
X70018000Y-46234000D02*
G75*
G02X67818000Y-48434000I-2200000J0D01*
G01*
X67818000Y-38434000D02*
G75*
G02X70018000Y-40634000I0J-2200000D01*
G01*
X65618000Y-40634000D02*
G75*
G02X67818000Y-38434000I2200000J0D01*
G01*
D11*
X244804000Y-46232578D02*
X244804000Y-45715422D01*
X243384000Y-46232578D02*
X243384000Y-45715422D01*
X240844000Y-46232578D02*
X240844000Y-45715422D01*
X242264000Y-46232578D02*
X242264000Y-45715422D01*
D10*
X97734285Y-57094380D02*
X97734285Y-56094380D01*
X97496190Y-56094380D01*
X97353333Y-56142000D01*
X97258095Y-56237238D01*
X97210476Y-56332476D01*
X97162857Y-56522952D01*
X97162857Y-56665809D01*
X97210476Y-56856285D01*
X97258095Y-56951523D01*
X97353333Y-57046761D01*
X97496190Y-57094380D01*
X97734285Y-57094380D01*
X96305714Y-56427714D02*
X96305714Y-57094380D01*
X96543809Y-56046761D02*
X96781904Y-56761047D01*
X96162857Y-56761047D01*
X95639047Y-56522952D02*
X95734285Y-56475333D01*
X95781904Y-56427714D01*
X95829523Y-56332476D01*
X95829523Y-56284857D01*
X95781904Y-56189619D01*
X95734285Y-56142000D01*
X95639047Y-56094380D01*
X95448571Y-56094380D01*
X95353333Y-56142000D01*
X95305714Y-56189619D01*
X95258095Y-56284857D01*
X95258095Y-56332476D01*
X95305714Y-56427714D01*
X95353333Y-56475333D01*
X95448571Y-56522952D01*
X95639047Y-56522952D01*
X95734285Y-56570571D01*
X95781904Y-56618190D01*
X95829523Y-56713428D01*
X95829523Y-56903904D01*
X95781904Y-56999142D01*
X95734285Y-57046761D01*
X95639047Y-57094380D01*
X95448571Y-57094380D01*
X95353333Y-57046761D01*
X95305714Y-56999142D01*
X95258095Y-56903904D01*
X95258095Y-56713428D01*
X95305714Y-56618190D01*
X95353333Y-56570571D01*
X95448571Y-56522952D01*
X99226666Y-53538380D02*
X99560000Y-53062190D01*
X99798095Y-53538380D02*
X99798095Y-52538380D01*
X99417142Y-52538380D01*
X99321904Y-52586000D01*
X99274285Y-52633619D01*
X99226666Y-52728857D01*
X99226666Y-52871714D01*
X99274285Y-52966952D01*
X99321904Y-53014571D01*
X99417142Y-53062190D01*
X99798095Y-53062190D01*
X98893333Y-52538380D02*
X98226666Y-52538380D01*
X98655238Y-53538380D01*
X84372380Y-42418095D02*
X85181904Y-42418095D01*
X85277142Y-42465714D01*
X85324761Y-42513333D01*
X85372380Y-42608571D01*
X85372380Y-42799047D01*
X85324761Y-42894285D01*
X85277142Y-42941904D01*
X85181904Y-42989523D01*
X84372380Y-42989523D01*
X85372380Y-43989523D02*
X85372380Y-43418095D01*
X85372380Y-43703809D02*
X84372380Y-43703809D01*
X84515238Y-43608571D01*
X84610476Y-43513333D01*
X84658095Y-43418095D01*
X99226666Y-40997142D02*
X99274285Y-41044761D01*
X99417142Y-41092380D01*
X99512380Y-41092380D01*
X99655238Y-41044761D01*
X99750476Y-40949523D01*
X99798095Y-40854285D01*
X99845714Y-40663809D01*
X99845714Y-40520952D01*
X99798095Y-40330476D01*
X99750476Y-40235238D01*
X99655238Y-40140000D01*
X99512380Y-40092380D01*
X99417142Y-40092380D01*
X99274285Y-40140000D01*
X99226666Y-40187619D01*
X98893333Y-40092380D02*
X98274285Y-40092380D01*
X98607619Y-40473333D01*
X98464761Y-40473333D01*
X98369523Y-40520952D01*
X98321904Y-40568571D01*
X98274285Y-40663809D01*
X98274285Y-40901904D01*
X98321904Y-40997142D01*
X98369523Y-41044761D01*
X98464761Y-41092380D01*
X98750476Y-41092380D01*
X98845714Y-41044761D01*
X98893333Y-40997142D01*
X136207333Y-91266380D02*
X136540666Y-90790190D01*
X136778761Y-91266380D02*
X136778761Y-90266380D01*
X136397809Y-90266380D01*
X136302571Y-90314000D01*
X136254952Y-90361619D01*
X136207333Y-90456857D01*
X136207333Y-90599714D01*
X136254952Y-90694952D01*
X136302571Y-90742571D01*
X136397809Y-90790190D01*
X136778761Y-90790190D01*
X135778761Y-90742571D02*
X135445428Y-90742571D01*
X135302571Y-91266380D02*
X135778761Y-91266380D01*
X135778761Y-90266380D01*
X135302571Y-90266380D01*
X134540666Y-90742571D02*
X134874000Y-90742571D01*
X134874000Y-91266380D02*
X134874000Y-90266380D01*
X134397809Y-90266380D01*
X133874000Y-90266380D02*
X133874000Y-90504476D01*
X134112095Y-90409238D02*
X133874000Y-90504476D01*
X133635904Y-90409238D01*
X134016857Y-90694952D02*
X133874000Y-90504476D01*
X133731142Y-90694952D01*
X133112095Y-90266380D02*
X133112095Y-90504476D01*
X133350190Y-90409238D02*
X133112095Y-90504476D01*
X132874000Y-90409238D01*
X133254952Y-90694952D02*
X133112095Y-90504476D01*
X132969238Y-90694952D01*
X250507333Y-53166380D02*
X250840666Y-52690190D01*
X251078761Y-53166380D02*
X251078761Y-52166380D01*
X250697809Y-52166380D01*
X250602571Y-52214000D01*
X250554952Y-52261619D01*
X250507333Y-52356857D01*
X250507333Y-52499714D01*
X250554952Y-52594952D01*
X250602571Y-52642571D01*
X250697809Y-52690190D01*
X251078761Y-52690190D01*
X250078761Y-52642571D02*
X249745428Y-52642571D01*
X249602571Y-53166380D02*
X250078761Y-53166380D01*
X250078761Y-52166380D01*
X249602571Y-52166380D01*
X248840666Y-52642571D02*
X249174000Y-52642571D01*
X249174000Y-53166380D02*
X249174000Y-52166380D01*
X248697809Y-52166380D01*
X248174000Y-52166380D02*
X248174000Y-52404476D01*
X248412095Y-52309238D02*
X248174000Y-52404476D01*
X247935904Y-52309238D01*
X248316857Y-52594952D02*
X248174000Y-52404476D01*
X248031142Y-52594952D01*
X247412095Y-52166380D02*
X247412095Y-52404476D01*
X247650190Y-52309238D02*
X247412095Y-52404476D01*
X247174000Y-52309238D01*
X247554952Y-52594952D02*
X247412095Y-52404476D01*
X247269238Y-52594952D01*
X20637333Y-53166380D02*
X20970666Y-52690190D01*
X21208761Y-53166380D02*
X21208761Y-52166380D01*
X20827809Y-52166380D01*
X20732571Y-52214000D01*
X20684952Y-52261619D01*
X20637333Y-52356857D01*
X20637333Y-52499714D01*
X20684952Y-52594952D01*
X20732571Y-52642571D01*
X20827809Y-52690190D01*
X21208761Y-52690190D01*
X20208761Y-52642571D02*
X19875428Y-52642571D01*
X19732571Y-53166380D02*
X20208761Y-53166380D01*
X20208761Y-52166380D01*
X19732571Y-52166380D01*
X18970666Y-52642571D02*
X19304000Y-52642571D01*
X19304000Y-53166380D02*
X19304000Y-52166380D01*
X18827809Y-52166380D01*
X18304000Y-52166380D02*
X18304000Y-52404476D01*
X18542095Y-52309238D02*
X18304000Y-52404476D01*
X18065904Y-52309238D01*
X18446857Y-52594952D02*
X18304000Y-52404476D01*
X18161142Y-52594952D01*
X17542095Y-52166380D02*
X17542095Y-52404476D01*
X17780190Y-52309238D02*
X17542095Y-52404476D01*
X17304000Y-52309238D01*
X17684952Y-52594952D02*
X17542095Y-52404476D01*
X17399238Y-52594952D01*
X250507333Y-91266380D02*
X250840666Y-90790190D01*
X251078761Y-91266380D02*
X251078761Y-90266380D01*
X250697809Y-90266380D01*
X250602571Y-90314000D01*
X250554952Y-90361619D01*
X250507333Y-90456857D01*
X250507333Y-90599714D01*
X250554952Y-90694952D01*
X250602571Y-90742571D01*
X250697809Y-90790190D01*
X251078761Y-90790190D01*
X250078761Y-90742571D02*
X249745428Y-90742571D01*
X249602571Y-91266380D02*
X250078761Y-91266380D01*
X250078761Y-90266380D01*
X249602571Y-90266380D01*
X248840666Y-90742571D02*
X249174000Y-90742571D01*
X249174000Y-91266380D02*
X249174000Y-90266380D01*
X248697809Y-90266380D01*
X248174000Y-90266380D02*
X248174000Y-90504476D01*
X248412095Y-90409238D02*
X248174000Y-90504476D01*
X247935904Y-90409238D01*
X248316857Y-90694952D02*
X248174000Y-90504476D01*
X248031142Y-90694952D01*
X247412095Y-90266380D02*
X247412095Y-90504476D01*
X247650190Y-90409238D02*
X247412095Y-90504476D01*
X247174000Y-90409238D01*
X247554952Y-90694952D02*
X247412095Y-90504476D01*
X247269238Y-90694952D01*
X20637333Y-91266380D02*
X20970666Y-90790190D01*
X21208761Y-91266380D02*
X21208761Y-90266380D01*
X20827809Y-90266380D01*
X20732571Y-90314000D01*
X20684952Y-90361619D01*
X20637333Y-90456857D01*
X20637333Y-90599714D01*
X20684952Y-90694952D01*
X20732571Y-90742571D01*
X20827809Y-90790190D01*
X21208761Y-90790190D01*
X20208761Y-90742571D02*
X19875428Y-90742571D01*
X19732571Y-91266380D02*
X20208761Y-91266380D01*
X20208761Y-90266380D01*
X19732571Y-90266380D01*
X18970666Y-90742571D02*
X19304000Y-90742571D01*
X19304000Y-91266380D02*
X19304000Y-90266380D01*
X18827809Y-90266380D01*
X18304000Y-90266380D02*
X18304000Y-90504476D01*
X18542095Y-90409238D02*
X18304000Y-90504476D01*
X18065904Y-90409238D01*
X18446857Y-90694952D02*
X18304000Y-90504476D01*
X18161142Y-90694952D01*
X17542095Y-90266380D02*
X17542095Y-90504476D01*
X17780190Y-90409238D02*
X17542095Y-90504476D01*
X17304000Y-90409238D01*
X17684952Y-90694952D02*
X17542095Y-90504476D01*
X17399238Y-90694952D01*
X250507333Y-128096380D02*
X250840666Y-127620190D01*
X251078761Y-128096380D02*
X251078761Y-127096380D01*
X250697809Y-127096380D01*
X250602571Y-127144000D01*
X250554952Y-127191619D01*
X250507333Y-127286857D01*
X250507333Y-127429714D01*
X250554952Y-127524952D01*
X250602571Y-127572571D01*
X250697809Y-127620190D01*
X251078761Y-127620190D01*
X250078761Y-127572571D02*
X249745428Y-127572571D01*
X249602571Y-128096380D02*
X250078761Y-128096380D01*
X250078761Y-127096380D01*
X249602571Y-127096380D01*
X248840666Y-127572571D02*
X249174000Y-127572571D01*
X249174000Y-128096380D02*
X249174000Y-127096380D01*
X248697809Y-127096380D01*
X248174000Y-127096380D02*
X248174000Y-127334476D01*
X248412095Y-127239238D02*
X248174000Y-127334476D01*
X247935904Y-127239238D01*
X248316857Y-127524952D02*
X248174000Y-127334476D01*
X248031142Y-127524952D01*
X247412095Y-127096380D02*
X247412095Y-127334476D01*
X247650190Y-127239238D02*
X247412095Y-127334476D01*
X247174000Y-127239238D01*
X247554952Y-127524952D02*
X247412095Y-127334476D01*
X247269238Y-127524952D01*
X20637333Y-128096380D02*
X20970666Y-127620190D01*
X21208761Y-128096380D02*
X21208761Y-127096380D01*
X20827809Y-127096380D01*
X20732571Y-127144000D01*
X20684952Y-127191619D01*
X20637333Y-127286857D01*
X20637333Y-127429714D01*
X20684952Y-127524952D01*
X20732571Y-127572571D01*
X20827809Y-127620190D01*
X21208761Y-127620190D01*
X20208761Y-127572571D02*
X19875428Y-127572571D01*
X19732571Y-128096380D02*
X20208761Y-128096380D01*
X20208761Y-127096380D01*
X19732571Y-127096380D01*
X18970666Y-127572571D02*
X19304000Y-127572571D01*
X19304000Y-128096380D02*
X19304000Y-127096380D01*
X18827809Y-127096380D01*
X18304000Y-127096380D02*
X18304000Y-127334476D01*
X18542095Y-127239238D02*
X18304000Y-127334476D01*
X18065904Y-127239238D01*
X18446857Y-127524952D02*
X18304000Y-127334476D01*
X18161142Y-127524952D01*
X17542095Y-127096380D02*
X17542095Y-127334476D01*
X17780190Y-127239238D02*
X17542095Y-127334476D01*
X17304000Y-127239238D01*
X17684952Y-127524952D02*
X17542095Y-127334476D01*
X17399238Y-127524952D01*
X62904666Y-42775142D02*
X62952285Y-42822761D01*
X63095142Y-42870380D01*
X63190380Y-42870380D01*
X63333238Y-42822761D01*
X63428476Y-42727523D01*
X63476095Y-42632285D01*
X63523714Y-42441809D01*
X63523714Y-42298952D01*
X63476095Y-42108476D01*
X63428476Y-42013238D01*
X63333238Y-41918000D01*
X63190380Y-41870380D01*
X63095142Y-41870380D01*
X62952285Y-41918000D01*
X62904666Y-41965619D01*
X61952285Y-42870380D02*
X62523714Y-42870380D01*
X62238000Y-42870380D02*
X62238000Y-41870380D01*
X62333238Y-42013238D01*
X62428476Y-42108476D01*
X62523714Y-42156095D01*
X62904666Y-44935142D02*
X62952285Y-44982761D01*
X63095142Y-45030380D01*
X63190380Y-45030380D01*
X63333238Y-44982761D01*
X63428476Y-44887523D01*
X63476095Y-44792285D01*
X63523714Y-44601809D01*
X63523714Y-44458952D01*
X63476095Y-44268476D01*
X63428476Y-44173238D01*
X63333238Y-44078000D01*
X63190380Y-44030380D01*
X63095142Y-44030380D01*
X62952285Y-44078000D01*
X62904666Y-44125619D01*
X62523714Y-44125619D02*
X62476095Y-44078000D01*
X62380857Y-44030380D01*
X62142761Y-44030380D01*
X62047523Y-44078000D01*
X61999904Y-44125619D01*
X61952285Y-44220857D01*
X61952285Y-44316095D01*
X61999904Y-44458952D01*
X62571333Y-45030380D01*
X61952285Y-45030380D01*
X99226666Y-42775142D02*
X99274285Y-42822761D01*
X99417142Y-42870380D01*
X99512380Y-42870380D01*
X99655238Y-42822761D01*
X99750476Y-42727523D01*
X99798095Y-42632285D01*
X99845714Y-42441809D01*
X99845714Y-42298952D01*
X99798095Y-42108476D01*
X99750476Y-42013238D01*
X99655238Y-41918000D01*
X99512380Y-41870380D01*
X99417142Y-41870380D01*
X99274285Y-41918000D01*
X99226666Y-41965619D01*
X98369523Y-42203714D02*
X98369523Y-42870380D01*
X98607619Y-41822761D02*
X98845714Y-42537047D01*
X98226666Y-42537047D01*
X99226666Y-44807142D02*
X99274285Y-44854761D01*
X99417142Y-44902380D01*
X99512380Y-44902380D01*
X99655238Y-44854761D01*
X99750476Y-44759523D01*
X99798095Y-44664285D01*
X99845714Y-44473809D01*
X99845714Y-44330952D01*
X99798095Y-44140476D01*
X99750476Y-44045238D01*
X99655238Y-43950000D01*
X99512380Y-43902380D01*
X99417142Y-43902380D01*
X99274285Y-43950000D01*
X99226666Y-43997619D01*
X98321904Y-43902380D02*
X98798095Y-43902380D01*
X98845714Y-44378571D01*
X98798095Y-44330952D01*
X98702857Y-44283333D01*
X98464761Y-44283333D01*
X98369523Y-44330952D01*
X98321904Y-44378571D01*
X98274285Y-44473809D01*
X98274285Y-44711904D01*
X98321904Y-44807142D01*
X98369523Y-44854761D01*
X98464761Y-44902380D01*
X98702857Y-44902380D01*
X98798095Y-44854761D01*
X98845714Y-44807142D01*
X99480666Y-47093142D02*
X99528285Y-47140761D01*
X99671142Y-47188380D01*
X99766380Y-47188380D01*
X99909238Y-47140761D01*
X100004476Y-47045523D01*
X100052095Y-46950285D01*
X100099714Y-46759809D01*
X100099714Y-46616952D01*
X100052095Y-46426476D01*
X100004476Y-46331238D01*
X99909238Y-46236000D01*
X99766380Y-46188380D01*
X99671142Y-46188380D01*
X99528285Y-46236000D01*
X99480666Y-46283619D01*
X98623523Y-46188380D02*
X98814000Y-46188380D01*
X98909238Y-46236000D01*
X98956857Y-46283619D01*
X99052095Y-46426476D01*
X99099714Y-46616952D01*
X99099714Y-46997904D01*
X99052095Y-47093142D01*
X99004476Y-47140761D01*
X98909238Y-47188380D01*
X98718761Y-47188380D01*
X98623523Y-47140761D01*
X98575904Y-47093142D01*
X98528285Y-46997904D01*
X98528285Y-46759809D01*
X98575904Y-46664571D01*
X98623523Y-46616952D01*
X98718761Y-46569333D01*
X98909238Y-46569333D01*
X99004476Y-46616952D01*
X99052095Y-46664571D01*
X99099714Y-46759809D01*
X99226666Y-49125142D02*
X99274285Y-49172761D01*
X99417142Y-49220380D01*
X99512380Y-49220380D01*
X99655238Y-49172761D01*
X99750476Y-49077523D01*
X99798095Y-48982285D01*
X99845714Y-48791809D01*
X99845714Y-48648952D01*
X99798095Y-48458476D01*
X99750476Y-48363238D01*
X99655238Y-48268000D01*
X99512380Y-48220380D01*
X99417142Y-48220380D01*
X99274285Y-48268000D01*
X99226666Y-48315619D01*
X98893333Y-48220380D02*
X98226666Y-48220380D01*
X98655238Y-49220380D01*
X99226666Y-51157142D02*
X99274285Y-51204761D01*
X99417142Y-51252380D01*
X99512380Y-51252380D01*
X99655238Y-51204761D01*
X99750476Y-51109523D01*
X99798095Y-51014285D01*
X99845714Y-50823809D01*
X99845714Y-50680952D01*
X99798095Y-50490476D01*
X99750476Y-50395238D01*
X99655238Y-50300000D01*
X99512380Y-50252380D01*
X99417142Y-50252380D01*
X99274285Y-50300000D01*
X99226666Y-50347619D01*
X98655238Y-50680952D02*
X98750476Y-50633333D01*
X98798095Y-50585714D01*
X98845714Y-50490476D01*
X98845714Y-50442857D01*
X98798095Y-50347619D01*
X98750476Y-50300000D01*
X98655238Y-50252380D01*
X98464761Y-50252380D01*
X98369523Y-50300000D01*
X98321904Y-50347619D01*
X98274285Y-50442857D01*
X98274285Y-50490476D01*
X98321904Y-50585714D01*
X98369523Y-50633333D01*
X98464761Y-50680952D01*
X98655238Y-50680952D01*
X98750476Y-50728571D01*
X98798095Y-50776190D01*
X98845714Y-50871428D01*
X98845714Y-51061904D01*
X98798095Y-51157142D01*
X98750476Y-51204761D01*
X98655238Y-51252380D01*
X98464761Y-51252380D01*
X98369523Y-51204761D01*
X98321904Y-51157142D01*
X98274285Y-51061904D01*
X98274285Y-50871428D01*
X98321904Y-50776190D01*
X98369523Y-50728571D01*
X98464761Y-50680952D01*
X30308476Y-64369904D02*
X30308476Y-63569904D01*
X30118000Y-63569904D01*
X30003714Y-63608000D01*
X29927523Y-63684190D01*
X29889428Y-63760380D01*
X29851333Y-63912761D01*
X29851333Y-64027047D01*
X29889428Y-64179428D01*
X29927523Y-64255619D01*
X30003714Y-64331809D01*
X30118000Y-64369904D01*
X30308476Y-64369904D01*
X29089428Y-64369904D02*
X29546571Y-64369904D01*
X29318000Y-64369904D02*
X29318000Y-63569904D01*
X29394190Y-63684190D01*
X29470380Y-63760380D01*
X29546571Y-63798476D01*
X49358476Y-64369904D02*
X49358476Y-63569904D01*
X49168000Y-63569904D01*
X49053714Y-63608000D01*
X48977523Y-63684190D01*
X48939428Y-63760380D01*
X48901333Y-63912761D01*
X48901333Y-64027047D01*
X48939428Y-64179428D01*
X48977523Y-64255619D01*
X49053714Y-64331809D01*
X49168000Y-64369904D01*
X49358476Y-64369904D01*
X48596571Y-63646095D02*
X48558476Y-63608000D01*
X48482285Y-63569904D01*
X48291809Y-63569904D01*
X48215619Y-63608000D01*
X48177523Y-63646095D01*
X48139428Y-63722285D01*
X48139428Y-63798476D01*
X48177523Y-63912761D01*
X48634666Y-64369904D01*
X48139428Y-64369904D01*
X68357476Y-64369904D02*
X68357476Y-63569904D01*
X68167000Y-63569904D01*
X68052714Y-63608000D01*
X67976523Y-63684190D01*
X67938428Y-63760380D01*
X67900333Y-63912761D01*
X67900333Y-64027047D01*
X67938428Y-64179428D01*
X67976523Y-64255619D01*
X68052714Y-64331809D01*
X68167000Y-64369904D01*
X68357476Y-64369904D01*
X67633666Y-63569904D02*
X67138428Y-63569904D01*
X67405095Y-63874666D01*
X67290809Y-63874666D01*
X67214619Y-63912761D01*
X67176523Y-63950857D01*
X67138428Y-64027047D01*
X67138428Y-64217523D01*
X67176523Y-64293714D01*
X67214619Y-64331809D01*
X67290809Y-64369904D01*
X67519380Y-64369904D01*
X67595571Y-64331809D01*
X67633666Y-64293714D01*
X87458476Y-64369904D02*
X87458476Y-63569904D01*
X87268000Y-63569904D01*
X87153714Y-63608000D01*
X87077523Y-63684190D01*
X87039428Y-63760380D01*
X87001333Y-63912761D01*
X87001333Y-64027047D01*
X87039428Y-64179428D01*
X87077523Y-64255619D01*
X87153714Y-64331809D01*
X87268000Y-64369904D01*
X87458476Y-64369904D01*
X86315619Y-63836571D02*
X86315619Y-64369904D01*
X86506095Y-63531809D02*
X86696571Y-64103238D01*
X86201333Y-64103238D01*
X106508476Y-64369904D02*
X106508476Y-63569904D01*
X106318000Y-63569904D01*
X106203714Y-63608000D01*
X106127523Y-63684190D01*
X106089428Y-63760380D01*
X106051333Y-63912761D01*
X106051333Y-64027047D01*
X106089428Y-64179428D01*
X106127523Y-64255619D01*
X106203714Y-64331809D01*
X106318000Y-64369904D01*
X106508476Y-64369904D01*
X105327523Y-63569904D02*
X105708476Y-63569904D01*
X105746571Y-63950857D01*
X105708476Y-63912761D01*
X105632285Y-63874666D01*
X105441809Y-63874666D01*
X105365619Y-63912761D01*
X105327523Y-63950857D01*
X105289428Y-64027047D01*
X105289428Y-64217523D01*
X105327523Y-64293714D01*
X105365619Y-64331809D01*
X105441809Y-64369904D01*
X105632285Y-64369904D01*
X105708476Y-64331809D01*
X105746571Y-64293714D01*
X125812476Y-64369904D02*
X125812476Y-63569904D01*
X125622000Y-63569904D01*
X125507714Y-63608000D01*
X125431523Y-63684190D01*
X125393428Y-63760380D01*
X125355333Y-63912761D01*
X125355333Y-64027047D01*
X125393428Y-64179428D01*
X125431523Y-64255619D01*
X125507714Y-64331809D01*
X125622000Y-64369904D01*
X125812476Y-64369904D01*
X124669619Y-63569904D02*
X124822000Y-63569904D01*
X124898190Y-63608000D01*
X124936285Y-63646095D01*
X125012476Y-63760380D01*
X125050571Y-63912761D01*
X125050571Y-64217523D01*
X125012476Y-64293714D01*
X124974380Y-64331809D01*
X124898190Y-64369904D01*
X124745809Y-64369904D01*
X124669619Y-64331809D01*
X124631523Y-64293714D01*
X124593428Y-64217523D01*
X124593428Y-64027047D01*
X124631523Y-63950857D01*
X124669619Y-63912761D01*
X124745809Y-63874666D01*
X124898190Y-63874666D01*
X124974380Y-63912761D01*
X125012476Y-63950857D01*
X125050571Y-64027047D01*
X144608476Y-64369904D02*
X144608476Y-63569904D01*
X144418000Y-63569904D01*
X144303714Y-63608000D01*
X144227523Y-63684190D01*
X144189428Y-63760380D01*
X144151333Y-63912761D01*
X144151333Y-64027047D01*
X144189428Y-64179428D01*
X144227523Y-64255619D01*
X144303714Y-64331809D01*
X144418000Y-64369904D01*
X144608476Y-64369904D01*
X143884666Y-63569904D02*
X143351333Y-63569904D01*
X143694190Y-64369904D01*
X163658476Y-64369904D02*
X163658476Y-63569904D01*
X163468000Y-63569904D01*
X163353714Y-63608000D01*
X163277523Y-63684190D01*
X163239428Y-63760380D01*
X163201333Y-63912761D01*
X163201333Y-64027047D01*
X163239428Y-64179428D01*
X163277523Y-64255619D01*
X163353714Y-64331809D01*
X163468000Y-64369904D01*
X163658476Y-64369904D01*
X162744190Y-63912761D02*
X162820380Y-63874666D01*
X162858476Y-63836571D01*
X162896571Y-63760380D01*
X162896571Y-63722285D01*
X162858476Y-63646095D01*
X162820380Y-63608000D01*
X162744190Y-63569904D01*
X162591809Y-63569904D01*
X162515619Y-63608000D01*
X162477523Y-63646095D01*
X162439428Y-63722285D01*
X162439428Y-63760380D01*
X162477523Y-63836571D01*
X162515619Y-63874666D01*
X162591809Y-63912761D01*
X162744190Y-63912761D01*
X162820380Y-63950857D01*
X162858476Y-63988952D01*
X162896571Y-64065142D01*
X162896571Y-64217523D01*
X162858476Y-64293714D01*
X162820380Y-64331809D01*
X162744190Y-64369904D01*
X162591809Y-64369904D01*
X162515619Y-64331809D01*
X162477523Y-64293714D01*
X162439428Y-64217523D01*
X162439428Y-64065142D01*
X162477523Y-63988952D01*
X162515619Y-63950857D01*
X162591809Y-63912761D01*
X182708476Y-64369904D02*
X182708476Y-63569904D01*
X182518000Y-63569904D01*
X182403714Y-63608000D01*
X182327523Y-63684190D01*
X182289428Y-63760380D01*
X182251333Y-63912761D01*
X182251333Y-64027047D01*
X182289428Y-64179428D01*
X182327523Y-64255619D01*
X182403714Y-64331809D01*
X182518000Y-64369904D01*
X182708476Y-64369904D01*
X181870380Y-64369904D02*
X181718000Y-64369904D01*
X181641809Y-64331809D01*
X181603714Y-64293714D01*
X181527523Y-64179428D01*
X181489428Y-64027047D01*
X181489428Y-63722285D01*
X181527523Y-63646095D01*
X181565619Y-63608000D01*
X181641809Y-63569904D01*
X181794190Y-63569904D01*
X181870380Y-63608000D01*
X181908476Y-63646095D01*
X181946571Y-63722285D01*
X181946571Y-63912761D01*
X181908476Y-63988952D01*
X181870380Y-64027047D01*
X181794190Y-64065142D01*
X181641809Y-64065142D01*
X181565619Y-64027047D01*
X181527523Y-63988952D01*
X181489428Y-63912761D01*
X202139428Y-64369904D02*
X202139428Y-63569904D01*
X201948952Y-63569904D01*
X201834666Y-63608000D01*
X201758476Y-63684190D01*
X201720380Y-63760380D01*
X201682285Y-63912761D01*
X201682285Y-64027047D01*
X201720380Y-64179428D01*
X201758476Y-64255619D01*
X201834666Y-64331809D01*
X201948952Y-64369904D01*
X202139428Y-64369904D01*
X200920380Y-64369904D02*
X201377523Y-64369904D01*
X201148952Y-64369904D02*
X201148952Y-63569904D01*
X201225142Y-63684190D01*
X201301333Y-63760380D01*
X201377523Y-63798476D01*
X200425142Y-63569904D02*
X200348952Y-63569904D01*
X200272761Y-63608000D01*
X200234666Y-63646095D01*
X200196571Y-63722285D01*
X200158476Y-63874666D01*
X200158476Y-64065142D01*
X200196571Y-64217523D01*
X200234666Y-64293714D01*
X200272761Y-64331809D01*
X200348952Y-64369904D01*
X200425142Y-64369904D01*
X200501333Y-64331809D01*
X200539428Y-64293714D01*
X200577523Y-64217523D01*
X200615619Y-64065142D01*
X200615619Y-63874666D01*
X200577523Y-63722285D01*
X200539428Y-63646095D01*
X200501333Y-63608000D01*
X200425142Y-63569904D01*
X221189428Y-64369904D02*
X221189428Y-63569904D01*
X220998952Y-63569904D01*
X220884666Y-63608000D01*
X220808476Y-63684190D01*
X220770380Y-63760380D01*
X220732285Y-63912761D01*
X220732285Y-64027047D01*
X220770380Y-64179428D01*
X220808476Y-64255619D01*
X220884666Y-64331809D01*
X220998952Y-64369904D01*
X221189428Y-64369904D01*
X219970380Y-64369904D02*
X220427523Y-64369904D01*
X220198952Y-64369904D02*
X220198952Y-63569904D01*
X220275142Y-63684190D01*
X220351333Y-63760380D01*
X220427523Y-63798476D01*
X219208476Y-64369904D02*
X219665619Y-64369904D01*
X219437047Y-64369904D02*
X219437047Y-63569904D01*
X219513238Y-63684190D01*
X219589428Y-63760380D01*
X219665619Y-63798476D01*
X240239428Y-64369904D02*
X240239428Y-63569904D01*
X240048952Y-63569904D01*
X239934666Y-63608000D01*
X239858476Y-63684190D01*
X239820380Y-63760380D01*
X239782285Y-63912761D01*
X239782285Y-64027047D01*
X239820380Y-64179428D01*
X239858476Y-64255619D01*
X239934666Y-64331809D01*
X240048952Y-64369904D01*
X240239428Y-64369904D01*
X239020380Y-64369904D02*
X239477523Y-64369904D01*
X239248952Y-64369904D02*
X239248952Y-63569904D01*
X239325142Y-63684190D01*
X239401333Y-63760380D01*
X239477523Y-63798476D01*
X238715619Y-63646095D02*
X238677523Y-63608000D01*
X238601333Y-63569904D01*
X238410857Y-63569904D01*
X238334666Y-63608000D01*
X238296571Y-63646095D01*
X238258476Y-63722285D01*
X238258476Y-63798476D01*
X238296571Y-63912761D01*
X238753714Y-64369904D01*
X238258476Y-64369904D01*
X30689428Y-83419904D02*
X30689428Y-82619904D01*
X30498952Y-82619904D01*
X30384666Y-82658000D01*
X30308476Y-82734190D01*
X30270380Y-82810380D01*
X30232285Y-82962761D01*
X30232285Y-83077047D01*
X30270380Y-83229428D01*
X30308476Y-83305619D01*
X30384666Y-83381809D01*
X30498952Y-83419904D01*
X30689428Y-83419904D01*
X29470380Y-83419904D02*
X29927523Y-83419904D01*
X29698952Y-83419904D02*
X29698952Y-82619904D01*
X29775142Y-82734190D01*
X29851333Y-82810380D01*
X29927523Y-82848476D01*
X29203714Y-82619904D02*
X28708476Y-82619904D01*
X28975142Y-82924666D01*
X28860857Y-82924666D01*
X28784666Y-82962761D01*
X28746571Y-83000857D01*
X28708476Y-83077047D01*
X28708476Y-83267523D01*
X28746571Y-83343714D01*
X28784666Y-83381809D01*
X28860857Y-83419904D01*
X29089428Y-83419904D01*
X29165619Y-83381809D01*
X29203714Y-83343714D01*
X49739428Y-83419904D02*
X49739428Y-82619904D01*
X49548952Y-82619904D01*
X49434666Y-82658000D01*
X49358476Y-82734190D01*
X49320380Y-82810380D01*
X49282285Y-82962761D01*
X49282285Y-83077047D01*
X49320380Y-83229428D01*
X49358476Y-83305619D01*
X49434666Y-83381809D01*
X49548952Y-83419904D01*
X49739428Y-83419904D01*
X48520380Y-83419904D02*
X48977523Y-83419904D01*
X48748952Y-83419904D02*
X48748952Y-82619904D01*
X48825142Y-82734190D01*
X48901333Y-82810380D01*
X48977523Y-82848476D01*
X47834666Y-82886571D02*
X47834666Y-83419904D01*
X48025142Y-82581809D02*
X48215619Y-83153238D01*
X47720380Y-83153238D01*
X68789428Y-83419904D02*
X68789428Y-82619904D01*
X68598952Y-82619904D01*
X68484666Y-82658000D01*
X68408476Y-82734190D01*
X68370380Y-82810380D01*
X68332285Y-82962761D01*
X68332285Y-83077047D01*
X68370380Y-83229428D01*
X68408476Y-83305619D01*
X68484666Y-83381809D01*
X68598952Y-83419904D01*
X68789428Y-83419904D01*
X67570380Y-83419904D02*
X68027523Y-83419904D01*
X67798952Y-83419904D02*
X67798952Y-82619904D01*
X67875142Y-82734190D01*
X67951333Y-82810380D01*
X68027523Y-82848476D01*
X66846571Y-82619904D02*
X67227523Y-82619904D01*
X67265619Y-83000857D01*
X67227523Y-82962761D01*
X67151333Y-82924666D01*
X66960857Y-82924666D01*
X66884666Y-82962761D01*
X66846571Y-83000857D01*
X66808476Y-83077047D01*
X66808476Y-83267523D01*
X66846571Y-83343714D01*
X66884666Y-83381809D01*
X66960857Y-83419904D01*
X67151333Y-83419904D01*
X67227523Y-83381809D01*
X67265619Y-83343714D01*
X87839428Y-83419904D02*
X87839428Y-82619904D01*
X87648952Y-82619904D01*
X87534666Y-82658000D01*
X87458476Y-82734190D01*
X87420380Y-82810380D01*
X87382285Y-82962761D01*
X87382285Y-83077047D01*
X87420380Y-83229428D01*
X87458476Y-83305619D01*
X87534666Y-83381809D01*
X87648952Y-83419904D01*
X87839428Y-83419904D01*
X86620380Y-83419904D02*
X87077523Y-83419904D01*
X86848952Y-83419904D02*
X86848952Y-82619904D01*
X86925142Y-82734190D01*
X87001333Y-82810380D01*
X87077523Y-82848476D01*
X85934666Y-82619904D02*
X86087047Y-82619904D01*
X86163238Y-82658000D01*
X86201333Y-82696095D01*
X86277523Y-82810380D01*
X86315619Y-82962761D01*
X86315619Y-83267523D01*
X86277523Y-83343714D01*
X86239428Y-83381809D01*
X86163238Y-83419904D01*
X86010857Y-83419904D01*
X85934666Y-83381809D01*
X85896571Y-83343714D01*
X85858476Y-83267523D01*
X85858476Y-83077047D01*
X85896571Y-83000857D01*
X85934666Y-82962761D01*
X86010857Y-82924666D01*
X86163238Y-82924666D01*
X86239428Y-82962761D01*
X86277523Y-83000857D01*
X86315619Y-83077047D01*
X106889428Y-83419904D02*
X106889428Y-82619904D01*
X106698952Y-82619904D01*
X106584666Y-82658000D01*
X106508476Y-82734190D01*
X106470380Y-82810380D01*
X106432285Y-82962761D01*
X106432285Y-83077047D01*
X106470380Y-83229428D01*
X106508476Y-83305619D01*
X106584666Y-83381809D01*
X106698952Y-83419904D01*
X106889428Y-83419904D01*
X105670380Y-83419904D02*
X106127523Y-83419904D01*
X105898952Y-83419904D02*
X105898952Y-82619904D01*
X105975142Y-82734190D01*
X106051333Y-82810380D01*
X106127523Y-82848476D01*
X105403714Y-82619904D02*
X104870380Y-82619904D01*
X105213238Y-83419904D01*
X125939428Y-83419904D02*
X125939428Y-82619904D01*
X125748952Y-82619904D01*
X125634666Y-82658000D01*
X125558476Y-82734190D01*
X125520380Y-82810380D01*
X125482285Y-82962761D01*
X125482285Y-83077047D01*
X125520380Y-83229428D01*
X125558476Y-83305619D01*
X125634666Y-83381809D01*
X125748952Y-83419904D01*
X125939428Y-83419904D01*
X124720380Y-83419904D02*
X125177523Y-83419904D01*
X124948952Y-83419904D02*
X124948952Y-82619904D01*
X125025142Y-82734190D01*
X125101333Y-82810380D01*
X125177523Y-82848476D01*
X124263238Y-82962761D02*
X124339428Y-82924666D01*
X124377523Y-82886571D01*
X124415619Y-82810380D01*
X124415619Y-82772285D01*
X124377523Y-82696095D01*
X124339428Y-82658000D01*
X124263238Y-82619904D01*
X124110857Y-82619904D01*
X124034666Y-82658000D01*
X123996571Y-82696095D01*
X123958476Y-82772285D01*
X123958476Y-82810380D01*
X123996571Y-82886571D01*
X124034666Y-82924666D01*
X124110857Y-82962761D01*
X124263238Y-82962761D01*
X124339428Y-83000857D01*
X124377523Y-83038952D01*
X124415619Y-83115142D01*
X124415619Y-83267523D01*
X124377523Y-83343714D01*
X124339428Y-83381809D01*
X124263238Y-83419904D01*
X124110857Y-83419904D01*
X124034666Y-83381809D01*
X123996571Y-83343714D01*
X123958476Y-83267523D01*
X123958476Y-83115142D01*
X123996571Y-83038952D01*
X124034666Y-83000857D01*
X124110857Y-82962761D01*
X144735428Y-83419904D02*
X144735428Y-82619904D01*
X144544952Y-82619904D01*
X144430666Y-82658000D01*
X144354476Y-82734190D01*
X144316380Y-82810380D01*
X144278285Y-82962761D01*
X144278285Y-83077047D01*
X144316380Y-83229428D01*
X144354476Y-83305619D01*
X144430666Y-83381809D01*
X144544952Y-83419904D01*
X144735428Y-83419904D01*
X143516380Y-83419904D02*
X143973523Y-83419904D01*
X143744952Y-83419904D02*
X143744952Y-82619904D01*
X143821142Y-82734190D01*
X143897333Y-82810380D01*
X143973523Y-82848476D01*
X143135428Y-83419904D02*
X142983047Y-83419904D01*
X142906857Y-83381809D01*
X142868761Y-83343714D01*
X142792571Y-83229428D01*
X142754476Y-83077047D01*
X142754476Y-82772285D01*
X142792571Y-82696095D01*
X142830666Y-82658000D01*
X142906857Y-82619904D01*
X143059238Y-82619904D01*
X143135428Y-82658000D01*
X143173523Y-82696095D01*
X143211619Y-82772285D01*
X143211619Y-82962761D01*
X143173523Y-83038952D01*
X143135428Y-83077047D01*
X143059238Y-83115142D01*
X142906857Y-83115142D01*
X142830666Y-83077047D01*
X142792571Y-83038952D01*
X142754476Y-82962761D01*
X163785428Y-83419904D02*
X163785428Y-82619904D01*
X163594952Y-82619904D01*
X163480666Y-82658000D01*
X163404476Y-82734190D01*
X163366380Y-82810380D01*
X163328285Y-82962761D01*
X163328285Y-83077047D01*
X163366380Y-83229428D01*
X163404476Y-83305619D01*
X163480666Y-83381809D01*
X163594952Y-83419904D01*
X163785428Y-83419904D01*
X163023523Y-82696095D02*
X162985428Y-82658000D01*
X162909238Y-82619904D01*
X162718761Y-82619904D01*
X162642571Y-82658000D01*
X162604476Y-82696095D01*
X162566380Y-82772285D01*
X162566380Y-82848476D01*
X162604476Y-82962761D01*
X163061619Y-83419904D01*
X162566380Y-83419904D01*
X162071142Y-82619904D02*
X161994952Y-82619904D01*
X161918761Y-82658000D01*
X161880666Y-82696095D01*
X161842571Y-82772285D01*
X161804476Y-82924666D01*
X161804476Y-83115142D01*
X161842571Y-83267523D01*
X161880666Y-83343714D01*
X161918761Y-83381809D01*
X161994952Y-83419904D01*
X162071142Y-83419904D01*
X162147333Y-83381809D01*
X162185428Y-83343714D01*
X162223523Y-83267523D01*
X162261619Y-83115142D01*
X162261619Y-82924666D01*
X162223523Y-82772285D01*
X162185428Y-82696095D01*
X162147333Y-82658000D01*
X162071142Y-82619904D01*
X183089428Y-83419904D02*
X183089428Y-82619904D01*
X182898952Y-82619904D01*
X182784666Y-82658000D01*
X182708476Y-82734190D01*
X182670380Y-82810380D01*
X182632285Y-82962761D01*
X182632285Y-83077047D01*
X182670380Y-83229428D01*
X182708476Y-83305619D01*
X182784666Y-83381809D01*
X182898952Y-83419904D01*
X183089428Y-83419904D01*
X182327523Y-82696095D02*
X182289428Y-82658000D01*
X182213238Y-82619904D01*
X182022761Y-82619904D01*
X181946571Y-82658000D01*
X181908476Y-82696095D01*
X181870380Y-82772285D01*
X181870380Y-82848476D01*
X181908476Y-82962761D01*
X182365619Y-83419904D01*
X181870380Y-83419904D01*
X181108476Y-83419904D02*
X181565619Y-83419904D01*
X181337047Y-83419904D02*
X181337047Y-82619904D01*
X181413238Y-82734190D01*
X181489428Y-82810380D01*
X181565619Y-82848476D01*
X202139428Y-83419904D02*
X202139428Y-82619904D01*
X201948952Y-82619904D01*
X201834666Y-82658000D01*
X201758476Y-82734190D01*
X201720380Y-82810380D01*
X201682285Y-82962761D01*
X201682285Y-83077047D01*
X201720380Y-83229428D01*
X201758476Y-83305619D01*
X201834666Y-83381809D01*
X201948952Y-83419904D01*
X202139428Y-83419904D01*
X201377523Y-82696095D02*
X201339428Y-82658000D01*
X201263238Y-82619904D01*
X201072761Y-82619904D01*
X200996571Y-82658000D01*
X200958476Y-82696095D01*
X200920380Y-82772285D01*
X200920380Y-82848476D01*
X200958476Y-82962761D01*
X201415619Y-83419904D01*
X200920380Y-83419904D01*
X200615619Y-82696095D02*
X200577523Y-82658000D01*
X200501333Y-82619904D01*
X200310857Y-82619904D01*
X200234666Y-82658000D01*
X200196571Y-82696095D01*
X200158476Y-82772285D01*
X200158476Y-82848476D01*
X200196571Y-82962761D01*
X200653714Y-83419904D01*
X200158476Y-83419904D01*
X220935428Y-83419904D02*
X220935428Y-82619904D01*
X220744952Y-82619904D01*
X220630666Y-82658000D01*
X220554476Y-82734190D01*
X220516380Y-82810380D01*
X220478285Y-82962761D01*
X220478285Y-83077047D01*
X220516380Y-83229428D01*
X220554476Y-83305619D01*
X220630666Y-83381809D01*
X220744952Y-83419904D01*
X220935428Y-83419904D01*
X220173523Y-82696095D02*
X220135428Y-82658000D01*
X220059238Y-82619904D01*
X219868761Y-82619904D01*
X219792571Y-82658000D01*
X219754476Y-82696095D01*
X219716380Y-82772285D01*
X219716380Y-82848476D01*
X219754476Y-82962761D01*
X220211619Y-83419904D01*
X219716380Y-83419904D01*
X219449714Y-82619904D02*
X218954476Y-82619904D01*
X219221142Y-82924666D01*
X219106857Y-82924666D01*
X219030666Y-82962761D01*
X218992571Y-83000857D01*
X218954476Y-83077047D01*
X218954476Y-83267523D01*
X218992571Y-83343714D01*
X219030666Y-83381809D01*
X219106857Y-83419904D01*
X219335428Y-83419904D01*
X219411619Y-83381809D01*
X219449714Y-83343714D01*
X240239428Y-83419904D02*
X240239428Y-82619904D01*
X240048952Y-82619904D01*
X239934666Y-82658000D01*
X239858476Y-82734190D01*
X239820380Y-82810380D01*
X239782285Y-82962761D01*
X239782285Y-83077047D01*
X239820380Y-83229428D01*
X239858476Y-83305619D01*
X239934666Y-83381809D01*
X240048952Y-83419904D01*
X240239428Y-83419904D01*
X239477523Y-82696095D02*
X239439428Y-82658000D01*
X239363238Y-82619904D01*
X239172761Y-82619904D01*
X239096571Y-82658000D01*
X239058476Y-82696095D01*
X239020380Y-82772285D01*
X239020380Y-82848476D01*
X239058476Y-82962761D01*
X239515619Y-83419904D01*
X239020380Y-83419904D01*
X238334666Y-82886571D02*
X238334666Y-83419904D01*
X238525142Y-82581809D02*
X238715619Y-83153238D01*
X238220380Y-83153238D01*
X30689428Y-102469904D02*
X30689428Y-101669904D01*
X30498952Y-101669904D01*
X30384666Y-101708000D01*
X30308476Y-101784190D01*
X30270380Y-101860380D01*
X30232285Y-102012761D01*
X30232285Y-102127047D01*
X30270380Y-102279428D01*
X30308476Y-102355619D01*
X30384666Y-102431809D01*
X30498952Y-102469904D01*
X30689428Y-102469904D01*
X29927523Y-101746095D02*
X29889428Y-101708000D01*
X29813238Y-101669904D01*
X29622761Y-101669904D01*
X29546571Y-101708000D01*
X29508476Y-101746095D01*
X29470380Y-101822285D01*
X29470380Y-101898476D01*
X29508476Y-102012761D01*
X29965619Y-102469904D01*
X29470380Y-102469904D01*
X28746571Y-101669904D02*
X29127523Y-101669904D01*
X29165619Y-102050857D01*
X29127523Y-102012761D01*
X29051333Y-101974666D01*
X28860857Y-101974666D01*
X28784666Y-102012761D01*
X28746571Y-102050857D01*
X28708476Y-102127047D01*
X28708476Y-102317523D01*
X28746571Y-102393714D01*
X28784666Y-102431809D01*
X28860857Y-102469904D01*
X29051333Y-102469904D01*
X29127523Y-102431809D01*
X29165619Y-102393714D01*
X49739428Y-102469904D02*
X49739428Y-101669904D01*
X49548952Y-101669904D01*
X49434666Y-101708000D01*
X49358476Y-101784190D01*
X49320380Y-101860380D01*
X49282285Y-102012761D01*
X49282285Y-102127047D01*
X49320380Y-102279428D01*
X49358476Y-102355619D01*
X49434666Y-102431809D01*
X49548952Y-102469904D01*
X49739428Y-102469904D01*
X48977523Y-101746095D02*
X48939428Y-101708000D01*
X48863238Y-101669904D01*
X48672761Y-101669904D01*
X48596571Y-101708000D01*
X48558476Y-101746095D01*
X48520380Y-101822285D01*
X48520380Y-101898476D01*
X48558476Y-102012761D01*
X49015619Y-102469904D01*
X48520380Y-102469904D01*
X47834666Y-101669904D02*
X47987047Y-101669904D01*
X48063238Y-101708000D01*
X48101333Y-101746095D01*
X48177523Y-101860380D01*
X48215619Y-102012761D01*
X48215619Y-102317523D01*
X48177523Y-102393714D01*
X48139428Y-102431809D01*
X48063238Y-102469904D01*
X47910857Y-102469904D01*
X47834666Y-102431809D01*
X47796571Y-102393714D01*
X47758476Y-102317523D01*
X47758476Y-102127047D01*
X47796571Y-102050857D01*
X47834666Y-102012761D01*
X47910857Y-101974666D01*
X48063238Y-101974666D01*
X48139428Y-102012761D01*
X48177523Y-102050857D01*
X48215619Y-102127047D01*
X68789428Y-102469904D02*
X68789428Y-101669904D01*
X68598952Y-101669904D01*
X68484666Y-101708000D01*
X68408476Y-101784190D01*
X68370380Y-101860380D01*
X68332285Y-102012761D01*
X68332285Y-102127047D01*
X68370380Y-102279428D01*
X68408476Y-102355619D01*
X68484666Y-102431809D01*
X68598952Y-102469904D01*
X68789428Y-102469904D01*
X68027523Y-101746095D02*
X67989428Y-101708000D01*
X67913238Y-101669904D01*
X67722761Y-101669904D01*
X67646571Y-101708000D01*
X67608476Y-101746095D01*
X67570380Y-101822285D01*
X67570380Y-101898476D01*
X67608476Y-102012761D01*
X68065619Y-102469904D01*
X67570380Y-102469904D01*
X67303714Y-101669904D02*
X66770380Y-101669904D01*
X67113238Y-102469904D01*
X87839428Y-102469904D02*
X87839428Y-101669904D01*
X87648952Y-101669904D01*
X87534666Y-101708000D01*
X87458476Y-101784190D01*
X87420380Y-101860380D01*
X87382285Y-102012761D01*
X87382285Y-102127047D01*
X87420380Y-102279428D01*
X87458476Y-102355619D01*
X87534666Y-102431809D01*
X87648952Y-102469904D01*
X87839428Y-102469904D01*
X87077523Y-101746095D02*
X87039428Y-101708000D01*
X86963238Y-101669904D01*
X86772761Y-101669904D01*
X86696571Y-101708000D01*
X86658476Y-101746095D01*
X86620380Y-101822285D01*
X86620380Y-101898476D01*
X86658476Y-102012761D01*
X87115619Y-102469904D01*
X86620380Y-102469904D01*
X86163238Y-102012761D02*
X86239428Y-101974666D01*
X86277523Y-101936571D01*
X86315619Y-101860380D01*
X86315619Y-101822285D01*
X86277523Y-101746095D01*
X86239428Y-101708000D01*
X86163238Y-101669904D01*
X86010857Y-101669904D01*
X85934666Y-101708000D01*
X85896571Y-101746095D01*
X85858476Y-101822285D01*
X85858476Y-101860380D01*
X85896571Y-101936571D01*
X85934666Y-101974666D01*
X86010857Y-102012761D01*
X86163238Y-102012761D01*
X86239428Y-102050857D01*
X86277523Y-102088952D01*
X86315619Y-102165142D01*
X86315619Y-102317523D01*
X86277523Y-102393714D01*
X86239428Y-102431809D01*
X86163238Y-102469904D01*
X86010857Y-102469904D01*
X85934666Y-102431809D01*
X85896571Y-102393714D01*
X85858476Y-102317523D01*
X85858476Y-102165142D01*
X85896571Y-102088952D01*
X85934666Y-102050857D01*
X86010857Y-102012761D01*
X106889428Y-102469904D02*
X106889428Y-101669904D01*
X106698952Y-101669904D01*
X106584666Y-101708000D01*
X106508476Y-101784190D01*
X106470380Y-101860380D01*
X106432285Y-102012761D01*
X106432285Y-102127047D01*
X106470380Y-102279428D01*
X106508476Y-102355619D01*
X106584666Y-102431809D01*
X106698952Y-102469904D01*
X106889428Y-102469904D01*
X106127523Y-101746095D02*
X106089428Y-101708000D01*
X106013238Y-101669904D01*
X105822761Y-101669904D01*
X105746571Y-101708000D01*
X105708476Y-101746095D01*
X105670380Y-101822285D01*
X105670380Y-101898476D01*
X105708476Y-102012761D01*
X106165619Y-102469904D01*
X105670380Y-102469904D01*
X105289428Y-102469904D02*
X105137047Y-102469904D01*
X105060857Y-102431809D01*
X105022761Y-102393714D01*
X104946571Y-102279428D01*
X104908476Y-102127047D01*
X104908476Y-101822285D01*
X104946571Y-101746095D01*
X104984666Y-101708000D01*
X105060857Y-101669904D01*
X105213238Y-101669904D01*
X105289428Y-101708000D01*
X105327523Y-101746095D01*
X105365619Y-101822285D01*
X105365619Y-102012761D01*
X105327523Y-102088952D01*
X105289428Y-102127047D01*
X105213238Y-102165142D01*
X105060857Y-102165142D01*
X104984666Y-102127047D01*
X104946571Y-102088952D01*
X104908476Y-102012761D01*
X125939428Y-102469904D02*
X125939428Y-101669904D01*
X125748952Y-101669904D01*
X125634666Y-101708000D01*
X125558476Y-101784190D01*
X125520380Y-101860380D01*
X125482285Y-102012761D01*
X125482285Y-102127047D01*
X125520380Y-102279428D01*
X125558476Y-102355619D01*
X125634666Y-102431809D01*
X125748952Y-102469904D01*
X125939428Y-102469904D01*
X125215619Y-101669904D02*
X124720380Y-101669904D01*
X124987047Y-101974666D01*
X124872761Y-101974666D01*
X124796571Y-102012761D01*
X124758476Y-102050857D01*
X124720380Y-102127047D01*
X124720380Y-102317523D01*
X124758476Y-102393714D01*
X124796571Y-102431809D01*
X124872761Y-102469904D01*
X125101333Y-102469904D01*
X125177523Y-102431809D01*
X125215619Y-102393714D01*
X124225142Y-101669904D02*
X124148952Y-101669904D01*
X124072761Y-101708000D01*
X124034666Y-101746095D01*
X123996571Y-101822285D01*
X123958476Y-101974666D01*
X123958476Y-102165142D01*
X123996571Y-102317523D01*
X124034666Y-102393714D01*
X124072761Y-102431809D01*
X124148952Y-102469904D01*
X124225142Y-102469904D01*
X124301333Y-102431809D01*
X124339428Y-102393714D01*
X124377523Y-102317523D01*
X124415619Y-102165142D01*
X124415619Y-101974666D01*
X124377523Y-101822285D01*
X124339428Y-101746095D01*
X124301333Y-101708000D01*
X124225142Y-101669904D01*
X144989428Y-102469904D02*
X144989428Y-101669904D01*
X144798952Y-101669904D01*
X144684666Y-101708000D01*
X144608476Y-101784190D01*
X144570380Y-101860380D01*
X144532285Y-102012761D01*
X144532285Y-102127047D01*
X144570380Y-102279428D01*
X144608476Y-102355619D01*
X144684666Y-102431809D01*
X144798952Y-102469904D01*
X144989428Y-102469904D01*
X144265619Y-101669904D02*
X143770380Y-101669904D01*
X144037047Y-101974666D01*
X143922761Y-101974666D01*
X143846571Y-102012761D01*
X143808476Y-102050857D01*
X143770380Y-102127047D01*
X143770380Y-102317523D01*
X143808476Y-102393714D01*
X143846571Y-102431809D01*
X143922761Y-102469904D01*
X144151333Y-102469904D01*
X144227523Y-102431809D01*
X144265619Y-102393714D01*
X143008476Y-102469904D02*
X143465619Y-102469904D01*
X143237047Y-102469904D02*
X143237047Y-101669904D01*
X143313238Y-101784190D01*
X143389428Y-101860380D01*
X143465619Y-101898476D01*
X164039428Y-102469904D02*
X164039428Y-101669904D01*
X163848952Y-101669904D01*
X163734666Y-101708000D01*
X163658476Y-101784190D01*
X163620380Y-101860380D01*
X163582285Y-102012761D01*
X163582285Y-102127047D01*
X163620380Y-102279428D01*
X163658476Y-102355619D01*
X163734666Y-102431809D01*
X163848952Y-102469904D01*
X164039428Y-102469904D01*
X163315619Y-101669904D02*
X162820380Y-101669904D01*
X163087047Y-101974666D01*
X162972761Y-101974666D01*
X162896571Y-102012761D01*
X162858476Y-102050857D01*
X162820380Y-102127047D01*
X162820380Y-102317523D01*
X162858476Y-102393714D01*
X162896571Y-102431809D01*
X162972761Y-102469904D01*
X163201333Y-102469904D01*
X163277523Y-102431809D01*
X163315619Y-102393714D01*
X162515619Y-101746095D02*
X162477523Y-101708000D01*
X162401333Y-101669904D01*
X162210857Y-101669904D01*
X162134666Y-101708000D01*
X162096571Y-101746095D01*
X162058476Y-101822285D01*
X162058476Y-101898476D01*
X162096571Y-102012761D01*
X162553714Y-102469904D01*
X162058476Y-102469904D01*
X183089428Y-102469904D02*
X183089428Y-101669904D01*
X182898952Y-101669904D01*
X182784666Y-101708000D01*
X182708476Y-101784190D01*
X182670380Y-101860380D01*
X182632285Y-102012761D01*
X182632285Y-102127047D01*
X182670380Y-102279428D01*
X182708476Y-102355619D01*
X182784666Y-102431809D01*
X182898952Y-102469904D01*
X183089428Y-102469904D01*
X182365619Y-101669904D02*
X181870380Y-101669904D01*
X182137047Y-101974666D01*
X182022761Y-101974666D01*
X181946571Y-102012761D01*
X181908476Y-102050857D01*
X181870380Y-102127047D01*
X181870380Y-102317523D01*
X181908476Y-102393714D01*
X181946571Y-102431809D01*
X182022761Y-102469904D01*
X182251333Y-102469904D01*
X182327523Y-102431809D01*
X182365619Y-102393714D01*
X181603714Y-101669904D02*
X181108476Y-101669904D01*
X181375142Y-101974666D01*
X181260857Y-101974666D01*
X181184666Y-102012761D01*
X181146571Y-102050857D01*
X181108476Y-102127047D01*
X181108476Y-102317523D01*
X181146571Y-102393714D01*
X181184666Y-102431809D01*
X181260857Y-102469904D01*
X181489428Y-102469904D01*
X181565619Y-102431809D01*
X181603714Y-102393714D01*
X202139428Y-102469904D02*
X202139428Y-101669904D01*
X201948952Y-101669904D01*
X201834666Y-101708000D01*
X201758476Y-101784190D01*
X201720380Y-101860380D01*
X201682285Y-102012761D01*
X201682285Y-102127047D01*
X201720380Y-102279428D01*
X201758476Y-102355619D01*
X201834666Y-102431809D01*
X201948952Y-102469904D01*
X202139428Y-102469904D01*
X201415619Y-101669904D02*
X200920380Y-101669904D01*
X201187047Y-101974666D01*
X201072761Y-101974666D01*
X200996571Y-102012761D01*
X200958476Y-102050857D01*
X200920380Y-102127047D01*
X200920380Y-102317523D01*
X200958476Y-102393714D01*
X200996571Y-102431809D01*
X201072761Y-102469904D01*
X201301333Y-102469904D01*
X201377523Y-102431809D01*
X201415619Y-102393714D01*
X200234666Y-101936571D02*
X200234666Y-102469904D01*
X200425142Y-101631809D02*
X200615619Y-102203238D01*
X200120380Y-102203238D01*
X221189428Y-102469904D02*
X221189428Y-101669904D01*
X220998952Y-101669904D01*
X220884666Y-101708000D01*
X220808476Y-101784190D01*
X220770380Y-101860380D01*
X220732285Y-102012761D01*
X220732285Y-102127047D01*
X220770380Y-102279428D01*
X220808476Y-102355619D01*
X220884666Y-102431809D01*
X220998952Y-102469904D01*
X221189428Y-102469904D01*
X220465619Y-101669904D02*
X219970380Y-101669904D01*
X220237047Y-101974666D01*
X220122761Y-101974666D01*
X220046571Y-102012761D01*
X220008476Y-102050857D01*
X219970380Y-102127047D01*
X219970380Y-102317523D01*
X220008476Y-102393714D01*
X220046571Y-102431809D01*
X220122761Y-102469904D01*
X220351333Y-102469904D01*
X220427523Y-102431809D01*
X220465619Y-102393714D01*
X219246571Y-101669904D02*
X219627523Y-101669904D01*
X219665619Y-102050857D01*
X219627523Y-102012761D01*
X219551333Y-101974666D01*
X219360857Y-101974666D01*
X219284666Y-102012761D01*
X219246571Y-102050857D01*
X219208476Y-102127047D01*
X219208476Y-102317523D01*
X219246571Y-102393714D01*
X219284666Y-102431809D01*
X219360857Y-102469904D01*
X219551333Y-102469904D01*
X219627523Y-102431809D01*
X219665619Y-102393714D01*
X240239428Y-102469904D02*
X240239428Y-101669904D01*
X240048952Y-101669904D01*
X239934666Y-101708000D01*
X239858476Y-101784190D01*
X239820380Y-101860380D01*
X239782285Y-102012761D01*
X239782285Y-102127047D01*
X239820380Y-102279428D01*
X239858476Y-102355619D01*
X239934666Y-102431809D01*
X240048952Y-102469904D01*
X240239428Y-102469904D01*
X239515619Y-101669904D02*
X239020380Y-101669904D01*
X239287047Y-101974666D01*
X239172761Y-101974666D01*
X239096571Y-102012761D01*
X239058476Y-102050857D01*
X239020380Y-102127047D01*
X239020380Y-102317523D01*
X239058476Y-102393714D01*
X239096571Y-102431809D01*
X239172761Y-102469904D01*
X239401333Y-102469904D01*
X239477523Y-102431809D01*
X239515619Y-102393714D01*
X238334666Y-101669904D02*
X238487047Y-101669904D01*
X238563238Y-101708000D01*
X238601333Y-101746095D01*
X238677523Y-101860380D01*
X238715619Y-102012761D01*
X238715619Y-102317523D01*
X238677523Y-102393714D01*
X238639428Y-102431809D01*
X238563238Y-102469904D01*
X238410857Y-102469904D01*
X238334666Y-102431809D01*
X238296571Y-102393714D01*
X238258476Y-102317523D01*
X238258476Y-102127047D01*
X238296571Y-102050857D01*
X238334666Y-102012761D01*
X238410857Y-101974666D01*
X238563238Y-101974666D01*
X238639428Y-102012761D01*
X238677523Y-102050857D01*
X238715619Y-102127047D01*
X30689428Y-121519904D02*
X30689428Y-120719904D01*
X30498952Y-120719904D01*
X30384666Y-120758000D01*
X30308476Y-120834190D01*
X30270380Y-120910380D01*
X30232285Y-121062761D01*
X30232285Y-121177047D01*
X30270380Y-121329428D01*
X30308476Y-121405619D01*
X30384666Y-121481809D01*
X30498952Y-121519904D01*
X30689428Y-121519904D01*
X29965619Y-120719904D02*
X29470380Y-120719904D01*
X29737047Y-121024666D01*
X29622761Y-121024666D01*
X29546571Y-121062761D01*
X29508476Y-121100857D01*
X29470380Y-121177047D01*
X29470380Y-121367523D01*
X29508476Y-121443714D01*
X29546571Y-121481809D01*
X29622761Y-121519904D01*
X29851333Y-121519904D01*
X29927523Y-121481809D01*
X29965619Y-121443714D01*
X29203714Y-120719904D02*
X28670380Y-120719904D01*
X29013238Y-121519904D01*
X49739428Y-121519904D02*
X49739428Y-120719904D01*
X49548952Y-120719904D01*
X49434666Y-120758000D01*
X49358476Y-120834190D01*
X49320380Y-120910380D01*
X49282285Y-121062761D01*
X49282285Y-121177047D01*
X49320380Y-121329428D01*
X49358476Y-121405619D01*
X49434666Y-121481809D01*
X49548952Y-121519904D01*
X49739428Y-121519904D01*
X49015619Y-120719904D02*
X48520380Y-120719904D01*
X48787047Y-121024666D01*
X48672761Y-121024666D01*
X48596571Y-121062761D01*
X48558476Y-121100857D01*
X48520380Y-121177047D01*
X48520380Y-121367523D01*
X48558476Y-121443714D01*
X48596571Y-121481809D01*
X48672761Y-121519904D01*
X48901333Y-121519904D01*
X48977523Y-121481809D01*
X49015619Y-121443714D01*
X48063238Y-121062761D02*
X48139428Y-121024666D01*
X48177523Y-120986571D01*
X48215619Y-120910380D01*
X48215619Y-120872285D01*
X48177523Y-120796095D01*
X48139428Y-120758000D01*
X48063238Y-120719904D01*
X47910857Y-120719904D01*
X47834666Y-120758000D01*
X47796571Y-120796095D01*
X47758476Y-120872285D01*
X47758476Y-120910380D01*
X47796571Y-120986571D01*
X47834666Y-121024666D01*
X47910857Y-121062761D01*
X48063238Y-121062761D01*
X48139428Y-121100857D01*
X48177523Y-121138952D01*
X48215619Y-121215142D01*
X48215619Y-121367523D01*
X48177523Y-121443714D01*
X48139428Y-121481809D01*
X48063238Y-121519904D01*
X47910857Y-121519904D01*
X47834666Y-121481809D01*
X47796571Y-121443714D01*
X47758476Y-121367523D01*
X47758476Y-121215142D01*
X47796571Y-121138952D01*
X47834666Y-121100857D01*
X47910857Y-121062761D01*
X68789428Y-121519904D02*
X68789428Y-120719904D01*
X68598952Y-120719904D01*
X68484666Y-120758000D01*
X68408476Y-120834190D01*
X68370380Y-120910380D01*
X68332285Y-121062761D01*
X68332285Y-121177047D01*
X68370380Y-121329428D01*
X68408476Y-121405619D01*
X68484666Y-121481809D01*
X68598952Y-121519904D01*
X68789428Y-121519904D01*
X68065619Y-120719904D02*
X67570380Y-120719904D01*
X67837047Y-121024666D01*
X67722761Y-121024666D01*
X67646571Y-121062761D01*
X67608476Y-121100857D01*
X67570380Y-121177047D01*
X67570380Y-121367523D01*
X67608476Y-121443714D01*
X67646571Y-121481809D01*
X67722761Y-121519904D01*
X67951333Y-121519904D01*
X68027523Y-121481809D01*
X68065619Y-121443714D01*
X67189428Y-121519904D02*
X67037047Y-121519904D01*
X66960857Y-121481809D01*
X66922761Y-121443714D01*
X66846571Y-121329428D01*
X66808476Y-121177047D01*
X66808476Y-120872285D01*
X66846571Y-120796095D01*
X66884666Y-120758000D01*
X66960857Y-120719904D01*
X67113238Y-120719904D01*
X67189428Y-120758000D01*
X67227523Y-120796095D01*
X67265619Y-120872285D01*
X67265619Y-121062761D01*
X67227523Y-121138952D01*
X67189428Y-121177047D01*
X67113238Y-121215142D01*
X66960857Y-121215142D01*
X66884666Y-121177047D01*
X66846571Y-121138952D01*
X66808476Y-121062761D01*
X87839428Y-121519904D02*
X87839428Y-120719904D01*
X87648952Y-120719904D01*
X87534666Y-120758000D01*
X87458476Y-120834190D01*
X87420380Y-120910380D01*
X87382285Y-121062761D01*
X87382285Y-121177047D01*
X87420380Y-121329428D01*
X87458476Y-121405619D01*
X87534666Y-121481809D01*
X87648952Y-121519904D01*
X87839428Y-121519904D01*
X86696571Y-120986571D02*
X86696571Y-121519904D01*
X86887047Y-120681809D02*
X87077523Y-121253238D01*
X86582285Y-121253238D01*
X86125142Y-120719904D02*
X86048952Y-120719904D01*
X85972761Y-120758000D01*
X85934666Y-120796095D01*
X85896571Y-120872285D01*
X85858476Y-121024666D01*
X85858476Y-121215142D01*
X85896571Y-121367523D01*
X85934666Y-121443714D01*
X85972761Y-121481809D01*
X86048952Y-121519904D01*
X86125142Y-121519904D01*
X86201333Y-121481809D01*
X86239428Y-121443714D01*
X86277523Y-121367523D01*
X86315619Y-121215142D01*
X86315619Y-121024666D01*
X86277523Y-120872285D01*
X86239428Y-120796095D01*
X86201333Y-120758000D01*
X86125142Y-120719904D01*
X106889428Y-121519904D02*
X106889428Y-120719904D01*
X106698952Y-120719904D01*
X106584666Y-120758000D01*
X106508476Y-120834190D01*
X106470380Y-120910380D01*
X106432285Y-121062761D01*
X106432285Y-121177047D01*
X106470380Y-121329428D01*
X106508476Y-121405619D01*
X106584666Y-121481809D01*
X106698952Y-121519904D01*
X106889428Y-121519904D01*
X105746571Y-120986571D02*
X105746571Y-121519904D01*
X105937047Y-120681809D02*
X106127523Y-121253238D01*
X105632285Y-121253238D01*
X104908476Y-121519904D02*
X105365619Y-121519904D01*
X105137047Y-121519904D02*
X105137047Y-120719904D01*
X105213238Y-120834190D01*
X105289428Y-120910380D01*
X105365619Y-120948476D01*
X135591428Y-121519904D02*
X135591428Y-120719904D01*
X135400952Y-120719904D01*
X135286666Y-120758000D01*
X135210476Y-120834190D01*
X135172380Y-120910380D01*
X135134285Y-121062761D01*
X135134285Y-121177047D01*
X135172380Y-121329428D01*
X135210476Y-121405619D01*
X135286666Y-121481809D01*
X135400952Y-121519904D01*
X135591428Y-121519904D01*
X134448571Y-120986571D02*
X134448571Y-121519904D01*
X134639047Y-120681809D02*
X134829523Y-121253238D01*
X134334285Y-121253238D01*
X134067619Y-120796095D02*
X134029523Y-120758000D01*
X133953333Y-120719904D01*
X133762857Y-120719904D01*
X133686666Y-120758000D01*
X133648571Y-120796095D01*
X133610476Y-120872285D01*
X133610476Y-120948476D01*
X133648571Y-121062761D01*
X134105714Y-121519904D01*
X133610476Y-121519904D01*
X164039428Y-121519904D02*
X164039428Y-120719904D01*
X163848952Y-120719904D01*
X163734666Y-120758000D01*
X163658476Y-120834190D01*
X163620380Y-120910380D01*
X163582285Y-121062761D01*
X163582285Y-121177047D01*
X163620380Y-121329428D01*
X163658476Y-121405619D01*
X163734666Y-121481809D01*
X163848952Y-121519904D01*
X164039428Y-121519904D01*
X162896571Y-120986571D02*
X162896571Y-121519904D01*
X163087047Y-120681809D02*
X163277523Y-121253238D01*
X162782285Y-121253238D01*
X162553714Y-120719904D02*
X162058476Y-120719904D01*
X162325142Y-121024666D01*
X162210857Y-121024666D01*
X162134666Y-121062761D01*
X162096571Y-121100857D01*
X162058476Y-121177047D01*
X162058476Y-121367523D01*
X162096571Y-121443714D01*
X162134666Y-121481809D01*
X162210857Y-121519904D01*
X162439428Y-121519904D01*
X162515619Y-121481809D01*
X162553714Y-121443714D01*
X183089428Y-121519904D02*
X183089428Y-120719904D01*
X182898952Y-120719904D01*
X182784666Y-120758000D01*
X182708476Y-120834190D01*
X182670380Y-120910380D01*
X182632285Y-121062761D01*
X182632285Y-121177047D01*
X182670380Y-121329428D01*
X182708476Y-121405619D01*
X182784666Y-121481809D01*
X182898952Y-121519904D01*
X183089428Y-121519904D01*
X181946571Y-120986571D02*
X181946571Y-121519904D01*
X182137047Y-120681809D02*
X182327523Y-121253238D01*
X181832285Y-121253238D01*
X181184666Y-120986571D02*
X181184666Y-121519904D01*
X181375142Y-120681809D02*
X181565619Y-121253238D01*
X181070380Y-121253238D01*
X202139428Y-121519904D02*
X202139428Y-120719904D01*
X201948952Y-120719904D01*
X201834666Y-120758000D01*
X201758476Y-120834190D01*
X201720380Y-120910380D01*
X201682285Y-121062761D01*
X201682285Y-121177047D01*
X201720380Y-121329428D01*
X201758476Y-121405619D01*
X201834666Y-121481809D01*
X201948952Y-121519904D01*
X202139428Y-121519904D01*
X200996571Y-120986571D02*
X200996571Y-121519904D01*
X201187047Y-120681809D02*
X201377523Y-121253238D01*
X200882285Y-121253238D01*
X200196571Y-120719904D02*
X200577523Y-120719904D01*
X200615619Y-121100857D01*
X200577523Y-121062761D01*
X200501333Y-121024666D01*
X200310857Y-121024666D01*
X200234666Y-121062761D01*
X200196571Y-121100857D01*
X200158476Y-121177047D01*
X200158476Y-121367523D01*
X200196571Y-121443714D01*
X200234666Y-121481809D01*
X200310857Y-121519904D01*
X200501333Y-121519904D01*
X200577523Y-121481809D01*
X200615619Y-121443714D01*
X221189428Y-121519904D02*
X221189428Y-120719904D01*
X220998952Y-120719904D01*
X220884666Y-120758000D01*
X220808476Y-120834190D01*
X220770380Y-120910380D01*
X220732285Y-121062761D01*
X220732285Y-121177047D01*
X220770380Y-121329428D01*
X220808476Y-121405619D01*
X220884666Y-121481809D01*
X220998952Y-121519904D01*
X221189428Y-121519904D01*
X220046571Y-120986571D02*
X220046571Y-121519904D01*
X220237047Y-120681809D02*
X220427523Y-121253238D01*
X219932285Y-121253238D01*
X219284666Y-120719904D02*
X219437047Y-120719904D01*
X219513238Y-120758000D01*
X219551333Y-120796095D01*
X219627523Y-120910380D01*
X219665619Y-121062761D01*
X219665619Y-121367523D01*
X219627523Y-121443714D01*
X219589428Y-121481809D01*
X219513238Y-121519904D01*
X219360857Y-121519904D01*
X219284666Y-121481809D01*
X219246571Y-121443714D01*
X219208476Y-121367523D01*
X219208476Y-121177047D01*
X219246571Y-121100857D01*
X219284666Y-121062761D01*
X219360857Y-121024666D01*
X219513238Y-121024666D01*
X219589428Y-121062761D01*
X219627523Y-121100857D01*
X219665619Y-121177047D01*
X240239428Y-121519904D02*
X240239428Y-120719904D01*
X240048952Y-120719904D01*
X239934666Y-120758000D01*
X239858476Y-120834190D01*
X239820380Y-120910380D01*
X239782285Y-121062761D01*
X239782285Y-121177047D01*
X239820380Y-121329428D01*
X239858476Y-121405619D01*
X239934666Y-121481809D01*
X240048952Y-121519904D01*
X240239428Y-121519904D01*
X239096571Y-120986571D02*
X239096571Y-121519904D01*
X239287047Y-120681809D02*
X239477523Y-121253238D01*
X238982285Y-121253238D01*
X238753714Y-120719904D02*
X238220380Y-120719904D01*
X238563238Y-121519904D01*
X244681333Y-41362380D02*
X244681333Y-42076666D01*
X244728952Y-42219523D01*
X244824190Y-42314761D01*
X244967047Y-42362380D01*
X245062285Y-42362380D01*
X243681333Y-42362380D02*
X244252761Y-42362380D01*
X243967047Y-42362380D02*
X243967047Y-41362380D01*
X244062285Y-41505238D01*
X244157523Y-41600476D01*
X244252761Y-41648095D01*
D12*
X34266095Y-60396380D02*
X34266095Y-59396380D01*
X33694666Y-60396380D02*
X34123238Y-59824952D01*
X33694666Y-59396380D02*
X34266095Y-59967809D01*
X32742285Y-60396380D02*
X33313714Y-60396380D01*
X33028000Y-60396380D02*
X33028000Y-59396380D01*
X33123238Y-59539238D01*
X33218476Y-59634476D01*
X33313714Y-59682095D01*
X53316095Y-60396380D02*
X53316095Y-59396380D01*
X52744666Y-60396380D02*
X53173238Y-59824952D01*
X52744666Y-59396380D02*
X53316095Y-59967809D01*
X52363714Y-59491619D02*
X52316095Y-59444000D01*
X52220857Y-59396380D01*
X51982761Y-59396380D01*
X51887523Y-59444000D01*
X51839904Y-59491619D01*
X51792285Y-59586857D01*
X51792285Y-59682095D01*
X51839904Y-59824952D01*
X52411333Y-60396380D01*
X51792285Y-60396380D01*
X72366095Y-60650380D02*
X72366095Y-59650380D01*
X71794666Y-60650380D02*
X72223238Y-60078952D01*
X71794666Y-59650380D02*
X72366095Y-60221809D01*
X71461333Y-59650380D02*
X70842285Y-59650380D01*
X71175619Y-60031333D01*
X71032761Y-60031333D01*
X70937523Y-60078952D01*
X70889904Y-60126571D01*
X70842285Y-60221809D01*
X70842285Y-60459904D01*
X70889904Y-60555142D01*
X70937523Y-60602761D01*
X71032761Y-60650380D01*
X71318476Y-60650380D01*
X71413714Y-60602761D01*
X71461333Y-60555142D01*
X91416095Y-60396380D02*
X91416095Y-59396380D01*
X90844666Y-60396380D02*
X91273238Y-59824952D01*
X90844666Y-59396380D02*
X91416095Y-59967809D01*
X89987523Y-59729714D02*
X89987523Y-60396380D01*
X90225619Y-59348761D02*
X90463714Y-60063047D01*
X89844666Y-60063047D01*
X110466095Y-60396380D02*
X110466095Y-59396380D01*
X109894666Y-60396380D02*
X110323238Y-59824952D01*
X109894666Y-59396380D02*
X110466095Y-59967809D01*
X108989904Y-59396380D02*
X109466095Y-59396380D01*
X109513714Y-59872571D01*
X109466095Y-59824952D01*
X109370857Y-59777333D01*
X109132761Y-59777333D01*
X109037523Y-59824952D01*
X108989904Y-59872571D01*
X108942285Y-59967809D01*
X108942285Y-60205904D01*
X108989904Y-60301142D01*
X109037523Y-60348761D01*
X109132761Y-60396380D01*
X109370857Y-60396380D01*
X109466095Y-60348761D01*
X109513714Y-60301142D01*
X129516095Y-60396380D02*
X129516095Y-59396380D01*
X128944666Y-60396380D02*
X129373238Y-59824952D01*
X128944666Y-59396380D02*
X129516095Y-59967809D01*
X128087523Y-59396380D02*
X128278000Y-59396380D01*
X128373238Y-59444000D01*
X128420857Y-59491619D01*
X128516095Y-59634476D01*
X128563714Y-59824952D01*
X128563714Y-60205904D01*
X128516095Y-60301142D01*
X128468476Y-60348761D01*
X128373238Y-60396380D01*
X128182761Y-60396380D01*
X128087523Y-60348761D01*
X128039904Y-60301142D01*
X127992285Y-60205904D01*
X127992285Y-59967809D01*
X128039904Y-59872571D01*
X128087523Y-59824952D01*
X128182761Y-59777333D01*
X128373238Y-59777333D01*
X128468476Y-59824952D01*
X128516095Y-59872571D01*
X128563714Y-59967809D01*
X148566095Y-60396380D02*
X148566095Y-59396380D01*
X147994666Y-60396380D02*
X148423238Y-59824952D01*
X147994666Y-59396380D02*
X148566095Y-59967809D01*
X147661333Y-59396380D02*
X146994666Y-59396380D01*
X147423238Y-60396380D01*
X167616095Y-60396380D02*
X167616095Y-59396380D01*
X167044666Y-60396380D02*
X167473238Y-59824952D01*
X167044666Y-59396380D02*
X167616095Y-59967809D01*
X166473238Y-59824952D02*
X166568476Y-59777333D01*
X166616095Y-59729714D01*
X166663714Y-59634476D01*
X166663714Y-59586857D01*
X166616095Y-59491619D01*
X166568476Y-59444000D01*
X166473238Y-59396380D01*
X166282761Y-59396380D01*
X166187523Y-59444000D01*
X166139904Y-59491619D01*
X166092285Y-59586857D01*
X166092285Y-59634476D01*
X166139904Y-59729714D01*
X166187523Y-59777333D01*
X166282761Y-59824952D01*
X166473238Y-59824952D01*
X166568476Y-59872571D01*
X166616095Y-59920190D01*
X166663714Y-60015428D01*
X166663714Y-60205904D01*
X166616095Y-60301142D01*
X166568476Y-60348761D01*
X166473238Y-60396380D01*
X166282761Y-60396380D01*
X166187523Y-60348761D01*
X166139904Y-60301142D01*
X166092285Y-60205904D01*
X166092285Y-60015428D01*
X166139904Y-59920190D01*
X166187523Y-59872571D01*
X166282761Y-59824952D01*
X186666095Y-60396380D02*
X186666095Y-59396380D01*
X186094666Y-60396380D02*
X186523238Y-59824952D01*
X186094666Y-59396380D02*
X186666095Y-59967809D01*
X185618476Y-60396380D02*
X185428000Y-60396380D01*
X185332761Y-60348761D01*
X185285142Y-60301142D01*
X185189904Y-60158285D01*
X185142285Y-59967809D01*
X185142285Y-59586857D01*
X185189904Y-59491619D01*
X185237523Y-59444000D01*
X185332761Y-59396380D01*
X185523238Y-59396380D01*
X185618476Y-59444000D01*
X185666095Y-59491619D01*
X185713714Y-59586857D01*
X185713714Y-59824952D01*
X185666095Y-59920190D01*
X185618476Y-59967809D01*
X185523238Y-60015428D01*
X185332761Y-60015428D01*
X185237523Y-59967809D01*
X185189904Y-59920190D01*
X185142285Y-59824952D01*
X206192285Y-60396380D02*
X206192285Y-59396380D01*
X205620857Y-60396380D02*
X206049428Y-59824952D01*
X205620857Y-59396380D02*
X206192285Y-59967809D01*
X204668476Y-60396380D02*
X205239904Y-60396380D01*
X204954190Y-60396380D02*
X204954190Y-59396380D01*
X205049428Y-59539238D01*
X205144666Y-59634476D01*
X205239904Y-59682095D01*
X204049428Y-59396380D02*
X203954190Y-59396380D01*
X203858952Y-59444000D01*
X203811333Y-59491619D01*
X203763714Y-59586857D01*
X203716095Y-59777333D01*
X203716095Y-60015428D01*
X203763714Y-60205904D01*
X203811333Y-60301142D01*
X203858952Y-60348761D01*
X203954190Y-60396380D01*
X204049428Y-60396380D01*
X204144666Y-60348761D01*
X204192285Y-60301142D01*
X204239904Y-60205904D01*
X204287523Y-60015428D01*
X204287523Y-59777333D01*
X204239904Y-59586857D01*
X204192285Y-59491619D01*
X204144666Y-59444000D01*
X204049428Y-59396380D01*
X225242285Y-60396380D02*
X225242285Y-59396380D01*
X224670857Y-60396380D02*
X225099428Y-59824952D01*
X224670857Y-59396380D02*
X225242285Y-59967809D01*
X223718476Y-60396380D02*
X224289904Y-60396380D01*
X224004190Y-60396380D02*
X224004190Y-59396380D01*
X224099428Y-59539238D01*
X224194666Y-59634476D01*
X224289904Y-59682095D01*
X222766095Y-60396380D02*
X223337523Y-60396380D01*
X223051809Y-60396380D02*
X223051809Y-59396380D01*
X223147047Y-59539238D01*
X223242285Y-59634476D01*
X223337523Y-59682095D01*
X244292285Y-60396380D02*
X244292285Y-59396380D01*
X243720857Y-60396380D02*
X244149428Y-59824952D01*
X243720857Y-59396380D02*
X244292285Y-59967809D01*
X242768476Y-60396380D02*
X243339904Y-60396380D01*
X243054190Y-60396380D02*
X243054190Y-59396380D01*
X243149428Y-59539238D01*
X243244666Y-59634476D01*
X243339904Y-59682095D01*
X242387523Y-59491619D02*
X242339904Y-59444000D01*
X242244666Y-59396380D01*
X242006571Y-59396380D01*
X241911333Y-59444000D01*
X241863714Y-59491619D01*
X241816095Y-59586857D01*
X241816095Y-59682095D01*
X241863714Y-59824952D01*
X242435142Y-60396380D01*
X241816095Y-60396380D01*
X34742285Y-79446380D02*
X34742285Y-78446380D01*
X34170857Y-79446380D02*
X34599428Y-78874952D01*
X34170857Y-78446380D02*
X34742285Y-79017809D01*
X33218476Y-79446380D02*
X33789904Y-79446380D01*
X33504190Y-79446380D02*
X33504190Y-78446380D01*
X33599428Y-78589238D01*
X33694666Y-78684476D01*
X33789904Y-78732095D01*
X32885142Y-78446380D02*
X32266095Y-78446380D01*
X32599428Y-78827333D01*
X32456571Y-78827333D01*
X32361333Y-78874952D01*
X32313714Y-78922571D01*
X32266095Y-79017809D01*
X32266095Y-79255904D01*
X32313714Y-79351142D01*
X32361333Y-79398761D01*
X32456571Y-79446380D01*
X32742285Y-79446380D01*
X32837523Y-79398761D01*
X32885142Y-79351142D01*
X53792285Y-79446380D02*
X53792285Y-78446380D01*
X53220857Y-79446380D02*
X53649428Y-78874952D01*
X53220857Y-78446380D02*
X53792285Y-79017809D01*
X52268476Y-79446380D02*
X52839904Y-79446380D01*
X52554190Y-79446380D02*
X52554190Y-78446380D01*
X52649428Y-78589238D01*
X52744666Y-78684476D01*
X52839904Y-78732095D01*
X51411333Y-78779714D02*
X51411333Y-79446380D01*
X51649428Y-78398761D02*
X51887523Y-79113047D01*
X51268476Y-79113047D01*
X72842285Y-79446380D02*
X72842285Y-78446380D01*
X72270857Y-79446380D02*
X72699428Y-78874952D01*
X72270857Y-78446380D02*
X72842285Y-79017809D01*
X71318476Y-79446380D02*
X71889904Y-79446380D01*
X71604190Y-79446380D02*
X71604190Y-78446380D01*
X71699428Y-78589238D01*
X71794666Y-78684476D01*
X71889904Y-78732095D01*
X70413714Y-78446380D02*
X70889904Y-78446380D01*
X70937523Y-78922571D01*
X70889904Y-78874952D01*
X70794666Y-78827333D01*
X70556571Y-78827333D01*
X70461333Y-78874952D01*
X70413714Y-78922571D01*
X70366095Y-79017809D01*
X70366095Y-79255904D01*
X70413714Y-79351142D01*
X70461333Y-79398761D01*
X70556571Y-79446380D01*
X70794666Y-79446380D01*
X70889904Y-79398761D01*
X70937523Y-79351142D01*
X91892285Y-79446380D02*
X91892285Y-78446380D01*
X91320857Y-79446380D02*
X91749428Y-78874952D01*
X91320857Y-78446380D02*
X91892285Y-79017809D01*
X90368476Y-79446380D02*
X90939904Y-79446380D01*
X90654190Y-79446380D02*
X90654190Y-78446380D01*
X90749428Y-78589238D01*
X90844666Y-78684476D01*
X90939904Y-78732095D01*
X89511333Y-78446380D02*
X89701809Y-78446380D01*
X89797047Y-78494000D01*
X89844666Y-78541619D01*
X89939904Y-78684476D01*
X89987523Y-78874952D01*
X89987523Y-79255904D01*
X89939904Y-79351142D01*
X89892285Y-79398761D01*
X89797047Y-79446380D01*
X89606571Y-79446380D01*
X89511333Y-79398761D01*
X89463714Y-79351142D01*
X89416095Y-79255904D01*
X89416095Y-79017809D01*
X89463714Y-78922571D01*
X89511333Y-78874952D01*
X89606571Y-78827333D01*
X89797047Y-78827333D01*
X89892285Y-78874952D01*
X89939904Y-78922571D01*
X89987523Y-79017809D01*
X110942285Y-79446380D02*
X110942285Y-78446380D01*
X110370857Y-79446380D02*
X110799428Y-78874952D01*
X110370857Y-78446380D02*
X110942285Y-79017809D01*
X109418476Y-79446380D02*
X109989904Y-79446380D01*
X109704190Y-79446380D02*
X109704190Y-78446380D01*
X109799428Y-78589238D01*
X109894666Y-78684476D01*
X109989904Y-78732095D01*
X109085142Y-78446380D02*
X108418476Y-78446380D01*
X108847047Y-79446380D01*
X130039285Y-79700380D02*
X130039285Y-78700380D01*
X129467857Y-79700380D02*
X129896428Y-79128952D01*
X129467857Y-78700380D02*
X130039285Y-79271809D01*
X128515476Y-79700380D02*
X129086904Y-79700380D01*
X128801190Y-79700380D02*
X128801190Y-78700380D01*
X128896428Y-78843238D01*
X128991666Y-78938476D01*
X129086904Y-78986095D01*
X127944047Y-79128952D02*
X128039285Y-79081333D01*
X128086904Y-79033714D01*
X128134523Y-78938476D01*
X128134523Y-78890857D01*
X128086904Y-78795619D01*
X128039285Y-78748000D01*
X127944047Y-78700380D01*
X127753571Y-78700380D01*
X127658333Y-78748000D01*
X127610714Y-78795619D01*
X127563095Y-78890857D01*
X127563095Y-78938476D01*
X127610714Y-79033714D01*
X127658333Y-79081333D01*
X127753571Y-79128952D01*
X127944047Y-79128952D01*
X128039285Y-79176571D01*
X128086904Y-79224190D01*
X128134523Y-79319428D01*
X128134523Y-79509904D01*
X128086904Y-79605142D01*
X128039285Y-79652761D01*
X127944047Y-79700380D01*
X127753571Y-79700380D01*
X127658333Y-79652761D01*
X127610714Y-79605142D01*
X127563095Y-79509904D01*
X127563095Y-79319428D01*
X127610714Y-79224190D01*
X127658333Y-79176571D01*
X127753571Y-79128952D01*
X148788285Y-79446380D02*
X148788285Y-78446380D01*
X148216857Y-79446380D02*
X148645428Y-78874952D01*
X148216857Y-78446380D02*
X148788285Y-79017809D01*
X147264476Y-79446380D02*
X147835904Y-79446380D01*
X147550190Y-79446380D02*
X147550190Y-78446380D01*
X147645428Y-78589238D01*
X147740666Y-78684476D01*
X147835904Y-78732095D01*
X146788285Y-79446380D02*
X146597809Y-79446380D01*
X146502571Y-79398761D01*
X146454952Y-79351142D01*
X146359714Y-79208285D01*
X146312095Y-79017809D01*
X146312095Y-78636857D01*
X146359714Y-78541619D01*
X146407333Y-78494000D01*
X146502571Y-78446380D01*
X146693047Y-78446380D01*
X146788285Y-78494000D01*
X146835904Y-78541619D01*
X146883523Y-78636857D01*
X146883523Y-78874952D01*
X146835904Y-78970190D01*
X146788285Y-79017809D01*
X146693047Y-79065428D01*
X146502571Y-79065428D01*
X146407333Y-79017809D01*
X146359714Y-78970190D01*
X146312095Y-78874952D01*
X167838285Y-79446380D02*
X167838285Y-78446380D01*
X167266857Y-79446380D02*
X167695428Y-78874952D01*
X167266857Y-78446380D02*
X167838285Y-79017809D01*
X166885904Y-78541619D02*
X166838285Y-78494000D01*
X166743047Y-78446380D01*
X166504952Y-78446380D01*
X166409714Y-78494000D01*
X166362095Y-78541619D01*
X166314476Y-78636857D01*
X166314476Y-78732095D01*
X166362095Y-78874952D01*
X166933523Y-79446380D01*
X166314476Y-79446380D01*
X165695428Y-78446380D02*
X165600190Y-78446380D01*
X165504952Y-78494000D01*
X165457333Y-78541619D01*
X165409714Y-78636857D01*
X165362095Y-78827333D01*
X165362095Y-79065428D01*
X165409714Y-79255904D01*
X165457333Y-79351142D01*
X165504952Y-79398761D01*
X165600190Y-79446380D01*
X165695428Y-79446380D01*
X165790666Y-79398761D01*
X165838285Y-79351142D01*
X165885904Y-79255904D01*
X165933523Y-79065428D01*
X165933523Y-78827333D01*
X165885904Y-78636857D01*
X165838285Y-78541619D01*
X165790666Y-78494000D01*
X165695428Y-78446380D01*
X187142285Y-79446380D02*
X187142285Y-78446380D01*
X186570857Y-79446380D02*
X186999428Y-78874952D01*
X186570857Y-78446380D02*
X187142285Y-79017809D01*
X186189904Y-78541619D02*
X186142285Y-78494000D01*
X186047047Y-78446380D01*
X185808952Y-78446380D01*
X185713714Y-78494000D01*
X185666095Y-78541619D01*
X185618476Y-78636857D01*
X185618476Y-78732095D01*
X185666095Y-78874952D01*
X186237523Y-79446380D01*
X185618476Y-79446380D01*
X184666095Y-79446380D02*
X185237523Y-79446380D01*
X184951809Y-79446380D02*
X184951809Y-78446380D01*
X185047047Y-78589238D01*
X185142285Y-78684476D01*
X185237523Y-78732095D01*
X206192285Y-79446380D02*
X206192285Y-78446380D01*
X205620857Y-79446380D02*
X206049428Y-78874952D01*
X205620857Y-78446380D02*
X206192285Y-79017809D01*
X205239904Y-78541619D02*
X205192285Y-78494000D01*
X205097047Y-78446380D01*
X204858952Y-78446380D01*
X204763714Y-78494000D01*
X204716095Y-78541619D01*
X204668476Y-78636857D01*
X204668476Y-78732095D01*
X204716095Y-78874952D01*
X205287523Y-79446380D01*
X204668476Y-79446380D01*
X204287523Y-78541619D02*
X204239904Y-78494000D01*
X204144666Y-78446380D01*
X203906571Y-78446380D01*
X203811333Y-78494000D01*
X203763714Y-78541619D01*
X203716095Y-78636857D01*
X203716095Y-78732095D01*
X203763714Y-78874952D01*
X204335142Y-79446380D01*
X203716095Y-79446380D01*
X224988285Y-79446380D02*
X224988285Y-78446380D01*
X224416857Y-79446380D02*
X224845428Y-78874952D01*
X224416857Y-78446380D02*
X224988285Y-79017809D01*
X224035904Y-78541619D02*
X223988285Y-78494000D01*
X223893047Y-78446380D01*
X223654952Y-78446380D01*
X223559714Y-78494000D01*
X223512095Y-78541619D01*
X223464476Y-78636857D01*
X223464476Y-78732095D01*
X223512095Y-78874952D01*
X224083523Y-79446380D01*
X223464476Y-79446380D01*
X223131142Y-78446380D02*
X222512095Y-78446380D01*
X222845428Y-78827333D01*
X222702571Y-78827333D01*
X222607333Y-78874952D01*
X222559714Y-78922571D01*
X222512095Y-79017809D01*
X222512095Y-79255904D01*
X222559714Y-79351142D01*
X222607333Y-79398761D01*
X222702571Y-79446380D01*
X222988285Y-79446380D01*
X223083523Y-79398761D01*
X223131142Y-79351142D01*
X244292285Y-79446380D02*
X244292285Y-78446380D01*
X243720857Y-79446380D02*
X244149428Y-78874952D01*
X243720857Y-78446380D02*
X244292285Y-79017809D01*
X243339904Y-78541619D02*
X243292285Y-78494000D01*
X243197047Y-78446380D01*
X242958952Y-78446380D01*
X242863714Y-78494000D01*
X242816095Y-78541619D01*
X242768476Y-78636857D01*
X242768476Y-78732095D01*
X242816095Y-78874952D01*
X243387523Y-79446380D01*
X242768476Y-79446380D01*
X241911333Y-78779714D02*
X241911333Y-79446380D01*
X242149428Y-78398761D02*
X242387523Y-79113047D01*
X241768476Y-79113047D01*
X34742285Y-98496380D02*
X34742285Y-97496380D01*
X34170857Y-98496380D02*
X34599428Y-97924952D01*
X34170857Y-97496380D02*
X34742285Y-98067809D01*
X33789904Y-97591619D02*
X33742285Y-97544000D01*
X33647047Y-97496380D01*
X33408952Y-97496380D01*
X33313714Y-97544000D01*
X33266095Y-97591619D01*
X33218476Y-97686857D01*
X33218476Y-97782095D01*
X33266095Y-97924952D01*
X33837523Y-98496380D01*
X33218476Y-98496380D01*
X32313714Y-97496380D02*
X32789904Y-97496380D01*
X32837523Y-97972571D01*
X32789904Y-97924952D01*
X32694666Y-97877333D01*
X32456571Y-97877333D01*
X32361333Y-97924952D01*
X32313714Y-97972571D01*
X32266095Y-98067809D01*
X32266095Y-98305904D01*
X32313714Y-98401142D01*
X32361333Y-98448761D01*
X32456571Y-98496380D01*
X32694666Y-98496380D01*
X32789904Y-98448761D01*
X32837523Y-98401142D01*
X53538285Y-98496380D02*
X53538285Y-97496380D01*
X52966857Y-98496380D02*
X53395428Y-97924952D01*
X52966857Y-97496380D02*
X53538285Y-98067809D01*
X52585904Y-97591619D02*
X52538285Y-97544000D01*
X52443047Y-97496380D01*
X52204952Y-97496380D01*
X52109714Y-97544000D01*
X52062095Y-97591619D01*
X52014476Y-97686857D01*
X52014476Y-97782095D01*
X52062095Y-97924952D01*
X52633523Y-98496380D01*
X52014476Y-98496380D01*
X51157333Y-97496380D02*
X51347809Y-97496380D01*
X51443047Y-97544000D01*
X51490666Y-97591619D01*
X51585904Y-97734476D01*
X51633523Y-97924952D01*
X51633523Y-98305904D01*
X51585904Y-98401142D01*
X51538285Y-98448761D01*
X51443047Y-98496380D01*
X51252571Y-98496380D01*
X51157333Y-98448761D01*
X51109714Y-98401142D01*
X51062095Y-98305904D01*
X51062095Y-98067809D01*
X51109714Y-97972571D01*
X51157333Y-97924952D01*
X51252571Y-97877333D01*
X51443047Y-97877333D01*
X51538285Y-97924952D01*
X51585904Y-97972571D01*
X51633523Y-98067809D01*
X72588285Y-98496380D02*
X72588285Y-97496380D01*
X72016857Y-98496380D02*
X72445428Y-97924952D01*
X72016857Y-97496380D02*
X72588285Y-98067809D01*
X71635904Y-97591619D02*
X71588285Y-97544000D01*
X71493047Y-97496380D01*
X71254952Y-97496380D01*
X71159714Y-97544000D01*
X71112095Y-97591619D01*
X71064476Y-97686857D01*
X71064476Y-97782095D01*
X71112095Y-97924952D01*
X71683523Y-98496380D01*
X71064476Y-98496380D01*
X70731142Y-97496380D02*
X70064476Y-97496380D01*
X70493047Y-98496380D01*
X91892285Y-98496380D02*
X91892285Y-97496380D01*
X91320857Y-98496380D02*
X91749428Y-97924952D01*
X91320857Y-97496380D02*
X91892285Y-98067809D01*
X90939904Y-97591619D02*
X90892285Y-97544000D01*
X90797047Y-97496380D01*
X90558952Y-97496380D01*
X90463714Y-97544000D01*
X90416095Y-97591619D01*
X90368476Y-97686857D01*
X90368476Y-97782095D01*
X90416095Y-97924952D01*
X90987523Y-98496380D01*
X90368476Y-98496380D01*
X89797047Y-97924952D02*
X89892285Y-97877333D01*
X89939904Y-97829714D01*
X89987523Y-97734476D01*
X89987523Y-97686857D01*
X89939904Y-97591619D01*
X89892285Y-97544000D01*
X89797047Y-97496380D01*
X89606571Y-97496380D01*
X89511333Y-97544000D01*
X89463714Y-97591619D01*
X89416095Y-97686857D01*
X89416095Y-97734476D01*
X89463714Y-97829714D01*
X89511333Y-97877333D01*
X89606571Y-97924952D01*
X89797047Y-97924952D01*
X89892285Y-97972571D01*
X89939904Y-98020190D01*
X89987523Y-98115428D01*
X89987523Y-98305904D01*
X89939904Y-98401142D01*
X89892285Y-98448761D01*
X89797047Y-98496380D01*
X89606571Y-98496380D01*
X89511333Y-98448761D01*
X89463714Y-98401142D01*
X89416095Y-98305904D01*
X89416095Y-98115428D01*
X89463714Y-98020190D01*
X89511333Y-97972571D01*
X89606571Y-97924952D01*
X110942285Y-98496380D02*
X110942285Y-97496380D01*
X110370857Y-98496380D02*
X110799428Y-97924952D01*
X110370857Y-97496380D02*
X110942285Y-98067809D01*
X109989904Y-97591619D02*
X109942285Y-97544000D01*
X109847047Y-97496380D01*
X109608952Y-97496380D01*
X109513714Y-97544000D01*
X109466095Y-97591619D01*
X109418476Y-97686857D01*
X109418476Y-97782095D01*
X109466095Y-97924952D01*
X110037523Y-98496380D01*
X109418476Y-98496380D01*
X108942285Y-98496380D02*
X108751809Y-98496380D01*
X108656571Y-98448761D01*
X108608952Y-98401142D01*
X108513714Y-98258285D01*
X108466095Y-98067809D01*
X108466095Y-97686857D01*
X108513714Y-97591619D01*
X108561333Y-97544000D01*
X108656571Y-97496380D01*
X108847047Y-97496380D01*
X108942285Y-97544000D01*
X108989904Y-97591619D01*
X109037523Y-97686857D01*
X109037523Y-97924952D01*
X108989904Y-98020190D01*
X108942285Y-98067809D01*
X108847047Y-98115428D01*
X108656571Y-98115428D01*
X108561333Y-98067809D01*
X108513714Y-98020190D01*
X108466095Y-97924952D01*
X130246285Y-97988380D02*
X130246285Y-96988380D01*
X129674857Y-97988380D02*
X130103428Y-97416952D01*
X129674857Y-96988380D02*
X130246285Y-97559809D01*
X129341523Y-96988380D02*
X128722476Y-96988380D01*
X129055809Y-97369333D01*
X128912952Y-97369333D01*
X128817714Y-97416952D01*
X128770095Y-97464571D01*
X128722476Y-97559809D01*
X128722476Y-97797904D01*
X128770095Y-97893142D01*
X128817714Y-97940761D01*
X128912952Y-97988380D01*
X129198666Y-97988380D01*
X129293904Y-97940761D01*
X129341523Y-97893142D01*
X128103428Y-96988380D02*
X128008190Y-96988380D01*
X127912952Y-97036000D01*
X127865333Y-97083619D01*
X127817714Y-97178857D01*
X127770095Y-97369333D01*
X127770095Y-97607428D01*
X127817714Y-97797904D01*
X127865333Y-97893142D01*
X127912952Y-97940761D01*
X128008190Y-97988380D01*
X128103428Y-97988380D01*
X128198666Y-97940761D01*
X128246285Y-97893142D01*
X128293904Y-97797904D01*
X128341523Y-97607428D01*
X128341523Y-97369333D01*
X128293904Y-97178857D01*
X128246285Y-97083619D01*
X128198666Y-97036000D01*
X128103428Y-96988380D01*
X149042285Y-98496380D02*
X149042285Y-97496380D01*
X148470857Y-98496380D02*
X148899428Y-97924952D01*
X148470857Y-97496380D02*
X149042285Y-98067809D01*
X148137523Y-97496380D02*
X147518476Y-97496380D01*
X147851809Y-97877333D01*
X147708952Y-97877333D01*
X147613714Y-97924952D01*
X147566095Y-97972571D01*
X147518476Y-98067809D01*
X147518476Y-98305904D01*
X147566095Y-98401142D01*
X147613714Y-98448761D01*
X147708952Y-98496380D01*
X147994666Y-98496380D01*
X148089904Y-98448761D01*
X148137523Y-98401142D01*
X146566095Y-98496380D02*
X147137523Y-98496380D01*
X146851809Y-98496380D02*
X146851809Y-97496380D01*
X146947047Y-97639238D01*
X147042285Y-97734476D01*
X147137523Y-97782095D01*
X168346285Y-98496380D02*
X168346285Y-97496380D01*
X167774857Y-98496380D02*
X168203428Y-97924952D01*
X167774857Y-97496380D02*
X168346285Y-98067809D01*
X167441523Y-97496380D02*
X166822476Y-97496380D01*
X167155809Y-97877333D01*
X167012952Y-97877333D01*
X166917714Y-97924952D01*
X166870095Y-97972571D01*
X166822476Y-98067809D01*
X166822476Y-98305904D01*
X166870095Y-98401142D01*
X166917714Y-98448761D01*
X167012952Y-98496380D01*
X167298666Y-98496380D01*
X167393904Y-98448761D01*
X167441523Y-98401142D01*
X166441523Y-97591619D02*
X166393904Y-97544000D01*
X166298666Y-97496380D01*
X166060571Y-97496380D01*
X165965333Y-97544000D01*
X165917714Y-97591619D01*
X165870095Y-97686857D01*
X165870095Y-97782095D01*
X165917714Y-97924952D01*
X166489142Y-98496380D01*
X165870095Y-98496380D01*
X187142285Y-98496380D02*
X187142285Y-97496380D01*
X186570857Y-98496380D02*
X186999428Y-97924952D01*
X186570857Y-97496380D02*
X187142285Y-98067809D01*
X186237523Y-97496380D02*
X185618476Y-97496380D01*
X185951809Y-97877333D01*
X185808952Y-97877333D01*
X185713714Y-97924952D01*
X185666095Y-97972571D01*
X185618476Y-98067809D01*
X185618476Y-98305904D01*
X185666095Y-98401142D01*
X185713714Y-98448761D01*
X185808952Y-98496380D01*
X186094666Y-98496380D01*
X186189904Y-98448761D01*
X186237523Y-98401142D01*
X185285142Y-97496380D02*
X184666095Y-97496380D01*
X184999428Y-97877333D01*
X184856571Y-97877333D01*
X184761333Y-97924952D01*
X184713714Y-97972571D01*
X184666095Y-98067809D01*
X184666095Y-98305904D01*
X184713714Y-98401142D01*
X184761333Y-98448761D01*
X184856571Y-98496380D01*
X185142285Y-98496380D01*
X185237523Y-98448761D01*
X185285142Y-98401142D01*
X206192285Y-98496380D02*
X206192285Y-97496380D01*
X205620857Y-98496380D02*
X206049428Y-97924952D01*
X205620857Y-97496380D02*
X206192285Y-98067809D01*
X205287523Y-97496380D02*
X204668476Y-97496380D01*
X205001809Y-97877333D01*
X204858952Y-97877333D01*
X204763714Y-97924952D01*
X204716095Y-97972571D01*
X204668476Y-98067809D01*
X204668476Y-98305904D01*
X204716095Y-98401142D01*
X204763714Y-98448761D01*
X204858952Y-98496380D01*
X205144666Y-98496380D01*
X205239904Y-98448761D01*
X205287523Y-98401142D01*
X203811333Y-97829714D02*
X203811333Y-98496380D01*
X204049428Y-97448761D02*
X204287523Y-98163047D01*
X203668476Y-98163047D01*
X225242285Y-98496380D02*
X225242285Y-97496380D01*
X224670857Y-98496380D02*
X225099428Y-97924952D01*
X224670857Y-97496380D02*
X225242285Y-98067809D01*
X224337523Y-97496380D02*
X223718476Y-97496380D01*
X224051809Y-97877333D01*
X223908952Y-97877333D01*
X223813714Y-97924952D01*
X223766095Y-97972571D01*
X223718476Y-98067809D01*
X223718476Y-98305904D01*
X223766095Y-98401142D01*
X223813714Y-98448761D01*
X223908952Y-98496380D01*
X224194666Y-98496380D01*
X224289904Y-98448761D01*
X224337523Y-98401142D01*
X222813714Y-97496380D02*
X223289904Y-97496380D01*
X223337523Y-97972571D01*
X223289904Y-97924952D01*
X223194666Y-97877333D01*
X222956571Y-97877333D01*
X222861333Y-97924952D01*
X222813714Y-97972571D01*
X222766095Y-98067809D01*
X222766095Y-98305904D01*
X222813714Y-98401142D01*
X222861333Y-98448761D01*
X222956571Y-98496380D01*
X223194666Y-98496380D01*
X223289904Y-98448761D01*
X223337523Y-98401142D01*
X244292285Y-98496380D02*
X244292285Y-97496380D01*
X243720857Y-98496380D02*
X244149428Y-97924952D01*
X243720857Y-97496380D02*
X244292285Y-98067809D01*
X243387523Y-97496380D02*
X242768476Y-97496380D01*
X243101809Y-97877333D01*
X242958952Y-97877333D01*
X242863714Y-97924952D01*
X242816095Y-97972571D01*
X242768476Y-98067809D01*
X242768476Y-98305904D01*
X242816095Y-98401142D01*
X242863714Y-98448761D01*
X242958952Y-98496380D01*
X243244666Y-98496380D01*
X243339904Y-98448761D01*
X243387523Y-98401142D01*
X241911333Y-97496380D02*
X242101809Y-97496380D01*
X242197047Y-97544000D01*
X242244666Y-97591619D01*
X242339904Y-97734476D01*
X242387523Y-97924952D01*
X242387523Y-98305904D01*
X242339904Y-98401142D01*
X242292285Y-98448761D01*
X242197047Y-98496380D01*
X242006571Y-98496380D01*
X241911333Y-98448761D01*
X241863714Y-98401142D01*
X241816095Y-98305904D01*
X241816095Y-98067809D01*
X241863714Y-97972571D01*
X241911333Y-97924952D01*
X242006571Y-97877333D01*
X242197047Y-97877333D01*
X242292285Y-97924952D01*
X242339904Y-97972571D01*
X242387523Y-98067809D01*
X34742285Y-117546380D02*
X34742285Y-116546380D01*
X34170857Y-117546380D02*
X34599428Y-116974952D01*
X34170857Y-116546380D02*
X34742285Y-117117809D01*
X33837523Y-116546380D02*
X33218476Y-116546380D01*
X33551809Y-116927333D01*
X33408952Y-116927333D01*
X33313714Y-116974952D01*
X33266095Y-117022571D01*
X33218476Y-117117809D01*
X33218476Y-117355904D01*
X33266095Y-117451142D01*
X33313714Y-117498761D01*
X33408952Y-117546380D01*
X33694666Y-117546380D01*
X33789904Y-117498761D01*
X33837523Y-117451142D01*
X32885142Y-116546380D02*
X32218476Y-116546380D01*
X32647047Y-117546380D01*
X53792285Y-117546380D02*
X53792285Y-116546380D01*
X53220857Y-117546380D02*
X53649428Y-116974952D01*
X53220857Y-116546380D02*
X53792285Y-117117809D01*
X52887523Y-116546380D02*
X52268476Y-116546380D01*
X52601809Y-116927333D01*
X52458952Y-116927333D01*
X52363714Y-116974952D01*
X52316095Y-117022571D01*
X52268476Y-117117809D01*
X52268476Y-117355904D01*
X52316095Y-117451142D01*
X52363714Y-117498761D01*
X52458952Y-117546380D01*
X52744666Y-117546380D01*
X52839904Y-117498761D01*
X52887523Y-117451142D01*
X51697047Y-116974952D02*
X51792285Y-116927333D01*
X51839904Y-116879714D01*
X51887523Y-116784476D01*
X51887523Y-116736857D01*
X51839904Y-116641619D01*
X51792285Y-116594000D01*
X51697047Y-116546380D01*
X51506571Y-116546380D01*
X51411333Y-116594000D01*
X51363714Y-116641619D01*
X51316095Y-116736857D01*
X51316095Y-116784476D01*
X51363714Y-116879714D01*
X51411333Y-116927333D01*
X51506571Y-116974952D01*
X51697047Y-116974952D01*
X51792285Y-117022571D01*
X51839904Y-117070190D01*
X51887523Y-117165428D01*
X51887523Y-117355904D01*
X51839904Y-117451142D01*
X51792285Y-117498761D01*
X51697047Y-117546380D01*
X51506571Y-117546380D01*
X51411333Y-117498761D01*
X51363714Y-117451142D01*
X51316095Y-117355904D01*
X51316095Y-117165428D01*
X51363714Y-117070190D01*
X51411333Y-117022571D01*
X51506571Y-116974952D01*
X72842285Y-117546380D02*
X72842285Y-116546380D01*
X72270857Y-117546380D02*
X72699428Y-116974952D01*
X72270857Y-116546380D02*
X72842285Y-117117809D01*
X71937523Y-116546380D02*
X71318476Y-116546380D01*
X71651809Y-116927333D01*
X71508952Y-116927333D01*
X71413714Y-116974952D01*
X71366095Y-117022571D01*
X71318476Y-117117809D01*
X71318476Y-117355904D01*
X71366095Y-117451142D01*
X71413714Y-117498761D01*
X71508952Y-117546380D01*
X71794666Y-117546380D01*
X71889904Y-117498761D01*
X71937523Y-117451142D01*
X70842285Y-117546380D02*
X70651809Y-117546380D01*
X70556571Y-117498761D01*
X70508952Y-117451142D01*
X70413714Y-117308285D01*
X70366095Y-117117809D01*
X70366095Y-116736857D01*
X70413714Y-116641619D01*
X70461333Y-116594000D01*
X70556571Y-116546380D01*
X70747047Y-116546380D01*
X70842285Y-116594000D01*
X70889904Y-116641619D01*
X70937523Y-116736857D01*
X70937523Y-116974952D01*
X70889904Y-117070190D01*
X70842285Y-117117809D01*
X70747047Y-117165428D01*
X70556571Y-117165428D01*
X70461333Y-117117809D01*
X70413714Y-117070190D01*
X70366095Y-116974952D01*
X91892285Y-117546380D02*
X91892285Y-116546380D01*
X91320857Y-117546380D02*
X91749428Y-116974952D01*
X91320857Y-116546380D02*
X91892285Y-117117809D01*
X90463714Y-116879714D02*
X90463714Y-117546380D01*
X90701809Y-116498761D02*
X90939904Y-117213047D01*
X90320857Y-117213047D01*
X89749428Y-116546380D02*
X89654190Y-116546380D01*
X89558952Y-116594000D01*
X89511333Y-116641619D01*
X89463714Y-116736857D01*
X89416095Y-116927333D01*
X89416095Y-117165428D01*
X89463714Y-117355904D01*
X89511333Y-117451142D01*
X89558952Y-117498761D01*
X89654190Y-117546380D01*
X89749428Y-117546380D01*
X89844666Y-117498761D01*
X89892285Y-117451142D01*
X89939904Y-117355904D01*
X89987523Y-117165428D01*
X89987523Y-116927333D01*
X89939904Y-116736857D01*
X89892285Y-116641619D01*
X89844666Y-116594000D01*
X89749428Y-116546380D01*
X110942285Y-117546380D02*
X110942285Y-116546380D01*
X110370857Y-117546380D02*
X110799428Y-116974952D01*
X110370857Y-116546380D02*
X110942285Y-117117809D01*
X109513714Y-116879714D02*
X109513714Y-117546380D01*
X109751809Y-116498761D02*
X109989904Y-117213047D01*
X109370857Y-117213047D01*
X108466095Y-117546380D02*
X109037523Y-117546380D01*
X108751809Y-117546380D02*
X108751809Y-116546380D01*
X108847047Y-116689238D01*
X108942285Y-116784476D01*
X109037523Y-116832095D01*
X139644285Y-117546380D02*
X139644285Y-116546380D01*
X139072857Y-117546380D02*
X139501428Y-116974952D01*
X139072857Y-116546380D02*
X139644285Y-117117809D01*
X138215714Y-116879714D02*
X138215714Y-117546380D01*
X138453809Y-116498761D02*
X138691904Y-117213047D01*
X138072857Y-117213047D01*
X137739523Y-116641619D02*
X137691904Y-116594000D01*
X137596666Y-116546380D01*
X137358571Y-116546380D01*
X137263333Y-116594000D01*
X137215714Y-116641619D01*
X137168095Y-116736857D01*
X137168095Y-116832095D01*
X137215714Y-116974952D01*
X137787142Y-117546380D01*
X137168095Y-117546380D01*
X168092285Y-117546380D02*
X168092285Y-116546380D01*
X167520857Y-117546380D02*
X167949428Y-116974952D01*
X167520857Y-116546380D02*
X168092285Y-117117809D01*
X166663714Y-116879714D02*
X166663714Y-117546380D01*
X166901809Y-116498761D02*
X167139904Y-117213047D01*
X166520857Y-117213047D01*
X166235142Y-116546380D02*
X165616095Y-116546380D01*
X165949428Y-116927333D01*
X165806571Y-116927333D01*
X165711333Y-116974952D01*
X165663714Y-117022571D01*
X165616095Y-117117809D01*
X165616095Y-117355904D01*
X165663714Y-117451142D01*
X165711333Y-117498761D01*
X165806571Y-117546380D01*
X166092285Y-117546380D01*
X166187523Y-117498761D01*
X166235142Y-117451142D01*
X187396285Y-117546380D02*
X187396285Y-116546380D01*
X186824857Y-117546380D02*
X187253428Y-116974952D01*
X186824857Y-116546380D02*
X187396285Y-117117809D01*
X185967714Y-116879714D02*
X185967714Y-117546380D01*
X186205809Y-116498761D02*
X186443904Y-117213047D01*
X185824857Y-117213047D01*
X185015333Y-116879714D02*
X185015333Y-117546380D01*
X185253428Y-116498761D02*
X185491523Y-117213047D01*
X184872476Y-117213047D01*
X206192285Y-117546380D02*
X206192285Y-116546380D01*
X205620857Y-117546380D02*
X206049428Y-116974952D01*
X205620857Y-116546380D02*
X206192285Y-117117809D01*
X204763714Y-116879714D02*
X204763714Y-117546380D01*
X205001809Y-116498761D02*
X205239904Y-117213047D01*
X204620857Y-117213047D01*
X203763714Y-116546380D02*
X204239904Y-116546380D01*
X204287523Y-117022571D01*
X204239904Y-116974952D01*
X204144666Y-116927333D01*
X203906571Y-116927333D01*
X203811333Y-116974952D01*
X203763714Y-117022571D01*
X203716095Y-117117809D01*
X203716095Y-117355904D01*
X203763714Y-117451142D01*
X203811333Y-117498761D01*
X203906571Y-117546380D01*
X204144666Y-117546380D01*
X204239904Y-117498761D01*
X204287523Y-117451142D01*
X225242285Y-117546380D02*
X225242285Y-116546380D01*
X224670857Y-117546380D02*
X225099428Y-116974952D01*
X224670857Y-116546380D02*
X225242285Y-117117809D01*
X223813714Y-116879714D02*
X223813714Y-117546380D01*
X224051809Y-116498761D02*
X224289904Y-117213047D01*
X223670857Y-117213047D01*
X222861333Y-116546380D02*
X223051809Y-116546380D01*
X223147047Y-116594000D01*
X223194666Y-116641619D01*
X223289904Y-116784476D01*
X223337523Y-116974952D01*
X223337523Y-117355904D01*
X223289904Y-117451142D01*
X223242285Y-117498761D01*
X223147047Y-117546380D01*
X222956571Y-117546380D01*
X222861333Y-117498761D01*
X222813714Y-117451142D01*
X222766095Y-117355904D01*
X222766095Y-117117809D01*
X222813714Y-117022571D01*
X222861333Y-116974952D01*
X222956571Y-116927333D01*
X223147047Y-116927333D01*
X223242285Y-116974952D01*
X223289904Y-117022571D01*
X223337523Y-117117809D01*
X244292285Y-117546380D02*
X244292285Y-116546380D01*
X243720857Y-117546380D02*
X244149428Y-116974952D01*
X243720857Y-116546380D02*
X244292285Y-117117809D01*
X242863714Y-116879714D02*
X242863714Y-117546380D01*
X243101809Y-116498761D02*
X243339904Y-117213047D01*
X242720857Y-117213047D01*
X242435142Y-116546380D02*
X241768476Y-116546380D01*
X242197047Y-117546380D01*
D10*
X225718666Y-40838380D02*
X226052000Y-40362190D01*
X226290095Y-40838380D02*
X226290095Y-39838380D01*
X225909142Y-39838380D01*
X225813904Y-39886000D01*
X225766285Y-39933619D01*
X225718666Y-40028857D01*
X225718666Y-40171714D01*
X225766285Y-40266952D01*
X225813904Y-40314571D01*
X225909142Y-40362190D01*
X226290095Y-40362190D01*
X224766285Y-40838380D02*
X225337714Y-40838380D01*
X225052000Y-40838380D02*
X225052000Y-39838380D01*
X225147238Y-39981238D01*
X225242476Y-40076476D01*
X225337714Y-40124095D01*
X99226666Y-39060380D02*
X99560000Y-38584190D01*
X99798095Y-39060380D02*
X99798095Y-38060380D01*
X99417142Y-38060380D01*
X99321904Y-38108000D01*
X99274285Y-38155619D01*
X99226666Y-38250857D01*
X99226666Y-38393714D01*
X99274285Y-38488952D01*
X99321904Y-38536571D01*
X99417142Y-38584190D01*
X99798095Y-38584190D01*
X98845714Y-38155619D02*
X98798095Y-38108000D01*
X98702857Y-38060380D01*
X98464761Y-38060380D01*
X98369523Y-38108000D01*
X98321904Y-38155619D01*
X98274285Y-38250857D01*
X98274285Y-38346095D01*
X98321904Y-38488952D01*
X98893333Y-39060380D01*
X98274285Y-39060380D01*
X225718666Y-38806380D02*
X226052000Y-38330190D01*
X226290095Y-38806380D02*
X226290095Y-37806380D01*
X225909142Y-37806380D01*
X225813904Y-37854000D01*
X225766285Y-37901619D01*
X225718666Y-37996857D01*
X225718666Y-38139714D01*
X225766285Y-38234952D01*
X225813904Y-38282571D01*
X225909142Y-38330190D01*
X226290095Y-38330190D01*
X225385333Y-37806380D02*
X224766285Y-37806380D01*
X225099619Y-38187333D01*
X224956761Y-38187333D01*
X224861523Y-38234952D01*
X224813904Y-38282571D01*
X224766285Y-38377809D01*
X224766285Y-38615904D01*
X224813904Y-38711142D01*
X224861523Y-38758761D01*
X224956761Y-38806380D01*
X225242476Y-38806380D01*
X225337714Y-38758761D01*
X225385333Y-38711142D01*
X225718666Y-36774380D02*
X226052000Y-36298190D01*
X226290095Y-36774380D02*
X226290095Y-35774380D01*
X225909142Y-35774380D01*
X225813904Y-35822000D01*
X225766285Y-35869619D01*
X225718666Y-35964857D01*
X225718666Y-36107714D01*
X225766285Y-36202952D01*
X225813904Y-36250571D01*
X225909142Y-36298190D01*
X226290095Y-36298190D01*
X224861523Y-36107714D02*
X224861523Y-36774380D01*
X225099619Y-35726761D02*
X225337714Y-36441047D01*
X224718666Y-36441047D01*
X235521333Y-42314761D02*
X235378476Y-42362380D01*
X235140380Y-42362380D01*
X235045142Y-42314761D01*
X234997523Y-42267142D01*
X234949904Y-42171904D01*
X234949904Y-42076666D01*
X234997523Y-41981428D01*
X235045142Y-41933809D01*
X235140380Y-41886190D01*
X235330857Y-41838571D01*
X235426095Y-41790952D01*
X235473714Y-41743333D01*
X235521333Y-41648095D01*
X235521333Y-41552857D01*
X235473714Y-41457619D01*
X235426095Y-41410000D01*
X235330857Y-41362380D01*
X235092761Y-41362380D01*
X234949904Y-41410000D01*
X234616571Y-41362380D02*
X234378476Y-42362380D01*
X234188000Y-41648095D01*
X233997523Y-42362380D01*
X233759428Y-41362380D01*
X232854666Y-42362380D02*
X233426095Y-42362380D01*
X233140380Y-42362380D02*
X233140380Y-41362380D01*
X233235619Y-41505238D01*
X233330857Y-41600476D01*
X233426095Y-41648095D01*
X64120380Y-41886380D02*
X65120380Y-42553047D01*
X64120380Y-42553047D02*
X65120380Y-41886380D01*
X64120380Y-42791142D02*
X64120380Y-43362571D01*
X65120380Y-43076857D02*
X64120380Y-43076857D01*
X64834666Y-43648285D02*
X64834666Y-44124476D01*
X65120380Y-43553047D02*
X64120380Y-43886380D01*
X65120380Y-44219714D01*
X65120380Y-45029238D02*
X65120380Y-44553047D01*
X64120380Y-44553047D01*
X244546380Y-48601333D02*
X244070190Y-48268000D01*
X244546380Y-48029904D02*
X243546380Y-48029904D01*
X243546380Y-48410857D01*
X243594000Y-48506095D01*
X243641619Y-48553714D01*
X243736857Y-48601333D01*
X243879714Y-48601333D01*
X243974952Y-48553714D01*
X244022571Y-48506095D01*
X244070190Y-48410857D01*
X244070190Y-48029904D01*
X243546380Y-49506095D02*
X243546380Y-49029904D01*
X244022571Y-48982285D01*
X243974952Y-49029904D01*
X243927333Y-49125142D01*
X243927333Y-49363238D01*
X243974952Y-49458476D01*
X244022571Y-49506095D01*
X244117809Y-49553714D01*
X244355904Y-49553714D01*
X244451142Y-49506095D01*
X244498761Y-49458476D01*
X244546380Y-49363238D01*
X244546380Y-49125142D01*
X244498761Y-49029904D01*
X244451142Y-48982285D01*
X242006380Y-48601333D02*
X241530190Y-48268000D01*
X242006380Y-48029904D02*
X241006380Y-48029904D01*
X241006380Y-48410857D01*
X241054000Y-48506095D01*
X241101619Y-48553714D01*
X241196857Y-48601333D01*
X241339714Y-48601333D01*
X241434952Y-48553714D01*
X241482571Y-48506095D01*
X241530190Y-48410857D01*
X241530190Y-48029904D01*
X241006380Y-49458476D02*
X241006380Y-49268000D01*
X241054000Y-49172761D01*
X241101619Y-49125142D01*
X241244476Y-49029904D01*
X241434952Y-48982285D01*
X241815904Y-48982285D01*
X241911142Y-49029904D01*
X241958761Y-49077523D01*
X242006380Y-49172761D01*
X242006380Y-49363238D01*
X241958761Y-49458476D01*
X241911142Y-49506095D01*
X241815904Y-49553714D01*
X241577809Y-49553714D01*
X241482571Y-49506095D01*
X241434952Y-49458476D01*
X241387333Y-49363238D01*
X241387333Y-49172761D01*
X241434952Y-49077523D01*
X241482571Y-49029904D01*
X241577809Y-48982285D01*
M02*
