G04 #@! TF.GenerationSoftware,KiCad,Pcbnew,(5.1.0)-1*
G04 #@! TF.CreationDate,2020-09-20T16:50:51-04:00*
G04 #@! TF.ProjectId,keyboard,6b657962-6f61-4726-942e-6b696361645f,rev?*
G04 #@! TF.SameCoordinates,Original*
G04 #@! TF.FileFunction,Paste,Bot*
G04 #@! TF.FilePolarity,Positive*
%FSLAX46Y46*%
G04 Gerber Fmt 4.6, Leading zero omitted, Abs format (unit mm)*
G04 Created by KiCad (PCBNEW (5.1.0)-1) date 2020-09-20 16:50:51*
%MOMM*%
%LPD*%
G04 APERTURE LIST*
%ADD10C,0.020000*%
%ADD11C,0.975000*%
%ADD12R,0.550000X1.500000*%
%ADD13R,1.500000X0.550000*%
%ADD14R,1.200000X1.200000*%
G04 APERTURE END LIST*
D10*
G36*
X95850142Y-54165174D02*
G01*
X95873803Y-54168684D01*
X95897007Y-54174496D01*
X95919529Y-54182554D01*
X95941153Y-54192782D01*
X95961670Y-54205079D01*
X95980883Y-54219329D01*
X95998607Y-54235393D01*
X96014671Y-54253117D01*
X96028921Y-54272330D01*
X96041218Y-54292847D01*
X96051446Y-54314471D01*
X96059504Y-54336993D01*
X96065316Y-54360197D01*
X96068826Y-54383858D01*
X96070000Y-54407750D01*
X96070000Y-55320250D01*
X96068826Y-55344142D01*
X96065316Y-55367803D01*
X96059504Y-55391007D01*
X96051446Y-55413529D01*
X96041218Y-55435153D01*
X96028921Y-55455670D01*
X96014671Y-55474883D01*
X95998607Y-55492607D01*
X95980883Y-55508671D01*
X95961670Y-55522921D01*
X95941153Y-55535218D01*
X95919529Y-55545446D01*
X95897007Y-55553504D01*
X95873803Y-55559316D01*
X95850142Y-55562826D01*
X95826250Y-55564000D01*
X95338750Y-55564000D01*
X95314858Y-55562826D01*
X95291197Y-55559316D01*
X95267993Y-55553504D01*
X95245471Y-55545446D01*
X95223847Y-55535218D01*
X95203330Y-55522921D01*
X95184117Y-55508671D01*
X95166393Y-55492607D01*
X95150329Y-55474883D01*
X95136079Y-55455670D01*
X95123782Y-55435153D01*
X95113554Y-55413529D01*
X95105496Y-55391007D01*
X95099684Y-55367803D01*
X95096174Y-55344142D01*
X95095000Y-55320250D01*
X95095000Y-54407750D01*
X95096174Y-54383858D01*
X95099684Y-54360197D01*
X95105496Y-54336993D01*
X95113554Y-54314471D01*
X95123782Y-54292847D01*
X95136079Y-54272330D01*
X95150329Y-54253117D01*
X95166393Y-54235393D01*
X95184117Y-54219329D01*
X95203330Y-54205079D01*
X95223847Y-54192782D01*
X95245471Y-54182554D01*
X95267993Y-54174496D01*
X95291197Y-54168684D01*
X95314858Y-54165174D01*
X95338750Y-54164000D01*
X95826250Y-54164000D01*
X95850142Y-54165174D01*
X95850142Y-54165174D01*
G37*
D11*
X95582500Y-54864000D03*
D10*
G36*
X97725142Y-54165174D02*
G01*
X97748803Y-54168684D01*
X97772007Y-54174496D01*
X97794529Y-54182554D01*
X97816153Y-54192782D01*
X97836670Y-54205079D01*
X97855883Y-54219329D01*
X97873607Y-54235393D01*
X97889671Y-54253117D01*
X97903921Y-54272330D01*
X97916218Y-54292847D01*
X97926446Y-54314471D01*
X97934504Y-54336993D01*
X97940316Y-54360197D01*
X97943826Y-54383858D01*
X97945000Y-54407750D01*
X97945000Y-55320250D01*
X97943826Y-55344142D01*
X97940316Y-55367803D01*
X97934504Y-55391007D01*
X97926446Y-55413529D01*
X97916218Y-55435153D01*
X97903921Y-55455670D01*
X97889671Y-55474883D01*
X97873607Y-55492607D01*
X97855883Y-55508671D01*
X97836670Y-55522921D01*
X97816153Y-55535218D01*
X97794529Y-55545446D01*
X97772007Y-55553504D01*
X97748803Y-55559316D01*
X97725142Y-55562826D01*
X97701250Y-55564000D01*
X97213750Y-55564000D01*
X97189858Y-55562826D01*
X97166197Y-55559316D01*
X97142993Y-55553504D01*
X97120471Y-55545446D01*
X97098847Y-55535218D01*
X97078330Y-55522921D01*
X97059117Y-55508671D01*
X97041393Y-55492607D01*
X97025329Y-55474883D01*
X97011079Y-55455670D01*
X96998782Y-55435153D01*
X96988554Y-55413529D01*
X96980496Y-55391007D01*
X96974684Y-55367803D01*
X96971174Y-55344142D01*
X96970000Y-55320250D01*
X96970000Y-54407750D01*
X96971174Y-54383858D01*
X96974684Y-54360197D01*
X96980496Y-54336993D01*
X96988554Y-54314471D01*
X96998782Y-54292847D01*
X97011079Y-54272330D01*
X97025329Y-54253117D01*
X97041393Y-54235393D01*
X97059117Y-54219329D01*
X97078330Y-54205079D01*
X97098847Y-54192782D01*
X97120471Y-54182554D01*
X97142993Y-54174496D01*
X97166197Y-54168684D01*
X97189858Y-54165174D01*
X97213750Y-54164000D01*
X97701250Y-54164000D01*
X97725142Y-54165174D01*
X97725142Y-54165174D01*
G37*
D11*
X97457500Y-54864000D03*
D10*
G36*
X95850142Y-52133174D02*
G01*
X95873803Y-52136684D01*
X95897007Y-52142496D01*
X95919529Y-52150554D01*
X95941153Y-52160782D01*
X95961670Y-52173079D01*
X95980883Y-52187329D01*
X95998607Y-52203393D01*
X96014671Y-52221117D01*
X96028921Y-52240330D01*
X96041218Y-52260847D01*
X96051446Y-52282471D01*
X96059504Y-52304993D01*
X96065316Y-52328197D01*
X96068826Y-52351858D01*
X96070000Y-52375750D01*
X96070000Y-53288250D01*
X96068826Y-53312142D01*
X96065316Y-53335803D01*
X96059504Y-53359007D01*
X96051446Y-53381529D01*
X96041218Y-53403153D01*
X96028921Y-53423670D01*
X96014671Y-53442883D01*
X95998607Y-53460607D01*
X95980883Y-53476671D01*
X95961670Y-53490921D01*
X95941153Y-53503218D01*
X95919529Y-53513446D01*
X95897007Y-53521504D01*
X95873803Y-53527316D01*
X95850142Y-53530826D01*
X95826250Y-53532000D01*
X95338750Y-53532000D01*
X95314858Y-53530826D01*
X95291197Y-53527316D01*
X95267993Y-53521504D01*
X95245471Y-53513446D01*
X95223847Y-53503218D01*
X95203330Y-53490921D01*
X95184117Y-53476671D01*
X95166393Y-53460607D01*
X95150329Y-53442883D01*
X95136079Y-53423670D01*
X95123782Y-53403153D01*
X95113554Y-53381529D01*
X95105496Y-53359007D01*
X95099684Y-53335803D01*
X95096174Y-53312142D01*
X95095000Y-53288250D01*
X95095000Y-52375750D01*
X95096174Y-52351858D01*
X95099684Y-52328197D01*
X95105496Y-52304993D01*
X95113554Y-52282471D01*
X95123782Y-52260847D01*
X95136079Y-52240330D01*
X95150329Y-52221117D01*
X95166393Y-52203393D01*
X95184117Y-52187329D01*
X95203330Y-52173079D01*
X95223847Y-52160782D01*
X95245471Y-52150554D01*
X95267993Y-52142496D01*
X95291197Y-52136684D01*
X95314858Y-52133174D01*
X95338750Y-52132000D01*
X95826250Y-52132000D01*
X95850142Y-52133174D01*
X95850142Y-52133174D01*
G37*
D11*
X95582500Y-52832000D03*
D10*
G36*
X97725142Y-52133174D02*
G01*
X97748803Y-52136684D01*
X97772007Y-52142496D01*
X97794529Y-52150554D01*
X97816153Y-52160782D01*
X97836670Y-52173079D01*
X97855883Y-52187329D01*
X97873607Y-52203393D01*
X97889671Y-52221117D01*
X97903921Y-52240330D01*
X97916218Y-52260847D01*
X97926446Y-52282471D01*
X97934504Y-52304993D01*
X97940316Y-52328197D01*
X97943826Y-52351858D01*
X97945000Y-52375750D01*
X97945000Y-53288250D01*
X97943826Y-53312142D01*
X97940316Y-53335803D01*
X97934504Y-53359007D01*
X97926446Y-53381529D01*
X97916218Y-53403153D01*
X97903921Y-53423670D01*
X97889671Y-53442883D01*
X97873607Y-53460607D01*
X97855883Y-53476671D01*
X97836670Y-53490921D01*
X97816153Y-53503218D01*
X97794529Y-53513446D01*
X97772007Y-53521504D01*
X97748803Y-53527316D01*
X97725142Y-53530826D01*
X97701250Y-53532000D01*
X97213750Y-53532000D01*
X97189858Y-53530826D01*
X97166197Y-53527316D01*
X97142993Y-53521504D01*
X97120471Y-53513446D01*
X97098847Y-53503218D01*
X97078330Y-53490921D01*
X97059117Y-53476671D01*
X97041393Y-53460607D01*
X97025329Y-53442883D01*
X97011079Y-53423670D01*
X96998782Y-53403153D01*
X96988554Y-53381529D01*
X96980496Y-53359007D01*
X96974684Y-53335803D01*
X96971174Y-53312142D01*
X96970000Y-53288250D01*
X96970000Y-52375750D01*
X96971174Y-52351858D01*
X96974684Y-52328197D01*
X96980496Y-52304993D01*
X96988554Y-52282471D01*
X96998782Y-52260847D01*
X97011079Y-52240330D01*
X97025329Y-52221117D01*
X97041393Y-52203393D01*
X97059117Y-52187329D01*
X97078330Y-52173079D01*
X97098847Y-52160782D01*
X97120471Y-52150554D01*
X97142993Y-52142496D01*
X97166197Y-52136684D01*
X97189858Y-52133174D01*
X97213750Y-52132000D01*
X97701250Y-52132000D01*
X97725142Y-52133174D01*
X97725142Y-52133174D01*
G37*
D11*
X97457500Y-52832000D03*
D12*
X81470000Y-48880000D03*
X80670000Y-48880000D03*
X79870000Y-48880000D03*
X79070000Y-48880000D03*
X78270000Y-48880000D03*
X77470000Y-48880000D03*
X76670000Y-48880000D03*
X75870000Y-48880000D03*
X75070000Y-48880000D03*
X74270000Y-48880000D03*
X73470000Y-48880000D03*
D13*
X71770000Y-47180000D03*
X71770000Y-46380000D03*
X71770000Y-45580000D03*
X71770000Y-44780000D03*
X71770000Y-43980000D03*
X71770000Y-43180000D03*
X71770000Y-42380000D03*
X71770000Y-41580000D03*
X71770000Y-40780000D03*
X71770000Y-39980000D03*
X71770000Y-39180000D03*
D12*
X73470000Y-37480000D03*
X74270000Y-37480000D03*
X75070000Y-37480000D03*
X75870000Y-37480000D03*
X76670000Y-37480000D03*
X77470000Y-37480000D03*
X78270000Y-37480000D03*
X79070000Y-37480000D03*
X79870000Y-37480000D03*
X80670000Y-37480000D03*
X81470000Y-37480000D03*
D13*
X83170000Y-39180000D03*
X83170000Y-39980000D03*
X83170000Y-40780000D03*
X83170000Y-41580000D03*
X83170000Y-42380000D03*
X83170000Y-43180000D03*
X83170000Y-43980000D03*
X83170000Y-44780000D03*
X83170000Y-45580000D03*
X83170000Y-46380000D03*
X83170000Y-47180000D03*
D10*
G36*
X97725142Y-39941174D02*
G01*
X97748803Y-39944684D01*
X97772007Y-39950496D01*
X97794529Y-39958554D01*
X97816153Y-39968782D01*
X97836670Y-39981079D01*
X97855883Y-39995329D01*
X97873607Y-40011393D01*
X97889671Y-40029117D01*
X97903921Y-40048330D01*
X97916218Y-40068847D01*
X97926446Y-40090471D01*
X97934504Y-40112993D01*
X97940316Y-40136197D01*
X97943826Y-40159858D01*
X97945000Y-40183750D01*
X97945000Y-41096250D01*
X97943826Y-41120142D01*
X97940316Y-41143803D01*
X97934504Y-41167007D01*
X97926446Y-41189529D01*
X97916218Y-41211153D01*
X97903921Y-41231670D01*
X97889671Y-41250883D01*
X97873607Y-41268607D01*
X97855883Y-41284671D01*
X97836670Y-41298921D01*
X97816153Y-41311218D01*
X97794529Y-41321446D01*
X97772007Y-41329504D01*
X97748803Y-41335316D01*
X97725142Y-41338826D01*
X97701250Y-41340000D01*
X97213750Y-41340000D01*
X97189858Y-41338826D01*
X97166197Y-41335316D01*
X97142993Y-41329504D01*
X97120471Y-41321446D01*
X97098847Y-41311218D01*
X97078330Y-41298921D01*
X97059117Y-41284671D01*
X97041393Y-41268607D01*
X97025329Y-41250883D01*
X97011079Y-41231670D01*
X96998782Y-41211153D01*
X96988554Y-41189529D01*
X96980496Y-41167007D01*
X96974684Y-41143803D01*
X96971174Y-41120142D01*
X96970000Y-41096250D01*
X96970000Y-40183750D01*
X96971174Y-40159858D01*
X96974684Y-40136197D01*
X96980496Y-40112993D01*
X96988554Y-40090471D01*
X96998782Y-40068847D01*
X97011079Y-40048330D01*
X97025329Y-40029117D01*
X97041393Y-40011393D01*
X97059117Y-39995329D01*
X97078330Y-39981079D01*
X97098847Y-39968782D01*
X97120471Y-39958554D01*
X97142993Y-39950496D01*
X97166197Y-39944684D01*
X97189858Y-39941174D01*
X97213750Y-39940000D01*
X97701250Y-39940000D01*
X97725142Y-39941174D01*
X97725142Y-39941174D01*
G37*
D11*
X97457500Y-40640000D03*
D10*
G36*
X95850142Y-39941174D02*
G01*
X95873803Y-39944684D01*
X95897007Y-39950496D01*
X95919529Y-39958554D01*
X95941153Y-39968782D01*
X95961670Y-39981079D01*
X95980883Y-39995329D01*
X95998607Y-40011393D01*
X96014671Y-40029117D01*
X96028921Y-40048330D01*
X96041218Y-40068847D01*
X96051446Y-40090471D01*
X96059504Y-40112993D01*
X96065316Y-40136197D01*
X96068826Y-40159858D01*
X96070000Y-40183750D01*
X96070000Y-41096250D01*
X96068826Y-41120142D01*
X96065316Y-41143803D01*
X96059504Y-41167007D01*
X96051446Y-41189529D01*
X96041218Y-41211153D01*
X96028921Y-41231670D01*
X96014671Y-41250883D01*
X95998607Y-41268607D01*
X95980883Y-41284671D01*
X95961670Y-41298921D01*
X95941153Y-41311218D01*
X95919529Y-41321446D01*
X95897007Y-41329504D01*
X95873803Y-41335316D01*
X95850142Y-41338826D01*
X95826250Y-41340000D01*
X95338750Y-41340000D01*
X95314858Y-41338826D01*
X95291197Y-41335316D01*
X95267993Y-41329504D01*
X95245471Y-41321446D01*
X95223847Y-41311218D01*
X95203330Y-41298921D01*
X95184117Y-41284671D01*
X95166393Y-41268607D01*
X95150329Y-41250883D01*
X95136079Y-41231670D01*
X95123782Y-41211153D01*
X95113554Y-41189529D01*
X95105496Y-41167007D01*
X95099684Y-41143803D01*
X95096174Y-41120142D01*
X95095000Y-41096250D01*
X95095000Y-40183750D01*
X95096174Y-40159858D01*
X95099684Y-40136197D01*
X95105496Y-40112993D01*
X95113554Y-40090471D01*
X95123782Y-40068847D01*
X95136079Y-40048330D01*
X95150329Y-40029117D01*
X95166393Y-40011393D01*
X95184117Y-39995329D01*
X95203330Y-39981079D01*
X95223847Y-39968782D01*
X95245471Y-39958554D01*
X95267993Y-39950496D01*
X95291197Y-39944684D01*
X95314858Y-39941174D01*
X95338750Y-39940000D01*
X95826250Y-39940000D01*
X95850142Y-39941174D01*
X95850142Y-39941174D01*
G37*
D11*
X95582500Y-40640000D03*
D10*
G36*
X62830142Y-39941174D02*
G01*
X62853803Y-39944684D01*
X62877007Y-39950496D01*
X62899529Y-39958554D01*
X62921153Y-39968782D01*
X62941670Y-39981079D01*
X62960883Y-39995329D01*
X62978607Y-40011393D01*
X62994671Y-40029117D01*
X63008921Y-40048330D01*
X63021218Y-40068847D01*
X63031446Y-40090471D01*
X63039504Y-40112993D01*
X63045316Y-40136197D01*
X63048826Y-40159858D01*
X63050000Y-40183750D01*
X63050000Y-41096250D01*
X63048826Y-41120142D01*
X63045316Y-41143803D01*
X63039504Y-41167007D01*
X63031446Y-41189529D01*
X63021218Y-41211153D01*
X63008921Y-41231670D01*
X62994671Y-41250883D01*
X62978607Y-41268607D01*
X62960883Y-41284671D01*
X62941670Y-41298921D01*
X62921153Y-41311218D01*
X62899529Y-41321446D01*
X62877007Y-41329504D01*
X62853803Y-41335316D01*
X62830142Y-41338826D01*
X62806250Y-41340000D01*
X62318750Y-41340000D01*
X62294858Y-41338826D01*
X62271197Y-41335316D01*
X62247993Y-41329504D01*
X62225471Y-41321446D01*
X62203847Y-41311218D01*
X62183330Y-41298921D01*
X62164117Y-41284671D01*
X62146393Y-41268607D01*
X62130329Y-41250883D01*
X62116079Y-41231670D01*
X62103782Y-41211153D01*
X62093554Y-41189529D01*
X62085496Y-41167007D01*
X62079684Y-41143803D01*
X62076174Y-41120142D01*
X62075000Y-41096250D01*
X62075000Y-40183750D01*
X62076174Y-40159858D01*
X62079684Y-40136197D01*
X62085496Y-40112993D01*
X62093554Y-40090471D01*
X62103782Y-40068847D01*
X62116079Y-40048330D01*
X62130329Y-40029117D01*
X62146393Y-40011393D01*
X62164117Y-39995329D01*
X62183330Y-39981079D01*
X62203847Y-39968782D01*
X62225471Y-39958554D01*
X62247993Y-39950496D01*
X62271197Y-39944684D01*
X62294858Y-39941174D01*
X62318750Y-39940000D01*
X62806250Y-39940000D01*
X62830142Y-39941174D01*
X62830142Y-39941174D01*
G37*
D11*
X62562500Y-40640000D03*
D10*
G36*
X64705142Y-39941174D02*
G01*
X64728803Y-39944684D01*
X64752007Y-39950496D01*
X64774529Y-39958554D01*
X64796153Y-39968782D01*
X64816670Y-39981079D01*
X64835883Y-39995329D01*
X64853607Y-40011393D01*
X64869671Y-40029117D01*
X64883921Y-40048330D01*
X64896218Y-40068847D01*
X64906446Y-40090471D01*
X64914504Y-40112993D01*
X64920316Y-40136197D01*
X64923826Y-40159858D01*
X64925000Y-40183750D01*
X64925000Y-41096250D01*
X64923826Y-41120142D01*
X64920316Y-41143803D01*
X64914504Y-41167007D01*
X64906446Y-41189529D01*
X64896218Y-41211153D01*
X64883921Y-41231670D01*
X64869671Y-41250883D01*
X64853607Y-41268607D01*
X64835883Y-41284671D01*
X64816670Y-41298921D01*
X64796153Y-41311218D01*
X64774529Y-41321446D01*
X64752007Y-41329504D01*
X64728803Y-41335316D01*
X64705142Y-41338826D01*
X64681250Y-41340000D01*
X64193750Y-41340000D01*
X64169858Y-41338826D01*
X64146197Y-41335316D01*
X64122993Y-41329504D01*
X64100471Y-41321446D01*
X64078847Y-41311218D01*
X64058330Y-41298921D01*
X64039117Y-41284671D01*
X64021393Y-41268607D01*
X64005329Y-41250883D01*
X63991079Y-41231670D01*
X63978782Y-41211153D01*
X63968554Y-41189529D01*
X63960496Y-41167007D01*
X63954684Y-41143803D01*
X63951174Y-41120142D01*
X63950000Y-41096250D01*
X63950000Y-40183750D01*
X63951174Y-40159858D01*
X63954684Y-40136197D01*
X63960496Y-40112993D01*
X63968554Y-40090471D01*
X63978782Y-40068847D01*
X63991079Y-40048330D01*
X64005329Y-40029117D01*
X64021393Y-40011393D01*
X64039117Y-39995329D01*
X64058330Y-39981079D01*
X64078847Y-39968782D01*
X64100471Y-39958554D01*
X64122993Y-39950496D01*
X64146197Y-39944684D01*
X64169858Y-39941174D01*
X64193750Y-39940000D01*
X64681250Y-39940000D01*
X64705142Y-39941174D01*
X64705142Y-39941174D01*
G37*
D11*
X64437500Y-40640000D03*
D10*
G36*
X64705142Y-45529174D02*
G01*
X64728803Y-45532684D01*
X64752007Y-45538496D01*
X64774529Y-45546554D01*
X64796153Y-45556782D01*
X64816670Y-45569079D01*
X64835883Y-45583329D01*
X64853607Y-45599393D01*
X64869671Y-45617117D01*
X64883921Y-45636330D01*
X64896218Y-45656847D01*
X64906446Y-45678471D01*
X64914504Y-45700993D01*
X64920316Y-45724197D01*
X64923826Y-45747858D01*
X64925000Y-45771750D01*
X64925000Y-46684250D01*
X64923826Y-46708142D01*
X64920316Y-46731803D01*
X64914504Y-46755007D01*
X64906446Y-46777529D01*
X64896218Y-46799153D01*
X64883921Y-46819670D01*
X64869671Y-46838883D01*
X64853607Y-46856607D01*
X64835883Y-46872671D01*
X64816670Y-46886921D01*
X64796153Y-46899218D01*
X64774529Y-46909446D01*
X64752007Y-46917504D01*
X64728803Y-46923316D01*
X64705142Y-46926826D01*
X64681250Y-46928000D01*
X64193750Y-46928000D01*
X64169858Y-46926826D01*
X64146197Y-46923316D01*
X64122993Y-46917504D01*
X64100471Y-46909446D01*
X64078847Y-46899218D01*
X64058330Y-46886921D01*
X64039117Y-46872671D01*
X64021393Y-46856607D01*
X64005329Y-46838883D01*
X63991079Y-46819670D01*
X63978782Y-46799153D01*
X63968554Y-46777529D01*
X63960496Y-46755007D01*
X63954684Y-46731803D01*
X63951174Y-46708142D01*
X63950000Y-46684250D01*
X63950000Y-45771750D01*
X63951174Y-45747858D01*
X63954684Y-45724197D01*
X63960496Y-45700993D01*
X63968554Y-45678471D01*
X63978782Y-45656847D01*
X63991079Y-45636330D01*
X64005329Y-45617117D01*
X64021393Y-45599393D01*
X64039117Y-45583329D01*
X64058330Y-45569079D01*
X64078847Y-45556782D01*
X64100471Y-45546554D01*
X64122993Y-45538496D01*
X64146197Y-45532684D01*
X64169858Y-45529174D01*
X64193750Y-45528000D01*
X64681250Y-45528000D01*
X64705142Y-45529174D01*
X64705142Y-45529174D01*
G37*
D11*
X64437500Y-46228000D03*
D10*
G36*
X62830142Y-45529174D02*
G01*
X62853803Y-45532684D01*
X62877007Y-45538496D01*
X62899529Y-45546554D01*
X62921153Y-45556782D01*
X62941670Y-45569079D01*
X62960883Y-45583329D01*
X62978607Y-45599393D01*
X62994671Y-45617117D01*
X63008921Y-45636330D01*
X63021218Y-45656847D01*
X63031446Y-45678471D01*
X63039504Y-45700993D01*
X63045316Y-45724197D01*
X63048826Y-45747858D01*
X63050000Y-45771750D01*
X63050000Y-46684250D01*
X63048826Y-46708142D01*
X63045316Y-46731803D01*
X63039504Y-46755007D01*
X63031446Y-46777529D01*
X63021218Y-46799153D01*
X63008921Y-46819670D01*
X62994671Y-46838883D01*
X62978607Y-46856607D01*
X62960883Y-46872671D01*
X62941670Y-46886921D01*
X62921153Y-46899218D01*
X62899529Y-46909446D01*
X62877007Y-46917504D01*
X62853803Y-46923316D01*
X62830142Y-46926826D01*
X62806250Y-46928000D01*
X62318750Y-46928000D01*
X62294858Y-46926826D01*
X62271197Y-46923316D01*
X62247993Y-46917504D01*
X62225471Y-46909446D01*
X62203847Y-46899218D01*
X62183330Y-46886921D01*
X62164117Y-46872671D01*
X62146393Y-46856607D01*
X62130329Y-46838883D01*
X62116079Y-46819670D01*
X62103782Y-46799153D01*
X62093554Y-46777529D01*
X62085496Y-46755007D01*
X62079684Y-46731803D01*
X62076174Y-46708142D01*
X62075000Y-46684250D01*
X62075000Y-45771750D01*
X62076174Y-45747858D01*
X62079684Y-45724197D01*
X62085496Y-45700993D01*
X62093554Y-45678471D01*
X62103782Y-45656847D01*
X62116079Y-45636330D01*
X62130329Y-45617117D01*
X62146393Y-45599393D01*
X62164117Y-45583329D01*
X62183330Y-45569079D01*
X62203847Y-45556782D01*
X62225471Y-45546554D01*
X62247993Y-45538496D01*
X62271197Y-45532684D01*
X62294858Y-45529174D01*
X62318750Y-45528000D01*
X62806250Y-45528000D01*
X62830142Y-45529174D01*
X62830142Y-45529174D01*
G37*
D11*
X62562500Y-46228000D03*
D10*
G36*
X95850142Y-41973174D02*
G01*
X95873803Y-41976684D01*
X95897007Y-41982496D01*
X95919529Y-41990554D01*
X95941153Y-42000782D01*
X95961670Y-42013079D01*
X95980883Y-42027329D01*
X95998607Y-42043393D01*
X96014671Y-42061117D01*
X96028921Y-42080330D01*
X96041218Y-42100847D01*
X96051446Y-42122471D01*
X96059504Y-42144993D01*
X96065316Y-42168197D01*
X96068826Y-42191858D01*
X96070000Y-42215750D01*
X96070000Y-43128250D01*
X96068826Y-43152142D01*
X96065316Y-43175803D01*
X96059504Y-43199007D01*
X96051446Y-43221529D01*
X96041218Y-43243153D01*
X96028921Y-43263670D01*
X96014671Y-43282883D01*
X95998607Y-43300607D01*
X95980883Y-43316671D01*
X95961670Y-43330921D01*
X95941153Y-43343218D01*
X95919529Y-43353446D01*
X95897007Y-43361504D01*
X95873803Y-43367316D01*
X95850142Y-43370826D01*
X95826250Y-43372000D01*
X95338750Y-43372000D01*
X95314858Y-43370826D01*
X95291197Y-43367316D01*
X95267993Y-43361504D01*
X95245471Y-43353446D01*
X95223847Y-43343218D01*
X95203330Y-43330921D01*
X95184117Y-43316671D01*
X95166393Y-43300607D01*
X95150329Y-43282883D01*
X95136079Y-43263670D01*
X95123782Y-43243153D01*
X95113554Y-43221529D01*
X95105496Y-43199007D01*
X95099684Y-43175803D01*
X95096174Y-43152142D01*
X95095000Y-43128250D01*
X95095000Y-42215750D01*
X95096174Y-42191858D01*
X95099684Y-42168197D01*
X95105496Y-42144993D01*
X95113554Y-42122471D01*
X95123782Y-42100847D01*
X95136079Y-42080330D01*
X95150329Y-42061117D01*
X95166393Y-42043393D01*
X95184117Y-42027329D01*
X95203330Y-42013079D01*
X95223847Y-42000782D01*
X95245471Y-41990554D01*
X95267993Y-41982496D01*
X95291197Y-41976684D01*
X95314858Y-41973174D01*
X95338750Y-41972000D01*
X95826250Y-41972000D01*
X95850142Y-41973174D01*
X95850142Y-41973174D01*
G37*
D11*
X95582500Y-42672000D03*
D10*
G36*
X97725142Y-41973174D02*
G01*
X97748803Y-41976684D01*
X97772007Y-41982496D01*
X97794529Y-41990554D01*
X97816153Y-42000782D01*
X97836670Y-42013079D01*
X97855883Y-42027329D01*
X97873607Y-42043393D01*
X97889671Y-42061117D01*
X97903921Y-42080330D01*
X97916218Y-42100847D01*
X97926446Y-42122471D01*
X97934504Y-42144993D01*
X97940316Y-42168197D01*
X97943826Y-42191858D01*
X97945000Y-42215750D01*
X97945000Y-43128250D01*
X97943826Y-43152142D01*
X97940316Y-43175803D01*
X97934504Y-43199007D01*
X97926446Y-43221529D01*
X97916218Y-43243153D01*
X97903921Y-43263670D01*
X97889671Y-43282883D01*
X97873607Y-43300607D01*
X97855883Y-43316671D01*
X97836670Y-43330921D01*
X97816153Y-43343218D01*
X97794529Y-43353446D01*
X97772007Y-43361504D01*
X97748803Y-43367316D01*
X97725142Y-43370826D01*
X97701250Y-43372000D01*
X97213750Y-43372000D01*
X97189858Y-43370826D01*
X97166197Y-43367316D01*
X97142993Y-43361504D01*
X97120471Y-43353446D01*
X97098847Y-43343218D01*
X97078330Y-43330921D01*
X97059117Y-43316671D01*
X97041393Y-43300607D01*
X97025329Y-43282883D01*
X97011079Y-43263670D01*
X96998782Y-43243153D01*
X96988554Y-43221529D01*
X96980496Y-43199007D01*
X96974684Y-43175803D01*
X96971174Y-43152142D01*
X96970000Y-43128250D01*
X96970000Y-42215750D01*
X96971174Y-42191858D01*
X96974684Y-42168197D01*
X96980496Y-42144993D01*
X96988554Y-42122471D01*
X96998782Y-42100847D01*
X97011079Y-42080330D01*
X97025329Y-42061117D01*
X97041393Y-42043393D01*
X97059117Y-42027329D01*
X97078330Y-42013079D01*
X97098847Y-42000782D01*
X97120471Y-41990554D01*
X97142993Y-41982496D01*
X97166197Y-41976684D01*
X97189858Y-41973174D01*
X97213750Y-41972000D01*
X97701250Y-41972000D01*
X97725142Y-41973174D01*
X97725142Y-41973174D01*
G37*
D11*
X97457500Y-42672000D03*
D10*
G36*
X97725142Y-44005174D02*
G01*
X97748803Y-44008684D01*
X97772007Y-44014496D01*
X97794529Y-44022554D01*
X97816153Y-44032782D01*
X97836670Y-44045079D01*
X97855883Y-44059329D01*
X97873607Y-44075393D01*
X97889671Y-44093117D01*
X97903921Y-44112330D01*
X97916218Y-44132847D01*
X97926446Y-44154471D01*
X97934504Y-44176993D01*
X97940316Y-44200197D01*
X97943826Y-44223858D01*
X97945000Y-44247750D01*
X97945000Y-45160250D01*
X97943826Y-45184142D01*
X97940316Y-45207803D01*
X97934504Y-45231007D01*
X97926446Y-45253529D01*
X97916218Y-45275153D01*
X97903921Y-45295670D01*
X97889671Y-45314883D01*
X97873607Y-45332607D01*
X97855883Y-45348671D01*
X97836670Y-45362921D01*
X97816153Y-45375218D01*
X97794529Y-45385446D01*
X97772007Y-45393504D01*
X97748803Y-45399316D01*
X97725142Y-45402826D01*
X97701250Y-45404000D01*
X97213750Y-45404000D01*
X97189858Y-45402826D01*
X97166197Y-45399316D01*
X97142993Y-45393504D01*
X97120471Y-45385446D01*
X97098847Y-45375218D01*
X97078330Y-45362921D01*
X97059117Y-45348671D01*
X97041393Y-45332607D01*
X97025329Y-45314883D01*
X97011079Y-45295670D01*
X96998782Y-45275153D01*
X96988554Y-45253529D01*
X96980496Y-45231007D01*
X96974684Y-45207803D01*
X96971174Y-45184142D01*
X96970000Y-45160250D01*
X96970000Y-44247750D01*
X96971174Y-44223858D01*
X96974684Y-44200197D01*
X96980496Y-44176993D01*
X96988554Y-44154471D01*
X96998782Y-44132847D01*
X97011079Y-44112330D01*
X97025329Y-44093117D01*
X97041393Y-44075393D01*
X97059117Y-44059329D01*
X97078330Y-44045079D01*
X97098847Y-44032782D01*
X97120471Y-44022554D01*
X97142993Y-44014496D01*
X97166197Y-44008684D01*
X97189858Y-44005174D01*
X97213750Y-44004000D01*
X97701250Y-44004000D01*
X97725142Y-44005174D01*
X97725142Y-44005174D01*
G37*
D11*
X97457500Y-44704000D03*
D10*
G36*
X95850142Y-44005174D02*
G01*
X95873803Y-44008684D01*
X95897007Y-44014496D01*
X95919529Y-44022554D01*
X95941153Y-44032782D01*
X95961670Y-44045079D01*
X95980883Y-44059329D01*
X95998607Y-44075393D01*
X96014671Y-44093117D01*
X96028921Y-44112330D01*
X96041218Y-44132847D01*
X96051446Y-44154471D01*
X96059504Y-44176993D01*
X96065316Y-44200197D01*
X96068826Y-44223858D01*
X96070000Y-44247750D01*
X96070000Y-45160250D01*
X96068826Y-45184142D01*
X96065316Y-45207803D01*
X96059504Y-45231007D01*
X96051446Y-45253529D01*
X96041218Y-45275153D01*
X96028921Y-45295670D01*
X96014671Y-45314883D01*
X95998607Y-45332607D01*
X95980883Y-45348671D01*
X95961670Y-45362921D01*
X95941153Y-45375218D01*
X95919529Y-45385446D01*
X95897007Y-45393504D01*
X95873803Y-45399316D01*
X95850142Y-45402826D01*
X95826250Y-45404000D01*
X95338750Y-45404000D01*
X95314858Y-45402826D01*
X95291197Y-45399316D01*
X95267993Y-45393504D01*
X95245471Y-45385446D01*
X95223847Y-45375218D01*
X95203330Y-45362921D01*
X95184117Y-45348671D01*
X95166393Y-45332607D01*
X95150329Y-45314883D01*
X95136079Y-45295670D01*
X95123782Y-45275153D01*
X95113554Y-45253529D01*
X95105496Y-45231007D01*
X95099684Y-45207803D01*
X95096174Y-45184142D01*
X95095000Y-45160250D01*
X95095000Y-44247750D01*
X95096174Y-44223858D01*
X95099684Y-44200197D01*
X95105496Y-44176993D01*
X95113554Y-44154471D01*
X95123782Y-44132847D01*
X95136079Y-44112330D01*
X95150329Y-44093117D01*
X95166393Y-44075393D01*
X95184117Y-44059329D01*
X95203330Y-44045079D01*
X95223847Y-44032782D01*
X95245471Y-44022554D01*
X95267993Y-44014496D01*
X95291197Y-44008684D01*
X95314858Y-44005174D01*
X95338750Y-44004000D01*
X95826250Y-44004000D01*
X95850142Y-44005174D01*
X95850142Y-44005174D01*
G37*
D11*
X95582500Y-44704000D03*
D10*
G36*
X95850142Y-46037174D02*
G01*
X95873803Y-46040684D01*
X95897007Y-46046496D01*
X95919529Y-46054554D01*
X95941153Y-46064782D01*
X95961670Y-46077079D01*
X95980883Y-46091329D01*
X95998607Y-46107393D01*
X96014671Y-46125117D01*
X96028921Y-46144330D01*
X96041218Y-46164847D01*
X96051446Y-46186471D01*
X96059504Y-46208993D01*
X96065316Y-46232197D01*
X96068826Y-46255858D01*
X96070000Y-46279750D01*
X96070000Y-47192250D01*
X96068826Y-47216142D01*
X96065316Y-47239803D01*
X96059504Y-47263007D01*
X96051446Y-47285529D01*
X96041218Y-47307153D01*
X96028921Y-47327670D01*
X96014671Y-47346883D01*
X95998607Y-47364607D01*
X95980883Y-47380671D01*
X95961670Y-47394921D01*
X95941153Y-47407218D01*
X95919529Y-47417446D01*
X95897007Y-47425504D01*
X95873803Y-47431316D01*
X95850142Y-47434826D01*
X95826250Y-47436000D01*
X95338750Y-47436000D01*
X95314858Y-47434826D01*
X95291197Y-47431316D01*
X95267993Y-47425504D01*
X95245471Y-47417446D01*
X95223847Y-47407218D01*
X95203330Y-47394921D01*
X95184117Y-47380671D01*
X95166393Y-47364607D01*
X95150329Y-47346883D01*
X95136079Y-47327670D01*
X95123782Y-47307153D01*
X95113554Y-47285529D01*
X95105496Y-47263007D01*
X95099684Y-47239803D01*
X95096174Y-47216142D01*
X95095000Y-47192250D01*
X95095000Y-46279750D01*
X95096174Y-46255858D01*
X95099684Y-46232197D01*
X95105496Y-46208993D01*
X95113554Y-46186471D01*
X95123782Y-46164847D01*
X95136079Y-46144330D01*
X95150329Y-46125117D01*
X95166393Y-46107393D01*
X95184117Y-46091329D01*
X95203330Y-46077079D01*
X95223847Y-46064782D01*
X95245471Y-46054554D01*
X95267993Y-46046496D01*
X95291197Y-46040684D01*
X95314858Y-46037174D01*
X95338750Y-46036000D01*
X95826250Y-46036000D01*
X95850142Y-46037174D01*
X95850142Y-46037174D01*
G37*
D11*
X95582500Y-46736000D03*
D10*
G36*
X97725142Y-46037174D02*
G01*
X97748803Y-46040684D01*
X97772007Y-46046496D01*
X97794529Y-46054554D01*
X97816153Y-46064782D01*
X97836670Y-46077079D01*
X97855883Y-46091329D01*
X97873607Y-46107393D01*
X97889671Y-46125117D01*
X97903921Y-46144330D01*
X97916218Y-46164847D01*
X97926446Y-46186471D01*
X97934504Y-46208993D01*
X97940316Y-46232197D01*
X97943826Y-46255858D01*
X97945000Y-46279750D01*
X97945000Y-47192250D01*
X97943826Y-47216142D01*
X97940316Y-47239803D01*
X97934504Y-47263007D01*
X97926446Y-47285529D01*
X97916218Y-47307153D01*
X97903921Y-47327670D01*
X97889671Y-47346883D01*
X97873607Y-47364607D01*
X97855883Y-47380671D01*
X97836670Y-47394921D01*
X97816153Y-47407218D01*
X97794529Y-47417446D01*
X97772007Y-47425504D01*
X97748803Y-47431316D01*
X97725142Y-47434826D01*
X97701250Y-47436000D01*
X97213750Y-47436000D01*
X97189858Y-47434826D01*
X97166197Y-47431316D01*
X97142993Y-47425504D01*
X97120471Y-47417446D01*
X97098847Y-47407218D01*
X97078330Y-47394921D01*
X97059117Y-47380671D01*
X97041393Y-47364607D01*
X97025329Y-47346883D01*
X97011079Y-47327670D01*
X96998782Y-47307153D01*
X96988554Y-47285529D01*
X96980496Y-47263007D01*
X96974684Y-47239803D01*
X96971174Y-47216142D01*
X96970000Y-47192250D01*
X96970000Y-46279750D01*
X96971174Y-46255858D01*
X96974684Y-46232197D01*
X96980496Y-46208993D01*
X96988554Y-46186471D01*
X96998782Y-46164847D01*
X97011079Y-46144330D01*
X97025329Y-46125117D01*
X97041393Y-46107393D01*
X97059117Y-46091329D01*
X97078330Y-46077079D01*
X97098847Y-46064782D01*
X97120471Y-46054554D01*
X97142993Y-46046496D01*
X97166197Y-46040684D01*
X97189858Y-46037174D01*
X97213750Y-46036000D01*
X97701250Y-46036000D01*
X97725142Y-46037174D01*
X97725142Y-46037174D01*
G37*
D11*
X97457500Y-46736000D03*
D10*
G36*
X97725142Y-48069174D02*
G01*
X97748803Y-48072684D01*
X97772007Y-48078496D01*
X97794529Y-48086554D01*
X97816153Y-48096782D01*
X97836670Y-48109079D01*
X97855883Y-48123329D01*
X97873607Y-48139393D01*
X97889671Y-48157117D01*
X97903921Y-48176330D01*
X97916218Y-48196847D01*
X97926446Y-48218471D01*
X97934504Y-48240993D01*
X97940316Y-48264197D01*
X97943826Y-48287858D01*
X97945000Y-48311750D01*
X97945000Y-49224250D01*
X97943826Y-49248142D01*
X97940316Y-49271803D01*
X97934504Y-49295007D01*
X97926446Y-49317529D01*
X97916218Y-49339153D01*
X97903921Y-49359670D01*
X97889671Y-49378883D01*
X97873607Y-49396607D01*
X97855883Y-49412671D01*
X97836670Y-49426921D01*
X97816153Y-49439218D01*
X97794529Y-49449446D01*
X97772007Y-49457504D01*
X97748803Y-49463316D01*
X97725142Y-49466826D01*
X97701250Y-49468000D01*
X97213750Y-49468000D01*
X97189858Y-49466826D01*
X97166197Y-49463316D01*
X97142993Y-49457504D01*
X97120471Y-49449446D01*
X97098847Y-49439218D01*
X97078330Y-49426921D01*
X97059117Y-49412671D01*
X97041393Y-49396607D01*
X97025329Y-49378883D01*
X97011079Y-49359670D01*
X96998782Y-49339153D01*
X96988554Y-49317529D01*
X96980496Y-49295007D01*
X96974684Y-49271803D01*
X96971174Y-49248142D01*
X96970000Y-49224250D01*
X96970000Y-48311750D01*
X96971174Y-48287858D01*
X96974684Y-48264197D01*
X96980496Y-48240993D01*
X96988554Y-48218471D01*
X96998782Y-48196847D01*
X97011079Y-48176330D01*
X97025329Y-48157117D01*
X97041393Y-48139393D01*
X97059117Y-48123329D01*
X97078330Y-48109079D01*
X97098847Y-48096782D01*
X97120471Y-48086554D01*
X97142993Y-48078496D01*
X97166197Y-48072684D01*
X97189858Y-48069174D01*
X97213750Y-48068000D01*
X97701250Y-48068000D01*
X97725142Y-48069174D01*
X97725142Y-48069174D01*
G37*
D11*
X97457500Y-48768000D03*
D10*
G36*
X95850142Y-48069174D02*
G01*
X95873803Y-48072684D01*
X95897007Y-48078496D01*
X95919529Y-48086554D01*
X95941153Y-48096782D01*
X95961670Y-48109079D01*
X95980883Y-48123329D01*
X95998607Y-48139393D01*
X96014671Y-48157117D01*
X96028921Y-48176330D01*
X96041218Y-48196847D01*
X96051446Y-48218471D01*
X96059504Y-48240993D01*
X96065316Y-48264197D01*
X96068826Y-48287858D01*
X96070000Y-48311750D01*
X96070000Y-49224250D01*
X96068826Y-49248142D01*
X96065316Y-49271803D01*
X96059504Y-49295007D01*
X96051446Y-49317529D01*
X96041218Y-49339153D01*
X96028921Y-49359670D01*
X96014671Y-49378883D01*
X95998607Y-49396607D01*
X95980883Y-49412671D01*
X95961670Y-49426921D01*
X95941153Y-49439218D01*
X95919529Y-49449446D01*
X95897007Y-49457504D01*
X95873803Y-49463316D01*
X95850142Y-49466826D01*
X95826250Y-49468000D01*
X95338750Y-49468000D01*
X95314858Y-49466826D01*
X95291197Y-49463316D01*
X95267993Y-49457504D01*
X95245471Y-49449446D01*
X95223847Y-49439218D01*
X95203330Y-49426921D01*
X95184117Y-49412671D01*
X95166393Y-49396607D01*
X95150329Y-49378883D01*
X95136079Y-49359670D01*
X95123782Y-49339153D01*
X95113554Y-49317529D01*
X95105496Y-49295007D01*
X95099684Y-49271803D01*
X95096174Y-49248142D01*
X95095000Y-49224250D01*
X95095000Y-48311750D01*
X95096174Y-48287858D01*
X95099684Y-48264197D01*
X95105496Y-48240993D01*
X95113554Y-48218471D01*
X95123782Y-48196847D01*
X95136079Y-48176330D01*
X95150329Y-48157117D01*
X95166393Y-48139393D01*
X95184117Y-48123329D01*
X95203330Y-48109079D01*
X95223847Y-48096782D01*
X95245471Y-48086554D01*
X95267993Y-48078496D01*
X95291197Y-48072684D01*
X95314858Y-48069174D01*
X95338750Y-48068000D01*
X95826250Y-48068000D01*
X95850142Y-48069174D01*
X95850142Y-48069174D01*
G37*
D11*
X95582500Y-48768000D03*
D10*
G36*
X97725142Y-50101174D02*
G01*
X97748803Y-50104684D01*
X97772007Y-50110496D01*
X97794529Y-50118554D01*
X97816153Y-50128782D01*
X97836670Y-50141079D01*
X97855883Y-50155329D01*
X97873607Y-50171393D01*
X97889671Y-50189117D01*
X97903921Y-50208330D01*
X97916218Y-50228847D01*
X97926446Y-50250471D01*
X97934504Y-50272993D01*
X97940316Y-50296197D01*
X97943826Y-50319858D01*
X97945000Y-50343750D01*
X97945000Y-51256250D01*
X97943826Y-51280142D01*
X97940316Y-51303803D01*
X97934504Y-51327007D01*
X97926446Y-51349529D01*
X97916218Y-51371153D01*
X97903921Y-51391670D01*
X97889671Y-51410883D01*
X97873607Y-51428607D01*
X97855883Y-51444671D01*
X97836670Y-51458921D01*
X97816153Y-51471218D01*
X97794529Y-51481446D01*
X97772007Y-51489504D01*
X97748803Y-51495316D01*
X97725142Y-51498826D01*
X97701250Y-51500000D01*
X97213750Y-51500000D01*
X97189858Y-51498826D01*
X97166197Y-51495316D01*
X97142993Y-51489504D01*
X97120471Y-51481446D01*
X97098847Y-51471218D01*
X97078330Y-51458921D01*
X97059117Y-51444671D01*
X97041393Y-51428607D01*
X97025329Y-51410883D01*
X97011079Y-51391670D01*
X96998782Y-51371153D01*
X96988554Y-51349529D01*
X96980496Y-51327007D01*
X96974684Y-51303803D01*
X96971174Y-51280142D01*
X96970000Y-51256250D01*
X96970000Y-50343750D01*
X96971174Y-50319858D01*
X96974684Y-50296197D01*
X96980496Y-50272993D01*
X96988554Y-50250471D01*
X96998782Y-50228847D01*
X97011079Y-50208330D01*
X97025329Y-50189117D01*
X97041393Y-50171393D01*
X97059117Y-50155329D01*
X97078330Y-50141079D01*
X97098847Y-50128782D01*
X97120471Y-50118554D01*
X97142993Y-50110496D01*
X97166197Y-50104684D01*
X97189858Y-50101174D01*
X97213750Y-50100000D01*
X97701250Y-50100000D01*
X97725142Y-50101174D01*
X97725142Y-50101174D01*
G37*
D11*
X97457500Y-50800000D03*
D10*
G36*
X95850142Y-50101174D02*
G01*
X95873803Y-50104684D01*
X95897007Y-50110496D01*
X95919529Y-50118554D01*
X95941153Y-50128782D01*
X95961670Y-50141079D01*
X95980883Y-50155329D01*
X95998607Y-50171393D01*
X96014671Y-50189117D01*
X96028921Y-50208330D01*
X96041218Y-50228847D01*
X96051446Y-50250471D01*
X96059504Y-50272993D01*
X96065316Y-50296197D01*
X96068826Y-50319858D01*
X96070000Y-50343750D01*
X96070000Y-51256250D01*
X96068826Y-51280142D01*
X96065316Y-51303803D01*
X96059504Y-51327007D01*
X96051446Y-51349529D01*
X96041218Y-51371153D01*
X96028921Y-51391670D01*
X96014671Y-51410883D01*
X95998607Y-51428607D01*
X95980883Y-51444671D01*
X95961670Y-51458921D01*
X95941153Y-51471218D01*
X95919529Y-51481446D01*
X95897007Y-51489504D01*
X95873803Y-51495316D01*
X95850142Y-51498826D01*
X95826250Y-51500000D01*
X95338750Y-51500000D01*
X95314858Y-51498826D01*
X95291197Y-51495316D01*
X95267993Y-51489504D01*
X95245471Y-51481446D01*
X95223847Y-51471218D01*
X95203330Y-51458921D01*
X95184117Y-51444671D01*
X95166393Y-51428607D01*
X95150329Y-51410883D01*
X95136079Y-51391670D01*
X95123782Y-51371153D01*
X95113554Y-51349529D01*
X95105496Y-51327007D01*
X95099684Y-51303803D01*
X95096174Y-51280142D01*
X95095000Y-51256250D01*
X95095000Y-50343750D01*
X95096174Y-50319858D01*
X95099684Y-50296197D01*
X95105496Y-50272993D01*
X95113554Y-50250471D01*
X95123782Y-50228847D01*
X95136079Y-50208330D01*
X95150329Y-50189117D01*
X95166393Y-50171393D01*
X95184117Y-50155329D01*
X95203330Y-50141079D01*
X95223847Y-50128782D01*
X95245471Y-50118554D01*
X95267993Y-50110496D01*
X95291197Y-50104684D01*
X95314858Y-50101174D01*
X95338750Y-50100000D01*
X95826250Y-50100000D01*
X95850142Y-50101174D01*
X95850142Y-50101174D01*
G37*
D11*
X95582500Y-50800000D03*
D14*
X31293000Y-61976000D03*
X28143000Y-61976000D03*
X47193000Y-61976000D03*
X50343000Y-61976000D03*
X69342000Y-62230000D03*
X66192000Y-62230000D03*
X85293000Y-61976000D03*
X88443000Y-61976000D03*
X104343000Y-61976000D03*
X107493000Y-61976000D03*
X126543000Y-61976000D03*
X123393000Y-61976000D03*
X145593000Y-61976000D03*
X142443000Y-61976000D03*
X164643000Y-61976000D03*
X161493000Y-61976000D03*
X183693000Y-61976000D03*
X180543000Y-61976000D03*
X199593000Y-61976000D03*
X202743000Y-61976000D03*
X221793000Y-61976000D03*
X218643000Y-61976000D03*
X237693000Y-61976000D03*
X240843000Y-61976000D03*
X28143000Y-81026000D03*
X31293000Y-81026000D03*
X50343000Y-81026000D03*
X47193000Y-81026000D03*
X69393000Y-81026000D03*
X66243000Y-81026000D03*
X88443000Y-81026000D03*
X85293000Y-81026000D03*
X107493000Y-81026000D03*
X104343000Y-81026000D03*
X123393000Y-81280000D03*
X126543000Y-81280000D03*
X145339000Y-81026000D03*
X142189000Y-81026000D03*
X161239000Y-81026000D03*
X164389000Y-81026000D03*
X180543000Y-81026000D03*
X183693000Y-81026000D03*
X202743000Y-81026000D03*
X199593000Y-81026000D03*
X218389000Y-81026000D03*
X221539000Y-81026000D03*
X237693000Y-81026000D03*
X240843000Y-81026000D03*
X28143000Y-100076000D03*
X31293000Y-100076000D03*
X50343000Y-100076000D03*
X47193000Y-100076000D03*
X69393000Y-100076000D03*
X66243000Y-100076000D03*
X88443000Y-100076000D03*
X85293000Y-100076000D03*
X104343000Y-100076000D03*
X107493000Y-100076000D03*
X126543000Y-99568000D03*
X123393000Y-99568000D03*
X145593000Y-100076000D03*
X142443000Y-100076000D03*
X161493000Y-100076000D03*
X164643000Y-100076000D03*
X180543000Y-100076000D03*
X183693000Y-100076000D03*
X199593000Y-100076000D03*
X202743000Y-100076000D03*
X221793000Y-100076000D03*
X218643000Y-100076000D03*
X237693000Y-100076000D03*
X240843000Y-100076000D03*
X28143000Y-119126000D03*
X31293000Y-119126000D03*
X50343000Y-119126000D03*
X47193000Y-119126000D03*
X66243000Y-119126000D03*
X69393000Y-119126000D03*
X88443000Y-119126000D03*
X85293000Y-119126000D03*
X104343000Y-119126000D03*
X107493000Y-119126000D03*
X133045000Y-119126000D03*
X136195000Y-119126000D03*
X161493000Y-119126000D03*
X164643000Y-119126000D03*
X183693000Y-119126000D03*
X180543000Y-119126000D03*
X202743000Y-119126000D03*
X199593000Y-119126000D03*
X218643000Y-119126000D03*
X221793000Y-119126000D03*
X240843000Y-119126000D03*
X237693000Y-119126000D03*
D10*
G36*
X229297142Y-39687174D02*
G01*
X229320803Y-39690684D01*
X229344007Y-39696496D01*
X229366529Y-39704554D01*
X229388153Y-39714782D01*
X229408670Y-39727079D01*
X229427883Y-39741329D01*
X229445607Y-39757393D01*
X229461671Y-39775117D01*
X229475921Y-39794330D01*
X229488218Y-39814847D01*
X229498446Y-39836471D01*
X229506504Y-39858993D01*
X229512316Y-39882197D01*
X229515826Y-39905858D01*
X229517000Y-39929750D01*
X229517000Y-40842250D01*
X229515826Y-40866142D01*
X229512316Y-40889803D01*
X229506504Y-40913007D01*
X229498446Y-40935529D01*
X229488218Y-40957153D01*
X229475921Y-40977670D01*
X229461671Y-40996883D01*
X229445607Y-41014607D01*
X229427883Y-41030671D01*
X229408670Y-41044921D01*
X229388153Y-41057218D01*
X229366529Y-41067446D01*
X229344007Y-41075504D01*
X229320803Y-41081316D01*
X229297142Y-41084826D01*
X229273250Y-41086000D01*
X228785750Y-41086000D01*
X228761858Y-41084826D01*
X228738197Y-41081316D01*
X228714993Y-41075504D01*
X228692471Y-41067446D01*
X228670847Y-41057218D01*
X228650330Y-41044921D01*
X228631117Y-41030671D01*
X228613393Y-41014607D01*
X228597329Y-40996883D01*
X228583079Y-40977670D01*
X228570782Y-40957153D01*
X228560554Y-40935529D01*
X228552496Y-40913007D01*
X228546684Y-40889803D01*
X228543174Y-40866142D01*
X228542000Y-40842250D01*
X228542000Y-39929750D01*
X228543174Y-39905858D01*
X228546684Y-39882197D01*
X228552496Y-39858993D01*
X228560554Y-39836471D01*
X228570782Y-39814847D01*
X228583079Y-39794330D01*
X228597329Y-39775117D01*
X228613393Y-39757393D01*
X228631117Y-39741329D01*
X228650330Y-39727079D01*
X228670847Y-39714782D01*
X228692471Y-39704554D01*
X228714993Y-39696496D01*
X228738197Y-39690684D01*
X228761858Y-39687174D01*
X228785750Y-39686000D01*
X229273250Y-39686000D01*
X229297142Y-39687174D01*
X229297142Y-39687174D01*
G37*
D11*
X229029500Y-40386000D03*
D10*
G36*
X227422142Y-39687174D02*
G01*
X227445803Y-39690684D01*
X227469007Y-39696496D01*
X227491529Y-39704554D01*
X227513153Y-39714782D01*
X227533670Y-39727079D01*
X227552883Y-39741329D01*
X227570607Y-39757393D01*
X227586671Y-39775117D01*
X227600921Y-39794330D01*
X227613218Y-39814847D01*
X227623446Y-39836471D01*
X227631504Y-39858993D01*
X227637316Y-39882197D01*
X227640826Y-39905858D01*
X227642000Y-39929750D01*
X227642000Y-40842250D01*
X227640826Y-40866142D01*
X227637316Y-40889803D01*
X227631504Y-40913007D01*
X227623446Y-40935529D01*
X227613218Y-40957153D01*
X227600921Y-40977670D01*
X227586671Y-40996883D01*
X227570607Y-41014607D01*
X227552883Y-41030671D01*
X227533670Y-41044921D01*
X227513153Y-41057218D01*
X227491529Y-41067446D01*
X227469007Y-41075504D01*
X227445803Y-41081316D01*
X227422142Y-41084826D01*
X227398250Y-41086000D01*
X226910750Y-41086000D01*
X226886858Y-41084826D01*
X226863197Y-41081316D01*
X226839993Y-41075504D01*
X226817471Y-41067446D01*
X226795847Y-41057218D01*
X226775330Y-41044921D01*
X226756117Y-41030671D01*
X226738393Y-41014607D01*
X226722329Y-40996883D01*
X226708079Y-40977670D01*
X226695782Y-40957153D01*
X226685554Y-40935529D01*
X226677496Y-40913007D01*
X226671684Y-40889803D01*
X226668174Y-40866142D01*
X226667000Y-40842250D01*
X226667000Y-39929750D01*
X226668174Y-39905858D01*
X226671684Y-39882197D01*
X226677496Y-39858993D01*
X226685554Y-39836471D01*
X226695782Y-39814847D01*
X226708079Y-39794330D01*
X226722329Y-39775117D01*
X226738393Y-39757393D01*
X226756117Y-39741329D01*
X226775330Y-39727079D01*
X226795847Y-39714782D01*
X226817471Y-39704554D01*
X226839993Y-39696496D01*
X226863197Y-39690684D01*
X226886858Y-39687174D01*
X226910750Y-39686000D01*
X227398250Y-39686000D01*
X227422142Y-39687174D01*
X227422142Y-39687174D01*
G37*
D11*
X227154500Y-40386000D03*
D10*
G36*
X97725142Y-37909174D02*
G01*
X97748803Y-37912684D01*
X97772007Y-37918496D01*
X97794529Y-37926554D01*
X97816153Y-37936782D01*
X97836670Y-37949079D01*
X97855883Y-37963329D01*
X97873607Y-37979393D01*
X97889671Y-37997117D01*
X97903921Y-38016330D01*
X97916218Y-38036847D01*
X97926446Y-38058471D01*
X97934504Y-38080993D01*
X97940316Y-38104197D01*
X97943826Y-38127858D01*
X97945000Y-38151750D01*
X97945000Y-39064250D01*
X97943826Y-39088142D01*
X97940316Y-39111803D01*
X97934504Y-39135007D01*
X97926446Y-39157529D01*
X97916218Y-39179153D01*
X97903921Y-39199670D01*
X97889671Y-39218883D01*
X97873607Y-39236607D01*
X97855883Y-39252671D01*
X97836670Y-39266921D01*
X97816153Y-39279218D01*
X97794529Y-39289446D01*
X97772007Y-39297504D01*
X97748803Y-39303316D01*
X97725142Y-39306826D01*
X97701250Y-39308000D01*
X97213750Y-39308000D01*
X97189858Y-39306826D01*
X97166197Y-39303316D01*
X97142993Y-39297504D01*
X97120471Y-39289446D01*
X97098847Y-39279218D01*
X97078330Y-39266921D01*
X97059117Y-39252671D01*
X97041393Y-39236607D01*
X97025329Y-39218883D01*
X97011079Y-39199670D01*
X96998782Y-39179153D01*
X96988554Y-39157529D01*
X96980496Y-39135007D01*
X96974684Y-39111803D01*
X96971174Y-39088142D01*
X96970000Y-39064250D01*
X96970000Y-38151750D01*
X96971174Y-38127858D01*
X96974684Y-38104197D01*
X96980496Y-38080993D01*
X96988554Y-38058471D01*
X96998782Y-38036847D01*
X97011079Y-38016330D01*
X97025329Y-37997117D01*
X97041393Y-37979393D01*
X97059117Y-37963329D01*
X97078330Y-37949079D01*
X97098847Y-37936782D01*
X97120471Y-37926554D01*
X97142993Y-37918496D01*
X97166197Y-37912684D01*
X97189858Y-37909174D01*
X97213750Y-37908000D01*
X97701250Y-37908000D01*
X97725142Y-37909174D01*
X97725142Y-37909174D01*
G37*
D11*
X97457500Y-38608000D03*
D10*
G36*
X95850142Y-37909174D02*
G01*
X95873803Y-37912684D01*
X95897007Y-37918496D01*
X95919529Y-37926554D01*
X95941153Y-37936782D01*
X95961670Y-37949079D01*
X95980883Y-37963329D01*
X95998607Y-37979393D01*
X96014671Y-37997117D01*
X96028921Y-38016330D01*
X96041218Y-38036847D01*
X96051446Y-38058471D01*
X96059504Y-38080993D01*
X96065316Y-38104197D01*
X96068826Y-38127858D01*
X96070000Y-38151750D01*
X96070000Y-39064250D01*
X96068826Y-39088142D01*
X96065316Y-39111803D01*
X96059504Y-39135007D01*
X96051446Y-39157529D01*
X96041218Y-39179153D01*
X96028921Y-39199670D01*
X96014671Y-39218883D01*
X95998607Y-39236607D01*
X95980883Y-39252671D01*
X95961670Y-39266921D01*
X95941153Y-39279218D01*
X95919529Y-39289446D01*
X95897007Y-39297504D01*
X95873803Y-39303316D01*
X95850142Y-39306826D01*
X95826250Y-39308000D01*
X95338750Y-39308000D01*
X95314858Y-39306826D01*
X95291197Y-39303316D01*
X95267993Y-39297504D01*
X95245471Y-39289446D01*
X95223847Y-39279218D01*
X95203330Y-39266921D01*
X95184117Y-39252671D01*
X95166393Y-39236607D01*
X95150329Y-39218883D01*
X95136079Y-39199670D01*
X95123782Y-39179153D01*
X95113554Y-39157529D01*
X95105496Y-39135007D01*
X95099684Y-39111803D01*
X95096174Y-39088142D01*
X95095000Y-39064250D01*
X95095000Y-38151750D01*
X95096174Y-38127858D01*
X95099684Y-38104197D01*
X95105496Y-38080993D01*
X95113554Y-38058471D01*
X95123782Y-38036847D01*
X95136079Y-38016330D01*
X95150329Y-37997117D01*
X95166393Y-37979393D01*
X95184117Y-37963329D01*
X95203330Y-37949079D01*
X95223847Y-37936782D01*
X95245471Y-37926554D01*
X95267993Y-37918496D01*
X95291197Y-37912684D01*
X95314858Y-37909174D01*
X95338750Y-37908000D01*
X95826250Y-37908000D01*
X95850142Y-37909174D01*
X95850142Y-37909174D01*
G37*
D11*
X95582500Y-38608000D03*
D10*
G36*
X229297142Y-37655174D02*
G01*
X229320803Y-37658684D01*
X229344007Y-37664496D01*
X229366529Y-37672554D01*
X229388153Y-37682782D01*
X229408670Y-37695079D01*
X229427883Y-37709329D01*
X229445607Y-37725393D01*
X229461671Y-37743117D01*
X229475921Y-37762330D01*
X229488218Y-37782847D01*
X229498446Y-37804471D01*
X229506504Y-37826993D01*
X229512316Y-37850197D01*
X229515826Y-37873858D01*
X229517000Y-37897750D01*
X229517000Y-38810250D01*
X229515826Y-38834142D01*
X229512316Y-38857803D01*
X229506504Y-38881007D01*
X229498446Y-38903529D01*
X229488218Y-38925153D01*
X229475921Y-38945670D01*
X229461671Y-38964883D01*
X229445607Y-38982607D01*
X229427883Y-38998671D01*
X229408670Y-39012921D01*
X229388153Y-39025218D01*
X229366529Y-39035446D01*
X229344007Y-39043504D01*
X229320803Y-39049316D01*
X229297142Y-39052826D01*
X229273250Y-39054000D01*
X228785750Y-39054000D01*
X228761858Y-39052826D01*
X228738197Y-39049316D01*
X228714993Y-39043504D01*
X228692471Y-39035446D01*
X228670847Y-39025218D01*
X228650330Y-39012921D01*
X228631117Y-38998671D01*
X228613393Y-38982607D01*
X228597329Y-38964883D01*
X228583079Y-38945670D01*
X228570782Y-38925153D01*
X228560554Y-38903529D01*
X228552496Y-38881007D01*
X228546684Y-38857803D01*
X228543174Y-38834142D01*
X228542000Y-38810250D01*
X228542000Y-37897750D01*
X228543174Y-37873858D01*
X228546684Y-37850197D01*
X228552496Y-37826993D01*
X228560554Y-37804471D01*
X228570782Y-37782847D01*
X228583079Y-37762330D01*
X228597329Y-37743117D01*
X228613393Y-37725393D01*
X228631117Y-37709329D01*
X228650330Y-37695079D01*
X228670847Y-37682782D01*
X228692471Y-37672554D01*
X228714993Y-37664496D01*
X228738197Y-37658684D01*
X228761858Y-37655174D01*
X228785750Y-37654000D01*
X229273250Y-37654000D01*
X229297142Y-37655174D01*
X229297142Y-37655174D01*
G37*
D11*
X229029500Y-38354000D03*
D10*
G36*
X227422142Y-37655174D02*
G01*
X227445803Y-37658684D01*
X227469007Y-37664496D01*
X227491529Y-37672554D01*
X227513153Y-37682782D01*
X227533670Y-37695079D01*
X227552883Y-37709329D01*
X227570607Y-37725393D01*
X227586671Y-37743117D01*
X227600921Y-37762330D01*
X227613218Y-37782847D01*
X227623446Y-37804471D01*
X227631504Y-37826993D01*
X227637316Y-37850197D01*
X227640826Y-37873858D01*
X227642000Y-37897750D01*
X227642000Y-38810250D01*
X227640826Y-38834142D01*
X227637316Y-38857803D01*
X227631504Y-38881007D01*
X227623446Y-38903529D01*
X227613218Y-38925153D01*
X227600921Y-38945670D01*
X227586671Y-38964883D01*
X227570607Y-38982607D01*
X227552883Y-38998671D01*
X227533670Y-39012921D01*
X227513153Y-39025218D01*
X227491529Y-39035446D01*
X227469007Y-39043504D01*
X227445803Y-39049316D01*
X227422142Y-39052826D01*
X227398250Y-39054000D01*
X226910750Y-39054000D01*
X226886858Y-39052826D01*
X226863197Y-39049316D01*
X226839993Y-39043504D01*
X226817471Y-39035446D01*
X226795847Y-39025218D01*
X226775330Y-39012921D01*
X226756117Y-38998671D01*
X226738393Y-38982607D01*
X226722329Y-38964883D01*
X226708079Y-38945670D01*
X226695782Y-38925153D01*
X226685554Y-38903529D01*
X226677496Y-38881007D01*
X226671684Y-38857803D01*
X226668174Y-38834142D01*
X226667000Y-38810250D01*
X226667000Y-37897750D01*
X226668174Y-37873858D01*
X226671684Y-37850197D01*
X226677496Y-37826993D01*
X226685554Y-37804471D01*
X226695782Y-37782847D01*
X226708079Y-37762330D01*
X226722329Y-37743117D01*
X226738393Y-37725393D01*
X226756117Y-37709329D01*
X226775330Y-37695079D01*
X226795847Y-37682782D01*
X226817471Y-37672554D01*
X226839993Y-37664496D01*
X226863197Y-37658684D01*
X226886858Y-37655174D01*
X226910750Y-37654000D01*
X227398250Y-37654000D01*
X227422142Y-37655174D01*
X227422142Y-37655174D01*
G37*
D11*
X227154500Y-38354000D03*
D10*
G36*
X227422142Y-35623174D02*
G01*
X227445803Y-35626684D01*
X227469007Y-35632496D01*
X227491529Y-35640554D01*
X227513153Y-35650782D01*
X227533670Y-35663079D01*
X227552883Y-35677329D01*
X227570607Y-35693393D01*
X227586671Y-35711117D01*
X227600921Y-35730330D01*
X227613218Y-35750847D01*
X227623446Y-35772471D01*
X227631504Y-35794993D01*
X227637316Y-35818197D01*
X227640826Y-35841858D01*
X227642000Y-35865750D01*
X227642000Y-36778250D01*
X227640826Y-36802142D01*
X227637316Y-36825803D01*
X227631504Y-36849007D01*
X227623446Y-36871529D01*
X227613218Y-36893153D01*
X227600921Y-36913670D01*
X227586671Y-36932883D01*
X227570607Y-36950607D01*
X227552883Y-36966671D01*
X227533670Y-36980921D01*
X227513153Y-36993218D01*
X227491529Y-37003446D01*
X227469007Y-37011504D01*
X227445803Y-37017316D01*
X227422142Y-37020826D01*
X227398250Y-37022000D01*
X226910750Y-37022000D01*
X226886858Y-37020826D01*
X226863197Y-37017316D01*
X226839993Y-37011504D01*
X226817471Y-37003446D01*
X226795847Y-36993218D01*
X226775330Y-36980921D01*
X226756117Y-36966671D01*
X226738393Y-36950607D01*
X226722329Y-36932883D01*
X226708079Y-36913670D01*
X226695782Y-36893153D01*
X226685554Y-36871529D01*
X226677496Y-36849007D01*
X226671684Y-36825803D01*
X226668174Y-36802142D01*
X226667000Y-36778250D01*
X226667000Y-35865750D01*
X226668174Y-35841858D01*
X226671684Y-35818197D01*
X226677496Y-35794993D01*
X226685554Y-35772471D01*
X226695782Y-35750847D01*
X226708079Y-35730330D01*
X226722329Y-35711117D01*
X226738393Y-35693393D01*
X226756117Y-35677329D01*
X226775330Y-35663079D01*
X226795847Y-35650782D01*
X226817471Y-35640554D01*
X226839993Y-35632496D01*
X226863197Y-35626684D01*
X226886858Y-35623174D01*
X226910750Y-35622000D01*
X227398250Y-35622000D01*
X227422142Y-35623174D01*
X227422142Y-35623174D01*
G37*
D11*
X227154500Y-36322000D03*
D10*
G36*
X229297142Y-35623174D02*
G01*
X229320803Y-35626684D01*
X229344007Y-35632496D01*
X229366529Y-35640554D01*
X229388153Y-35650782D01*
X229408670Y-35663079D01*
X229427883Y-35677329D01*
X229445607Y-35693393D01*
X229461671Y-35711117D01*
X229475921Y-35730330D01*
X229488218Y-35750847D01*
X229498446Y-35772471D01*
X229506504Y-35794993D01*
X229512316Y-35818197D01*
X229515826Y-35841858D01*
X229517000Y-35865750D01*
X229517000Y-36778250D01*
X229515826Y-36802142D01*
X229512316Y-36825803D01*
X229506504Y-36849007D01*
X229498446Y-36871529D01*
X229488218Y-36893153D01*
X229475921Y-36913670D01*
X229461671Y-36932883D01*
X229445607Y-36950607D01*
X229427883Y-36966671D01*
X229408670Y-36980921D01*
X229388153Y-36993218D01*
X229366529Y-37003446D01*
X229344007Y-37011504D01*
X229320803Y-37017316D01*
X229297142Y-37020826D01*
X229273250Y-37022000D01*
X228785750Y-37022000D01*
X228761858Y-37020826D01*
X228738197Y-37017316D01*
X228714993Y-37011504D01*
X228692471Y-37003446D01*
X228670847Y-36993218D01*
X228650330Y-36980921D01*
X228631117Y-36966671D01*
X228613393Y-36950607D01*
X228597329Y-36932883D01*
X228583079Y-36913670D01*
X228570782Y-36893153D01*
X228560554Y-36871529D01*
X228552496Y-36849007D01*
X228546684Y-36825803D01*
X228543174Y-36802142D01*
X228542000Y-36778250D01*
X228542000Y-35865750D01*
X228543174Y-35841858D01*
X228546684Y-35818197D01*
X228552496Y-35794993D01*
X228560554Y-35772471D01*
X228570782Y-35750847D01*
X228583079Y-35730330D01*
X228597329Y-35711117D01*
X228613393Y-35693393D01*
X228631117Y-35677329D01*
X228650330Y-35663079D01*
X228670847Y-35650782D01*
X228692471Y-35640554D01*
X228714993Y-35632496D01*
X228738197Y-35626684D01*
X228761858Y-35623174D01*
X228785750Y-35622000D01*
X229273250Y-35622000D01*
X229297142Y-35623174D01*
X229297142Y-35623174D01*
G37*
D11*
X229029500Y-36322000D03*
D10*
G36*
X244574142Y-46425174D02*
G01*
X244597803Y-46428684D01*
X244621007Y-46434496D01*
X244643529Y-46442554D01*
X244665153Y-46452782D01*
X244685670Y-46465079D01*
X244704883Y-46479329D01*
X244722607Y-46495393D01*
X244738671Y-46513117D01*
X244752921Y-46532330D01*
X244765218Y-46552847D01*
X244775446Y-46574471D01*
X244783504Y-46596993D01*
X244789316Y-46620197D01*
X244792826Y-46643858D01*
X244794000Y-46667750D01*
X244794000Y-47155250D01*
X244792826Y-47179142D01*
X244789316Y-47202803D01*
X244783504Y-47226007D01*
X244775446Y-47248529D01*
X244765218Y-47270153D01*
X244752921Y-47290670D01*
X244738671Y-47309883D01*
X244722607Y-47327607D01*
X244704883Y-47343671D01*
X244685670Y-47357921D01*
X244665153Y-47370218D01*
X244643529Y-47380446D01*
X244621007Y-47388504D01*
X244597803Y-47394316D01*
X244574142Y-47397826D01*
X244550250Y-47399000D01*
X243637750Y-47399000D01*
X243613858Y-47397826D01*
X243590197Y-47394316D01*
X243566993Y-47388504D01*
X243544471Y-47380446D01*
X243522847Y-47370218D01*
X243502330Y-47357921D01*
X243483117Y-47343671D01*
X243465393Y-47327607D01*
X243449329Y-47309883D01*
X243435079Y-47290670D01*
X243422782Y-47270153D01*
X243412554Y-47248529D01*
X243404496Y-47226007D01*
X243398684Y-47202803D01*
X243395174Y-47179142D01*
X243394000Y-47155250D01*
X243394000Y-46667750D01*
X243395174Y-46643858D01*
X243398684Y-46620197D01*
X243404496Y-46596993D01*
X243412554Y-46574471D01*
X243422782Y-46552847D01*
X243435079Y-46532330D01*
X243449329Y-46513117D01*
X243465393Y-46495393D01*
X243483117Y-46479329D01*
X243502330Y-46465079D01*
X243522847Y-46452782D01*
X243544471Y-46442554D01*
X243566993Y-46434496D01*
X243590197Y-46428684D01*
X243613858Y-46425174D01*
X243637750Y-46424000D01*
X244550250Y-46424000D01*
X244574142Y-46425174D01*
X244574142Y-46425174D01*
G37*
D11*
X244094000Y-46911500D03*
D10*
G36*
X244574142Y-44550174D02*
G01*
X244597803Y-44553684D01*
X244621007Y-44559496D01*
X244643529Y-44567554D01*
X244665153Y-44577782D01*
X244685670Y-44590079D01*
X244704883Y-44604329D01*
X244722607Y-44620393D01*
X244738671Y-44638117D01*
X244752921Y-44657330D01*
X244765218Y-44677847D01*
X244775446Y-44699471D01*
X244783504Y-44721993D01*
X244789316Y-44745197D01*
X244792826Y-44768858D01*
X244794000Y-44792750D01*
X244794000Y-45280250D01*
X244792826Y-45304142D01*
X244789316Y-45327803D01*
X244783504Y-45351007D01*
X244775446Y-45373529D01*
X244765218Y-45395153D01*
X244752921Y-45415670D01*
X244738671Y-45434883D01*
X244722607Y-45452607D01*
X244704883Y-45468671D01*
X244685670Y-45482921D01*
X244665153Y-45495218D01*
X244643529Y-45505446D01*
X244621007Y-45513504D01*
X244597803Y-45519316D01*
X244574142Y-45522826D01*
X244550250Y-45524000D01*
X243637750Y-45524000D01*
X243613858Y-45522826D01*
X243590197Y-45519316D01*
X243566993Y-45513504D01*
X243544471Y-45505446D01*
X243522847Y-45495218D01*
X243502330Y-45482921D01*
X243483117Y-45468671D01*
X243465393Y-45452607D01*
X243449329Y-45434883D01*
X243435079Y-45415670D01*
X243422782Y-45395153D01*
X243412554Y-45373529D01*
X243404496Y-45351007D01*
X243398684Y-45327803D01*
X243395174Y-45304142D01*
X243394000Y-45280250D01*
X243394000Y-44792750D01*
X243395174Y-44768858D01*
X243398684Y-44745197D01*
X243404496Y-44721993D01*
X243412554Y-44699471D01*
X243422782Y-44677847D01*
X243435079Y-44657330D01*
X243449329Y-44638117D01*
X243465393Y-44620393D01*
X243483117Y-44604329D01*
X243502330Y-44590079D01*
X243522847Y-44577782D01*
X243544471Y-44567554D01*
X243566993Y-44559496D01*
X243590197Y-44553684D01*
X243613858Y-44550174D01*
X243637750Y-44549000D01*
X244550250Y-44549000D01*
X244574142Y-44550174D01*
X244574142Y-44550174D01*
G37*
D11*
X244094000Y-45036500D03*
D10*
G36*
X242034142Y-44550174D02*
G01*
X242057803Y-44553684D01*
X242081007Y-44559496D01*
X242103529Y-44567554D01*
X242125153Y-44577782D01*
X242145670Y-44590079D01*
X242164883Y-44604329D01*
X242182607Y-44620393D01*
X242198671Y-44638117D01*
X242212921Y-44657330D01*
X242225218Y-44677847D01*
X242235446Y-44699471D01*
X242243504Y-44721993D01*
X242249316Y-44745197D01*
X242252826Y-44768858D01*
X242254000Y-44792750D01*
X242254000Y-45280250D01*
X242252826Y-45304142D01*
X242249316Y-45327803D01*
X242243504Y-45351007D01*
X242235446Y-45373529D01*
X242225218Y-45395153D01*
X242212921Y-45415670D01*
X242198671Y-45434883D01*
X242182607Y-45452607D01*
X242164883Y-45468671D01*
X242145670Y-45482921D01*
X242125153Y-45495218D01*
X242103529Y-45505446D01*
X242081007Y-45513504D01*
X242057803Y-45519316D01*
X242034142Y-45522826D01*
X242010250Y-45524000D01*
X241097750Y-45524000D01*
X241073858Y-45522826D01*
X241050197Y-45519316D01*
X241026993Y-45513504D01*
X241004471Y-45505446D01*
X240982847Y-45495218D01*
X240962330Y-45482921D01*
X240943117Y-45468671D01*
X240925393Y-45452607D01*
X240909329Y-45434883D01*
X240895079Y-45415670D01*
X240882782Y-45395153D01*
X240872554Y-45373529D01*
X240864496Y-45351007D01*
X240858684Y-45327803D01*
X240855174Y-45304142D01*
X240854000Y-45280250D01*
X240854000Y-44792750D01*
X240855174Y-44768858D01*
X240858684Y-44745197D01*
X240864496Y-44721993D01*
X240872554Y-44699471D01*
X240882782Y-44677847D01*
X240895079Y-44657330D01*
X240909329Y-44638117D01*
X240925393Y-44620393D01*
X240943117Y-44604329D01*
X240962330Y-44590079D01*
X240982847Y-44577782D01*
X241004471Y-44567554D01*
X241026993Y-44559496D01*
X241050197Y-44553684D01*
X241073858Y-44550174D01*
X241097750Y-44549000D01*
X242010250Y-44549000D01*
X242034142Y-44550174D01*
X242034142Y-44550174D01*
G37*
D11*
X241554000Y-45036500D03*
D10*
G36*
X242034142Y-46425174D02*
G01*
X242057803Y-46428684D01*
X242081007Y-46434496D01*
X242103529Y-46442554D01*
X242125153Y-46452782D01*
X242145670Y-46465079D01*
X242164883Y-46479329D01*
X242182607Y-46495393D01*
X242198671Y-46513117D01*
X242212921Y-46532330D01*
X242225218Y-46552847D01*
X242235446Y-46574471D01*
X242243504Y-46596993D01*
X242249316Y-46620197D01*
X242252826Y-46643858D01*
X242254000Y-46667750D01*
X242254000Y-47155250D01*
X242252826Y-47179142D01*
X242249316Y-47202803D01*
X242243504Y-47226007D01*
X242235446Y-47248529D01*
X242225218Y-47270153D01*
X242212921Y-47290670D01*
X242198671Y-47309883D01*
X242182607Y-47327607D01*
X242164883Y-47343671D01*
X242145670Y-47357921D01*
X242125153Y-47370218D01*
X242103529Y-47380446D01*
X242081007Y-47388504D01*
X242057803Y-47394316D01*
X242034142Y-47397826D01*
X242010250Y-47399000D01*
X241097750Y-47399000D01*
X241073858Y-47397826D01*
X241050197Y-47394316D01*
X241026993Y-47388504D01*
X241004471Y-47380446D01*
X240982847Y-47370218D01*
X240962330Y-47357921D01*
X240943117Y-47343671D01*
X240925393Y-47327607D01*
X240909329Y-47309883D01*
X240895079Y-47290670D01*
X240882782Y-47270153D01*
X240872554Y-47248529D01*
X240864496Y-47226007D01*
X240858684Y-47202803D01*
X240855174Y-47179142D01*
X240854000Y-47155250D01*
X240854000Y-46667750D01*
X240855174Y-46643858D01*
X240858684Y-46620197D01*
X240864496Y-46596993D01*
X240872554Y-46574471D01*
X240882782Y-46552847D01*
X240895079Y-46532330D01*
X240909329Y-46513117D01*
X240925393Y-46495393D01*
X240943117Y-46479329D01*
X240962330Y-46465079D01*
X240982847Y-46452782D01*
X241004471Y-46442554D01*
X241026993Y-46434496D01*
X241050197Y-46428684D01*
X241073858Y-46425174D01*
X241097750Y-46424000D01*
X242010250Y-46424000D01*
X242034142Y-46425174D01*
X242034142Y-46425174D01*
G37*
D11*
X241554000Y-46911500D03*
M02*
