M48
; DRILL file {KiCad (5.1.0)-1} date 10/2/2020 8:33:50 PM
; FORMAT={-:-/ absolute / inch / decimal}
; #@! TF.CreationDate,2020-10-02T20:33:50-04:00
; #@! TF.GenerationSoftware,Kicad,Pcbnew,(5.1.0)-1
; #@! TF.FileFunction,NonPlated,1,2,NPTH
FMAT,2
INCH
T1C0.0670
T2C0.1200
T3C0.1570
%
G90
G05
T1
X7.72Y-3.77
X8.12Y-3.77
X1.72Y-3.02
X2.12Y-3.02
X1.72Y-3.77
X2.12Y-3.77
X7.72Y-4.52
X8.12Y-4.52
X7.72Y-2.27
X8.12Y-2.27
X6.22Y-3.77
X6.62Y-3.77
X4.72Y-2.27
X5.12Y-2.27
X3.22Y-3.77
X3.62Y-3.77
X5.1Y-4.52
X5.5Y-4.52
X4.72Y-3.02
X5.12Y-3.02
X0.97Y-4.52
X1.37Y-4.52
X8.47Y-4.52
X8.87Y-4.52
X5.47Y-3.02
X5.87Y-3.02
X3.22Y-4.52
X3.62Y-4.52
X7.72Y-3.02
X8.12Y-3.02
X6.22Y-2.27
X6.62Y-2.27
X6.97Y-3.02
X7.37Y-3.02
X6.97Y-2.27
X7.37Y-2.27
X2.47Y-3.77
X2.87Y-3.77
X6.22Y-4.52
X6.62Y-4.52
X8.47Y-2.27
X8.87Y-2.27
X8.47Y-3.77
X8.87Y-3.77
X2.47Y-4.52
X2.87Y-4.52
X0.97Y-2.27
X1.37Y-2.27
X3.22Y-3.02
X3.62Y-3.02
X6.97Y-3.77
X7.37Y-3.77
X5.47Y-2.27
X5.87Y-2.27
X0.97Y-3.77
X1.37Y-3.77
X9.22Y-4.52
X9.62Y-4.52
X6.22Y-3.02
X6.62Y-3.02
X1.72Y-4.52
X2.12Y-4.52
X5.47Y-3.77
X5.87Y-3.77
X3.97Y-2.27
X4.37Y-2.27
X8.47Y-3.02
X8.87Y-3.02
X2.47Y-3.02
X2.87Y-3.02
X9.22Y-3.02
X9.62Y-3.02
X6.97Y-4.52
X7.37Y-4.52
X3.22Y-2.27
X3.62Y-2.27
X4.72Y-3.77
X5.12Y-3.77
X1.72Y-2.27
X2.12Y-2.27
X3.97Y-3.02
X4.37Y-3.02
X9.22Y-3.77
X9.62Y-3.77
X9.22Y-2.27
X9.62Y-2.27
X2.47Y-2.27
X2.87Y-2.27
X3.97Y-4.52
X4.37Y-4.52
X3.97Y-3.77
X4.37Y-3.77
X0.97Y-3.02
X1.37Y-3.02
T2
X4.83Y-4.245
X5.77Y-4.245
T3
X6.42Y-3.02
X1.92Y-4.52
X5.67Y-3.77
X4.17Y-2.27
X8.67Y-3.02
X2.67Y-3.02
X9.42Y-3.02
X7.17Y-4.52
X3.42Y-2.27
X4.92Y-3.77
X1.92Y-2.27
X4.17Y-3.02
X9.42Y-3.77
X9.42Y-2.27
X2.67Y-2.27
X4.17Y-4.52
X4.17Y-3.77
X1.17Y-3.02
X7.92Y-3.77
X1.92Y-3.02
X1.92Y-3.77
X7.92Y-4.52
X7.92Y-2.27
X6.42Y-3.77
X4.92Y-2.27
X3.42Y-3.77
X4.83Y-4.845
X5.3Y-4.52
X5.77Y-4.845
X4.92Y-3.02
X1.17Y-4.52
X8.67Y-4.52
X5.67Y-3.02
X3.42Y-4.52
X7.92Y-3.02
X6.42Y-2.27
X7.17Y-3.02
X7.17Y-2.27
X2.67Y-3.77
X6.42Y-4.52
X8.67Y-2.27
X8.67Y-3.77
X2.67Y-4.52
X1.17Y-2.27
X3.42Y-3.02
X7.17Y-3.77
X5.67Y-2.27
X1.17Y-3.77
X9.42Y-4.52
T0
M30
