M48
; DRILL file {KiCad (5.1.0)-1} date 8/27/2020 1:02:30 AM
; FORMAT={-:-/ absolute / inch / decimal}
; #@! TF.CreationDate,2020-08-27T01:02:30-04:00
; #@! TF.GenerationSoftware,Kicad,Pcbnew,(5.1.0)-1
; #@! TF.FileFunction,NonPlated,1,2,NPTH
FMAT,2
INCH
T1C0.0670
T2C0.1570
%
G90
G05
T1
X7.675Y-3.0938
X8.075Y-3.0938
X6.175Y-4.5938
X6.575Y-4.5938
X3.175Y-3.8438
X3.575Y-3.8438
X0.925Y-3.8438
X1.325Y-3.8438
X9.175Y-3.8438
X9.575Y-3.8438
X8.425Y-3.0938
X8.825Y-3.0938
X9.175Y-2.3438
X9.575Y-2.3438
X6.925Y-3.8438
X7.325Y-3.8438
X2.425Y-2.3438
X2.825Y-2.3438
X0.925Y-4.5938
X1.325Y-4.5938
X3.175Y-3.0938
X3.575Y-3.0938
X5.425Y-2.3438
X5.825Y-2.3438
X3.175Y-2.3438
X3.575Y-2.3438
X3.925Y-4.5938
X4.325Y-4.5938
X5.425Y-3.0938
X5.825Y-3.0938
X6.175Y-2.3438
X6.575Y-2.3438
X7.675Y-3.8438
X8.075Y-3.8438
X6.925Y-2.3438
X7.325Y-2.3438
X2.425Y-3.8438
X2.825Y-3.8438
X6.925Y-4.5938
X7.325Y-4.5938
X9.175Y-3.0938
X9.575Y-3.0938
X4.675Y-3.8438
X5.075Y-3.8438
X1.675Y-4.5938
X2.075Y-4.5938
X7.675Y-2.3438
X8.075Y-2.3438
X3.925Y-3.8438
X4.325Y-3.8438
X0.925Y-2.3438
X1.325Y-2.3438
X0.925Y-3.0938
X1.325Y-3.0938
X3.175Y-4.5938
X3.575Y-4.5938
X3.925Y-2.3438
X4.325Y-2.3438
X3.925Y-3.0938
X4.325Y-3.0938
X5.05Y-4.5938
X5.45Y-4.5938
X6.175Y-3.0938
X6.575Y-3.0938
X4.675Y-2.3438
X5.075Y-2.3438
X6.925Y-3.0938
X7.325Y-3.0938
X1.675Y-3.8438
X2.075Y-3.8438
X8.425Y-3.8438
X8.825Y-3.8438
X5.425Y-3.8438
X5.825Y-3.8438
X8.425Y-2.3438
X8.825Y-2.3438
X6.175Y-3.8438
X6.575Y-3.8438
X1.675Y-2.3438
X2.075Y-2.3438
X2.425Y-4.5938
X2.825Y-4.5938
X2.425Y-3.0938
X2.825Y-3.0938
X7.675Y-4.5938
X8.075Y-4.5938
X8.425Y-4.5938
X8.825Y-4.5938
X4.675Y-3.0938
X5.075Y-3.0938
X1.675Y-3.0938
X2.075Y-3.0938
X9.175Y-4.5938
X9.575Y-4.5938
T2
X4.875Y-3.8438
X1.875Y-4.5938
X7.875Y-2.3438
X4.125Y-3.8438
X1.125Y-2.3438
X1.125Y-3.0938
X3.375Y-4.5938
X4.125Y-2.3438
X4.125Y-3.0938
X5.25Y-4.5938
X6.375Y-3.0938
X4.875Y-2.3438
X7.125Y-3.0938
X1.875Y-3.8438
X8.625Y-3.8438
X5.625Y-3.8438
X8.625Y-2.3438
X6.375Y-3.8438
X1.875Y-2.3438
X2.625Y-4.5938
X2.625Y-3.0938
X7.875Y-4.5938
X8.625Y-4.5938
X4.875Y-3.0938
X1.875Y-3.0938
X9.375Y-4.5938
X7.875Y-3.0938
X6.375Y-4.5938
X3.375Y-3.8438
X1.125Y-3.8438
X9.375Y-3.8438
X8.625Y-3.0938
X9.375Y-2.3438
X7.125Y-3.8438
X2.625Y-2.3438
X1.125Y-4.5938
X3.375Y-3.0938
X5.625Y-2.3438
X3.375Y-2.3438
X4.125Y-4.5938
X5.625Y-3.0938
X6.375Y-2.3438
X7.875Y-3.8438
X7.125Y-2.3438
X2.625Y-3.8438
X7.125Y-4.5938
X9.375Y-3.0938
T0
M30
