G04 #@! TF.GenerationSoftware,KiCad,Pcbnew,(5.1.0)-1*
G04 #@! TF.CreationDate,2020-08-27T01:02:26-04:00*
G04 #@! TF.ProjectId,keyboard,6b657962-6f61-4726-942e-6b696361645f,rev?*
G04 #@! TF.SameCoordinates,Original*
G04 #@! TF.FileFunction,Copper,L1,Top*
G04 #@! TF.FilePolarity,Positive*
%FSLAX46Y46*%
G04 Gerber Fmt 4.6, Leading zero omitted, Abs format (unit mm)*
G04 Created by KiCad (PCBNEW (5.1.0)-1) date 2020-08-27 01:02:26*
%MOMM*%
%LPD*%
G04 APERTURE LIST*
%ADD10C,1.600000*%
%ADD11R,1.600000X1.600000*%
%ADD12O,0.900000X1.700000*%
%ADD13O,0.900000X2.400000*%
%ADD14C,0.650000*%
%ADD15C,2.500000*%
%ADD16C,2.500000*%
%ADD17R,1.700000X1.000000*%
G04 APERTURE END LIST*
D10*
X32156250Y-64293750D03*
D11*
X24356250Y-64293750D03*
X43725000Y-64293750D03*
D10*
X51525000Y-64293750D03*
X70575000Y-64293750D03*
D11*
X62775000Y-64293750D03*
X81825000Y-64293750D03*
D10*
X89625000Y-64293750D03*
D11*
X100875000Y-64293750D03*
D10*
X108675000Y-64293750D03*
X127725000Y-64293750D03*
D11*
X119925000Y-64293750D03*
X138975000Y-64293750D03*
D10*
X146775000Y-64293750D03*
X165825000Y-64293750D03*
D11*
X158025000Y-64293750D03*
X177075000Y-64293750D03*
D10*
X184875000Y-64293750D03*
D11*
X196125000Y-64293750D03*
D10*
X203925000Y-64293750D03*
X222975000Y-64293750D03*
D11*
X215175000Y-64293750D03*
D10*
X242025000Y-64293750D03*
D11*
X234225000Y-64293750D03*
D10*
X32475000Y-83343750D03*
D11*
X24675000Y-83343750D03*
X43725000Y-83343750D03*
D10*
X51525000Y-83343750D03*
D11*
X62775000Y-83343750D03*
D10*
X70575000Y-83343750D03*
D11*
X81825000Y-83343750D03*
D10*
X89625000Y-83343750D03*
X108675000Y-83343750D03*
D11*
X100875000Y-83343750D03*
X119925000Y-83343750D03*
D10*
X127725000Y-83343750D03*
X146775000Y-83343750D03*
D11*
X138975000Y-83343750D03*
D10*
X165825000Y-83343750D03*
D11*
X158025000Y-83343750D03*
D10*
X185193750Y-83343750D03*
D11*
X177393750Y-83343750D03*
X196125000Y-83343750D03*
D10*
X203925000Y-83343750D03*
X222975000Y-83343750D03*
D11*
X215175000Y-83343750D03*
D10*
X242025000Y-83343750D03*
D11*
X234225000Y-83343750D03*
X24675000Y-102393750D03*
D10*
X32475000Y-102393750D03*
X51525000Y-102393750D03*
D11*
X43725000Y-102393750D03*
X62775000Y-102393750D03*
D10*
X70575000Y-102393750D03*
D11*
X81825000Y-102393750D03*
D10*
X89625000Y-102393750D03*
D11*
X100875000Y-102393750D03*
D10*
X108675000Y-102393750D03*
D11*
X119925000Y-102393750D03*
D10*
X127725000Y-102393750D03*
D11*
X138975000Y-102393750D03*
D10*
X146775000Y-102393750D03*
D11*
X158025000Y-102393750D03*
D10*
X165825000Y-102393750D03*
X184875000Y-102393750D03*
D11*
X177075000Y-102393750D03*
X196125000Y-102393750D03*
D10*
X203925000Y-102393750D03*
X222975000Y-102393750D03*
D11*
X215175000Y-102393750D03*
D10*
X242025000Y-102393750D03*
D11*
X234225000Y-102393750D03*
D10*
X32475000Y-121443750D03*
D11*
X24675000Y-121443750D03*
X43725000Y-121443750D03*
D10*
X51525000Y-121443750D03*
D11*
X62775000Y-121443750D03*
D10*
X70575000Y-121443750D03*
D11*
X81825000Y-121443750D03*
D10*
X89625000Y-121443750D03*
X108675000Y-121443750D03*
D11*
X100875000Y-121443750D03*
X129450000Y-121443750D03*
D10*
X137250000Y-121443750D03*
X165825000Y-121443750D03*
D11*
X158025000Y-121443750D03*
D10*
X184875000Y-121443750D03*
D11*
X177075000Y-121443750D03*
D10*
X203925000Y-121443750D03*
D11*
X196125000Y-121443750D03*
D10*
X222975000Y-121443750D03*
D11*
X215175000Y-121443750D03*
X234225000Y-121443750D03*
D10*
X242025000Y-121443750D03*
D12*
X244831250Y-37458750D03*
X236181250Y-37458750D03*
D13*
X244831250Y-40838750D03*
X236181250Y-40838750D03*
D14*
X243486250Y-40493750D03*
X242636250Y-40493750D03*
X241786250Y-40493750D03*
X240936250Y-40493750D03*
X240086250Y-40493750D03*
X239236250Y-40493750D03*
X238386250Y-40493750D03*
X237531250Y-40493750D03*
X243481250Y-41818750D03*
X242631250Y-41818750D03*
X241781250Y-41818750D03*
X240931250Y-41818750D03*
X240081250Y-41818750D03*
X238381250Y-41818750D03*
X237531250Y-41818750D03*
X239231250Y-41818750D03*
D15*
X25320000Y-56011250D03*
D16*
X25924462Y-55062435D02*
X24715538Y-56960065D01*
D15*
X31095000Y-54741250D03*
D16*
X31114724Y-54451922D02*
X31075276Y-55030578D01*
D15*
X50145000Y-54741250D03*
D16*
X50164724Y-54451922D02*
X50125276Y-55030578D01*
D15*
X44370000Y-56011250D03*
D16*
X44974462Y-55062435D02*
X43765538Y-56960065D01*
D15*
X63420000Y-56011250D03*
D16*
X64024462Y-55062435D02*
X62815538Y-56960065D01*
D15*
X69195000Y-54741250D03*
D16*
X69214724Y-54451922D02*
X69175276Y-55030578D01*
D15*
X88245000Y-54741250D03*
D16*
X88264724Y-54451922D02*
X88225276Y-55030578D01*
D15*
X82470000Y-56011250D03*
D16*
X83074462Y-55062435D02*
X81865538Y-56960065D01*
D15*
X101520000Y-56011250D03*
D16*
X102124462Y-55062435D02*
X100915538Y-56960065D01*
D15*
X107295000Y-54741250D03*
D16*
X107314724Y-54451922D02*
X107275276Y-55030578D01*
D15*
X126345000Y-54741250D03*
D16*
X126364724Y-54451922D02*
X126325276Y-55030578D01*
D15*
X120570000Y-56011250D03*
D16*
X121174462Y-55062435D02*
X119965538Y-56960065D01*
D15*
X139620000Y-56011250D03*
D16*
X140224462Y-55062435D02*
X139015538Y-56960065D01*
D15*
X145395000Y-54741250D03*
D16*
X145414724Y-54451922D02*
X145375276Y-55030578D01*
D15*
X164445000Y-54741250D03*
D16*
X164464724Y-54451922D02*
X164425276Y-55030578D01*
D15*
X158670000Y-56011250D03*
D16*
X159274462Y-55062435D02*
X158065538Y-56960065D01*
D15*
X177720000Y-56011250D03*
D16*
X178324462Y-55062435D02*
X177115538Y-56960065D01*
D15*
X183495000Y-54741250D03*
D16*
X183514724Y-54451922D02*
X183475276Y-55030578D01*
D15*
X202545000Y-54741250D03*
D16*
X202564724Y-54451922D02*
X202525276Y-55030578D01*
D15*
X196770000Y-56011250D03*
D16*
X197374462Y-55062435D02*
X196165538Y-56960065D01*
D15*
X215820000Y-56011250D03*
D16*
X216424462Y-55062435D02*
X215215538Y-56960065D01*
D15*
X221595000Y-54741250D03*
D16*
X221614724Y-54451922D02*
X221575276Y-55030578D01*
D15*
X240645000Y-54741250D03*
D16*
X240664724Y-54451922D02*
X240625276Y-55030578D01*
D15*
X234870000Y-56011250D03*
D16*
X235474462Y-55062435D02*
X234265538Y-56960065D01*
D15*
X31095000Y-73791250D03*
D16*
X31114724Y-73501922D02*
X31075276Y-74080578D01*
D15*
X25320000Y-75061250D03*
D16*
X25924462Y-74112435D02*
X24715538Y-76010065D01*
D15*
X63420000Y-75061250D03*
D16*
X64024462Y-74112435D02*
X62815538Y-76010065D01*
D15*
X69195000Y-73791250D03*
D16*
X69214724Y-73501922D02*
X69175276Y-74080578D01*
D15*
X88245000Y-73791250D03*
D16*
X88264724Y-73501922D02*
X88225276Y-74080578D01*
D15*
X82470000Y-75061250D03*
D16*
X83074462Y-74112435D02*
X81865538Y-76010065D01*
D15*
X101520000Y-75061250D03*
D16*
X102124462Y-74112435D02*
X100915538Y-76010065D01*
D15*
X107295000Y-73791250D03*
D16*
X107314724Y-73501922D02*
X107275276Y-74080578D01*
D15*
X126345000Y-73791250D03*
D16*
X126364724Y-73501922D02*
X126325276Y-74080578D01*
D15*
X120570000Y-75061250D03*
D16*
X121174462Y-74112435D02*
X119965538Y-76010065D01*
D15*
X139620000Y-75061250D03*
D16*
X140224462Y-74112435D02*
X139015538Y-76010065D01*
D15*
X145395000Y-73791250D03*
D16*
X145414724Y-73501922D02*
X145375276Y-74080578D01*
D15*
X164445000Y-73791250D03*
D16*
X164464724Y-73501922D02*
X164425276Y-74080578D01*
D15*
X158670000Y-75061250D03*
D16*
X159274462Y-74112435D02*
X158065538Y-76010065D01*
D15*
X177720000Y-75061250D03*
D16*
X178324462Y-74112435D02*
X177115538Y-76010065D01*
D15*
X183495000Y-73791250D03*
D16*
X183514724Y-73501922D02*
X183475276Y-74080578D01*
D15*
X202545000Y-73791250D03*
D16*
X202564724Y-73501922D02*
X202525276Y-74080578D01*
D15*
X196770000Y-75061250D03*
D16*
X197374462Y-74112435D02*
X196165538Y-76010065D01*
D15*
X215820000Y-75061250D03*
D16*
X216424462Y-74112435D02*
X215215538Y-76010065D01*
D15*
X221595000Y-73791250D03*
D16*
X221614724Y-73501922D02*
X221575276Y-74080578D01*
D15*
X234870000Y-75061250D03*
D16*
X235474462Y-74112435D02*
X234265538Y-76010065D01*
D15*
X240645000Y-73791250D03*
D16*
X240664724Y-73501922D02*
X240625276Y-74080578D01*
D15*
X31095000Y-92841250D03*
D16*
X31114724Y-92551922D02*
X31075276Y-93130578D01*
D15*
X25320000Y-94111250D03*
D16*
X25924462Y-93162435D02*
X24715538Y-95060065D01*
D15*
X50145000Y-92841250D03*
D16*
X50164724Y-92551922D02*
X50125276Y-93130578D01*
D15*
X44370000Y-94111250D03*
D16*
X44974462Y-93162435D02*
X43765538Y-95060065D01*
D15*
X63420000Y-94111250D03*
D16*
X64024462Y-93162435D02*
X62815538Y-95060065D01*
D15*
X69195000Y-92841250D03*
D16*
X69214724Y-92551922D02*
X69175276Y-93130578D01*
D15*
X88245000Y-92841250D03*
D16*
X88264724Y-92551922D02*
X88225276Y-93130578D01*
D15*
X82470000Y-94111250D03*
D16*
X83074462Y-93162435D02*
X81865538Y-95060065D01*
D15*
X101520000Y-94111250D03*
D16*
X102124462Y-93162435D02*
X100915538Y-95060065D01*
D15*
X107295000Y-92841250D03*
D16*
X107314724Y-92551922D02*
X107275276Y-93130578D01*
D15*
X120570000Y-94111250D03*
D16*
X121174462Y-93162435D02*
X119965538Y-95060065D01*
D15*
X126345000Y-92841250D03*
D16*
X126364724Y-92551922D02*
X126325276Y-93130578D01*
D15*
X139620000Y-94111250D03*
D16*
X140224462Y-93162435D02*
X139015538Y-95060065D01*
D15*
X145395000Y-92841250D03*
D16*
X145414724Y-92551922D02*
X145375276Y-93130578D01*
D15*
X158670000Y-94111250D03*
D16*
X159274462Y-93162435D02*
X158065538Y-95060065D01*
D15*
X164445000Y-92841250D03*
D16*
X164464724Y-92551922D02*
X164425276Y-93130578D01*
D15*
X183495000Y-92841250D03*
D16*
X183514724Y-92551922D02*
X183475276Y-93130578D01*
D15*
X177720000Y-94111250D03*
D16*
X178324462Y-93162435D02*
X177115538Y-95060065D01*
D15*
X202545000Y-92841250D03*
D16*
X202564724Y-92551922D02*
X202525276Y-93130578D01*
D15*
X196770000Y-94111250D03*
D16*
X197374462Y-93162435D02*
X196165538Y-95060065D01*
D15*
X215820000Y-94111250D03*
D16*
X216424462Y-93162435D02*
X215215538Y-95060065D01*
D15*
X221595000Y-92841250D03*
D16*
X221614724Y-92551922D02*
X221575276Y-93130578D01*
D15*
X240645000Y-92841250D03*
D16*
X240664724Y-92551922D02*
X240625276Y-93130578D01*
D15*
X234870000Y-94111250D03*
D16*
X235474462Y-93162435D02*
X234265538Y-95060065D01*
D15*
X25320000Y-113161250D03*
D16*
X25924462Y-112212435D02*
X24715538Y-114110065D01*
D15*
X31095000Y-111891250D03*
D16*
X31114724Y-111601922D02*
X31075276Y-112180578D01*
D15*
X50145000Y-111891250D03*
D16*
X50164724Y-111601922D02*
X50125276Y-112180578D01*
D15*
X44370000Y-113161250D03*
D16*
X44974462Y-112212435D02*
X43765538Y-114110065D01*
D15*
X63420000Y-113161250D03*
D16*
X64024462Y-112212435D02*
X62815538Y-114110065D01*
D15*
X69195000Y-111891250D03*
D16*
X69214724Y-111601922D02*
X69175276Y-112180578D01*
D15*
X88245000Y-111891250D03*
D16*
X88264724Y-111601922D02*
X88225276Y-112180578D01*
D15*
X82470000Y-113161250D03*
D16*
X83074462Y-112212435D02*
X81865538Y-114110065D01*
D15*
X107295000Y-111891250D03*
D16*
X107314724Y-111601922D02*
X107275276Y-112180578D01*
D15*
X101520000Y-113161250D03*
D16*
X102124462Y-112212435D02*
X100915538Y-114110065D01*
D15*
X135870000Y-111891250D03*
D16*
X135889724Y-111601922D02*
X135850276Y-112180578D01*
D15*
X130095000Y-113161250D03*
D16*
X130699462Y-112212435D02*
X129490538Y-114110065D01*
D15*
X158670000Y-113161250D03*
D16*
X159274462Y-112212435D02*
X158065538Y-114110065D01*
D15*
X164445000Y-111891250D03*
D16*
X164464724Y-111601922D02*
X164425276Y-112180578D01*
D15*
X183495000Y-111891250D03*
D16*
X183514724Y-111601922D02*
X183475276Y-112180578D01*
D15*
X177720000Y-113161250D03*
D16*
X178324462Y-112212435D02*
X177115538Y-114110065D01*
D15*
X202545000Y-111891250D03*
D16*
X202564724Y-111601922D02*
X202525276Y-112180578D01*
D15*
X196770000Y-113161250D03*
D16*
X197374462Y-112212435D02*
X196165538Y-114110065D01*
D15*
X215820000Y-113161250D03*
D16*
X216424462Y-112212435D02*
X215215538Y-114110065D01*
D15*
X221595000Y-111891250D03*
D16*
X221614724Y-111601922D02*
X221575276Y-112180578D01*
D15*
X234870000Y-113161250D03*
D16*
X235474462Y-112212435D02*
X234265538Y-114110065D01*
D15*
X240645000Y-111891250D03*
D16*
X240664724Y-111601922D02*
X240625276Y-112180578D01*
D17*
X215925000Y-42862500D03*
X222225000Y-42862500D03*
X215925000Y-46662500D03*
X222225000Y-46662500D03*
D15*
X44370000Y-75061250D03*
D16*
X44974462Y-74112435D02*
X43765538Y-76010065D01*
D15*
X50145000Y-73791250D03*
D16*
X50164724Y-73501922D02*
X50125276Y-74080578D01*
M02*
