M48
; DRILL file {KiCad (5.1.0)-1} date 8/27/2020 1:02:30 AM
; FORMAT={-:-/ absolute / inch / decimal}
; #@! TF.CreationDate,2020-08-27T01:02:30-04:00
; #@! TF.GenerationSoftware,Kicad,Pcbnew,(5.1.0)-1
; #@! TF.FileFunction,Plated,1,2,PTH
FMAT,2
INCH
T1C0.0157
T2C0.0236
T3C0.0276
T4C0.0591
%
G90
G05
T1
X9.3516Y-1.5942
X9.3516Y-1.6464
X9.3851Y-1.6464
X9.3853Y-1.5942
X9.4186Y-1.6464
X9.4187Y-1.5942
X9.452Y-1.6464
X9.4522Y-1.5942
X9.4855Y-1.6464
X9.4857Y-1.5942
X9.5189Y-1.6464
X9.5191Y-1.5942
X9.5524Y-1.6464
X9.5526Y-1.5942
X9.5859Y-1.6464
X9.5861Y-1.5942
T3
X1.7215Y-2.5312
X2.0285Y-2.5312
X0.9715Y-4.0312
X1.2785Y-4.0312
X6.2215Y-4.7812
X6.5285Y-4.7812
X7.7215Y-4.0312
X8.0285Y-4.0312
X5.4715Y-3.2812
X5.7785Y-3.2812
X0.9715Y-4.7812
X1.2785Y-4.7812
X6.2215Y-2.5312
X6.5285Y-2.5312
X7.7215Y-3.2812
X8.0285Y-3.2812
X7.7215Y-2.5312
X8.0285Y-2.5312
X3.2215Y-4.0312
X3.5285Y-4.0312
X9.2215Y-2.5312
X9.5285Y-2.5312
X6.2215Y-3.2812
X6.5285Y-3.2812
X3.9715Y-3.2812
X4.2785Y-3.2812
X5.4715Y-4.0312
X5.7785Y-4.0312
X6.2215Y-4.0312
X6.5285Y-4.0312
X4.7215Y-2.5312
X5.0285Y-2.5312
X3.2215Y-2.5312
X3.5285Y-2.5312
X9.2215Y-3.2812
X9.5285Y-3.2812
X7.7215Y-4.7812
X8.0285Y-4.7812
X5.4715Y-2.5312
X5.7785Y-2.5312
X3.9715Y-2.5312
X4.2785Y-2.5312
X8.4715Y-4.0312
X8.7785Y-4.0312
X3.9715Y-4.7812
X4.2785Y-4.7812
X8.4715Y-3.2812
X8.7785Y-3.2812
X2.4715Y-4.7812
X2.7785Y-4.7812
X4.7215Y-3.2812
X5.0285Y-3.2812
X8.4715Y-4.7812
X8.7785Y-4.7812
X0.9589Y-2.5312
X1.266Y-2.5312
X0.9715Y-3.2812
X1.2785Y-3.2812
X1.7215Y-4.0312
X2.0285Y-4.0312
X3.2215Y-3.2812
X3.5285Y-3.2812
X1.7215Y-4.7812
X2.0285Y-4.7812
X6.984Y-3.2812
X7.2911Y-3.2812
X9.2215Y-4.0312
X9.5285Y-4.0312
X6.9715Y-4.0312
X7.2785Y-4.0312
X3.2215Y-4.7812
X3.5285Y-4.7812
X6.9715Y-2.5312
X7.2785Y-2.5312
X9.2215Y-4.7812
X9.5285Y-4.7812
X8.4715Y-2.5312
X8.7785Y-2.5312
X2.4715Y-4.0312
X2.7785Y-4.0312
X6.9715Y-4.7812
X7.2785Y-4.7812
X2.4715Y-3.2812
X2.7785Y-3.2812
X3.9715Y-4.0312
X4.2785Y-4.0312
X4.7215Y-4.0312
X5.0285Y-4.0312
X1.7215Y-3.2812
X2.0285Y-3.2812
X2.4715Y-2.5312
X2.7785Y-2.5312
X5.0965Y-4.7812
X5.4035Y-4.7812
T2
G00X9.2985Y-1.459
M15
G01X9.2985Y-1.4905
M16
G05
G00X9.2985Y-1.5783
M15
G01X9.2985Y-1.6374
M16
G05
G00X9.639Y-1.459
M15
G01X9.639Y-1.4905
M16
G05
G00X9.639Y-1.5783
M15
G01X9.639Y-1.6374
M16
G05
T4
G00X2.5206Y-3.6678
M15
G01X2.4731Y-3.7425
M16
G05
G00X2.725Y-3.6438
M15
G01X2.7234Y-3.6666
M16
G05
G00X7.0206Y-4.4178
M15
G01X6.9731Y-4.4925
M16
G05
G00X7.225Y-4.3938
M15
G01X7.2234Y-4.4166
M16
G05
G00X9.2706Y-2.9178
M15
G01X9.2231Y-2.9925
M16
G05
G00X9.475Y-2.8938
M15
G01X9.4734Y-2.9166
M16
G05
G00X4.7706Y-3.6678
M15
G01X4.7231Y-3.7425
M16
G05
G00X4.975Y-3.6438
M15
G01X4.9734Y-3.6666
M16
G05
G00X1.7706Y-4.4178
M15
G01X1.7231Y-4.4925
M16
G05
G00X1.975Y-4.3938
M15
G01X1.9734Y-4.4166
M16
G05
G00X7.7706Y-2.1678
M15
G01X7.7231Y-2.2425
M16
G05
G00X7.975Y-2.1438
M15
G01X7.9734Y-2.1666
M16
G05
G00X4.0206Y-3.6678
M15
G01X3.9731Y-3.7425
M16
G05
G00X4.225Y-3.6438
M15
G01X4.2234Y-3.6666
M16
G05
G00X1.0206Y-2.1678
M15
G01X0.9731Y-2.2425
M16
G05
G00X1.225Y-2.1438
M15
G01X1.2234Y-2.1666
M16
G05
G00X1.0206Y-2.9178
M15
G01X0.9731Y-2.9925
M16
G05
G00X1.225Y-2.8938
M15
G01X1.2234Y-2.9166
M16
G05
G00X3.2706Y-4.4178
M15
G01X3.2231Y-4.4925
M16
G05
G00X3.475Y-4.3938
M15
G01X3.4734Y-4.4166
M16
G05
G00X4.0206Y-2.1678
M15
G01X3.9731Y-2.2425
M16
G05
G00X4.225Y-2.1438
M15
G01X4.2234Y-2.1666
M16
G05
G00X4.0206Y-2.9178
M15
G01X3.9731Y-2.9925
M16
G05
G00X4.225Y-2.8938
M15
G01X4.2234Y-2.9166
M16
G05
G00X5.1456Y-4.4178
M15
G01X5.0981Y-4.4925
M16
G05
G00X5.35Y-4.3938
M15
G01X5.3484Y-4.4166
M16
G05
G00X6.2706Y-2.9178
M15
G01X6.2231Y-2.9925
M16
G05
G00X6.475Y-2.8938
M15
G01X6.4734Y-2.9166
M16
G05
G00X4.7706Y-2.1678
M15
G01X4.7231Y-2.2425
M16
G05
G00X4.975Y-2.1438
M15
G01X4.9734Y-2.1666
M16
G05
G00X7.0206Y-2.9178
M15
G01X6.9731Y-2.9925
M16
G05
G00X7.225Y-2.8938
M15
G01X7.2234Y-2.9166
M16
G05
G00X1.7706Y-3.6678
M15
G01X1.7231Y-3.7425
M16
G05
G00X1.975Y-3.6438
M15
G01X1.9734Y-3.6666
M16
G05
G00X8.5206Y-3.6678
M15
G01X8.4731Y-3.7425
M16
G05
G00X8.725Y-3.6438
M15
G01X8.7234Y-3.6666
M16
G05
G00X5.5206Y-3.6678
M15
G01X5.4731Y-3.7425
M16
G05
G00X5.725Y-3.6438
M15
G01X5.7234Y-3.6666
M16
G05
G00X8.5206Y-2.1678
M15
G01X8.4731Y-2.2425
M16
G05
G00X8.725Y-2.1438
M15
G01X8.7234Y-2.1666
M16
G05
G00X6.2706Y-3.6678
M15
G01X6.2231Y-3.7425
M16
G05
G00X6.475Y-3.6438
M15
G01X6.4734Y-3.6666
M16
G05
G00X1.7706Y-2.1678
M15
G01X1.7231Y-2.2425
M16
G05
G00X1.975Y-2.1438
M15
G01X1.9734Y-2.1666
M16
G05
G00X2.5206Y-4.4178
M15
G01X2.4731Y-4.4925
M16
G05
G00X2.725Y-4.3938
M15
G01X2.7234Y-4.4166
M16
G05
G00X2.5206Y-2.9178
M15
G01X2.4731Y-2.9925
M16
G05
G00X2.725Y-2.8938
M15
G01X2.7234Y-2.9166
M16
G05
G00X7.7706Y-4.4178
M15
G01X7.7231Y-4.4925
M16
G05
G00X7.975Y-4.3938
M15
G01X7.9734Y-4.4166
M16
G05
G00X8.5206Y-4.4178
M15
G01X8.4731Y-4.4925
M16
G05
G00X8.725Y-4.3938
M15
G01X8.7234Y-4.4166
M16
G05
G00X4.7706Y-2.9178
M15
G01X4.7231Y-2.9925
M16
G05
G00X4.975Y-2.8938
M15
G01X4.9734Y-2.9166
M16
G05
G00X1.7706Y-2.9178
M15
G01X1.7231Y-2.9925
M16
G05
G00X1.975Y-2.8938
M15
G01X1.9734Y-2.9166
M16
G05
G00X9.2706Y-4.4178
M15
G01X9.2231Y-4.4925
M16
G05
G00X9.475Y-4.3938
M15
G01X9.4734Y-4.4166
M16
G05
G00X7.7706Y-2.9178
M15
G01X7.7231Y-2.9925
M16
G05
G00X7.975Y-2.8938
M15
G01X7.9734Y-2.9166
M16
G05
G00X6.2706Y-4.4178
M15
G01X6.2231Y-4.4925
M16
G05
G00X6.475Y-4.3938
M15
G01X6.4734Y-4.4166
M16
G05
G00X3.2706Y-3.6678
M15
G01X3.2231Y-3.7425
M16
G05
G00X3.475Y-3.6438
M15
G01X3.4734Y-3.6666
M16
G05
G00X1.0206Y-3.6678
M15
G01X0.9731Y-3.7425
M16
G05
G00X1.225Y-3.6438
M15
G01X1.2234Y-3.6666
M16
G05
G00X9.2706Y-3.6678
M15
G01X9.2231Y-3.7425
M16
G05
G00X9.475Y-3.6438
M15
G01X9.4734Y-3.6666
M16
G05
G00X8.5206Y-2.9178
M15
G01X8.4731Y-2.9925
M16
G05
G00X8.725Y-2.8938
M15
G01X8.7234Y-2.9166
M16
G05
G00X9.2706Y-2.1678
M15
G01X9.2231Y-2.2425
M16
G05
G00X9.475Y-2.1438
M15
G01X9.4734Y-2.1666
M16
G05
G00X7.0206Y-3.6678
M15
G01X6.9731Y-3.7425
M16
G05
G00X7.225Y-3.6438
M15
G01X7.2234Y-3.6666
M16
G05
G00X2.5206Y-2.1678
M15
G01X2.4731Y-2.2425
M16
G05
G00X2.725Y-2.1438
M15
G01X2.7234Y-2.1666
M16
G05
G00X1.0206Y-4.4178
M15
G01X0.9731Y-4.4925
M16
G05
G00X1.225Y-4.3938
M15
G01X1.2234Y-4.4166
M16
G05
G00X3.2706Y-2.9178
M15
G01X3.2231Y-2.9925
M16
G05
G00X3.475Y-2.8938
M15
G01X3.4734Y-2.9166
M16
G05
G00X5.5206Y-2.1678
M15
G01X5.4731Y-2.2425
M16
G05
G00X5.725Y-2.1438
M15
G01X5.7234Y-2.1666
M16
G05
G00X3.2706Y-2.1678
M15
G01X3.2231Y-2.2425
M16
G05
G00X3.475Y-2.1438
M15
G01X3.4734Y-2.1666
M16
G05
G00X4.0206Y-4.4178
M15
G01X3.9731Y-4.4925
M16
G05
G00X4.225Y-4.3938
M15
G01X4.2234Y-4.4166
M16
G05
G00X5.5206Y-2.9178
M15
G01X5.4731Y-2.9925
M16
G05
G00X5.725Y-2.8938
M15
G01X5.7234Y-2.9166
M16
G05
G00X6.2706Y-2.1678
M15
G01X6.2231Y-2.2425
M16
G05
G00X6.475Y-2.1438
M15
G01X6.4734Y-2.1666
M16
G05
G00X7.7706Y-3.6678
M15
G01X7.7231Y-3.7425
M16
G05
G00X7.975Y-3.6438
M15
G01X7.9734Y-3.6666
M16
G05
G00X7.0206Y-2.1678
M15
G01X6.9731Y-2.2425
M16
G05
G00X7.225Y-2.1438
M15
G01X7.2234Y-2.1666
M16
G05
T0
M30
