%FSLAX45Y45*%
G04 Gerber Fmt 4.5, Leading zero omitted, Abs format (unit mm)*
G04 Created by KiCad (PCBNEW (5.1.0)-1) date 2020-08-27 01:01:52*
%MOMM*%
%LPD*%
G04 APERTURE LIST*
%ADD10C,0.050000*%
%ADD11C,0.200000*%
%ADD12C,0.300000*%
G04 APERTURE END LIST*
D10*
X25003125Y-12858750D02*
X25003125Y-4286250D01*
X1666875Y-12858750D02*
X25003125Y-12858750D01*
X25003125Y-3571875D02*
X1666875Y-3571875D01*
X25003125Y-4286250D02*
X25003125Y-3571875D01*
X1666875Y-12620625D02*
X1666875Y-12858750D01*
X1666875Y-3571875D02*
X1666875Y-12620625D01*
D11*
X19409410Y-7773035D02*
X19579590Y-7943215D01*
X19579590Y-7773035D02*
X19409410Y-7943215D01*
X20425410Y-7773035D02*
X20595590Y-7943215D01*
X20595590Y-7773035D02*
X20425410Y-7943215D01*
X15599410Y-11583035D02*
X15769590Y-11753215D01*
X15769590Y-11583035D02*
X15599410Y-11753215D01*
X16615410Y-11583035D02*
X16785590Y-11753215D01*
X16785590Y-11583035D02*
X16615410Y-11753215D01*
X7979410Y-9678035D02*
X8149590Y-9848215D01*
X8149590Y-9678035D02*
X7979410Y-9848215D01*
X8995410Y-9678035D02*
X9165590Y-9848215D01*
X9165590Y-9678035D02*
X8995410Y-9848215D01*
X2264410Y-9678035D02*
X2434590Y-9848215D01*
X2434590Y-9678035D02*
X2264410Y-9848215D01*
X3280410Y-9678035D02*
X3450590Y-9848215D01*
X3450590Y-9678035D02*
X3280410Y-9848215D01*
X23219410Y-9678035D02*
X23389590Y-9848215D01*
X23389590Y-9678035D02*
X23219410Y-9848215D01*
X24235410Y-9678035D02*
X24405590Y-9848215D01*
X24405590Y-9678035D02*
X24235410Y-9848215D01*
X21314410Y-7773035D02*
X21484590Y-7943215D01*
X21484590Y-7773035D02*
X21314410Y-7943215D01*
X22330410Y-7773035D02*
X22500590Y-7943215D01*
X22500590Y-7773035D02*
X22330410Y-7943215D01*
X23219410Y-5868035D02*
X23389590Y-6038215D01*
X23389590Y-5868035D02*
X23219410Y-6038215D01*
X24235410Y-5868035D02*
X24405590Y-6038215D01*
X24405590Y-5868035D02*
X24235410Y-6038215D01*
X17504410Y-9678035D02*
X17674590Y-9848215D01*
X17674590Y-9678035D02*
X17504410Y-9848215D01*
X18520410Y-9678035D02*
X18690590Y-9848215D01*
X18690590Y-9678035D02*
X18520410Y-9848215D01*
X6074410Y-5868035D02*
X6244590Y-6038215D01*
X6244590Y-5868035D02*
X6074410Y-6038215D01*
X7090410Y-5868035D02*
X7260590Y-6038215D01*
X7260590Y-5868035D02*
X7090410Y-6038215D01*
X2264410Y-11583035D02*
X2434590Y-11753215D01*
X2434590Y-11583035D02*
X2264410Y-11753215D01*
X3280410Y-11583035D02*
X3450590Y-11753215D01*
X3450590Y-11583035D02*
X3280410Y-11753215D01*
X7979410Y-7773035D02*
X8149590Y-7943215D01*
X8149590Y-7773035D02*
X7979410Y-7943215D01*
X8995410Y-7773035D02*
X9165590Y-7943215D01*
X9165590Y-7773035D02*
X8995410Y-7943215D01*
X13694410Y-5868035D02*
X13864590Y-6038215D01*
X13864590Y-5868035D02*
X13694410Y-6038215D01*
X14710410Y-5868035D02*
X14880590Y-6038215D01*
X14880590Y-5868035D02*
X14710410Y-6038215D01*
X7979410Y-5868035D02*
X8149590Y-6038215D01*
X8149590Y-5868035D02*
X7979410Y-6038215D01*
X8995410Y-5868035D02*
X9165590Y-6038215D01*
X9165590Y-5868035D02*
X8995410Y-6038215D01*
X9884410Y-11583035D02*
X10054590Y-11753215D01*
X10054590Y-11583035D02*
X9884410Y-11753215D01*
X10900410Y-11583035D02*
X11070590Y-11753215D01*
X11070590Y-11583035D02*
X10900410Y-11753215D01*
X13694410Y-7773035D02*
X13864590Y-7943215D01*
X13864590Y-7773035D02*
X13694410Y-7943215D01*
X14710410Y-7773035D02*
X14880590Y-7943215D01*
X14880590Y-7773035D02*
X14710410Y-7943215D01*
X15599410Y-5868035D02*
X15769590Y-6038215D01*
X15769590Y-5868035D02*
X15599410Y-6038215D01*
X16615410Y-5868035D02*
X16785590Y-6038215D01*
X16785590Y-5868035D02*
X16615410Y-6038215D01*
X19409410Y-9678035D02*
X19579590Y-9848215D01*
X19579590Y-9678035D02*
X19409410Y-9848215D01*
X20425410Y-9678035D02*
X20595590Y-9848215D01*
X20595590Y-9678035D02*
X20425410Y-9848215D01*
X17504410Y-5868035D02*
X17674590Y-6038215D01*
X17674590Y-5868035D02*
X17504410Y-6038215D01*
X18520410Y-5868035D02*
X18690590Y-6038215D01*
X18690590Y-5868035D02*
X18520410Y-6038215D01*
X6074410Y-9678035D02*
X6244590Y-9848215D01*
X6244590Y-9678035D02*
X6074410Y-9848215D01*
X7090410Y-9678035D02*
X7260590Y-9848215D01*
X7260590Y-9678035D02*
X7090410Y-9848215D01*
X17504410Y-11583035D02*
X17674590Y-11753215D01*
X17674590Y-11583035D02*
X17504410Y-11753215D01*
X18520410Y-11583035D02*
X18690590Y-11753215D01*
X18690590Y-11583035D02*
X18520410Y-11753215D01*
X23219410Y-7773035D02*
X23389590Y-7943215D01*
X23389590Y-7773035D02*
X23219410Y-7943215D01*
X24235410Y-7773035D02*
X24405590Y-7943215D01*
X24405590Y-7773035D02*
X24235410Y-7943215D01*
X11789410Y-9678035D02*
X11959590Y-9848215D01*
X11959590Y-9678035D02*
X11789410Y-9848215D01*
X12805410Y-9678035D02*
X12975590Y-9848215D01*
X12975590Y-9678035D02*
X12805410Y-9848215D01*
X4169410Y-11583035D02*
X4339590Y-11753215D01*
X4339590Y-11583035D02*
X4169410Y-11753215D01*
X5185410Y-11583035D02*
X5355590Y-11753215D01*
X5355590Y-11583035D02*
X5185410Y-11753215D01*
X19409410Y-5868035D02*
X19579590Y-6038215D01*
X19579590Y-5868035D02*
X19409410Y-6038215D01*
X20425410Y-5868035D02*
X20595590Y-6038215D01*
X20595590Y-5868035D02*
X20425410Y-6038215D01*
X9884410Y-9678035D02*
X10054590Y-9848215D01*
X10054590Y-9678035D02*
X9884410Y-9848215D01*
X10900410Y-9678035D02*
X11070590Y-9848215D01*
X11070590Y-9678035D02*
X10900410Y-9848215D01*
X2264410Y-5868035D02*
X2434590Y-6038215D01*
X2434590Y-5868035D02*
X2264410Y-6038215D01*
X3280410Y-5868035D02*
X3450590Y-6038215D01*
X3450590Y-5868035D02*
X3280410Y-6038215D01*
X2264410Y-7773035D02*
X2434590Y-7943215D01*
X2434590Y-7773035D02*
X2264410Y-7943215D01*
X3280410Y-7773035D02*
X3450590Y-7943215D01*
X3450590Y-7773035D02*
X3280410Y-7943215D01*
X7979410Y-11583035D02*
X8149590Y-11753215D01*
X8149590Y-11583035D02*
X7979410Y-11753215D01*
X8995410Y-11583035D02*
X9165590Y-11753215D01*
X9165590Y-11583035D02*
X8995410Y-11753215D01*
X9884410Y-5868035D02*
X10054590Y-6038215D01*
X10054590Y-5868035D02*
X9884410Y-6038215D01*
X10900410Y-5868035D02*
X11070590Y-6038215D01*
X11070590Y-5868035D02*
X10900410Y-6038215D01*
X9884410Y-7773035D02*
X10054590Y-7943215D01*
X10054590Y-7773035D02*
X9884410Y-7943215D01*
X10900410Y-7773035D02*
X11070590Y-7943215D01*
X11070590Y-7773035D02*
X10900410Y-7943215D01*
X12741910Y-11583035D02*
X12912090Y-11753215D01*
X12912090Y-11583035D02*
X12741910Y-11753215D01*
X13757910Y-11583035D02*
X13928090Y-11753215D01*
X13928090Y-11583035D02*
X13757910Y-11753215D01*
X15599410Y-7773035D02*
X15769590Y-7943215D01*
X15769590Y-7773035D02*
X15599410Y-7943215D01*
X16615410Y-7773035D02*
X16785590Y-7943215D01*
X16785590Y-7773035D02*
X16615410Y-7943215D01*
X11789410Y-5868035D02*
X11959590Y-6038215D01*
X11959590Y-5868035D02*
X11789410Y-6038215D01*
X12805410Y-5868035D02*
X12975590Y-6038215D01*
X12975590Y-5868035D02*
X12805410Y-6038215D01*
X17504410Y-7773035D02*
X17674590Y-7943215D01*
X17674590Y-7773035D02*
X17504410Y-7943215D01*
X18520410Y-7773035D02*
X18690590Y-7943215D01*
X18690590Y-7773035D02*
X18520410Y-7943215D01*
X4169410Y-9678035D02*
X4339590Y-9848215D01*
X4339590Y-9678035D02*
X4169410Y-9848215D01*
X5185410Y-9678035D02*
X5355590Y-9848215D01*
X5355590Y-9678035D02*
X5185410Y-9848215D01*
X21314410Y-9678035D02*
X21484590Y-9848215D01*
X21484590Y-9678035D02*
X21314410Y-9848215D01*
X22330410Y-9678035D02*
X22500590Y-9848215D01*
X22500590Y-9678035D02*
X22330410Y-9848215D01*
X13694410Y-9678035D02*
X13864590Y-9848215D01*
X13864590Y-9678035D02*
X13694410Y-9848215D01*
X14710410Y-9678035D02*
X14880590Y-9848215D01*
X14880590Y-9678035D02*
X14710410Y-9848215D01*
X21314410Y-5868035D02*
X21484590Y-6038215D01*
X21484590Y-5868035D02*
X21314410Y-6038215D01*
X22330410Y-5868035D02*
X22500590Y-6038215D01*
X22500590Y-5868035D02*
X22330410Y-6038215D01*
X15599410Y-9678035D02*
X15769590Y-9848215D01*
X15769590Y-9678035D02*
X15599410Y-9848215D01*
X16615410Y-9678035D02*
X16785590Y-9848215D01*
X16785590Y-9678035D02*
X16615410Y-9848215D01*
X4169410Y-5868035D02*
X4339590Y-6038215D01*
X4339590Y-5868035D02*
X4169410Y-6038215D01*
X5185410Y-5868035D02*
X5355590Y-6038215D01*
X5355590Y-5868035D02*
X5185410Y-6038215D01*
X6074410Y-11583035D02*
X6244590Y-11753215D01*
X6244590Y-11583035D02*
X6074410Y-11753215D01*
X7090410Y-11583035D02*
X7260590Y-11753215D01*
X7260590Y-11583035D02*
X7090410Y-11753215D01*
X6074410Y-7773035D02*
X6244590Y-7943215D01*
X6244590Y-7773035D02*
X6074410Y-7943215D01*
X7090410Y-7773035D02*
X7260590Y-7943215D01*
X7260590Y-7773035D02*
X7090410Y-7943215D01*
X19409410Y-11583035D02*
X19579590Y-11753215D01*
X19579590Y-11583035D02*
X19409410Y-11753215D01*
X20425410Y-11583035D02*
X20595590Y-11753215D01*
X20595590Y-11583035D02*
X20425410Y-11753215D01*
X21314410Y-11583035D02*
X21484590Y-11753215D01*
X21484590Y-11583035D02*
X21314410Y-11753215D01*
X22330410Y-11583035D02*
X22500590Y-11753215D01*
X22500590Y-11583035D02*
X22330410Y-11753215D01*
X11789410Y-7773035D02*
X11959590Y-7943215D01*
X11959590Y-7773035D02*
X11789410Y-7943215D01*
X12805410Y-7773035D02*
X12975590Y-7943215D01*
X12975590Y-7773035D02*
X12805410Y-7943215D01*
X4169410Y-7773035D02*
X4339590Y-7943215D01*
X4339590Y-7773035D02*
X4169410Y-7943215D01*
X5185410Y-7773035D02*
X5355590Y-7943215D01*
X5355590Y-7773035D02*
X5185410Y-7943215D01*
X23219410Y-11583035D02*
X23389590Y-11753215D01*
X23389590Y-11583035D02*
X23219410Y-11753215D01*
X24235410Y-11583035D02*
X24405590Y-11753215D01*
X24405590Y-11583035D02*
X24235410Y-11753215D01*
X12581890Y-9763125D02*
G75*
G03X12581890Y-9763125I-199390J0D01*
G01*
X4961890Y-11668125D02*
G75*
G03X4961890Y-11668125I-199390J0D01*
G01*
X20201890Y-5953125D02*
G75*
G03X20201890Y-5953125I-199390J0D01*
G01*
X10676890Y-9763125D02*
G75*
G03X10676890Y-9763125I-199390J0D01*
G01*
X3056890Y-5953125D02*
G75*
G03X3056890Y-5953125I-199390J0D01*
G01*
X3056890Y-7858125D02*
G75*
G03X3056890Y-7858125I-199390J0D01*
G01*
X8771890Y-11668125D02*
G75*
G03X8771890Y-11668125I-199390J0D01*
G01*
X10676890Y-5953125D02*
G75*
G03X10676890Y-5953125I-199390J0D01*
G01*
X10676890Y-7858125D02*
G75*
G03X10676890Y-7858125I-199390J0D01*
G01*
X13534390Y-11668125D02*
G75*
G03X13534390Y-11668125I-199390J0D01*
G01*
X16391890Y-7858125D02*
G75*
G03X16391890Y-7858125I-199390J0D01*
G01*
X12581890Y-5953125D02*
G75*
G03X12581890Y-5953125I-199390J0D01*
G01*
X18296890Y-7858125D02*
G75*
G03X18296890Y-7858125I-199390J0D01*
G01*
X4961890Y-9763125D02*
G75*
G03X4961890Y-9763125I-199390J0D01*
G01*
X22106890Y-9763125D02*
G75*
G03X22106890Y-9763125I-199390J0D01*
G01*
X14486890Y-9763125D02*
G75*
G03X14486890Y-9763125I-199390J0D01*
G01*
X22106890Y-5953125D02*
G75*
G03X22106890Y-5953125I-199390J0D01*
G01*
X16391890Y-9763125D02*
G75*
G03X16391890Y-9763125I-199390J0D01*
G01*
X4961890Y-5953125D02*
G75*
G03X4961890Y-5953125I-199390J0D01*
G01*
X6866890Y-11668125D02*
G75*
G03X6866890Y-11668125I-199390J0D01*
G01*
X6866890Y-7858125D02*
G75*
G03X6866890Y-7858125I-199390J0D01*
G01*
X20201890Y-11668125D02*
G75*
G03X20201890Y-11668125I-199390J0D01*
G01*
X22106890Y-11668125D02*
G75*
G03X22106890Y-11668125I-199390J0D01*
G01*
X12581890Y-7858125D02*
G75*
G03X12581890Y-7858125I-199390J0D01*
G01*
X4961890Y-7858125D02*
G75*
G03X4961890Y-7858125I-199390J0D01*
G01*
X24011890Y-11668125D02*
G75*
G03X24011890Y-11668125I-199390J0D01*
G01*
X20201890Y-7858125D02*
G75*
G03X20201890Y-7858125I-199390J0D01*
G01*
X16391890Y-11668125D02*
G75*
G03X16391890Y-11668125I-199390J0D01*
G01*
X8771890Y-9763125D02*
G75*
G03X8771890Y-9763125I-199390J0D01*
G01*
X3056890Y-9763125D02*
G75*
G03X3056890Y-9763125I-199390J0D01*
G01*
X24011890Y-9763125D02*
G75*
G03X24011890Y-9763125I-199390J0D01*
G01*
X22106890Y-7858125D02*
G75*
G03X22106890Y-7858125I-199390J0D01*
G01*
X24011890Y-5953125D02*
G75*
G03X24011890Y-5953125I-199390J0D01*
G01*
X18296890Y-9763125D02*
G75*
G03X18296890Y-9763125I-199390J0D01*
G01*
X6866890Y-5953125D02*
G75*
G03X6866890Y-5953125I-199390J0D01*
G01*
X3056890Y-11668125D02*
G75*
G03X3056890Y-11668125I-199390J0D01*
G01*
X8771890Y-7858125D02*
G75*
G03X8771890Y-7858125I-199390J0D01*
G01*
X14486890Y-5953125D02*
G75*
G03X14486890Y-5953125I-199390J0D01*
G01*
X8771890Y-5953125D02*
G75*
G03X8771890Y-5953125I-199390J0D01*
G01*
X10676890Y-11668125D02*
G75*
G03X10676890Y-11668125I-199390J0D01*
G01*
X14486890Y-7858125D02*
G75*
G03X14486890Y-7858125I-199390J0D01*
G01*
X16391890Y-5953125D02*
G75*
G03X16391890Y-5953125I-199390J0D01*
G01*
X20201890Y-9763125D02*
G75*
G03X20201890Y-9763125I-199390J0D01*
G01*
X18296890Y-5953125D02*
G75*
G03X18296890Y-5953125I-199390J0D01*
G01*
X6866890Y-9763125D02*
G75*
G03X6866890Y-9763125I-199390J0D01*
G01*
X18296890Y-11668125D02*
G75*
G03X18296890Y-11668125I-199390J0D01*
G01*
X24011890Y-7858125D02*
G75*
G03X24011890Y-7858125I-199390J0D01*
G01*
D12*
X1950803Y-13326964D02*
X1950803Y-13026964D01*
X2022232Y-13026964D01*
X2065089Y-13041250D01*
X2093661Y-13069821D01*
X2107946Y-13098393D01*
X2122232Y-13155536D01*
X2122232Y-13198393D01*
X2107946Y-13255536D01*
X2093661Y-13284107D01*
X2065089Y-13312679D01*
X2022232Y-13326964D01*
X1950803Y-13326964D01*
X2250803Y-13326964D02*
X2250803Y-13126964D01*
X2250803Y-13184107D02*
X2265089Y-13155536D01*
X2279375Y-13141250D01*
X2307946Y-13126964D01*
X2336518Y-13126964D01*
X2436518Y-13326964D02*
X2436518Y-13126964D01*
X2436518Y-13026964D02*
X2422232Y-13041250D01*
X2436518Y-13055536D01*
X2450803Y-13041250D01*
X2436518Y-13026964D01*
X2436518Y-13055536D01*
X2622232Y-13326964D02*
X2593661Y-13312679D01*
X2579375Y-13284107D01*
X2579375Y-13026964D01*
X2779375Y-13326964D02*
X2750803Y-13312679D01*
X2736518Y-13284107D01*
X2736518Y-13026964D01*
X3122232Y-13326964D02*
X3122232Y-13026964D01*
X3222232Y-13241250D01*
X3322232Y-13026964D01*
X3322232Y-13326964D01*
X3593661Y-13326964D02*
X3593661Y-13169821D01*
X3579375Y-13141250D01*
X3550803Y-13126964D01*
X3493661Y-13126964D01*
X3465089Y-13141250D01*
X3593661Y-13312679D02*
X3565089Y-13326964D01*
X3493661Y-13326964D01*
X3465089Y-13312679D01*
X3450803Y-13284107D01*
X3450803Y-13255536D01*
X3465089Y-13226964D01*
X3493661Y-13212679D01*
X3565089Y-13212679D01*
X3593661Y-13198393D01*
X3736518Y-13126964D02*
X3736518Y-13426964D01*
X3736518Y-13141250D02*
X3765089Y-13126964D01*
X3822232Y-13126964D01*
X3850803Y-13141250D01*
X3865089Y-13155536D01*
X3879375Y-13184107D01*
X3879375Y-13269821D01*
X3865089Y-13298393D01*
X3850803Y-13312679D01*
X3822232Y-13326964D01*
X3765089Y-13326964D01*
X3736518Y-13312679D01*
X4007946Y-13298393D02*
X4022232Y-13312679D01*
X4007946Y-13326964D01*
X3993661Y-13312679D01*
X4007946Y-13298393D01*
X4007946Y-13326964D01*
X4007946Y-13141250D02*
X4022232Y-13155536D01*
X4007946Y-13169821D01*
X3993661Y-13155536D01*
X4007946Y-13141250D01*
X4007946Y-13169821D01*
X1494195Y-13736160D02*
X1664375Y-13906340D01*
X1664375Y-13736160D02*
X1494195Y-13906340D01*
X2107946Y-13956964D02*
X1936518Y-13956964D01*
X2022232Y-13956964D02*
X2022232Y-13656964D01*
X1993661Y-13699821D01*
X1965089Y-13728393D01*
X1936518Y-13742679D01*
X2236518Y-13928393D02*
X2250803Y-13942679D01*
X2236518Y-13956964D01*
X2222232Y-13942679D01*
X2236518Y-13928393D01*
X2236518Y-13956964D01*
X2350803Y-13656964D02*
X2550803Y-13656964D01*
X2422232Y-13956964D01*
X2722232Y-13656964D02*
X2750803Y-13656964D01*
X2779375Y-13671250D01*
X2793661Y-13685536D01*
X2807946Y-13714107D01*
X2822232Y-13771250D01*
X2822232Y-13842679D01*
X2807946Y-13899821D01*
X2793661Y-13928393D01*
X2779375Y-13942679D01*
X2750803Y-13956964D01*
X2722232Y-13956964D01*
X2693661Y-13942679D01*
X2679375Y-13928393D01*
X2665089Y-13899821D01*
X2650803Y-13842679D01*
X2650803Y-13771250D01*
X2665089Y-13714107D01*
X2679375Y-13685536D01*
X2693661Y-13671250D01*
X2722232Y-13656964D01*
X2950803Y-13956964D02*
X2950803Y-13756964D01*
X2950803Y-13785536D02*
X2965089Y-13771250D01*
X2993661Y-13756964D01*
X3036518Y-13756964D01*
X3065089Y-13771250D01*
X3079375Y-13799821D01*
X3079375Y-13956964D01*
X3079375Y-13799821D02*
X3093661Y-13771250D01*
X3122232Y-13756964D01*
X3165089Y-13756964D01*
X3193661Y-13771250D01*
X3207946Y-13799821D01*
X3207946Y-13956964D01*
X3350803Y-13956964D02*
X3350803Y-13756964D01*
X3350803Y-13785536D02*
X3365089Y-13771250D01*
X3393661Y-13756964D01*
X3436518Y-13756964D01*
X3465089Y-13771250D01*
X3479375Y-13799821D01*
X3479375Y-13956964D01*
X3479375Y-13799821D02*
X3493661Y-13771250D01*
X3522232Y-13756964D01*
X3565089Y-13756964D01*
X3593661Y-13771250D01*
X3607946Y-13799821D01*
X3607946Y-13956964D01*
X4193661Y-13642679D02*
X3936518Y-14028393D01*
X4579375Y-13656964D02*
X4607946Y-13656964D01*
X4636518Y-13671250D01*
X4650803Y-13685536D01*
X4665089Y-13714107D01*
X4679375Y-13771250D01*
X4679375Y-13842679D01*
X4665089Y-13899821D01*
X4650803Y-13928393D01*
X4636518Y-13942679D01*
X4607946Y-13956964D01*
X4579375Y-13956964D01*
X4550803Y-13942679D01*
X4536518Y-13928393D01*
X4522232Y-13899821D01*
X4507946Y-13842679D01*
X4507946Y-13771250D01*
X4522232Y-13714107D01*
X4536518Y-13685536D01*
X4550803Y-13671250D01*
X4579375Y-13656964D01*
X4807946Y-13928393D02*
X4822232Y-13942679D01*
X4807946Y-13956964D01*
X4793661Y-13942679D01*
X4807946Y-13928393D01*
X4807946Y-13956964D01*
X5007946Y-13656964D02*
X5036518Y-13656964D01*
X5065089Y-13671250D01*
X5079375Y-13685536D01*
X5093661Y-13714107D01*
X5107946Y-13771250D01*
X5107946Y-13842679D01*
X5093661Y-13899821D01*
X5079375Y-13928393D01*
X5065089Y-13942679D01*
X5036518Y-13956964D01*
X5007946Y-13956964D01*
X4979375Y-13942679D01*
X4965089Y-13928393D01*
X4950803Y-13899821D01*
X4936518Y-13842679D01*
X4936518Y-13771250D01*
X4950803Y-13714107D01*
X4965089Y-13685536D01*
X4979375Y-13671250D01*
X5007946Y-13656964D01*
X5365089Y-13656964D02*
X5307946Y-13656964D01*
X5279375Y-13671250D01*
X5265089Y-13685536D01*
X5236518Y-13728393D01*
X5222232Y-13785536D01*
X5222232Y-13899821D01*
X5236518Y-13928393D01*
X5250803Y-13942679D01*
X5279375Y-13956964D01*
X5336518Y-13956964D01*
X5365089Y-13942679D01*
X5379375Y-13928393D01*
X5393661Y-13899821D01*
X5393661Y-13828393D01*
X5379375Y-13799821D01*
X5365089Y-13785536D01*
X5336518Y-13771250D01*
X5279375Y-13771250D01*
X5250803Y-13785536D01*
X5236518Y-13799821D01*
X5222232Y-13828393D01*
X5493661Y-13656964D02*
X5693661Y-13656964D01*
X5565089Y-13956964D01*
X5793661Y-13656964D02*
X5793661Y-13714107D01*
X5907946Y-13656964D02*
X5907946Y-13714107D01*
X6350803Y-14071250D02*
X6336518Y-14056964D01*
X6307946Y-14014107D01*
X6293661Y-13985536D01*
X6279375Y-13942679D01*
X6265089Y-13871250D01*
X6265089Y-13814107D01*
X6279375Y-13742679D01*
X6293661Y-13699821D01*
X6307946Y-13671250D01*
X6336518Y-13628393D01*
X6350803Y-13614107D01*
X6479375Y-13956964D02*
X6536518Y-13956964D01*
X6565089Y-13942679D01*
X6579375Y-13928393D01*
X6607946Y-13885536D01*
X6622232Y-13828393D01*
X6622232Y-13714107D01*
X6607946Y-13685536D01*
X6593661Y-13671250D01*
X6565089Y-13656964D01*
X6507946Y-13656964D01*
X6479375Y-13671250D01*
X6465089Y-13685536D01*
X6450803Y-13714107D01*
X6450803Y-13785536D01*
X6465089Y-13814107D01*
X6479375Y-13828393D01*
X6507946Y-13842679D01*
X6565089Y-13842679D01*
X6593661Y-13828393D01*
X6607946Y-13814107D01*
X6622232Y-13785536D01*
X6879375Y-13756964D02*
X6879375Y-13956964D01*
X6807946Y-13642679D02*
X6736518Y-13856964D01*
X6922232Y-13856964D01*
X7265089Y-13956964D02*
X7265089Y-13656964D01*
X7393661Y-13956964D02*
X7393661Y-13799821D01*
X7379375Y-13771250D01*
X7350803Y-13756964D01*
X7307946Y-13756964D01*
X7279375Y-13771250D01*
X7265089Y-13785536D01*
X7579375Y-13956964D02*
X7550803Y-13942679D01*
X7536518Y-13928393D01*
X7522232Y-13899821D01*
X7522232Y-13814107D01*
X7536518Y-13785536D01*
X7550803Y-13771250D01*
X7579375Y-13756964D01*
X7622232Y-13756964D01*
X7650803Y-13771250D01*
X7665089Y-13785536D01*
X7679375Y-13814107D01*
X7679375Y-13899821D01*
X7665089Y-13928393D01*
X7650803Y-13942679D01*
X7622232Y-13956964D01*
X7579375Y-13956964D01*
X7850803Y-13956964D02*
X7822232Y-13942679D01*
X7807946Y-13914107D01*
X7807946Y-13656964D01*
X8079375Y-13942679D02*
X8050803Y-13956964D01*
X7993661Y-13956964D01*
X7965089Y-13942679D01*
X7950803Y-13914107D01*
X7950803Y-13799821D01*
X7965089Y-13771250D01*
X7993661Y-13756964D01*
X8050803Y-13756964D01*
X8079375Y-13771250D01*
X8093661Y-13799821D01*
X8093661Y-13828393D01*
X7950803Y-13856964D01*
X8207946Y-13942679D02*
X8236518Y-13956964D01*
X8293661Y-13956964D01*
X8322232Y-13942679D01*
X8336518Y-13914107D01*
X8336518Y-13899821D01*
X8322232Y-13871250D01*
X8293661Y-13856964D01*
X8250803Y-13856964D01*
X8222232Y-13842679D01*
X8207946Y-13814107D01*
X8207946Y-13799821D01*
X8222232Y-13771250D01*
X8250803Y-13756964D01*
X8293661Y-13756964D01*
X8322232Y-13771250D01*
X8436518Y-14071250D02*
X8450803Y-14056964D01*
X8479375Y-14014107D01*
X8493661Y-13985536D01*
X8507946Y-13942679D01*
X8522232Y-13871250D01*
X8522232Y-13814107D01*
X8507946Y-13742679D01*
X8493661Y-13699821D01*
X8479375Y-13671250D01*
X8450803Y-13628393D01*
X8436518Y-13614107D01*
X8979375Y-14071250D02*
X8965089Y-14056964D01*
X8936518Y-14014107D01*
X8922232Y-13985536D01*
X8907946Y-13942679D01*
X8893661Y-13871250D01*
X8893661Y-13814107D01*
X8907946Y-13742679D01*
X8922232Y-13699821D01*
X8936518Y-13671250D01*
X8965089Y-13628393D01*
X8979375Y-13614107D01*
X9093661Y-13756964D02*
X9093661Y-13956964D01*
X9093661Y-13785536D02*
X9107946Y-13771250D01*
X9136518Y-13756964D01*
X9179375Y-13756964D01*
X9207946Y-13771250D01*
X9222232Y-13799821D01*
X9222232Y-13956964D01*
X9407946Y-13956964D02*
X9379375Y-13942679D01*
X9365089Y-13928393D01*
X9350803Y-13899821D01*
X9350803Y-13814107D01*
X9365089Y-13785536D01*
X9379375Y-13771250D01*
X9407946Y-13756964D01*
X9450803Y-13756964D01*
X9479375Y-13771250D01*
X9493661Y-13785536D01*
X9507946Y-13814107D01*
X9507946Y-13899821D01*
X9493661Y-13928393D01*
X9479375Y-13942679D01*
X9450803Y-13956964D01*
X9407946Y-13956964D01*
X9593661Y-13756964D02*
X9707946Y-13756964D01*
X9636518Y-13656964D02*
X9636518Y-13914107D01*
X9650803Y-13942679D01*
X9679375Y-13956964D01*
X9707946Y-13956964D01*
X10036518Y-13756964D02*
X10036518Y-14056964D01*
X10036518Y-13771250D02*
X10065089Y-13756964D01*
X10122232Y-13756964D01*
X10150803Y-13771250D01*
X10165089Y-13785536D01*
X10179375Y-13814107D01*
X10179375Y-13899821D01*
X10165089Y-13928393D01*
X10150803Y-13942679D01*
X10122232Y-13956964D01*
X10065089Y-13956964D01*
X10036518Y-13942679D01*
X10350803Y-13956964D02*
X10322232Y-13942679D01*
X10307946Y-13914107D01*
X10307946Y-13656964D01*
X10593661Y-13956964D02*
X10593661Y-13799821D01*
X10579375Y-13771250D01*
X10550803Y-13756964D01*
X10493661Y-13756964D01*
X10465089Y-13771250D01*
X10593661Y-13942679D02*
X10565089Y-13956964D01*
X10493661Y-13956964D01*
X10465089Y-13942679D01*
X10450803Y-13914107D01*
X10450803Y-13885536D01*
X10465089Y-13856964D01*
X10493661Y-13842679D01*
X10565089Y-13842679D01*
X10593661Y-13828393D01*
X10693661Y-13756964D02*
X10807946Y-13756964D01*
X10736518Y-13656964D02*
X10736518Y-13914107D01*
X10750803Y-13942679D01*
X10779375Y-13956964D01*
X10807946Y-13956964D01*
X11022232Y-13942679D02*
X10993661Y-13956964D01*
X10936518Y-13956964D01*
X10907946Y-13942679D01*
X10893661Y-13914107D01*
X10893661Y-13799821D01*
X10907946Y-13771250D01*
X10936518Y-13756964D01*
X10993661Y-13756964D01*
X11022232Y-13771250D01*
X11036518Y-13799821D01*
X11036518Y-13828393D01*
X10893661Y-13856964D01*
X11293661Y-13956964D02*
X11293661Y-13656964D01*
X11293661Y-13942679D02*
X11265089Y-13956964D01*
X11207946Y-13956964D01*
X11179375Y-13942679D01*
X11165089Y-13928393D01*
X11150803Y-13899821D01*
X11150803Y-13814107D01*
X11165089Y-13785536D01*
X11179375Y-13771250D01*
X11207946Y-13756964D01*
X11265089Y-13756964D01*
X11293661Y-13771250D01*
X11407946Y-14071250D02*
X11422232Y-14056964D01*
X11450803Y-14014107D01*
X11465089Y-13985536D01*
X11479375Y-13942679D01*
X11493661Y-13871250D01*
X11493661Y-13814107D01*
X11479375Y-13742679D01*
X11465089Y-13699821D01*
X11450803Y-13671250D01*
X11422232Y-13628393D01*
X11407946Y-13614107D01*
X1664375Y-14217250D02*
G75*
G03X1664375Y-14217250I-199390J0D01*
G01*
X1922232Y-14052964D02*
X2107946Y-14052964D01*
X2007946Y-14167250D01*
X2050803Y-14167250D01*
X2079375Y-14181536D01*
X2093661Y-14195821D01*
X2107946Y-14224393D01*
X2107946Y-14295821D01*
X2093661Y-14324393D01*
X2079375Y-14338679D01*
X2050803Y-14352964D01*
X1965089Y-14352964D01*
X1936518Y-14338679D01*
X1922232Y-14324393D01*
X2236518Y-14324393D02*
X2250803Y-14338679D01*
X2236518Y-14352964D01*
X2222232Y-14338679D01*
X2236518Y-14324393D01*
X2236518Y-14352964D01*
X2393661Y-14352964D02*
X2450803Y-14352964D01*
X2479375Y-14338679D01*
X2493661Y-14324393D01*
X2522232Y-14281536D01*
X2536518Y-14224393D01*
X2536518Y-14110107D01*
X2522232Y-14081536D01*
X2507946Y-14067250D01*
X2479375Y-14052964D01*
X2422232Y-14052964D01*
X2393661Y-14067250D01*
X2379375Y-14081536D01*
X2365089Y-14110107D01*
X2365089Y-14181536D01*
X2379375Y-14210107D01*
X2393661Y-14224393D01*
X2422232Y-14238679D01*
X2479375Y-14238679D01*
X2507946Y-14224393D01*
X2522232Y-14210107D01*
X2536518Y-14181536D01*
X2679375Y-14352964D02*
X2736518Y-14352964D01*
X2765089Y-14338679D01*
X2779375Y-14324393D01*
X2807946Y-14281536D01*
X2822232Y-14224393D01*
X2822232Y-14110107D01*
X2807946Y-14081536D01*
X2793661Y-14067250D01*
X2765089Y-14052964D01*
X2707946Y-14052964D01*
X2679375Y-14067250D01*
X2665089Y-14081536D01*
X2650803Y-14110107D01*
X2650803Y-14181536D01*
X2665089Y-14210107D01*
X2679375Y-14224393D01*
X2707946Y-14238679D01*
X2765089Y-14238679D01*
X2793661Y-14224393D01*
X2807946Y-14210107D01*
X2822232Y-14181536D01*
X2950803Y-14352964D02*
X2950803Y-14152964D01*
X2950803Y-14181536D02*
X2965089Y-14167250D01*
X2993661Y-14152964D01*
X3036518Y-14152964D01*
X3065089Y-14167250D01*
X3079375Y-14195821D01*
X3079375Y-14352964D01*
X3079375Y-14195821D02*
X3093661Y-14167250D01*
X3122232Y-14152964D01*
X3165089Y-14152964D01*
X3193661Y-14167250D01*
X3207946Y-14195821D01*
X3207946Y-14352964D01*
X3350803Y-14352964D02*
X3350803Y-14152964D01*
X3350803Y-14181536D02*
X3365089Y-14167250D01*
X3393661Y-14152964D01*
X3436518Y-14152964D01*
X3465089Y-14167250D01*
X3479375Y-14195821D01*
X3479375Y-14352964D01*
X3479375Y-14195821D02*
X3493661Y-14167250D01*
X3522232Y-14152964D01*
X3565089Y-14152964D01*
X3593661Y-14167250D01*
X3607946Y-14195821D01*
X3607946Y-14352964D01*
X4193661Y-14038679D02*
X3936518Y-14424393D01*
X4579375Y-14052964D02*
X4607946Y-14052964D01*
X4636518Y-14067250D01*
X4650803Y-14081536D01*
X4665089Y-14110107D01*
X4679375Y-14167250D01*
X4679375Y-14238679D01*
X4665089Y-14295821D01*
X4650803Y-14324393D01*
X4636518Y-14338679D01*
X4607946Y-14352964D01*
X4579375Y-14352964D01*
X4550803Y-14338679D01*
X4536518Y-14324393D01*
X4522232Y-14295821D01*
X4507946Y-14238679D01*
X4507946Y-14167250D01*
X4522232Y-14110107D01*
X4536518Y-14081536D01*
X4550803Y-14067250D01*
X4579375Y-14052964D01*
X4807946Y-14324393D02*
X4822232Y-14338679D01*
X4807946Y-14352964D01*
X4793661Y-14338679D01*
X4807946Y-14324393D01*
X4807946Y-14352964D01*
X5107946Y-14352964D02*
X4936518Y-14352964D01*
X5022232Y-14352964D02*
X5022232Y-14052964D01*
X4993661Y-14095821D01*
X4965089Y-14124393D01*
X4936518Y-14138679D01*
X5379375Y-14052964D02*
X5236518Y-14052964D01*
X5222232Y-14195821D01*
X5236518Y-14181536D01*
X5265089Y-14167250D01*
X5336518Y-14167250D01*
X5365089Y-14181536D01*
X5379375Y-14195821D01*
X5393661Y-14224393D01*
X5393661Y-14295821D01*
X5379375Y-14324393D01*
X5365089Y-14338679D01*
X5336518Y-14352964D01*
X5265089Y-14352964D01*
X5236518Y-14338679D01*
X5222232Y-14324393D01*
X5493661Y-14052964D02*
X5693661Y-14052964D01*
X5565089Y-14352964D01*
X5793661Y-14052964D02*
X5793661Y-14110107D01*
X5907946Y-14052964D02*
X5907946Y-14110107D01*
X6350803Y-14467250D02*
X6336518Y-14452964D01*
X6307946Y-14410107D01*
X6293661Y-14381536D01*
X6279375Y-14338679D01*
X6265089Y-14267250D01*
X6265089Y-14210107D01*
X6279375Y-14138679D01*
X6293661Y-14095821D01*
X6307946Y-14067250D01*
X6336518Y-14024393D01*
X6350803Y-14010107D01*
X6593661Y-14152964D02*
X6593661Y-14352964D01*
X6522232Y-14038679D02*
X6450803Y-14252964D01*
X6636518Y-14252964D01*
X6722232Y-14052964D02*
X6922232Y-14052964D01*
X6793661Y-14352964D01*
X7265089Y-14352964D02*
X7265089Y-14052964D01*
X7393661Y-14352964D02*
X7393661Y-14195821D01*
X7379375Y-14167250D01*
X7350803Y-14152964D01*
X7307946Y-14152964D01*
X7279375Y-14167250D01*
X7265089Y-14181536D01*
X7579375Y-14352964D02*
X7550803Y-14338679D01*
X7536518Y-14324393D01*
X7522232Y-14295821D01*
X7522232Y-14210107D01*
X7536518Y-14181536D01*
X7550803Y-14167250D01*
X7579375Y-14152964D01*
X7622232Y-14152964D01*
X7650803Y-14167250D01*
X7665089Y-14181536D01*
X7679375Y-14210107D01*
X7679375Y-14295821D01*
X7665089Y-14324393D01*
X7650803Y-14338679D01*
X7622232Y-14352964D01*
X7579375Y-14352964D01*
X7850803Y-14352964D02*
X7822232Y-14338679D01*
X7807946Y-14310107D01*
X7807946Y-14052964D01*
X8079375Y-14338679D02*
X8050803Y-14352964D01*
X7993661Y-14352964D01*
X7965089Y-14338679D01*
X7950803Y-14310107D01*
X7950803Y-14195821D01*
X7965089Y-14167250D01*
X7993661Y-14152964D01*
X8050803Y-14152964D01*
X8079375Y-14167250D01*
X8093661Y-14195821D01*
X8093661Y-14224393D01*
X7950803Y-14252964D01*
X8207946Y-14338679D02*
X8236518Y-14352964D01*
X8293661Y-14352964D01*
X8322232Y-14338679D01*
X8336518Y-14310107D01*
X8336518Y-14295821D01*
X8322232Y-14267250D01*
X8293661Y-14252964D01*
X8250803Y-14252964D01*
X8222232Y-14238679D01*
X8207946Y-14210107D01*
X8207946Y-14195821D01*
X8222232Y-14167250D01*
X8250803Y-14152964D01*
X8293661Y-14152964D01*
X8322232Y-14167250D01*
X8436518Y-14467250D02*
X8450803Y-14452964D01*
X8479375Y-14410107D01*
X8493661Y-14381536D01*
X8507946Y-14338679D01*
X8522232Y-14267250D01*
X8522232Y-14210107D01*
X8507946Y-14138679D01*
X8493661Y-14095821D01*
X8479375Y-14067250D01*
X8450803Y-14024393D01*
X8436518Y-14010107D01*
X8979375Y-14467250D02*
X8965089Y-14452964D01*
X8936518Y-14410107D01*
X8922232Y-14381536D01*
X8907946Y-14338679D01*
X8893661Y-14267250D01*
X8893661Y-14210107D01*
X8907946Y-14138679D01*
X8922232Y-14095821D01*
X8936518Y-14067250D01*
X8965089Y-14024393D01*
X8979375Y-14010107D01*
X9093661Y-14152964D02*
X9093661Y-14352964D01*
X9093661Y-14181536D02*
X9107946Y-14167250D01*
X9136518Y-14152964D01*
X9179375Y-14152964D01*
X9207946Y-14167250D01*
X9222232Y-14195821D01*
X9222232Y-14352964D01*
X9407946Y-14352964D02*
X9379375Y-14338679D01*
X9365089Y-14324393D01*
X9350803Y-14295821D01*
X9350803Y-14210107D01*
X9365089Y-14181536D01*
X9379375Y-14167250D01*
X9407946Y-14152964D01*
X9450803Y-14152964D01*
X9479375Y-14167250D01*
X9493661Y-14181536D01*
X9507946Y-14210107D01*
X9507946Y-14295821D01*
X9493661Y-14324393D01*
X9479375Y-14338679D01*
X9450803Y-14352964D01*
X9407946Y-14352964D01*
X9593661Y-14152964D02*
X9707946Y-14152964D01*
X9636518Y-14052964D02*
X9636518Y-14310107D01*
X9650803Y-14338679D01*
X9679375Y-14352964D01*
X9707946Y-14352964D01*
X10036518Y-14152964D02*
X10036518Y-14452964D01*
X10036518Y-14167250D02*
X10065089Y-14152964D01*
X10122232Y-14152964D01*
X10150803Y-14167250D01*
X10165089Y-14181536D01*
X10179375Y-14210107D01*
X10179375Y-14295821D01*
X10165089Y-14324393D01*
X10150803Y-14338679D01*
X10122232Y-14352964D01*
X10065089Y-14352964D01*
X10036518Y-14338679D01*
X10350803Y-14352964D02*
X10322232Y-14338679D01*
X10307946Y-14310107D01*
X10307946Y-14052964D01*
X10593661Y-14352964D02*
X10593661Y-14195821D01*
X10579375Y-14167250D01*
X10550803Y-14152964D01*
X10493661Y-14152964D01*
X10465089Y-14167250D01*
X10593661Y-14338679D02*
X10565089Y-14352964D01*
X10493661Y-14352964D01*
X10465089Y-14338679D01*
X10450803Y-14310107D01*
X10450803Y-14281536D01*
X10465089Y-14252964D01*
X10493661Y-14238679D01*
X10565089Y-14238679D01*
X10593661Y-14224393D01*
X10693661Y-14152964D02*
X10807946Y-14152964D01*
X10736518Y-14052964D02*
X10736518Y-14310107D01*
X10750803Y-14338679D01*
X10779375Y-14352964D01*
X10807946Y-14352964D01*
X11022232Y-14338679D02*
X10993661Y-14352964D01*
X10936518Y-14352964D01*
X10907946Y-14338679D01*
X10893661Y-14310107D01*
X10893661Y-14195821D01*
X10907946Y-14167250D01*
X10936518Y-14152964D01*
X10993661Y-14152964D01*
X11022232Y-14167250D01*
X11036518Y-14195821D01*
X11036518Y-14224393D01*
X10893661Y-14252964D01*
X11293661Y-14352964D02*
X11293661Y-14052964D01*
X11293661Y-14338679D02*
X11265089Y-14352964D01*
X11207946Y-14352964D01*
X11179375Y-14338679D01*
X11165089Y-14324393D01*
X11150803Y-14295821D01*
X11150803Y-14210107D01*
X11165089Y-14181536D01*
X11179375Y-14167250D01*
X11207946Y-14152964D01*
X11265089Y-14152964D01*
X11293661Y-14167250D01*
X11407946Y-14467250D02*
X11422232Y-14452964D01*
X11450803Y-14410107D01*
X11465089Y-14381536D01*
X11479375Y-14338679D01*
X11493661Y-14267250D01*
X11493661Y-14210107D01*
X11479375Y-14138679D01*
X11465089Y-14095821D01*
X11450803Y-14067250D01*
X11422232Y-14024393D01*
X11407946Y-14010107D01*
M02*
