G04 #@! TF.GenerationSoftware,KiCad,Pcbnew,(5.1.0)-1*
G04 #@! TF.CreationDate,2020-08-27T01:02:26-04:00*
G04 #@! TF.ProjectId,keyboard,6b657962-6f61-4726-942e-6b696361645f,rev?*
G04 #@! TF.SameCoordinates,Original*
G04 #@! TF.FileFunction,Legend,Top*
G04 #@! TF.FilePolarity,Positive*
%FSLAX46Y46*%
G04 Gerber Fmt 4.6, Leading zero omitted, Abs format (unit mm)*
G04 Created by KiCad (PCBNEW (5.1.0)-1) date 2020-08-27 01:02:26*
%MOMM*%
%LPD*%
G04 APERTURE LIST*
%ADD10C,0.381000*%
%ADD11C,0.120000*%
%ADD12C,0.150000*%
G04 APERTURE END LIST*
D10*
X22225000Y-54959250D02*
X22225000Y-53181250D01*
X22225000Y-65881250D02*
X22225000Y-64103250D01*
X24003000Y-65881250D02*
X22225000Y-65881250D01*
X34925000Y-65881250D02*
X33147000Y-65881250D01*
X34925000Y-64103250D02*
X34925000Y-65881250D01*
X34925000Y-53181250D02*
X34925000Y-54959250D01*
X33147000Y-53181250D02*
X34925000Y-53181250D01*
X22225000Y-53181250D02*
X24003000Y-53181250D01*
X41275000Y-53181250D02*
X43053000Y-53181250D01*
X52197000Y-53181250D02*
X53975000Y-53181250D01*
X53975000Y-53181250D02*
X53975000Y-54959250D01*
X53975000Y-64103250D02*
X53975000Y-65881250D01*
X53975000Y-65881250D02*
X52197000Y-65881250D01*
X43053000Y-65881250D02*
X41275000Y-65881250D01*
X41275000Y-65881250D02*
X41275000Y-64103250D01*
X41275000Y-54959250D02*
X41275000Y-53181250D01*
X60325000Y-54959250D02*
X60325000Y-53181250D01*
X60325000Y-65881250D02*
X60325000Y-64103250D01*
X62103000Y-65881250D02*
X60325000Y-65881250D01*
X73025000Y-65881250D02*
X71247000Y-65881250D01*
X73025000Y-64103250D02*
X73025000Y-65881250D01*
X73025000Y-53181250D02*
X73025000Y-54959250D01*
X71247000Y-53181250D02*
X73025000Y-53181250D01*
X60325000Y-53181250D02*
X62103000Y-53181250D01*
X79375000Y-53181250D02*
X81153000Y-53181250D01*
X90297000Y-53181250D02*
X92075000Y-53181250D01*
X92075000Y-53181250D02*
X92075000Y-54959250D01*
X92075000Y-64103250D02*
X92075000Y-65881250D01*
X92075000Y-65881250D02*
X90297000Y-65881250D01*
X81153000Y-65881250D02*
X79375000Y-65881250D01*
X79375000Y-65881250D02*
X79375000Y-64103250D01*
X79375000Y-54959250D02*
X79375000Y-53181250D01*
X98425000Y-54959250D02*
X98425000Y-53181250D01*
X98425000Y-65881250D02*
X98425000Y-64103250D01*
X100203000Y-65881250D02*
X98425000Y-65881250D01*
X111125000Y-65881250D02*
X109347000Y-65881250D01*
X111125000Y-64103250D02*
X111125000Y-65881250D01*
X111125000Y-53181250D02*
X111125000Y-54959250D01*
X109347000Y-53181250D02*
X111125000Y-53181250D01*
X98425000Y-53181250D02*
X100203000Y-53181250D01*
X117475000Y-53181250D02*
X119253000Y-53181250D01*
X128397000Y-53181250D02*
X130175000Y-53181250D01*
X130175000Y-53181250D02*
X130175000Y-54959250D01*
X130175000Y-64103250D02*
X130175000Y-65881250D01*
X130175000Y-65881250D02*
X128397000Y-65881250D01*
X119253000Y-65881250D02*
X117475000Y-65881250D01*
X117475000Y-65881250D02*
X117475000Y-64103250D01*
X117475000Y-54959250D02*
X117475000Y-53181250D01*
X136525000Y-54959250D02*
X136525000Y-53181250D01*
X136525000Y-65881250D02*
X136525000Y-64103250D01*
X138303000Y-65881250D02*
X136525000Y-65881250D01*
X149225000Y-65881250D02*
X147447000Y-65881250D01*
X149225000Y-64103250D02*
X149225000Y-65881250D01*
X149225000Y-53181250D02*
X149225000Y-54959250D01*
X147447000Y-53181250D02*
X149225000Y-53181250D01*
X136525000Y-53181250D02*
X138303000Y-53181250D01*
X155575000Y-53181250D02*
X157353000Y-53181250D01*
X166497000Y-53181250D02*
X168275000Y-53181250D01*
X168275000Y-53181250D02*
X168275000Y-54959250D01*
X168275000Y-64103250D02*
X168275000Y-65881250D01*
X168275000Y-65881250D02*
X166497000Y-65881250D01*
X157353000Y-65881250D02*
X155575000Y-65881250D01*
X155575000Y-65881250D02*
X155575000Y-64103250D01*
X155575000Y-54959250D02*
X155575000Y-53181250D01*
X174625000Y-54959250D02*
X174625000Y-53181250D01*
X174625000Y-65881250D02*
X174625000Y-64103250D01*
X176403000Y-65881250D02*
X174625000Y-65881250D01*
X187325000Y-65881250D02*
X185547000Y-65881250D01*
X187325000Y-64103250D02*
X187325000Y-65881250D01*
X187325000Y-53181250D02*
X187325000Y-54959250D01*
X185547000Y-53181250D02*
X187325000Y-53181250D01*
X174625000Y-53181250D02*
X176403000Y-53181250D01*
X193675000Y-53181250D02*
X195453000Y-53181250D01*
X204597000Y-53181250D02*
X206375000Y-53181250D01*
X206375000Y-53181250D02*
X206375000Y-54959250D01*
X206375000Y-64103250D02*
X206375000Y-65881250D01*
X206375000Y-65881250D02*
X204597000Y-65881250D01*
X195453000Y-65881250D02*
X193675000Y-65881250D01*
X193675000Y-65881250D02*
X193675000Y-64103250D01*
X193675000Y-54959250D02*
X193675000Y-53181250D01*
X212725000Y-54959250D02*
X212725000Y-53181250D01*
X212725000Y-65881250D02*
X212725000Y-64103250D01*
X214503000Y-65881250D02*
X212725000Y-65881250D01*
X225425000Y-65881250D02*
X223647000Y-65881250D01*
X225425000Y-64103250D02*
X225425000Y-65881250D01*
X225425000Y-53181250D02*
X225425000Y-54959250D01*
X223647000Y-53181250D02*
X225425000Y-53181250D01*
X212725000Y-53181250D02*
X214503000Y-53181250D01*
X231775000Y-53181250D02*
X233553000Y-53181250D01*
X242697000Y-53181250D02*
X244475000Y-53181250D01*
X244475000Y-53181250D02*
X244475000Y-54959250D01*
X244475000Y-64103250D02*
X244475000Y-65881250D01*
X244475000Y-65881250D02*
X242697000Y-65881250D01*
X233553000Y-65881250D02*
X231775000Y-65881250D01*
X231775000Y-65881250D02*
X231775000Y-64103250D01*
X231775000Y-54959250D02*
X231775000Y-53181250D01*
X22225000Y-72231250D02*
X24003000Y-72231250D01*
X33147000Y-72231250D02*
X34925000Y-72231250D01*
X34925000Y-72231250D02*
X34925000Y-74009250D01*
X34925000Y-83153250D02*
X34925000Y-84931250D01*
X34925000Y-84931250D02*
X33147000Y-84931250D01*
X24003000Y-84931250D02*
X22225000Y-84931250D01*
X22225000Y-84931250D02*
X22225000Y-83153250D01*
X22225000Y-74009250D02*
X22225000Y-72231250D01*
X60325000Y-74009250D02*
X60325000Y-72231250D01*
X60325000Y-84931250D02*
X60325000Y-83153250D01*
X62103000Y-84931250D02*
X60325000Y-84931250D01*
X73025000Y-84931250D02*
X71247000Y-84931250D01*
X73025000Y-83153250D02*
X73025000Y-84931250D01*
X73025000Y-72231250D02*
X73025000Y-74009250D01*
X71247000Y-72231250D02*
X73025000Y-72231250D01*
X60325000Y-72231250D02*
X62103000Y-72231250D01*
X79375000Y-72231250D02*
X81153000Y-72231250D01*
X90297000Y-72231250D02*
X92075000Y-72231250D01*
X92075000Y-72231250D02*
X92075000Y-74009250D01*
X92075000Y-83153250D02*
X92075000Y-84931250D01*
X92075000Y-84931250D02*
X90297000Y-84931250D01*
X81153000Y-84931250D02*
X79375000Y-84931250D01*
X79375000Y-84931250D02*
X79375000Y-83153250D01*
X79375000Y-74009250D02*
X79375000Y-72231250D01*
X98425000Y-74009250D02*
X98425000Y-72231250D01*
X98425000Y-84931250D02*
X98425000Y-83153250D01*
X100203000Y-84931250D02*
X98425000Y-84931250D01*
X111125000Y-84931250D02*
X109347000Y-84931250D01*
X111125000Y-83153250D02*
X111125000Y-84931250D01*
X111125000Y-72231250D02*
X111125000Y-74009250D01*
X109347000Y-72231250D02*
X111125000Y-72231250D01*
X98425000Y-72231250D02*
X100203000Y-72231250D01*
X117475000Y-72231250D02*
X119253000Y-72231250D01*
X128397000Y-72231250D02*
X130175000Y-72231250D01*
X130175000Y-72231250D02*
X130175000Y-74009250D01*
X130175000Y-83153250D02*
X130175000Y-84931250D01*
X130175000Y-84931250D02*
X128397000Y-84931250D01*
X119253000Y-84931250D02*
X117475000Y-84931250D01*
X117475000Y-84931250D02*
X117475000Y-83153250D01*
X117475000Y-74009250D02*
X117475000Y-72231250D01*
X136525000Y-74009250D02*
X136525000Y-72231250D01*
X136525000Y-84931250D02*
X136525000Y-83153250D01*
X138303000Y-84931250D02*
X136525000Y-84931250D01*
X149225000Y-84931250D02*
X147447000Y-84931250D01*
X149225000Y-83153250D02*
X149225000Y-84931250D01*
X149225000Y-72231250D02*
X149225000Y-74009250D01*
X147447000Y-72231250D02*
X149225000Y-72231250D01*
X136525000Y-72231250D02*
X138303000Y-72231250D01*
X155575000Y-72231250D02*
X157353000Y-72231250D01*
X166497000Y-72231250D02*
X168275000Y-72231250D01*
X168275000Y-72231250D02*
X168275000Y-74009250D01*
X168275000Y-83153250D02*
X168275000Y-84931250D01*
X168275000Y-84931250D02*
X166497000Y-84931250D01*
X157353000Y-84931250D02*
X155575000Y-84931250D01*
X155575000Y-84931250D02*
X155575000Y-83153250D01*
X155575000Y-74009250D02*
X155575000Y-72231250D01*
X174625000Y-74009250D02*
X174625000Y-72231250D01*
X174625000Y-84931250D02*
X174625000Y-83153250D01*
X176403000Y-84931250D02*
X174625000Y-84931250D01*
X187325000Y-84931250D02*
X185547000Y-84931250D01*
X187325000Y-83153250D02*
X187325000Y-84931250D01*
X187325000Y-72231250D02*
X187325000Y-74009250D01*
X185547000Y-72231250D02*
X187325000Y-72231250D01*
X174625000Y-72231250D02*
X176403000Y-72231250D01*
X193675000Y-72231250D02*
X195453000Y-72231250D01*
X204597000Y-72231250D02*
X206375000Y-72231250D01*
X206375000Y-72231250D02*
X206375000Y-74009250D01*
X206375000Y-83153250D02*
X206375000Y-84931250D01*
X206375000Y-84931250D02*
X204597000Y-84931250D01*
X195453000Y-84931250D02*
X193675000Y-84931250D01*
X193675000Y-84931250D02*
X193675000Y-83153250D01*
X193675000Y-74009250D02*
X193675000Y-72231250D01*
X212725000Y-74009250D02*
X212725000Y-72231250D01*
X212725000Y-84931250D02*
X212725000Y-83153250D01*
X214503000Y-84931250D02*
X212725000Y-84931250D01*
X225425000Y-84931250D02*
X223647000Y-84931250D01*
X225425000Y-83153250D02*
X225425000Y-84931250D01*
X225425000Y-72231250D02*
X225425000Y-74009250D01*
X223647000Y-72231250D02*
X225425000Y-72231250D01*
X212725000Y-72231250D02*
X214503000Y-72231250D01*
X231775000Y-74009250D02*
X231775000Y-72231250D01*
X231775000Y-84931250D02*
X231775000Y-83153250D01*
X233553000Y-84931250D02*
X231775000Y-84931250D01*
X244475000Y-84931250D02*
X242697000Y-84931250D01*
X244475000Y-83153250D02*
X244475000Y-84931250D01*
X244475000Y-72231250D02*
X244475000Y-74009250D01*
X242697000Y-72231250D02*
X244475000Y-72231250D01*
X231775000Y-72231250D02*
X233553000Y-72231250D01*
X22225000Y-91281250D02*
X24003000Y-91281250D01*
X33147000Y-91281250D02*
X34925000Y-91281250D01*
X34925000Y-91281250D02*
X34925000Y-93059250D01*
X34925000Y-102203250D02*
X34925000Y-103981250D01*
X34925000Y-103981250D02*
X33147000Y-103981250D01*
X24003000Y-103981250D02*
X22225000Y-103981250D01*
X22225000Y-103981250D02*
X22225000Y-102203250D01*
X22225000Y-93059250D02*
X22225000Y-91281250D01*
X41275000Y-91281250D02*
X43053000Y-91281250D01*
X52197000Y-91281250D02*
X53975000Y-91281250D01*
X53975000Y-91281250D02*
X53975000Y-93059250D01*
X53975000Y-102203250D02*
X53975000Y-103981250D01*
X53975000Y-103981250D02*
X52197000Y-103981250D01*
X43053000Y-103981250D02*
X41275000Y-103981250D01*
X41275000Y-103981250D02*
X41275000Y-102203250D01*
X41275000Y-93059250D02*
X41275000Y-91281250D01*
X60325000Y-93059250D02*
X60325000Y-91281250D01*
X60325000Y-103981250D02*
X60325000Y-102203250D01*
X62103000Y-103981250D02*
X60325000Y-103981250D01*
X73025000Y-103981250D02*
X71247000Y-103981250D01*
X73025000Y-102203250D02*
X73025000Y-103981250D01*
X73025000Y-91281250D02*
X73025000Y-93059250D01*
X71247000Y-91281250D02*
X73025000Y-91281250D01*
X60325000Y-91281250D02*
X62103000Y-91281250D01*
X79375000Y-91281250D02*
X81153000Y-91281250D01*
X90297000Y-91281250D02*
X92075000Y-91281250D01*
X92075000Y-91281250D02*
X92075000Y-93059250D01*
X92075000Y-102203250D02*
X92075000Y-103981250D01*
X92075000Y-103981250D02*
X90297000Y-103981250D01*
X81153000Y-103981250D02*
X79375000Y-103981250D01*
X79375000Y-103981250D02*
X79375000Y-102203250D01*
X79375000Y-93059250D02*
X79375000Y-91281250D01*
X98425000Y-93059250D02*
X98425000Y-91281250D01*
X98425000Y-103981250D02*
X98425000Y-102203250D01*
X100203000Y-103981250D02*
X98425000Y-103981250D01*
X111125000Y-103981250D02*
X109347000Y-103981250D01*
X111125000Y-102203250D02*
X111125000Y-103981250D01*
X111125000Y-91281250D02*
X111125000Y-93059250D01*
X109347000Y-91281250D02*
X111125000Y-91281250D01*
X98425000Y-91281250D02*
X100203000Y-91281250D01*
X117475000Y-93059250D02*
X117475000Y-91281250D01*
X117475000Y-103981250D02*
X117475000Y-102203250D01*
X119253000Y-103981250D02*
X117475000Y-103981250D01*
X130175000Y-103981250D02*
X128397000Y-103981250D01*
X130175000Y-102203250D02*
X130175000Y-103981250D01*
X130175000Y-91281250D02*
X130175000Y-93059250D01*
X128397000Y-91281250D02*
X130175000Y-91281250D01*
X117475000Y-91281250D02*
X119253000Y-91281250D01*
X136525000Y-93059250D02*
X136525000Y-91281250D01*
X136525000Y-103981250D02*
X136525000Y-102203250D01*
X138303000Y-103981250D02*
X136525000Y-103981250D01*
X149225000Y-103981250D02*
X147447000Y-103981250D01*
X149225000Y-102203250D02*
X149225000Y-103981250D01*
X149225000Y-91281250D02*
X149225000Y-93059250D01*
X147447000Y-91281250D02*
X149225000Y-91281250D01*
X136525000Y-91281250D02*
X138303000Y-91281250D01*
X155575000Y-93059250D02*
X155575000Y-91281250D01*
X155575000Y-103981250D02*
X155575000Y-102203250D01*
X157353000Y-103981250D02*
X155575000Y-103981250D01*
X168275000Y-103981250D02*
X166497000Y-103981250D01*
X168275000Y-102203250D02*
X168275000Y-103981250D01*
X168275000Y-91281250D02*
X168275000Y-93059250D01*
X166497000Y-91281250D02*
X168275000Y-91281250D01*
X155575000Y-91281250D02*
X157353000Y-91281250D01*
X174625000Y-91281250D02*
X176403000Y-91281250D01*
X185547000Y-91281250D02*
X187325000Y-91281250D01*
X187325000Y-91281250D02*
X187325000Y-93059250D01*
X187325000Y-102203250D02*
X187325000Y-103981250D01*
X187325000Y-103981250D02*
X185547000Y-103981250D01*
X176403000Y-103981250D02*
X174625000Y-103981250D01*
X174625000Y-103981250D02*
X174625000Y-102203250D01*
X174625000Y-93059250D02*
X174625000Y-91281250D01*
X193675000Y-91281250D02*
X195453000Y-91281250D01*
X204597000Y-91281250D02*
X206375000Y-91281250D01*
X206375000Y-91281250D02*
X206375000Y-93059250D01*
X206375000Y-102203250D02*
X206375000Y-103981250D01*
X206375000Y-103981250D02*
X204597000Y-103981250D01*
X195453000Y-103981250D02*
X193675000Y-103981250D01*
X193675000Y-103981250D02*
X193675000Y-102203250D01*
X193675000Y-93059250D02*
X193675000Y-91281250D01*
X212725000Y-93059250D02*
X212725000Y-91281250D01*
X212725000Y-103981250D02*
X212725000Y-102203250D01*
X214503000Y-103981250D02*
X212725000Y-103981250D01*
X225425000Y-103981250D02*
X223647000Y-103981250D01*
X225425000Y-102203250D02*
X225425000Y-103981250D01*
X225425000Y-91281250D02*
X225425000Y-93059250D01*
X223647000Y-91281250D02*
X225425000Y-91281250D01*
X212725000Y-91281250D02*
X214503000Y-91281250D01*
X231775000Y-91281250D02*
X233553000Y-91281250D01*
X242697000Y-91281250D02*
X244475000Y-91281250D01*
X244475000Y-91281250D02*
X244475000Y-93059250D01*
X244475000Y-102203250D02*
X244475000Y-103981250D01*
X244475000Y-103981250D02*
X242697000Y-103981250D01*
X233553000Y-103981250D02*
X231775000Y-103981250D01*
X231775000Y-103981250D02*
X231775000Y-102203250D01*
X231775000Y-93059250D02*
X231775000Y-91281250D01*
X22225000Y-112109250D02*
X22225000Y-110331250D01*
X22225000Y-123031250D02*
X22225000Y-121253250D01*
X24003000Y-123031250D02*
X22225000Y-123031250D01*
X34925000Y-123031250D02*
X33147000Y-123031250D01*
X34925000Y-121253250D02*
X34925000Y-123031250D01*
X34925000Y-110331250D02*
X34925000Y-112109250D01*
X33147000Y-110331250D02*
X34925000Y-110331250D01*
X22225000Y-110331250D02*
X24003000Y-110331250D01*
X41275000Y-110331250D02*
X43053000Y-110331250D01*
X52197000Y-110331250D02*
X53975000Y-110331250D01*
X53975000Y-110331250D02*
X53975000Y-112109250D01*
X53975000Y-121253250D02*
X53975000Y-123031250D01*
X53975000Y-123031250D02*
X52197000Y-123031250D01*
X43053000Y-123031250D02*
X41275000Y-123031250D01*
X41275000Y-123031250D02*
X41275000Y-121253250D01*
X41275000Y-112109250D02*
X41275000Y-110331250D01*
X60325000Y-112109250D02*
X60325000Y-110331250D01*
X60325000Y-123031250D02*
X60325000Y-121253250D01*
X62103000Y-123031250D02*
X60325000Y-123031250D01*
X73025000Y-123031250D02*
X71247000Y-123031250D01*
X73025000Y-121253250D02*
X73025000Y-123031250D01*
X73025000Y-110331250D02*
X73025000Y-112109250D01*
X71247000Y-110331250D02*
X73025000Y-110331250D01*
X60325000Y-110331250D02*
X62103000Y-110331250D01*
X79375000Y-110331250D02*
X81153000Y-110331250D01*
X90297000Y-110331250D02*
X92075000Y-110331250D01*
X92075000Y-110331250D02*
X92075000Y-112109250D01*
X92075000Y-121253250D02*
X92075000Y-123031250D01*
X92075000Y-123031250D02*
X90297000Y-123031250D01*
X81153000Y-123031250D02*
X79375000Y-123031250D01*
X79375000Y-123031250D02*
X79375000Y-121253250D01*
X79375000Y-112109250D02*
X79375000Y-110331250D01*
X98425000Y-110331250D02*
X100203000Y-110331250D01*
X109347000Y-110331250D02*
X111125000Y-110331250D01*
X111125000Y-110331250D02*
X111125000Y-112109250D01*
X111125000Y-121253250D02*
X111125000Y-123031250D01*
X111125000Y-123031250D02*
X109347000Y-123031250D01*
X100203000Y-123031250D02*
X98425000Y-123031250D01*
X98425000Y-123031250D02*
X98425000Y-121253250D01*
X98425000Y-112109250D02*
X98425000Y-110331250D01*
X127000000Y-110331250D02*
X128778000Y-110331250D01*
X137922000Y-110331250D02*
X139700000Y-110331250D01*
X139700000Y-110331250D02*
X139700000Y-112109250D01*
X139700000Y-121253250D02*
X139700000Y-123031250D01*
X139700000Y-123031250D02*
X137922000Y-123031250D01*
X128778000Y-123031250D02*
X127000000Y-123031250D01*
X127000000Y-123031250D02*
X127000000Y-121253250D01*
X127000000Y-112109250D02*
X127000000Y-110331250D01*
X155575000Y-112109250D02*
X155575000Y-110331250D01*
X155575000Y-123031250D02*
X155575000Y-121253250D01*
X157353000Y-123031250D02*
X155575000Y-123031250D01*
X168275000Y-123031250D02*
X166497000Y-123031250D01*
X168275000Y-121253250D02*
X168275000Y-123031250D01*
X168275000Y-110331250D02*
X168275000Y-112109250D01*
X166497000Y-110331250D02*
X168275000Y-110331250D01*
X155575000Y-110331250D02*
X157353000Y-110331250D01*
X174625000Y-110331250D02*
X176403000Y-110331250D01*
X185547000Y-110331250D02*
X187325000Y-110331250D01*
X187325000Y-110331250D02*
X187325000Y-112109250D01*
X187325000Y-121253250D02*
X187325000Y-123031250D01*
X187325000Y-123031250D02*
X185547000Y-123031250D01*
X176403000Y-123031250D02*
X174625000Y-123031250D01*
X174625000Y-123031250D02*
X174625000Y-121253250D01*
X174625000Y-112109250D02*
X174625000Y-110331250D01*
X193675000Y-110331250D02*
X195453000Y-110331250D01*
X204597000Y-110331250D02*
X206375000Y-110331250D01*
X206375000Y-110331250D02*
X206375000Y-112109250D01*
X206375000Y-121253250D02*
X206375000Y-123031250D01*
X206375000Y-123031250D02*
X204597000Y-123031250D01*
X195453000Y-123031250D02*
X193675000Y-123031250D01*
X193675000Y-123031250D02*
X193675000Y-121253250D01*
X193675000Y-112109250D02*
X193675000Y-110331250D01*
X212725000Y-112109250D02*
X212725000Y-110331250D01*
X212725000Y-123031250D02*
X212725000Y-121253250D01*
X214503000Y-123031250D02*
X212725000Y-123031250D01*
X225425000Y-123031250D02*
X223647000Y-123031250D01*
X225425000Y-121253250D02*
X225425000Y-123031250D01*
X225425000Y-110331250D02*
X225425000Y-112109250D01*
X223647000Y-110331250D02*
X225425000Y-110331250D01*
X212725000Y-110331250D02*
X214503000Y-110331250D01*
X231775000Y-112109250D02*
X231775000Y-110331250D01*
X231775000Y-123031250D02*
X231775000Y-121253250D01*
X233553000Y-123031250D02*
X231775000Y-123031250D01*
X244475000Y-123031250D02*
X242697000Y-123031250D01*
X244475000Y-121253250D02*
X244475000Y-123031250D01*
X244475000Y-110331250D02*
X244475000Y-112109250D01*
X242697000Y-110331250D02*
X244475000Y-110331250D01*
X231775000Y-110331250D02*
X233553000Y-110331250D01*
D11*
X217375000Y-47062500D02*
X217825000Y-47512500D01*
X220775000Y-47062500D02*
X220325000Y-47512500D01*
X220775000Y-42462500D02*
X220325000Y-42012500D01*
X217375000Y-42462500D02*
X217825000Y-42012500D01*
X221825000Y-43762500D02*
X221825000Y-45762500D01*
X217825000Y-47512500D02*
X220325000Y-47512500D01*
X216325000Y-43762500D02*
X216325000Y-45762500D01*
X217825000Y-42012500D02*
X220325000Y-42012500D01*
D10*
X41275000Y-74009250D02*
X41275000Y-72231250D01*
X41275000Y-84931250D02*
X41275000Y-83153250D01*
X43053000Y-84931250D02*
X41275000Y-84931250D01*
X53975000Y-84931250D02*
X52197000Y-84931250D01*
X53975000Y-83153250D02*
X53975000Y-84931250D01*
X53975000Y-72231250D02*
X53975000Y-74009250D01*
X52197000Y-72231250D02*
X53975000Y-72231250D01*
X41275000Y-72231250D02*
X43053000Y-72231250D01*
D12*
X217741666Y-41417261D02*
X217884523Y-41464880D01*
X218122619Y-41464880D01*
X218217857Y-41417261D01*
X218265476Y-41369642D01*
X218313095Y-41274404D01*
X218313095Y-41179166D01*
X218265476Y-41083928D01*
X218217857Y-41036309D01*
X218122619Y-40988690D01*
X217932142Y-40941071D01*
X217836904Y-40893452D01*
X217789285Y-40845833D01*
X217741666Y-40750595D01*
X217741666Y-40655357D01*
X217789285Y-40560119D01*
X217836904Y-40512500D01*
X217932142Y-40464880D01*
X218170238Y-40464880D01*
X218313095Y-40512500D01*
X218646428Y-40464880D02*
X218884523Y-41464880D01*
X219075000Y-40750595D01*
X219265476Y-41464880D01*
X219503571Y-40464880D01*
X220408333Y-41464880D02*
X219836904Y-41464880D01*
X220122619Y-41464880D02*
X220122619Y-40464880D01*
X220027380Y-40607738D01*
X219932142Y-40702976D01*
X219836904Y-40750595D01*
M02*
