G04 #@! TF.GenerationSoftware,KiCad,Pcbnew,(5.1.0)-1*
G04 #@! TF.CreationDate,2020-08-28T07:36:50-04:00*
G04 #@! TF.ProjectId,keyboard,6b657962-6f61-4726-942e-6b696361645f,rev?*
G04 #@! TF.SameCoordinates,Original*
G04 #@! TF.FileFunction,Legend,Bot*
G04 #@! TF.FilePolarity,Positive*
%FSLAX46Y46*%
G04 Gerber Fmt 4.6, Leading zero omitted, Abs format (unit mm)*
G04 Created by KiCad (PCBNEW (5.1.0)-1) date 2020-08-28 07:36:50*
%MOMM*%
%LPD*%
G04 APERTURE LIST*
%ADD10C,0.150000*%
%ADD11C,0.120000*%
%ADD12C,0.200000*%
G04 APERTURE END LIST*
D10*
X248372190Y-32837380D02*
X248705523Y-32361190D01*
X248943619Y-32837380D02*
X248943619Y-31837380D01*
X248562666Y-31837380D01*
X248467428Y-31885000D01*
X248419809Y-31932619D01*
X248372190Y-32027857D01*
X248372190Y-32170714D01*
X248419809Y-32265952D01*
X248467428Y-32313571D01*
X248562666Y-32361190D01*
X248943619Y-32361190D01*
X247562666Y-32789761D02*
X247657904Y-32837380D01*
X247848380Y-32837380D01*
X247943619Y-32789761D01*
X247991238Y-32694523D01*
X247991238Y-32313571D01*
X247943619Y-32218333D01*
X247848380Y-32170714D01*
X247657904Y-32170714D01*
X247562666Y-32218333D01*
X247515047Y-32313571D01*
X247515047Y-32408809D01*
X247991238Y-32504047D01*
X247181714Y-32170714D02*
X246943619Y-32837380D01*
X246705523Y-32170714D01*
X246372190Y-31932619D02*
X246324571Y-31885000D01*
X246229333Y-31837380D01*
X245991238Y-31837380D01*
X245896000Y-31885000D01*
X245848380Y-31932619D01*
X245800761Y-32027857D01*
X245800761Y-32123095D01*
X245848380Y-32265952D01*
X246419809Y-32837380D01*
X245800761Y-32837380D01*
D11*
X46842750Y-37501328D02*
X46842750Y-36984172D01*
X45422750Y-37501328D02*
X45422750Y-36984172D01*
X43041500Y-37501328D02*
X43041500Y-36984172D01*
X44461500Y-37501328D02*
X44461500Y-36984172D01*
X51414750Y-37501328D02*
X51414750Y-36984172D01*
X49994750Y-37501328D02*
X49994750Y-36984172D01*
X47613500Y-37501328D02*
X47613500Y-36984172D01*
X49033500Y-37501328D02*
X49033500Y-36984172D01*
X69702750Y-37501328D02*
X69702750Y-36984172D01*
X68282750Y-37501328D02*
X68282750Y-36984172D01*
X65901500Y-37501328D02*
X65901500Y-36984172D01*
X67321500Y-37501328D02*
X67321500Y-36984172D01*
X65130750Y-37501328D02*
X65130750Y-36984172D01*
X63710750Y-37501328D02*
X63710750Y-36984172D01*
X61329500Y-37501328D02*
X61329500Y-36984172D01*
X62749500Y-37501328D02*
X62749500Y-36984172D01*
X60558750Y-37501328D02*
X60558750Y-36984172D01*
X59138750Y-37501328D02*
X59138750Y-36984172D01*
X56757500Y-37501328D02*
X56757500Y-36984172D01*
X58177500Y-37501328D02*
X58177500Y-36984172D01*
X54566750Y-37501328D02*
X54566750Y-36984172D01*
X55986750Y-37501328D02*
X55986750Y-36984172D01*
X53605500Y-37501328D02*
X53605500Y-36984172D01*
X52185500Y-37501328D02*
X52185500Y-36984172D01*
D10*
X109950000Y-45656250D02*
X109375000Y-45656250D01*
X109950000Y-35306250D02*
X109275000Y-35306250D01*
X99600000Y-35306250D02*
X100275000Y-35306250D01*
X99600000Y-45656250D02*
X100275000Y-45656250D01*
X109950000Y-45656250D02*
X109950000Y-44981250D01*
X99600000Y-45656250D02*
X99600000Y-44981250D01*
X99600000Y-35306250D02*
X99600000Y-35981250D01*
X109950000Y-35306250D02*
X109950000Y-35981250D01*
X109375000Y-45656250D02*
X109375000Y-46931250D01*
D11*
X93775888Y-36002796D02*
X93410204Y-35637112D01*
X92771796Y-37006888D02*
X92406112Y-36641204D01*
X86981388Y-43559296D02*
X86615704Y-43193612D01*
X85977296Y-44563388D02*
X85611612Y-44197704D01*
X95833000Y-44826422D02*
X95833000Y-45343578D01*
X94413000Y-44826422D02*
X94413000Y-45343578D01*
X116422672Y-38810000D02*
X116939828Y-38810000D01*
X116422672Y-37390000D02*
X116939828Y-37390000D01*
X114041422Y-44533750D02*
X114558578Y-44533750D01*
X114041422Y-45953750D02*
X114558578Y-45953750D01*
X119375422Y-45922000D02*
X119892578Y-45922000D01*
X119375422Y-44502000D02*
X119892578Y-44502000D01*
X105485000Y-50264828D02*
X105485000Y-49747672D01*
X104065000Y-50264828D02*
X104065000Y-49747672D01*
D12*
X31056250Y-63093750D02*
X25256250Y-63093750D01*
X31056250Y-65493750D02*
X31056250Y-63093750D01*
X25256250Y-65493750D02*
X31056250Y-65493750D01*
X25331250Y-65493750D02*
X25331250Y-63093750D01*
X25456250Y-65493750D02*
X25456250Y-63093750D01*
X25231250Y-63093750D02*
X25231250Y-65493750D01*
X25631250Y-65493750D02*
X25631250Y-63093750D01*
X25806250Y-65493750D02*
X25806250Y-63093750D01*
X25981250Y-65493750D02*
X25981250Y-63093750D01*
X45350000Y-65493750D02*
X45350000Y-63093750D01*
X45175000Y-65493750D02*
X45175000Y-63093750D01*
X45000000Y-65493750D02*
X45000000Y-63093750D01*
X44600000Y-63093750D02*
X44600000Y-65493750D01*
X44825000Y-65493750D02*
X44825000Y-63093750D01*
X44700000Y-65493750D02*
X44700000Y-63093750D01*
X44625000Y-65493750D02*
X50425000Y-65493750D01*
X50425000Y-65493750D02*
X50425000Y-63093750D01*
X50425000Y-63093750D02*
X44625000Y-63093750D01*
X69475000Y-63093750D02*
X63675000Y-63093750D01*
X69475000Y-65493750D02*
X69475000Y-63093750D01*
X63675000Y-65493750D02*
X69475000Y-65493750D01*
X63750000Y-65493750D02*
X63750000Y-63093750D01*
X63875000Y-65493750D02*
X63875000Y-63093750D01*
X63650000Y-63093750D02*
X63650000Y-65493750D01*
X64050000Y-65493750D02*
X64050000Y-63093750D01*
X64225000Y-65493750D02*
X64225000Y-63093750D01*
X64400000Y-65493750D02*
X64400000Y-63093750D01*
X83450000Y-65493750D02*
X83450000Y-63093750D01*
X83275000Y-65493750D02*
X83275000Y-63093750D01*
X83100000Y-65493750D02*
X83100000Y-63093750D01*
X82700000Y-63093750D02*
X82700000Y-65493750D01*
X82925000Y-65493750D02*
X82925000Y-63093750D01*
X82800000Y-65493750D02*
X82800000Y-63093750D01*
X82725000Y-65493750D02*
X88525000Y-65493750D01*
X88525000Y-65493750D02*
X88525000Y-63093750D01*
X88525000Y-63093750D02*
X82725000Y-63093750D01*
X102500000Y-65493750D02*
X102500000Y-63093750D01*
X102325000Y-65493750D02*
X102325000Y-63093750D01*
X102150000Y-65493750D02*
X102150000Y-63093750D01*
X101750000Y-63093750D02*
X101750000Y-65493750D01*
X101975000Y-65493750D02*
X101975000Y-63093750D01*
X101850000Y-65493750D02*
X101850000Y-63093750D01*
X101775000Y-65493750D02*
X107575000Y-65493750D01*
X107575000Y-65493750D02*
X107575000Y-63093750D01*
X107575000Y-63093750D02*
X101775000Y-63093750D01*
X126625000Y-63093750D02*
X120825000Y-63093750D01*
X126625000Y-65493750D02*
X126625000Y-63093750D01*
X120825000Y-65493750D02*
X126625000Y-65493750D01*
X120900000Y-65493750D02*
X120900000Y-63093750D01*
X121025000Y-65493750D02*
X121025000Y-63093750D01*
X120800000Y-63093750D02*
X120800000Y-65493750D01*
X121200000Y-65493750D02*
X121200000Y-63093750D01*
X121375000Y-65493750D02*
X121375000Y-63093750D01*
X121550000Y-65493750D02*
X121550000Y-63093750D01*
X140600000Y-65493750D02*
X140600000Y-63093750D01*
X140425000Y-65493750D02*
X140425000Y-63093750D01*
X140250000Y-65493750D02*
X140250000Y-63093750D01*
X139850000Y-63093750D02*
X139850000Y-65493750D01*
X140075000Y-65493750D02*
X140075000Y-63093750D01*
X139950000Y-65493750D02*
X139950000Y-63093750D01*
X139875000Y-65493750D02*
X145675000Y-65493750D01*
X145675000Y-65493750D02*
X145675000Y-63093750D01*
X145675000Y-63093750D02*
X139875000Y-63093750D01*
X164725000Y-63093750D02*
X158925000Y-63093750D01*
X164725000Y-65493750D02*
X164725000Y-63093750D01*
X158925000Y-65493750D02*
X164725000Y-65493750D01*
X159000000Y-65493750D02*
X159000000Y-63093750D01*
X159125000Y-65493750D02*
X159125000Y-63093750D01*
X158900000Y-63093750D02*
X158900000Y-65493750D01*
X159300000Y-65493750D02*
X159300000Y-63093750D01*
X159475000Y-65493750D02*
X159475000Y-63093750D01*
X159650000Y-65493750D02*
X159650000Y-63093750D01*
X178700000Y-65493750D02*
X178700000Y-63093750D01*
X178525000Y-65493750D02*
X178525000Y-63093750D01*
X178350000Y-65493750D02*
X178350000Y-63093750D01*
X177950000Y-63093750D02*
X177950000Y-65493750D01*
X178175000Y-65493750D02*
X178175000Y-63093750D01*
X178050000Y-65493750D02*
X178050000Y-63093750D01*
X177975000Y-65493750D02*
X183775000Y-65493750D01*
X183775000Y-65493750D02*
X183775000Y-63093750D01*
X183775000Y-63093750D02*
X177975000Y-63093750D01*
X197750000Y-65493750D02*
X197750000Y-63093750D01*
X197575000Y-65493750D02*
X197575000Y-63093750D01*
X197400000Y-65493750D02*
X197400000Y-63093750D01*
X197000000Y-63093750D02*
X197000000Y-65493750D01*
X197225000Y-65493750D02*
X197225000Y-63093750D01*
X197100000Y-65493750D02*
X197100000Y-63093750D01*
X197025000Y-65493750D02*
X202825000Y-65493750D01*
X202825000Y-65493750D02*
X202825000Y-63093750D01*
X202825000Y-63093750D02*
X197025000Y-63093750D01*
X221875000Y-63093750D02*
X216075000Y-63093750D01*
X221875000Y-65493750D02*
X221875000Y-63093750D01*
X216075000Y-65493750D02*
X221875000Y-65493750D01*
X216150000Y-65493750D02*
X216150000Y-63093750D01*
X216275000Y-65493750D02*
X216275000Y-63093750D01*
X216050000Y-63093750D02*
X216050000Y-65493750D01*
X216450000Y-65493750D02*
X216450000Y-63093750D01*
X216625000Y-65493750D02*
X216625000Y-63093750D01*
X216800000Y-65493750D02*
X216800000Y-63093750D01*
X240925000Y-63093750D02*
X235125000Y-63093750D01*
X240925000Y-65493750D02*
X240925000Y-63093750D01*
X235125000Y-65493750D02*
X240925000Y-65493750D01*
X235200000Y-65493750D02*
X235200000Y-63093750D01*
X235325000Y-65493750D02*
X235325000Y-63093750D01*
X235100000Y-63093750D02*
X235100000Y-65493750D01*
X235500000Y-65493750D02*
X235500000Y-63093750D01*
X235675000Y-65493750D02*
X235675000Y-63093750D01*
X235850000Y-65493750D02*
X235850000Y-63093750D01*
X31375000Y-82143750D02*
X25575000Y-82143750D01*
X31375000Y-84543750D02*
X31375000Y-82143750D01*
X25575000Y-84543750D02*
X31375000Y-84543750D01*
X25650000Y-84543750D02*
X25650000Y-82143750D01*
X25775000Y-84543750D02*
X25775000Y-82143750D01*
X25550000Y-82143750D02*
X25550000Y-84543750D01*
X25950000Y-84543750D02*
X25950000Y-82143750D01*
X26125000Y-84543750D02*
X26125000Y-82143750D01*
X26300000Y-84543750D02*
X26300000Y-82143750D01*
X45350000Y-84543750D02*
X45350000Y-82143750D01*
X45175000Y-84543750D02*
X45175000Y-82143750D01*
X45000000Y-84543750D02*
X45000000Y-82143750D01*
X44600000Y-82143750D02*
X44600000Y-84543750D01*
X44825000Y-84543750D02*
X44825000Y-82143750D01*
X44700000Y-84543750D02*
X44700000Y-82143750D01*
X44625000Y-84543750D02*
X50425000Y-84543750D01*
X50425000Y-84543750D02*
X50425000Y-82143750D01*
X50425000Y-82143750D02*
X44625000Y-82143750D01*
X64400000Y-84543750D02*
X64400000Y-82143750D01*
X64225000Y-84543750D02*
X64225000Y-82143750D01*
X64050000Y-84543750D02*
X64050000Y-82143750D01*
X63650000Y-82143750D02*
X63650000Y-84543750D01*
X63875000Y-84543750D02*
X63875000Y-82143750D01*
X63750000Y-84543750D02*
X63750000Y-82143750D01*
X63675000Y-84543750D02*
X69475000Y-84543750D01*
X69475000Y-84543750D02*
X69475000Y-82143750D01*
X69475000Y-82143750D02*
X63675000Y-82143750D01*
X83450000Y-84543750D02*
X83450000Y-82143750D01*
X83275000Y-84543750D02*
X83275000Y-82143750D01*
X83100000Y-84543750D02*
X83100000Y-82143750D01*
X82700000Y-82143750D02*
X82700000Y-84543750D01*
X82925000Y-84543750D02*
X82925000Y-82143750D01*
X82800000Y-84543750D02*
X82800000Y-82143750D01*
X82725000Y-84543750D02*
X88525000Y-84543750D01*
X88525000Y-84543750D02*
X88525000Y-82143750D01*
X88525000Y-82143750D02*
X82725000Y-82143750D01*
X107575000Y-82143750D02*
X101775000Y-82143750D01*
X107575000Y-84543750D02*
X107575000Y-82143750D01*
X101775000Y-84543750D02*
X107575000Y-84543750D01*
X101850000Y-84543750D02*
X101850000Y-82143750D01*
X101975000Y-84543750D02*
X101975000Y-82143750D01*
X101750000Y-82143750D02*
X101750000Y-84543750D01*
X102150000Y-84543750D02*
X102150000Y-82143750D01*
X102325000Y-84543750D02*
X102325000Y-82143750D01*
X102500000Y-84543750D02*
X102500000Y-82143750D01*
X121550000Y-84543750D02*
X121550000Y-82143750D01*
X121375000Y-84543750D02*
X121375000Y-82143750D01*
X121200000Y-84543750D02*
X121200000Y-82143750D01*
X120800000Y-82143750D02*
X120800000Y-84543750D01*
X121025000Y-84543750D02*
X121025000Y-82143750D01*
X120900000Y-84543750D02*
X120900000Y-82143750D01*
X120825000Y-84543750D02*
X126625000Y-84543750D01*
X126625000Y-84543750D02*
X126625000Y-82143750D01*
X126625000Y-82143750D02*
X120825000Y-82143750D01*
X145675000Y-82143750D02*
X139875000Y-82143750D01*
X145675000Y-84543750D02*
X145675000Y-82143750D01*
X139875000Y-84543750D02*
X145675000Y-84543750D01*
X139950000Y-84543750D02*
X139950000Y-82143750D01*
X140075000Y-84543750D02*
X140075000Y-82143750D01*
X139850000Y-82143750D02*
X139850000Y-84543750D01*
X140250000Y-84543750D02*
X140250000Y-82143750D01*
X140425000Y-84543750D02*
X140425000Y-82143750D01*
X140600000Y-84543750D02*
X140600000Y-82143750D01*
X164725000Y-82143750D02*
X158925000Y-82143750D01*
X164725000Y-84543750D02*
X164725000Y-82143750D01*
X158925000Y-84543750D02*
X164725000Y-84543750D01*
X159000000Y-84543750D02*
X159000000Y-82143750D01*
X159125000Y-84543750D02*
X159125000Y-82143750D01*
X158900000Y-82143750D02*
X158900000Y-84543750D01*
X159300000Y-84543750D02*
X159300000Y-82143750D01*
X159475000Y-84543750D02*
X159475000Y-82143750D01*
X159650000Y-84543750D02*
X159650000Y-82143750D01*
X184093750Y-82143750D02*
X178293750Y-82143750D01*
X184093750Y-84543750D02*
X184093750Y-82143750D01*
X178293750Y-84543750D02*
X184093750Y-84543750D01*
X178368750Y-84543750D02*
X178368750Y-82143750D01*
X178493750Y-84543750D02*
X178493750Y-82143750D01*
X178268750Y-82143750D02*
X178268750Y-84543750D01*
X178668750Y-84543750D02*
X178668750Y-82143750D01*
X178843750Y-84543750D02*
X178843750Y-82143750D01*
X179018750Y-84543750D02*
X179018750Y-82143750D01*
X197750000Y-84543750D02*
X197750000Y-82143750D01*
X197575000Y-84543750D02*
X197575000Y-82143750D01*
X197400000Y-84543750D02*
X197400000Y-82143750D01*
X197000000Y-82143750D02*
X197000000Y-84543750D01*
X197225000Y-84543750D02*
X197225000Y-82143750D01*
X197100000Y-84543750D02*
X197100000Y-82143750D01*
X197025000Y-84543750D02*
X202825000Y-84543750D01*
X202825000Y-84543750D02*
X202825000Y-82143750D01*
X202825000Y-82143750D02*
X197025000Y-82143750D01*
X221875000Y-82143750D02*
X216075000Y-82143750D01*
X221875000Y-84543750D02*
X221875000Y-82143750D01*
X216075000Y-84543750D02*
X221875000Y-84543750D01*
X216150000Y-84543750D02*
X216150000Y-82143750D01*
X216275000Y-84543750D02*
X216275000Y-82143750D01*
X216050000Y-82143750D02*
X216050000Y-84543750D01*
X216450000Y-84543750D02*
X216450000Y-82143750D01*
X216625000Y-84543750D02*
X216625000Y-82143750D01*
X216800000Y-84543750D02*
X216800000Y-82143750D01*
X240925000Y-82143750D02*
X235125000Y-82143750D01*
X240925000Y-84543750D02*
X240925000Y-82143750D01*
X235125000Y-84543750D02*
X240925000Y-84543750D01*
X235200000Y-84543750D02*
X235200000Y-82143750D01*
X235325000Y-84543750D02*
X235325000Y-82143750D01*
X235100000Y-82143750D02*
X235100000Y-84543750D01*
X235500000Y-84543750D02*
X235500000Y-82143750D01*
X235675000Y-84543750D02*
X235675000Y-82143750D01*
X235850000Y-84543750D02*
X235850000Y-82143750D01*
X26300000Y-103593750D02*
X26300000Y-101193750D01*
X26125000Y-103593750D02*
X26125000Y-101193750D01*
X25950000Y-103593750D02*
X25950000Y-101193750D01*
X25550000Y-101193750D02*
X25550000Y-103593750D01*
X25775000Y-103593750D02*
X25775000Y-101193750D01*
X25650000Y-103593750D02*
X25650000Y-101193750D01*
X25575000Y-103593750D02*
X31375000Y-103593750D01*
X31375000Y-103593750D02*
X31375000Y-101193750D01*
X31375000Y-101193750D02*
X25575000Y-101193750D01*
X50425000Y-101193750D02*
X44625000Y-101193750D01*
X50425000Y-103593750D02*
X50425000Y-101193750D01*
X44625000Y-103593750D02*
X50425000Y-103593750D01*
X44700000Y-103593750D02*
X44700000Y-101193750D01*
X44825000Y-103593750D02*
X44825000Y-101193750D01*
X44600000Y-101193750D02*
X44600000Y-103593750D01*
X45000000Y-103593750D02*
X45000000Y-101193750D01*
X45175000Y-103593750D02*
X45175000Y-101193750D01*
X45350000Y-103593750D02*
X45350000Y-101193750D01*
X64400000Y-103593750D02*
X64400000Y-101193750D01*
X64225000Y-103593750D02*
X64225000Y-101193750D01*
X64050000Y-103593750D02*
X64050000Y-101193750D01*
X63650000Y-101193750D02*
X63650000Y-103593750D01*
X63875000Y-103593750D02*
X63875000Y-101193750D01*
X63750000Y-103593750D02*
X63750000Y-101193750D01*
X63675000Y-103593750D02*
X69475000Y-103593750D01*
X69475000Y-103593750D02*
X69475000Y-101193750D01*
X69475000Y-101193750D02*
X63675000Y-101193750D01*
X83450000Y-103593750D02*
X83450000Y-101193750D01*
X83275000Y-103593750D02*
X83275000Y-101193750D01*
X83100000Y-103593750D02*
X83100000Y-101193750D01*
X82700000Y-101193750D02*
X82700000Y-103593750D01*
X82925000Y-103593750D02*
X82925000Y-101193750D01*
X82800000Y-103593750D02*
X82800000Y-101193750D01*
X82725000Y-103593750D02*
X88525000Y-103593750D01*
X88525000Y-103593750D02*
X88525000Y-101193750D01*
X88525000Y-101193750D02*
X82725000Y-101193750D01*
X102500000Y-103593750D02*
X102500000Y-101193750D01*
X102325000Y-103593750D02*
X102325000Y-101193750D01*
X102150000Y-103593750D02*
X102150000Y-101193750D01*
X101750000Y-101193750D02*
X101750000Y-103593750D01*
X101975000Y-103593750D02*
X101975000Y-101193750D01*
X101850000Y-103593750D02*
X101850000Y-101193750D01*
X101775000Y-103593750D02*
X107575000Y-103593750D01*
X107575000Y-103593750D02*
X107575000Y-101193750D01*
X107575000Y-101193750D02*
X101775000Y-101193750D01*
X121550000Y-103593750D02*
X121550000Y-101193750D01*
X121375000Y-103593750D02*
X121375000Y-101193750D01*
X121200000Y-103593750D02*
X121200000Y-101193750D01*
X120800000Y-101193750D02*
X120800000Y-103593750D01*
X121025000Y-103593750D02*
X121025000Y-101193750D01*
X120900000Y-103593750D02*
X120900000Y-101193750D01*
X120825000Y-103593750D02*
X126625000Y-103593750D01*
X126625000Y-103593750D02*
X126625000Y-101193750D01*
X126625000Y-101193750D02*
X120825000Y-101193750D01*
X140600000Y-103593750D02*
X140600000Y-101193750D01*
X140425000Y-103593750D02*
X140425000Y-101193750D01*
X140250000Y-103593750D02*
X140250000Y-101193750D01*
X139850000Y-101193750D02*
X139850000Y-103593750D01*
X140075000Y-103593750D02*
X140075000Y-101193750D01*
X139950000Y-103593750D02*
X139950000Y-101193750D01*
X139875000Y-103593750D02*
X145675000Y-103593750D01*
X145675000Y-103593750D02*
X145675000Y-101193750D01*
X145675000Y-101193750D02*
X139875000Y-101193750D01*
X159650000Y-103593750D02*
X159650000Y-101193750D01*
X159475000Y-103593750D02*
X159475000Y-101193750D01*
X159300000Y-103593750D02*
X159300000Y-101193750D01*
X158900000Y-101193750D02*
X158900000Y-103593750D01*
X159125000Y-103593750D02*
X159125000Y-101193750D01*
X159000000Y-103593750D02*
X159000000Y-101193750D01*
X158925000Y-103593750D02*
X164725000Y-103593750D01*
X164725000Y-103593750D02*
X164725000Y-101193750D01*
X164725000Y-101193750D02*
X158925000Y-101193750D01*
X183775000Y-101193750D02*
X177975000Y-101193750D01*
X183775000Y-103593750D02*
X183775000Y-101193750D01*
X177975000Y-103593750D02*
X183775000Y-103593750D01*
X178050000Y-103593750D02*
X178050000Y-101193750D01*
X178175000Y-103593750D02*
X178175000Y-101193750D01*
X177950000Y-101193750D02*
X177950000Y-103593750D01*
X178350000Y-103593750D02*
X178350000Y-101193750D01*
X178525000Y-103593750D02*
X178525000Y-101193750D01*
X178700000Y-103593750D02*
X178700000Y-101193750D01*
X197750000Y-103593750D02*
X197750000Y-101193750D01*
X197575000Y-103593750D02*
X197575000Y-101193750D01*
X197400000Y-103593750D02*
X197400000Y-101193750D01*
X197000000Y-101193750D02*
X197000000Y-103593750D01*
X197225000Y-103593750D02*
X197225000Y-101193750D01*
X197100000Y-103593750D02*
X197100000Y-101193750D01*
X197025000Y-103593750D02*
X202825000Y-103593750D01*
X202825000Y-103593750D02*
X202825000Y-101193750D01*
X202825000Y-101193750D02*
X197025000Y-101193750D01*
X221875000Y-101193750D02*
X216075000Y-101193750D01*
X221875000Y-103593750D02*
X221875000Y-101193750D01*
X216075000Y-103593750D02*
X221875000Y-103593750D01*
X216150000Y-103593750D02*
X216150000Y-101193750D01*
X216275000Y-103593750D02*
X216275000Y-101193750D01*
X216050000Y-101193750D02*
X216050000Y-103593750D01*
X216450000Y-103593750D02*
X216450000Y-101193750D01*
X216625000Y-103593750D02*
X216625000Y-101193750D01*
X216800000Y-103593750D02*
X216800000Y-101193750D01*
X240925000Y-101193750D02*
X235125000Y-101193750D01*
X240925000Y-103593750D02*
X240925000Y-101193750D01*
X235125000Y-103593750D02*
X240925000Y-103593750D01*
X235200000Y-103593750D02*
X235200000Y-101193750D01*
X235325000Y-103593750D02*
X235325000Y-101193750D01*
X235100000Y-101193750D02*
X235100000Y-103593750D01*
X235500000Y-103593750D02*
X235500000Y-101193750D01*
X235675000Y-103593750D02*
X235675000Y-101193750D01*
X235850000Y-103593750D02*
X235850000Y-101193750D01*
X31375000Y-120243750D02*
X25575000Y-120243750D01*
X31375000Y-122643750D02*
X31375000Y-120243750D01*
X25575000Y-122643750D02*
X31375000Y-122643750D01*
X25650000Y-122643750D02*
X25650000Y-120243750D01*
X25775000Y-122643750D02*
X25775000Y-120243750D01*
X25550000Y-120243750D02*
X25550000Y-122643750D01*
X25950000Y-122643750D02*
X25950000Y-120243750D01*
X26125000Y-122643750D02*
X26125000Y-120243750D01*
X26300000Y-122643750D02*
X26300000Y-120243750D01*
X45350000Y-122643750D02*
X45350000Y-120243750D01*
X45175000Y-122643750D02*
X45175000Y-120243750D01*
X45000000Y-122643750D02*
X45000000Y-120243750D01*
X44600000Y-120243750D02*
X44600000Y-122643750D01*
X44825000Y-122643750D02*
X44825000Y-120243750D01*
X44700000Y-122643750D02*
X44700000Y-120243750D01*
X44625000Y-122643750D02*
X50425000Y-122643750D01*
X50425000Y-122643750D02*
X50425000Y-120243750D01*
X50425000Y-120243750D02*
X44625000Y-120243750D01*
X64400000Y-122643750D02*
X64400000Y-120243750D01*
X64225000Y-122643750D02*
X64225000Y-120243750D01*
X64050000Y-122643750D02*
X64050000Y-120243750D01*
X63650000Y-120243750D02*
X63650000Y-122643750D01*
X63875000Y-122643750D02*
X63875000Y-120243750D01*
X63750000Y-122643750D02*
X63750000Y-120243750D01*
X63675000Y-122643750D02*
X69475000Y-122643750D01*
X69475000Y-122643750D02*
X69475000Y-120243750D01*
X69475000Y-120243750D02*
X63675000Y-120243750D01*
X83450000Y-122643750D02*
X83450000Y-120243750D01*
X83275000Y-122643750D02*
X83275000Y-120243750D01*
X83100000Y-122643750D02*
X83100000Y-120243750D01*
X82700000Y-120243750D02*
X82700000Y-122643750D01*
X82925000Y-122643750D02*
X82925000Y-120243750D01*
X82800000Y-122643750D02*
X82800000Y-120243750D01*
X82725000Y-122643750D02*
X88525000Y-122643750D01*
X88525000Y-122643750D02*
X88525000Y-120243750D01*
X88525000Y-120243750D02*
X82725000Y-120243750D01*
X107575000Y-120243750D02*
X101775000Y-120243750D01*
X107575000Y-122643750D02*
X107575000Y-120243750D01*
X101775000Y-122643750D02*
X107575000Y-122643750D01*
X101850000Y-122643750D02*
X101850000Y-120243750D01*
X101975000Y-122643750D02*
X101975000Y-120243750D01*
X101750000Y-120243750D02*
X101750000Y-122643750D01*
X102150000Y-122643750D02*
X102150000Y-120243750D01*
X102325000Y-122643750D02*
X102325000Y-120243750D01*
X102500000Y-122643750D02*
X102500000Y-120243750D01*
X164725000Y-120243750D02*
X158925000Y-120243750D01*
X164725000Y-122643750D02*
X164725000Y-120243750D01*
X158925000Y-122643750D02*
X164725000Y-122643750D01*
X159000000Y-122643750D02*
X159000000Y-120243750D01*
X159125000Y-122643750D02*
X159125000Y-120243750D01*
X158900000Y-120243750D02*
X158900000Y-122643750D01*
X159300000Y-122643750D02*
X159300000Y-120243750D01*
X159475000Y-122643750D02*
X159475000Y-120243750D01*
X159650000Y-122643750D02*
X159650000Y-120243750D01*
X183775000Y-120243750D02*
X177975000Y-120243750D01*
X183775000Y-122643750D02*
X183775000Y-120243750D01*
X177975000Y-122643750D02*
X183775000Y-122643750D01*
X178050000Y-122643750D02*
X178050000Y-120243750D01*
X178175000Y-122643750D02*
X178175000Y-120243750D01*
X177950000Y-120243750D02*
X177950000Y-122643750D01*
X178350000Y-122643750D02*
X178350000Y-120243750D01*
X178525000Y-122643750D02*
X178525000Y-120243750D01*
X178700000Y-122643750D02*
X178700000Y-120243750D01*
X202825000Y-120243750D02*
X197025000Y-120243750D01*
X202825000Y-122643750D02*
X202825000Y-120243750D01*
X197025000Y-122643750D02*
X202825000Y-122643750D01*
X197100000Y-122643750D02*
X197100000Y-120243750D01*
X197225000Y-122643750D02*
X197225000Y-120243750D01*
X197000000Y-120243750D02*
X197000000Y-122643750D01*
X197400000Y-122643750D02*
X197400000Y-120243750D01*
X197575000Y-122643750D02*
X197575000Y-120243750D01*
X197750000Y-122643750D02*
X197750000Y-120243750D01*
X221875000Y-120243750D02*
X216075000Y-120243750D01*
X221875000Y-122643750D02*
X221875000Y-120243750D01*
X216075000Y-122643750D02*
X221875000Y-122643750D01*
X216150000Y-122643750D02*
X216150000Y-120243750D01*
X216275000Y-122643750D02*
X216275000Y-120243750D01*
X216050000Y-120243750D02*
X216050000Y-122643750D01*
X216450000Y-122643750D02*
X216450000Y-120243750D01*
X216625000Y-122643750D02*
X216625000Y-120243750D01*
X216800000Y-122643750D02*
X216800000Y-120243750D01*
X235850000Y-122643750D02*
X235850000Y-120243750D01*
X235675000Y-122643750D02*
X235675000Y-120243750D01*
X235500000Y-122643750D02*
X235500000Y-120243750D01*
X235100000Y-120243750D02*
X235100000Y-122643750D01*
X235325000Y-122643750D02*
X235325000Y-120243750D01*
X235200000Y-122643750D02*
X235200000Y-120243750D01*
X235125000Y-122643750D02*
X240925000Y-122643750D01*
X240925000Y-122643750D02*
X240925000Y-120243750D01*
X240925000Y-120243750D02*
X235125000Y-120243750D01*
D11*
X202175878Y-35059550D02*
X201658722Y-35059550D01*
X202175878Y-36479550D02*
X201658722Y-36479550D01*
X218022100Y-40695378D02*
X218022100Y-40178222D01*
X219442100Y-40695378D02*
X219442100Y-40178222D01*
X222638550Y-40790628D02*
X222638550Y-40273472D01*
X224058550Y-40790628D02*
X224058550Y-40273472D01*
X89888553Y-36794177D02*
X92999823Y-39905447D01*
X92999823Y-39905447D02*
X89181447Y-43723823D01*
D12*
X131075000Y-122643750D02*
X131075000Y-120243750D01*
X130900000Y-122643750D02*
X130900000Y-120243750D01*
X130725000Y-122643750D02*
X130725000Y-120243750D01*
X130325000Y-120243750D02*
X130325000Y-122643750D01*
X130550000Y-122643750D02*
X130550000Y-120243750D01*
X130425000Y-122643750D02*
X130425000Y-120243750D01*
X130350000Y-122643750D02*
X136150000Y-122643750D01*
X136150000Y-122643750D02*
X136150000Y-120243750D01*
X136150000Y-120243750D02*
X130350000Y-120243750D01*
D11*
X84515075Y-46045983D02*
X84149391Y-45680299D01*
X83510983Y-47050075D02*
X83145299Y-46684391D01*
X116939828Y-35008750D02*
X116422672Y-35008750D01*
X116939828Y-36428750D02*
X116422672Y-36428750D01*
D10*
X37118750Y-35718750D02*
G75*
G03X37118750Y-35718750I-1400000J0D01*
G01*
X22831250Y-35718750D02*
G75*
G03X22831250Y-35718750I-1400000J0D01*
G01*
X27593750Y-35718750D02*
G75*
G03X27593750Y-35718750I-1400000J0D01*
G01*
X32356250Y-35718750D02*
G75*
G03X32356250Y-35718750I-1400000J0D01*
G01*
X111677380Y-39719345D02*
X112486904Y-39719345D01*
X112582142Y-39766964D01*
X112629761Y-39814583D01*
X112677380Y-39909821D01*
X112677380Y-40100297D01*
X112629761Y-40195535D01*
X112582142Y-40243154D01*
X112486904Y-40290773D01*
X111677380Y-40290773D01*
X112677380Y-41290773D02*
X112677380Y-40719345D01*
X112677380Y-41005059D02*
X111677380Y-41005059D01*
X111820238Y-40909821D01*
X111915476Y-40814583D01*
X111963095Y-40719345D01*
X94123038Y-35525663D02*
X94123038Y-35593006D01*
X94190382Y-35727693D01*
X94257726Y-35795037D01*
X94392413Y-35862380D01*
X94527100Y-35862380D01*
X94628115Y-35828709D01*
X94796474Y-35727693D01*
X94897489Y-35626678D01*
X94998504Y-35458319D01*
X95032176Y-35357304D01*
X95032176Y-35222617D01*
X94964832Y-35087930D01*
X94897489Y-35020586D01*
X94762802Y-34953243D01*
X94695458Y-34953243D01*
X93382260Y-34919571D02*
X93786321Y-35323632D01*
X93584290Y-35121602D02*
X94291397Y-34414495D01*
X94257726Y-34582854D01*
X94257726Y-34717541D01*
X94291397Y-34818556D01*
X87971562Y-45614139D02*
X87971562Y-45681482D01*
X88038906Y-45816169D01*
X88106250Y-45883513D01*
X88240937Y-45950856D01*
X88375624Y-45950856D01*
X88476639Y-45917185D01*
X88644998Y-45816169D01*
X88746013Y-45715154D01*
X88847028Y-45546795D01*
X88880700Y-45445780D01*
X88880700Y-45311093D01*
X88813356Y-45176406D01*
X88746013Y-45109062D01*
X88611326Y-45041719D01*
X88543982Y-45041719D01*
X88274608Y-44772345D02*
X88274608Y-44705001D01*
X88240937Y-44603986D01*
X88072578Y-44435627D01*
X87971562Y-44401956D01*
X87904219Y-44401956D01*
X87803204Y-44435627D01*
X87735860Y-44502971D01*
X87668517Y-44637658D01*
X87668517Y-45445780D01*
X87230784Y-45008047D01*
X95384892Y-47348083D02*
X95432511Y-47300464D01*
X95480130Y-47157607D01*
X95480130Y-47062369D01*
X95432511Y-46919511D01*
X95337273Y-46824273D01*
X95242035Y-46776654D01*
X95051559Y-46729035D01*
X94908702Y-46729035D01*
X94718226Y-46776654D01*
X94622988Y-46824273D01*
X94527750Y-46919511D01*
X94480130Y-47062369D01*
X94480130Y-47157607D01*
X94527750Y-47300464D01*
X94575369Y-47348083D01*
X94480130Y-47681416D02*
X94480130Y-48300464D01*
X94861083Y-47967130D01*
X94861083Y-48109988D01*
X94908702Y-48205226D01*
X94956321Y-48252845D01*
X95051559Y-48300464D01*
X95289654Y-48300464D01*
X95384892Y-48252845D01*
X95432511Y-48205226D01*
X95480130Y-48109988D01*
X95480130Y-47824273D01*
X95432511Y-47729035D01*
X95384892Y-47681416D01*
X119229166Y-38457142D02*
X119276785Y-38504761D01*
X119419642Y-38552380D01*
X119514880Y-38552380D01*
X119657738Y-38504761D01*
X119752976Y-38409523D01*
X119800595Y-38314285D01*
X119848214Y-38123809D01*
X119848214Y-37980952D01*
X119800595Y-37790476D01*
X119752976Y-37695238D01*
X119657738Y-37600000D01*
X119514880Y-37552380D01*
X119419642Y-37552380D01*
X119276785Y-37600000D01*
X119229166Y-37647619D01*
X118372023Y-37885714D02*
X118372023Y-38552380D01*
X118610119Y-37504761D02*
X118848214Y-38219047D01*
X118229166Y-38219047D01*
X116847916Y-45600892D02*
X116895535Y-45648511D01*
X117038392Y-45696130D01*
X117133630Y-45696130D01*
X117276488Y-45648511D01*
X117371726Y-45553273D01*
X117419345Y-45458035D01*
X117466964Y-45267559D01*
X117466964Y-45124702D01*
X117419345Y-44934226D01*
X117371726Y-44838988D01*
X117276488Y-44743750D01*
X117133630Y-44696130D01*
X117038392Y-44696130D01*
X116895535Y-44743750D01*
X116847916Y-44791369D01*
X115943154Y-44696130D02*
X116419345Y-44696130D01*
X116466964Y-45172321D01*
X116419345Y-45124702D01*
X116324107Y-45077083D01*
X116086011Y-45077083D01*
X115990773Y-45124702D01*
X115943154Y-45172321D01*
X115895535Y-45267559D01*
X115895535Y-45505654D01*
X115943154Y-45600892D01*
X115990773Y-45648511D01*
X116086011Y-45696130D01*
X116324107Y-45696130D01*
X116419345Y-45648511D01*
X116466964Y-45600892D01*
X119800666Y-43187892D02*
X119848285Y-43235511D01*
X119991142Y-43283130D01*
X120086380Y-43283130D01*
X120229238Y-43235511D01*
X120324476Y-43140273D01*
X120372095Y-43045035D01*
X120419714Y-42854559D01*
X120419714Y-42711702D01*
X120372095Y-42521226D01*
X120324476Y-42425988D01*
X120229238Y-42330750D01*
X120086380Y-42283130D01*
X119991142Y-42283130D01*
X119848285Y-42330750D01*
X119800666Y-42378369D01*
X118943523Y-42283130D02*
X119134000Y-42283130D01*
X119229238Y-42330750D01*
X119276857Y-42378369D01*
X119372095Y-42521226D01*
X119419714Y-42711702D01*
X119419714Y-43092654D01*
X119372095Y-43187892D01*
X119324476Y-43235511D01*
X119229238Y-43283130D01*
X119038761Y-43283130D01*
X118943523Y-43235511D01*
X118895904Y-43187892D01*
X118848285Y-43092654D01*
X118848285Y-42854559D01*
X118895904Y-42759321D01*
X118943523Y-42711702D01*
X119038761Y-42664083D01*
X119229238Y-42664083D01*
X119324476Y-42711702D01*
X119372095Y-42759321D01*
X119419714Y-42854559D01*
X102560416Y-50363392D02*
X102608035Y-50411011D01*
X102750892Y-50458630D01*
X102846130Y-50458630D01*
X102988988Y-50411011D01*
X103084226Y-50315773D01*
X103131845Y-50220535D01*
X103179464Y-50030059D01*
X103179464Y-49887202D01*
X103131845Y-49696726D01*
X103084226Y-49601488D01*
X102988988Y-49506250D01*
X102846130Y-49458630D01*
X102750892Y-49458630D01*
X102608035Y-49506250D01*
X102560416Y-49553869D01*
X101988988Y-49887202D02*
X102084226Y-49839583D01*
X102131845Y-49791964D01*
X102179464Y-49696726D01*
X102179464Y-49649107D01*
X102131845Y-49553869D01*
X102084226Y-49506250D01*
X101988988Y-49458630D01*
X101798511Y-49458630D01*
X101703273Y-49506250D01*
X101655654Y-49553869D01*
X101608035Y-49649107D01*
X101608035Y-49696726D01*
X101655654Y-49791964D01*
X101703273Y-49839583D01*
X101798511Y-49887202D01*
X101988988Y-49887202D01*
X102084226Y-49934821D01*
X102131845Y-49982440D01*
X102179464Y-50077678D01*
X102179464Y-50268154D01*
X102131845Y-50363392D01*
X102084226Y-50411011D01*
X101988988Y-50458630D01*
X101798511Y-50458630D01*
X101703273Y-50411011D01*
X101655654Y-50363392D01*
X101608035Y-50268154D01*
X101608035Y-50077678D01*
X101655654Y-49982440D01*
X101703273Y-49934821D01*
X101798511Y-49887202D01*
X24402976Y-62274404D02*
X24402976Y-61474404D01*
X24212500Y-61474404D01*
X24098214Y-61512500D01*
X24022023Y-61588690D01*
X23983928Y-61664880D01*
X23945833Y-61817261D01*
X23945833Y-61931547D01*
X23983928Y-62083928D01*
X24022023Y-62160119D01*
X24098214Y-62236309D01*
X24212500Y-62274404D01*
X24402976Y-62274404D01*
X23183928Y-62274404D02*
X23641071Y-62274404D01*
X23412500Y-62274404D02*
X23412500Y-61474404D01*
X23488690Y-61588690D01*
X23564880Y-61664880D01*
X23641071Y-61702976D01*
X43452976Y-62274404D02*
X43452976Y-61474404D01*
X43262500Y-61474404D01*
X43148214Y-61512500D01*
X43072023Y-61588690D01*
X43033928Y-61664880D01*
X42995833Y-61817261D01*
X42995833Y-61931547D01*
X43033928Y-62083928D01*
X43072023Y-62160119D01*
X43148214Y-62236309D01*
X43262500Y-62274404D01*
X43452976Y-62274404D01*
X42691071Y-61550595D02*
X42652976Y-61512500D01*
X42576785Y-61474404D01*
X42386309Y-61474404D01*
X42310119Y-61512500D01*
X42272023Y-61550595D01*
X42233928Y-61626785D01*
X42233928Y-61702976D01*
X42272023Y-61817261D01*
X42729166Y-62274404D01*
X42233928Y-62274404D01*
X63309226Y-62274404D02*
X63309226Y-61474404D01*
X63118750Y-61474404D01*
X63004464Y-61512500D01*
X62928273Y-61588690D01*
X62890178Y-61664880D01*
X62852083Y-61817261D01*
X62852083Y-61931547D01*
X62890178Y-62083928D01*
X62928273Y-62160119D01*
X63004464Y-62236309D01*
X63118750Y-62274404D01*
X63309226Y-62274404D01*
X62585416Y-61474404D02*
X62090178Y-61474404D01*
X62356845Y-61779166D01*
X62242559Y-61779166D01*
X62166369Y-61817261D01*
X62128273Y-61855357D01*
X62090178Y-61931547D01*
X62090178Y-62122023D01*
X62128273Y-62198214D01*
X62166369Y-62236309D01*
X62242559Y-62274404D01*
X62471130Y-62274404D01*
X62547321Y-62236309D01*
X62585416Y-62198214D01*
X81552976Y-62274404D02*
X81552976Y-61474404D01*
X81362500Y-61474404D01*
X81248214Y-61512500D01*
X81172023Y-61588690D01*
X81133928Y-61664880D01*
X81095833Y-61817261D01*
X81095833Y-61931547D01*
X81133928Y-62083928D01*
X81172023Y-62160119D01*
X81248214Y-62236309D01*
X81362500Y-62274404D01*
X81552976Y-62274404D01*
X80410119Y-61741071D02*
X80410119Y-62274404D01*
X80600595Y-61436309D02*
X80791071Y-62007738D01*
X80295833Y-62007738D01*
X100602976Y-62274404D02*
X100602976Y-61474404D01*
X100412500Y-61474404D01*
X100298214Y-61512500D01*
X100222023Y-61588690D01*
X100183928Y-61664880D01*
X100145833Y-61817261D01*
X100145833Y-61931547D01*
X100183928Y-62083928D01*
X100222023Y-62160119D01*
X100298214Y-62236309D01*
X100412500Y-62274404D01*
X100602976Y-62274404D01*
X99422023Y-61474404D02*
X99802976Y-61474404D01*
X99841071Y-61855357D01*
X99802976Y-61817261D01*
X99726785Y-61779166D01*
X99536309Y-61779166D01*
X99460119Y-61817261D01*
X99422023Y-61855357D01*
X99383928Y-61931547D01*
X99383928Y-62122023D01*
X99422023Y-62198214D01*
X99460119Y-62236309D01*
X99536309Y-62274404D01*
X99726785Y-62274404D01*
X99802976Y-62236309D01*
X99841071Y-62198214D01*
X119652976Y-62274404D02*
X119652976Y-61474404D01*
X119462500Y-61474404D01*
X119348214Y-61512500D01*
X119272023Y-61588690D01*
X119233928Y-61664880D01*
X119195833Y-61817261D01*
X119195833Y-61931547D01*
X119233928Y-62083928D01*
X119272023Y-62160119D01*
X119348214Y-62236309D01*
X119462500Y-62274404D01*
X119652976Y-62274404D01*
X118510119Y-61474404D02*
X118662500Y-61474404D01*
X118738690Y-61512500D01*
X118776785Y-61550595D01*
X118852976Y-61664880D01*
X118891071Y-61817261D01*
X118891071Y-62122023D01*
X118852976Y-62198214D01*
X118814880Y-62236309D01*
X118738690Y-62274404D01*
X118586309Y-62274404D01*
X118510119Y-62236309D01*
X118472023Y-62198214D01*
X118433928Y-62122023D01*
X118433928Y-61931547D01*
X118472023Y-61855357D01*
X118510119Y-61817261D01*
X118586309Y-61779166D01*
X118738690Y-61779166D01*
X118814880Y-61817261D01*
X118852976Y-61855357D01*
X118891071Y-61931547D01*
X138702976Y-62274404D02*
X138702976Y-61474404D01*
X138512500Y-61474404D01*
X138398214Y-61512500D01*
X138322023Y-61588690D01*
X138283928Y-61664880D01*
X138245833Y-61817261D01*
X138245833Y-61931547D01*
X138283928Y-62083928D01*
X138322023Y-62160119D01*
X138398214Y-62236309D01*
X138512500Y-62274404D01*
X138702976Y-62274404D01*
X137979166Y-61474404D02*
X137445833Y-61474404D01*
X137788690Y-62274404D01*
X158559226Y-62274404D02*
X158559226Y-61474404D01*
X158368750Y-61474404D01*
X158254464Y-61512500D01*
X158178273Y-61588690D01*
X158140178Y-61664880D01*
X158102083Y-61817261D01*
X158102083Y-61931547D01*
X158140178Y-62083928D01*
X158178273Y-62160119D01*
X158254464Y-62236309D01*
X158368750Y-62274404D01*
X158559226Y-62274404D01*
X157644940Y-61817261D02*
X157721130Y-61779166D01*
X157759226Y-61741071D01*
X157797321Y-61664880D01*
X157797321Y-61626785D01*
X157759226Y-61550595D01*
X157721130Y-61512500D01*
X157644940Y-61474404D01*
X157492559Y-61474404D01*
X157416369Y-61512500D01*
X157378273Y-61550595D01*
X157340178Y-61626785D01*
X157340178Y-61664880D01*
X157378273Y-61741071D01*
X157416369Y-61779166D01*
X157492559Y-61817261D01*
X157644940Y-61817261D01*
X157721130Y-61855357D01*
X157759226Y-61893452D01*
X157797321Y-61969642D01*
X157797321Y-62122023D01*
X157759226Y-62198214D01*
X157721130Y-62236309D01*
X157644940Y-62274404D01*
X157492559Y-62274404D01*
X157416369Y-62236309D01*
X157378273Y-62198214D01*
X157340178Y-62122023D01*
X157340178Y-61969642D01*
X157378273Y-61893452D01*
X157416369Y-61855357D01*
X157492559Y-61817261D01*
X176802976Y-62274404D02*
X176802976Y-61474404D01*
X176612500Y-61474404D01*
X176498214Y-61512500D01*
X176422023Y-61588690D01*
X176383928Y-61664880D01*
X176345833Y-61817261D01*
X176345833Y-61931547D01*
X176383928Y-62083928D01*
X176422023Y-62160119D01*
X176498214Y-62236309D01*
X176612500Y-62274404D01*
X176802976Y-62274404D01*
X175964880Y-62274404D02*
X175812500Y-62274404D01*
X175736309Y-62236309D01*
X175698214Y-62198214D01*
X175622023Y-62083928D01*
X175583928Y-61931547D01*
X175583928Y-61626785D01*
X175622023Y-61550595D01*
X175660119Y-61512500D01*
X175736309Y-61474404D01*
X175888690Y-61474404D01*
X175964880Y-61512500D01*
X176002976Y-61550595D01*
X176041071Y-61626785D01*
X176041071Y-61817261D01*
X176002976Y-61893452D01*
X175964880Y-61931547D01*
X175888690Y-61969642D01*
X175736309Y-61969642D01*
X175660119Y-61931547D01*
X175622023Y-61893452D01*
X175583928Y-61817261D01*
X196233928Y-62274404D02*
X196233928Y-61474404D01*
X196043452Y-61474404D01*
X195929166Y-61512500D01*
X195852976Y-61588690D01*
X195814880Y-61664880D01*
X195776785Y-61817261D01*
X195776785Y-61931547D01*
X195814880Y-62083928D01*
X195852976Y-62160119D01*
X195929166Y-62236309D01*
X196043452Y-62274404D01*
X196233928Y-62274404D01*
X195014880Y-62274404D02*
X195472023Y-62274404D01*
X195243452Y-62274404D02*
X195243452Y-61474404D01*
X195319642Y-61588690D01*
X195395833Y-61664880D01*
X195472023Y-61702976D01*
X194519642Y-61474404D02*
X194443452Y-61474404D01*
X194367261Y-61512500D01*
X194329166Y-61550595D01*
X194291071Y-61626785D01*
X194252976Y-61779166D01*
X194252976Y-61969642D01*
X194291071Y-62122023D01*
X194329166Y-62198214D01*
X194367261Y-62236309D01*
X194443452Y-62274404D01*
X194519642Y-62274404D01*
X194595833Y-62236309D01*
X194633928Y-62198214D01*
X194672023Y-62122023D01*
X194710119Y-61969642D01*
X194710119Y-61779166D01*
X194672023Y-61626785D01*
X194633928Y-61550595D01*
X194595833Y-61512500D01*
X194519642Y-61474404D01*
X215283928Y-62274404D02*
X215283928Y-61474404D01*
X215093452Y-61474404D01*
X214979166Y-61512500D01*
X214902976Y-61588690D01*
X214864880Y-61664880D01*
X214826785Y-61817261D01*
X214826785Y-61931547D01*
X214864880Y-62083928D01*
X214902976Y-62160119D01*
X214979166Y-62236309D01*
X215093452Y-62274404D01*
X215283928Y-62274404D01*
X214064880Y-62274404D02*
X214522023Y-62274404D01*
X214293452Y-62274404D02*
X214293452Y-61474404D01*
X214369642Y-61588690D01*
X214445833Y-61664880D01*
X214522023Y-61702976D01*
X213302976Y-62274404D02*
X213760119Y-62274404D01*
X213531547Y-62274404D02*
X213531547Y-61474404D01*
X213607738Y-61588690D01*
X213683928Y-61664880D01*
X213760119Y-61702976D01*
X234333928Y-62274404D02*
X234333928Y-61474404D01*
X234143452Y-61474404D01*
X234029166Y-61512500D01*
X233952976Y-61588690D01*
X233914880Y-61664880D01*
X233876785Y-61817261D01*
X233876785Y-61931547D01*
X233914880Y-62083928D01*
X233952976Y-62160119D01*
X234029166Y-62236309D01*
X234143452Y-62274404D01*
X234333928Y-62274404D01*
X233114880Y-62274404D02*
X233572023Y-62274404D01*
X233343452Y-62274404D02*
X233343452Y-61474404D01*
X233419642Y-61588690D01*
X233495833Y-61664880D01*
X233572023Y-61702976D01*
X232810119Y-61550595D02*
X232772023Y-61512500D01*
X232695833Y-61474404D01*
X232505357Y-61474404D01*
X232429166Y-61512500D01*
X232391071Y-61550595D01*
X232352976Y-61626785D01*
X232352976Y-61702976D01*
X232391071Y-61817261D01*
X232848214Y-62274404D01*
X232352976Y-62274404D01*
X24783928Y-81324404D02*
X24783928Y-80524404D01*
X24593452Y-80524404D01*
X24479166Y-80562500D01*
X24402976Y-80638690D01*
X24364880Y-80714880D01*
X24326785Y-80867261D01*
X24326785Y-80981547D01*
X24364880Y-81133928D01*
X24402976Y-81210119D01*
X24479166Y-81286309D01*
X24593452Y-81324404D01*
X24783928Y-81324404D01*
X23564880Y-81324404D02*
X24022023Y-81324404D01*
X23793452Y-81324404D02*
X23793452Y-80524404D01*
X23869642Y-80638690D01*
X23945833Y-80714880D01*
X24022023Y-80752976D01*
X23298214Y-80524404D02*
X22802976Y-80524404D01*
X23069642Y-80829166D01*
X22955357Y-80829166D01*
X22879166Y-80867261D01*
X22841071Y-80905357D01*
X22802976Y-80981547D01*
X22802976Y-81172023D01*
X22841071Y-81248214D01*
X22879166Y-81286309D01*
X22955357Y-81324404D01*
X23183928Y-81324404D01*
X23260119Y-81286309D01*
X23298214Y-81248214D01*
X43833928Y-81324404D02*
X43833928Y-80524404D01*
X43643452Y-80524404D01*
X43529166Y-80562500D01*
X43452976Y-80638690D01*
X43414880Y-80714880D01*
X43376785Y-80867261D01*
X43376785Y-80981547D01*
X43414880Y-81133928D01*
X43452976Y-81210119D01*
X43529166Y-81286309D01*
X43643452Y-81324404D01*
X43833928Y-81324404D01*
X42614880Y-81324404D02*
X43072023Y-81324404D01*
X42843452Y-81324404D02*
X42843452Y-80524404D01*
X42919642Y-80638690D01*
X42995833Y-80714880D01*
X43072023Y-80752976D01*
X41929166Y-80791071D02*
X41929166Y-81324404D01*
X42119642Y-80486309D02*
X42310119Y-81057738D01*
X41814880Y-81057738D01*
X62883928Y-81324404D02*
X62883928Y-80524404D01*
X62693452Y-80524404D01*
X62579166Y-80562500D01*
X62502976Y-80638690D01*
X62464880Y-80714880D01*
X62426785Y-80867261D01*
X62426785Y-80981547D01*
X62464880Y-81133928D01*
X62502976Y-81210119D01*
X62579166Y-81286309D01*
X62693452Y-81324404D01*
X62883928Y-81324404D01*
X61664880Y-81324404D02*
X62122023Y-81324404D01*
X61893452Y-81324404D02*
X61893452Y-80524404D01*
X61969642Y-80638690D01*
X62045833Y-80714880D01*
X62122023Y-80752976D01*
X60941071Y-80524404D02*
X61322023Y-80524404D01*
X61360119Y-80905357D01*
X61322023Y-80867261D01*
X61245833Y-80829166D01*
X61055357Y-80829166D01*
X60979166Y-80867261D01*
X60941071Y-80905357D01*
X60902976Y-80981547D01*
X60902976Y-81172023D01*
X60941071Y-81248214D01*
X60979166Y-81286309D01*
X61055357Y-81324404D01*
X61245833Y-81324404D01*
X61322023Y-81286309D01*
X61360119Y-81248214D01*
X81933928Y-81324404D02*
X81933928Y-80524404D01*
X81743452Y-80524404D01*
X81629166Y-80562500D01*
X81552976Y-80638690D01*
X81514880Y-80714880D01*
X81476785Y-80867261D01*
X81476785Y-80981547D01*
X81514880Y-81133928D01*
X81552976Y-81210119D01*
X81629166Y-81286309D01*
X81743452Y-81324404D01*
X81933928Y-81324404D01*
X80714880Y-81324404D02*
X81172023Y-81324404D01*
X80943452Y-81324404D02*
X80943452Y-80524404D01*
X81019642Y-80638690D01*
X81095833Y-80714880D01*
X81172023Y-80752976D01*
X80029166Y-80524404D02*
X80181547Y-80524404D01*
X80257738Y-80562500D01*
X80295833Y-80600595D01*
X80372023Y-80714880D01*
X80410119Y-80867261D01*
X80410119Y-81172023D01*
X80372023Y-81248214D01*
X80333928Y-81286309D01*
X80257738Y-81324404D01*
X80105357Y-81324404D01*
X80029166Y-81286309D01*
X79991071Y-81248214D01*
X79952976Y-81172023D01*
X79952976Y-80981547D01*
X79991071Y-80905357D01*
X80029166Y-80867261D01*
X80105357Y-80829166D01*
X80257738Y-80829166D01*
X80333928Y-80867261D01*
X80372023Y-80905357D01*
X80410119Y-80981547D01*
X100983928Y-81324404D02*
X100983928Y-80524404D01*
X100793452Y-80524404D01*
X100679166Y-80562500D01*
X100602976Y-80638690D01*
X100564880Y-80714880D01*
X100526785Y-80867261D01*
X100526785Y-80981547D01*
X100564880Y-81133928D01*
X100602976Y-81210119D01*
X100679166Y-81286309D01*
X100793452Y-81324404D01*
X100983928Y-81324404D01*
X99764880Y-81324404D02*
X100222023Y-81324404D01*
X99993452Y-81324404D02*
X99993452Y-80524404D01*
X100069642Y-80638690D01*
X100145833Y-80714880D01*
X100222023Y-80752976D01*
X99498214Y-80524404D02*
X98964880Y-80524404D01*
X99307738Y-81324404D01*
X120033928Y-81324404D02*
X120033928Y-80524404D01*
X119843452Y-80524404D01*
X119729166Y-80562500D01*
X119652976Y-80638690D01*
X119614880Y-80714880D01*
X119576785Y-80867261D01*
X119576785Y-80981547D01*
X119614880Y-81133928D01*
X119652976Y-81210119D01*
X119729166Y-81286309D01*
X119843452Y-81324404D01*
X120033928Y-81324404D01*
X118814880Y-81324404D02*
X119272023Y-81324404D01*
X119043452Y-81324404D02*
X119043452Y-80524404D01*
X119119642Y-80638690D01*
X119195833Y-80714880D01*
X119272023Y-80752976D01*
X118357738Y-80867261D02*
X118433928Y-80829166D01*
X118472023Y-80791071D01*
X118510119Y-80714880D01*
X118510119Y-80676785D01*
X118472023Y-80600595D01*
X118433928Y-80562500D01*
X118357738Y-80524404D01*
X118205357Y-80524404D01*
X118129166Y-80562500D01*
X118091071Y-80600595D01*
X118052976Y-80676785D01*
X118052976Y-80714880D01*
X118091071Y-80791071D01*
X118129166Y-80829166D01*
X118205357Y-80867261D01*
X118357738Y-80867261D01*
X118433928Y-80905357D01*
X118472023Y-80943452D01*
X118510119Y-81019642D01*
X118510119Y-81172023D01*
X118472023Y-81248214D01*
X118433928Y-81286309D01*
X118357738Y-81324404D01*
X118205357Y-81324404D01*
X118129166Y-81286309D01*
X118091071Y-81248214D01*
X118052976Y-81172023D01*
X118052976Y-81019642D01*
X118091071Y-80943452D01*
X118129166Y-80905357D01*
X118205357Y-80867261D01*
X139083928Y-81324404D02*
X139083928Y-80524404D01*
X138893452Y-80524404D01*
X138779166Y-80562500D01*
X138702976Y-80638690D01*
X138664880Y-80714880D01*
X138626785Y-80867261D01*
X138626785Y-80981547D01*
X138664880Y-81133928D01*
X138702976Y-81210119D01*
X138779166Y-81286309D01*
X138893452Y-81324404D01*
X139083928Y-81324404D01*
X137864880Y-81324404D02*
X138322023Y-81324404D01*
X138093452Y-81324404D02*
X138093452Y-80524404D01*
X138169642Y-80638690D01*
X138245833Y-80714880D01*
X138322023Y-80752976D01*
X137483928Y-81324404D02*
X137331547Y-81324404D01*
X137255357Y-81286309D01*
X137217261Y-81248214D01*
X137141071Y-81133928D01*
X137102976Y-80981547D01*
X137102976Y-80676785D01*
X137141071Y-80600595D01*
X137179166Y-80562500D01*
X137255357Y-80524404D01*
X137407738Y-80524404D01*
X137483928Y-80562500D01*
X137522023Y-80600595D01*
X137560119Y-80676785D01*
X137560119Y-80867261D01*
X137522023Y-80943452D01*
X137483928Y-80981547D01*
X137407738Y-81019642D01*
X137255357Y-81019642D01*
X137179166Y-80981547D01*
X137141071Y-80943452D01*
X137102976Y-80867261D01*
X158133928Y-81324404D02*
X158133928Y-80524404D01*
X157943452Y-80524404D01*
X157829166Y-80562500D01*
X157752976Y-80638690D01*
X157714880Y-80714880D01*
X157676785Y-80867261D01*
X157676785Y-80981547D01*
X157714880Y-81133928D01*
X157752976Y-81210119D01*
X157829166Y-81286309D01*
X157943452Y-81324404D01*
X158133928Y-81324404D01*
X157372023Y-80600595D02*
X157333928Y-80562500D01*
X157257738Y-80524404D01*
X157067261Y-80524404D01*
X156991071Y-80562500D01*
X156952976Y-80600595D01*
X156914880Y-80676785D01*
X156914880Y-80752976D01*
X156952976Y-80867261D01*
X157410119Y-81324404D01*
X156914880Y-81324404D01*
X156419642Y-80524404D02*
X156343452Y-80524404D01*
X156267261Y-80562500D01*
X156229166Y-80600595D01*
X156191071Y-80676785D01*
X156152976Y-80829166D01*
X156152976Y-81019642D01*
X156191071Y-81172023D01*
X156229166Y-81248214D01*
X156267261Y-81286309D01*
X156343452Y-81324404D01*
X156419642Y-81324404D01*
X156495833Y-81286309D01*
X156533928Y-81248214D01*
X156572023Y-81172023D01*
X156610119Y-81019642D01*
X156610119Y-80829166D01*
X156572023Y-80676785D01*
X156533928Y-80600595D01*
X156495833Y-80562500D01*
X156419642Y-80524404D01*
X177183928Y-81324404D02*
X177183928Y-80524404D01*
X176993452Y-80524404D01*
X176879166Y-80562500D01*
X176802976Y-80638690D01*
X176764880Y-80714880D01*
X176726785Y-80867261D01*
X176726785Y-80981547D01*
X176764880Y-81133928D01*
X176802976Y-81210119D01*
X176879166Y-81286309D01*
X176993452Y-81324404D01*
X177183928Y-81324404D01*
X176422023Y-80600595D02*
X176383928Y-80562500D01*
X176307738Y-80524404D01*
X176117261Y-80524404D01*
X176041071Y-80562500D01*
X176002976Y-80600595D01*
X175964880Y-80676785D01*
X175964880Y-80752976D01*
X176002976Y-80867261D01*
X176460119Y-81324404D01*
X175964880Y-81324404D01*
X175202976Y-81324404D02*
X175660119Y-81324404D01*
X175431547Y-81324404D02*
X175431547Y-80524404D01*
X175507738Y-80638690D01*
X175583928Y-80714880D01*
X175660119Y-80752976D01*
X196233928Y-81324404D02*
X196233928Y-80524404D01*
X196043452Y-80524404D01*
X195929166Y-80562500D01*
X195852976Y-80638690D01*
X195814880Y-80714880D01*
X195776785Y-80867261D01*
X195776785Y-80981547D01*
X195814880Y-81133928D01*
X195852976Y-81210119D01*
X195929166Y-81286309D01*
X196043452Y-81324404D01*
X196233928Y-81324404D01*
X195472023Y-80600595D02*
X195433928Y-80562500D01*
X195357738Y-80524404D01*
X195167261Y-80524404D01*
X195091071Y-80562500D01*
X195052976Y-80600595D01*
X195014880Y-80676785D01*
X195014880Y-80752976D01*
X195052976Y-80867261D01*
X195510119Y-81324404D01*
X195014880Y-81324404D01*
X194710119Y-80600595D02*
X194672023Y-80562500D01*
X194595833Y-80524404D01*
X194405357Y-80524404D01*
X194329166Y-80562500D01*
X194291071Y-80600595D01*
X194252976Y-80676785D01*
X194252976Y-80752976D01*
X194291071Y-80867261D01*
X194748214Y-81324404D01*
X194252976Y-81324404D01*
X215283928Y-81324404D02*
X215283928Y-80524404D01*
X215093452Y-80524404D01*
X214979166Y-80562500D01*
X214902976Y-80638690D01*
X214864880Y-80714880D01*
X214826785Y-80867261D01*
X214826785Y-80981547D01*
X214864880Y-81133928D01*
X214902976Y-81210119D01*
X214979166Y-81286309D01*
X215093452Y-81324404D01*
X215283928Y-81324404D01*
X214522023Y-80600595D02*
X214483928Y-80562500D01*
X214407738Y-80524404D01*
X214217261Y-80524404D01*
X214141071Y-80562500D01*
X214102976Y-80600595D01*
X214064880Y-80676785D01*
X214064880Y-80752976D01*
X214102976Y-80867261D01*
X214560119Y-81324404D01*
X214064880Y-81324404D01*
X213798214Y-80524404D02*
X213302976Y-80524404D01*
X213569642Y-80829166D01*
X213455357Y-80829166D01*
X213379166Y-80867261D01*
X213341071Y-80905357D01*
X213302976Y-80981547D01*
X213302976Y-81172023D01*
X213341071Y-81248214D01*
X213379166Y-81286309D01*
X213455357Y-81324404D01*
X213683928Y-81324404D01*
X213760119Y-81286309D01*
X213798214Y-81248214D01*
X234333928Y-81324404D02*
X234333928Y-80524404D01*
X234143452Y-80524404D01*
X234029166Y-80562500D01*
X233952976Y-80638690D01*
X233914880Y-80714880D01*
X233876785Y-80867261D01*
X233876785Y-80981547D01*
X233914880Y-81133928D01*
X233952976Y-81210119D01*
X234029166Y-81286309D01*
X234143452Y-81324404D01*
X234333928Y-81324404D01*
X233572023Y-80600595D02*
X233533928Y-80562500D01*
X233457738Y-80524404D01*
X233267261Y-80524404D01*
X233191071Y-80562500D01*
X233152976Y-80600595D01*
X233114880Y-80676785D01*
X233114880Y-80752976D01*
X233152976Y-80867261D01*
X233610119Y-81324404D01*
X233114880Y-81324404D01*
X232429166Y-80791071D02*
X232429166Y-81324404D01*
X232619642Y-80486309D02*
X232810119Y-81057738D01*
X232314880Y-81057738D01*
X24783928Y-100374404D02*
X24783928Y-99574404D01*
X24593452Y-99574404D01*
X24479166Y-99612500D01*
X24402976Y-99688690D01*
X24364880Y-99764880D01*
X24326785Y-99917261D01*
X24326785Y-100031547D01*
X24364880Y-100183928D01*
X24402976Y-100260119D01*
X24479166Y-100336309D01*
X24593452Y-100374404D01*
X24783928Y-100374404D01*
X24022023Y-99650595D02*
X23983928Y-99612500D01*
X23907738Y-99574404D01*
X23717261Y-99574404D01*
X23641071Y-99612500D01*
X23602976Y-99650595D01*
X23564880Y-99726785D01*
X23564880Y-99802976D01*
X23602976Y-99917261D01*
X24060119Y-100374404D01*
X23564880Y-100374404D01*
X22841071Y-99574404D02*
X23222023Y-99574404D01*
X23260119Y-99955357D01*
X23222023Y-99917261D01*
X23145833Y-99879166D01*
X22955357Y-99879166D01*
X22879166Y-99917261D01*
X22841071Y-99955357D01*
X22802976Y-100031547D01*
X22802976Y-100222023D01*
X22841071Y-100298214D01*
X22879166Y-100336309D01*
X22955357Y-100374404D01*
X23145833Y-100374404D01*
X23222023Y-100336309D01*
X23260119Y-100298214D01*
X43833928Y-100374404D02*
X43833928Y-99574404D01*
X43643452Y-99574404D01*
X43529166Y-99612500D01*
X43452976Y-99688690D01*
X43414880Y-99764880D01*
X43376785Y-99917261D01*
X43376785Y-100031547D01*
X43414880Y-100183928D01*
X43452976Y-100260119D01*
X43529166Y-100336309D01*
X43643452Y-100374404D01*
X43833928Y-100374404D01*
X43072023Y-99650595D02*
X43033928Y-99612500D01*
X42957738Y-99574404D01*
X42767261Y-99574404D01*
X42691071Y-99612500D01*
X42652976Y-99650595D01*
X42614880Y-99726785D01*
X42614880Y-99802976D01*
X42652976Y-99917261D01*
X43110119Y-100374404D01*
X42614880Y-100374404D01*
X41929166Y-99574404D02*
X42081547Y-99574404D01*
X42157738Y-99612500D01*
X42195833Y-99650595D01*
X42272023Y-99764880D01*
X42310119Y-99917261D01*
X42310119Y-100222023D01*
X42272023Y-100298214D01*
X42233928Y-100336309D01*
X42157738Y-100374404D01*
X42005357Y-100374404D01*
X41929166Y-100336309D01*
X41891071Y-100298214D01*
X41852976Y-100222023D01*
X41852976Y-100031547D01*
X41891071Y-99955357D01*
X41929166Y-99917261D01*
X42005357Y-99879166D01*
X42157738Y-99879166D01*
X42233928Y-99917261D01*
X42272023Y-99955357D01*
X42310119Y-100031547D01*
X62883928Y-100374404D02*
X62883928Y-99574404D01*
X62693452Y-99574404D01*
X62579166Y-99612500D01*
X62502976Y-99688690D01*
X62464880Y-99764880D01*
X62426785Y-99917261D01*
X62426785Y-100031547D01*
X62464880Y-100183928D01*
X62502976Y-100260119D01*
X62579166Y-100336309D01*
X62693452Y-100374404D01*
X62883928Y-100374404D01*
X62122023Y-99650595D02*
X62083928Y-99612500D01*
X62007738Y-99574404D01*
X61817261Y-99574404D01*
X61741071Y-99612500D01*
X61702976Y-99650595D01*
X61664880Y-99726785D01*
X61664880Y-99802976D01*
X61702976Y-99917261D01*
X62160119Y-100374404D01*
X61664880Y-100374404D01*
X61398214Y-99574404D02*
X60864880Y-99574404D01*
X61207738Y-100374404D01*
X81933928Y-100374404D02*
X81933928Y-99574404D01*
X81743452Y-99574404D01*
X81629166Y-99612500D01*
X81552976Y-99688690D01*
X81514880Y-99764880D01*
X81476785Y-99917261D01*
X81476785Y-100031547D01*
X81514880Y-100183928D01*
X81552976Y-100260119D01*
X81629166Y-100336309D01*
X81743452Y-100374404D01*
X81933928Y-100374404D01*
X81172023Y-99650595D02*
X81133928Y-99612500D01*
X81057738Y-99574404D01*
X80867261Y-99574404D01*
X80791071Y-99612500D01*
X80752976Y-99650595D01*
X80714880Y-99726785D01*
X80714880Y-99802976D01*
X80752976Y-99917261D01*
X81210119Y-100374404D01*
X80714880Y-100374404D01*
X80257738Y-99917261D02*
X80333928Y-99879166D01*
X80372023Y-99841071D01*
X80410119Y-99764880D01*
X80410119Y-99726785D01*
X80372023Y-99650595D01*
X80333928Y-99612500D01*
X80257738Y-99574404D01*
X80105357Y-99574404D01*
X80029166Y-99612500D01*
X79991071Y-99650595D01*
X79952976Y-99726785D01*
X79952976Y-99764880D01*
X79991071Y-99841071D01*
X80029166Y-99879166D01*
X80105357Y-99917261D01*
X80257738Y-99917261D01*
X80333928Y-99955357D01*
X80372023Y-99993452D01*
X80410119Y-100069642D01*
X80410119Y-100222023D01*
X80372023Y-100298214D01*
X80333928Y-100336309D01*
X80257738Y-100374404D01*
X80105357Y-100374404D01*
X80029166Y-100336309D01*
X79991071Y-100298214D01*
X79952976Y-100222023D01*
X79952976Y-100069642D01*
X79991071Y-99993452D01*
X80029166Y-99955357D01*
X80105357Y-99917261D01*
X100983928Y-100374404D02*
X100983928Y-99574404D01*
X100793452Y-99574404D01*
X100679166Y-99612500D01*
X100602976Y-99688690D01*
X100564880Y-99764880D01*
X100526785Y-99917261D01*
X100526785Y-100031547D01*
X100564880Y-100183928D01*
X100602976Y-100260119D01*
X100679166Y-100336309D01*
X100793452Y-100374404D01*
X100983928Y-100374404D01*
X100222023Y-99650595D02*
X100183928Y-99612500D01*
X100107738Y-99574404D01*
X99917261Y-99574404D01*
X99841071Y-99612500D01*
X99802976Y-99650595D01*
X99764880Y-99726785D01*
X99764880Y-99802976D01*
X99802976Y-99917261D01*
X100260119Y-100374404D01*
X99764880Y-100374404D01*
X99383928Y-100374404D02*
X99231547Y-100374404D01*
X99155357Y-100336309D01*
X99117261Y-100298214D01*
X99041071Y-100183928D01*
X99002976Y-100031547D01*
X99002976Y-99726785D01*
X99041071Y-99650595D01*
X99079166Y-99612500D01*
X99155357Y-99574404D01*
X99307738Y-99574404D01*
X99383928Y-99612500D01*
X99422023Y-99650595D01*
X99460119Y-99726785D01*
X99460119Y-99917261D01*
X99422023Y-99993452D01*
X99383928Y-100031547D01*
X99307738Y-100069642D01*
X99155357Y-100069642D01*
X99079166Y-100031547D01*
X99041071Y-99993452D01*
X99002976Y-99917261D01*
X120033928Y-100374404D02*
X120033928Y-99574404D01*
X119843452Y-99574404D01*
X119729166Y-99612500D01*
X119652976Y-99688690D01*
X119614880Y-99764880D01*
X119576785Y-99917261D01*
X119576785Y-100031547D01*
X119614880Y-100183928D01*
X119652976Y-100260119D01*
X119729166Y-100336309D01*
X119843452Y-100374404D01*
X120033928Y-100374404D01*
X119310119Y-99574404D02*
X118814880Y-99574404D01*
X119081547Y-99879166D01*
X118967261Y-99879166D01*
X118891071Y-99917261D01*
X118852976Y-99955357D01*
X118814880Y-100031547D01*
X118814880Y-100222023D01*
X118852976Y-100298214D01*
X118891071Y-100336309D01*
X118967261Y-100374404D01*
X119195833Y-100374404D01*
X119272023Y-100336309D01*
X119310119Y-100298214D01*
X118319642Y-99574404D02*
X118243452Y-99574404D01*
X118167261Y-99612500D01*
X118129166Y-99650595D01*
X118091071Y-99726785D01*
X118052976Y-99879166D01*
X118052976Y-100069642D01*
X118091071Y-100222023D01*
X118129166Y-100298214D01*
X118167261Y-100336309D01*
X118243452Y-100374404D01*
X118319642Y-100374404D01*
X118395833Y-100336309D01*
X118433928Y-100298214D01*
X118472023Y-100222023D01*
X118510119Y-100069642D01*
X118510119Y-99879166D01*
X118472023Y-99726785D01*
X118433928Y-99650595D01*
X118395833Y-99612500D01*
X118319642Y-99574404D01*
X139083928Y-100374404D02*
X139083928Y-99574404D01*
X138893452Y-99574404D01*
X138779166Y-99612500D01*
X138702976Y-99688690D01*
X138664880Y-99764880D01*
X138626785Y-99917261D01*
X138626785Y-100031547D01*
X138664880Y-100183928D01*
X138702976Y-100260119D01*
X138779166Y-100336309D01*
X138893452Y-100374404D01*
X139083928Y-100374404D01*
X138360119Y-99574404D02*
X137864880Y-99574404D01*
X138131547Y-99879166D01*
X138017261Y-99879166D01*
X137941071Y-99917261D01*
X137902976Y-99955357D01*
X137864880Y-100031547D01*
X137864880Y-100222023D01*
X137902976Y-100298214D01*
X137941071Y-100336309D01*
X138017261Y-100374404D01*
X138245833Y-100374404D01*
X138322023Y-100336309D01*
X138360119Y-100298214D01*
X137102976Y-100374404D02*
X137560119Y-100374404D01*
X137331547Y-100374404D02*
X137331547Y-99574404D01*
X137407738Y-99688690D01*
X137483928Y-99764880D01*
X137560119Y-99802976D01*
X158133928Y-100374404D02*
X158133928Y-99574404D01*
X157943452Y-99574404D01*
X157829166Y-99612500D01*
X157752976Y-99688690D01*
X157714880Y-99764880D01*
X157676785Y-99917261D01*
X157676785Y-100031547D01*
X157714880Y-100183928D01*
X157752976Y-100260119D01*
X157829166Y-100336309D01*
X157943452Y-100374404D01*
X158133928Y-100374404D01*
X157410119Y-99574404D02*
X156914880Y-99574404D01*
X157181547Y-99879166D01*
X157067261Y-99879166D01*
X156991071Y-99917261D01*
X156952976Y-99955357D01*
X156914880Y-100031547D01*
X156914880Y-100222023D01*
X156952976Y-100298214D01*
X156991071Y-100336309D01*
X157067261Y-100374404D01*
X157295833Y-100374404D01*
X157372023Y-100336309D01*
X157410119Y-100298214D01*
X156610119Y-99650595D02*
X156572023Y-99612500D01*
X156495833Y-99574404D01*
X156305357Y-99574404D01*
X156229166Y-99612500D01*
X156191071Y-99650595D01*
X156152976Y-99726785D01*
X156152976Y-99802976D01*
X156191071Y-99917261D01*
X156648214Y-100374404D01*
X156152976Y-100374404D01*
X177183928Y-100374404D02*
X177183928Y-99574404D01*
X176993452Y-99574404D01*
X176879166Y-99612500D01*
X176802976Y-99688690D01*
X176764880Y-99764880D01*
X176726785Y-99917261D01*
X176726785Y-100031547D01*
X176764880Y-100183928D01*
X176802976Y-100260119D01*
X176879166Y-100336309D01*
X176993452Y-100374404D01*
X177183928Y-100374404D01*
X176460119Y-99574404D02*
X175964880Y-99574404D01*
X176231547Y-99879166D01*
X176117261Y-99879166D01*
X176041071Y-99917261D01*
X176002976Y-99955357D01*
X175964880Y-100031547D01*
X175964880Y-100222023D01*
X176002976Y-100298214D01*
X176041071Y-100336309D01*
X176117261Y-100374404D01*
X176345833Y-100374404D01*
X176422023Y-100336309D01*
X176460119Y-100298214D01*
X175698214Y-99574404D02*
X175202976Y-99574404D01*
X175469642Y-99879166D01*
X175355357Y-99879166D01*
X175279166Y-99917261D01*
X175241071Y-99955357D01*
X175202976Y-100031547D01*
X175202976Y-100222023D01*
X175241071Y-100298214D01*
X175279166Y-100336309D01*
X175355357Y-100374404D01*
X175583928Y-100374404D01*
X175660119Y-100336309D01*
X175698214Y-100298214D01*
X196233928Y-100374404D02*
X196233928Y-99574404D01*
X196043452Y-99574404D01*
X195929166Y-99612500D01*
X195852976Y-99688690D01*
X195814880Y-99764880D01*
X195776785Y-99917261D01*
X195776785Y-100031547D01*
X195814880Y-100183928D01*
X195852976Y-100260119D01*
X195929166Y-100336309D01*
X196043452Y-100374404D01*
X196233928Y-100374404D01*
X195510119Y-99574404D02*
X195014880Y-99574404D01*
X195281547Y-99879166D01*
X195167261Y-99879166D01*
X195091071Y-99917261D01*
X195052976Y-99955357D01*
X195014880Y-100031547D01*
X195014880Y-100222023D01*
X195052976Y-100298214D01*
X195091071Y-100336309D01*
X195167261Y-100374404D01*
X195395833Y-100374404D01*
X195472023Y-100336309D01*
X195510119Y-100298214D01*
X194329166Y-99841071D02*
X194329166Y-100374404D01*
X194519642Y-99536309D02*
X194710119Y-100107738D01*
X194214880Y-100107738D01*
X215283928Y-100374404D02*
X215283928Y-99574404D01*
X215093452Y-99574404D01*
X214979166Y-99612500D01*
X214902976Y-99688690D01*
X214864880Y-99764880D01*
X214826785Y-99917261D01*
X214826785Y-100031547D01*
X214864880Y-100183928D01*
X214902976Y-100260119D01*
X214979166Y-100336309D01*
X215093452Y-100374404D01*
X215283928Y-100374404D01*
X214560119Y-99574404D02*
X214064880Y-99574404D01*
X214331547Y-99879166D01*
X214217261Y-99879166D01*
X214141071Y-99917261D01*
X214102976Y-99955357D01*
X214064880Y-100031547D01*
X214064880Y-100222023D01*
X214102976Y-100298214D01*
X214141071Y-100336309D01*
X214217261Y-100374404D01*
X214445833Y-100374404D01*
X214522023Y-100336309D01*
X214560119Y-100298214D01*
X213341071Y-99574404D02*
X213722023Y-99574404D01*
X213760119Y-99955357D01*
X213722023Y-99917261D01*
X213645833Y-99879166D01*
X213455357Y-99879166D01*
X213379166Y-99917261D01*
X213341071Y-99955357D01*
X213302976Y-100031547D01*
X213302976Y-100222023D01*
X213341071Y-100298214D01*
X213379166Y-100336309D01*
X213455357Y-100374404D01*
X213645833Y-100374404D01*
X213722023Y-100336309D01*
X213760119Y-100298214D01*
X234333928Y-100374404D02*
X234333928Y-99574404D01*
X234143452Y-99574404D01*
X234029166Y-99612500D01*
X233952976Y-99688690D01*
X233914880Y-99764880D01*
X233876785Y-99917261D01*
X233876785Y-100031547D01*
X233914880Y-100183928D01*
X233952976Y-100260119D01*
X234029166Y-100336309D01*
X234143452Y-100374404D01*
X234333928Y-100374404D01*
X233610119Y-99574404D02*
X233114880Y-99574404D01*
X233381547Y-99879166D01*
X233267261Y-99879166D01*
X233191071Y-99917261D01*
X233152976Y-99955357D01*
X233114880Y-100031547D01*
X233114880Y-100222023D01*
X233152976Y-100298214D01*
X233191071Y-100336309D01*
X233267261Y-100374404D01*
X233495833Y-100374404D01*
X233572023Y-100336309D01*
X233610119Y-100298214D01*
X232429166Y-99574404D02*
X232581547Y-99574404D01*
X232657738Y-99612500D01*
X232695833Y-99650595D01*
X232772023Y-99764880D01*
X232810119Y-99917261D01*
X232810119Y-100222023D01*
X232772023Y-100298214D01*
X232733928Y-100336309D01*
X232657738Y-100374404D01*
X232505357Y-100374404D01*
X232429166Y-100336309D01*
X232391071Y-100298214D01*
X232352976Y-100222023D01*
X232352976Y-100031547D01*
X232391071Y-99955357D01*
X232429166Y-99917261D01*
X232505357Y-99879166D01*
X232657738Y-99879166D01*
X232733928Y-99917261D01*
X232772023Y-99955357D01*
X232810119Y-100031547D01*
X24783928Y-119424404D02*
X24783928Y-118624404D01*
X24593452Y-118624404D01*
X24479166Y-118662500D01*
X24402976Y-118738690D01*
X24364880Y-118814880D01*
X24326785Y-118967261D01*
X24326785Y-119081547D01*
X24364880Y-119233928D01*
X24402976Y-119310119D01*
X24479166Y-119386309D01*
X24593452Y-119424404D01*
X24783928Y-119424404D01*
X24060119Y-118624404D02*
X23564880Y-118624404D01*
X23831547Y-118929166D01*
X23717261Y-118929166D01*
X23641071Y-118967261D01*
X23602976Y-119005357D01*
X23564880Y-119081547D01*
X23564880Y-119272023D01*
X23602976Y-119348214D01*
X23641071Y-119386309D01*
X23717261Y-119424404D01*
X23945833Y-119424404D01*
X24022023Y-119386309D01*
X24060119Y-119348214D01*
X23298214Y-118624404D02*
X22764880Y-118624404D01*
X23107738Y-119424404D01*
X43833928Y-119424404D02*
X43833928Y-118624404D01*
X43643452Y-118624404D01*
X43529166Y-118662500D01*
X43452976Y-118738690D01*
X43414880Y-118814880D01*
X43376785Y-118967261D01*
X43376785Y-119081547D01*
X43414880Y-119233928D01*
X43452976Y-119310119D01*
X43529166Y-119386309D01*
X43643452Y-119424404D01*
X43833928Y-119424404D01*
X43110119Y-118624404D02*
X42614880Y-118624404D01*
X42881547Y-118929166D01*
X42767261Y-118929166D01*
X42691071Y-118967261D01*
X42652976Y-119005357D01*
X42614880Y-119081547D01*
X42614880Y-119272023D01*
X42652976Y-119348214D01*
X42691071Y-119386309D01*
X42767261Y-119424404D01*
X42995833Y-119424404D01*
X43072023Y-119386309D01*
X43110119Y-119348214D01*
X42157738Y-118967261D02*
X42233928Y-118929166D01*
X42272023Y-118891071D01*
X42310119Y-118814880D01*
X42310119Y-118776785D01*
X42272023Y-118700595D01*
X42233928Y-118662500D01*
X42157738Y-118624404D01*
X42005357Y-118624404D01*
X41929166Y-118662500D01*
X41891071Y-118700595D01*
X41852976Y-118776785D01*
X41852976Y-118814880D01*
X41891071Y-118891071D01*
X41929166Y-118929166D01*
X42005357Y-118967261D01*
X42157738Y-118967261D01*
X42233928Y-119005357D01*
X42272023Y-119043452D01*
X42310119Y-119119642D01*
X42310119Y-119272023D01*
X42272023Y-119348214D01*
X42233928Y-119386309D01*
X42157738Y-119424404D01*
X42005357Y-119424404D01*
X41929166Y-119386309D01*
X41891071Y-119348214D01*
X41852976Y-119272023D01*
X41852976Y-119119642D01*
X41891071Y-119043452D01*
X41929166Y-119005357D01*
X42005357Y-118967261D01*
X62883928Y-119424404D02*
X62883928Y-118624404D01*
X62693452Y-118624404D01*
X62579166Y-118662500D01*
X62502976Y-118738690D01*
X62464880Y-118814880D01*
X62426785Y-118967261D01*
X62426785Y-119081547D01*
X62464880Y-119233928D01*
X62502976Y-119310119D01*
X62579166Y-119386309D01*
X62693452Y-119424404D01*
X62883928Y-119424404D01*
X62160119Y-118624404D02*
X61664880Y-118624404D01*
X61931547Y-118929166D01*
X61817261Y-118929166D01*
X61741071Y-118967261D01*
X61702976Y-119005357D01*
X61664880Y-119081547D01*
X61664880Y-119272023D01*
X61702976Y-119348214D01*
X61741071Y-119386309D01*
X61817261Y-119424404D01*
X62045833Y-119424404D01*
X62122023Y-119386309D01*
X62160119Y-119348214D01*
X61283928Y-119424404D02*
X61131547Y-119424404D01*
X61055357Y-119386309D01*
X61017261Y-119348214D01*
X60941071Y-119233928D01*
X60902976Y-119081547D01*
X60902976Y-118776785D01*
X60941071Y-118700595D01*
X60979166Y-118662500D01*
X61055357Y-118624404D01*
X61207738Y-118624404D01*
X61283928Y-118662500D01*
X61322023Y-118700595D01*
X61360119Y-118776785D01*
X61360119Y-118967261D01*
X61322023Y-119043452D01*
X61283928Y-119081547D01*
X61207738Y-119119642D01*
X61055357Y-119119642D01*
X60979166Y-119081547D01*
X60941071Y-119043452D01*
X60902976Y-118967261D01*
X81933928Y-119424404D02*
X81933928Y-118624404D01*
X81743452Y-118624404D01*
X81629166Y-118662500D01*
X81552976Y-118738690D01*
X81514880Y-118814880D01*
X81476785Y-118967261D01*
X81476785Y-119081547D01*
X81514880Y-119233928D01*
X81552976Y-119310119D01*
X81629166Y-119386309D01*
X81743452Y-119424404D01*
X81933928Y-119424404D01*
X80791071Y-118891071D02*
X80791071Y-119424404D01*
X80981547Y-118586309D02*
X81172023Y-119157738D01*
X80676785Y-119157738D01*
X80219642Y-118624404D02*
X80143452Y-118624404D01*
X80067261Y-118662500D01*
X80029166Y-118700595D01*
X79991071Y-118776785D01*
X79952976Y-118929166D01*
X79952976Y-119119642D01*
X79991071Y-119272023D01*
X80029166Y-119348214D01*
X80067261Y-119386309D01*
X80143452Y-119424404D01*
X80219642Y-119424404D01*
X80295833Y-119386309D01*
X80333928Y-119348214D01*
X80372023Y-119272023D01*
X80410119Y-119119642D01*
X80410119Y-118929166D01*
X80372023Y-118776785D01*
X80333928Y-118700595D01*
X80295833Y-118662500D01*
X80219642Y-118624404D01*
X100983928Y-119424404D02*
X100983928Y-118624404D01*
X100793452Y-118624404D01*
X100679166Y-118662500D01*
X100602976Y-118738690D01*
X100564880Y-118814880D01*
X100526785Y-118967261D01*
X100526785Y-119081547D01*
X100564880Y-119233928D01*
X100602976Y-119310119D01*
X100679166Y-119386309D01*
X100793452Y-119424404D01*
X100983928Y-119424404D01*
X99841071Y-118891071D02*
X99841071Y-119424404D01*
X100031547Y-118586309D02*
X100222023Y-119157738D01*
X99726785Y-119157738D01*
X99002976Y-119424404D02*
X99460119Y-119424404D01*
X99231547Y-119424404D02*
X99231547Y-118624404D01*
X99307738Y-118738690D01*
X99383928Y-118814880D01*
X99460119Y-118852976D01*
X158133928Y-119424404D02*
X158133928Y-118624404D01*
X157943452Y-118624404D01*
X157829166Y-118662500D01*
X157752976Y-118738690D01*
X157714880Y-118814880D01*
X157676785Y-118967261D01*
X157676785Y-119081547D01*
X157714880Y-119233928D01*
X157752976Y-119310119D01*
X157829166Y-119386309D01*
X157943452Y-119424404D01*
X158133928Y-119424404D01*
X156991071Y-118891071D02*
X156991071Y-119424404D01*
X157181547Y-118586309D02*
X157372023Y-119157738D01*
X156876785Y-119157738D01*
X156648214Y-118624404D02*
X156152976Y-118624404D01*
X156419642Y-118929166D01*
X156305357Y-118929166D01*
X156229166Y-118967261D01*
X156191071Y-119005357D01*
X156152976Y-119081547D01*
X156152976Y-119272023D01*
X156191071Y-119348214D01*
X156229166Y-119386309D01*
X156305357Y-119424404D01*
X156533928Y-119424404D01*
X156610119Y-119386309D01*
X156648214Y-119348214D01*
X177183928Y-119424404D02*
X177183928Y-118624404D01*
X176993452Y-118624404D01*
X176879166Y-118662500D01*
X176802976Y-118738690D01*
X176764880Y-118814880D01*
X176726785Y-118967261D01*
X176726785Y-119081547D01*
X176764880Y-119233928D01*
X176802976Y-119310119D01*
X176879166Y-119386309D01*
X176993452Y-119424404D01*
X177183928Y-119424404D01*
X176041071Y-118891071D02*
X176041071Y-119424404D01*
X176231547Y-118586309D02*
X176422023Y-119157738D01*
X175926785Y-119157738D01*
X175279166Y-118891071D02*
X175279166Y-119424404D01*
X175469642Y-118586309D02*
X175660119Y-119157738D01*
X175164880Y-119157738D01*
X196233928Y-119424404D02*
X196233928Y-118624404D01*
X196043452Y-118624404D01*
X195929166Y-118662500D01*
X195852976Y-118738690D01*
X195814880Y-118814880D01*
X195776785Y-118967261D01*
X195776785Y-119081547D01*
X195814880Y-119233928D01*
X195852976Y-119310119D01*
X195929166Y-119386309D01*
X196043452Y-119424404D01*
X196233928Y-119424404D01*
X195091071Y-118891071D02*
X195091071Y-119424404D01*
X195281547Y-118586309D02*
X195472023Y-119157738D01*
X194976785Y-119157738D01*
X194291071Y-118624404D02*
X194672023Y-118624404D01*
X194710119Y-119005357D01*
X194672023Y-118967261D01*
X194595833Y-118929166D01*
X194405357Y-118929166D01*
X194329166Y-118967261D01*
X194291071Y-119005357D01*
X194252976Y-119081547D01*
X194252976Y-119272023D01*
X194291071Y-119348214D01*
X194329166Y-119386309D01*
X194405357Y-119424404D01*
X194595833Y-119424404D01*
X194672023Y-119386309D01*
X194710119Y-119348214D01*
X215283928Y-119424404D02*
X215283928Y-118624404D01*
X215093452Y-118624404D01*
X214979166Y-118662500D01*
X214902976Y-118738690D01*
X214864880Y-118814880D01*
X214826785Y-118967261D01*
X214826785Y-119081547D01*
X214864880Y-119233928D01*
X214902976Y-119310119D01*
X214979166Y-119386309D01*
X215093452Y-119424404D01*
X215283928Y-119424404D01*
X214141071Y-118891071D02*
X214141071Y-119424404D01*
X214331547Y-118586309D02*
X214522023Y-119157738D01*
X214026785Y-119157738D01*
X213379166Y-118624404D02*
X213531547Y-118624404D01*
X213607738Y-118662500D01*
X213645833Y-118700595D01*
X213722023Y-118814880D01*
X213760119Y-118967261D01*
X213760119Y-119272023D01*
X213722023Y-119348214D01*
X213683928Y-119386309D01*
X213607738Y-119424404D01*
X213455357Y-119424404D01*
X213379166Y-119386309D01*
X213341071Y-119348214D01*
X213302976Y-119272023D01*
X213302976Y-119081547D01*
X213341071Y-119005357D01*
X213379166Y-118967261D01*
X213455357Y-118929166D01*
X213607738Y-118929166D01*
X213683928Y-118967261D01*
X213722023Y-119005357D01*
X213760119Y-119081547D01*
X234333928Y-119880654D02*
X234333928Y-119080654D01*
X234143452Y-119080654D01*
X234029166Y-119118750D01*
X233952976Y-119194940D01*
X233914880Y-119271130D01*
X233876785Y-119423511D01*
X233876785Y-119537797D01*
X233914880Y-119690178D01*
X233952976Y-119766369D01*
X234029166Y-119842559D01*
X234143452Y-119880654D01*
X234333928Y-119880654D01*
X233191071Y-119347321D02*
X233191071Y-119880654D01*
X233381547Y-119042559D02*
X233572023Y-119613988D01*
X233076785Y-119613988D01*
X232848214Y-119080654D02*
X232314880Y-119080654D01*
X232657738Y-119880654D01*
D12*
X34075595Y-62364880D02*
X34075595Y-61364880D01*
X33504166Y-62364880D02*
X33932738Y-61793452D01*
X33504166Y-61364880D02*
X34075595Y-61936309D01*
X32551785Y-62364880D02*
X33123214Y-62364880D01*
X32837500Y-62364880D02*
X32837500Y-61364880D01*
X32932738Y-61507738D01*
X33027976Y-61602976D01*
X33123214Y-61650595D01*
X53125595Y-62364880D02*
X53125595Y-61364880D01*
X52554166Y-62364880D02*
X52982738Y-61793452D01*
X52554166Y-61364880D02*
X53125595Y-61936309D01*
X52173214Y-61460119D02*
X52125595Y-61412500D01*
X52030357Y-61364880D01*
X51792261Y-61364880D01*
X51697023Y-61412500D01*
X51649404Y-61460119D01*
X51601785Y-61555357D01*
X51601785Y-61650595D01*
X51649404Y-61793452D01*
X52220833Y-62364880D01*
X51601785Y-62364880D01*
X72175595Y-62364880D02*
X72175595Y-61364880D01*
X71604166Y-62364880D02*
X72032738Y-61793452D01*
X71604166Y-61364880D02*
X72175595Y-61936309D01*
X71270833Y-61364880D02*
X70651785Y-61364880D01*
X70985119Y-61745833D01*
X70842261Y-61745833D01*
X70747023Y-61793452D01*
X70699404Y-61841071D01*
X70651785Y-61936309D01*
X70651785Y-62174404D01*
X70699404Y-62269642D01*
X70747023Y-62317261D01*
X70842261Y-62364880D01*
X71127976Y-62364880D01*
X71223214Y-62317261D01*
X71270833Y-62269642D01*
X91225595Y-62364880D02*
X91225595Y-61364880D01*
X90654166Y-62364880D02*
X91082738Y-61793452D01*
X90654166Y-61364880D02*
X91225595Y-61936309D01*
X89797023Y-61698214D02*
X89797023Y-62364880D01*
X90035119Y-61317261D02*
X90273214Y-62031547D01*
X89654166Y-62031547D01*
X110275595Y-62364880D02*
X110275595Y-61364880D01*
X109704166Y-62364880D02*
X110132738Y-61793452D01*
X109704166Y-61364880D02*
X110275595Y-61936309D01*
X108799404Y-61364880D02*
X109275595Y-61364880D01*
X109323214Y-61841071D01*
X109275595Y-61793452D01*
X109180357Y-61745833D01*
X108942261Y-61745833D01*
X108847023Y-61793452D01*
X108799404Y-61841071D01*
X108751785Y-61936309D01*
X108751785Y-62174404D01*
X108799404Y-62269642D01*
X108847023Y-62317261D01*
X108942261Y-62364880D01*
X109180357Y-62364880D01*
X109275595Y-62317261D01*
X109323214Y-62269642D01*
X129325595Y-62364880D02*
X129325595Y-61364880D01*
X128754166Y-62364880D02*
X129182738Y-61793452D01*
X128754166Y-61364880D02*
X129325595Y-61936309D01*
X127897023Y-61364880D02*
X128087500Y-61364880D01*
X128182738Y-61412500D01*
X128230357Y-61460119D01*
X128325595Y-61602976D01*
X128373214Y-61793452D01*
X128373214Y-62174404D01*
X128325595Y-62269642D01*
X128277976Y-62317261D01*
X128182738Y-62364880D01*
X127992261Y-62364880D01*
X127897023Y-62317261D01*
X127849404Y-62269642D01*
X127801785Y-62174404D01*
X127801785Y-61936309D01*
X127849404Y-61841071D01*
X127897023Y-61793452D01*
X127992261Y-61745833D01*
X128182738Y-61745833D01*
X128277976Y-61793452D01*
X128325595Y-61841071D01*
X128373214Y-61936309D01*
X148375595Y-62364880D02*
X148375595Y-61364880D01*
X147804166Y-62364880D02*
X148232738Y-61793452D01*
X147804166Y-61364880D02*
X148375595Y-61936309D01*
X147470833Y-61364880D02*
X146804166Y-61364880D01*
X147232738Y-62364880D01*
X167425595Y-62364880D02*
X167425595Y-61364880D01*
X166854166Y-62364880D02*
X167282738Y-61793452D01*
X166854166Y-61364880D02*
X167425595Y-61936309D01*
X166282738Y-61793452D02*
X166377976Y-61745833D01*
X166425595Y-61698214D01*
X166473214Y-61602976D01*
X166473214Y-61555357D01*
X166425595Y-61460119D01*
X166377976Y-61412500D01*
X166282738Y-61364880D01*
X166092261Y-61364880D01*
X165997023Y-61412500D01*
X165949404Y-61460119D01*
X165901785Y-61555357D01*
X165901785Y-61602976D01*
X165949404Y-61698214D01*
X165997023Y-61745833D01*
X166092261Y-61793452D01*
X166282738Y-61793452D01*
X166377976Y-61841071D01*
X166425595Y-61888690D01*
X166473214Y-61983928D01*
X166473214Y-62174404D01*
X166425595Y-62269642D01*
X166377976Y-62317261D01*
X166282738Y-62364880D01*
X166092261Y-62364880D01*
X165997023Y-62317261D01*
X165949404Y-62269642D01*
X165901785Y-62174404D01*
X165901785Y-61983928D01*
X165949404Y-61888690D01*
X165997023Y-61841071D01*
X166092261Y-61793452D01*
X186475595Y-62364880D02*
X186475595Y-61364880D01*
X185904166Y-62364880D02*
X186332738Y-61793452D01*
X185904166Y-61364880D02*
X186475595Y-61936309D01*
X185427976Y-62364880D02*
X185237500Y-62364880D01*
X185142261Y-62317261D01*
X185094642Y-62269642D01*
X184999404Y-62126785D01*
X184951785Y-61936309D01*
X184951785Y-61555357D01*
X184999404Y-61460119D01*
X185047023Y-61412500D01*
X185142261Y-61364880D01*
X185332738Y-61364880D01*
X185427976Y-61412500D01*
X185475595Y-61460119D01*
X185523214Y-61555357D01*
X185523214Y-61793452D01*
X185475595Y-61888690D01*
X185427976Y-61936309D01*
X185332738Y-61983928D01*
X185142261Y-61983928D01*
X185047023Y-61936309D01*
X184999404Y-61888690D01*
X184951785Y-61793452D01*
X206001785Y-62364880D02*
X206001785Y-61364880D01*
X205430357Y-62364880D02*
X205858928Y-61793452D01*
X205430357Y-61364880D02*
X206001785Y-61936309D01*
X204477976Y-62364880D02*
X205049404Y-62364880D01*
X204763690Y-62364880D02*
X204763690Y-61364880D01*
X204858928Y-61507738D01*
X204954166Y-61602976D01*
X205049404Y-61650595D01*
X203858928Y-61364880D02*
X203763690Y-61364880D01*
X203668452Y-61412500D01*
X203620833Y-61460119D01*
X203573214Y-61555357D01*
X203525595Y-61745833D01*
X203525595Y-61983928D01*
X203573214Y-62174404D01*
X203620833Y-62269642D01*
X203668452Y-62317261D01*
X203763690Y-62364880D01*
X203858928Y-62364880D01*
X203954166Y-62317261D01*
X204001785Y-62269642D01*
X204049404Y-62174404D01*
X204097023Y-61983928D01*
X204097023Y-61745833D01*
X204049404Y-61555357D01*
X204001785Y-61460119D01*
X203954166Y-61412500D01*
X203858928Y-61364880D01*
X220289285Y-64301630D02*
X220289285Y-63301630D01*
X219717857Y-64301630D02*
X220146428Y-63730202D01*
X219717857Y-63301630D02*
X220289285Y-63873059D01*
X218765476Y-64301630D02*
X219336904Y-64301630D01*
X219051190Y-64301630D02*
X219051190Y-63301630D01*
X219146428Y-63444488D01*
X219241666Y-63539726D01*
X219336904Y-63587345D01*
X217813095Y-64301630D02*
X218384523Y-64301630D01*
X218098809Y-64301630D02*
X218098809Y-63301630D01*
X218194047Y-63444488D01*
X218289285Y-63539726D01*
X218384523Y-63587345D01*
X244101785Y-62364880D02*
X244101785Y-61364880D01*
X243530357Y-62364880D02*
X243958928Y-61793452D01*
X243530357Y-61364880D02*
X244101785Y-61936309D01*
X242577976Y-62364880D02*
X243149404Y-62364880D01*
X242863690Y-62364880D02*
X242863690Y-61364880D01*
X242958928Y-61507738D01*
X243054166Y-61602976D01*
X243149404Y-61650595D01*
X242197023Y-61460119D02*
X242149404Y-61412500D01*
X242054166Y-61364880D01*
X241816071Y-61364880D01*
X241720833Y-61412500D01*
X241673214Y-61460119D01*
X241625595Y-61555357D01*
X241625595Y-61650595D01*
X241673214Y-61793452D01*
X242244642Y-62364880D01*
X241625595Y-62364880D01*
X34551785Y-81414880D02*
X34551785Y-80414880D01*
X33980357Y-81414880D02*
X34408928Y-80843452D01*
X33980357Y-80414880D02*
X34551785Y-80986309D01*
X33027976Y-81414880D02*
X33599404Y-81414880D01*
X33313690Y-81414880D02*
X33313690Y-80414880D01*
X33408928Y-80557738D01*
X33504166Y-80652976D01*
X33599404Y-80700595D01*
X32694642Y-80414880D02*
X32075595Y-80414880D01*
X32408928Y-80795833D01*
X32266071Y-80795833D01*
X32170833Y-80843452D01*
X32123214Y-80891071D01*
X32075595Y-80986309D01*
X32075595Y-81224404D01*
X32123214Y-81319642D01*
X32170833Y-81367261D01*
X32266071Y-81414880D01*
X32551785Y-81414880D01*
X32647023Y-81367261D01*
X32694642Y-81319642D01*
X72651785Y-81414880D02*
X72651785Y-80414880D01*
X72080357Y-81414880D02*
X72508928Y-80843452D01*
X72080357Y-80414880D02*
X72651785Y-80986309D01*
X71127976Y-81414880D02*
X71699404Y-81414880D01*
X71413690Y-81414880D02*
X71413690Y-80414880D01*
X71508928Y-80557738D01*
X71604166Y-80652976D01*
X71699404Y-80700595D01*
X70223214Y-80414880D02*
X70699404Y-80414880D01*
X70747023Y-80891071D01*
X70699404Y-80843452D01*
X70604166Y-80795833D01*
X70366071Y-80795833D01*
X70270833Y-80843452D01*
X70223214Y-80891071D01*
X70175595Y-80986309D01*
X70175595Y-81224404D01*
X70223214Y-81319642D01*
X70270833Y-81367261D01*
X70366071Y-81414880D01*
X70604166Y-81414880D01*
X70699404Y-81367261D01*
X70747023Y-81319642D01*
X91701785Y-81414880D02*
X91701785Y-80414880D01*
X91130357Y-81414880D02*
X91558928Y-80843452D01*
X91130357Y-80414880D02*
X91701785Y-80986309D01*
X90177976Y-81414880D02*
X90749404Y-81414880D01*
X90463690Y-81414880D02*
X90463690Y-80414880D01*
X90558928Y-80557738D01*
X90654166Y-80652976D01*
X90749404Y-80700595D01*
X89320833Y-80414880D02*
X89511309Y-80414880D01*
X89606547Y-80462500D01*
X89654166Y-80510119D01*
X89749404Y-80652976D01*
X89797023Y-80843452D01*
X89797023Y-81224404D01*
X89749404Y-81319642D01*
X89701785Y-81367261D01*
X89606547Y-81414880D01*
X89416071Y-81414880D01*
X89320833Y-81367261D01*
X89273214Y-81319642D01*
X89225595Y-81224404D01*
X89225595Y-80986309D01*
X89273214Y-80891071D01*
X89320833Y-80843452D01*
X89416071Y-80795833D01*
X89606547Y-80795833D01*
X89701785Y-80843452D01*
X89749404Y-80891071D01*
X89797023Y-80986309D01*
X110751785Y-81414880D02*
X110751785Y-80414880D01*
X110180357Y-81414880D02*
X110608928Y-80843452D01*
X110180357Y-80414880D02*
X110751785Y-80986309D01*
X109227976Y-81414880D02*
X109799404Y-81414880D01*
X109513690Y-81414880D02*
X109513690Y-80414880D01*
X109608928Y-80557738D01*
X109704166Y-80652976D01*
X109799404Y-80700595D01*
X108894642Y-80414880D02*
X108227976Y-80414880D01*
X108656547Y-81414880D01*
X129801785Y-81414880D02*
X129801785Y-80414880D01*
X129230357Y-81414880D02*
X129658928Y-80843452D01*
X129230357Y-80414880D02*
X129801785Y-80986309D01*
X128277976Y-81414880D02*
X128849404Y-81414880D01*
X128563690Y-81414880D02*
X128563690Y-80414880D01*
X128658928Y-80557738D01*
X128754166Y-80652976D01*
X128849404Y-80700595D01*
X127706547Y-80843452D02*
X127801785Y-80795833D01*
X127849404Y-80748214D01*
X127897023Y-80652976D01*
X127897023Y-80605357D01*
X127849404Y-80510119D01*
X127801785Y-80462500D01*
X127706547Y-80414880D01*
X127516071Y-80414880D01*
X127420833Y-80462500D01*
X127373214Y-80510119D01*
X127325595Y-80605357D01*
X127325595Y-80652976D01*
X127373214Y-80748214D01*
X127420833Y-80795833D01*
X127516071Y-80843452D01*
X127706547Y-80843452D01*
X127801785Y-80891071D01*
X127849404Y-80938690D01*
X127897023Y-81033928D01*
X127897023Y-81224404D01*
X127849404Y-81319642D01*
X127801785Y-81367261D01*
X127706547Y-81414880D01*
X127516071Y-81414880D01*
X127420833Y-81367261D01*
X127373214Y-81319642D01*
X127325595Y-81224404D01*
X127325595Y-81033928D01*
X127373214Y-80938690D01*
X127420833Y-80891071D01*
X127516071Y-80843452D01*
X148851785Y-81414880D02*
X148851785Y-80414880D01*
X148280357Y-81414880D02*
X148708928Y-80843452D01*
X148280357Y-80414880D02*
X148851785Y-80986309D01*
X147327976Y-81414880D02*
X147899404Y-81414880D01*
X147613690Y-81414880D02*
X147613690Y-80414880D01*
X147708928Y-80557738D01*
X147804166Y-80652976D01*
X147899404Y-80700595D01*
X146851785Y-81414880D02*
X146661309Y-81414880D01*
X146566071Y-81367261D01*
X146518452Y-81319642D01*
X146423214Y-81176785D01*
X146375595Y-80986309D01*
X146375595Y-80605357D01*
X146423214Y-80510119D01*
X146470833Y-80462500D01*
X146566071Y-80414880D01*
X146756547Y-80414880D01*
X146851785Y-80462500D01*
X146899404Y-80510119D01*
X146947023Y-80605357D01*
X146947023Y-80843452D01*
X146899404Y-80938690D01*
X146851785Y-80986309D01*
X146756547Y-81033928D01*
X146566071Y-81033928D01*
X146470833Y-80986309D01*
X146423214Y-80938690D01*
X146375595Y-80843452D01*
X167901785Y-81414880D02*
X167901785Y-80414880D01*
X167330357Y-81414880D02*
X167758928Y-80843452D01*
X167330357Y-80414880D02*
X167901785Y-80986309D01*
X166949404Y-80510119D02*
X166901785Y-80462500D01*
X166806547Y-80414880D01*
X166568452Y-80414880D01*
X166473214Y-80462500D01*
X166425595Y-80510119D01*
X166377976Y-80605357D01*
X166377976Y-80700595D01*
X166425595Y-80843452D01*
X166997023Y-81414880D01*
X166377976Y-81414880D01*
X165758928Y-80414880D02*
X165663690Y-80414880D01*
X165568452Y-80462500D01*
X165520833Y-80510119D01*
X165473214Y-80605357D01*
X165425595Y-80795833D01*
X165425595Y-81033928D01*
X165473214Y-81224404D01*
X165520833Y-81319642D01*
X165568452Y-81367261D01*
X165663690Y-81414880D01*
X165758928Y-81414880D01*
X165854166Y-81367261D01*
X165901785Y-81319642D01*
X165949404Y-81224404D01*
X165997023Y-81033928D01*
X165997023Y-80795833D01*
X165949404Y-80605357D01*
X165901785Y-80510119D01*
X165854166Y-80462500D01*
X165758928Y-80414880D01*
X186951785Y-81414880D02*
X186951785Y-80414880D01*
X186380357Y-81414880D02*
X186808928Y-80843452D01*
X186380357Y-80414880D02*
X186951785Y-80986309D01*
X185999404Y-80510119D02*
X185951785Y-80462500D01*
X185856547Y-80414880D01*
X185618452Y-80414880D01*
X185523214Y-80462500D01*
X185475595Y-80510119D01*
X185427976Y-80605357D01*
X185427976Y-80700595D01*
X185475595Y-80843452D01*
X186047023Y-81414880D01*
X185427976Y-81414880D01*
X184475595Y-81414880D02*
X185047023Y-81414880D01*
X184761309Y-81414880D02*
X184761309Y-80414880D01*
X184856547Y-80557738D01*
X184951785Y-80652976D01*
X185047023Y-80700595D01*
X206001785Y-81414880D02*
X206001785Y-80414880D01*
X205430357Y-81414880D02*
X205858928Y-80843452D01*
X205430357Y-80414880D02*
X206001785Y-80986309D01*
X205049404Y-80510119D02*
X205001785Y-80462500D01*
X204906547Y-80414880D01*
X204668452Y-80414880D01*
X204573214Y-80462500D01*
X204525595Y-80510119D01*
X204477976Y-80605357D01*
X204477976Y-80700595D01*
X204525595Y-80843452D01*
X205097023Y-81414880D01*
X204477976Y-81414880D01*
X204097023Y-80510119D02*
X204049404Y-80462500D01*
X203954166Y-80414880D01*
X203716071Y-80414880D01*
X203620833Y-80462500D01*
X203573214Y-80510119D01*
X203525595Y-80605357D01*
X203525595Y-80700595D01*
X203573214Y-80843452D01*
X204144642Y-81414880D01*
X203525595Y-81414880D01*
X225051785Y-81414880D02*
X225051785Y-80414880D01*
X224480357Y-81414880D02*
X224908928Y-80843452D01*
X224480357Y-80414880D02*
X225051785Y-80986309D01*
X224099404Y-80510119D02*
X224051785Y-80462500D01*
X223956547Y-80414880D01*
X223718452Y-80414880D01*
X223623214Y-80462500D01*
X223575595Y-80510119D01*
X223527976Y-80605357D01*
X223527976Y-80700595D01*
X223575595Y-80843452D01*
X224147023Y-81414880D01*
X223527976Y-81414880D01*
X223194642Y-80414880D02*
X222575595Y-80414880D01*
X222908928Y-80795833D01*
X222766071Y-80795833D01*
X222670833Y-80843452D01*
X222623214Y-80891071D01*
X222575595Y-80986309D01*
X222575595Y-81224404D01*
X222623214Y-81319642D01*
X222670833Y-81367261D01*
X222766071Y-81414880D01*
X223051785Y-81414880D01*
X223147023Y-81367261D01*
X223194642Y-81319642D01*
X244101785Y-81414880D02*
X244101785Y-80414880D01*
X243530357Y-81414880D02*
X243958928Y-80843452D01*
X243530357Y-80414880D02*
X244101785Y-80986309D01*
X243149404Y-80510119D02*
X243101785Y-80462500D01*
X243006547Y-80414880D01*
X242768452Y-80414880D01*
X242673214Y-80462500D01*
X242625595Y-80510119D01*
X242577976Y-80605357D01*
X242577976Y-80700595D01*
X242625595Y-80843452D01*
X243197023Y-81414880D01*
X242577976Y-81414880D01*
X241720833Y-80748214D02*
X241720833Y-81414880D01*
X241958928Y-80367261D02*
X242197023Y-81081547D01*
X241577976Y-81081547D01*
X34551785Y-100464880D02*
X34551785Y-99464880D01*
X33980357Y-100464880D02*
X34408928Y-99893452D01*
X33980357Y-99464880D02*
X34551785Y-100036309D01*
X33599404Y-99560119D02*
X33551785Y-99512500D01*
X33456547Y-99464880D01*
X33218452Y-99464880D01*
X33123214Y-99512500D01*
X33075595Y-99560119D01*
X33027976Y-99655357D01*
X33027976Y-99750595D01*
X33075595Y-99893452D01*
X33647023Y-100464880D01*
X33027976Y-100464880D01*
X32123214Y-99464880D02*
X32599404Y-99464880D01*
X32647023Y-99941071D01*
X32599404Y-99893452D01*
X32504166Y-99845833D01*
X32266071Y-99845833D01*
X32170833Y-99893452D01*
X32123214Y-99941071D01*
X32075595Y-100036309D01*
X32075595Y-100274404D01*
X32123214Y-100369642D01*
X32170833Y-100417261D01*
X32266071Y-100464880D01*
X32504166Y-100464880D01*
X32599404Y-100417261D01*
X32647023Y-100369642D01*
X53601785Y-100464880D02*
X53601785Y-99464880D01*
X53030357Y-100464880D02*
X53458928Y-99893452D01*
X53030357Y-99464880D02*
X53601785Y-100036309D01*
X52649404Y-99560119D02*
X52601785Y-99512500D01*
X52506547Y-99464880D01*
X52268452Y-99464880D01*
X52173214Y-99512500D01*
X52125595Y-99560119D01*
X52077976Y-99655357D01*
X52077976Y-99750595D01*
X52125595Y-99893452D01*
X52697023Y-100464880D01*
X52077976Y-100464880D01*
X51220833Y-99464880D02*
X51411309Y-99464880D01*
X51506547Y-99512500D01*
X51554166Y-99560119D01*
X51649404Y-99702976D01*
X51697023Y-99893452D01*
X51697023Y-100274404D01*
X51649404Y-100369642D01*
X51601785Y-100417261D01*
X51506547Y-100464880D01*
X51316071Y-100464880D01*
X51220833Y-100417261D01*
X51173214Y-100369642D01*
X51125595Y-100274404D01*
X51125595Y-100036309D01*
X51173214Y-99941071D01*
X51220833Y-99893452D01*
X51316071Y-99845833D01*
X51506547Y-99845833D01*
X51601785Y-99893452D01*
X51649404Y-99941071D01*
X51697023Y-100036309D01*
X72651785Y-100464880D02*
X72651785Y-99464880D01*
X72080357Y-100464880D02*
X72508928Y-99893452D01*
X72080357Y-99464880D02*
X72651785Y-100036309D01*
X71699404Y-99560119D02*
X71651785Y-99512500D01*
X71556547Y-99464880D01*
X71318452Y-99464880D01*
X71223214Y-99512500D01*
X71175595Y-99560119D01*
X71127976Y-99655357D01*
X71127976Y-99750595D01*
X71175595Y-99893452D01*
X71747023Y-100464880D01*
X71127976Y-100464880D01*
X70794642Y-99464880D02*
X70127976Y-99464880D01*
X70556547Y-100464880D01*
X91701785Y-100464880D02*
X91701785Y-99464880D01*
X91130357Y-100464880D02*
X91558928Y-99893452D01*
X91130357Y-99464880D02*
X91701785Y-100036309D01*
X90749404Y-99560119D02*
X90701785Y-99512500D01*
X90606547Y-99464880D01*
X90368452Y-99464880D01*
X90273214Y-99512500D01*
X90225595Y-99560119D01*
X90177976Y-99655357D01*
X90177976Y-99750595D01*
X90225595Y-99893452D01*
X90797023Y-100464880D01*
X90177976Y-100464880D01*
X89606547Y-99893452D02*
X89701785Y-99845833D01*
X89749404Y-99798214D01*
X89797023Y-99702976D01*
X89797023Y-99655357D01*
X89749404Y-99560119D01*
X89701785Y-99512500D01*
X89606547Y-99464880D01*
X89416071Y-99464880D01*
X89320833Y-99512500D01*
X89273214Y-99560119D01*
X89225595Y-99655357D01*
X89225595Y-99702976D01*
X89273214Y-99798214D01*
X89320833Y-99845833D01*
X89416071Y-99893452D01*
X89606547Y-99893452D01*
X89701785Y-99941071D01*
X89749404Y-99988690D01*
X89797023Y-100083928D01*
X89797023Y-100274404D01*
X89749404Y-100369642D01*
X89701785Y-100417261D01*
X89606547Y-100464880D01*
X89416071Y-100464880D01*
X89320833Y-100417261D01*
X89273214Y-100369642D01*
X89225595Y-100274404D01*
X89225595Y-100083928D01*
X89273214Y-99988690D01*
X89320833Y-99941071D01*
X89416071Y-99893452D01*
X110751785Y-100464880D02*
X110751785Y-99464880D01*
X110180357Y-100464880D02*
X110608928Y-99893452D01*
X110180357Y-99464880D02*
X110751785Y-100036309D01*
X109799404Y-99560119D02*
X109751785Y-99512500D01*
X109656547Y-99464880D01*
X109418452Y-99464880D01*
X109323214Y-99512500D01*
X109275595Y-99560119D01*
X109227976Y-99655357D01*
X109227976Y-99750595D01*
X109275595Y-99893452D01*
X109847023Y-100464880D01*
X109227976Y-100464880D01*
X108751785Y-100464880D02*
X108561309Y-100464880D01*
X108466071Y-100417261D01*
X108418452Y-100369642D01*
X108323214Y-100226785D01*
X108275595Y-100036309D01*
X108275595Y-99655357D01*
X108323214Y-99560119D01*
X108370833Y-99512500D01*
X108466071Y-99464880D01*
X108656547Y-99464880D01*
X108751785Y-99512500D01*
X108799404Y-99560119D01*
X108847023Y-99655357D01*
X108847023Y-99893452D01*
X108799404Y-99988690D01*
X108751785Y-100036309D01*
X108656547Y-100083928D01*
X108466071Y-100083928D01*
X108370833Y-100036309D01*
X108323214Y-99988690D01*
X108275595Y-99893452D01*
X129801785Y-100464880D02*
X129801785Y-99464880D01*
X129230357Y-100464880D02*
X129658928Y-99893452D01*
X129230357Y-99464880D02*
X129801785Y-100036309D01*
X128897023Y-99464880D02*
X128277976Y-99464880D01*
X128611309Y-99845833D01*
X128468452Y-99845833D01*
X128373214Y-99893452D01*
X128325595Y-99941071D01*
X128277976Y-100036309D01*
X128277976Y-100274404D01*
X128325595Y-100369642D01*
X128373214Y-100417261D01*
X128468452Y-100464880D01*
X128754166Y-100464880D01*
X128849404Y-100417261D01*
X128897023Y-100369642D01*
X127658928Y-99464880D02*
X127563690Y-99464880D01*
X127468452Y-99512500D01*
X127420833Y-99560119D01*
X127373214Y-99655357D01*
X127325595Y-99845833D01*
X127325595Y-100083928D01*
X127373214Y-100274404D01*
X127420833Y-100369642D01*
X127468452Y-100417261D01*
X127563690Y-100464880D01*
X127658928Y-100464880D01*
X127754166Y-100417261D01*
X127801785Y-100369642D01*
X127849404Y-100274404D01*
X127897023Y-100083928D01*
X127897023Y-99845833D01*
X127849404Y-99655357D01*
X127801785Y-99560119D01*
X127754166Y-99512500D01*
X127658928Y-99464880D01*
X148851785Y-100464880D02*
X148851785Y-99464880D01*
X148280357Y-100464880D02*
X148708928Y-99893452D01*
X148280357Y-99464880D02*
X148851785Y-100036309D01*
X147947023Y-99464880D02*
X147327976Y-99464880D01*
X147661309Y-99845833D01*
X147518452Y-99845833D01*
X147423214Y-99893452D01*
X147375595Y-99941071D01*
X147327976Y-100036309D01*
X147327976Y-100274404D01*
X147375595Y-100369642D01*
X147423214Y-100417261D01*
X147518452Y-100464880D01*
X147804166Y-100464880D01*
X147899404Y-100417261D01*
X147947023Y-100369642D01*
X146375595Y-100464880D02*
X146947023Y-100464880D01*
X146661309Y-100464880D02*
X146661309Y-99464880D01*
X146756547Y-99607738D01*
X146851785Y-99702976D01*
X146947023Y-99750595D01*
X167901785Y-100464880D02*
X167901785Y-99464880D01*
X167330357Y-100464880D02*
X167758928Y-99893452D01*
X167330357Y-99464880D02*
X167901785Y-100036309D01*
X166997023Y-99464880D02*
X166377976Y-99464880D01*
X166711309Y-99845833D01*
X166568452Y-99845833D01*
X166473214Y-99893452D01*
X166425595Y-99941071D01*
X166377976Y-100036309D01*
X166377976Y-100274404D01*
X166425595Y-100369642D01*
X166473214Y-100417261D01*
X166568452Y-100464880D01*
X166854166Y-100464880D01*
X166949404Y-100417261D01*
X166997023Y-100369642D01*
X165997023Y-99560119D02*
X165949404Y-99512500D01*
X165854166Y-99464880D01*
X165616071Y-99464880D01*
X165520833Y-99512500D01*
X165473214Y-99560119D01*
X165425595Y-99655357D01*
X165425595Y-99750595D01*
X165473214Y-99893452D01*
X166044642Y-100464880D01*
X165425595Y-100464880D01*
X186951785Y-100464880D02*
X186951785Y-99464880D01*
X186380357Y-100464880D02*
X186808928Y-99893452D01*
X186380357Y-99464880D02*
X186951785Y-100036309D01*
X186047023Y-99464880D02*
X185427976Y-99464880D01*
X185761309Y-99845833D01*
X185618452Y-99845833D01*
X185523214Y-99893452D01*
X185475595Y-99941071D01*
X185427976Y-100036309D01*
X185427976Y-100274404D01*
X185475595Y-100369642D01*
X185523214Y-100417261D01*
X185618452Y-100464880D01*
X185904166Y-100464880D01*
X185999404Y-100417261D01*
X186047023Y-100369642D01*
X185094642Y-99464880D02*
X184475595Y-99464880D01*
X184808928Y-99845833D01*
X184666071Y-99845833D01*
X184570833Y-99893452D01*
X184523214Y-99941071D01*
X184475595Y-100036309D01*
X184475595Y-100274404D01*
X184523214Y-100369642D01*
X184570833Y-100417261D01*
X184666071Y-100464880D01*
X184951785Y-100464880D01*
X185047023Y-100417261D01*
X185094642Y-100369642D01*
X206001785Y-100464880D02*
X206001785Y-99464880D01*
X205430357Y-100464880D02*
X205858928Y-99893452D01*
X205430357Y-99464880D02*
X206001785Y-100036309D01*
X205097023Y-99464880D02*
X204477976Y-99464880D01*
X204811309Y-99845833D01*
X204668452Y-99845833D01*
X204573214Y-99893452D01*
X204525595Y-99941071D01*
X204477976Y-100036309D01*
X204477976Y-100274404D01*
X204525595Y-100369642D01*
X204573214Y-100417261D01*
X204668452Y-100464880D01*
X204954166Y-100464880D01*
X205049404Y-100417261D01*
X205097023Y-100369642D01*
X203620833Y-99798214D02*
X203620833Y-100464880D01*
X203858928Y-99417261D02*
X204097023Y-100131547D01*
X203477976Y-100131547D01*
X225051785Y-100464880D02*
X225051785Y-99464880D01*
X224480357Y-100464880D02*
X224908928Y-99893452D01*
X224480357Y-99464880D02*
X225051785Y-100036309D01*
X224147023Y-99464880D02*
X223527976Y-99464880D01*
X223861309Y-99845833D01*
X223718452Y-99845833D01*
X223623214Y-99893452D01*
X223575595Y-99941071D01*
X223527976Y-100036309D01*
X223527976Y-100274404D01*
X223575595Y-100369642D01*
X223623214Y-100417261D01*
X223718452Y-100464880D01*
X224004166Y-100464880D01*
X224099404Y-100417261D01*
X224147023Y-100369642D01*
X222623214Y-99464880D02*
X223099404Y-99464880D01*
X223147023Y-99941071D01*
X223099404Y-99893452D01*
X223004166Y-99845833D01*
X222766071Y-99845833D01*
X222670833Y-99893452D01*
X222623214Y-99941071D01*
X222575595Y-100036309D01*
X222575595Y-100274404D01*
X222623214Y-100369642D01*
X222670833Y-100417261D01*
X222766071Y-100464880D01*
X223004166Y-100464880D01*
X223099404Y-100417261D01*
X223147023Y-100369642D01*
X244101785Y-100464880D02*
X244101785Y-99464880D01*
X243530357Y-100464880D02*
X243958928Y-99893452D01*
X243530357Y-99464880D02*
X244101785Y-100036309D01*
X243197023Y-99464880D02*
X242577976Y-99464880D01*
X242911309Y-99845833D01*
X242768452Y-99845833D01*
X242673214Y-99893452D01*
X242625595Y-99941071D01*
X242577976Y-100036309D01*
X242577976Y-100274404D01*
X242625595Y-100369642D01*
X242673214Y-100417261D01*
X242768452Y-100464880D01*
X243054166Y-100464880D01*
X243149404Y-100417261D01*
X243197023Y-100369642D01*
X241720833Y-99464880D02*
X241911309Y-99464880D01*
X242006547Y-99512500D01*
X242054166Y-99560119D01*
X242149404Y-99702976D01*
X242197023Y-99893452D01*
X242197023Y-100274404D01*
X242149404Y-100369642D01*
X242101785Y-100417261D01*
X242006547Y-100464880D01*
X241816071Y-100464880D01*
X241720833Y-100417261D01*
X241673214Y-100369642D01*
X241625595Y-100274404D01*
X241625595Y-100036309D01*
X241673214Y-99941071D01*
X241720833Y-99893452D01*
X241816071Y-99845833D01*
X242006547Y-99845833D01*
X242101785Y-99893452D01*
X242149404Y-99941071D01*
X242197023Y-100036309D01*
X34551785Y-119514880D02*
X34551785Y-118514880D01*
X33980357Y-119514880D02*
X34408928Y-118943452D01*
X33980357Y-118514880D02*
X34551785Y-119086309D01*
X33647023Y-118514880D02*
X33027976Y-118514880D01*
X33361309Y-118895833D01*
X33218452Y-118895833D01*
X33123214Y-118943452D01*
X33075595Y-118991071D01*
X33027976Y-119086309D01*
X33027976Y-119324404D01*
X33075595Y-119419642D01*
X33123214Y-119467261D01*
X33218452Y-119514880D01*
X33504166Y-119514880D01*
X33599404Y-119467261D01*
X33647023Y-119419642D01*
X32694642Y-118514880D02*
X32027976Y-118514880D01*
X32456547Y-119514880D01*
X53601785Y-119514880D02*
X53601785Y-118514880D01*
X53030357Y-119514880D02*
X53458928Y-118943452D01*
X53030357Y-118514880D02*
X53601785Y-119086309D01*
X52697023Y-118514880D02*
X52077976Y-118514880D01*
X52411309Y-118895833D01*
X52268452Y-118895833D01*
X52173214Y-118943452D01*
X52125595Y-118991071D01*
X52077976Y-119086309D01*
X52077976Y-119324404D01*
X52125595Y-119419642D01*
X52173214Y-119467261D01*
X52268452Y-119514880D01*
X52554166Y-119514880D01*
X52649404Y-119467261D01*
X52697023Y-119419642D01*
X51506547Y-118943452D02*
X51601785Y-118895833D01*
X51649404Y-118848214D01*
X51697023Y-118752976D01*
X51697023Y-118705357D01*
X51649404Y-118610119D01*
X51601785Y-118562500D01*
X51506547Y-118514880D01*
X51316071Y-118514880D01*
X51220833Y-118562500D01*
X51173214Y-118610119D01*
X51125595Y-118705357D01*
X51125595Y-118752976D01*
X51173214Y-118848214D01*
X51220833Y-118895833D01*
X51316071Y-118943452D01*
X51506547Y-118943452D01*
X51601785Y-118991071D01*
X51649404Y-119038690D01*
X51697023Y-119133928D01*
X51697023Y-119324404D01*
X51649404Y-119419642D01*
X51601785Y-119467261D01*
X51506547Y-119514880D01*
X51316071Y-119514880D01*
X51220833Y-119467261D01*
X51173214Y-119419642D01*
X51125595Y-119324404D01*
X51125595Y-119133928D01*
X51173214Y-119038690D01*
X51220833Y-118991071D01*
X51316071Y-118943452D01*
X72651785Y-119514880D02*
X72651785Y-118514880D01*
X72080357Y-119514880D02*
X72508928Y-118943452D01*
X72080357Y-118514880D02*
X72651785Y-119086309D01*
X71747023Y-118514880D02*
X71127976Y-118514880D01*
X71461309Y-118895833D01*
X71318452Y-118895833D01*
X71223214Y-118943452D01*
X71175595Y-118991071D01*
X71127976Y-119086309D01*
X71127976Y-119324404D01*
X71175595Y-119419642D01*
X71223214Y-119467261D01*
X71318452Y-119514880D01*
X71604166Y-119514880D01*
X71699404Y-119467261D01*
X71747023Y-119419642D01*
X70651785Y-119514880D02*
X70461309Y-119514880D01*
X70366071Y-119467261D01*
X70318452Y-119419642D01*
X70223214Y-119276785D01*
X70175595Y-119086309D01*
X70175595Y-118705357D01*
X70223214Y-118610119D01*
X70270833Y-118562500D01*
X70366071Y-118514880D01*
X70556547Y-118514880D01*
X70651785Y-118562500D01*
X70699404Y-118610119D01*
X70747023Y-118705357D01*
X70747023Y-118943452D01*
X70699404Y-119038690D01*
X70651785Y-119086309D01*
X70556547Y-119133928D01*
X70366071Y-119133928D01*
X70270833Y-119086309D01*
X70223214Y-119038690D01*
X70175595Y-118943452D01*
X91701785Y-119514880D02*
X91701785Y-118514880D01*
X91130357Y-119514880D02*
X91558928Y-118943452D01*
X91130357Y-118514880D02*
X91701785Y-119086309D01*
X90273214Y-118848214D02*
X90273214Y-119514880D01*
X90511309Y-118467261D02*
X90749404Y-119181547D01*
X90130357Y-119181547D01*
X89558928Y-118514880D02*
X89463690Y-118514880D01*
X89368452Y-118562500D01*
X89320833Y-118610119D01*
X89273214Y-118705357D01*
X89225595Y-118895833D01*
X89225595Y-119133928D01*
X89273214Y-119324404D01*
X89320833Y-119419642D01*
X89368452Y-119467261D01*
X89463690Y-119514880D01*
X89558928Y-119514880D01*
X89654166Y-119467261D01*
X89701785Y-119419642D01*
X89749404Y-119324404D01*
X89797023Y-119133928D01*
X89797023Y-118895833D01*
X89749404Y-118705357D01*
X89701785Y-118610119D01*
X89654166Y-118562500D01*
X89558928Y-118514880D01*
X110751785Y-119514880D02*
X110751785Y-118514880D01*
X110180357Y-119514880D02*
X110608928Y-118943452D01*
X110180357Y-118514880D02*
X110751785Y-119086309D01*
X109323214Y-118848214D02*
X109323214Y-119514880D01*
X109561309Y-118467261D02*
X109799404Y-119181547D01*
X109180357Y-119181547D01*
X108275595Y-119514880D02*
X108847023Y-119514880D01*
X108561309Y-119514880D02*
X108561309Y-118514880D01*
X108656547Y-118657738D01*
X108751785Y-118752976D01*
X108847023Y-118800595D01*
X167901785Y-119514880D02*
X167901785Y-118514880D01*
X167330357Y-119514880D02*
X167758928Y-118943452D01*
X167330357Y-118514880D02*
X167901785Y-119086309D01*
X166473214Y-118848214D02*
X166473214Y-119514880D01*
X166711309Y-118467261D02*
X166949404Y-119181547D01*
X166330357Y-119181547D01*
X166044642Y-118514880D02*
X165425595Y-118514880D01*
X165758928Y-118895833D01*
X165616071Y-118895833D01*
X165520833Y-118943452D01*
X165473214Y-118991071D01*
X165425595Y-119086309D01*
X165425595Y-119324404D01*
X165473214Y-119419642D01*
X165520833Y-119467261D01*
X165616071Y-119514880D01*
X165901785Y-119514880D01*
X165997023Y-119467261D01*
X166044642Y-119419642D01*
X186951785Y-119514880D02*
X186951785Y-118514880D01*
X186380357Y-119514880D02*
X186808928Y-118943452D01*
X186380357Y-118514880D02*
X186951785Y-119086309D01*
X185523214Y-118848214D02*
X185523214Y-119514880D01*
X185761309Y-118467261D02*
X185999404Y-119181547D01*
X185380357Y-119181547D01*
X184570833Y-118848214D02*
X184570833Y-119514880D01*
X184808928Y-118467261D02*
X185047023Y-119181547D01*
X184427976Y-119181547D01*
X206001785Y-119514880D02*
X206001785Y-118514880D01*
X205430357Y-119514880D02*
X205858928Y-118943452D01*
X205430357Y-118514880D02*
X206001785Y-119086309D01*
X204573214Y-118848214D02*
X204573214Y-119514880D01*
X204811309Y-118467261D02*
X205049404Y-119181547D01*
X204430357Y-119181547D01*
X203573214Y-118514880D02*
X204049404Y-118514880D01*
X204097023Y-118991071D01*
X204049404Y-118943452D01*
X203954166Y-118895833D01*
X203716071Y-118895833D01*
X203620833Y-118943452D01*
X203573214Y-118991071D01*
X203525595Y-119086309D01*
X203525595Y-119324404D01*
X203573214Y-119419642D01*
X203620833Y-119467261D01*
X203716071Y-119514880D01*
X203954166Y-119514880D01*
X204049404Y-119467261D01*
X204097023Y-119419642D01*
X225051785Y-119514880D02*
X225051785Y-118514880D01*
X224480357Y-119514880D02*
X224908928Y-118943452D01*
X224480357Y-118514880D02*
X225051785Y-119086309D01*
X223623214Y-118848214D02*
X223623214Y-119514880D01*
X223861309Y-118467261D02*
X224099404Y-119181547D01*
X223480357Y-119181547D01*
X222670833Y-118514880D02*
X222861309Y-118514880D01*
X222956547Y-118562500D01*
X223004166Y-118610119D01*
X223099404Y-118752976D01*
X223147023Y-118943452D01*
X223147023Y-119324404D01*
X223099404Y-119419642D01*
X223051785Y-119467261D01*
X222956547Y-119514880D01*
X222766071Y-119514880D01*
X222670833Y-119467261D01*
X222623214Y-119419642D01*
X222575595Y-119324404D01*
X222575595Y-119086309D01*
X222623214Y-118991071D01*
X222670833Y-118943452D01*
X222766071Y-118895833D01*
X222956547Y-118895833D01*
X223051785Y-118943452D01*
X223099404Y-118991071D01*
X223147023Y-119086309D01*
X244101785Y-119514880D02*
X244101785Y-118514880D01*
X243530357Y-119514880D02*
X243958928Y-118943452D01*
X243530357Y-118514880D02*
X244101785Y-119086309D01*
X242673214Y-118848214D02*
X242673214Y-119514880D01*
X242911309Y-118467261D02*
X243149404Y-119181547D01*
X242530357Y-119181547D01*
X242244642Y-118514880D02*
X241577976Y-118514880D01*
X242006547Y-119514880D01*
D10*
X202083966Y-34571930D02*
X202417300Y-34095740D01*
X202655395Y-34571930D02*
X202655395Y-33571930D01*
X202274442Y-33571930D01*
X202179204Y-33619550D01*
X202131585Y-33667169D01*
X202083966Y-33762407D01*
X202083966Y-33905264D01*
X202131585Y-34000502D01*
X202179204Y-34048121D01*
X202274442Y-34095740D01*
X202655395Y-34095740D01*
X201131585Y-34571930D02*
X201703014Y-34571930D01*
X201417300Y-34571930D02*
X201417300Y-33571930D01*
X201512538Y-33714788D01*
X201607776Y-33810026D01*
X201703014Y-33857645D01*
X218898766Y-43270430D02*
X219232100Y-42794240D01*
X219470195Y-43270430D02*
X219470195Y-42270430D01*
X219089242Y-42270430D01*
X218994004Y-42318050D01*
X218946385Y-42365669D01*
X218898766Y-42460907D01*
X218898766Y-42603764D01*
X218946385Y-42699002D01*
X218994004Y-42746621D01*
X219089242Y-42794240D01*
X219470195Y-42794240D01*
X218565433Y-42270430D02*
X217946385Y-42270430D01*
X218279719Y-42651383D01*
X218136861Y-42651383D01*
X218041623Y-42699002D01*
X217994004Y-42746621D01*
X217946385Y-42841859D01*
X217946385Y-43079954D01*
X217994004Y-43175192D01*
X218041623Y-43222811D01*
X218136861Y-43270430D01*
X218422576Y-43270430D01*
X218517814Y-43222811D01*
X218565433Y-43175192D01*
X223515216Y-43365680D02*
X223848550Y-42889490D01*
X224086645Y-43365680D02*
X224086645Y-42365680D01*
X223705692Y-42365680D01*
X223610454Y-42413300D01*
X223562835Y-42460919D01*
X223515216Y-42556157D01*
X223515216Y-42699014D01*
X223562835Y-42794252D01*
X223610454Y-42841871D01*
X223705692Y-42889490D01*
X224086645Y-42889490D01*
X222658073Y-42699014D02*
X222658073Y-43365680D01*
X222896169Y-42318061D02*
X223134264Y-43032347D01*
X222515216Y-43032347D01*
X87598874Y-37178035D02*
X87834576Y-38356546D01*
X87127470Y-37649439D02*
X88305981Y-37885141D01*
X87194813Y-38996309D02*
X87598874Y-38592248D01*
X87396844Y-38794279D02*
X86689737Y-38087172D01*
X86858096Y-38120844D01*
X86992783Y-38120844D01*
X87093798Y-38087172D01*
D12*
X53601785Y-81414880D02*
X53601785Y-80414880D01*
X53030357Y-81414880D02*
X53458928Y-80843452D01*
X53030357Y-80414880D02*
X53601785Y-80986309D01*
X52077976Y-81414880D02*
X52649404Y-81414880D01*
X52363690Y-81414880D02*
X52363690Y-80414880D01*
X52458928Y-80557738D01*
X52554166Y-80652976D01*
X52649404Y-80700595D01*
X51220833Y-80748214D02*
X51220833Y-81414880D01*
X51458928Y-80367261D02*
X51697023Y-81081547D01*
X51077976Y-81081547D01*
D10*
X129558928Y-119880654D02*
X129558928Y-119080654D01*
X129368452Y-119080654D01*
X129254166Y-119118750D01*
X129177976Y-119194940D01*
X129139880Y-119271130D01*
X129101785Y-119423511D01*
X129101785Y-119537797D01*
X129139880Y-119690178D01*
X129177976Y-119766369D01*
X129254166Y-119842559D01*
X129368452Y-119880654D01*
X129558928Y-119880654D01*
X128416071Y-119347321D02*
X128416071Y-119880654D01*
X128606547Y-119042559D02*
X128797023Y-119613988D01*
X128301785Y-119613988D01*
X128035119Y-119156845D02*
X127997023Y-119118750D01*
X127920833Y-119080654D01*
X127730357Y-119080654D01*
X127654166Y-119118750D01*
X127616071Y-119156845D01*
X127577976Y-119233035D01*
X127577976Y-119309226D01*
X127616071Y-119423511D01*
X128073214Y-119880654D01*
X127577976Y-119880654D01*
D12*
X139326785Y-119514880D02*
X139326785Y-118514880D01*
X138755357Y-119514880D02*
X139183928Y-118943452D01*
X138755357Y-118514880D02*
X139326785Y-119086309D01*
X137898214Y-118848214D02*
X137898214Y-119514880D01*
X138136309Y-118467261D02*
X138374404Y-119181547D01*
X137755357Y-119181547D01*
X137422023Y-118610119D02*
X137374404Y-118562500D01*
X137279166Y-118514880D01*
X137041071Y-118514880D01*
X136945833Y-118562500D01*
X136898214Y-118610119D01*
X136850595Y-118705357D01*
X136850595Y-118800595D01*
X136898214Y-118943452D01*
X137469642Y-119514880D01*
X136850595Y-119514880D01*
D10*
X84862225Y-45568850D02*
X84862225Y-45636193D01*
X84929569Y-45770880D01*
X84996913Y-45838224D01*
X85131600Y-45905567D01*
X85266287Y-45905567D01*
X85367302Y-45871896D01*
X85535661Y-45770880D01*
X85636676Y-45669865D01*
X85737691Y-45501506D01*
X85771363Y-45400491D01*
X85771363Y-45265804D01*
X85704019Y-45131117D01*
X85636676Y-45063773D01*
X85501989Y-44996430D01*
X85434645Y-44996430D01*
X85266287Y-44693384D02*
X84794882Y-44221980D01*
X84390821Y-45232132D01*
X119229166Y-36171130D02*
X119562500Y-35694940D01*
X119800595Y-36171130D02*
X119800595Y-35171130D01*
X119419642Y-35171130D01*
X119324404Y-35218750D01*
X119276785Y-35266369D01*
X119229166Y-35361607D01*
X119229166Y-35504464D01*
X119276785Y-35599702D01*
X119324404Y-35647321D01*
X119419642Y-35694940D01*
X119800595Y-35694940D01*
X118848214Y-35266369D02*
X118800595Y-35218750D01*
X118705357Y-35171130D01*
X118467261Y-35171130D01*
X118372023Y-35218750D01*
X118324404Y-35266369D01*
X118276785Y-35361607D01*
X118276785Y-35456845D01*
X118324404Y-35599702D01*
X118895833Y-36171130D01*
X118276785Y-36171130D01*
X36980654Y-37671130D02*
X36409226Y-37671130D01*
X36694940Y-38671130D02*
X36694940Y-37671130D01*
X36075892Y-38671130D02*
X36075892Y-37671130D01*
X35694940Y-37671130D01*
X35599702Y-37718750D01*
X35552083Y-37766369D01*
X35504464Y-37861607D01*
X35504464Y-38004464D01*
X35552083Y-38099702D01*
X35599702Y-38147321D01*
X35694940Y-38194940D01*
X36075892Y-38194940D01*
X34647321Y-38004464D02*
X34647321Y-38671130D01*
X34885416Y-37623511D02*
X35123511Y-38337797D01*
X34504464Y-38337797D01*
X22693154Y-37671130D02*
X22121726Y-37671130D01*
X22407440Y-38671130D02*
X22407440Y-37671130D01*
X21788392Y-38671130D02*
X21788392Y-37671130D01*
X21407440Y-37671130D01*
X21312202Y-37718750D01*
X21264583Y-37766369D01*
X21216964Y-37861607D01*
X21216964Y-38004464D01*
X21264583Y-38099702D01*
X21312202Y-38147321D01*
X21407440Y-38194940D01*
X21788392Y-38194940D01*
X20264583Y-38671130D02*
X20836011Y-38671130D01*
X20550297Y-38671130D02*
X20550297Y-37671130D01*
X20645535Y-37813988D01*
X20740773Y-37909226D01*
X20836011Y-37956845D01*
X27455654Y-37671130D02*
X26884226Y-37671130D01*
X27169940Y-38671130D02*
X27169940Y-37671130D01*
X26550892Y-38671130D02*
X26550892Y-37671130D01*
X26169940Y-37671130D01*
X26074702Y-37718750D01*
X26027083Y-37766369D01*
X25979464Y-37861607D01*
X25979464Y-38004464D01*
X26027083Y-38099702D01*
X26074702Y-38147321D01*
X26169940Y-38194940D01*
X26550892Y-38194940D01*
X25598511Y-37766369D02*
X25550892Y-37718750D01*
X25455654Y-37671130D01*
X25217559Y-37671130D01*
X25122321Y-37718750D01*
X25074702Y-37766369D01*
X25027083Y-37861607D01*
X25027083Y-37956845D01*
X25074702Y-38099702D01*
X25646130Y-38671130D01*
X25027083Y-38671130D01*
X32218154Y-37671130D02*
X31646726Y-37671130D01*
X31932440Y-38671130D02*
X31932440Y-37671130D01*
X31313392Y-38671130D02*
X31313392Y-37671130D01*
X30932440Y-37671130D01*
X30837202Y-37718750D01*
X30789583Y-37766369D01*
X30741964Y-37861607D01*
X30741964Y-38004464D01*
X30789583Y-38099702D01*
X30837202Y-38147321D01*
X30932440Y-38194940D01*
X31313392Y-38194940D01*
X30408630Y-37671130D02*
X29789583Y-37671130D01*
X30122916Y-38052083D01*
X29980059Y-38052083D01*
X29884821Y-38099702D01*
X29837202Y-38147321D01*
X29789583Y-38242559D01*
X29789583Y-38480654D01*
X29837202Y-38575892D01*
X29884821Y-38623511D01*
X29980059Y-38671130D01*
X30265773Y-38671130D01*
X30361011Y-38623511D01*
X30408630Y-38575892D01*
M02*
