G04 #@! TF.GenerationSoftware,KiCad,Pcbnew,(5.1.0)-1*
G04 #@! TF.CreationDate,2020-08-28T07:36:50-04:00*
G04 #@! TF.ProjectId,keyboard,6b657962-6f61-4726-942e-6b696361645f,rev?*
G04 #@! TF.SameCoordinates,Original*
G04 #@! TF.FileFunction,Legend,Top*
G04 #@! TF.FilePolarity,Positive*
%FSLAX46Y46*%
G04 Gerber Fmt 4.6, Leading zero omitted, Abs format (unit mm)*
G04 Created by KiCad (PCBNEW (5.1.0)-1) date 2020-08-28 07:36:50*
%MOMM*%
%LPD*%
G04 APERTURE LIST*
%ADD10C,0.150000*%
%ADD11C,0.381000*%
%ADD12C,0.120000*%
G04 APERTURE END LIST*
D10*
X226081250Y-30956250D02*
X216831250Y-30956250D01*
X225931250Y-37616250D02*
X216981250Y-37616250D01*
X216976250Y-29206250D02*
X216981250Y-28446250D01*
X225931250Y-28446250D02*
X216981250Y-28446250D01*
X225931250Y-28446250D02*
X225936250Y-29206250D01*
X221456250Y-30956250D02*
X221456250Y-32226250D01*
D11*
X22225000Y-54959250D02*
X22225000Y-53181250D01*
X22225000Y-65881250D02*
X22225000Y-64103250D01*
X24003000Y-65881250D02*
X22225000Y-65881250D01*
X34925000Y-65881250D02*
X33147000Y-65881250D01*
X34925000Y-64103250D02*
X34925000Y-65881250D01*
X34925000Y-53181250D02*
X34925000Y-54959250D01*
X33147000Y-53181250D02*
X34925000Y-53181250D01*
X22225000Y-53181250D02*
X24003000Y-53181250D01*
X41275000Y-53181250D02*
X43053000Y-53181250D01*
X52197000Y-53181250D02*
X53975000Y-53181250D01*
X53975000Y-53181250D02*
X53975000Y-54959250D01*
X53975000Y-64103250D02*
X53975000Y-65881250D01*
X53975000Y-65881250D02*
X52197000Y-65881250D01*
X43053000Y-65881250D02*
X41275000Y-65881250D01*
X41275000Y-65881250D02*
X41275000Y-64103250D01*
X41275000Y-54959250D02*
X41275000Y-53181250D01*
X60325000Y-54959250D02*
X60325000Y-53181250D01*
X60325000Y-65881250D02*
X60325000Y-64103250D01*
X62103000Y-65881250D02*
X60325000Y-65881250D01*
X73025000Y-65881250D02*
X71247000Y-65881250D01*
X73025000Y-64103250D02*
X73025000Y-65881250D01*
X73025000Y-53181250D02*
X73025000Y-54959250D01*
X71247000Y-53181250D02*
X73025000Y-53181250D01*
X60325000Y-53181250D02*
X62103000Y-53181250D01*
X79375000Y-53181250D02*
X81153000Y-53181250D01*
X90297000Y-53181250D02*
X92075000Y-53181250D01*
X92075000Y-53181250D02*
X92075000Y-54959250D01*
X92075000Y-64103250D02*
X92075000Y-65881250D01*
X92075000Y-65881250D02*
X90297000Y-65881250D01*
X81153000Y-65881250D02*
X79375000Y-65881250D01*
X79375000Y-65881250D02*
X79375000Y-64103250D01*
X79375000Y-54959250D02*
X79375000Y-53181250D01*
X98425000Y-54959250D02*
X98425000Y-53181250D01*
X98425000Y-65881250D02*
X98425000Y-64103250D01*
X100203000Y-65881250D02*
X98425000Y-65881250D01*
X111125000Y-65881250D02*
X109347000Y-65881250D01*
X111125000Y-64103250D02*
X111125000Y-65881250D01*
X111125000Y-53181250D02*
X111125000Y-54959250D01*
X109347000Y-53181250D02*
X111125000Y-53181250D01*
X98425000Y-53181250D02*
X100203000Y-53181250D01*
X117475000Y-53181250D02*
X119253000Y-53181250D01*
X128397000Y-53181250D02*
X130175000Y-53181250D01*
X130175000Y-53181250D02*
X130175000Y-54959250D01*
X130175000Y-64103250D02*
X130175000Y-65881250D01*
X130175000Y-65881250D02*
X128397000Y-65881250D01*
X119253000Y-65881250D02*
X117475000Y-65881250D01*
X117475000Y-65881250D02*
X117475000Y-64103250D01*
X117475000Y-54959250D02*
X117475000Y-53181250D01*
X136525000Y-54959250D02*
X136525000Y-53181250D01*
X136525000Y-65881250D02*
X136525000Y-64103250D01*
X138303000Y-65881250D02*
X136525000Y-65881250D01*
X149225000Y-65881250D02*
X147447000Y-65881250D01*
X149225000Y-64103250D02*
X149225000Y-65881250D01*
X149225000Y-53181250D02*
X149225000Y-54959250D01*
X147447000Y-53181250D02*
X149225000Y-53181250D01*
X136525000Y-53181250D02*
X138303000Y-53181250D01*
X155575000Y-53181250D02*
X157353000Y-53181250D01*
X166497000Y-53181250D02*
X168275000Y-53181250D01*
X168275000Y-53181250D02*
X168275000Y-54959250D01*
X168275000Y-64103250D02*
X168275000Y-65881250D01*
X168275000Y-65881250D02*
X166497000Y-65881250D01*
X157353000Y-65881250D02*
X155575000Y-65881250D01*
X155575000Y-65881250D02*
X155575000Y-64103250D01*
X155575000Y-54959250D02*
X155575000Y-53181250D01*
X174625000Y-54959250D02*
X174625000Y-53181250D01*
X174625000Y-65881250D02*
X174625000Y-64103250D01*
X176403000Y-65881250D02*
X174625000Y-65881250D01*
X187325000Y-65881250D02*
X185547000Y-65881250D01*
X187325000Y-64103250D02*
X187325000Y-65881250D01*
X187325000Y-53181250D02*
X187325000Y-54959250D01*
X185547000Y-53181250D02*
X187325000Y-53181250D01*
X174625000Y-53181250D02*
X176403000Y-53181250D01*
X193675000Y-53181250D02*
X195453000Y-53181250D01*
X204597000Y-53181250D02*
X206375000Y-53181250D01*
X206375000Y-53181250D02*
X206375000Y-54959250D01*
X206375000Y-64103250D02*
X206375000Y-65881250D01*
X206375000Y-65881250D02*
X204597000Y-65881250D01*
X195453000Y-65881250D02*
X193675000Y-65881250D01*
X193675000Y-65881250D02*
X193675000Y-64103250D01*
X193675000Y-54959250D02*
X193675000Y-53181250D01*
X212725000Y-54959250D02*
X212725000Y-53181250D01*
X212725000Y-65881250D02*
X212725000Y-64103250D01*
X214503000Y-65881250D02*
X212725000Y-65881250D01*
X225425000Y-65881250D02*
X223647000Y-65881250D01*
X225425000Y-64103250D02*
X225425000Y-65881250D01*
X225425000Y-53181250D02*
X225425000Y-54959250D01*
X223647000Y-53181250D02*
X225425000Y-53181250D01*
X212725000Y-53181250D02*
X214503000Y-53181250D01*
X231775000Y-53181250D02*
X233553000Y-53181250D01*
X242697000Y-53181250D02*
X244475000Y-53181250D01*
X244475000Y-53181250D02*
X244475000Y-54959250D01*
X244475000Y-64103250D02*
X244475000Y-65881250D01*
X244475000Y-65881250D02*
X242697000Y-65881250D01*
X233553000Y-65881250D02*
X231775000Y-65881250D01*
X231775000Y-65881250D02*
X231775000Y-64103250D01*
X231775000Y-54959250D02*
X231775000Y-53181250D01*
X22225000Y-72231250D02*
X24003000Y-72231250D01*
X33147000Y-72231250D02*
X34925000Y-72231250D01*
X34925000Y-72231250D02*
X34925000Y-74009250D01*
X34925000Y-83153250D02*
X34925000Y-84931250D01*
X34925000Y-84931250D02*
X33147000Y-84931250D01*
X24003000Y-84931250D02*
X22225000Y-84931250D01*
X22225000Y-84931250D02*
X22225000Y-83153250D01*
X22225000Y-74009250D02*
X22225000Y-72231250D01*
X60325000Y-74009250D02*
X60325000Y-72231250D01*
X60325000Y-84931250D02*
X60325000Y-83153250D01*
X62103000Y-84931250D02*
X60325000Y-84931250D01*
X73025000Y-84931250D02*
X71247000Y-84931250D01*
X73025000Y-83153250D02*
X73025000Y-84931250D01*
X73025000Y-72231250D02*
X73025000Y-74009250D01*
X71247000Y-72231250D02*
X73025000Y-72231250D01*
X60325000Y-72231250D02*
X62103000Y-72231250D01*
X79375000Y-72231250D02*
X81153000Y-72231250D01*
X90297000Y-72231250D02*
X92075000Y-72231250D01*
X92075000Y-72231250D02*
X92075000Y-74009250D01*
X92075000Y-83153250D02*
X92075000Y-84931250D01*
X92075000Y-84931250D02*
X90297000Y-84931250D01*
X81153000Y-84931250D02*
X79375000Y-84931250D01*
X79375000Y-84931250D02*
X79375000Y-83153250D01*
X79375000Y-74009250D02*
X79375000Y-72231250D01*
X98425000Y-74009250D02*
X98425000Y-72231250D01*
X98425000Y-84931250D02*
X98425000Y-83153250D01*
X100203000Y-84931250D02*
X98425000Y-84931250D01*
X111125000Y-84931250D02*
X109347000Y-84931250D01*
X111125000Y-83153250D02*
X111125000Y-84931250D01*
X111125000Y-72231250D02*
X111125000Y-74009250D01*
X109347000Y-72231250D02*
X111125000Y-72231250D01*
X98425000Y-72231250D02*
X100203000Y-72231250D01*
X117475000Y-72231250D02*
X119253000Y-72231250D01*
X128397000Y-72231250D02*
X130175000Y-72231250D01*
X130175000Y-72231250D02*
X130175000Y-74009250D01*
X130175000Y-83153250D02*
X130175000Y-84931250D01*
X130175000Y-84931250D02*
X128397000Y-84931250D01*
X119253000Y-84931250D02*
X117475000Y-84931250D01*
X117475000Y-84931250D02*
X117475000Y-83153250D01*
X117475000Y-74009250D02*
X117475000Y-72231250D01*
X136525000Y-74009250D02*
X136525000Y-72231250D01*
X136525000Y-84931250D02*
X136525000Y-83153250D01*
X138303000Y-84931250D02*
X136525000Y-84931250D01*
X149225000Y-84931250D02*
X147447000Y-84931250D01*
X149225000Y-83153250D02*
X149225000Y-84931250D01*
X149225000Y-72231250D02*
X149225000Y-74009250D01*
X147447000Y-72231250D02*
X149225000Y-72231250D01*
X136525000Y-72231250D02*
X138303000Y-72231250D01*
X155575000Y-72231250D02*
X157353000Y-72231250D01*
X166497000Y-72231250D02*
X168275000Y-72231250D01*
X168275000Y-72231250D02*
X168275000Y-74009250D01*
X168275000Y-83153250D02*
X168275000Y-84931250D01*
X168275000Y-84931250D02*
X166497000Y-84931250D01*
X157353000Y-84931250D02*
X155575000Y-84931250D01*
X155575000Y-84931250D02*
X155575000Y-83153250D01*
X155575000Y-74009250D02*
X155575000Y-72231250D01*
X174625000Y-74009250D02*
X174625000Y-72231250D01*
X174625000Y-84931250D02*
X174625000Y-83153250D01*
X176403000Y-84931250D02*
X174625000Y-84931250D01*
X187325000Y-84931250D02*
X185547000Y-84931250D01*
X187325000Y-83153250D02*
X187325000Y-84931250D01*
X187325000Y-72231250D02*
X187325000Y-74009250D01*
X185547000Y-72231250D02*
X187325000Y-72231250D01*
X174625000Y-72231250D02*
X176403000Y-72231250D01*
X193675000Y-72231250D02*
X195453000Y-72231250D01*
X204597000Y-72231250D02*
X206375000Y-72231250D01*
X206375000Y-72231250D02*
X206375000Y-74009250D01*
X206375000Y-83153250D02*
X206375000Y-84931250D01*
X206375000Y-84931250D02*
X204597000Y-84931250D01*
X195453000Y-84931250D02*
X193675000Y-84931250D01*
X193675000Y-84931250D02*
X193675000Y-83153250D01*
X193675000Y-74009250D02*
X193675000Y-72231250D01*
X212725000Y-74009250D02*
X212725000Y-72231250D01*
X212725000Y-84931250D02*
X212725000Y-83153250D01*
X214503000Y-84931250D02*
X212725000Y-84931250D01*
X225425000Y-84931250D02*
X223647000Y-84931250D01*
X225425000Y-83153250D02*
X225425000Y-84931250D01*
X225425000Y-72231250D02*
X225425000Y-74009250D01*
X223647000Y-72231250D02*
X225425000Y-72231250D01*
X212725000Y-72231250D02*
X214503000Y-72231250D01*
X231775000Y-74009250D02*
X231775000Y-72231250D01*
X231775000Y-84931250D02*
X231775000Y-83153250D01*
X233553000Y-84931250D02*
X231775000Y-84931250D01*
X244475000Y-84931250D02*
X242697000Y-84931250D01*
X244475000Y-83153250D02*
X244475000Y-84931250D01*
X244475000Y-72231250D02*
X244475000Y-74009250D01*
X242697000Y-72231250D02*
X244475000Y-72231250D01*
X231775000Y-72231250D02*
X233553000Y-72231250D01*
X22225000Y-91281250D02*
X24003000Y-91281250D01*
X33147000Y-91281250D02*
X34925000Y-91281250D01*
X34925000Y-91281250D02*
X34925000Y-93059250D01*
X34925000Y-102203250D02*
X34925000Y-103981250D01*
X34925000Y-103981250D02*
X33147000Y-103981250D01*
X24003000Y-103981250D02*
X22225000Y-103981250D01*
X22225000Y-103981250D02*
X22225000Y-102203250D01*
X22225000Y-93059250D02*
X22225000Y-91281250D01*
X41275000Y-91281250D02*
X43053000Y-91281250D01*
X52197000Y-91281250D02*
X53975000Y-91281250D01*
X53975000Y-91281250D02*
X53975000Y-93059250D01*
X53975000Y-102203250D02*
X53975000Y-103981250D01*
X53975000Y-103981250D02*
X52197000Y-103981250D01*
X43053000Y-103981250D02*
X41275000Y-103981250D01*
X41275000Y-103981250D02*
X41275000Y-102203250D01*
X41275000Y-93059250D02*
X41275000Y-91281250D01*
X60325000Y-93059250D02*
X60325000Y-91281250D01*
X60325000Y-103981250D02*
X60325000Y-102203250D01*
X62103000Y-103981250D02*
X60325000Y-103981250D01*
X73025000Y-103981250D02*
X71247000Y-103981250D01*
X73025000Y-102203250D02*
X73025000Y-103981250D01*
X73025000Y-91281250D02*
X73025000Y-93059250D01*
X71247000Y-91281250D02*
X73025000Y-91281250D01*
X60325000Y-91281250D02*
X62103000Y-91281250D01*
X79375000Y-91281250D02*
X81153000Y-91281250D01*
X90297000Y-91281250D02*
X92075000Y-91281250D01*
X92075000Y-91281250D02*
X92075000Y-93059250D01*
X92075000Y-102203250D02*
X92075000Y-103981250D01*
X92075000Y-103981250D02*
X90297000Y-103981250D01*
X81153000Y-103981250D02*
X79375000Y-103981250D01*
X79375000Y-103981250D02*
X79375000Y-102203250D01*
X79375000Y-93059250D02*
X79375000Y-91281250D01*
X98425000Y-93059250D02*
X98425000Y-91281250D01*
X98425000Y-103981250D02*
X98425000Y-102203250D01*
X100203000Y-103981250D02*
X98425000Y-103981250D01*
X111125000Y-103981250D02*
X109347000Y-103981250D01*
X111125000Y-102203250D02*
X111125000Y-103981250D01*
X111125000Y-91281250D02*
X111125000Y-93059250D01*
X109347000Y-91281250D02*
X111125000Y-91281250D01*
X98425000Y-91281250D02*
X100203000Y-91281250D01*
X117475000Y-93059250D02*
X117475000Y-91281250D01*
X117475000Y-103981250D02*
X117475000Y-102203250D01*
X119253000Y-103981250D02*
X117475000Y-103981250D01*
X130175000Y-103981250D02*
X128397000Y-103981250D01*
X130175000Y-102203250D02*
X130175000Y-103981250D01*
X130175000Y-91281250D02*
X130175000Y-93059250D01*
X128397000Y-91281250D02*
X130175000Y-91281250D01*
X117475000Y-91281250D02*
X119253000Y-91281250D01*
X136525000Y-93059250D02*
X136525000Y-91281250D01*
X136525000Y-103981250D02*
X136525000Y-102203250D01*
X138303000Y-103981250D02*
X136525000Y-103981250D01*
X149225000Y-103981250D02*
X147447000Y-103981250D01*
X149225000Y-102203250D02*
X149225000Y-103981250D01*
X149225000Y-91281250D02*
X149225000Y-93059250D01*
X147447000Y-91281250D02*
X149225000Y-91281250D01*
X136525000Y-91281250D02*
X138303000Y-91281250D01*
X155575000Y-93059250D02*
X155575000Y-91281250D01*
X155575000Y-103981250D02*
X155575000Y-102203250D01*
X157353000Y-103981250D02*
X155575000Y-103981250D01*
X168275000Y-103981250D02*
X166497000Y-103981250D01*
X168275000Y-102203250D02*
X168275000Y-103981250D01*
X168275000Y-91281250D02*
X168275000Y-93059250D01*
X166497000Y-91281250D02*
X168275000Y-91281250D01*
X155575000Y-91281250D02*
X157353000Y-91281250D01*
X174625000Y-91281250D02*
X176403000Y-91281250D01*
X185547000Y-91281250D02*
X187325000Y-91281250D01*
X187325000Y-91281250D02*
X187325000Y-93059250D01*
X187325000Y-102203250D02*
X187325000Y-103981250D01*
X187325000Y-103981250D02*
X185547000Y-103981250D01*
X176403000Y-103981250D02*
X174625000Y-103981250D01*
X174625000Y-103981250D02*
X174625000Y-102203250D01*
X174625000Y-93059250D02*
X174625000Y-91281250D01*
X193675000Y-91281250D02*
X195453000Y-91281250D01*
X204597000Y-91281250D02*
X206375000Y-91281250D01*
X206375000Y-91281250D02*
X206375000Y-93059250D01*
X206375000Y-102203250D02*
X206375000Y-103981250D01*
X206375000Y-103981250D02*
X204597000Y-103981250D01*
X195453000Y-103981250D02*
X193675000Y-103981250D01*
X193675000Y-103981250D02*
X193675000Y-102203250D01*
X193675000Y-93059250D02*
X193675000Y-91281250D01*
X212725000Y-93059250D02*
X212725000Y-91281250D01*
X212725000Y-103981250D02*
X212725000Y-102203250D01*
X214503000Y-103981250D02*
X212725000Y-103981250D01*
X225425000Y-103981250D02*
X223647000Y-103981250D01*
X225425000Y-102203250D02*
X225425000Y-103981250D01*
X225425000Y-91281250D02*
X225425000Y-93059250D01*
X223647000Y-91281250D02*
X225425000Y-91281250D01*
X212725000Y-91281250D02*
X214503000Y-91281250D01*
X231775000Y-91281250D02*
X233553000Y-91281250D01*
X242697000Y-91281250D02*
X244475000Y-91281250D01*
X244475000Y-91281250D02*
X244475000Y-93059250D01*
X244475000Y-102203250D02*
X244475000Y-103981250D01*
X244475000Y-103981250D02*
X242697000Y-103981250D01*
X233553000Y-103981250D02*
X231775000Y-103981250D01*
X231775000Y-103981250D02*
X231775000Y-102203250D01*
X231775000Y-93059250D02*
X231775000Y-91281250D01*
X22225000Y-112109250D02*
X22225000Y-110331250D01*
X22225000Y-123031250D02*
X22225000Y-121253250D01*
X24003000Y-123031250D02*
X22225000Y-123031250D01*
X34925000Y-123031250D02*
X33147000Y-123031250D01*
X34925000Y-121253250D02*
X34925000Y-123031250D01*
X34925000Y-110331250D02*
X34925000Y-112109250D01*
X33147000Y-110331250D02*
X34925000Y-110331250D01*
X22225000Y-110331250D02*
X24003000Y-110331250D01*
X41275000Y-110331250D02*
X43053000Y-110331250D01*
X52197000Y-110331250D02*
X53975000Y-110331250D01*
X53975000Y-110331250D02*
X53975000Y-112109250D01*
X53975000Y-121253250D02*
X53975000Y-123031250D01*
X53975000Y-123031250D02*
X52197000Y-123031250D01*
X43053000Y-123031250D02*
X41275000Y-123031250D01*
X41275000Y-123031250D02*
X41275000Y-121253250D01*
X41275000Y-112109250D02*
X41275000Y-110331250D01*
X60325000Y-112109250D02*
X60325000Y-110331250D01*
X60325000Y-123031250D02*
X60325000Y-121253250D01*
X62103000Y-123031250D02*
X60325000Y-123031250D01*
X73025000Y-123031250D02*
X71247000Y-123031250D01*
X73025000Y-121253250D02*
X73025000Y-123031250D01*
X73025000Y-110331250D02*
X73025000Y-112109250D01*
X71247000Y-110331250D02*
X73025000Y-110331250D01*
X60325000Y-110331250D02*
X62103000Y-110331250D01*
X79375000Y-110331250D02*
X81153000Y-110331250D01*
X90297000Y-110331250D02*
X92075000Y-110331250D01*
X92075000Y-110331250D02*
X92075000Y-112109250D01*
X92075000Y-121253250D02*
X92075000Y-123031250D01*
X92075000Y-123031250D02*
X90297000Y-123031250D01*
X81153000Y-123031250D02*
X79375000Y-123031250D01*
X79375000Y-123031250D02*
X79375000Y-121253250D01*
X79375000Y-112109250D02*
X79375000Y-110331250D01*
X98425000Y-110331250D02*
X100203000Y-110331250D01*
X109347000Y-110331250D02*
X111125000Y-110331250D01*
X111125000Y-110331250D02*
X111125000Y-112109250D01*
X111125000Y-121253250D02*
X111125000Y-123031250D01*
X111125000Y-123031250D02*
X109347000Y-123031250D01*
X100203000Y-123031250D02*
X98425000Y-123031250D01*
X98425000Y-123031250D02*
X98425000Y-121253250D01*
X98425000Y-112109250D02*
X98425000Y-110331250D01*
X155575000Y-112109250D02*
X155575000Y-110331250D01*
X155575000Y-123031250D02*
X155575000Y-121253250D01*
X157353000Y-123031250D02*
X155575000Y-123031250D01*
X168275000Y-123031250D02*
X166497000Y-123031250D01*
X168275000Y-121253250D02*
X168275000Y-123031250D01*
X168275000Y-110331250D02*
X168275000Y-112109250D01*
X166497000Y-110331250D02*
X168275000Y-110331250D01*
X155575000Y-110331250D02*
X157353000Y-110331250D01*
X174625000Y-110331250D02*
X176403000Y-110331250D01*
X185547000Y-110331250D02*
X187325000Y-110331250D01*
X187325000Y-110331250D02*
X187325000Y-112109250D01*
X187325000Y-121253250D02*
X187325000Y-123031250D01*
X187325000Y-123031250D02*
X185547000Y-123031250D01*
X176403000Y-123031250D02*
X174625000Y-123031250D01*
X174625000Y-123031250D02*
X174625000Y-121253250D01*
X174625000Y-112109250D02*
X174625000Y-110331250D01*
X193675000Y-110331250D02*
X195453000Y-110331250D01*
X204597000Y-110331250D02*
X206375000Y-110331250D01*
X206375000Y-110331250D02*
X206375000Y-112109250D01*
X206375000Y-121253250D02*
X206375000Y-123031250D01*
X206375000Y-123031250D02*
X204597000Y-123031250D01*
X195453000Y-123031250D02*
X193675000Y-123031250D01*
X193675000Y-123031250D02*
X193675000Y-121253250D01*
X193675000Y-112109250D02*
X193675000Y-110331250D01*
X212725000Y-112109250D02*
X212725000Y-110331250D01*
X212725000Y-123031250D02*
X212725000Y-121253250D01*
X214503000Y-123031250D02*
X212725000Y-123031250D01*
X225425000Y-123031250D02*
X223647000Y-123031250D01*
X225425000Y-121253250D02*
X225425000Y-123031250D01*
X225425000Y-110331250D02*
X225425000Y-112109250D01*
X223647000Y-110331250D02*
X225425000Y-110331250D01*
X212725000Y-110331250D02*
X214503000Y-110331250D01*
X231775000Y-112109250D02*
X231775000Y-110331250D01*
X231775000Y-123031250D02*
X231775000Y-121253250D01*
X233553000Y-123031250D02*
X231775000Y-123031250D01*
X244475000Y-123031250D02*
X242697000Y-123031250D01*
X244475000Y-121253250D02*
X244475000Y-123031250D01*
X244475000Y-110331250D02*
X244475000Y-112109250D01*
X242697000Y-110331250D02*
X244475000Y-110331250D01*
X231775000Y-110331250D02*
X233553000Y-110331250D01*
D12*
X208186550Y-38018750D02*
X208636550Y-38468750D01*
X211586550Y-38018750D02*
X211136550Y-38468750D01*
X211586550Y-33418750D02*
X211136550Y-32968750D01*
X208186550Y-33418750D02*
X208636550Y-32968750D01*
X212636550Y-34718750D02*
X212636550Y-36718750D01*
X208636550Y-38468750D02*
X211136550Y-38468750D01*
X207136550Y-34718750D02*
X207136550Y-36718750D01*
X208636550Y-32968750D02*
X211136550Y-32968750D01*
D11*
X41275000Y-74009250D02*
X41275000Y-72231250D01*
X41275000Y-84931250D02*
X41275000Y-83153250D01*
X43053000Y-84931250D02*
X41275000Y-84931250D01*
X53975000Y-84931250D02*
X52197000Y-84931250D01*
X53975000Y-83153250D02*
X53975000Y-84931250D01*
X53975000Y-72231250D02*
X53975000Y-74009250D01*
X52197000Y-72231250D02*
X53975000Y-72231250D01*
X41275000Y-72231250D02*
X43053000Y-72231250D01*
X127000000Y-112109250D02*
X127000000Y-110331250D01*
X127000000Y-123031250D02*
X127000000Y-121253250D01*
X128778000Y-123031250D02*
X127000000Y-123031250D01*
X139700000Y-123031250D02*
X137922000Y-123031250D01*
X139700000Y-121253250D02*
X139700000Y-123031250D01*
X139700000Y-110331250D02*
X139700000Y-112109250D01*
X137922000Y-110331250D02*
X139700000Y-110331250D01*
X127000000Y-110331250D02*
X128778000Y-110331250D01*
D10*
X141893750Y-38100000D02*
G75*
G03X141893750Y-38100000I-1400000J0D01*
G01*
X146656250Y-38100000D02*
G75*
G03X146656250Y-38100000I-1400000J0D01*
G01*
X151418750Y-38100000D02*
G75*
G03X151418750Y-38100000I-1400000J0D01*
G01*
X156181250Y-38100000D02*
G75*
G03X156181250Y-38100000I-1400000J0D01*
G01*
X160943750Y-38100000D02*
G75*
G03X160943750Y-38100000I-1400000J0D01*
G01*
X165706250Y-38100000D02*
G75*
G03X165706250Y-38100000I-1400000J0D01*
G01*
X170468750Y-38100000D02*
G75*
G03X170468750Y-38100000I-1400000J0D01*
G01*
X175231250Y-38100000D02*
G75*
G03X175231250Y-38100000I-1400000J0D01*
G01*
X179993750Y-38100000D02*
G75*
G03X179993750Y-38100000I-1400000J0D01*
G01*
X184756250Y-38100000D02*
G75*
G03X184756250Y-38100000I-1400000J0D01*
G01*
X189518750Y-38100000D02*
G75*
G03X189518750Y-38100000I-1400000J0D01*
G01*
X194281250Y-38100000D02*
G75*
G03X194281250Y-38100000I-1400000J0D01*
G01*
X221122916Y-39933630D02*
X221122916Y-40647916D01*
X221075297Y-40790773D01*
X220980059Y-40886011D01*
X220837202Y-40933630D01*
X220741964Y-40933630D01*
X222122916Y-40933630D02*
X221551488Y-40933630D01*
X221837202Y-40933630D02*
X221837202Y-39933630D01*
X221741964Y-40076488D01*
X221646726Y-40171726D01*
X221551488Y-40219345D01*
X208807216Y-41838511D02*
X208950073Y-41886130D01*
X209188169Y-41886130D01*
X209283407Y-41838511D01*
X209331026Y-41790892D01*
X209378645Y-41695654D01*
X209378645Y-41600416D01*
X209331026Y-41505178D01*
X209283407Y-41457559D01*
X209188169Y-41409940D01*
X208997692Y-41362321D01*
X208902454Y-41314702D01*
X208854835Y-41267083D01*
X208807216Y-41171845D01*
X208807216Y-41076607D01*
X208854835Y-40981369D01*
X208902454Y-40933750D01*
X208997692Y-40886130D01*
X209235788Y-40886130D01*
X209378645Y-40933750D01*
X209711978Y-40886130D02*
X209950073Y-41886130D01*
X210140550Y-41171845D01*
X210331026Y-41886130D01*
X210569121Y-40886130D01*
X211473883Y-41886130D02*
X210902454Y-41886130D01*
X211188169Y-41886130D02*
X211188169Y-40886130D01*
X211092930Y-41028988D01*
X210997692Y-41124226D01*
X210902454Y-41171845D01*
X139612797Y-35957142D02*
X139565178Y-36004761D01*
X139422321Y-36052380D01*
X139327083Y-36052380D01*
X139184226Y-36004761D01*
X139088988Y-35909523D01*
X139041369Y-35814285D01*
X138993750Y-35623809D01*
X138993750Y-35480952D01*
X139041369Y-35290476D01*
X139088988Y-35195238D01*
X139184226Y-35100000D01*
X139327083Y-35052380D01*
X139422321Y-35052380D01*
X139565178Y-35100000D01*
X139612797Y-35147619D01*
X140184226Y-36052380D02*
X140088988Y-36004761D01*
X140041369Y-35957142D01*
X139993750Y-35861904D01*
X139993750Y-35576190D01*
X140041369Y-35480952D01*
X140088988Y-35433333D01*
X140184226Y-35385714D01*
X140327083Y-35385714D01*
X140422321Y-35433333D01*
X140469940Y-35480952D01*
X140517559Y-35576190D01*
X140517559Y-35861904D01*
X140469940Y-35957142D01*
X140422321Y-36004761D01*
X140327083Y-36052380D01*
X140184226Y-36052380D01*
X141088988Y-36052380D02*
X140993750Y-36004761D01*
X140946130Y-35909523D01*
X140946130Y-35052380D01*
X141660416Y-35052380D02*
X141755654Y-35052380D01*
X141850892Y-35100000D01*
X141898511Y-35147619D01*
X141946130Y-35242857D01*
X141993750Y-35433333D01*
X141993750Y-35671428D01*
X141946130Y-35861904D01*
X141898511Y-35957142D01*
X141850892Y-36004761D01*
X141755654Y-36052380D01*
X141660416Y-36052380D01*
X141565178Y-36004761D01*
X141517559Y-35957142D01*
X141469940Y-35861904D01*
X141422321Y-35671428D01*
X141422321Y-35433333D01*
X141469940Y-35242857D01*
X141517559Y-35147619D01*
X141565178Y-35100000D01*
X141660416Y-35052380D01*
X144375297Y-35957142D02*
X144327678Y-36004761D01*
X144184821Y-36052380D01*
X144089583Y-36052380D01*
X143946726Y-36004761D01*
X143851488Y-35909523D01*
X143803869Y-35814285D01*
X143756250Y-35623809D01*
X143756250Y-35480952D01*
X143803869Y-35290476D01*
X143851488Y-35195238D01*
X143946726Y-35100000D01*
X144089583Y-35052380D01*
X144184821Y-35052380D01*
X144327678Y-35100000D01*
X144375297Y-35147619D01*
X144946726Y-36052380D02*
X144851488Y-36004761D01*
X144803869Y-35957142D01*
X144756250Y-35861904D01*
X144756250Y-35576190D01*
X144803869Y-35480952D01*
X144851488Y-35433333D01*
X144946726Y-35385714D01*
X145089583Y-35385714D01*
X145184821Y-35433333D01*
X145232440Y-35480952D01*
X145280059Y-35576190D01*
X145280059Y-35861904D01*
X145232440Y-35957142D01*
X145184821Y-36004761D01*
X145089583Y-36052380D01*
X144946726Y-36052380D01*
X145851488Y-36052380D02*
X145756250Y-36004761D01*
X145708630Y-35909523D01*
X145708630Y-35052380D01*
X146756250Y-36052380D02*
X146184821Y-36052380D01*
X146470535Y-36052380D02*
X146470535Y-35052380D01*
X146375297Y-35195238D01*
X146280059Y-35290476D01*
X146184821Y-35338095D01*
X149137797Y-35957142D02*
X149090178Y-36004761D01*
X148947321Y-36052380D01*
X148852083Y-36052380D01*
X148709226Y-36004761D01*
X148613988Y-35909523D01*
X148566369Y-35814285D01*
X148518750Y-35623809D01*
X148518750Y-35480952D01*
X148566369Y-35290476D01*
X148613988Y-35195238D01*
X148709226Y-35100000D01*
X148852083Y-35052380D01*
X148947321Y-35052380D01*
X149090178Y-35100000D01*
X149137797Y-35147619D01*
X149709226Y-36052380D02*
X149613988Y-36004761D01*
X149566369Y-35957142D01*
X149518750Y-35861904D01*
X149518750Y-35576190D01*
X149566369Y-35480952D01*
X149613988Y-35433333D01*
X149709226Y-35385714D01*
X149852083Y-35385714D01*
X149947321Y-35433333D01*
X149994940Y-35480952D01*
X150042559Y-35576190D01*
X150042559Y-35861904D01*
X149994940Y-35957142D01*
X149947321Y-36004761D01*
X149852083Y-36052380D01*
X149709226Y-36052380D01*
X150613988Y-36052380D02*
X150518750Y-36004761D01*
X150471130Y-35909523D01*
X150471130Y-35052380D01*
X150947321Y-35147619D02*
X150994940Y-35100000D01*
X151090178Y-35052380D01*
X151328273Y-35052380D01*
X151423511Y-35100000D01*
X151471130Y-35147619D01*
X151518750Y-35242857D01*
X151518750Y-35338095D01*
X151471130Y-35480952D01*
X150899702Y-36052380D01*
X151518750Y-36052380D01*
X153900297Y-35957142D02*
X153852678Y-36004761D01*
X153709821Y-36052380D01*
X153614583Y-36052380D01*
X153471726Y-36004761D01*
X153376488Y-35909523D01*
X153328869Y-35814285D01*
X153281250Y-35623809D01*
X153281250Y-35480952D01*
X153328869Y-35290476D01*
X153376488Y-35195238D01*
X153471726Y-35100000D01*
X153614583Y-35052380D01*
X153709821Y-35052380D01*
X153852678Y-35100000D01*
X153900297Y-35147619D01*
X154471726Y-36052380D02*
X154376488Y-36004761D01*
X154328869Y-35957142D01*
X154281250Y-35861904D01*
X154281250Y-35576190D01*
X154328869Y-35480952D01*
X154376488Y-35433333D01*
X154471726Y-35385714D01*
X154614583Y-35385714D01*
X154709821Y-35433333D01*
X154757440Y-35480952D01*
X154805059Y-35576190D01*
X154805059Y-35861904D01*
X154757440Y-35957142D01*
X154709821Y-36004761D01*
X154614583Y-36052380D01*
X154471726Y-36052380D01*
X155376488Y-36052380D02*
X155281250Y-36004761D01*
X155233630Y-35909523D01*
X155233630Y-35052380D01*
X155662202Y-35052380D02*
X156281250Y-35052380D01*
X155947916Y-35433333D01*
X156090773Y-35433333D01*
X156186011Y-35480952D01*
X156233630Y-35528571D01*
X156281250Y-35623809D01*
X156281250Y-35861904D01*
X156233630Y-35957142D01*
X156186011Y-36004761D01*
X156090773Y-36052380D01*
X155805059Y-36052380D01*
X155709821Y-36004761D01*
X155662202Y-35957142D01*
X158662797Y-35957142D02*
X158615178Y-36004761D01*
X158472321Y-36052380D01*
X158377083Y-36052380D01*
X158234226Y-36004761D01*
X158138988Y-35909523D01*
X158091369Y-35814285D01*
X158043750Y-35623809D01*
X158043750Y-35480952D01*
X158091369Y-35290476D01*
X158138988Y-35195238D01*
X158234226Y-35100000D01*
X158377083Y-35052380D01*
X158472321Y-35052380D01*
X158615178Y-35100000D01*
X158662797Y-35147619D01*
X159234226Y-36052380D02*
X159138988Y-36004761D01*
X159091369Y-35957142D01*
X159043750Y-35861904D01*
X159043750Y-35576190D01*
X159091369Y-35480952D01*
X159138988Y-35433333D01*
X159234226Y-35385714D01*
X159377083Y-35385714D01*
X159472321Y-35433333D01*
X159519940Y-35480952D01*
X159567559Y-35576190D01*
X159567559Y-35861904D01*
X159519940Y-35957142D01*
X159472321Y-36004761D01*
X159377083Y-36052380D01*
X159234226Y-36052380D01*
X160138988Y-36052380D02*
X160043750Y-36004761D01*
X159996130Y-35909523D01*
X159996130Y-35052380D01*
X160948511Y-35385714D02*
X160948511Y-36052380D01*
X160710416Y-35004761D02*
X160472321Y-35719047D01*
X161091369Y-35719047D01*
X163425297Y-35957142D02*
X163377678Y-36004761D01*
X163234821Y-36052380D01*
X163139583Y-36052380D01*
X162996726Y-36004761D01*
X162901488Y-35909523D01*
X162853869Y-35814285D01*
X162806250Y-35623809D01*
X162806250Y-35480952D01*
X162853869Y-35290476D01*
X162901488Y-35195238D01*
X162996726Y-35100000D01*
X163139583Y-35052380D01*
X163234821Y-35052380D01*
X163377678Y-35100000D01*
X163425297Y-35147619D01*
X163996726Y-36052380D02*
X163901488Y-36004761D01*
X163853869Y-35957142D01*
X163806250Y-35861904D01*
X163806250Y-35576190D01*
X163853869Y-35480952D01*
X163901488Y-35433333D01*
X163996726Y-35385714D01*
X164139583Y-35385714D01*
X164234821Y-35433333D01*
X164282440Y-35480952D01*
X164330059Y-35576190D01*
X164330059Y-35861904D01*
X164282440Y-35957142D01*
X164234821Y-36004761D01*
X164139583Y-36052380D01*
X163996726Y-36052380D01*
X164901488Y-36052380D02*
X164806250Y-36004761D01*
X164758630Y-35909523D01*
X164758630Y-35052380D01*
X165758630Y-35052380D02*
X165282440Y-35052380D01*
X165234821Y-35528571D01*
X165282440Y-35480952D01*
X165377678Y-35433333D01*
X165615773Y-35433333D01*
X165711011Y-35480952D01*
X165758630Y-35528571D01*
X165806250Y-35623809D01*
X165806250Y-35861904D01*
X165758630Y-35957142D01*
X165711011Y-36004761D01*
X165615773Y-36052380D01*
X165377678Y-36052380D01*
X165282440Y-36004761D01*
X165234821Y-35957142D01*
X168187797Y-35957142D02*
X168140178Y-36004761D01*
X167997321Y-36052380D01*
X167902083Y-36052380D01*
X167759226Y-36004761D01*
X167663988Y-35909523D01*
X167616369Y-35814285D01*
X167568750Y-35623809D01*
X167568750Y-35480952D01*
X167616369Y-35290476D01*
X167663988Y-35195238D01*
X167759226Y-35100000D01*
X167902083Y-35052380D01*
X167997321Y-35052380D01*
X168140178Y-35100000D01*
X168187797Y-35147619D01*
X168759226Y-36052380D02*
X168663988Y-36004761D01*
X168616369Y-35957142D01*
X168568750Y-35861904D01*
X168568750Y-35576190D01*
X168616369Y-35480952D01*
X168663988Y-35433333D01*
X168759226Y-35385714D01*
X168902083Y-35385714D01*
X168997321Y-35433333D01*
X169044940Y-35480952D01*
X169092559Y-35576190D01*
X169092559Y-35861904D01*
X169044940Y-35957142D01*
X168997321Y-36004761D01*
X168902083Y-36052380D01*
X168759226Y-36052380D01*
X169663988Y-36052380D02*
X169568750Y-36004761D01*
X169521130Y-35909523D01*
X169521130Y-35052380D01*
X170473511Y-35052380D02*
X170283035Y-35052380D01*
X170187797Y-35100000D01*
X170140178Y-35147619D01*
X170044940Y-35290476D01*
X169997321Y-35480952D01*
X169997321Y-35861904D01*
X170044940Y-35957142D01*
X170092559Y-36004761D01*
X170187797Y-36052380D01*
X170378273Y-36052380D01*
X170473511Y-36004761D01*
X170521130Y-35957142D01*
X170568750Y-35861904D01*
X170568750Y-35623809D01*
X170521130Y-35528571D01*
X170473511Y-35480952D01*
X170378273Y-35433333D01*
X170187797Y-35433333D01*
X170092559Y-35480952D01*
X170044940Y-35528571D01*
X169997321Y-35623809D01*
X172950297Y-35957142D02*
X172902678Y-36004761D01*
X172759821Y-36052380D01*
X172664583Y-36052380D01*
X172521726Y-36004761D01*
X172426488Y-35909523D01*
X172378869Y-35814285D01*
X172331250Y-35623809D01*
X172331250Y-35480952D01*
X172378869Y-35290476D01*
X172426488Y-35195238D01*
X172521726Y-35100000D01*
X172664583Y-35052380D01*
X172759821Y-35052380D01*
X172902678Y-35100000D01*
X172950297Y-35147619D01*
X173521726Y-36052380D02*
X173426488Y-36004761D01*
X173378869Y-35957142D01*
X173331250Y-35861904D01*
X173331250Y-35576190D01*
X173378869Y-35480952D01*
X173426488Y-35433333D01*
X173521726Y-35385714D01*
X173664583Y-35385714D01*
X173759821Y-35433333D01*
X173807440Y-35480952D01*
X173855059Y-35576190D01*
X173855059Y-35861904D01*
X173807440Y-35957142D01*
X173759821Y-36004761D01*
X173664583Y-36052380D01*
X173521726Y-36052380D01*
X174426488Y-36052380D02*
X174331250Y-36004761D01*
X174283630Y-35909523D01*
X174283630Y-35052380D01*
X174712202Y-35052380D02*
X175378869Y-35052380D01*
X174950297Y-36052380D01*
X177712797Y-35957142D02*
X177665178Y-36004761D01*
X177522321Y-36052380D01*
X177427083Y-36052380D01*
X177284226Y-36004761D01*
X177188988Y-35909523D01*
X177141369Y-35814285D01*
X177093750Y-35623809D01*
X177093750Y-35480952D01*
X177141369Y-35290476D01*
X177188988Y-35195238D01*
X177284226Y-35100000D01*
X177427083Y-35052380D01*
X177522321Y-35052380D01*
X177665178Y-35100000D01*
X177712797Y-35147619D01*
X178284226Y-36052380D02*
X178188988Y-36004761D01*
X178141369Y-35957142D01*
X178093750Y-35861904D01*
X178093750Y-35576190D01*
X178141369Y-35480952D01*
X178188988Y-35433333D01*
X178284226Y-35385714D01*
X178427083Y-35385714D01*
X178522321Y-35433333D01*
X178569940Y-35480952D01*
X178617559Y-35576190D01*
X178617559Y-35861904D01*
X178569940Y-35957142D01*
X178522321Y-36004761D01*
X178427083Y-36052380D01*
X178284226Y-36052380D01*
X179188988Y-36052380D02*
X179093750Y-36004761D01*
X179046130Y-35909523D01*
X179046130Y-35052380D01*
X179712797Y-35480952D02*
X179617559Y-35433333D01*
X179569940Y-35385714D01*
X179522321Y-35290476D01*
X179522321Y-35242857D01*
X179569940Y-35147619D01*
X179617559Y-35100000D01*
X179712797Y-35052380D01*
X179903273Y-35052380D01*
X179998511Y-35100000D01*
X180046130Y-35147619D01*
X180093750Y-35242857D01*
X180093750Y-35290476D01*
X180046130Y-35385714D01*
X179998511Y-35433333D01*
X179903273Y-35480952D01*
X179712797Y-35480952D01*
X179617559Y-35528571D01*
X179569940Y-35576190D01*
X179522321Y-35671428D01*
X179522321Y-35861904D01*
X179569940Y-35957142D01*
X179617559Y-36004761D01*
X179712797Y-36052380D01*
X179903273Y-36052380D01*
X179998511Y-36004761D01*
X180046130Y-35957142D01*
X180093750Y-35861904D01*
X180093750Y-35671428D01*
X180046130Y-35576190D01*
X179998511Y-35528571D01*
X179903273Y-35480952D01*
X182475297Y-35957142D02*
X182427678Y-36004761D01*
X182284821Y-36052380D01*
X182189583Y-36052380D01*
X182046726Y-36004761D01*
X181951488Y-35909523D01*
X181903869Y-35814285D01*
X181856250Y-35623809D01*
X181856250Y-35480952D01*
X181903869Y-35290476D01*
X181951488Y-35195238D01*
X182046726Y-35100000D01*
X182189583Y-35052380D01*
X182284821Y-35052380D01*
X182427678Y-35100000D01*
X182475297Y-35147619D01*
X183046726Y-36052380D02*
X182951488Y-36004761D01*
X182903869Y-35957142D01*
X182856250Y-35861904D01*
X182856250Y-35576190D01*
X182903869Y-35480952D01*
X182951488Y-35433333D01*
X183046726Y-35385714D01*
X183189583Y-35385714D01*
X183284821Y-35433333D01*
X183332440Y-35480952D01*
X183380059Y-35576190D01*
X183380059Y-35861904D01*
X183332440Y-35957142D01*
X183284821Y-36004761D01*
X183189583Y-36052380D01*
X183046726Y-36052380D01*
X183951488Y-36052380D02*
X183856250Y-36004761D01*
X183808630Y-35909523D01*
X183808630Y-35052380D01*
X184380059Y-36052380D02*
X184570535Y-36052380D01*
X184665773Y-36004761D01*
X184713392Y-35957142D01*
X184808630Y-35814285D01*
X184856250Y-35623809D01*
X184856250Y-35242857D01*
X184808630Y-35147619D01*
X184761011Y-35100000D01*
X184665773Y-35052380D01*
X184475297Y-35052380D01*
X184380059Y-35100000D01*
X184332440Y-35147619D01*
X184284821Y-35242857D01*
X184284821Y-35480952D01*
X184332440Y-35576190D01*
X184380059Y-35623809D01*
X184475297Y-35671428D01*
X184665773Y-35671428D01*
X184761011Y-35623809D01*
X184808630Y-35576190D01*
X184856250Y-35480952D01*
X186761607Y-35957142D02*
X186713988Y-36004761D01*
X186571130Y-36052380D01*
X186475892Y-36052380D01*
X186333035Y-36004761D01*
X186237797Y-35909523D01*
X186190178Y-35814285D01*
X186142559Y-35623809D01*
X186142559Y-35480952D01*
X186190178Y-35290476D01*
X186237797Y-35195238D01*
X186333035Y-35100000D01*
X186475892Y-35052380D01*
X186571130Y-35052380D01*
X186713988Y-35100000D01*
X186761607Y-35147619D01*
X187333035Y-36052380D02*
X187237797Y-36004761D01*
X187190178Y-35957142D01*
X187142559Y-35861904D01*
X187142559Y-35576190D01*
X187190178Y-35480952D01*
X187237797Y-35433333D01*
X187333035Y-35385714D01*
X187475892Y-35385714D01*
X187571130Y-35433333D01*
X187618750Y-35480952D01*
X187666369Y-35576190D01*
X187666369Y-35861904D01*
X187618750Y-35957142D01*
X187571130Y-36004761D01*
X187475892Y-36052380D01*
X187333035Y-36052380D01*
X188237797Y-36052380D02*
X188142559Y-36004761D01*
X188094940Y-35909523D01*
X188094940Y-35052380D01*
X189142559Y-36052380D02*
X188571130Y-36052380D01*
X188856845Y-36052380D02*
X188856845Y-35052380D01*
X188761607Y-35195238D01*
X188666369Y-35290476D01*
X188571130Y-35338095D01*
X189761607Y-35052380D02*
X189856845Y-35052380D01*
X189952083Y-35100000D01*
X189999702Y-35147619D01*
X190047321Y-35242857D01*
X190094940Y-35433333D01*
X190094940Y-35671428D01*
X190047321Y-35861904D01*
X189999702Y-35957142D01*
X189952083Y-36004761D01*
X189856845Y-36052380D01*
X189761607Y-36052380D01*
X189666369Y-36004761D01*
X189618750Y-35957142D01*
X189571130Y-35861904D01*
X189523511Y-35671428D01*
X189523511Y-35433333D01*
X189571130Y-35242857D01*
X189618750Y-35147619D01*
X189666369Y-35100000D01*
X189761607Y-35052380D01*
X191524107Y-35957142D02*
X191476488Y-36004761D01*
X191333630Y-36052380D01*
X191238392Y-36052380D01*
X191095535Y-36004761D01*
X191000297Y-35909523D01*
X190952678Y-35814285D01*
X190905059Y-35623809D01*
X190905059Y-35480952D01*
X190952678Y-35290476D01*
X191000297Y-35195238D01*
X191095535Y-35100000D01*
X191238392Y-35052380D01*
X191333630Y-35052380D01*
X191476488Y-35100000D01*
X191524107Y-35147619D01*
X192095535Y-36052380D02*
X192000297Y-36004761D01*
X191952678Y-35957142D01*
X191905059Y-35861904D01*
X191905059Y-35576190D01*
X191952678Y-35480952D01*
X192000297Y-35433333D01*
X192095535Y-35385714D01*
X192238392Y-35385714D01*
X192333630Y-35433333D01*
X192381250Y-35480952D01*
X192428869Y-35576190D01*
X192428869Y-35861904D01*
X192381250Y-35957142D01*
X192333630Y-36004761D01*
X192238392Y-36052380D01*
X192095535Y-36052380D01*
X193000297Y-36052380D02*
X192905059Y-36004761D01*
X192857440Y-35909523D01*
X192857440Y-35052380D01*
X193905059Y-36052380D02*
X193333630Y-36052380D01*
X193619345Y-36052380D02*
X193619345Y-35052380D01*
X193524107Y-35195238D01*
X193428869Y-35290476D01*
X193333630Y-35338095D01*
X194857440Y-36052380D02*
X194286011Y-36052380D01*
X194571726Y-36052380D02*
X194571726Y-35052380D01*
X194476488Y-35195238D01*
X194381250Y-35290476D01*
X194286011Y-35338095D01*
M02*
