M48
; DRILL file {KiCad (5.1.0)-1} date 8/28/2020 7:37:06 AM
; FORMAT={-:-/ absolute / inch / decimal}
; #@! TF.CreationDate,2020-08-28T07:37:06-04:00
; #@! TF.GenerationSoftware,Kicad,Pcbnew,(5.1.0)-1
FMAT,2
INCH
T1C0.0157
T2C0.0236
T3C0.0276
T4C0.0394
T5C0.0591
T6C0.1260
T7C0.0670
T8C0.1200
T9C0.1570
%
G90
G05
T1
X1.425Y-2.74
X1.49Y-3.35
X1.5Y-4.22
X2.9373Y-1.8927
X3.265Y-1.919
X3.745Y-2.42
X3.755Y-2.73
X3.782Y-1.53
X3.7828Y-1.9068
X3.789Y-1.3855
X3.796Y-2.006
X3.7963Y-1.3367
X3.84Y-1.95
X3.8951Y-1.9449
X3.965Y-1.47
X3.9909Y-1.5465
X4.0Y-1.2531
X4.016Y-2.006
X4.02Y-1.52
X4.025Y-1.605
X4.034Y-1.4265
X4.065Y-1.635
X4.0785Y-1.3115
X4.095Y-1.665
X4.125Y-1.49
X4.145Y-1.3102
X4.155Y-1.455
X4.16Y-1.705
X4.192Y-2.006
X4.2195Y-1.3125
X4.228Y-1.75
X4.246Y-1.426
X4.2963Y-1.6818
X4.4045Y-1.335
X4.475Y-1.61
X4.495Y-2.255
X4.645Y-1.61
X4.81Y-1.73
X4.845Y-1.7
X4.8728Y-1.6722
X4.9056Y-1.6494
X4.935Y-1.855
X4.985Y-1.885
X5.075Y-1.72
X5.08Y-1.885
X5.165Y-1.8334
X5.21Y-1.845
X5.32Y-1.85
X5.425Y-1.275
X5.425Y-1.33
X5.465Y-1.755
X5.72Y-1.785
X5.78Y-1.8
X6.0Y-1.8865
X6.0Y-2.475
X6.005Y-2.03
X6.005Y-3.21
X6.605Y-1.78
X6.745Y-2.435
X6.85Y-1.99
X6.865Y-1.8
X7.065Y-1.885
X7.48Y-1.855
X7.508Y-2.28
X7.51Y-1.725
X7.5938Y-1.9688
X8.0608Y-1.392
X8.08Y-1.885
X8.17Y-1.98
X8.25Y-2.715
X8.6014Y-1.4067
X8.6016Y-1.4589
X8.6349Y-1.4067
X8.6351Y-1.4589
X8.6684Y-1.4067
X8.6686Y-1.4589
X8.7018Y-1.4067
X8.702Y-1.4589
X8.7353Y-1.4067
X8.7355Y-1.4589
X8.7687Y-1.4067
X8.7689Y-1.4589
X8.8022Y-1.4067
X8.8024Y-1.4589
X8.8359Y-1.4067
X8.8359Y-1.4589
T3
X7.7215Y-2.5312
X8.0285Y-2.5312
X3.2215Y-4.0312
X3.5285Y-4.0312
X9.2215Y-2.5312
X9.5285Y-2.5312
X6.2215Y-3.2812
X6.5285Y-3.2812
X3.9715Y-3.2812
X4.2785Y-3.2812
X5.4715Y-4.0312
X5.7785Y-4.0312
X6.2215Y-4.0312
X6.5285Y-4.0312
X4.7215Y-2.5312
X5.0285Y-2.5312
X3.2215Y-2.5312
X3.5285Y-2.5312
X9.2215Y-3.2812
X9.5285Y-3.2812
X7.7215Y-4.7812
X8.0285Y-4.7812
X5.4715Y-2.5312
X5.7785Y-2.5312
X3.9715Y-2.5312
X4.2785Y-2.5312
X8.4715Y-4.0312
X8.7785Y-4.0312
X3.9715Y-4.7812
X4.2785Y-4.7812
X8.4715Y-3.2812
X8.7785Y-3.2812
X2.4715Y-4.7812
X2.7785Y-4.7812
X4.7215Y-3.2812
X5.0285Y-3.2812
X8.4715Y-4.7812
X8.7785Y-4.7812
X0.9589Y-2.5312
X1.266Y-2.5312
X0.9715Y-3.2812
X1.2785Y-3.2812
X1.7215Y-4.0312
X2.0285Y-4.0312
X3.2215Y-3.2812
X3.5285Y-3.2812
X5.0965Y-4.7812
X5.4035Y-4.7812
X1.7215Y-4.7812
X2.0285Y-4.7812
X6.984Y-3.2812
X7.2911Y-3.2812
X9.2215Y-4.0312
X9.5285Y-4.0312
X6.9715Y-4.0312
X7.2785Y-4.0312
X3.2215Y-4.7812
X3.5285Y-4.7812
X6.9715Y-2.5312
X7.2785Y-2.5312
X9.2215Y-4.7812
X9.5285Y-4.7812
X8.4715Y-2.5312
X8.7785Y-2.5312
X2.4715Y-4.0312
X2.7785Y-4.0312
X6.9715Y-4.7812
X7.2785Y-4.7812
X2.4715Y-3.2812
X2.7785Y-3.2812
X3.9715Y-4.0312
X4.2785Y-4.0312
X4.7215Y-4.0312
X5.0285Y-4.0312
X1.7215Y-3.2812
X2.0285Y-3.2812
X2.4715Y-2.5312
X2.7785Y-2.5312
X1.7215Y-2.5312
X2.0285Y-2.5312
X0.9715Y-4.0312
X1.2785Y-4.0312
X6.2215Y-4.7812
X6.5285Y-4.7812
X7.7215Y-4.0312
X8.0285Y-4.0312
X5.4715Y-3.2812
X5.7785Y-3.2812
X0.9715Y-4.7812
X1.2785Y-4.7812
X6.2215Y-2.5312
X6.5285Y-2.5312
X7.7215Y-3.2812
X8.0285Y-3.2812
T4
X1.4062Y-1.4062
X5.9062Y-1.5
X1.0312Y-1.4062
X6.6562Y-1.5
X6.4688Y-1.5
X7.0312Y-1.5
X7.2188Y-1.5
X1.2188Y-1.4062
X7.5938Y-1.5
X6.0938Y-1.5
X6.8438Y-1.5
X5.5312Y-1.5
X0.8438Y-1.4062
X6.2812Y-1.5
X5.7188Y-1.5
X7.4062Y-1.5
T6
X9.75Y-1.875
X9.75Y-3.4688
X0.75Y-4.9688
X5.25Y-3.4688
X0.75Y-1.875
X9.75Y-4.9688
X0.75Y-3.4688
T7
X6.925Y-2.3438
X7.325Y-2.3438
X5.05Y-4.5938
X5.45Y-4.5938
X2.425Y-3.8438
X2.825Y-3.8438
X6.925Y-4.5938
X7.325Y-4.5938
X9.175Y-3.0938
X9.575Y-3.0938
X4.675Y-3.8438
X5.075Y-3.8438
X1.675Y-4.5938
X2.075Y-4.5938
X7.675Y-2.3438
X8.075Y-2.3438
X3.925Y-3.8438
X4.325Y-3.8438
X0.925Y-2.3438
X1.325Y-2.3438
X0.925Y-3.0938
X1.325Y-3.0938
X3.175Y-4.5938
X3.575Y-4.5938
X3.925Y-2.3438
X4.325Y-2.3438
X3.925Y-3.0938
X4.325Y-3.0938
X6.175Y-3.0938
X6.575Y-3.0938
X4.675Y-2.3438
X5.075Y-2.3438
X6.925Y-3.0938
X7.325Y-3.0938
X1.675Y-3.8438
X2.075Y-3.8438
X8.425Y-3.8438
X8.825Y-3.8438
X5.425Y-3.8438
X5.825Y-3.8438
X8.425Y-2.3438
X8.825Y-2.3438
X6.175Y-3.8438
X6.575Y-3.8438
X1.675Y-2.3438
X2.075Y-2.3438
X2.425Y-4.5938
X2.825Y-4.5938
X2.425Y-3.0938
X2.825Y-3.0938
X7.675Y-4.5938
X8.075Y-4.5938
X8.425Y-4.5938
X8.825Y-4.5938
X4.675Y-3.0938
X5.075Y-3.0938
X1.675Y-3.0938
X2.075Y-3.0938
X9.175Y-4.5938
X9.575Y-4.5938
X7.675Y-3.0938
X8.075Y-3.0938
X6.175Y-4.5938
X6.575Y-4.5938
X3.175Y-3.8438
X3.575Y-3.8438
X0.925Y-3.8438
X1.325Y-3.8438
X9.175Y-3.8438
X9.575Y-3.8438
X8.425Y-3.0938
X8.825Y-3.0938
X9.175Y-2.3438
X9.575Y-2.3438
X6.925Y-3.8438
X7.325Y-3.8438
X2.425Y-2.3438
X2.825Y-2.3438
X0.925Y-4.5938
X1.325Y-4.5938
X3.175Y-3.0938
X3.575Y-3.0938
X5.425Y-2.3438
X5.825Y-2.3438
X3.175Y-2.3438
X3.575Y-2.3438
X3.925Y-4.5938
X4.325Y-4.5938
X5.425Y-3.0938
X5.825Y-3.0938
X6.175Y-2.3438
X6.575Y-2.3438
X7.675Y-3.8438
X8.075Y-3.8438
T8
X4.78Y-4.3187
X5.72Y-4.3187
T9
X7.125Y-2.3438
X4.78Y-4.9188
X5.25Y-4.5938
X5.72Y-4.9188
X2.625Y-3.8438
X7.125Y-4.5938
X9.375Y-3.0938
X4.875Y-3.8438
X1.875Y-4.5938
X7.875Y-2.3438
X4.125Y-3.8438
X1.125Y-2.3438
X1.125Y-3.0938
X3.375Y-4.5938
X4.125Y-2.3438
X4.125Y-3.0938
X6.375Y-3.0938
X4.875Y-2.3438
X7.125Y-3.0938
X1.875Y-3.8438
X8.625Y-3.8438
X5.625Y-3.8438
X8.625Y-2.3438
X6.375Y-3.8438
X1.875Y-2.3438
X2.625Y-4.5938
X2.625Y-3.0938
X7.875Y-4.5938
X8.625Y-4.5938
X4.875Y-3.0938
X1.875Y-3.0938
X9.375Y-4.5938
X7.875Y-3.0938
X6.375Y-4.5938
X3.375Y-3.8438
X1.125Y-3.8438
X9.375Y-3.8438
X8.625Y-3.0938
X9.375Y-2.3438
X7.125Y-3.8438
X2.625Y-2.3438
X1.125Y-4.5938
X3.375Y-3.0938
X5.625Y-2.3438
X3.375Y-2.3438
X4.125Y-4.5938
X5.625Y-3.0938
X6.375Y-2.3438
X7.875Y-3.8438
T2
G00X8.5485Y-1.303
M15
G01X8.5485Y-1.2715
M16
G05
G00X8.5485Y-1.4499
M15
G01X8.5485Y-1.3908
M16
G05
G00X8.889Y-1.303
M15
G01X8.889Y-1.2715
M16
G05
G00X8.889Y-1.4499
M15
G01X8.889Y-1.3908
M16
G05
T5
G00X4.0206Y-2.9178
M15
G01X3.9731Y-2.9925
M16
G05
G00X4.225Y-2.8938
M15
G01X4.2234Y-2.9166
M16
G05
G00X6.2706Y-2.9178
M15
G01X6.2231Y-2.9925
M16
G05
G00X6.475Y-2.8938
M15
G01X6.4734Y-2.9166
M16
G05
G00X4.7706Y-2.1678
M15
G01X4.7231Y-2.2425
M16
G05
G00X4.975Y-2.1438
M15
G01X4.9734Y-2.1666
M16
G05
G00X7.0206Y-2.9178
M15
G01X6.9731Y-2.9925
M16
G05
G00X7.225Y-2.8938
M15
G01X7.2234Y-2.9166
M16
G05
G00X1.7706Y-3.6678
M15
G01X1.7231Y-3.7425
M16
G05
G00X1.975Y-3.6438
M15
G01X1.9734Y-3.6666
M16
G05
G00X8.5206Y-3.6678
M15
G01X8.4731Y-3.7425
M16
G05
G00X8.725Y-3.6438
M15
G01X8.7234Y-3.6666
M16
G05
G00X5.5206Y-3.6678
M15
G01X5.4731Y-3.7425
M16
G05
G00X5.725Y-3.6438
M15
G01X5.7234Y-3.6666
M16
G05
G00X8.5206Y-2.1678
M15
G01X8.4731Y-2.2425
M16
G05
G00X8.725Y-2.1438
M15
G01X8.7234Y-2.1666
M16
G05
G00X6.2706Y-3.6678
M15
G01X6.2231Y-3.7425
M16
G05
G00X6.475Y-3.6438
M15
G01X6.4734Y-3.6666
M16
G05
G00X1.7706Y-2.1678
M15
G01X1.7231Y-2.2425
M16
G05
G00X1.975Y-2.1438
M15
G01X1.9734Y-2.1666
M16
G05
G00X2.5206Y-4.4178
M15
G01X2.4731Y-4.4925
M16
G05
G00X2.725Y-4.3938
M15
G01X2.7234Y-4.4166
M16
G05
G00X2.5206Y-2.9178
M15
G01X2.4731Y-2.9925
M16
G05
G00X2.725Y-2.8938
M15
G01X2.7234Y-2.9166
M16
G05
G00X7.7706Y-4.4178
M15
G01X7.7231Y-4.4925
M16
G05
G00X7.975Y-4.3938
M15
G01X7.9734Y-4.4166
M16
G05
G00X8.5206Y-4.4178
M15
G01X8.4731Y-4.4925
M16
G05
G00X8.725Y-4.3938
M15
G01X8.7234Y-4.4166
M16
G05
G00X4.7706Y-2.9178
M15
G01X4.7231Y-2.9925
M16
G05
G00X4.975Y-2.8938
M15
G01X4.9734Y-2.9166
M16
G05
G00X1.7706Y-2.9178
M15
G01X1.7231Y-2.9925
M16
G05
G00X1.975Y-2.8938
M15
G01X1.9734Y-2.9166
M16
G05
G00X9.2706Y-4.4178
M15
G01X9.2231Y-4.4925
M16
G05
G00X9.475Y-4.3938
M15
G01X9.4734Y-4.4166
M16
G05
G00X7.7706Y-2.9178
M15
G01X7.7231Y-2.9925
M16
G05
G00X7.975Y-2.8938
M15
G01X7.9734Y-2.9166
M16
G05
G00X6.2706Y-4.4178
M15
G01X6.2231Y-4.4925
M16
G05
G00X6.475Y-4.3938
M15
G01X6.4734Y-4.4166
M16
G05
G00X3.2706Y-3.6678
M15
G01X3.2231Y-3.7425
M16
G05
G00X3.475Y-3.6438
M15
G01X3.4734Y-3.6666
M16
G05
G00X1.0206Y-3.6678
M15
G01X0.9731Y-3.7425
M16
G05
G00X1.225Y-3.6438
M15
G01X1.2234Y-3.6666
M16
G05
G00X9.2706Y-3.6678
M15
G01X9.2231Y-3.7425
M16
G05
G00X9.475Y-3.6438
M15
G01X9.4734Y-3.6666
M16
G05
G00X8.5206Y-2.9178
M15
G01X8.4731Y-2.9925
M16
G05
G00X8.725Y-2.8938
M15
G01X8.7234Y-2.9166
M16
G05
G00X9.2706Y-2.1678
M15
G01X9.2231Y-2.2425
M16
G05
G00X9.475Y-2.1438
M15
G01X9.4734Y-2.1666
M16
G05
G00X7.0206Y-3.6678
M15
G01X6.9731Y-3.7425
M16
G05
G00X7.225Y-3.6438
M15
G01X7.2234Y-3.6666
M16
G05
G00X2.5206Y-2.1678
M15
G01X2.4731Y-2.2425
M16
G05
G00X2.725Y-2.1438
M15
G01X2.7234Y-2.1666
M16
G05
G00X1.0206Y-4.4178
M15
G01X0.9731Y-4.4925
M16
G05
G00X1.225Y-4.3938
M15
G01X1.2234Y-4.4166
M16
G05
G00X3.2706Y-2.9178
M15
G01X3.2231Y-2.9925
M16
G05
G00X3.475Y-2.8938
M15
G01X3.4734Y-2.9166
M16
G05
G00X5.5206Y-2.1678
M15
G01X5.4731Y-2.2425
M16
G05
G00X5.725Y-2.1438
M15
G01X5.7234Y-2.1666
M16
G05
G00X3.2706Y-2.1678
M15
G01X3.2231Y-2.2425
M16
G05
G00X3.475Y-2.1438
M15
G01X3.4734Y-2.1666
M16
G05
G00X4.0206Y-4.4178
M15
G01X3.9731Y-4.4925
M16
G05
G00X4.225Y-4.3938
M15
G01X4.2234Y-4.4166
M16
G05
G00X5.5206Y-2.9178
M15
G01X5.4731Y-2.9925
M16
G05
G00X5.725Y-2.8938
M15
G01X5.7234Y-2.9166
M16
G05
G00X6.2706Y-2.1678
M15
G01X6.2231Y-2.2425
M16
G05
G00X6.475Y-2.1438
M15
G01X6.4734Y-2.1666
M16
G05
G00X7.7706Y-3.6678
M15
G01X7.7231Y-3.7425
M16
G05
G00X7.975Y-3.6438
M15
G01X7.9734Y-3.6666
M16
G05
G00X7.0206Y-2.1678
M15
G01X6.9731Y-2.2425
M16
G05
G00X7.225Y-2.1438
M15
G01X7.2234Y-2.1666
M16
G05
G00X5.1456Y-4.4178
M15
G01X5.0981Y-4.4925
M16
G05
G00X5.35Y-4.3938
M15
G01X5.3484Y-4.4166
M16
G05
G00X2.5206Y-3.6678
M15
G01X2.4731Y-3.7425
M16
G05
G00X2.725Y-3.6438
M15
G01X2.7234Y-3.6666
M16
G05
G00X7.0206Y-4.4178
M15
G01X6.9731Y-4.4925
M16
G05
G00X7.225Y-4.3938
M15
G01X7.2234Y-4.4166
M16
G05
G00X9.2706Y-2.9178
M15
G01X9.2231Y-2.9925
M16
G05
G00X9.475Y-2.8938
M15
G01X9.4734Y-2.9166
M16
G05
G00X4.7706Y-3.6678
M15
G01X4.7231Y-3.7425
M16
G05
G00X4.975Y-3.6438
M15
G01X4.9734Y-3.6666
M16
G05
G00X1.7706Y-4.4178
M15
G01X1.7231Y-4.4925
M16
G05
G00X1.975Y-4.3938
M15
G01X1.9734Y-4.4166
M16
G05
G00X7.7706Y-2.1678
M15
G01X7.7231Y-2.2425
M16
G05
G00X7.975Y-2.1438
M15
G01X7.9734Y-2.1666
M16
G05
G00X4.0206Y-3.6678
M15
G01X3.9731Y-3.7425
M16
G05
G00X4.225Y-3.6438
M15
G01X4.2234Y-3.6666
M16
G05
G00X1.0206Y-2.1678
M15
G01X0.9731Y-2.2425
M16
G05
G00X1.225Y-2.1438
M15
G01X1.2234Y-2.1666
M16
G05
G00X1.0206Y-2.9178
M15
G01X0.9731Y-2.9925
M16
G05
G00X1.225Y-2.8938
M15
G01X1.2234Y-2.9166
M16
G05
G00X3.2706Y-4.4178
M15
G01X3.2231Y-4.4925
M16
G05
G00X3.475Y-4.3938
M15
G01X3.4734Y-4.4166
M16
G05
G00X4.0206Y-2.1678
M15
G01X3.9731Y-2.2425
M16
G05
G00X4.225Y-2.1438
M15
G01X4.2234Y-2.1666
M16
G05
T0
M30
