M48
; DRILL file {KiCad (5.1.0)-1} date 10/10/2020 6:43:06 PM
; FORMAT={-:-/ absolute / inch / decimal}
; #@! TF.CreationDate,2020-10-10T18:43:06-04:00
; #@! TF.GenerationSoftware,Kicad,Pcbnew,(5.1.0)-1
; #@! TF.FileFunction,NonPlated,1,2,NPTH
FMAT,2
INCH
T1C0.0670
T2C0.0866
T3C0.1181
T4C0.1350
%
G90
G05
T1
X2.7236Y-4.3627
X3.9126Y-4.9572
X2.7236Y-3.7682
X2.885Y-4.3627
X3.3181Y-4.3627
X2.885Y-3.7682
X3.3181Y-3.7682
X2.2906Y-4.3627
X2.885Y-4.9572
X3.3181Y-4.9572
X2.2906Y-4.9572
X2.7236Y-4.9572
X3.4795Y-4.9572
X3.4795Y-4.3627
X3.9126Y-4.3627
X2.2906Y-3.7682
X3.4795Y-3.7682
X3.9126Y-3.7682
T2
X2.2244Y-5.2126
X4.0394Y-5.2126
X4.0394Y-2.7126
X2.2244Y-2.7126
T3
X2.5071Y-4.1284
X2.7039Y-4.215
X3.1016Y-4.7229
X3.2984Y-4.8095
X2.5071Y-4.7229
X2.7039Y-4.8095
X3.6961Y-4.7229
X3.8929Y-4.8095
X3.6961Y-4.1284
X3.8929Y-4.215
X2.5071Y-3.5339
X2.7039Y-3.6206
X3.6961Y-3.5339
X3.8929Y-3.6206
X3.1016Y-4.1284
X3.2984Y-4.215
X3.1016Y-3.5339
X3.2984Y-3.6206
T4
X2.5071Y-4.9572
X3.6961Y-4.3627
X3.6961Y-3.7682
X3.1016Y-4.3627
X3.1016Y-3.7682
X2.5071Y-4.3627
X3.1016Y-4.9572
X3.6961Y-4.9572
X2.5071Y-3.7682
T0
M30
