G04 #@! TF.GenerationSoftware,KiCad,Pcbnew,(5.1.0)-1*
G04 #@! TF.CreationDate,2020-10-10T18:43:04-04:00*
G04 #@! TF.ProjectId,switch_tester,73776974-6368-45f7-9465-737465722e6b,rev?*
G04 #@! TF.SameCoordinates,Original*
G04 #@! TF.FileFunction,Copper,L1,Top*
G04 #@! TF.FilePolarity,Positive*
%FSLAX46Y46*%
G04 Gerber Fmt 4.6, Leading zero omitted, Abs format (unit mm)*
G04 Created by KiCad (PCBNEW (5.1.0)-1) date 2020-10-10 18:43:04*
%MOMM*%
%LPD*%
G04 APERTURE LIST*
%ADD10C,1.800000*%
%ADD11R,1.800000X1.800000*%
%ADD12O,1.600000X1.600000*%
%ADD13C,1.600000*%
%ADD14C,0.650000*%
%ADD15O,0.900000X2.400000*%
%ADD16O,0.900000X1.700000*%
%ADD17R,1.600000X1.600000*%
%ADD18C,2.032000*%
%ADD19C,0.800000*%
%ADD20C,0.250000*%
%ADD21C,0.254000*%
G04 APERTURE END LIST*
D10*
X97160000Y-70880000D03*
D11*
X99700000Y-70880000D03*
D12*
X56280000Y-75940000D03*
D13*
X63900000Y-75940000D03*
D12*
X73620000Y-75940000D03*
D13*
X66000000Y-75940000D03*
D14*
X77675000Y-73900000D03*
X79375000Y-73900000D03*
X78525000Y-73900000D03*
X76825000Y-73900000D03*
X75975000Y-73900000D03*
X75125000Y-73900000D03*
X74275000Y-73900000D03*
X73425000Y-73900000D03*
X79375000Y-72575000D03*
X78520000Y-72575000D03*
X77670000Y-72575000D03*
X76820000Y-72575000D03*
X75970000Y-72575000D03*
X75120000Y-72575000D03*
X74270000Y-72575000D03*
X73420000Y-72575000D03*
D15*
X80725000Y-72920000D03*
X72075000Y-72920000D03*
D16*
X80725000Y-69540000D03*
X72075000Y-69540000D03*
D10*
X97160000Y-83880000D03*
D11*
X99700000Y-83880000D03*
D12*
X60480000Y-70990000D03*
D17*
X68100000Y-70990000D03*
D12*
X80700000Y-78550000D03*
D13*
X80700000Y-86170000D03*
D12*
X77700000Y-78550000D03*
D13*
X77700000Y-86170000D03*
D12*
X74700000Y-78550000D03*
D13*
X74700000Y-86170000D03*
D12*
X71700000Y-78550000D03*
D13*
X71700000Y-86170000D03*
D12*
X68700000Y-78550000D03*
D13*
X68700000Y-86170000D03*
D12*
X65700000Y-78550000D03*
D13*
X65700000Y-86170000D03*
D12*
X62700000Y-78550000D03*
D13*
X62700000Y-86170000D03*
D12*
X59700000Y-78550000D03*
D13*
X59700000Y-86170000D03*
D12*
X56700000Y-78550000D03*
D13*
X56700000Y-86170000D03*
D18*
X88880000Y-129712000D03*
X93880000Y-131812000D03*
X88880000Y-114612000D03*
X93880000Y-116712000D03*
X88880000Y-99512000D03*
X93880000Y-101612000D03*
X73780000Y-129712000D03*
X78780000Y-131812000D03*
X73780000Y-114612000D03*
X78780000Y-116712000D03*
X73780000Y-99512000D03*
X78780000Y-101612000D03*
X58680000Y-129712000D03*
X63680000Y-131812000D03*
X58680000Y-114612000D03*
X63680000Y-116712000D03*
X58680000Y-99512000D03*
X63680000Y-101612000D03*
D10*
X97160000Y-77380000D03*
D11*
X99700000Y-77380000D03*
D10*
X90660000Y-83880000D03*
D11*
X93200000Y-83880000D03*
D10*
X90660000Y-77380000D03*
D11*
X93200000Y-77380000D03*
D10*
X90660000Y-70880000D03*
D11*
X93200000Y-70880000D03*
D10*
X84160000Y-83880000D03*
D11*
X86700000Y-83880000D03*
D10*
X84160000Y-77380000D03*
D11*
X86700000Y-77380000D03*
D10*
X84160000Y-70880000D03*
D11*
X86700000Y-70880000D03*
D19*
X88800000Y-82540000D03*
X88800000Y-81539997D03*
X97195000Y-80445000D03*
X95100000Y-75390000D03*
D20*
X56700000Y-78550000D02*
X62670000Y-84520000D01*
X85059999Y-71779999D02*
X84160000Y-70880000D01*
X85385001Y-72105001D02*
X85059999Y-71779999D01*
X85385001Y-84468001D02*
X85385001Y-72105001D01*
X84748001Y-85105001D02*
X85385001Y-84468001D01*
X83571999Y-85105001D02*
X84748001Y-85105001D01*
X82986998Y-84520000D02*
X83571999Y-85105001D01*
X62670000Y-84520000D02*
X82986998Y-84520000D01*
X63240001Y-77424999D02*
X64300000Y-78484998D01*
X59700000Y-78550000D02*
X60825001Y-77424999D01*
X60825001Y-77424999D02*
X63240001Y-77424999D01*
X64300000Y-78815002D02*
X66594998Y-81110000D01*
X64300000Y-78484998D02*
X64300000Y-78815002D01*
X80430000Y-81110000D02*
X84160000Y-77380000D01*
X66594998Y-81110000D02*
X80430000Y-81110000D01*
X62700000Y-78550000D02*
X66140000Y-81990000D01*
X82270000Y-81990000D02*
X84160000Y-83880000D01*
X66140000Y-81990000D02*
X82270000Y-81990000D01*
X91559999Y-71779999D02*
X90660000Y-70880000D01*
X91885001Y-72105001D02*
X91559999Y-71779999D01*
X91885001Y-80020684D02*
X91885001Y-72105001D01*
X89365685Y-82540000D02*
X91885001Y-80020684D01*
X88800000Y-82540000D02*
X89365685Y-82540000D01*
X90660000Y-79679997D02*
X90660000Y-77380000D01*
X88800000Y-81539997D02*
X90660000Y-79679997D01*
X97160000Y-70880000D02*
X98385001Y-72105001D01*
X98385001Y-72105001D02*
X98385001Y-79254999D01*
X98385001Y-79254999D02*
X97195000Y-80445000D01*
X96260001Y-82980001D02*
X97160000Y-83880000D01*
X95499999Y-82219999D02*
X96260001Y-82980001D01*
X95499999Y-75789999D02*
X95499999Y-82219999D01*
X95100000Y-75390000D02*
X95499999Y-75789999D01*
X57664001Y-98496001D02*
X58680000Y-99512000D01*
X55900001Y-96732001D02*
X57664001Y-98496001D01*
X55900001Y-86969999D02*
X55900001Y-96732001D01*
X56700000Y-86170000D02*
X55900001Y-86969999D01*
X59695999Y-113596001D02*
X58680000Y-114612000D01*
X60499999Y-112792001D02*
X59695999Y-113596001D01*
X60499999Y-86969999D02*
X60499999Y-112792001D01*
X59700000Y-86170000D02*
X60499999Y-86969999D01*
X59695999Y-128696001D02*
X58680000Y-129712000D01*
X61640499Y-126751501D02*
X59695999Y-128696001D01*
X61640499Y-87229501D02*
X61640499Y-126751501D01*
X62700000Y-86170000D02*
X61640499Y-87229501D01*
X72343160Y-99512000D02*
X73780000Y-99512000D01*
X71239666Y-99512000D02*
X72343160Y-99512000D01*
X65700000Y-93972334D02*
X71239666Y-99512000D01*
X65700000Y-86170000D02*
X65700000Y-93972334D01*
X74795999Y-113596001D02*
X73780000Y-114612000D01*
X75121001Y-113270999D02*
X74795999Y-113596001D01*
X75121001Y-95071463D02*
X75121001Y-113270999D01*
X68700000Y-88650462D02*
X75121001Y-95071463D01*
X68700000Y-86170000D02*
X68700000Y-88650462D01*
X74795999Y-128696001D02*
X73780000Y-129712000D01*
X76740499Y-126751501D02*
X74795999Y-128696001D01*
X71700000Y-90659002D02*
X76740499Y-95699501D01*
X71700000Y-86170000D02*
X71700000Y-90659002D01*
X76740499Y-95699501D02*
X76740499Y-126751501D01*
X87443160Y-99512000D02*
X88880000Y-99512000D01*
X85828998Y-99512000D02*
X87443160Y-99512000D01*
X74700000Y-88383002D02*
X85828998Y-99512000D01*
X74700000Y-86170000D02*
X74700000Y-88383002D01*
X89895999Y-113596001D02*
X88880000Y-114612000D01*
X90221001Y-113270999D02*
X89895999Y-113596001D01*
X90221001Y-95701999D02*
X90221001Y-113270999D01*
X82456001Y-87936999D02*
X90221001Y-95701999D01*
X79466999Y-87936999D02*
X82456001Y-87936999D01*
X77700000Y-86170000D02*
X79466999Y-87936999D01*
X89895999Y-128696001D02*
X88880000Y-129712000D01*
X90671011Y-127920989D02*
X89895999Y-128696001D01*
X90671011Y-95451011D02*
X90671011Y-127920989D01*
X82189999Y-86969999D02*
X90671011Y-95451011D01*
X81499999Y-86969999D02*
X82189999Y-86969999D01*
X80700000Y-86170000D02*
X81499999Y-86969999D01*
X77675000Y-74359619D02*
X77675000Y-73900000D01*
X76094619Y-75940000D02*
X77675000Y-74359619D01*
X73620000Y-75940000D02*
X76094619Y-75940000D01*
X57405001Y-74814999D02*
X57079999Y-75140001D01*
X57079999Y-75140001D02*
X56280000Y-75940000D01*
X67030003Y-74814999D02*
X57405001Y-74814999D01*
X70450012Y-71394990D02*
X67030003Y-74814999D01*
X74051992Y-71394990D02*
X70450012Y-71394990D01*
X75120000Y-72462998D02*
X74051992Y-71394990D01*
X75120000Y-72575000D02*
X75120000Y-72462998D01*
D21*
G36*
X71243413Y-68431609D02*
G01*
X71121191Y-68607455D01*
X71035624Y-68803767D01*
X70990000Y-69013000D01*
X70990000Y-69413000D01*
X71948000Y-69413000D01*
X71948000Y-69393000D01*
X72202000Y-69393000D01*
X72202000Y-69413000D01*
X73160000Y-69413000D01*
X73160000Y-69013000D01*
X73114376Y-68803767D01*
X73028809Y-68607455D01*
X72906587Y-68431609D01*
X72832301Y-68360000D01*
X79967699Y-68360000D01*
X79893413Y-68431609D01*
X79771191Y-68607455D01*
X79685624Y-68803767D01*
X79640000Y-69013000D01*
X79640000Y-69413000D01*
X80598000Y-69413000D01*
X80598000Y-69393000D01*
X80852000Y-69393000D01*
X80852000Y-69413000D01*
X81810000Y-69413000D01*
X81810000Y-69013000D01*
X81764376Y-68803767D01*
X81678809Y-68607455D01*
X81556587Y-68431609D01*
X81482301Y-68360000D01*
X100945725Y-68360000D01*
X100931675Y-68393919D01*
X100865000Y-68729117D01*
X100865000Y-69070883D01*
X100931675Y-69406081D01*
X100948265Y-69446134D01*
X100844180Y-69390498D01*
X100724482Y-69354188D01*
X100600000Y-69341928D01*
X99985750Y-69345000D01*
X99827000Y-69503750D01*
X99827000Y-70753000D01*
X101076250Y-70753000D01*
X101235000Y-70594250D01*
X101238049Y-69984614D01*
X101252337Y-70005998D01*
X101494002Y-70247663D01*
X101778169Y-70437537D01*
X102093919Y-70568325D01*
X102429117Y-70635000D01*
X102770883Y-70635000D01*
X103106081Y-70568325D01*
X103140000Y-70554275D01*
X103140001Y-130745725D01*
X103106081Y-130731675D01*
X102770883Y-130665000D01*
X102429117Y-130665000D01*
X102093919Y-130731675D01*
X101778169Y-130862463D01*
X101494002Y-131052337D01*
X101252337Y-131294002D01*
X101062463Y-131578169D01*
X100931675Y-131893919D01*
X100865000Y-132229117D01*
X100865000Y-132570883D01*
X100931675Y-132906081D01*
X100945725Y-132940000D01*
X95086866Y-132940000D01*
X95162415Y-132864451D01*
X95343097Y-132594042D01*
X95467553Y-132293579D01*
X95531000Y-131974609D01*
X95531000Y-131649391D01*
X95467553Y-131330421D01*
X95343097Y-131029958D01*
X95162415Y-130759549D01*
X94932451Y-130529585D01*
X94662042Y-130348903D01*
X94361579Y-130224447D01*
X94042609Y-130161000D01*
X93717391Y-130161000D01*
X93398421Y-130224447D01*
X93097958Y-130348903D01*
X92827549Y-130529585D01*
X92597585Y-130759549D01*
X92416903Y-131029958D01*
X92292447Y-131330421D01*
X92229000Y-131649391D01*
X92229000Y-131974609D01*
X92292447Y-132293579D01*
X92416903Y-132594042D01*
X92597585Y-132864451D01*
X92673134Y-132940000D01*
X79986866Y-132940000D01*
X80062415Y-132864451D01*
X80243097Y-132594042D01*
X80367553Y-132293579D01*
X80431000Y-131974609D01*
X80431000Y-131649391D01*
X80367553Y-131330421D01*
X80243097Y-131029958D01*
X80062415Y-130759549D01*
X79832451Y-130529585D01*
X79562042Y-130348903D01*
X79261579Y-130224447D01*
X78942609Y-130161000D01*
X78617391Y-130161000D01*
X78298421Y-130224447D01*
X77997958Y-130348903D01*
X77727549Y-130529585D01*
X77497585Y-130759549D01*
X77316903Y-131029958D01*
X77192447Y-131330421D01*
X77129000Y-131649391D01*
X77129000Y-131974609D01*
X77192447Y-132293579D01*
X77316903Y-132594042D01*
X77497585Y-132864451D01*
X77573134Y-132940000D01*
X64886866Y-132940000D01*
X64962415Y-132864451D01*
X65143097Y-132594042D01*
X65267553Y-132293579D01*
X65331000Y-131974609D01*
X65331000Y-131649391D01*
X65267553Y-131330421D01*
X65143097Y-131029958D01*
X64962415Y-130759549D01*
X64732451Y-130529585D01*
X64462042Y-130348903D01*
X64161579Y-130224447D01*
X63842609Y-130161000D01*
X63517391Y-130161000D01*
X63198421Y-130224447D01*
X62897958Y-130348903D01*
X62627549Y-130529585D01*
X62397585Y-130759549D01*
X62216903Y-131029958D01*
X62092447Y-131330421D01*
X62029000Y-131649391D01*
X62029000Y-131974609D01*
X62092447Y-132293579D01*
X62216903Y-132594042D01*
X62397585Y-132864451D01*
X62473134Y-132940000D01*
X58154275Y-132940000D01*
X58168325Y-132906081D01*
X58235000Y-132570883D01*
X58235000Y-132229117D01*
X58168325Y-131893919D01*
X58037537Y-131578169D01*
X57847663Y-131294002D01*
X57605998Y-131052337D01*
X57321831Y-130862463D01*
X57006081Y-130731675D01*
X56670883Y-130665000D01*
X56329117Y-130665000D01*
X55993919Y-130731675D01*
X55960000Y-130745725D01*
X55960000Y-125765652D01*
X56694100Y-125765652D01*
X56694100Y-126058348D01*
X56751202Y-126345421D01*
X56863212Y-126615838D01*
X57025826Y-126859206D01*
X57232794Y-127066174D01*
X57476162Y-127228788D01*
X57746579Y-127340798D01*
X58033652Y-127397900D01*
X58326348Y-127397900D01*
X58613421Y-127340798D01*
X58883838Y-127228788D01*
X59127206Y-127066174D01*
X59334174Y-126859206D01*
X59496788Y-126615838D01*
X59608798Y-126345421D01*
X59665900Y-126058348D01*
X59665900Y-125765652D01*
X59608798Y-125478579D01*
X59496788Y-125208162D01*
X59334174Y-124964794D01*
X59127206Y-124757826D01*
X58883838Y-124595212D01*
X58613421Y-124483202D01*
X58326348Y-124426100D01*
X58033652Y-124426100D01*
X57746579Y-124483202D01*
X57476162Y-124595212D01*
X57232794Y-124757826D01*
X57025826Y-124964794D01*
X56863212Y-125208162D01*
X56751202Y-125478579D01*
X56694100Y-125765652D01*
X55960000Y-125765652D01*
X55960000Y-110665652D01*
X56694100Y-110665652D01*
X56694100Y-110958348D01*
X56751202Y-111245421D01*
X56863212Y-111515838D01*
X57025826Y-111759206D01*
X57232794Y-111966174D01*
X57476162Y-112128788D01*
X57746579Y-112240798D01*
X58033652Y-112297900D01*
X58326348Y-112297900D01*
X58613421Y-112240798D01*
X58883838Y-112128788D01*
X59127206Y-111966174D01*
X59334174Y-111759206D01*
X59496788Y-111515838D01*
X59608798Y-111245421D01*
X59665900Y-110958348D01*
X59665900Y-110665652D01*
X59608798Y-110378579D01*
X59496788Y-110108162D01*
X59334174Y-109864794D01*
X59127206Y-109657826D01*
X58883838Y-109495212D01*
X58613421Y-109383202D01*
X58326348Y-109326100D01*
X58033652Y-109326100D01*
X57746579Y-109383202D01*
X57476162Y-109495212D01*
X57232794Y-109657826D01*
X57025826Y-109864794D01*
X56863212Y-110108162D01*
X56751202Y-110378579D01*
X56694100Y-110665652D01*
X55960000Y-110665652D01*
X55960000Y-97866801D01*
X57101577Y-99008379D01*
X57092447Y-99030421D01*
X57029000Y-99349391D01*
X57029000Y-99674609D01*
X57092447Y-99993579D01*
X57216903Y-100294042D01*
X57397585Y-100564451D01*
X57627549Y-100794415D01*
X57897958Y-100975097D01*
X58198421Y-101099553D01*
X58517391Y-101163000D01*
X58842609Y-101163000D01*
X59161579Y-101099553D01*
X59462042Y-100975097D01*
X59732451Y-100794415D01*
X59740000Y-100786866D01*
X59740000Y-112477198D01*
X59185001Y-113032198D01*
X59184996Y-113032202D01*
X59183621Y-113033577D01*
X59161579Y-113024447D01*
X58842609Y-112961000D01*
X58517391Y-112961000D01*
X58198421Y-113024447D01*
X57897958Y-113148903D01*
X57627549Y-113329585D01*
X57397585Y-113559549D01*
X57216903Y-113829958D01*
X57092447Y-114130421D01*
X57029000Y-114449391D01*
X57029000Y-114774609D01*
X57092447Y-115093579D01*
X57216903Y-115394042D01*
X57397585Y-115664451D01*
X57627549Y-115894415D01*
X57897958Y-116075097D01*
X58198421Y-116199553D01*
X58517391Y-116263000D01*
X58842609Y-116263000D01*
X59161579Y-116199553D01*
X59462042Y-116075097D01*
X59732451Y-115894415D01*
X59962415Y-115664451D01*
X60143097Y-115394042D01*
X60267553Y-115093579D01*
X60331000Y-114774609D01*
X60331000Y-114449391D01*
X60267553Y-114130421D01*
X60258423Y-114108379D01*
X60259798Y-114107004D01*
X60259802Y-114106999D01*
X60880500Y-113486302D01*
X60880500Y-126436698D01*
X59185001Y-128132198D01*
X59184996Y-128132202D01*
X59183621Y-128133577D01*
X59161579Y-128124447D01*
X58842609Y-128061000D01*
X58517391Y-128061000D01*
X58198421Y-128124447D01*
X57897958Y-128248903D01*
X57627549Y-128429585D01*
X57397585Y-128659549D01*
X57216903Y-128929958D01*
X57092447Y-129230421D01*
X57029000Y-129549391D01*
X57029000Y-129874609D01*
X57092447Y-130193579D01*
X57216903Y-130494042D01*
X57397585Y-130764451D01*
X57627549Y-130994415D01*
X57897958Y-131175097D01*
X58198421Y-131299553D01*
X58517391Y-131363000D01*
X58842609Y-131363000D01*
X59161579Y-131299553D01*
X59462042Y-131175097D01*
X59732451Y-130994415D01*
X59962415Y-130764451D01*
X60143097Y-130494042D01*
X60267553Y-130193579D01*
X60331000Y-129874609D01*
X60331000Y-129549391D01*
X60267553Y-129230421D01*
X60258423Y-129208379D01*
X60259798Y-129207004D01*
X60259802Y-129206999D01*
X61956053Y-127510748D01*
X62182281Y-127736976D01*
X62567095Y-127994100D01*
X62994676Y-128171210D01*
X63448594Y-128261500D01*
X63911406Y-128261500D01*
X64365324Y-128171210D01*
X64792905Y-127994100D01*
X65177719Y-127736976D01*
X65504976Y-127409719D01*
X65762100Y-127024905D01*
X65939210Y-126597324D01*
X66029500Y-126143406D01*
X66029500Y-125765652D01*
X67694100Y-125765652D01*
X67694100Y-126058348D01*
X67751202Y-126345421D01*
X67863212Y-126615838D01*
X68025826Y-126859206D01*
X68232794Y-127066174D01*
X68476162Y-127228788D01*
X68746579Y-127340798D01*
X69033652Y-127397900D01*
X69326348Y-127397900D01*
X69613421Y-127340798D01*
X69883838Y-127228788D01*
X70127206Y-127066174D01*
X70334174Y-126859206D01*
X70496788Y-126615838D01*
X70608798Y-126345421D01*
X70665900Y-126058348D01*
X70665900Y-125765652D01*
X71794100Y-125765652D01*
X71794100Y-126058348D01*
X71851202Y-126345421D01*
X71963212Y-126615838D01*
X72125826Y-126859206D01*
X72332794Y-127066174D01*
X72576162Y-127228788D01*
X72846579Y-127340798D01*
X73133652Y-127397900D01*
X73426348Y-127397900D01*
X73713421Y-127340798D01*
X73983838Y-127228788D01*
X74227206Y-127066174D01*
X74434174Y-126859206D01*
X74596788Y-126615838D01*
X74708798Y-126345421D01*
X74765900Y-126058348D01*
X74765900Y-125765652D01*
X74708798Y-125478579D01*
X74596788Y-125208162D01*
X74434174Y-124964794D01*
X74227206Y-124757826D01*
X73983838Y-124595212D01*
X73713421Y-124483202D01*
X73426348Y-124426100D01*
X73133652Y-124426100D01*
X72846579Y-124483202D01*
X72576162Y-124595212D01*
X72332794Y-124757826D01*
X72125826Y-124964794D01*
X71963212Y-125208162D01*
X71851202Y-125478579D01*
X71794100Y-125765652D01*
X70665900Y-125765652D01*
X70608798Y-125478579D01*
X70496788Y-125208162D01*
X70334174Y-124964794D01*
X70127206Y-124757826D01*
X69883838Y-124595212D01*
X69613421Y-124483202D01*
X69326348Y-124426100D01*
X69033652Y-124426100D01*
X68746579Y-124483202D01*
X68476162Y-124595212D01*
X68232794Y-124757826D01*
X68025826Y-124964794D01*
X67863212Y-125208162D01*
X67751202Y-125478579D01*
X67694100Y-125765652D01*
X66029500Y-125765652D01*
X66029500Y-125680594D01*
X65939210Y-125226676D01*
X65762100Y-124799095D01*
X65504976Y-124414281D01*
X65177719Y-124087024D01*
X64792905Y-123829900D01*
X64365324Y-123652790D01*
X63911406Y-123562500D01*
X63448594Y-123562500D01*
X62994676Y-123652790D01*
X62567095Y-123829900D01*
X62400499Y-123941216D01*
X62400499Y-121674807D01*
X62668698Y-121854012D01*
X63057244Y-122014953D01*
X63469721Y-122097000D01*
X63890279Y-122097000D01*
X64302756Y-122014953D01*
X64455411Y-121951721D01*
X66545000Y-121951721D01*
X66545000Y-122372279D01*
X66627047Y-122784756D01*
X66787988Y-123173302D01*
X67021637Y-123522983D01*
X67319017Y-123820363D01*
X67668698Y-124054012D01*
X68057244Y-124214953D01*
X68469721Y-124297000D01*
X68890279Y-124297000D01*
X69302756Y-124214953D01*
X69691302Y-124054012D01*
X70040983Y-123820363D01*
X70338363Y-123522983D01*
X70572012Y-123173302D01*
X70732953Y-122784756D01*
X70815000Y-122372279D01*
X70815000Y-121951721D01*
X70732953Y-121539244D01*
X70572012Y-121150698D01*
X70338363Y-120801017D01*
X70040983Y-120503637D01*
X69691302Y-120269988D01*
X69302756Y-120109047D01*
X68890279Y-120027000D01*
X68469721Y-120027000D01*
X68057244Y-120109047D01*
X67668698Y-120269988D01*
X67319017Y-120503637D01*
X67021637Y-120801017D01*
X66787988Y-121150698D01*
X66627047Y-121539244D01*
X66545000Y-121951721D01*
X64455411Y-121951721D01*
X64691302Y-121854012D01*
X65040983Y-121620363D01*
X65338363Y-121322983D01*
X65572012Y-120973302D01*
X65732953Y-120584756D01*
X65815000Y-120172279D01*
X65815000Y-119751721D01*
X65732953Y-119339244D01*
X65572012Y-118950698D01*
X65338363Y-118601017D01*
X65040983Y-118303637D01*
X64691302Y-118069988D01*
X64646884Y-118051589D01*
X64732451Y-117994415D01*
X64962415Y-117764451D01*
X65143097Y-117494042D01*
X65267553Y-117193579D01*
X65331000Y-116874609D01*
X65331000Y-116549391D01*
X65267553Y-116230421D01*
X65143097Y-115929958D01*
X64962415Y-115659549D01*
X64732451Y-115429585D01*
X64462042Y-115248903D01*
X64161579Y-115124447D01*
X63842609Y-115061000D01*
X63517391Y-115061000D01*
X63198421Y-115124447D01*
X62897958Y-115248903D01*
X62627549Y-115429585D01*
X62400499Y-115656635D01*
X62400499Y-112782784D01*
X62567095Y-112894100D01*
X62994676Y-113071210D01*
X63448594Y-113161500D01*
X63911406Y-113161500D01*
X64365324Y-113071210D01*
X64792905Y-112894100D01*
X65177719Y-112636976D01*
X65504976Y-112309719D01*
X65762100Y-111924905D01*
X65939210Y-111497324D01*
X66029500Y-111043406D01*
X66029500Y-110665652D01*
X67694100Y-110665652D01*
X67694100Y-110958348D01*
X67751202Y-111245421D01*
X67863212Y-111515838D01*
X68025826Y-111759206D01*
X68232794Y-111966174D01*
X68476162Y-112128788D01*
X68746579Y-112240798D01*
X69033652Y-112297900D01*
X69326348Y-112297900D01*
X69613421Y-112240798D01*
X69883838Y-112128788D01*
X70127206Y-111966174D01*
X70334174Y-111759206D01*
X70496788Y-111515838D01*
X70608798Y-111245421D01*
X70665900Y-110958348D01*
X70665900Y-110665652D01*
X70608798Y-110378579D01*
X70496788Y-110108162D01*
X70334174Y-109864794D01*
X70127206Y-109657826D01*
X69883838Y-109495212D01*
X69613421Y-109383202D01*
X69326348Y-109326100D01*
X69033652Y-109326100D01*
X68746579Y-109383202D01*
X68476162Y-109495212D01*
X68232794Y-109657826D01*
X68025826Y-109864794D01*
X67863212Y-110108162D01*
X67751202Y-110378579D01*
X67694100Y-110665652D01*
X66029500Y-110665652D01*
X66029500Y-110580594D01*
X65939210Y-110126676D01*
X65762100Y-109699095D01*
X65504976Y-109314281D01*
X65177719Y-108987024D01*
X64792905Y-108729900D01*
X64365324Y-108552790D01*
X63911406Y-108462500D01*
X63448594Y-108462500D01*
X62994676Y-108552790D01*
X62567095Y-108729900D01*
X62400499Y-108841216D01*
X62400499Y-106574807D01*
X62668698Y-106754012D01*
X63057244Y-106914953D01*
X63469721Y-106997000D01*
X63890279Y-106997000D01*
X64302756Y-106914953D01*
X64455411Y-106851721D01*
X66545000Y-106851721D01*
X66545000Y-107272279D01*
X66627047Y-107684756D01*
X66787988Y-108073302D01*
X67021637Y-108422983D01*
X67319017Y-108720363D01*
X67668698Y-108954012D01*
X68057244Y-109114953D01*
X68469721Y-109197000D01*
X68890279Y-109197000D01*
X69302756Y-109114953D01*
X69691302Y-108954012D01*
X70040983Y-108720363D01*
X70338363Y-108422983D01*
X70572012Y-108073302D01*
X70732953Y-107684756D01*
X70815000Y-107272279D01*
X70815000Y-106851721D01*
X70732953Y-106439244D01*
X70572012Y-106050698D01*
X70338363Y-105701017D01*
X70040983Y-105403637D01*
X69691302Y-105169988D01*
X69302756Y-105009047D01*
X68890279Y-104927000D01*
X68469721Y-104927000D01*
X68057244Y-105009047D01*
X67668698Y-105169988D01*
X67319017Y-105403637D01*
X67021637Y-105701017D01*
X66787988Y-106050698D01*
X66627047Y-106439244D01*
X66545000Y-106851721D01*
X64455411Y-106851721D01*
X64691302Y-106754012D01*
X65040983Y-106520363D01*
X65338363Y-106222983D01*
X65572012Y-105873302D01*
X65732953Y-105484756D01*
X65815000Y-105072279D01*
X65815000Y-104651721D01*
X65732953Y-104239244D01*
X65572012Y-103850698D01*
X65338363Y-103501017D01*
X65040983Y-103203637D01*
X64691302Y-102969988D01*
X64646884Y-102951589D01*
X64732451Y-102894415D01*
X64962415Y-102664451D01*
X65143097Y-102394042D01*
X65267553Y-102093579D01*
X65331000Y-101774609D01*
X65331000Y-101449391D01*
X65267553Y-101130421D01*
X65143097Y-100829958D01*
X64962415Y-100559549D01*
X64732451Y-100329585D01*
X64462042Y-100148903D01*
X64161579Y-100024447D01*
X63842609Y-99961000D01*
X63517391Y-99961000D01*
X63198421Y-100024447D01*
X62897958Y-100148903D01*
X62627549Y-100329585D01*
X62400499Y-100556635D01*
X62400499Y-97682784D01*
X62567095Y-97794100D01*
X62994676Y-97971210D01*
X63448594Y-98061500D01*
X63911406Y-98061500D01*
X64365324Y-97971210D01*
X64792905Y-97794100D01*
X65177719Y-97536976D01*
X65504976Y-97209719D01*
X65762100Y-96824905D01*
X65939210Y-96397324D01*
X66029500Y-95943406D01*
X66029500Y-95480594D01*
X66003687Y-95350822D01*
X70675867Y-100023003D01*
X70699665Y-100052001D01*
X70815390Y-100146974D01*
X70947419Y-100217546D01*
X71090680Y-100261003D01*
X71202333Y-100272000D01*
X71202341Y-100272000D01*
X71239666Y-100275676D01*
X71276991Y-100272000D01*
X72307773Y-100272000D01*
X72316903Y-100294042D01*
X72497585Y-100564451D01*
X72727549Y-100794415D01*
X72997958Y-100975097D01*
X73298421Y-101099553D01*
X73617391Y-101163000D01*
X73942609Y-101163000D01*
X74261579Y-101099553D01*
X74361001Y-101058371D01*
X74361002Y-109791622D01*
X74227206Y-109657826D01*
X73983838Y-109495212D01*
X73713421Y-109383202D01*
X73426348Y-109326100D01*
X73133652Y-109326100D01*
X72846579Y-109383202D01*
X72576162Y-109495212D01*
X72332794Y-109657826D01*
X72125826Y-109864794D01*
X71963212Y-110108162D01*
X71851202Y-110378579D01*
X71794100Y-110665652D01*
X71794100Y-110958348D01*
X71851202Y-111245421D01*
X71963212Y-111515838D01*
X72125826Y-111759206D01*
X72332794Y-111966174D01*
X72576162Y-112128788D01*
X72846579Y-112240798D01*
X73133652Y-112297900D01*
X73426348Y-112297900D01*
X73713421Y-112240798D01*
X73983838Y-112128788D01*
X74227206Y-111966174D01*
X74361002Y-111832378D01*
X74361002Y-112956197D01*
X74285002Y-113032197D01*
X74284996Y-113032202D01*
X74283621Y-113033577D01*
X74261579Y-113024447D01*
X73942609Y-112961000D01*
X73617391Y-112961000D01*
X73298421Y-113024447D01*
X72997958Y-113148903D01*
X72727549Y-113329585D01*
X72497585Y-113559549D01*
X72316903Y-113829958D01*
X72192447Y-114130421D01*
X72129000Y-114449391D01*
X72129000Y-114774609D01*
X72192447Y-115093579D01*
X72316903Y-115394042D01*
X72497585Y-115664451D01*
X72727549Y-115894415D01*
X72997958Y-116075097D01*
X73298421Y-116199553D01*
X73617391Y-116263000D01*
X73942609Y-116263000D01*
X74261579Y-116199553D01*
X74562042Y-116075097D01*
X74832451Y-115894415D01*
X75062415Y-115664451D01*
X75243097Y-115394042D01*
X75367553Y-115093579D01*
X75431000Y-114774609D01*
X75431000Y-114449391D01*
X75367553Y-114130421D01*
X75358423Y-114108379D01*
X75359798Y-114107004D01*
X75359803Y-114106998D01*
X75631998Y-113834803D01*
X75661002Y-113811000D01*
X75755975Y-113695275D01*
X75826547Y-113563246D01*
X75870004Y-113419985D01*
X75881001Y-113308332D01*
X75881001Y-113308323D01*
X75884677Y-113271000D01*
X75881001Y-113233677D01*
X75881001Y-95914805D01*
X75980499Y-96014303D01*
X75980500Y-126436698D01*
X74285001Y-128132198D01*
X74284996Y-128132202D01*
X74283621Y-128133577D01*
X74261579Y-128124447D01*
X73942609Y-128061000D01*
X73617391Y-128061000D01*
X73298421Y-128124447D01*
X72997958Y-128248903D01*
X72727549Y-128429585D01*
X72497585Y-128659549D01*
X72316903Y-128929958D01*
X72192447Y-129230421D01*
X72129000Y-129549391D01*
X72129000Y-129874609D01*
X72192447Y-130193579D01*
X72316903Y-130494042D01*
X72497585Y-130764451D01*
X72727549Y-130994415D01*
X72997958Y-131175097D01*
X73298421Y-131299553D01*
X73617391Y-131363000D01*
X73942609Y-131363000D01*
X74261579Y-131299553D01*
X74562042Y-131175097D01*
X74832451Y-130994415D01*
X75062415Y-130764451D01*
X75243097Y-130494042D01*
X75367553Y-130193579D01*
X75431000Y-129874609D01*
X75431000Y-129549391D01*
X75367553Y-129230421D01*
X75358423Y-129208379D01*
X75359798Y-129207004D01*
X75359802Y-129206999D01*
X77056053Y-127510748D01*
X77282281Y-127736976D01*
X77667095Y-127994100D01*
X78094676Y-128171210D01*
X78548594Y-128261500D01*
X79011406Y-128261500D01*
X79465324Y-128171210D01*
X79892905Y-127994100D01*
X80277719Y-127736976D01*
X80604976Y-127409719D01*
X80862100Y-127024905D01*
X81039210Y-126597324D01*
X81129500Y-126143406D01*
X81129500Y-125765652D01*
X82794100Y-125765652D01*
X82794100Y-126058348D01*
X82851202Y-126345421D01*
X82963212Y-126615838D01*
X83125826Y-126859206D01*
X83332794Y-127066174D01*
X83576162Y-127228788D01*
X83846579Y-127340798D01*
X84133652Y-127397900D01*
X84426348Y-127397900D01*
X84713421Y-127340798D01*
X84983838Y-127228788D01*
X85227206Y-127066174D01*
X85434174Y-126859206D01*
X85596788Y-126615838D01*
X85708798Y-126345421D01*
X85765900Y-126058348D01*
X85765900Y-125765652D01*
X86894100Y-125765652D01*
X86894100Y-126058348D01*
X86951202Y-126345421D01*
X87063212Y-126615838D01*
X87225826Y-126859206D01*
X87432794Y-127066174D01*
X87676162Y-127228788D01*
X87946579Y-127340798D01*
X88233652Y-127397900D01*
X88526348Y-127397900D01*
X88813421Y-127340798D01*
X89083838Y-127228788D01*
X89327206Y-127066174D01*
X89534174Y-126859206D01*
X89696788Y-126615838D01*
X89808798Y-126345421D01*
X89865900Y-126058348D01*
X89865900Y-125765652D01*
X89808798Y-125478579D01*
X89696788Y-125208162D01*
X89534174Y-124964794D01*
X89327206Y-124757826D01*
X89083838Y-124595212D01*
X88813421Y-124483202D01*
X88526348Y-124426100D01*
X88233652Y-124426100D01*
X87946579Y-124483202D01*
X87676162Y-124595212D01*
X87432794Y-124757826D01*
X87225826Y-124964794D01*
X87063212Y-125208162D01*
X86951202Y-125478579D01*
X86894100Y-125765652D01*
X85765900Y-125765652D01*
X85708798Y-125478579D01*
X85596788Y-125208162D01*
X85434174Y-124964794D01*
X85227206Y-124757826D01*
X84983838Y-124595212D01*
X84713421Y-124483202D01*
X84426348Y-124426100D01*
X84133652Y-124426100D01*
X83846579Y-124483202D01*
X83576162Y-124595212D01*
X83332794Y-124757826D01*
X83125826Y-124964794D01*
X82963212Y-125208162D01*
X82851202Y-125478579D01*
X82794100Y-125765652D01*
X81129500Y-125765652D01*
X81129500Y-125680594D01*
X81039210Y-125226676D01*
X80862100Y-124799095D01*
X80604976Y-124414281D01*
X80277719Y-124087024D01*
X79892905Y-123829900D01*
X79465324Y-123652790D01*
X79011406Y-123562500D01*
X78548594Y-123562500D01*
X78094676Y-123652790D01*
X77667095Y-123829900D01*
X77500499Y-123941216D01*
X77500499Y-121674807D01*
X77768698Y-121854012D01*
X78157244Y-122014953D01*
X78569721Y-122097000D01*
X78990279Y-122097000D01*
X79402756Y-122014953D01*
X79555411Y-121951721D01*
X81645000Y-121951721D01*
X81645000Y-122372279D01*
X81727047Y-122784756D01*
X81887988Y-123173302D01*
X82121637Y-123522983D01*
X82419017Y-123820363D01*
X82768698Y-124054012D01*
X83157244Y-124214953D01*
X83569721Y-124297000D01*
X83990279Y-124297000D01*
X84402756Y-124214953D01*
X84791302Y-124054012D01*
X85140983Y-123820363D01*
X85438363Y-123522983D01*
X85672012Y-123173302D01*
X85832953Y-122784756D01*
X85915000Y-122372279D01*
X85915000Y-121951721D01*
X85832953Y-121539244D01*
X85672012Y-121150698D01*
X85438363Y-120801017D01*
X85140983Y-120503637D01*
X84791302Y-120269988D01*
X84402756Y-120109047D01*
X83990279Y-120027000D01*
X83569721Y-120027000D01*
X83157244Y-120109047D01*
X82768698Y-120269988D01*
X82419017Y-120503637D01*
X82121637Y-120801017D01*
X81887988Y-121150698D01*
X81727047Y-121539244D01*
X81645000Y-121951721D01*
X79555411Y-121951721D01*
X79791302Y-121854012D01*
X80140983Y-121620363D01*
X80438363Y-121322983D01*
X80672012Y-120973302D01*
X80832953Y-120584756D01*
X80915000Y-120172279D01*
X80915000Y-119751721D01*
X80832953Y-119339244D01*
X80672012Y-118950698D01*
X80438363Y-118601017D01*
X80140983Y-118303637D01*
X79791302Y-118069988D01*
X79746884Y-118051589D01*
X79832451Y-117994415D01*
X80062415Y-117764451D01*
X80243097Y-117494042D01*
X80367553Y-117193579D01*
X80431000Y-116874609D01*
X80431000Y-116549391D01*
X80367553Y-116230421D01*
X80243097Y-115929958D01*
X80062415Y-115659549D01*
X79832451Y-115429585D01*
X79562042Y-115248903D01*
X79261579Y-115124447D01*
X78942609Y-115061000D01*
X78617391Y-115061000D01*
X78298421Y-115124447D01*
X77997958Y-115248903D01*
X77727549Y-115429585D01*
X77500499Y-115656635D01*
X77500499Y-112782784D01*
X77667095Y-112894100D01*
X78094676Y-113071210D01*
X78548594Y-113161500D01*
X79011406Y-113161500D01*
X79465324Y-113071210D01*
X79892905Y-112894100D01*
X80277719Y-112636976D01*
X80604976Y-112309719D01*
X80862100Y-111924905D01*
X81039210Y-111497324D01*
X81129500Y-111043406D01*
X81129500Y-110665652D01*
X82794100Y-110665652D01*
X82794100Y-110958348D01*
X82851202Y-111245421D01*
X82963212Y-111515838D01*
X83125826Y-111759206D01*
X83332794Y-111966174D01*
X83576162Y-112128788D01*
X83846579Y-112240798D01*
X84133652Y-112297900D01*
X84426348Y-112297900D01*
X84713421Y-112240798D01*
X84983838Y-112128788D01*
X85227206Y-111966174D01*
X85434174Y-111759206D01*
X85596788Y-111515838D01*
X85708798Y-111245421D01*
X85765900Y-110958348D01*
X85765900Y-110665652D01*
X85708798Y-110378579D01*
X85596788Y-110108162D01*
X85434174Y-109864794D01*
X85227206Y-109657826D01*
X84983838Y-109495212D01*
X84713421Y-109383202D01*
X84426348Y-109326100D01*
X84133652Y-109326100D01*
X83846579Y-109383202D01*
X83576162Y-109495212D01*
X83332794Y-109657826D01*
X83125826Y-109864794D01*
X82963212Y-110108162D01*
X82851202Y-110378579D01*
X82794100Y-110665652D01*
X81129500Y-110665652D01*
X81129500Y-110580594D01*
X81039210Y-110126676D01*
X80862100Y-109699095D01*
X80604976Y-109314281D01*
X80277719Y-108987024D01*
X79892905Y-108729900D01*
X79465324Y-108552790D01*
X79011406Y-108462500D01*
X78548594Y-108462500D01*
X78094676Y-108552790D01*
X77667095Y-108729900D01*
X77500499Y-108841216D01*
X77500499Y-106574807D01*
X77768698Y-106754012D01*
X78157244Y-106914953D01*
X78569721Y-106997000D01*
X78990279Y-106997000D01*
X79402756Y-106914953D01*
X79555411Y-106851721D01*
X81645000Y-106851721D01*
X81645000Y-107272279D01*
X81727047Y-107684756D01*
X81887988Y-108073302D01*
X82121637Y-108422983D01*
X82419017Y-108720363D01*
X82768698Y-108954012D01*
X83157244Y-109114953D01*
X83569721Y-109197000D01*
X83990279Y-109197000D01*
X84402756Y-109114953D01*
X84791302Y-108954012D01*
X85140983Y-108720363D01*
X85438363Y-108422983D01*
X85672012Y-108073302D01*
X85832953Y-107684756D01*
X85915000Y-107272279D01*
X85915000Y-106851721D01*
X85832953Y-106439244D01*
X85672012Y-106050698D01*
X85438363Y-105701017D01*
X85140983Y-105403637D01*
X84791302Y-105169988D01*
X84402756Y-105009047D01*
X83990279Y-104927000D01*
X83569721Y-104927000D01*
X83157244Y-105009047D01*
X82768698Y-105169988D01*
X82419017Y-105403637D01*
X82121637Y-105701017D01*
X81887988Y-106050698D01*
X81727047Y-106439244D01*
X81645000Y-106851721D01*
X79555411Y-106851721D01*
X79791302Y-106754012D01*
X80140983Y-106520363D01*
X80438363Y-106222983D01*
X80672012Y-105873302D01*
X80832953Y-105484756D01*
X80915000Y-105072279D01*
X80915000Y-104651721D01*
X80832953Y-104239244D01*
X80672012Y-103850698D01*
X80438363Y-103501017D01*
X80140983Y-103203637D01*
X79791302Y-102969988D01*
X79746884Y-102951589D01*
X79832451Y-102894415D01*
X80062415Y-102664451D01*
X80243097Y-102394042D01*
X80367553Y-102093579D01*
X80431000Y-101774609D01*
X80431000Y-101449391D01*
X80367553Y-101130421D01*
X80243097Y-100829958D01*
X80062415Y-100559549D01*
X79832451Y-100329585D01*
X79562042Y-100148903D01*
X79261579Y-100024447D01*
X78942609Y-99961000D01*
X78617391Y-99961000D01*
X78298421Y-100024447D01*
X77997958Y-100148903D01*
X77727549Y-100329585D01*
X77500499Y-100556635D01*
X77500499Y-97682784D01*
X77667095Y-97794100D01*
X78094676Y-97971210D01*
X78548594Y-98061500D01*
X79011406Y-98061500D01*
X79465324Y-97971210D01*
X79892905Y-97794100D01*
X80277719Y-97536976D01*
X80604976Y-97209719D01*
X80862100Y-96824905D01*
X81039210Y-96397324D01*
X81129500Y-95943406D01*
X81129500Y-95887304D01*
X85265199Y-100023003D01*
X85288997Y-100052001D01*
X85317995Y-100075799D01*
X85404721Y-100146974D01*
X85536751Y-100217546D01*
X85680012Y-100261003D01*
X85791665Y-100272000D01*
X85791675Y-100272000D01*
X85828998Y-100275676D01*
X85866321Y-100272000D01*
X87407773Y-100272000D01*
X87416903Y-100294042D01*
X87597585Y-100564451D01*
X87827549Y-100794415D01*
X88097958Y-100975097D01*
X88398421Y-101099553D01*
X88717391Y-101163000D01*
X89042609Y-101163000D01*
X89361579Y-101099553D01*
X89461001Y-101058371D01*
X89461002Y-109791622D01*
X89327206Y-109657826D01*
X89083838Y-109495212D01*
X88813421Y-109383202D01*
X88526348Y-109326100D01*
X88233652Y-109326100D01*
X87946579Y-109383202D01*
X87676162Y-109495212D01*
X87432794Y-109657826D01*
X87225826Y-109864794D01*
X87063212Y-110108162D01*
X86951202Y-110378579D01*
X86894100Y-110665652D01*
X86894100Y-110958348D01*
X86951202Y-111245421D01*
X87063212Y-111515838D01*
X87225826Y-111759206D01*
X87432794Y-111966174D01*
X87676162Y-112128788D01*
X87946579Y-112240798D01*
X88233652Y-112297900D01*
X88526348Y-112297900D01*
X88813421Y-112240798D01*
X89083838Y-112128788D01*
X89327206Y-111966174D01*
X89461002Y-111832378D01*
X89461002Y-112956197D01*
X89385002Y-113032197D01*
X89384996Y-113032202D01*
X89383621Y-113033577D01*
X89361579Y-113024447D01*
X89042609Y-112961000D01*
X88717391Y-112961000D01*
X88398421Y-113024447D01*
X88097958Y-113148903D01*
X87827549Y-113329585D01*
X87597585Y-113559549D01*
X87416903Y-113829958D01*
X87292447Y-114130421D01*
X87229000Y-114449391D01*
X87229000Y-114774609D01*
X87292447Y-115093579D01*
X87416903Y-115394042D01*
X87597585Y-115664451D01*
X87827549Y-115894415D01*
X88097958Y-116075097D01*
X88398421Y-116199553D01*
X88717391Y-116263000D01*
X89042609Y-116263000D01*
X89361579Y-116199553D01*
X89662042Y-116075097D01*
X89911012Y-115908740D01*
X89911012Y-127606186D01*
X89385001Y-128132198D01*
X89384996Y-128132202D01*
X89383621Y-128133577D01*
X89361579Y-128124447D01*
X89042609Y-128061000D01*
X88717391Y-128061000D01*
X88398421Y-128124447D01*
X88097958Y-128248903D01*
X87827549Y-128429585D01*
X87597585Y-128659549D01*
X87416903Y-128929958D01*
X87292447Y-129230421D01*
X87229000Y-129549391D01*
X87229000Y-129874609D01*
X87292447Y-130193579D01*
X87416903Y-130494042D01*
X87597585Y-130764451D01*
X87827549Y-130994415D01*
X88097958Y-131175097D01*
X88398421Y-131299553D01*
X88717391Y-131363000D01*
X89042609Y-131363000D01*
X89361579Y-131299553D01*
X89662042Y-131175097D01*
X89932451Y-130994415D01*
X90162415Y-130764451D01*
X90343097Y-130494042D01*
X90467553Y-130193579D01*
X90531000Y-129874609D01*
X90531000Y-129549391D01*
X90467553Y-129230421D01*
X90458423Y-129208379D01*
X90459798Y-129207004D01*
X90459802Y-129206999D01*
X91182019Y-128484784D01*
X91211012Y-128460990D01*
X91234806Y-128431997D01*
X91234810Y-128431993D01*
X91305984Y-128345266D01*
X91305985Y-128345265D01*
X91376557Y-128213236D01*
X91420014Y-128069975D01*
X91431011Y-127958322D01*
X91431011Y-127958313D01*
X91434687Y-127920990D01*
X91431011Y-127883667D01*
X91431011Y-125680594D01*
X91530500Y-125680594D01*
X91530500Y-126143406D01*
X91620790Y-126597324D01*
X91797900Y-127024905D01*
X92055024Y-127409719D01*
X92382281Y-127736976D01*
X92767095Y-127994100D01*
X93194676Y-128171210D01*
X93648594Y-128261500D01*
X94111406Y-128261500D01*
X94565324Y-128171210D01*
X94992905Y-127994100D01*
X95377719Y-127736976D01*
X95704976Y-127409719D01*
X95962100Y-127024905D01*
X96139210Y-126597324D01*
X96229500Y-126143406D01*
X96229500Y-125765652D01*
X97894100Y-125765652D01*
X97894100Y-126058348D01*
X97951202Y-126345421D01*
X98063212Y-126615838D01*
X98225826Y-126859206D01*
X98432794Y-127066174D01*
X98676162Y-127228788D01*
X98946579Y-127340798D01*
X99233652Y-127397900D01*
X99526348Y-127397900D01*
X99813421Y-127340798D01*
X100083838Y-127228788D01*
X100327206Y-127066174D01*
X100534174Y-126859206D01*
X100696788Y-126615838D01*
X100808798Y-126345421D01*
X100865900Y-126058348D01*
X100865900Y-125765652D01*
X100808798Y-125478579D01*
X100696788Y-125208162D01*
X100534174Y-124964794D01*
X100327206Y-124757826D01*
X100083838Y-124595212D01*
X99813421Y-124483202D01*
X99526348Y-124426100D01*
X99233652Y-124426100D01*
X98946579Y-124483202D01*
X98676162Y-124595212D01*
X98432794Y-124757826D01*
X98225826Y-124964794D01*
X98063212Y-125208162D01*
X97951202Y-125478579D01*
X97894100Y-125765652D01*
X96229500Y-125765652D01*
X96229500Y-125680594D01*
X96139210Y-125226676D01*
X95962100Y-124799095D01*
X95704976Y-124414281D01*
X95377719Y-124087024D01*
X94992905Y-123829900D01*
X94565324Y-123652790D01*
X94111406Y-123562500D01*
X93648594Y-123562500D01*
X93194676Y-123652790D01*
X92767095Y-123829900D01*
X92382281Y-124087024D01*
X92055024Y-124414281D01*
X91797900Y-124799095D01*
X91620790Y-125226676D01*
X91530500Y-125680594D01*
X91431011Y-125680594D01*
X91431011Y-119751721D01*
X91745000Y-119751721D01*
X91745000Y-120172279D01*
X91827047Y-120584756D01*
X91987988Y-120973302D01*
X92221637Y-121322983D01*
X92519017Y-121620363D01*
X92868698Y-121854012D01*
X93257244Y-122014953D01*
X93669721Y-122097000D01*
X94090279Y-122097000D01*
X94502756Y-122014953D01*
X94655411Y-121951721D01*
X96745000Y-121951721D01*
X96745000Y-122372279D01*
X96827047Y-122784756D01*
X96987988Y-123173302D01*
X97221637Y-123522983D01*
X97519017Y-123820363D01*
X97868698Y-124054012D01*
X98257244Y-124214953D01*
X98669721Y-124297000D01*
X99090279Y-124297000D01*
X99502756Y-124214953D01*
X99891302Y-124054012D01*
X100240983Y-123820363D01*
X100538363Y-123522983D01*
X100772012Y-123173302D01*
X100932953Y-122784756D01*
X101015000Y-122372279D01*
X101015000Y-121951721D01*
X100932953Y-121539244D01*
X100772012Y-121150698D01*
X100538363Y-120801017D01*
X100240983Y-120503637D01*
X99891302Y-120269988D01*
X99502756Y-120109047D01*
X99090279Y-120027000D01*
X98669721Y-120027000D01*
X98257244Y-120109047D01*
X97868698Y-120269988D01*
X97519017Y-120503637D01*
X97221637Y-120801017D01*
X96987988Y-121150698D01*
X96827047Y-121539244D01*
X96745000Y-121951721D01*
X94655411Y-121951721D01*
X94891302Y-121854012D01*
X95240983Y-121620363D01*
X95538363Y-121322983D01*
X95772012Y-120973302D01*
X95932953Y-120584756D01*
X96015000Y-120172279D01*
X96015000Y-119751721D01*
X95932953Y-119339244D01*
X95772012Y-118950698D01*
X95538363Y-118601017D01*
X95240983Y-118303637D01*
X94891302Y-118069988D01*
X94846884Y-118051589D01*
X94932451Y-117994415D01*
X95162415Y-117764451D01*
X95343097Y-117494042D01*
X95467553Y-117193579D01*
X95531000Y-116874609D01*
X95531000Y-116549391D01*
X95467553Y-116230421D01*
X95343097Y-115929958D01*
X95162415Y-115659549D01*
X94932451Y-115429585D01*
X94662042Y-115248903D01*
X94361579Y-115124447D01*
X94042609Y-115061000D01*
X93717391Y-115061000D01*
X93398421Y-115124447D01*
X93097958Y-115248903D01*
X92827549Y-115429585D01*
X92597585Y-115659549D01*
X92416903Y-115929958D01*
X92292447Y-116230421D01*
X92229000Y-116549391D01*
X92229000Y-116874609D01*
X92292447Y-117193579D01*
X92416903Y-117494042D01*
X92597585Y-117764451D01*
X92827549Y-117994415D01*
X92913116Y-118051589D01*
X92868698Y-118069988D01*
X92519017Y-118303637D01*
X92221637Y-118601017D01*
X91987988Y-118950698D01*
X91827047Y-119339244D01*
X91745000Y-119751721D01*
X91431011Y-119751721D01*
X91431011Y-110580594D01*
X91530500Y-110580594D01*
X91530500Y-111043406D01*
X91620790Y-111497324D01*
X91797900Y-111924905D01*
X92055024Y-112309719D01*
X92382281Y-112636976D01*
X92767095Y-112894100D01*
X93194676Y-113071210D01*
X93648594Y-113161500D01*
X94111406Y-113161500D01*
X94565324Y-113071210D01*
X94992905Y-112894100D01*
X95377719Y-112636976D01*
X95704976Y-112309719D01*
X95962100Y-111924905D01*
X96139210Y-111497324D01*
X96229500Y-111043406D01*
X96229500Y-110665652D01*
X97894100Y-110665652D01*
X97894100Y-110958348D01*
X97951202Y-111245421D01*
X98063212Y-111515838D01*
X98225826Y-111759206D01*
X98432794Y-111966174D01*
X98676162Y-112128788D01*
X98946579Y-112240798D01*
X99233652Y-112297900D01*
X99526348Y-112297900D01*
X99813421Y-112240798D01*
X100083838Y-112128788D01*
X100327206Y-111966174D01*
X100534174Y-111759206D01*
X100696788Y-111515838D01*
X100808798Y-111245421D01*
X100865900Y-110958348D01*
X100865900Y-110665652D01*
X100808798Y-110378579D01*
X100696788Y-110108162D01*
X100534174Y-109864794D01*
X100327206Y-109657826D01*
X100083838Y-109495212D01*
X99813421Y-109383202D01*
X99526348Y-109326100D01*
X99233652Y-109326100D01*
X98946579Y-109383202D01*
X98676162Y-109495212D01*
X98432794Y-109657826D01*
X98225826Y-109864794D01*
X98063212Y-110108162D01*
X97951202Y-110378579D01*
X97894100Y-110665652D01*
X96229500Y-110665652D01*
X96229500Y-110580594D01*
X96139210Y-110126676D01*
X95962100Y-109699095D01*
X95704976Y-109314281D01*
X95377719Y-108987024D01*
X94992905Y-108729900D01*
X94565324Y-108552790D01*
X94111406Y-108462500D01*
X93648594Y-108462500D01*
X93194676Y-108552790D01*
X92767095Y-108729900D01*
X92382281Y-108987024D01*
X92055024Y-109314281D01*
X91797900Y-109699095D01*
X91620790Y-110126676D01*
X91530500Y-110580594D01*
X91431011Y-110580594D01*
X91431011Y-104651721D01*
X91745000Y-104651721D01*
X91745000Y-105072279D01*
X91827047Y-105484756D01*
X91987988Y-105873302D01*
X92221637Y-106222983D01*
X92519017Y-106520363D01*
X92868698Y-106754012D01*
X93257244Y-106914953D01*
X93669721Y-106997000D01*
X94090279Y-106997000D01*
X94502756Y-106914953D01*
X94655411Y-106851721D01*
X96745000Y-106851721D01*
X96745000Y-107272279D01*
X96827047Y-107684756D01*
X96987988Y-108073302D01*
X97221637Y-108422983D01*
X97519017Y-108720363D01*
X97868698Y-108954012D01*
X98257244Y-109114953D01*
X98669721Y-109197000D01*
X99090279Y-109197000D01*
X99502756Y-109114953D01*
X99891302Y-108954012D01*
X100240983Y-108720363D01*
X100538363Y-108422983D01*
X100772012Y-108073302D01*
X100932953Y-107684756D01*
X101015000Y-107272279D01*
X101015000Y-106851721D01*
X100932953Y-106439244D01*
X100772012Y-106050698D01*
X100538363Y-105701017D01*
X100240983Y-105403637D01*
X99891302Y-105169988D01*
X99502756Y-105009047D01*
X99090279Y-104927000D01*
X98669721Y-104927000D01*
X98257244Y-105009047D01*
X97868698Y-105169988D01*
X97519017Y-105403637D01*
X97221637Y-105701017D01*
X96987988Y-106050698D01*
X96827047Y-106439244D01*
X96745000Y-106851721D01*
X94655411Y-106851721D01*
X94891302Y-106754012D01*
X95240983Y-106520363D01*
X95538363Y-106222983D01*
X95772012Y-105873302D01*
X95932953Y-105484756D01*
X96015000Y-105072279D01*
X96015000Y-104651721D01*
X95932953Y-104239244D01*
X95772012Y-103850698D01*
X95538363Y-103501017D01*
X95240983Y-103203637D01*
X94891302Y-102969988D01*
X94846884Y-102951589D01*
X94932451Y-102894415D01*
X95162415Y-102664451D01*
X95343097Y-102394042D01*
X95467553Y-102093579D01*
X95531000Y-101774609D01*
X95531000Y-101449391D01*
X95467553Y-101130421D01*
X95343097Y-100829958D01*
X95162415Y-100559549D01*
X94932451Y-100329585D01*
X94662042Y-100148903D01*
X94361579Y-100024447D01*
X94042609Y-99961000D01*
X93717391Y-99961000D01*
X93398421Y-100024447D01*
X93097958Y-100148903D01*
X92827549Y-100329585D01*
X92597585Y-100559549D01*
X92416903Y-100829958D01*
X92292447Y-101130421D01*
X92229000Y-101449391D01*
X92229000Y-101774609D01*
X92292447Y-102093579D01*
X92416903Y-102394042D01*
X92597585Y-102664451D01*
X92827549Y-102894415D01*
X92913116Y-102951589D01*
X92868698Y-102969988D01*
X92519017Y-103203637D01*
X92221637Y-103501017D01*
X91987988Y-103850698D01*
X91827047Y-104239244D01*
X91745000Y-104651721D01*
X91431011Y-104651721D01*
X91431011Y-95488333D01*
X91431773Y-95480594D01*
X91530500Y-95480594D01*
X91530500Y-95943406D01*
X91620790Y-96397324D01*
X91797900Y-96824905D01*
X92055024Y-97209719D01*
X92382281Y-97536976D01*
X92767095Y-97794100D01*
X93194676Y-97971210D01*
X93648594Y-98061500D01*
X94111406Y-98061500D01*
X94565324Y-97971210D01*
X94992905Y-97794100D01*
X95377719Y-97536976D01*
X95704976Y-97209719D01*
X95962100Y-96824905D01*
X96139210Y-96397324D01*
X96229500Y-95943406D01*
X96229500Y-95565652D01*
X97894100Y-95565652D01*
X97894100Y-95858348D01*
X97951202Y-96145421D01*
X98063212Y-96415838D01*
X98225826Y-96659206D01*
X98432794Y-96866174D01*
X98676162Y-97028788D01*
X98946579Y-97140798D01*
X99233652Y-97197900D01*
X99526348Y-97197900D01*
X99813421Y-97140798D01*
X100083838Y-97028788D01*
X100327206Y-96866174D01*
X100534174Y-96659206D01*
X100696788Y-96415838D01*
X100808798Y-96145421D01*
X100865900Y-95858348D01*
X100865900Y-95565652D01*
X100808798Y-95278579D01*
X100696788Y-95008162D01*
X100534174Y-94764794D01*
X100327206Y-94557826D01*
X100083838Y-94395212D01*
X99813421Y-94283202D01*
X99526348Y-94226100D01*
X99233652Y-94226100D01*
X98946579Y-94283202D01*
X98676162Y-94395212D01*
X98432794Y-94557826D01*
X98225826Y-94764794D01*
X98063212Y-95008162D01*
X97951202Y-95278579D01*
X97894100Y-95565652D01*
X96229500Y-95565652D01*
X96229500Y-95480594D01*
X96139210Y-95026676D01*
X95962100Y-94599095D01*
X95704976Y-94214281D01*
X95377719Y-93887024D01*
X94992905Y-93629900D01*
X94565324Y-93452790D01*
X94111406Y-93362500D01*
X93648594Y-93362500D01*
X93194676Y-93452790D01*
X92767095Y-93629900D01*
X92382281Y-93887024D01*
X92055024Y-94214281D01*
X91797900Y-94599095D01*
X91620790Y-95026676D01*
X91530500Y-95480594D01*
X91431773Y-95480594D01*
X91434687Y-95451010D01*
X91431011Y-95413687D01*
X91431011Y-95413678D01*
X91420014Y-95302025D01*
X91376557Y-95158764D01*
X91305985Y-95026735D01*
X91211012Y-94911010D01*
X91182015Y-94887213D01*
X85846523Y-89551721D01*
X91745000Y-89551721D01*
X91745000Y-89972279D01*
X91827047Y-90384756D01*
X91987988Y-90773302D01*
X92221637Y-91122983D01*
X92519017Y-91420363D01*
X92868698Y-91654012D01*
X93257244Y-91814953D01*
X93669721Y-91897000D01*
X94090279Y-91897000D01*
X94502756Y-91814953D01*
X94655411Y-91751721D01*
X96745000Y-91751721D01*
X96745000Y-92172279D01*
X96827047Y-92584756D01*
X96987988Y-92973302D01*
X97221637Y-93322983D01*
X97519017Y-93620363D01*
X97868698Y-93854012D01*
X98257244Y-94014953D01*
X98669721Y-94097000D01*
X99090279Y-94097000D01*
X99502756Y-94014953D01*
X99891302Y-93854012D01*
X100240983Y-93620363D01*
X100538363Y-93322983D01*
X100772012Y-92973302D01*
X100932953Y-92584756D01*
X101015000Y-92172279D01*
X101015000Y-91751721D01*
X100932953Y-91339244D01*
X100772012Y-90950698D01*
X100538363Y-90601017D01*
X100240983Y-90303637D01*
X99891302Y-90069988D01*
X99502756Y-89909047D01*
X99090279Y-89827000D01*
X98669721Y-89827000D01*
X98257244Y-89909047D01*
X97868698Y-90069988D01*
X97519017Y-90303637D01*
X97221637Y-90601017D01*
X96987988Y-90950698D01*
X96827047Y-91339244D01*
X96745000Y-91751721D01*
X94655411Y-91751721D01*
X94891302Y-91654012D01*
X95240983Y-91420363D01*
X95538363Y-91122983D01*
X95772012Y-90773302D01*
X95932953Y-90384756D01*
X96015000Y-89972279D01*
X96015000Y-89551721D01*
X95932953Y-89139244D01*
X95772012Y-88750698D01*
X95538363Y-88401017D01*
X95240983Y-88103637D01*
X94891302Y-87869988D01*
X94502756Y-87709047D01*
X94090279Y-87627000D01*
X93669721Y-87627000D01*
X93257244Y-87709047D01*
X92868698Y-87869988D01*
X92519017Y-88103637D01*
X92221637Y-88401017D01*
X91987988Y-88750698D01*
X91827047Y-89139244D01*
X91745000Y-89551721D01*
X85846523Y-89551721D01*
X82753803Y-86459002D01*
X82730000Y-86429998D01*
X82614275Y-86335025D01*
X82482246Y-86264453D01*
X82338985Y-86220996D01*
X82227332Y-86209999D01*
X82227321Y-86209999D01*
X82189999Y-86206323D01*
X82152677Y-86209999D01*
X82135000Y-86209999D01*
X82135000Y-86028665D01*
X82079853Y-85751426D01*
X81971680Y-85490273D01*
X81831180Y-85280000D01*
X82672197Y-85280000D01*
X83008199Y-85616003D01*
X83031998Y-85645002D01*
X83147723Y-85739975D01*
X83279752Y-85810547D01*
X83423013Y-85854004D01*
X83534666Y-85865001D01*
X83534675Y-85865001D01*
X83571998Y-85868677D01*
X83609321Y-85865001D01*
X84710679Y-85865001D01*
X84748001Y-85868677D01*
X84785323Y-85865001D01*
X84785334Y-85865001D01*
X84896987Y-85854004D01*
X85040248Y-85810547D01*
X85172277Y-85739975D01*
X85288002Y-85645002D01*
X85311804Y-85615999D01*
X85557724Y-85370080D01*
X85675518Y-85405812D01*
X85800000Y-85418072D01*
X86414250Y-85415000D01*
X86573000Y-85256250D01*
X86573000Y-84007000D01*
X86827000Y-84007000D01*
X86827000Y-85256250D01*
X86985750Y-85415000D01*
X87600000Y-85418072D01*
X87724482Y-85405812D01*
X87844180Y-85369502D01*
X87954494Y-85310537D01*
X88051185Y-85231185D01*
X88130537Y-85134494D01*
X88189502Y-85024180D01*
X88225812Y-84904482D01*
X88238072Y-84780000D01*
X88235000Y-84165750D01*
X88076250Y-84007000D01*
X86827000Y-84007000D01*
X86573000Y-84007000D01*
X86553000Y-84007000D01*
X86553000Y-83753000D01*
X86573000Y-83753000D01*
X86573000Y-82503750D01*
X86827000Y-82503750D01*
X86827000Y-83753000D01*
X88076250Y-83753000D01*
X88235000Y-83594250D01*
X88235932Y-83407886D01*
X88309744Y-83457205D01*
X88498102Y-83535226D01*
X88698061Y-83575000D01*
X88901939Y-83575000D01*
X89101898Y-83535226D01*
X89169039Y-83507415D01*
X89125000Y-83728816D01*
X89125000Y-84031184D01*
X89183989Y-84327743D01*
X89299701Y-84607095D01*
X89467688Y-84858505D01*
X89681495Y-85072312D01*
X89932905Y-85240299D01*
X90212257Y-85356011D01*
X90508816Y-85415000D01*
X90811184Y-85415000D01*
X91107743Y-85356011D01*
X91387095Y-85240299D01*
X91638505Y-85072312D01*
X91704944Y-85005873D01*
X91710498Y-85024180D01*
X91769463Y-85134494D01*
X91848815Y-85231185D01*
X91945506Y-85310537D01*
X92055820Y-85369502D01*
X92175518Y-85405812D01*
X92300000Y-85418072D01*
X92914250Y-85415000D01*
X93073000Y-85256250D01*
X93073000Y-84007000D01*
X93327000Y-84007000D01*
X93327000Y-85256250D01*
X93485750Y-85415000D01*
X94100000Y-85418072D01*
X94224482Y-85405812D01*
X94344180Y-85369502D01*
X94454494Y-85310537D01*
X94551185Y-85231185D01*
X94630537Y-85134494D01*
X94689502Y-85024180D01*
X94725812Y-84904482D01*
X94738072Y-84780000D01*
X94735000Y-84165750D01*
X94576250Y-84007000D01*
X93327000Y-84007000D01*
X93073000Y-84007000D01*
X93053000Y-84007000D01*
X93053000Y-83753000D01*
X93073000Y-83753000D01*
X93073000Y-82503750D01*
X93327000Y-82503750D01*
X93327000Y-83753000D01*
X94576250Y-83753000D01*
X94735000Y-83594250D01*
X94738072Y-82980000D01*
X94725812Y-82855518D01*
X94689502Y-82735820D01*
X94630537Y-82625506D01*
X94551185Y-82528815D01*
X94454494Y-82449463D01*
X94344180Y-82390498D01*
X94224482Y-82354188D01*
X94100000Y-82341928D01*
X93485750Y-82345000D01*
X93327000Y-82503750D01*
X93073000Y-82503750D01*
X92914250Y-82345000D01*
X92300000Y-82341928D01*
X92175518Y-82354188D01*
X92055820Y-82390498D01*
X91945506Y-82449463D01*
X91848815Y-82528815D01*
X91769463Y-82625506D01*
X91710498Y-82735820D01*
X91704944Y-82754127D01*
X91638505Y-82687688D01*
X91387095Y-82519701D01*
X91107743Y-82403989D01*
X90811184Y-82345000D01*
X90635486Y-82345000D01*
X92396005Y-80584482D01*
X92425002Y-80560685D01*
X92519975Y-80444960D01*
X92590547Y-80312931D01*
X92634004Y-80169670D01*
X92645001Y-80058017D01*
X92645001Y-80058007D01*
X92648677Y-80020684D01*
X92645001Y-79983361D01*
X92645001Y-78916347D01*
X92914250Y-78915000D01*
X93073000Y-78756250D01*
X93073000Y-77507000D01*
X93327000Y-77507000D01*
X93327000Y-78756250D01*
X93485750Y-78915000D01*
X94100000Y-78918072D01*
X94224482Y-78905812D01*
X94344180Y-78869502D01*
X94454494Y-78810537D01*
X94551185Y-78731185D01*
X94630537Y-78634494D01*
X94689502Y-78524180D01*
X94725812Y-78404482D01*
X94738072Y-78280000D01*
X94735000Y-77665750D01*
X94576250Y-77507000D01*
X93327000Y-77507000D01*
X93073000Y-77507000D01*
X93053000Y-77507000D01*
X93053000Y-77253000D01*
X93073000Y-77253000D01*
X93073000Y-76003750D01*
X93327000Y-76003750D01*
X93327000Y-77253000D01*
X94576250Y-77253000D01*
X94735000Y-77094250D01*
X94738072Y-76480000D01*
X94725812Y-76355518D01*
X94725730Y-76355248D01*
X94739999Y-76361159D01*
X94740000Y-82182667D01*
X94736323Y-82219999D01*
X94740000Y-82257332D01*
X94741687Y-82274455D01*
X94750997Y-82368984D01*
X94794453Y-82512245D01*
X94865025Y-82644275D01*
X94901719Y-82688986D01*
X94959999Y-82760000D01*
X94988997Y-82783798D01*
X95676269Y-83471070D01*
X95625000Y-83728816D01*
X95625000Y-84031184D01*
X95683989Y-84327743D01*
X95799701Y-84607095D01*
X95967688Y-84858505D01*
X96181495Y-85072312D01*
X96432905Y-85240299D01*
X96712257Y-85356011D01*
X97008816Y-85415000D01*
X97311184Y-85415000D01*
X97607743Y-85356011D01*
X97887095Y-85240299D01*
X98138505Y-85072312D01*
X98204944Y-85005873D01*
X98210498Y-85024180D01*
X98269463Y-85134494D01*
X98348815Y-85231185D01*
X98445506Y-85310537D01*
X98555820Y-85369502D01*
X98675518Y-85405812D01*
X98800000Y-85418072D01*
X99414250Y-85415000D01*
X99573000Y-85256250D01*
X99573000Y-84007000D01*
X99827000Y-84007000D01*
X99827000Y-85256250D01*
X99985750Y-85415000D01*
X100600000Y-85418072D01*
X100724482Y-85405812D01*
X100844180Y-85369502D01*
X100954494Y-85310537D01*
X101051185Y-85231185D01*
X101130537Y-85134494D01*
X101189502Y-85024180D01*
X101225812Y-84904482D01*
X101238072Y-84780000D01*
X101235000Y-84165750D01*
X101076250Y-84007000D01*
X99827000Y-84007000D01*
X99573000Y-84007000D01*
X99553000Y-84007000D01*
X99553000Y-83753000D01*
X99573000Y-83753000D01*
X99573000Y-82503750D01*
X99827000Y-82503750D01*
X99827000Y-83753000D01*
X101076250Y-83753000D01*
X101235000Y-83594250D01*
X101238072Y-82980000D01*
X101225812Y-82855518D01*
X101189502Y-82735820D01*
X101130537Y-82625506D01*
X101051185Y-82528815D01*
X100954494Y-82449463D01*
X100844180Y-82390498D01*
X100724482Y-82354188D01*
X100600000Y-82341928D01*
X99985750Y-82345000D01*
X99827000Y-82503750D01*
X99573000Y-82503750D01*
X99414250Y-82345000D01*
X98800000Y-82341928D01*
X98675518Y-82354188D01*
X98555820Y-82390498D01*
X98445506Y-82449463D01*
X98348815Y-82528815D01*
X98269463Y-82625506D01*
X98210498Y-82735820D01*
X98204944Y-82754127D01*
X98138505Y-82687688D01*
X97887095Y-82519701D01*
X97607743Y-82403989D01*
X97311184Y-82345000D01*
X97008816Y-82345000D01*
X96751070Y-82396269D01*
X96259999Y-81905198D01*
X96259999Y-80892293D01*
X96277795Y-80935256D01*
X96391063Y-81104774D01*
X96535226Y-81248937D01*
X96704744Y-81362205D01*
X96893102Y-81440226D01*
X97093061Y-81480000D01*
X97296939Y-81480000D01*
X97496898Y-81440226D01*
X97685256Y-81362205D01*
X97854774Y-81248937D01*
X97998937Y-81104774D01*
X98112205Y-80935256D01*
X98190226Y-80746898D01*
X98230000Y-80546939D01*
X98230000Y-80484801D01*
X98896004Y-79818798D01*
X98925002Y-79795000D01*
X99019975Y-79679275D01*
X99090547Y-79547246D01*
X99134004Y-79403985D01*
X99145001Y-79292332D01*
X99148678Y-79254999D01*
X99145001Y-79217666D01*
X99145001Y-78916347D01*
X99414250Y-78915000D01*
X99573000Y-78756250D01*
X99573000Y-77507000D01*
X99827000Y-77507000D01*
X99827000Y-78756250D01*
X99985750Y-78915000D01*
X100600000Y-78918072D01*
X100724482Y-78905812D01*
X100844180Y-78869502D01*
X100954494Y-78810537D01*
X101051185Y-78731185D01*
X101130537Y-78634494D01*
X101189502Y-78524180D01*
X101225812Y-78404482D01*
X101238072Y-78280000D01*
X101235000Y-77665750D01*
X101076250Y-77507000D01*
X99827000Y-77507000D01*
X99573000Y-77507000D01*
X99553000Y-77507000D01*
X99553000Y-77253000D01*
X99573000Y-77253000D01*
X99573000Y-76003750D01*
X99827000Y-76003750D01*
X99827000Y-77253000D01*
X101076250Y-77253000D01*
X101235000Y-77094250D01*
X101238072Y-76480000D01*
X101225812Y-76355518D01*
X101189502Y-76235820D01*
X101130537Y-76125506D01*
X101051185Y-76028815D01*
X100954494Y-75949463D01*
X100844180Y-75890498D01*
X100724482Y-75854188D01*
X100600000Y-75841928D01*
X99985750Y-75845000D01*
X99827000Y-76003750D01*
X99573000Y-76003750D01*
X99414250Y-75845000D01*
X99145001Y-75843653D01*
X99145001Y-72416347D01*
X99414250Y-72415000D01*
X99573000Y-72256250D01*
X99573000Y-71007000D01*
X99827000Y-71007000D01*
X99827000Y-72256250D01*
X99985750Y-72415000D01*
X100600000Y-72418072D01*
X100724482Y-72405812D01*
X100844180Y-72369502D01*
X100954494Y-72310537D01*
X101051185Y-72231185D01*
X101130537Y-72134494D01*
X101189502Y-72024180D01*
X101225812Y-71904482D01*
X101238072Y-71780000D01*
X101235000Y-71165750D01*
X101076250Y-71007000D01*
X99827000Y-71007000D01*
X99573000Y-71007000D01*
X99553000Y-71007000D01*
X99553000Y-70753000D01*
X99573000Y-70753000D01*
X99573000Y-69503750D01*
X99414250Y-69345000D01*
X98800000Y-69341928D01*
X98675518Y-69354188D01*
X98555820Y-69390498D01*
X98445506Y-69449463D01*
X98348815Y-69528815D01*
X98269463Y-69625506D01*
X98210498Y-69735820D01*
X98204944Y-69754127D01*
X98138505Y-69687688D01*
X97887095Y-69519701D01*
X97607743Y-69403989D01*
X97311184Y-69345000D01*
X97008816Y-69345000D01*
X96712257Y-69403989D01*
X96432905Y-69519701D01*
X96181495Y-69687688D01*
X95967688Y-69901495D01*
X95799701Y-70152905D01*
X95683989Y-70432257D01*
X95625000Y-70728816D01*
X95625000Y-71031184D01*
X95683989Y-71327743D01*
X95799701Y-71607095D01*
X95967688Y-71858505D01*
X96181495Y-72072312D01*
X96432905Y-72240299D01*
X96712257Y-72356011D01*
X97008816Y-72415000D01*
X97311184Y-72415000D01*
X97568930Y-72363731D01*
X97625001Y-72419803D01*
X97625002Y-75911138D01*
X97607743Y-75903989D01*
X97311184Y-75845000D01*
X97008816Y-75845000D01*
X96712257Y-75903989D01*
X96432905Y-76019701D01*
X96259999Y-76135233D01*
X96259999Y-75827321D01*
X96263675Y-75789998D01*
X96259999Y-75752676D01*
X96259999Y-75752666D01*
X96249002Y-75641013D01*
X96205545Y-75497752D01*
X96135000Y-75365774D01*
X96135000Y-75288061D01*
X96095226Y-75088102D01*
X96017205Y-74899744D01*
X95903937Y-74730226D01*
X95759774Y-74586063D01*
X95590256Y-74472795D01*
X95401898Y-74394774D01*
X95201939Y-74355000D01*
X94998061Y-74355000D01*
X94798102Y-74394774D01*
X94609744Y-74472795D01*
X94440226Y-74586063D01*
X94296063Y-74730226D01*
X94182795Y-74899744D01*
X94104774Y-75088102D01*
X94065000Y-75288061D01*
X94065000Y-75491939D01*
X94104774Y-75691898D01*
X94169765Y-75848799D01*
X94100000Y-75841928D01*
X93485750Y-75845000D01*
X93327000Y-76003750D01*
X93073000Y-76003750D01*
X92914250Y-75845000D01*
X92645001Y-75843653D01*
X92645001Y-72416347D01*
X92914250Y-72415000D01*
X93073000Y-72256250D01*
X93073000Y-71007000D01*
X93327000Y-71007000D01*
X93327000Y-72256250D01*
X93485750Y-72415000D01*
X94100000Y-72418072D01*
X94224482Y-72405812D01*
X94344180Y-72369502D01*
X94454494Y-72310537D01*
X94551185Y-72231185D01*
X94630537Y-72134494D01*
X94689502Y-72024180D01*
X94725812Y-71904482D01*
X94738072Y-71780000D01*
X94735000Y-71165750D01*
X94576250Y-71007000D01*
X93327000Y-71007000D01*
X93073000Y-71007000D01*
X93053000Y-71007000D01*
X93053000Y-70753000D01*
X93073000Y-70753000D01*
X93073000Y-69503750D01*
X93327000Y-69503750D01*
X93327000Y-70753000D01*
X94576250Y-70753000D01*
X94735000Y-70594250D01*
X94738072Y-69980000D01*
X94725812Y-69855518D01*
X94689502Y-69735820D01*
X94630537Y-69625506D01*
X94551185Y-69528815D01*
X94454494Y-69449463D01*
X94344180Y-69390498D01*
X94224482Y-69354188D01*
X94100000Y-69341928D01*
X93485750Y-69345000D01*
X93327000Y-69503750D01*
X93073000Y-69503750D01*
X92914250Y-69345000D01*
X92300000Y-69341928D01*
X92175518Y-69354188D01*
X92055820Y-69390498D01*
X91945506Y-69449463D01*
X91848815Y-69528815D01*
X91769463Y-69625506D01*
X91710498Y-69735820D01*
X91704944Y-69754127D01*
X91638505Y-69687688D01*
X91387095Y-69519701D01*
X91107743Y-69403989D01*
X90811184Y-69345000D01*
X90508816Y-69345000D01*
X90212257Y-69403989D01*
X89932905Y-69519701D01*
X89681495Y-69687688D01*
X89467688Y-69901495D01*
X89299701Y-70152905D01*
X89183989Y-70432257D01*
X89125000Y-70728816D01*
X89125000Y-71031184D01*
X89183989Y-71327743D01*
X89299701Y-71607095D01*
X89467688Y-71858505D01*
X89681495Y-72072312D01*
X89932905Y-72240299D01*
X90212257Y-72356011D01*
X90508816Y-72415000D01*
X90811184Y-72415000D01*
X91068930Y-72363731D01*
X91125002Y-72419803D01*
X91125002Y-75911138D01*
X91107743Y-75903989D01*
X90811184Y-75845000D01*
X90508816Y-75845000D01*
X90212257Y-75903989D01*
X89932905Y-76019701D01*
X89681495Y-76187688D01*
X89467688Y-76401495D01*
X89299701Y-76652905D01*
X89183989Y-76932257D01*
X89125000Y-77228816D01*
X89125000Y-77531184D01*
X89183989Y-77827743D01*
X89299701Y-78107095D01*
X89467688Y-78358505D01*
X89681495Y-78572312D01*
X89900000Y-78718313D01*
X89900000Y-79365195D01*
X88760199Y-80504997D01*
X88698061Y-80504997D01*
X88498102Y-80544771D01*
X88309744Y-80622792D01*
X88140226Y-80736060D01*
X87996063Y-80880223D01*
X87882795Y-81049741D01*
X87804774Y-81238099D01*
X87765000Y-81438058D01*
X87765000Y-81641936D01*
X87804774Y-81841895D01*
X87882795Y-82030253D01*
X87889307Y-82039999D01*
X87882795Y-82049744D01*
X87804774Y-82238102D01*
X87778428Y-82370552D01*
X87724482Y-82354188D01*
X87600000Y-82341928D01*
X86985750Y-82345000D01*
X86827000Y-82503750D01*
X86573000Y-82503750D01*
X86414250Y-82345000D01*
X86145001Y-82343653D01*
X86145001Y-78916347D01*
X86414250Y-78915000D01*
X86573000Y-78756250D01*
X86573000Y-77507000D01*
X86827000Y-77507000D01*
X86827000Y-78756250D01*
X86985750Y-78915000D01*
X87600000Y-78918072D01*
X87724482Y-78905812D01*
X87844180Y-78869502D01*
X87954494Y-78810537D01*
X88051185Y-78731185D01*
X88130537Y-78634494D01*
X88189502Y-78524180D01*
X88225812Y-78404482D01*
X88238072Y-78280000D01*
X88235000Y-77665750D01*
X88076250Y-77507000D01*
X86827000Y-77507000D01*
X86573000Y-77507000D01*
X86553000Y-77507000D01*
X86553000Y-77253000D01*
X86573000Y-77253000D01*
X86573000Y-76003750D01*
X86827000Y-76003750D01*
X86827000Y-77253000D01*
X88076250Y-77253000D01*
X88235000Y-77094250D01*
X88238072Y-76480000D01*
X88225812Y-76355518D01*
X88189502Y-76235820D01*
X88130537Y-76125506D01*
X88051185Y-76028815D01*
X87954494Y-75949463D01*
X87844180Y-75890498D01*
X87724482Y-75854188D01*
X87600000Y-75841928D01*
X86985750Y-75845000D01*
X86827000Y-76003750D01*
X86573000Y-76003750D01*
X86414250Y-75845000D01*
X86145001Y-75843653D01*
X86145001Y-72416347D01*
X86414250Y-72415000D01*
X86573000Y-72256250D01*
X86573000Y-71007000D01*
X86827000Y-71007000D01*
X86827000Y-72256250D01*
X86985750Y-72415000D01*
X87600000Y-72418072D01*
X87724482Y-72405812D01*
X87844180Y-72369502D01*
X87954494Y-72310537D01*
X88051185Y-72231185D01*
X88130537Y-72134494D01*
X88189502Y-72024180D01*
X88225812Y-71904482D01*
X88238072Y-71780000D01*
X88235000Y-71165750D01*
X88076250Y-71007000D01*
X86827000Y-71007000D01*
X86573000Y-71007000D01*
X86553000Y-71007000D01*
X86553000Y-70753000D01*
X86573000Y-70753000D01*
X86573000Y-69503750D01*
X86827000Y-69503750D01*
X86827000Y-70753000D01*
X88076250Y-70753000D01*
X88235000Y-70594250D01*
X88238072Y-69980000D01*
X88225812Y-69855518D01*
X88189502Y-69735820D01*
X88130537Y-69625506D01*
X88051185Y-69528815D01*
X87954494Y-69449463D01*
X87844180Y-69390498D01*
X87724482Y-69354188D01*
X87600000Y-69341928D01*
X86985750Y-69345000D01*
X86827000Y-69503750D01*
X86573000Y-69503750D01*
X86414250Y-69345000D01*
X85800000Y-69341928D01*
X85675518Y-69354188D01*
X85555820Y-69390498D01*
X85445506Y-69449463D01*
X85348815Y-69528815D01*
X85269463Y-69625506D01*
X85210498Y-69735820D01*
X85204944Y-69754127D01*
X85138505Y-69687688D01*
X84887095Y-69519701D01*
X84607743Y-69403989D01*
X84311184Y-69345000D01*
X84008816Y-69345000D01*
X83712257Y-69403989D01*
X83432905Y-69519701D01*
X83181495Y-69687688D01*
X82967688Y-69901495D01*
X82799701Y-70152905D01*
X82683989Y-70432257D01*
X82625000Y-70728816D01*
X82625000Y-71031184D01*
X82683989Y-71327743D01*
X82799701Y-71607095D01*
X82967688Y-71858505D01*
X83181495Y-72072312D01*
X83432905Y-72240299D01*
X83712257Y-72356011D01*
X84008816Y-72415000D01*
X84311184Y-72415000D01*
X84568930Y-72363731D01*
X84625002Y-72419803D01*
X84625002Y-75911138D01*
X84607743Y-75903989D01*
X84311184Y-75845000D01*
X84008816Y-75845000D01*
X83712257Y-75903989D01*
X83432905Y-76019701D01*
X83181495Y-76187688D01*
X82967688Y-76401495D01*
X82799701Y-76652905D01*
X82683989Y-76932257D01*
X82625000Y-77228816D01*
X82625000Y-77531184D01*
X82676269Y-77788930D01*
X82121613Y-78343586D01*
X82114236Y-78268691D01*
X82032182Y-77998192D01*
X81898932Y-77748899D01*
X81719608Y-77530392D01*
X81501101Y-77351068D01*
X81251808Y-77217818D01*
X80981309Y-77135764D01*
X80770492Y-77115000D01*
X80629508Y-77115000D01*
X80418691Y-77135764D01*
X80148192Y-77217818D01*
X79898899Y-77351068D01*
X79680392Y-77530392D01*
X79501068Y-77748899D01*
X79367818Y-77998192D01*
X79285764Y-78268691D01*
X79258057Y-78550000D01*
X79285764Y-78831309D01*
X79367818Y-79101808D01*
X79501068Y-79351101D01*
X79680392Y-79569608D01*
X79898899Y-79748932D01*
X80148192Y-79882182D01*
X80418691Y-79964236D01*
X80493586Y-79971613D01*
X80115199Y-80350000D01*
X66909800Y-80350000D01*
X66375739Y-79815939D01*
X66501101Y-79748932D01*
X66719608Y-79569608D01*
X66898932Y-79351101D01*
X67032182Y-79101808D01*
X67114236Y-78831309D01*
X67141943Y-78550000D01*
X67258057Y-78550000D01*
X67285764Y-78831309D01*
X67367818Y-79101808D01*
X67501068Y-79351101D01*
X67680392Y-79569608D01*
X67898899Y-79748932D01*
X68148192Y-79882182D01*
X68418691Y-79964236D01*
X68629508Y-79985000D01*
X68770492Y-79985000D01*
X68981309Y-79964236D01*
X69251808Y-79882182D01*
X69501101Y-79748932D01*
X69719608Y-79569608D01*
X69898932Y-79351101D01*
X70032182Y-79101808D01*
X70114236Y-78831309D01*
X70141943Y-78550000D01*
X70258057Y-78550000D01*
X70285764Y-78831309D01*
X70367818Y-79101808D01*
X70501068Y-79351101D01*
X70680392Y-79569608D01*
X70898899Y-79748932D01*
X71148192Y-79882182D01*
X71418691Y-79964236D01*
X71629508Y-79985000D01*
X71770492Y-79985000D01*
X71981309Y-79964236D01*
X72251808Y-79882182D01*
X72501101Y-79748932D01*
X72719608Y-79569608D01*
X72898932Y-79351101D01*
X73032182Y-79101808D01*
X73114236Y-78831309D01*
X73141943Y-78550000D01*
X73114236Y-78268691D01*
X73032182Y-77998192D01*
X72898932Y-77748899D01*
X72719608Y-77530392D01*
X72501101Y-77351068D01*
X72251808Y-77217818D01*
X71981309Y-77135764D01*
X71770492Y-77115000D01*
X71629508Y-77115000D01*
X71418691Y-77135764D01*
X71148192Y-77217818D01*
X70898899Y-77351068D01*
X70680392Y-77530392D01*
X70501068Y-77748899D01*
X70367818Y-77998192D01*
X70285764Y-78268691D01*
X70258057Y-78550000D01*
X70141943Y-78550000D01*
X70114236Y-78268691D01*
X70032182Y-77998192D01*
X69898932Y-77748899D01*
X69719608Y-77530392D01*
X69501101Y-77351068D01*
X69251808Y-77217818D01*
X68981309Y-77135764D01*
X68770492Y-77115000D01*
X68629508Y-77115000D01*
X68418691Y-77135764D01*
X68148192Y-77217818D01*
X67898899Y-77351068D01*
X67680392Y-77530392D01*
X67501068Y-77748899D01*
X67367818Y-77998192D01*
X67285764Y-78268691D01*
X67258057Y-78550000D01*
X67141943Y-78550000D01*
X67114236Y-78268691D01*
X67032182Y-77998192D01*
X66898932Y-77748899D01*
X66719608Y-77530392D01*
X66501101Y-77351068D01*
X66426817Y-77311362D01*
X66616292Y-77243603D01*
X66741514Y-77176671D01*
X66813097Y-76932702D01*
X66000000Y-76119605D01*
X65186903Y-76932702D01*
X65258486Y-77176671D01*
X65268389Y-77181357D01*
X65148192Y-77217818D01*
X64898899Y-77351068D01*
X64680392Y-77530392D01*
X64563107Y-77673304D01*
X64231370Y-77341567D01*
X64250130Y-77338787D01*
X64516292Y-77243603D01*
X64641514Y-77176671D01*
X64713097Y-76932702D01*
X63900000Y-76119605D01*
X63885858Y-76133748D01*
X63706253Y-75954143D01*
X63720395Y-75940000D01*
X63706253Y-75925858D01*
X63885858Y-75746253D01*
X63900000Y-75760395D01*
X63914143Y-75746253D01*
X64093748Y-75925858D01*
X64079605Y-75940000D01*
X64696971Y-76557366D01*
X64763329Y-76681514D01*
X64845116Y-76705511D01*
X64892702Y-76753097D01*
X64950000Y-76736285D01*
X65007298Y-76753097D01*
X65054884Y-76705511D01*
X65136671Y-76681514D01*
X65188575Y-76571820D01*
X65820395Y-75940000D01*
X65806253Y-75925858D01*
X65985858Y-75746253D01*
X66000000Y-75760395D01*
X66014143Y-75746253D01*
X66193748Y-75925858D01*
X66179605Y-75940000D01*
X66992702Y-76753097D01*
X67236671Y-76681514D01*
X67357571Y-76426004D01*
X67426300Y-76151816D01*
X67440217Y-75869488D01*
X67398787Y-75589870D01*
X67365691Y-75497325D01*
X67454279Y-75449973D01*
X67570004Y-75355000D01*
X67593807Y-75325996D01*
X69872803Y-73047000D01*
X70990000Y-73047000D01*
X70990000Y-73797000D01*
X71035624Y-74006233D01*
X71121191Y-74202545D01*
X71243413Y-74378391D01*
X71397592Y-74527014D01*
X71577803Y-74642702D01*
X71780999Y-74714408D01*
X71948000Y-74587502D01*
X71948000Y-73047000D01*
X70990000Y-73047000D01*
X69872803Y-73047000D01*
X70764814Y-72154990D01*
X70990000Y-72154990D01*
X70990000Y-72793000D01*
X71948000Y-72793000D01*
X71948000Y-72773000D01*
X72202000Y-72773000D01*
X72202000Y-72793000D01*
X72484369Y-72793000D01*
X72495392Y-72850028D01*
X72566813Y-73025126D01*
X72571730Y-73034323D01*
X72754073Y-73047000D01*
X72202000Y-73047000D01*
X72202000Y-74587502D01*
X72369001Y-74714408D01*
X72572197Y-74642702D01*
X72752408Y-74527014D01*
X72906587Y-74378391D01*
X73028809Y-74202545D01*
X73095225Y-74050170D01*
X73245395Y-73900000D01*
X73231253Y-73885858D01*
X73315829Y-73801281D01*
X73315000Y-73805448D01*
X73315000Y-73994552D01*
X73347361Y-74157244D01*
X72952069Y-74552536D01*
X72959935Y-74665682D01*
X72818899Y-74741068D01*
X72600392Y-74920392D01*
X72421068Y-75138899D01*
X72287818Y-75388192D01*
X72205764Y-75658691D01*
X72178057Y-75940000D01*
X72205764Y-76221309D01*
X72287818Y-76491808D01*
X72421068Y-76741101D01*
X72600392Y-76959608D01*
X72818899Y-77138932D01*
X73068192Y-77272182D01*
X73338691Y-77354236D01*
X73549508Y-77375000D01*
X73690492Y-77375000D01*
X73894184Y-77354938D01*
X73680392Y-77530392D01*
X73501068Y-77748899D01*
X73367818Y-77998192D01*
X73285764Y-78268691D01*
X73258057Y-78550000D01*
X73285764Y-78831309D01*
X73367818Y-79101808D01*
X73501068Y-79351101D01*
X73680392Y-79569608D01*
X73898899Y-79748932D01*
X74148192Y-79882182D01*
X74418691Y-79964236D01*
X74629508Y-79985000D01*
X74770492Y-79985000D01*
X74981309Y-79964236D01*
X75251808Y-79882182D01*
X75501101Y-79748932D01*
X75719608Y-79569608D01*
X75898932Y-79351101D01*
X76032182Y-79101808D01*
X76114236Y-78831309D01*
X76141943Y-78550000D01*
X76258057Y-78550000D01*
X76285764Y-78831309D01*
X76367818Y-79101808D01*
X76501068Y-79351101D01*
X76680392Y-79569608D01*
X76898899Y-79748932D01*
X77148192Y-79882182D01*
X77418691Y-79964236D01*
X77629508Y-79985000D01*
X77770492Y-79985000D01*
X77981309Y-79964236D01*
X78251808Y-79882182D01*
X78501101Y-79748932D01*
X78719608Y-79569608D01*
X78898932Y-79351101D01*
X79032182Y-79101808D01*
X79114236Y-78831309D01*
X79141943Y-78550000D01*
X79114236Y-78268691D01*
X79032182Y-77998192D01*
X78898932Y-77748899D01*
X78719608Y-77530392D01*
X78501101Y-77351068D01*
X78251808Y-77217818D01*
X77981309Y-77135764D01*
X77770492Y-77115000D01*
X77629508Y-77115000D01*
X77418691Y-77135764D01*
X77148192Y-77217818D01*
X76898899Y-77351068D01*
X76680392Y-77530392D01*
X76501068Y-77748899D01*
X76367818Y-77998192D01*
X76285764Y-78268691D01*
X76258057Y-78550000D01*
X76141943Y-78550000D01*
X76114236Y-78268691D01*
X76032182Y-77998192D01*
X75898932Y-77748899D01*
X75719608Y-77530392D01*
X75501101Y-77351068D01*
X75251808Y-77217818D01*
X74981309Y-77135764D01*
X74770492Y-77115000D01*
X74629508Y-77115000D01*
X74425816Y-77135062D01*
X74639608Y-76959608D01*
X74818932Y-76741101D01*
X74840901Y-76700000D01*
X76057297Y-76700000D01*
X76094619Y-76703676D01*
X76131941Y-76700000D01*
X76131952Y-76700000D01*
X76243605Y-76689003D01*
X76386866Y-76645546D01*
X76518895Y-76574974D01*
X76634620Y-76480001D01*
X76658423Y-76450997D01*
X78186004Y-74923417D01*
X78215001Y-74899620D01*
X78273188Y-74828719D01*
X78430448Y-74860000D01*
X78619552Y-74860000D01*
X78805022Y-74823108D01*
X78950420Y-74762882D01*
X79089992Y-74821581D01*
X79275260Y-74859475D01*
X79464361Y-74860497D01*
X79650028Y-74824608D01*
X79825126Y-74753187D01*
X79834323Y-74748270D01*
X79847931Y-74552536D01*
X79452639Y-74157244D01*
X79485000Y-73994552D01*
X79485000Y-73805448D01*
X79484171Y-73801281D01*
X79568748Y-73885858D01*
X79554605Y-73900000D01*
X79704775Y-74050170D01*
X79771191Y-74202545D01*
X79893413Y-74378391D01*
X80047592Y-74527014D01*
X80227803Y-74642702D01*
X80430999Y-74714408D01*
X80598000Y-74587502D01*
X80598000Y-73047000D01*
X80852000Y-73047000D01*
X80852000Y-74587502D01*
X81019001Y-74714408D01*
X81222197Y-74642702D01*
X81402408Y-74527014D01*
X81556587Y-74378391D01*
X81678809Y-74202545D01*
X81764376Y-74006233D01*
X81810000Y-73797000D01*
X81810000Y-73047000D01*
X80852000Y-73047000D01*
X80598000Y-73047000D01*
X80040927Y-73047000D01*
X80223270Y-73034323D01*
X80296581Y-72860008D01*
X80310287Y-72793000D01*
X80598000Y-72793000D01*
X80598000Y-71252498D01*
X80852000Y-71252498D01*
X80852000Y-72793000D01*
X81810000Y-72793000D01*
X81810000Y-72043000D01*
X81764376Y-71833767D01*
X81678809Y-71637455D01*
X81556587Y-71461609D01*
X81402408Y-71312986D01*
X81222197Y-71197298D01*
X81019001Y-71125592D01*
X80852000Y-71252498D01*
X80598000Y-71252498D01*
X80430999Y-71125592D01*
X80227803Y-71197298D01*
X80047592Y-71312986D01*
X79893413Y-71461609D01*
X79771191Y-71637455D01*
X79748087Y-71690462D01*
X79660008Y-71653419D01*
X79474740Y-71615525D01*
X79285639Y-71614503D01*
X79099972Y-71650392D01*
X78947019Y-71712780D01*
X78800022Y-71651892D01*
X78614552Y-71615000D01*
X78425448Y-71615000D01*
X78239978Y-71651892D01*
X78095000Y-71711944D01*
X77950022Y-71651892D01*
X77764552Y-71615000D01*
X77575448Y-71615000D01*
X77389978Y-71651892D01*
X77245000Y-71711944D01*
X77100022Y-71651892D01*
X76914552Y-71615000D01*
X76725448Y-71615000D01*
X76539978Y-71651892D01*
X76395000Y-71711944D01*
X76250022Y-71651892D01*
X76064552Y-71615000D01*
X75875448Y-71615000D01*
X75689978Y-71651892D01*
X75545000Y-71711944D01*
X75400022Y-71651892D01*
X75379643Y-71647838D01*
X74615795Y-70883992D01*
X74591993Y-70854989D01*
X74476268Y-70760016D01*
X74344239Y-70689444D01*
X74200978Y-70645987D01*
X74089325Y-70634990D01*
X74089314Y-70634990D01*
X74051992Y-70631314D01*
X74014670Y-70634990D01*
X72915901Y-70634990D01*
X73028809Y-70472545D01*
X73114376Y-70276233D01*
X73160000Y-70067000D01*
X73160000Y-69667000D01*
X79640000Y-69667000D01*
X79640000Y-70067000D01*
X79685624Y-70276233D01*
X79771191Y-70472545D01*
X79893413Y-70648391D01*
X80047592Y-70797014D01*
X80227803Y-70912702D01*
X80430999Y-70984408D01*
X80598000Y-70857502D01*
X80598000Y-69667000D01*
X80852000Y-69667000D01*
X80852000Y-70857502D01*
X81019001Y-70984408D01*
X81222197Y-70912702D01*
X81402408Y-70797014D01*
X81556587Y-70648391D01*
X81678809Y-70472545D01*
X81764376Y-70276233D01*
X81810000Y-70067000D01*
X81810000Y-69667000D01*
X80852000Y-69667000D01*
X80598000Y-69667000D01*
X79640000Y-69667000D01*
X73160000Y-69667000D01*
X72202000Y-69667000D01*
X72202000Y-69687000D01*
X71948000Y-69687000D01*
X71948000Y-69667000D01*
X70990000Y-69667000D01*
X70990000Y-70067000D01*
X71035624Y-70276233D01*
X71121191Y-70472545D01*
X71234099Y-70634990D01*
X70487334Y-70634990D01*
X70450011Y-70631314D01*
X70412688Y-70634990D01*
X70412679Y-70634990D01*
X70301026Y-70645987D01*
X70157765Y-70689444D01*
X70025735Y-70760016D01*
X69942095Y-70828658D01*
X69910011Y-70854989D01*
X69886213Y-70883987D01*
X69538072Y-71232128D01*
X69538072Y-70190000D01*
X69525812Y-70065518D01*
X69489502Y-69945820D01*
X69430537Y-69835506D01*
X69351185Y-69738815D01*
X69254494Y-69659463D01*
X69144180Y-69600498D01*
X69024482Y-69564188D01*
X68900000Y-69551928D01*
X67300000Y-69551928D01*
X67175518Y-69564188D01*
X67055820Y-69600498D01*
X66945506Y-69659463D01*
X66848815Y-69738815D01*
X66769463Y-69835506D01*
X66710498Y-69945820D01*
X66674188Y-70065518D01*
X66661928Y-70190000D01*
X66661928Y-71790000D01*
X66674188Y-71914482D01*
X66710498Y-72034180D01*
X66769463Y-72144494D01*
X66848815Y-72241185D01*
X66945506Y-72320537D01*
X67055820Y-72379502D01*
X67175518Y-72415812D01*
X67300000Y-72428072D01*
X68342128Y-72428072D01*
X66715202Y-74054999D01*
X57442323Y-74054999D01*
X57405000Y-74051323D01*
X57367677Y-74054999D01*
X57367668Y-74054999D01*
X57256015Y-74065996D01*
X57112754Y-74109453D01*
X56980725Y-74180025D01*
X56865000Y-74274998D01*
X56841197Y-74304002D01*
X56605907Y-74539292D01*
X56561309Y-74525764D01*
X56350492Y-74505000D01*
X56209508Y-74505000D01*
X55998691Y-74525764D01*
X55960000Y-74537501D01*
X55960000Y-70990000D01*
X59038057Y-70990000D01*
X59065764Y-71271309D01*
X59147818Y-71541808D01*
X59281068Y-71791101D01*
X59460392Y-72009608D01*
X59678899Y-72188932D01*
X59928192Y-72322182D01*
X60198691Y-72404236D01*
X60409508Y-72425000D01*
X60550492Y-72425000D01*
X60761309Y-72404236D01*
X61031808Y-72322182D01*
X61281101Y-72188932D01*
X61499608Y-72009608D01*
X61678932Y-71791101D01*
X61812182Y-71541808D01*
X61894236Y-71271309D01*
X61921943Y-70990000D01*
X61894236Y-70708691D01*
X61812182Y-70438192D01*
X61678932Y-70188899D01*
X61499608Y-69970392D01*
X61281101Y-69791068D01*
X61031808Y-69657818D01*
X60761309Y-69575764D01*
X60550492Y-69555000D01*
X60409508Y-69555000D01*
X60198691Y-69575764D01*
X59928192Y-69657818D01*
X59678899Y-69791068D01*
X59460392Y-69970392D01*
X59281068Y-70188899D01*
X59147818Y-70438192D01*
X59065764Y-70708691D01*
X59038057Y-70990000D01*
X55960000Y-70990000D01*
X55960000Y-70554275D01*
X55993919Y-70568325D01*
X56329117Y-70635000D01*
X56670883Y-70635000D01*
X57006081Y-70568325D01*
X57321831Y-70437537D01*
X57605998Y-70247663D01*
X57847663Y-70005998D01*
X58037537Y-69721831D01*
X58168325Y-69406081D01*
X58235000Y-69070883D01*
X58235000Y-68729117D01*
X58168325Y-68393919D01*
X58154275Y-68360000D01*
X71317699Y-68360000D01*
X71243413Y-68431609D01*
X71243413Y-68431609D01*
G37*
X71243413Y-68431609D02*
X71121191Y-68607455D01*
X71035624Y-68803767D01*
X70990000Y-69013000D01*
X70990000Y-69413000D01*
X71948000Y-69413000D01*
X71948000Y-69393000D01*
X72202000Y-69393000D01*
X72202000Y-69413000D01*
X73160000Y-69413000D01*
X73160000Y-69013000D01*
X73114376Y-68803767D01*
X73028809Y-68607455D01*
X72906587Y-68431609D01*
X72832301Y-68360000D01*
X79967699Y-68360000D01*
X79893413Y-68431609D01*
X79771191Y-68607455D01*
X79685624Y-68803767D01*
X79640000Y-69013000D01*
X79640000Y-69413000D01*
X80598000Y-69413000D01*
X80598000Y-69393000D01*
X80852000Y-69393000D01*
X80852000Y-69413000D01*
X81810000Y-69413000D01*
X81810000Y-69013000D01*
X81764376Y-68803767D01*
X81678809Y-68607455D01*
X81556587Y-68431609D01*
X81482301Y-68360000D01*
X100945725Y-68360000D01*
X100931675Y-68393919D01*
X100865000Y-68729117D01*
X100865000Y-69070883D01*
X100931675Y-69406081D01*
X100948265Y-69446134D01*
X100844180Y-69390498D01*
X100724482Y-69354188D01*
X100600000Y-69341928D01*
X99985750Y-69345000D01*
X99827000Y-69503750D01*
X99827000Y-70753000D01*
X101076250Y-70753000D01*
X101235000Y-70594250D01*
X101238049Y-69984614D01*
X101252337Y-70005998D01*
X101494002Y-70247663D01*
X101778169Y-70437537D01*
X102093919Y-70568325D01*
X102429117Y-70635000D01*
X102770883Y-70635000D01*
X103106081Y-70568325D01*
X103140000Y-70554275D01*
X103140001Y-130745725D01*
X103106081Y-130731675D01*
X102770883Y-130665000D01*
X102429117Y-130665000D01*
X102093919Y-130731675D01*
X101778169Y-130862463D01*
X101494002Y-131052337D01*
X101252337Y-131294002D01*
X101062463Y-131578169D01*
X100931675Y-131893919D01*
X100865000Y-132229117D01*
X100865000Y-132570883D01*
X100931675Y-132906081D01*
X100945725Y-132940000D01*
X95086866Y-132940000D01*
X95162415Y-132864451D01*
X95343097Y-132594042D01*
X95467553Y-132293579D01*
X95531000Y-131974609D01*
X95531000Y-131649391D01*
X95467553Y-131330421D01*
X95343097Y-131029958D01*
X95162415Y-130759549D01*
X94932451Y-130529585D01*
X94662042Y-130348903D01*
X94361579Y-130224447D01*
X94042609Y-130161000D01*
X93717391Y-130161000D01*
X93398421Y-130224447D01*
X93097958Y-130348903D01*
X92827549Y-130529585D01*
X92597585Y-130759549D01*
X92416903Y-131029958D01*
X92292447Y-131330421D01*
X92229000Y-131649391D01*
X92229000Y-131974609D01*
X92292447Y-132293579D01*
X92416903Y-132594042D01*
X92597585Y-132864451D01*
X92673134Y-132940000D01*
X79986866Y-132940000D01*
X80062415Y-132864451D01*
X80243097Y-132594042D01*
X80367553Y-132293579D01*
X80431000Y-131974609D01*
X80431000Y-131649391D01*
X80367553Y-131330421D01*
X80243097Y-131029958D01*
X80062415Y-130759549D01*
X79832451Y-130529585D01*
X79562042Y-130348903D01*
X79261579Y-130224447D01*
X78942609Y-130161000D01*
X78617391Y-130161000D01*
X78298421Y-130224447D01*
X77997958Y-130348903D01*
X77727549Y-130529585D01*
X77497585Y-130759549D01*
X77316903Y-131029958D01*
X77192447Y-131330421D01*
X77129000Y-131649391D01*
X77129000Y-131974609D01*
X77192447Y-132293579D01*
X77316903Y-132594042D01*
X77497585Y-132864451D01*
X77573134Y-132940000D01*
X64886866Y-132940000D01*
X64962415Y-132864451D01*
X65143097Y-132594042D01*
X65267553Y-132293579D01*
X65331000Y-131974609D01*
X65331000Y-131649391D01*
X65267553Y-131330421D01*
X65143097Y-131029958D01*
X64962415Y-130759549D01*
X64732451Y-130529585D01*
X64462042Y-130348903D01*
X64161579Y-130224447D01*
X63842609Y-130161000D01*
X63517391Y-130161000D01*
X63198421Y-130224447D01*
X62897958Y-130348903D01*
X62627549Y-130529585D01*
X62397585Y-130759549D01*
X62216903Y-131029958D01*
X62092447Y-131330421D01*
X62029000Y-131649391D01*
X62029000Y-131974609D01*
X62092447Y-132293579D01*
X62216903Y-132594042D01*
X62397585Y-132864451D01*
X62473134Y-132940000D01*
X58154275Y-132940000D01*
X58168325Y-132906081D01*
X58235000Y-132570883D01*
X58235000Y-132229117D01*
X58168325Y-131893919D01*
X58037537Y-131578169D01*
X57847663Y-131294002D01*
X57605998Y-131052337D01*
X57321831Y-130862463D01*
X57006081Y-130731675D01*
X56670883Y-130665000D01*
X56329117Y-130665000D01*
X55993919Y-130731675D01*
X55960000Y-130745725D01*
X55960000Y-125765652D01*
X56694100Y-125765652D01*
X56694100Y-126058348D01*
X56751202Y-126345421D01*
X56863212Y-126615838D01*
X57025826Y-126859206D01*
X57232794Y-127066174D01*
X57476162Y-127228788D01*
X57746579Y-127340798D01*
X58033652Y-127397900D01*
X58326348Y-127397900D01*
X58613421Y-127340798D01*
X58883838Y-127228788D01*
X59127206Y-127066174D01*
X59334174Y-126859206D01*
X59496788Y-126615838D01*
X59608798Y-126345421D01*
X59665900Y-126058348D01*
X59665900Y-125765652D01*
X59608798Y-125478579D01*
X59496788Y-125208162D01*
X59334174Y-124964794D01*
X59127206Y-124757826D01*
X58883838Y-124595212D01*
X58613421Y-124483202D01*
X58326348Y-124426100D01*
X58033652Y-124426100D01*
X57746579Y-124483202D01*
X57476162Y-124595212D01*
X57232794Y-124757826D01*
X57025826Y-124964794D01*
X56863212Y-125208162D01*
X56751202Y-125478579D01*
X56694100Y-125765652D01*
X55960000Y-125765652D01*
X55960000Y-110665652D01*
X56694100Y-110665652D01*
X56694100Y-110958348D01*
X56751202Y-111245421D01*
X56863212Y-111515838D01*
X57025826Y-111759206D01*
X57232794Y-111966174D01*
X57476162Y-112128788D01*
X57746579Y-112240798D01*
X58033652Y-112297900D01*
X58326348Y-112297900D01*
X58613421Y-112240798D01*
X58883838Y-112128788D01*
X59127206Y-111966174D01*
X59334174Y-111759206D01*
X59496788Y-111515838D01*
X59608798Y-111245421D01*
X59665900Y-110958348D01*
X59665900Y-110665652D01*
X59608798Y-110378579D01*
X59496788Y-110108162D01*
X59334174Y-109864794D01*
X59127206Y-109657826D01*
X58883838Y-109495212D01*
X58613421Y-109383202D01*
X58326348Y-109326100D01*
X58033652Y-109326100D01*
X57746579Y-109383202D01*
X57476162Y-109495212D01*
X57232794Y-109657826D01*
X57025826Y-109864794D01*
X56863212Y-110108162D01*
X56751202Y-110378579D01*
X56694100Y-110665652D01*
X55960000Y-110665652D01*
X55960000Y-97866801D01*
X57101577Y-99008379D01*
X57092447Y-99030421D01*
X57029000Y-99349391D01*
X57029000Y-99674609D01*
X57092447Y-99993579D01*
X57216903Y-100294042D01*
X57397585Y-100564451D01*
X57627549Y-100794415D01*
X57897958Y-100975097D01*
X58198421Y-101099553D01*
X58517391Y-101163000D01*
X58842609Y-101163000D01*
X59161579Y-101099553D01*
X59462042Y-100975097D01*
X59732451Y-100794415D01*
X59740000Y-100786866D01*
X59740000Y-112477198D01*
X59185001Y-113032198D01*
X59184996Y-113032202D01*
X59183621Y-113033577D01*
X59161579Y-113024447D01*
X58842609Y-112961000D01*
X58517391Y-112961000D01*
X58198421Y-113024447D01*
X57897958Y-113148903D01*
X57627549Y-113329585D01*
X57397585Y-113559549D01*
X57216903Y-113829958D01*
X57092447Y-114130421D01*
X57029000Y-114449391D01*
X57029000Y-114774609D01*
X57092447Y-115093579D01*
X57216903Y-115394042D01*
X57397585Y-115664451D01*
X57627549Y-115894415D01*
X57897958Y-116075097D01*
X58198421Y-116199553D01*
X58517391Y-116263000D01*
X58842609Y-116263000D01*
X59161579Y-116199553D01*
X59462042Y-116075097D01*
X59732451Y-115894415D01*
X59962415Y-115664451D01*
X60143097Y-115394042D01*
X60267553Y-115093579D01*
X60331000Y-114774609D01*
X60331000Y-114449391D01*
X60267553Y-114130421D01*
X60258423Y-114108379D01*
X60259798Y-114107004D01*
X60259802Y-114106999D01*
X60880500Y-113486302D01*
X60880500Y-126436698D01*
X59185001Y-128132198D01*
X59184996Y-128132202D01*
X59183621Y-128133577D01*
X59161579Y-128124447D01*
X58842609Y-128061000D01*
X58517391Y-128061000D01*
X58198421Y-128124447D01*
X57897958Y-128248903D01*
X57627549Y-128429585D01*
X57397585Y-128659549D01*
X57216903Y-128929958D01*
X57092447Y-129230421D01*
X57029000Y-129549391D01*
X57029000Y-129874609D01*
X57092447Y-130193579D01*
X57216903Y-130494042D01*
X57397585Y-130764451D01*
X57627549Y-130994415D01*
X57897958Y-131175097D01*
X58198421Y-131299553D01*
X58517391Y-131363000D01*
X58842609Y-131363000D01*
X59161579Y-131299553D01*
X59462042Y-131175097D01*
X59732451Y-130994415D01*
X59962415Y-130764451D01*
X60143097Y-130494042D01*
X60267553Y-130193579D01*
X60331000Y-129874609D01*
X60331000Y-129549391D01*
X60267553Y-129230421D01*
X60258423Y-129208379D01*
X60259798Y-129207004D01*
X60259802Y-129206999D01*
X61956053Y-127510748D01*
X62182281Y-127736976D01*
X62567095Y-127994100D01*
X62994676Y-128171210D01*
X63448594Y-128261500D01*
X63911406Y-128261500D01*
X64365324Y-128171210D01*
X64792905Y-127994100D01*
X65177719Y-127736976D01*
X65504976Y-127409719D01*
X65762100Y-127024905D01*
X65939210Y-126597324D01*
X66029500Y-126143406D01*
X66029500Y-125765652D01*
X67694100Y-125765652D01*
X67694100Y-126058348D01*
X67751202Y-126345421D01*
X67863212Y-126615838D01*
X68025826Y-126859206D01*
X68232794Y-127066174D01*
X68476162Y-127228788D01*
X68746579Y-127340798D01*
X69033652Y-127397900D01*
X69326348Y-127397900D01*
X69613421Y-127340798D01*
X69883838Y-127228788D01*
X70127206Y-127066174D01*
X70334174Y-126859206D01*
X70496788Y-126615838D01*
X70608798Y-126345421D01*
X70665900Y-126058348D01*
X70665900Y-125765652D01*
X71794100Y-125765652D01*
X71794100Y-126058348D01*
X71851202Y-126345421D01*
X71963212Y-126615838D01*
X72125826Y-126859206D01*
X72332794Y-127066174D01*
X72576162Y-127228788D01*
X72846579Y-127340798D01*
X73133652Y-127397900D01*
X73426348Y-127397900D01*
X73713421Y-127340798D01*
X73983838Y-127228788D01*
X74227206Y-127066174D01*
X74434174Y-126859206D01*
X74596788Y-126615838D01*
X74708798Y-126345421D01*
X74765900Y-126058348D01*
X74765900Y-125765652D01*
X74708798Y-125478579D01*
X74596788Y-125208162D01*
X74434174Y-124964794D01*
X74227206Y-124757826D01*
X73983838Y-124595212D01*
X73713421Y-124483202D01*
X73426348Y-124426100D01*
X73133652Y-124426100D01*
X72846579Y-124483202D01*
X72576162Y-124595212D01*
X72332794Y-124757826D01*
X72125826Y-124964794D01*
X71963212Y-125208162D01*
X71851202Y-125478579D01*
X71794100Y-125765652D01*
X70665900Y-125765652D01*
X70608798Y-125478579D01*
X70496788Y-125208162D01*
X70334174Y-124964794D01*
X70127206Y-124757826D01*
X69883838Y-124595212D01*
X69613421Y-124483202D01*
X69326348Y-124426100D01*
X69033652Y-124426100D01*
X68746579Y-124483202D01*
X68476162Y-124595212D01*
X68232794Y-124757826D01*
X68025826Y-124964794D01*
X67863212Y-125208162D01*
X67751202Y-125478579D01*
X67694100Y-125765652D01*
X66029500Y-125765652D01*
X66029500Y-125680594D01*
X65939210Y-125226676D01*
X65762100Y-124799095D01*
X65504976Y-124414281D01*
X65177719Y-124087024D01*
X64792905Y-123829900D01*
X64365324Y-123652790D01*
X63911406Y-123562500D01*
X63448594Y-123562500D01*
X62994676Y-123652790D01*
X62567095Y-123829900D01*
X62400499Y-123941216D01*
X62400499Y-121674807D01*
X62668698Y-121854012D01*
X63057244Y-122014953D01*
X63469721Y-122097000D01*
X63890279Y-122097000D01*
X64302756Y-122014953D01*
X64455411Y-121951721D01*
X66545000Y-121951721D01*
X66545000Y-122372279D01*
X66627047Y-122784756D01*
X66787988Y-123173302D01*
X67021637Y-123522983D01*
X67319017Y-123820363D01*
X67668698Y-124054012D01*
X68057244Y-124214953D01*
X68469721Y-124297000D01*
X68890279Y-124297000D01*
X69302756Y-124214953D01*
X69691302Y-124054012D01*
X70040983Y-123820363D01*
X70338363Y-123522983D01*
X70572012Y-123173302D01*
X70732953Y-122784756D01*
X70815000Y-122372279D01*
X70815000Y-121951721D01*
X70732953Y-121539244D01*
X70572012Y-121150698D01*
X70338363Y-120801017D01*
X70040983Y-120503637D01*
X69691302Y-120269988D01*
X69302756Y-120109047D01*
X68890279Y-120027000D01*
X68469721Y-120027000D01*
X68057244Y-120109047D01*
X67668698Y-120269988D01*
X67319017Y-120503637D01*
X67021637Y-120801017D01*
X66787988Y-121150698D01*
X66627047Y-121539244D01*
X66545000Y-121951721D01*
X64455411Y-121951721D01*
X64691302Y-121854012D01*
X65040983Y-121620363D01*
X65338363Y-121322983D01*
X65572012Y-120973302D01*
X65732953Y-120584756D01*
X65815000Y-120172279D01*
X65815000Y-119751721D01*
X65732953Y-119339244D01*
X65572012Y-118950698D01*
X65338363Y-118601017D01*
X65040983Y-118303637D01*
X64691302Y-118069988D01*
X64646884Y-118051589D01*
X64732451Y-117994415D01*
X64962415Y-117764451D01*
X65143097Y-117494042D01*
X65267553Y-117193579D01*
X65331000Y-116874609D01*
X65331000Y-116549391D01*
X65267553Y-116230421D01*
X65143097Y-115929958D01*
X64962415Y-115659549D01*
X64732451Y-115429585D01*
X64462042Y-115248903D01*
X64161579Y-115124447D01*
X63842609Y-115061000D01*
X63517391Y-115061000D01*
X63198421Y-115124447D01*
X62897958Y-115248903D01*
X62627549Y-115429585D01*
X62400499Y-115656635D01*
X62400499Y-112782784D01*
X62567095Y-112894100D01*
X62994676Y-113071210D01*
X63448594Y-113161500D01*
X63911406Y-113161500D01*
X64365324Y-113071210D01*
X64792905Y-112894100D01*
X65177719Y-112636976D01*
X65504976Y-112309719D01*
X65762100Y-111924905D01*
X65939210Y-111497324D01*
X66029500Y-111043406D01*
X66029500Y-110665652D01*
X67694100Y-110665652D01*
X67694100Y-110958348D01*
X67751202Y-111245421D01*
X67863212Y-111515838D01*
X68025826Y-111759206D01*
X68232794Y-111966174D01*
X68476162Y-112128788D01*
X68746579Y-112240798D01*
X69033652Y-112297900D01*
X69326348Y-112297900D01*
X69613421Y-112240798D01*
X69883838Y-112128788D01*
X70127206Y-111966174D01*
X70334174Y-111759206D01*
X70496788Y-111515838D01*
X70608798Y-111245421D01*
X70665900Y-110958348D01*
X70665900Y-110665652D01*
X70608798Y-110378579D01*
X70496788Y-110108162D01*
X70334174Y-109864794D01*
X70127206Y-109657826D01*
X69883838Y-109495212D01*
X69613421Y-109383202D01*
X69326348Y-109326100D01*
X69033652Y-109326100D01*
X68746579Y-109383202D01*
X68476162Y-109495212D01*
X68232794Y-109657826D01*
X68025826Y-109864794D01*
X67863212Y-110108162D01*
X67751202Y-110378579D01*
X67694100Y-110665652D01*
X66029500Y-110665652D01*
X66029500Y-110580594D01*
X65939210Y-110126676D01*
X65762100Y-109699095D01*
X65504976Y-109314281D01*
X65177719Y-108987024D01*
X64792905Y-108729900D01*
X64365324Y-108552790D01*
X63911406Y-108462500D01*
X63448594Y-108462500D01*
X62994676Y-108552790D01*
X62567095Y-108729900D01*
X62400499Y-108841216D01*
X62400499Y-106574807D01*
X62668698Y-106754012D01*
X63057244Y-106914953D01*
X63469721Y-106997000D01*
X63890279Y-106997000D01*
X64302756Y-106914953D01*
X64455411Y-106851721D01*
X66545000Y-106851721D01*
X66545000Y-107272279D01*
X66627047Y-107684756D01*
X66787988Y-108073302D01*
X67021637Y-108422983D01*
X67319017Y-108720363D01*
X67668698Y-108954012D01*
X68057244Y-109114953D01*
X68469721Y-109197000D01*
X68890279Y-109197000D01*
X69302756Y-109114953D01*
X69691302Y-108954012D01*
X70040983Y-108720363D01*
X70338363Y-108422983D01*
X70572012Y-108073302D01*
X70732953Y-107684756D01*
X70815000Y-107272279D01*
X70815000Y-106851721D01*
X70732953Y-106439244D01*
X70572012Y-106050698D01*
X70338363Y-105701017D01*
X70040983Y-105403637D01*
X69691302Y-105169988D01*
X69302756Y-105009047D01*
X68890279Y-104927000D01*
X68469721Y-104927000D01*
X68057244Y-105009047D01*
X67668698Y-105169988D01*
X67319017Y-105403637D01*
X67021637Y-105701017D01*
X66787988Y-106050698D01*
X66627047Y-106439244D01*
X66545000Y-106851721D01*
X64455411Y-106851721D01*
X64691302Y-106754012D01*
X65040983Y-106520363D01*
X65338363Y-106222983D01*
X65572012Y-105873302D01*
X65732953Y-105484756D01*
X65815000Y-105072279D01*
X65815000Y-104651721D01*
X65732953Y-104239244D01*
X65572012Y-103850698D01*
X65338363Y-103501017D01*
X65040983Y-103203637D01*
X64691302Y-102969988D01*
X64646884Y-102951589D01*
X64732451Y-102894415D01*
X64962415Y-102664451D01*
X65143097Y-102394042D01*
X65267553Y-102093579D01*
X65331000Y-101774609D01*
X65331000Y-101449391D01*
X65267553Y-101130421D01*
X65143097Y-100829958D01*
X64962415Y-100559549D01*
X64732451Y-100329585D01*
X64462042Y-100148903D01*
X64161579Y-100024447D01*
X63842609Y-99961000D01*
X63517391Y-99961000D01*
X63198421Y-100024447D01*
X62897958Y-100148903D01*
X62627549Y-100329585D01*
X62400499Y-100556635D01*
X62400499Y-97682784D01*
X62567095Y-97794100D01*
X62994676Y-97971210D01*
X63448594Y-98061500D01*
X63911406Y-98061500D01*
X64365324Y-97971210D01*
X64792905Y-97794100D01*
X65177719Y-97536976D01*
X65504976Y-97209719D01*
X65762100Y-96824905D01*
X65939210Y-96397324D01*
X66029500Y-95943406D01*
X66029500Y-95480594D01*
X66003687Y-95350822D01*
X70675867Y-100023003D01*
X70699665Y-100052001D01*
X70815390Y-100146974D01*
X70947419Y-100217546D01*
X71090680Y-100261003D01*
X71202333Y-100272000D01*
X71202341Y-100272000D01*
X71239666Y-100275676D01*
X71276991Y-100272000D01*
X72307773Y-100272000D01*
X72316903Y-100294042D01*
X72497585Y-100564451D01*
X72727549Y-100794415D01*
X72997958Y-100975097D01*
X73298421Y-101099553D01*
X73617391Y-101163000D01*
X73942609Y-101163000D01*
X74261579Y-101099553D01*
X74361001Y-101058371D01*
X74361002Y-109791622D01*
X74227206Y-109657826D01*
X73983838Y-109495212D01*
X73713421Y-109383202D01*
X73426348Y-109326100D01*
X73133652Y-109326100D01*
X72846579Y-109383202D01*
X72576162Y-109495212D01*
X72332794Y-109657826D01*
X72125826Y-109864794D01*
X71963212Y-110108162D01*
X71851202Y-110378579D01*
X71794100Y-110665652D01*
X71794100Y-110958348D01*
X71851202Y-111245421D01*
X71963212Y-111515838D01*
X72125826Y-111759206D01*
X72332794Y-111966174D01*
X72576162Y-112128788D01*
X72846579Y-112240798D01*
X73133652Y-112297900D01*
X73426348Y-112297900D01*
X73713421Y-112240798D01*
X73983838Y-112128788D01*
X74227206Y-111966174D01*
X74361002Y-111832378D01*
X74361002Y-112956197D01*
X74285002Y-113032197D01*
X74284996Y-113032202D01*
X74283621Y-113033577D01*
X74261579Y-113024447D01*
X73942609Y-112961000D01*
X73617391Y-112961000D01*
X73298421Y-113024447D01*
X72997958Y-113148903D01*
X72727549Y-113329585D01*
X72497585Y-113559549D01*
X72316903Y-113829958D01*
X72192447Y-114130421D01*
X72129000Y-114449391D01*
X72129000Y-114774609D01*
X72192447Y-115093579D01*
X72316903Y-115394042D01*
X72497585Y-115664451D01*
X72727549Y-115894415D01*
X72997958Y-116075097D01*
X73298421Y-116199553D01*
X73617391Y-116263000D01*
X73942609Y-116263000D01*
X74261579Y-116199553D01*
X74562042Y-116075097D01*
X74832451Y-115894415D01*
X75062415Y-115664451D01*
X75243097Y-115394042D01*
X75367553Y-115093579D01*
X75431000Y-114774609D01*
X75431000Y-114449391D01*
X75367553Y-114130421D01*
X75358423Y-114108379D01*
X75359798Y-114107004D01*
X75359803Y-114106998D01*
X75631998Y-113834803D01*
X75661002Y-113811000D01*
X75755975Y-113695275D01*
X75826547Y-113563246D01*
X75870004Y-113419985D01*
X75881001Y-113308332D01*
X75881001Y-113308323D01*
X75884677Y-113271000D01*
X75881001Y-113233677D01*
X75881001Y-95914805D01*
X75980499Y-96014303D01*
X75980500Y-126436698D01*
X74285001Y-128132198D01*
X74284996Y-128132202D01*
X74283621Y-128133577D01*
X74261579Y-128124447D01*
X73942609Y-128061000D01*
X73617391Y-128061000D01*
X73298421Y-128124447D01*
X72997958Y-128248903D01*
X72727549Y-128429585D01*
X72497585Y-128659549D01*
X72316903Y-128929958D01*
X72192447Y-129230421D01*
X72129000Y-129549391D01*
X72129000Y-129874609D01*
X72192447Y-130193579D01*
X72316903Y-130494042D01*
X72497585Y-130764451D01*
X72727549Y-130994415D01*
X72997958Y-131175097D01*
X73298421Y-131299553D01*
X73617391Y-131363000D01*
X73942609Y-131363000D01*
X74261579Y-131299553D01*
X74562042Y-131175097D01*
X74832451Y-130994415D01*
X75062415Y-130764451D01*
X75243097Y-130494042D01*
X75367553Y-130193579D01*
X75431000Y-129874609D01*
X75431000Y-129549391D01*
X75367553Y-129230421D01*
X75358423Y-129208379D01*
X75359798Y-129207004D01*
X75359802Y-129206999D01*
X77056053Y-127510748D01*
X77282281Y-127736976D01*
X77667095Y-127994100D01*
X78094676Y-128171210D01*
X78548594Y-128261500D01*
X79011406Y-128261500D01*
X79465324Y-128171210D01*
X79892905Y-127994100D01*
X80277719Y-127736976D01*
X80604976Y-127409719D01*
X80862100Y-127024905D01*
X81039210Y-126597324D01*
X81129500Y-126143406D01*
X81129500Y-125765652D01*
X82794100Y-125765652D01*
X82794100Y-126058348D01*
X82851202Y-126345421D01*
X82963212Y-126615838D01*
X83125826Y-126859206D01*
X83332794Y-127066174D01*
X83576162Y-127228788D01*
X83846579Y-127340798D01*
X84133652Y-127397900D01*
X84426348Y-127397900D01*
X84713421Y-127340798D01*
X84983838Y-127228788D01*
X85227206Y-127066174D01*
X85434174Y-126859206D01*
X85596788Y-126615838D01*
X85708798Y-126345421D01*
X85765900Y-126058348D01*
X85765900Y-125765652D01*
X86894100Y-125765652D01*
X86894100Y-126058348D01*
X86951202Y-126345421D01*
X87063212Y-126615838D01*
X87225826Y-126859206D01*
X87432794Y-127066174D01*
X87676162Y-127228788D01*
X87946579Y-127340798D01*
X88233652Y-127397900D01*
X88526348Y-127397900D01*
X88813421Y-127340798D01*
X89083838Y-127228788D01*
X89327206Y-127066174D01*
X89534174Y-126859206D01*
X89696788Y-126615838D01*
X89808798Y-126345421D01*
X89865900Y-126058348D01*
X89865900Y-125765652D01*
X89808798Y-125478579D01*
X89696788Y-125208162D01*
X89534174Y-124964794D01*
X89327206Y-124757826D01*
X89083838Y-124595212D01*
X88813421Y-124483202D01*
X88526348Y-124426100D01*
X88233652Y-124426100D01*
X87946579Y-124483202D01*
X87676162Y-124595212D01*
X87432794Y-124757826D01*
X87225826Y-124964794D01*
X87063212Y-125208162D01*
X86951202Y-125478579D01*
X86894100Y-125765652D01*
X85765900Y-125765652D01*
X85708798Y-125478579D01*
X85596788Y-125208162D01*
X85434174Y-124964794D01*
X85227206Y-124757826D01*
X84983838Y-124595212D01*
X84713421Y-124483202D01*
X84426348Y-124426100D01*
X84133652Y-124426100D01*
X83846579Y-124483202D01*
X83576162Y-124595212D01*
X83332794Y-124757826D01*
X83125826Y-124964794D01*
X82963212Y-125208162D01*
X82851202Y-125478579D01*
X82794100Y-125765652D01*
X81129500Y-125765652D01*
X81129500Y-125680594D01*
X81039210Y-125226676D01*
X80862100Y-124799095D01*
X80604976Y-124414281D01*
X80277719Y-124087024D01*
X79892905Y-123829900D01*
X79465324Y-123652790D01*
X79011406Y-123562500D01*
X78548594Y-123562500D01*
X78094676Y-123652790D01*
X77667095Y-123829900D01*
X77500499Y-123941216D01*
X77500499Y-121674807D01*
X77768698Y-121854012D01*
X78157244Y-122014953D01*
X78569721Y-122097000D01*
X78990279Y-122097000D01*
X79402756Y-122014953D01*
X79555411Y-121951721D01*
X81645000Y-121951721D01*
X81645000Y-122372279D01*
X81727047Y-122784756D01*
X81887988Y-123173302D01*
X82121637Y-123522983D01*
X82419017Y-123820363D01*
X82768698Y-124054012D01*
X83157244Y-124214953D01*
X83569721Y-124297000D01*
X83990279Y-124297000D01*
X84402756Y-124214953D01*
X84791302Y-124054012D01*
X85140983Y-123820363D01*
X85438363Y-123522983D01*
X85672012Y-123173302D01*
X85832953Y-122784756D01*
X85915000Y-122372279D01*
X85915000Y-121951721D01*
X85832953Y-121539244D01*
X85672012Y-121150698D01*
X85438363Y-120801017D01*
X85140983Y-120503637D01*
X84791302Y-120269988D01*
X84402756Y-120109047D01*
X83990279Y-120027000D01*
X83569721Y-120027000D01*
X83157244Y-120109047D01*
X82768698Y-120269988D01*
X82419017Y-120503637D01*
X82121637Y-120801017D01*
X81887988Y-121150698D01*
X81727047Y-121539244D01*
X81645000Y-121951721D01*
X79555411Y-121951721D01*
X79791302Y-121854012D01*
X80140983Y-121620363D01*
X80438363Y-121322983D01*
X80672012Y-120973302D01*
X80832953Y-120584756D01*
X80915000Y-120172279D01*
X80915000Y-119751721D01*
X80832953Y-119339244D01*
X80672012Y-118950698D01*
X80438363Y-118601017D01*
X80140983Y-118303637D01*
X79791302Y-118069988D01*
X79746884Y-118051589D01*
X79832451Y-117994415D01*
X80062415Y-117764451D01*
X80243097Y-117494042D01*
X80367553Y-117193579D01*
X80431000Y-116874609D01*
X80431000Y-116549391D01*
X80367553Y-116230421D01*
X80243097Y-115929958D01*
X80062415Y-115659549D01*
X79832451Y-115429585D01*
X79562042Y-115248903D01*
X79261579Y-115124447D01*
X78942609Y-115061000D01*
X78617391Y-115061000D01*
X78298421Y-115124447D01*
X77997958Y-115248903D01*
X77727549Y-115429585D01*
X77500499Y-115656635D01*
X77500499Y-112782784D01*
X77667095Y-112894100D01*
X78094676Y-113071210D01*
X78548594Y-113161500D01*
X79011406Y-113161500D01*
X79465324Y-113071210D01*
X79892905Y-112894100D01*
X80277719Y-112636976D01*
X80604976Y-112309719D01*
X80862100Y-111924905D01*
X81039210Y-111497324D01*
X81129500Y-111043406D01*
X81129500Y-110665652D01*
X82794100Y-110665652D01*
X82794100Y-110958348D01*
X82851202Y-111245421D01*
X82963212Y-111515838D01*
X83125826Y-111759206D01*
X83332794Y-111966174D01*
X83576162Y-112128788D01*
X83846579Y-112240798D01*
X84133652Y-112297900D01*
X84426348Y-112297900D01*
X84713421Y-112240798D01*
X84983838Y-112128788D01*
X85227206Y-111966174D01*
X85434174Y-111759206D01*
X85596788Y-111515838D01*
X85708798Y-111245421D01*
X85765900Y-110958348D01*
X85765900Y-110665652D01*
X85708798Y-110378579D01*
X85596788Y-110108162D01*
X85434174Y-109864794D01*
X85227206Y-109657826D01*
X84983838Y-109495212D01*
X84713421Y-109383202D01*
X84426348Y-109326100D01*
X84133652Y-109326100D01*
X83846579Y-109383202D01*
X83576162Y-109495212D01*
X83332794Y-109657826D01*
X83125826Y-109864794D01*
X82963212Y-110108162D01*
X82851202Y-110378579D01*
X82794100Y-110665652D01*
X81129500Y-110665652D01*
X81129500Y-110580594D01*
X81039210Y-110126676D01*
X80862100Y-109699095D01*
X80604976Y-109314281D01*
X80277719Y-108987024D01*
X79892905Y-108729900D01*
X79465324Y-108552790D01*
X79011406Y-108462500D01*
X78548594Y-108462500D01*
X78094676Y-108552790D01*
X77667095Y-108729900D01*
X77500499Y-108841216D01*
X77500499Y-106574807D01*
X77768698Y-106754012D01*
X78157244Y-106914953D01*
X78569721Y-106997000D01*
X78990279Y-106997000D01*
X79402756Y-106914953D01*
X79555411Y-106851721D01*
X81645000Y-106851721D01*
X81645000Y-107272279D01*
X81727047Y-107684756D01*
X81887988Y-108073302D01*
X82121637Y-108422983D01*
X82419017Y-108720363D01*
X82768698Y-108954012D01*
X83157244Y-109114953D01*
X83569721Y-109197000D01*
X83990279Y-109197000D01*
X84402756Y-109114953D01*
X84791302Y-108954012D01*
X85140983Y-108720363D01*
X85438363Y-108422983D01*
X85672012Y-108073302D01*
X85832953Y-107684756D01*
X85915000Y-107272279D01*
X85915000Y-106851721D01*
X85832953Y-106439244D01*
X85672012Y-106050698D01*
X85438363Y-105701017D01*
X85140983Y-105403637D01*
X84791302Y-105169988D01*
X84402756Y-105009047D01*
X83990279Y-104927000D01*
X83569721Y-104927000D01*
X83157244Y-105009047D01*
X82768698Y-105169988D01*
X82419017Y-105403637D01*
X82121637Y-105701017D01*
X81887988Y-106050698D01*
X81727047Y-106439244D01*
X81645000Y-106851721D01*
X79555411Y-106851721D01*
X79791302Y-106754012D01*
X80140983Y-106520363D01*
X80438363Y-106222983D01*
X80672012Y-105873302D01*
X80832953Y-105484756D01*
X80915000Y-105072279D01*
X80915000Y-104651721D01*
X80832953Y-104239244D01*
X80672012Y-103850698D01*
X80438363Y-103501017D01*
X80140983Y-103203637D01*
X79791302Y-102969988D01*
X79746884Y-102951589D01*
X79832451Y-102894415D01*
X80062415Y-102664451D01*
X80243097Y-102394042D01*
X80367553Y-102093579D01*
X80431000Y-101774609D01*
X80431000Y-101449391D01*
X80367553Y-101130421D01*
X80243097Y-100829958D01*
X80062415Y-100559549D01*
X79832451Y-100329585D01*
X79562042Y-100148903D01*
X79261579Y-100024447D01*
X78942609Y-99961000D01*
X78617391Y-99961000D01*
X78298421Y-100024447D01*
X77997958Y-100148903D01*
X77727549Y-100329585D01*
X77500499Y-100556635D01*
X77500499Y-97682784D01*
X77667095Y-97794100D01*
X78094676Y-97971210D01*
X78548594Y-98061500D01*
X79011406Y-98061500D01*
X79465324Y-97971210D01*
X79892905Y-97794100D01*
X80277719Y-97536976D01*
X80604976Y-97209719D01*
X80862100Y-96824905D01*
X81039210Y-96397324D01*
X81129500Y-95943406D01*
X81129500Y-95887304D01*
X85265199Y-100023003D01*
X85288997Y-100052001D01*
X85317995Y-100075799D01*
X85404721Y-100146974D01*
X85536751Y-100217546D01*
X85680012Y-100261003D01*
X85791665Y-100272000D01*
X85791675Y-100272000D01*
X85828998Y-100275676D01*
X85866321Y-100272000D01*
X87407773Y-100272000D01*
X87416903Y-100294042D01*
X87597585Y-100564451D01*
X87827549Y-100794415D01*
X88097958Y-100975097D01*
X88398421Y-101099553D01*
X88717391Y-101163000D01*
X89042609Y-101163000D01*
X89361579Y-101099553D01*
X89461001Y-101058371D01*
X89461002Y-109791622D01*
X89327206Y-109657826D01*
X89083838Y-109495212D01*
X88813421Y-109383202D01*
X88526348Y-109326100D01*
X88233652Y-109326100D01*
X87946579Y-109383202D01*
X87676162Y-109495212D01*
X87432794Y-109657826D01*
X87225826Y-109864794D01*
X87063212Y-110108162D01*
X86951202Y-110378579D01*
X86894100Y-110665652D01*
X86894100Y-110958348D01*
X86951202Y-111245421D01*
X87063212Y-111515838D01*
X87225826Y-111759206D01*
X87432794Y-111966174D01*
X87676162Y-112128788D01*
X87946579Y-112240798D01*
X88233652Y-112297900D01*
X88526348Y-112297900D01*
X88813421Y-112240798D01*
X89083838Y-112128788D01*
X89327206Y-111966174D01*
X89461002Y-111832378D01*
X89461002Y-112956197D01*
X89385002Y-113032197D01*
X89384996Y-113032202D01*
X89383621Y-113033577D01*
X89361579Y-113024447D01*
X89042609Y-112961000D01*
X88717391Y-112961000D01*
X88398421Y-113024447D01*
X88097958Y-113148903D01*
X87827549Y-113329585D01*
X87597585Y-113559549D01*
X87416903Y-113829958D01*
X87292447Y-114130421D01*
X87229000Y-114449391D01*
X87229000Y-114774609D01*
X87292447Y-115093579D01*
X87416903Y-115394042D01*
X87597585Y-115664451D01*
X87827549Y-115894415D01*
X88097958Y-116075097D01*
X88398421Y-116199553D01*
X88717391Y-116263000D01*
X89042609Y-116263000D01*
X89361579Y-116199553D01*
X89662042Y-116075097D01*
X89911012Y-115908740D01*
X89911012Y-127606186D01*
X89385001Y-128132198D01*
X89384996Y-128132202D01*
X89383621Y-128133577D01*
X89361579Y-128124447D01*
X89042609Y-128061000D01*
X88717391Y-128061000D01*
X88398421Y-128124447D01*
X88097958Y-128248903D01*
X87827549Y-128429585D01*
X87597585Y-128659549D01*
X87416903Y-128929958D01*
X87292447Y-129230421D01*
X87229000Y-129549391D01*
X87229000Y-129874609D01*
X87292447Y-130193579D01*
X87416903Y-130494042D01*
X87597585Y-130764451D01*
X87827549Y-130994415D01*
X88097958Y-131175097D01*
X88398421Y-131299553D01*
X88717391Y-131363000D01*
X89042609Y-131363000D01*
X89361579Y-131299553D01*
X89662042Y-131175097D01*
X89932451Y-130994415D01*
X90162415Y-130764451D01*
X90343097Y-130494042D01*
X90467553Y-130193579D01*
X90531000Y-129874609D01*
X90531000Y-129549391D01*
X90467553Y-129230421D01*
X90458423Y-129208379D01*
X90459798Y-129207004D01*
X90459802Y-129206999D01*
X91182019Y-128484784D01*
X91211012Y-128460990D01*
X91234806Y-128431997D01*
X91234810Y-128431993D01*
X91305984Y-128345266D01*
X91305985Y-128345265D01*
X91376557Y-128213236D01*
X91420014Y-128069975D01*
X91431011Y-127958322D01*
X91431011Y-127958313D01*
X91434687Y-127920990D01*
X91431011Y-127883667D01*
X91431011Y-125680594D01*
X91530500Y-125680594D01*
X91530500Y-126143406D01*
X91620790Y-126597324D01*
X91797900Y-127024905D01*
X92055024Y-127409719D01*
X92382281Y-127736976D01*
X92767095Y-127994100D01*
X93194676Y-128171210D01*
X93648594Y-128261500D01*
X94111406Y-128261500D01*
X94565324Y-128171210D01*
X94992905Y-127994100D01*
X95377719Y-127736976D01*
X95704976Y-127409719D01*
X95962100Y-127024905D01*
X96139210Y-126597324D01*
X96229500Y-126143406D01*
X96229500Y-125765652D01*
X97894100Y-125765652D01*
X97894100Y-126058348D01*
X97951202Y-126345421D01*
X98063212Y-126615838D01*
X98225826Y-126859206D01*
X98432794Y-127066174D01*
X98676162Y-127228788D01*
X98946579Y-127340798D01*
X99233652Y-127397900D01*
X99526348Y-127397900D01*
X99813421Y-127340798D01*
X100083838Y-127228788D01*
X100327206Y-127066174D01*
X100534174Y-126859206D01*
X100696788Y-126615838D01*
X100808798Y-126345421D01*
X100865900Y-126058348D01*
X100865900Y-125765652D01*
X100808798Y-125478579D01*
X100696788Y-125208162D01*
X100534174Y-124964794D01*
X100327206Y-124757826D01*
X100083838Y-124595212D01*
X99813421Y-124483202D01*
X99526348Y-124426100D01*
X99233652Y-124426100D01*
X98946579Y-124483202D01*
X98676162Y-124595212D01*
X98432794Y-124757826D01*
X98225826Y-124964794D01*
X98063212Y-125208162D01*
X97951202Y-125478579D01*
X97894100Y-125765652D01*
X96229500Y-125765652D01*
X96229500Y-125680594D01*
X96139210Y-125226676D01*
X95962100Y-124799095D01*
X95704976Y-124414281D01*
X95377719Y-124087024D01*
X94992905Y-123829900D01*
X94565324Y-123652790D01*
X94111406Y-123562500D01*
X93648594Y-123562500D01*
X93194676Y-123652790D01*
X92767095Y-123829900D01*
X92382281Y-124087024D01*
X92055024Y-124414281D01*
X91797900Y-124799095D01*
X91620790Y-125226676D01*
X91530500Y-125680594D01*
X91431011Y-125680594D01*
X91431011Y-119751721D01*
X91745000Y-119751721D01*
X91745000Y-120172279D01*
X91827047Y-120584756D01*
X91987988Y-120973302D01*
X92221637Y-121322983D01*
X92519017Y-121620363D01*
X92868698Y-121854012D01*
X93257244Y-122014953D01*
X93669721Y-122097000D01*
X94090279Y-122097000D01*
X94502756Y-122014953D01*
X94655411Y-121951721D01*
X96745000Y-121951721D01*
X96745000Y-122372279D01*
X96827047Y-122784756D01*
X96987988Y-123173302D01*
X97221637Y-123522983D01*
X97519017Y-123820363D01*
X97868698Y-124054012D01*
X98257244Y-124214953D01*
X98669721Y-124297000D01*
X99090279Y-124297000D01*
X99502756Y-124214953D01*
X99891302Y-124054012D01*
X100240983Y-123820363D01*
X100538363Y-123522983D01*
X100772012Y-123173302D01*
X100932953Y-122784756D01*
X101015000Y-122372279D01*
X101015000Y-121951721D01*
X100932953Y-121539244D01*
X100772012Y-121150698D01*
X100538363Y-120801017D01*
X100240983Y-120503637D01*
X99891302Y-120269988D01*
X99502756Y-120109047D01*
X99090279Y-120027000D01*
X98669721Y-120027000D01*
X98257244Y-120109047D01*
X97868698Y-120269988D01*
X97519017Y-120503637D01*
X97221637Y-120801017D01*
X96987988Y-121150698D01*
X96827047Y-121539244D01*
X96745000Y-121951721D01*
X94655411Y-121951721D01*
X94891302Y-121854012D01*
X95240983Y-121620363D01*
X95538363Y-121322983D01*
X95772012Y-120973302D01*
X95932953Y-120584756D01*
X96015000Y-120172279D01*
X96015000Y-119751721D01*
X95932953Y-119339244D01*
X95772012Y-118950698D01*
X95538363Y-118601017D01*
X95240983Y-118303637D01*
X94891302Y-118069988D01*
X94846884Y-118051589D01*
X94932451Y-117994415D01*
X95162415Y-117764451D01*
X95343097Y-117494042D01*
X95467553Y-117193579D01*
X95531000Y-116874609D01*
X95531000Y-116549391D01*
X95467553Y-116230421D01*
X95343097Y-115929958D01*
X95162415Y-115659549D01*
X94932451Y-115429585D01*
X94662042Y-115248903D01*
X94361579Y-115124447D01*
X94042609Y-115061000D01*
X93717391Y-115061000D01*
X93398421Y-115124447D01*
X93097958Y-115248903D01*
X92827549Y-115429585D01*
X92597585Y-115659549D01*
X92416903Y-115929958D01*
X92292447Y-116230421D01*
X92229000Y-116549391D01*
X92229000Y-116874609D01*
X92292447Y-117193579D01*
X92416903Y-117494042D01*
X92597585Y-117764451D01*
X92827549Y-117994415D01*
X92913116Y-118051589D01*
X92868698Y-118069988D01*
X92519017Y-118303637D01*
X92221637Y-118601017D01*
X91987988Y-118950698D01*
X91827047Y-119339244D01*
X91745000Y-119751721D01*
X91431011Y-119751721D01*
X91431011Y-110580594D01*
X91530500Y-110580594D01*
X91530500Y-111043406D01*
X91620790Y-111497324D01*
X91797900Y-111924905D01*
X92055024Y-112309719D01*
X92382281Y-112636976D01*
X92767095Y-112894100D01*
X93194676Y-113071210D01*
X93648594Y-113161500D01*
X94111406Y-113161500D01*
X94565324Y-113071210D01*
X94992905Y-112894100D01*
X95377719Y-112636976D01*
X95704976Y-112309719D01*
X95962100Y-111924905D01*
X96139210Y-111497324D01*
X96229500Y-111043406D01*
X96229500Y-110665652D01*
X97894100Y-110665652D01*
X97894100Y-110958348D01*
X97951202Y-111245421D01*
X98063212Y-111515838D01*
X98225826Y-111759206D01*
X98432794Y-111966174D01*
X98676162Y-112128788D01*
X98946579Y-112240798D01*
X99233652Y-112297900D01*
X99526348Y-112297900D01*
X99813421Y-112240798D01*
X100083838Y-112128788D01*
X100327206Y-111966174D01*
X100534174Y-111759206D01*
X100696788Y-111515838D01*
X100808798Y-111245421D01*
X100865900Y-110958348D01*
X100865900Y-110665652D01*
X100808798Y-110378579D01*
X100696788Y-110108162D01*
X100534174Y-109864794D01*
X100327206Y-109657826D01*
X100083838Y-109495212D01*
X99813421Y-109383202D01*
X99526348Y-109326100D01*
X99233652Y-109326100D01*
X98946579Y-109383202D01*
X98676162Y-109495212D01*
X98432794Y-109657826D01*
X98225826Y-109864794D01*
X98063212Y-110108162D01*
X97951202Y-110378579D01*
X97894100Y-110665652D01*
X96229500Y-110665652D01*
X96229500Y-110580594D01*
X96139210Y-110126676D01*
X95962100Y-109699095D01*
X95704976Y-109314281D01*
X95377719Y-108987024D01*
X94992905Y-108729900D01*
X94565324Y-108552790D01*
X94111406Y-108462500D01*
X93648594Y-108462500D01*
X93194676Y-108552790D01*
X92767095Y-108729900D01*
X92382281Y-108987024D01*
X92055024Y-109314281D01*
X91797900Y-109699095D01*
X91620790Y-110126676D01*
X91530500Y-110580594D01*
X91431011Y-110580594D01*
X91431011Y-104651721D01*
X91745000Y-104651721D01*
X91745000Y-105072279D01*
X91827047Y-105484756D01*
X91987988Y-105873302D01*
X92221637Y-106222983D01*
X92519017Y-106520363D01*
X92868698Y-106754012D01*
X93257244Y-106914953D01*
X93669721Y-106997000D01*
X94090279Y-106997000D01*
X94502756Y-106914953D01*
X94655411Y-106851721D01*
X96745000Y-106851721D01*
X96745000Y-107272279D01*
X96827047Y-107684756D01*
X96987988Y-108073302D01*
X97221637Y-108422983D01*
X97519017Y-108720363D01*
X97868698Y-108954012D01*
X98257244Y-109114953D01*
X98669721Y-109197000D01*
X99090279Y-109197000D01*
X99502756Y-109114953D01*
X99891302Y-108954012D01*
X100240983Y-108720363D01*
X100538363Y-108422983D01*
X100772012Y-108073302D01*
X100932953Y-107684756D01*
X101015000Y-107272279D01*
X101015000Y-106851721D01*
X100932953Y-106439244D01*
X100772012Y-106050698D01*
X100538363Y-105701017D01*
X100240983Y-105403637D01*
X99891302Y-105169988D01*
X99502756Y-105009047D01*
X99090279Y-104927000D01*
X98669721Y-104927000D01*
X98257244Y-105009047D01*
X97868698Y-105169988D01*
X97519017Y-105403637D01*
X97221637Y-105701017D01*
X96987988Y-106050698D01*
X96827047Y-106439244D01*
X96745000Y-106851721D01*
X94655411Y-106851721D01*
X94891302Y-106754012D01*
X95240983Y-106520363D01*
X95538363Y-106222983D01*
X95772012Y-105873302D01*
X95932953Y-105484756D01*
X96015000Y-105072279D01*
X96015000Y-104651721D01*
X95932953Y-104239244D01*
X95772012Y-103850698D01*
X95538363Y-103501017D01*
X95240983Y-103203637D01*
X94891302Y-102969988D01*
X94846884Y-102951589D01*
X94932451Y-102894415D01*
X95162415Y-102664451D01*
X95343097Y-102394042D01*
X95467553Y-102093579D01*
X95531000Y-101774609D01*
X95531000Y-101449391D01*
X95467553Y-101130421D01*
X95343097Y-100829958D01*
X95162415Y-100559549D01*
X94932451Y-100329585D01*
X94662042Y-100148903D01*
X94361579Y-100024447D01*
X94042609Y-99961000D01*
X93717391Y-99961000D01*
X93398421Y-100024447D01*
X93097958Y-100148903D01*
X92827549Y-100329585D01*
X92597585Y-100559549D01*
X92416903Y-100829958D01*
X92292447Y-101130421D01*
X92229000Y-101449391D01*
X92229000Y-101774609D01*
X92292447Y-102093579D01*
X92416903Y-102394042D01*
X92597585Y-102664451D01*
X92827549Y-102894415D01*
X92913116Y-102951589D01*
X92868698Y-102969988D01*
X92519017Y-103203637D01*
X92221637Y-103501017D01*
X91987988Y-103850698D01*
X91827047Y-104239244D01*
X91745000Y-104651721D01*
X91431011Y-104651721D01*
X91431011Y-95488333D01*
X91431773Y-95480594D01*
X91530500Y-95480594D01*
X91530500Y-95943406D01*
X91620790Y-96397324D01*
X91797900Y-96824905D01*
X92055024Y-97209719D01*
X92382281Y-97536976D01*
X92767095Y-97794100D01*
X93194676Y-97971210D01*
X93648594Y-98061500D01*
X94111406Y-98061500D01*
X94565324Y-97971210D01*
X94992905Y-97794100D01*
X95377719Y-97536976D01*
X95704976Y-97209719D01*
X95962100Y-96824905D01*
X96139210Y-96397324D01*
X96229500Y-95943406D01*
X96229500Y-95565652D01*
X97894100Y-95565652D01*
X97894100Y-95858348D01*
X97951202Y-96145421D01*
X98063212Y-96415838D01*
X98225826Y-96659206D01*
X98432794Y-96866174D01*
X98676162Y-97028788D01*
X98946579Y-97140798D01*
X99233652Y-97197900D01*
X99526348Y-97197900D01*
X99813421Y-97140798D01*
X100083838Y-97028788D01*
X100327206Y-96866174D01*
X100534174Y-96659206D01*
X100696788Y-96415838D01*
X100808798Y-96145421D01*
X100865900Y-95858348D01*
X100865900Y-95565652D01*
X100808798Y-95278579D01*
X100696788Y-95008162D01*
X100534174Y-94764794D01*
X100327206Y-94557826D01*
X100083838Y-94395212D01*
X99813421Y-94283202D01*
X99526348Y-94226100D01*
X99233652Y-94226100D01*
X98946579Y-94283202D01*
X98676162Y-94395212D01*
X98432794Y-94557826D01*
X98225826Y-94764794D01*
X98063212Y-95008162D01*
X97951202Y-95278579D01*
X97894100Y-95565652D01*
X96229500Y-95565652D01*
X96229500Y-95480594D01*
X96139210Y-95026676D01*
X95962100Y-94599095D01*
X95704976Y-94214281D01*
X95377719Y-93887024D01*
X94992905Y-93629900D01*
X94565324Y-93452790D01*
X94111406Y-93362500D01*
X93648594Y-93362500D01*
X93194676Y-93452790D01*
X92767095Y-93629900D01*
X92382281Y-93887024D01*
X92055024Y-94214281D01*
X91797900Y-94599095D01*
X91620790Y-95026676D01*
X91530500Y-95480594D01*
X91431773Y-95480594D01*
X91434687Y-95451010D01*
X91431011Y-95413687D01*
X91431011Y-95413678D01*
X91420014Y-95302025D01*
X91376557Y-95158764D01*
X91305985Y-95026735D01*
X91211012Y-94911010D01*
X91182015Y-94887213D01*
X85846523Y-89551721D01*
X91745000Y-89551721D01*
X91745000Y-89972279D01*
X91827047Y-90384756D01*
X91987988Y-90773302D01*
X92221637Y-91122983D01*
X92519017Y-91420363D01*
X92868698Y-91654012D01*
X93257244Y-91814953D01*
X93669721Y-91897000D01*
X94090279Y-91897000D01*
X94502756Y-91814953D01*
X94655411Y-91751721D01*
X96745000Y-91751721D01*
X96745000Y-92172279D01*
X96827047Y-92584756D01*
X96987988Y-92973302D01*
X97221637Y-93322983D01*
X97519017Y-93620363D01*
X97868698Y-93854012D01*
X98257244Y-94014953D01*
X98669721Y-94097000D01*
X99090279Y-94097000D01*
X99502756Y-94014953D01*
X99891302Y-93854012D01*
X100240983Y-93620363D01*
X100538363Y-93322983D01*
X100772012Y-92973302D01*
X100932953Y-92584756D01*
X101015000Y-92172279D01*
X101015000Y-91751721D01*
X100932953Y-91339244D01*
X100772012Y-90950698D01*
X100538363Y-90601017D01*
X100240983Y-90303637D01*
X99891302Y-90069988D01*
X99502756Y-89909047D01*
X99090279Y-89827000D01*
X98669721Y-89827000D01*
X98257244Y-89909047D01*
X97868698Y-90069988D01*
X97519017Y-90303637D01*
X97221637Y-90601017D01*
X96987988Y-90950698D01*
X96827047Y-91339244D01*
X96745000Y-91751721D01*
X94655411Y-91751721D01*
X94891302Y-91654012D01*
X95240983Y-91420363D01*
X95538363Y-91122983D01*
X95772012Y-90773302D01*
X95932953Y-90384756D01*
X96015000Y-89972279D01*
X96015000Y-89551721D01*
X95932953Y-89139244D01*
X95772012Y-88750698D01*
X95538363Y-88401017D01*
X95240983Y-88103637D01*
X94891302Y-87869988D01*
X94502756Y-87709047D01*
X94090279Y-87627000D01*
X93669721Y-87627000D01*
X93257244Y-87709047D01*
X92868698Y-87869988D01*
X92519017Y-88103637D01*
X92221637Y-88401017D01*
X91987988Y-88750698D01*
X91827047Y-89139244D01*
X91745000Y-89551721D01*
X85846523Y-89551721D01*
X82753803Y-86459002D01*
X82730000Y-86429998D01*
X82614275Y-86335025D01*
X82482246Y-86264453D01*
X82338985Y-86220996D01*
X82227332Y-86209999D01*
X82227321Y-86209999D01*
X82189999Y-86206323D01*
X82152677Y-86209999D01*
X82135000Y-86209999D01*
X82135000Y-86028665D01*
X82079853Y-85751426D01*
X81971680Y-85490273D01*
X81831180Y-85280000D01*
X82672197Y-85280000D01*
X83008199Y-85616003D01*
X83031998Y-85645002D01*
X83147723Y-85739975D01*
X83279752Y-85810547D01*
X83423013Y-85854004D01*
X83534666Y-85865001D01*
X83534675Y-85865001D01*
X83571998Y-85868677D01*
X83609321Y-85865001D01*
X84710679Y-85865001D01*
X84748001Y-85868677D01*
X84785323Y-85865001D01*
X84785334Y-85865001D01*
X84896987Y-85854004D01*
X85040248Y-85810547D01*
X85172277Y-85739975D01*
X85288002Y-85645002D01*
X85311804Y-85615999D01*
X85557724Y-85370080D01*
X85675518Y-85405812D01*
X85800000Y-85418072D01*
X86414250Y-85415000D01*
X86573000Y-85256250D01*
X86573000Y-84007000D01*
X86827000Y-84007000D01*
X86827000Y-85256250D01*
X86985750Y-85415000D01*
X87600000Y-85418072D01*
X87724482Y-85405812D01*
X87844180Y-85369502D01*
X87954494Y-85310537D01*
X88051185Y-85231185D01*
X88130537Y-85134494D01*
X88189502Y-85024180D01*
X88225812Y-84904482D01*
X88238072Y-84780000D01*
X88235000Y-84165750D01*
X88076250Y-84007000D01*
X86827000Y-84007000D01*
X86573000Y-84007000D01*
X86553000Y-84007000D01*
X86553000Y-83753000D01*
X86573000Y-83753000D01*
X86573000Y-82503750D01*
X86827000Y-82503750D01*
X86827000Y-83753000D01*
X88076250Y-83753000D01*
X88235000Y-83594250D01*
X88235932Y-83407886D01*
X88309744Y-83457205D01*
X88498102Y-83535226D01*
X88698061Y-83575000D01*
X88901939Y-83575000D01*
X89101898Y-83535226D01*
X89169039Y-83507415D01*
X89125000Y-83728816D01*
X89125000Y-84031184D01*
X89183989Y-84327743D01*
X89299701Y-84607095D01*
X89467688Y-84858505D01*
X89681495Y-85072312D01*
X89932905Y-85240299D01*
X90212257Y-85356011D01*
X90508816Y-85415000D01*
X90811184Y-85415000D01*
X91107743Y-85356011D01*
X91387095Y-85240299D01*
X91638505Y-85072312D01*
X91704944Y-85005873D01*
X91710498Y-85024180D01*
X91769463Y-85134494D01*
X91848815Y-85231185D01*
X91945506Y-85310537D01*
X92055820Y-85369502D01*
X92175518Y-85405812D01*
X92300000Y-85418072D01*
X92914250Y-85415000D01*
X93073000Y-85256250D01*
X93073000Y-84007000D01*
X93327000Y-84007000D01*
X93327000Y-85256250D01*
X93485750Y-85415000D01*
X94100000Y-85418072D01*
X94224482Y-85405812D01*
X94344180Y-85369502D01*
X94454494Y-85310537D01*
X94551185Y-85231185D01*
X94630537Y-85134494D01*
X94689502Y-85024180D01*
X94725812Y-84904482D01*
X94738072Y-84780000D01*
X94735000Y-84165750D01*
X94576250Y-84007000D01*
X93327000Y-84007000D01*
X93073000Y-84007000D01*
X93053000Y-84007000D01*
X93053000Y-83753000D01*
X93073000Y-83753000D01*
X93073000Y-82503750D01*
X93327000Y-82503750D01*
X93327000Y-83753000D01*
X94576250Y-83753000D01*
X94735000Y-83594250D01*
X94738072Y-82980000D01*
X94725812Y-82855518D01*
X94689502Y-82735820D01*
X94630537Y-82625506D01*
X94551185Y-82528815D01*
X94454494Y-82449463D01*
X94344180Y-82390498D01*
X94224482Y-82354188D01*
X94100000Y-82341928D01*
X93485750Y-82345000D01*
X93327000Y-82503750D01*
X93073000Y-82503750D01*
X92914250Y-82345000D01*
X92300000Y-82341928D01*
X92175518Y-82354188D01*
X92055820Y-82390498D01*
X91945506Y-82449463D01*
X91848815Y-82528815D01*
X91769463Y-82625506D01*
X91710498Y-82735820D01*
X91704944Y-82754127D01*
X91638505Y-82687688D01*
X91387095Y-82519701D01*
X91107743Y-82403989D01*
X90811184Y-82345000D01*
X90635486Y-82345000D01*
X92396005Y-80584482D01*
X92425002Y-80560685D01*
X92519975Y-80444960D01*
X92590547Y-80312931D01*
X92634004Y-80169670D01*
X92645001Y-80058017D01*
X92645001Y-80058007D01*
X92648677Y-80020684D01*
X92645001Y-79983361D01*
X92645001Y-78916347D01*
X92914250Y-78915000D01*
X93073000Y-78756250D01*
X93073000Y-77507000D01*
X93327000Y-77507000D01*
X93327000Y-78756250D01*
X93485750Y-78915000D01*
X94100000Y-78918072D01*
X94224482Y-78905812D01*
X94344180Y-78869502D01*
X94454494Y-78810537D01*
X94551185Y-78731185D01*
X94630537Y-78634494D01*
X94689502Y-78524180D01*
X94725812Y-78404482D01*
X94738072Y-78280000D01*
X94735000Y-77665750D01*
X94576250Y-77507000D01*
X93327000Y-77507000D01*
X93073000Y-77507000D01*
X93053000Y-77507000D01*
X93053000Y-77253000D01*
X93073000Y-77253000D01*
X93073000Y-76003750D01*
X93327000Y-76003750D01*
X93327000Y-77253000D01*
X94576250Y-77253000D01*
X94735000Y-77094250D01*
X94738072Y-76480000D01*
X94725812Y-76355518D01*
X94725730Y-76355248D01*
X94739999Y-76361159D01*
X94740000Y-82182667D01*
X94736323Y-82219999D01*
X94740000Y-82257332D01*
X94741687Y-82274455D01*
X94750997Y-82368984D01*
X94794453Y-82512245D01*
X94865025Y-82644275D01*
X94901719Y-82688986D01*
X94959999Y-82760000D01*
X94988997Y-82783798D01*
X95676269Y-83471070D01*
X95625000Y-83728816D01*
X95625000Y-84031184D01*
X95683989Y-84327743D01*
X95799701Y-84607095D01*
X95967688Y-84858505D01*
X96181495Y-85072312D01*
X96432905Y-85240299D01*
X96712257Y-85356011D01*
X97008816Y-85415000D01*
X97311184Y-85415000D01*
X97607743Y-85356011D01*
X97887095Y-85240299D01*
X98138505Y-85072312D01*
X98204944Y-85005873D01*
X98210498Y-85024180D01*
X98269463Y-85134494D01*
X98348815Y-85231185D01*
X98445506Y-85310537D01*
X98555820Y-85369502D01*
X98675518Y-85405812D01*
X98800000Y-85418072D01*
X99414250Y-85415000D01*
X99573000Y-85256250D01*
X99573000Y-84007000D01*
X99827000Y-84007000D01*
X99827000Y-85256250D01*
X99985750Y-85415000D01*
X100600000Y-85418072D01*
X100724482Y-85405812D01*
X100844180Y-85369502D01*
X100954494Y-85310537D01*
X101051185Y-85231185D01*
X101130537Y-85134494D01*
X101189502Y-85024180D01*
X101225812Y-84904482D01*
X101238072Y-84780000D01*
X101235000Y-84165750D01*
X101076250Y-84007000D01*
X99827000Y-84007000D01*
X99573000Y-84007000D01*
X99553000Y-84007000D01*
X99553000Y-83753000D01*
X99573000Y-83753000D01*
X99573000Y-82503750D01*
X99827000Y-82503750D01*
X99827000Y-83753000D01*
X101076250Y-83753000D01*
X101235000Y-83594250D01*
X101238072Y-82980000D01*
X101225812Y-82855518D01*
X101189502Y-82735820D01*
X101130537Y-82625506D01*
X101051185Y-82528815D01*
X100954494Y-82449463D01*
X100844180Y-82390498D01*
X100724482Y-82354188D01*
X100600000Y-82341928D01*
X99985750Y-82345000D01*
X99827000Y-82503750D01*
X99573000Y-82503750D01*
X99414250Y-82345000D01*
X98800000Y-82341928D01*
X98675518Y-82354188D01*
X98555820Y-82390498D01*
X98445506Y-82449463D01*
X98348815Y-82528815D01*
X98269463Y-82625506D01*
X98210498Y-82735820D01*
X98204944Y-82754127D01*
X98138505Y-82687688D01*
X97887095Y-82519701D01*
X97607743Y-82403989D01*
X97311184Y-82345000D01*
X97008816Y-82345000D01*
X96751070Y-82396269D01*
X96259999Y-81905198D01*
X96259999Y-80892293D01*
X96277795Y-80935256D01*
X96391063Y-81104774D01*
X96535226Y-81248937D01*
X96704744Y-81362205D01*
X96893102Y-81440226D01*
X97093061Y-81480000D01*
X97296939Y-81480000D01*
X97496898Y-81440226D01*
X97685256Y-81362205D01*
X97854774Y-81248937D01*
X97998937Y-81104774D01*
X98112205Y-80935256D01*
X98190226Y-80746898D01*
X98230000Y-80546939D01*
X98230000Y-80484801D01*
X98896004Y-79818798D01*
X98925002Y-79795000D01*
X99019975Y-79679275D01*
X99090547Y-79547246D01*
X99134004Y-79403985D01*
X99145001Y-79292332D01*
X99148678Y-79254999D01*
X99145001Y-79217666D01*
X99145001Y-78916347D01*
X99414250Y-78915000D01*
X99573000Y-78756250D01*
X99573000Y-77507000D01*
X99827000Y-77507000D01*
X99827000Y-78756250D01*
X99985750Y-78915000D01*
X100600000Y-78918072D01*
X100724482Y-78905812D01*
X100844180Y-78869502D01*
X100954494Y-78810537D01*
X101051185Y-78731185D01*
X101130537Y-78634494D01*
X101189502Y-78524180D01*
X101225812Y-78404482D01*
X101238072Y-78280000D01*
X101235000Y-77665750D01*
X101076250Y-77507000D01*
X99827000Y-77507000D01*
X99573000Y-77507000D01*
X99553000Y-77507000D01*
X99553000Y-77253000D01*
X99573000Y-77253000D01*
X99573000Y-76003750D01*
X99827000Y-76003750D01*
X99827000Y-77253000D01*
X101076250Y-77253000D01*
X101235000Y-77094250D01*
X101238072Y-76480000D01*
X101225812Y-76355518D01*
X101189502Y-76235820D01*
X101130537Y-76125506D01*
X101051185Y-76028815D01*
X100954494Y-75949463D01*
X100844180Y-75890498D01*
X100724482Y-75854188D01*
X100600000Y-75841928D01*
X99985750Y-75845000D01*
X99827000Y-76003750D01*
X99573000Y-76003750D01*
X99414250Y-75845000D01*
X99145001Y-75843653D01*
X99145001Y-72416347D01*
X99414250Y-72415000D01*
X99573000Y-72256250D01*
X99573000Y-71007000D01*
X99827000Y-71007000D01*
X99827000Y-72256250D01*
X99985750Y-72415000D01*
X100600000Y-72418072D01*
X100724482Y-72405812D01*
X100844180Y-72369502D01*
X100954494Y-72310537D01*
X101051185Y-72231185D01*
X101130537Y-72134494D01*
X101189502Y-72024180D01*
X101225812Y-71904482D01*
X101238072Y-71780000D01*
X101235000Y-71165750D01*
X101076250Y-71007000D01*
X99827000Y-71007000D01*
X99573000Y-71007000D01*
X99553000Y-71007000D01*
X99553000Y-70753000D01*
X99573000Y-70753000D01*
X99573000Y-69503750D01*
X99414250Y-69345000D01*
X98800000Y-69341928D01*
X98675518Y-69354188D01*
X98555820Y-69390498D01*
X98445506Y-69449463D01*
X98348815Y-69528815D01*
X98269463Y-69625506D01*
X98210498Y-69735820D01*
X98204944Y-69754127D01*
X98138505Y-69687688D01*
X97887095Y-69519701D01*
X97607743Y-69403989D01*
X97311184Y-69345000D01*
X97008816Y-69345000D01*
X96712257Y-69403989D01*
X96432905Y-69519701D01*
X96181495Y-69687688D01*
X95967688Y-69901495D01*
X95799701Y-70152905D01*
X95683989Y-70432257D01*
X95625000Y-70728816D01*
X95625000Y-71031184D01*
X95683989Y-71327743D01*
X95799701Y-71607095D01*
X95967688Y-71858505D01*
X96181495Y-72072312D01*
X96432905Y-72240299D01*
X96712257Y-72356011D01*
X97008816Y-72415000D01*
X97311184Y-72415000D01*
X97568930Y-72363731D01*
X97625001Y-72419803D01*
X97625002Y-75911138D01*
X97607743Y-75903989D01*
X97311184Y-75845000D01*
X97008816Y-75845000D01*
X96712257Y-75903989D01*
X96432905Y-76019701D01*
X96259999Y-76135233D01*
X96259999Y-75827321D01*
X96263675Y-75789998D01*
X96259999Y-75752676D01*
X96259999Y-75752666D01*
X96249002Y-75641013D01*
X96205545Y-75497752D01*
X96135000Y-75365774D01*
X96135000Y-75288061D01*
X96095226Y-75088102D01*
X96017205Y-74899744D01*
X95903937Y-74730226D01*
X95759774Y-74586063D01*
X95590256Y-74472795D01*
X95401898Y-74394774D01*
X95201939Y-74355000D01*
X94998061Y-74355000D01*
X94798102Y-74394774D01*
X94609744Y-74472795D01*
X94440226Y-74586063D01*
X94296063Y-74730226D01*
X94182795Y-74899744D01*
X94104774Y-75088102D01*
X94065000Y-75288061D01*
X94065000Y-75491939D01*
X94104774Y-75691898D01*
X94169765Y-75848799D01*
X94100000Y-75841928D01*
X93485750Y-75845000D01*
X93327000Y-76003750D01*
X93073000Y-76003750D01*
X92914250Y-75845000D01*
X92645001Y-75843653D01*
X92645001Y-72416347D01*
X92914250Y-72415000D01*
X93073000Y-72256250D01*
X93073000Y-71007000D01*
X93327000Y-71007000D01*
X93327000Y-72256250D01*
X93485750Y-72415000D01*
X94100000Y-72418072D01*
X94224482Y-72405812D01*
X94344180Y-72369502D01*
X94454494Y-72310537D01*
X94551185Y-72231185D01*
X94630537Y-72134494D01*
X94689502Y-72024180D01*
X94725812Y-71904482D01*
X94738072Y-71780000D01*
X94735000Y-71165750D01*
X94576250Y-71007000D01*
X93327000Y-71007000D01*
X93073000Y-71007000D01*
X93053000Y-71007000D01*
X93053000Y-70753000D01*
X93073000Y-70753000D01*
X93073000Y-69503750D01*
X93327000Y-69503750D01*
X93327000Y-70753000D01*
X94576250Y-70753000D01*
X94735000Y-70594250D01*
X94738072Y-69980000D01*
X94725812Y-69855518D01*
X94689502Y-69735820D01*
X94630537Y-69625506D01*
X94551185Y-69528815D01*
X94454494Y-69449463D01*
X94344180Y-69390498D01*
X94224482Y-69354188D01*
X94100000Y-69341928D01*
X93485750Y-69345000D01*
X93327000Y-69503750D01*
X93073000Y-69503750D01*
X92914250Y-69345000D01*
X92300000Y-69341928D01*
X92175518Y-69354188D01*
X92055820Y-69390498D01*
X91945506Y-69449463D01*
X91848815Y-69528815D01*
X91769463Y-69625506D01*
X91710498Y-69735820D01*
X91704944Y-69754127D01*
X91638505Y-69687688D01*
X91387095Y-69519701D01*
X91107743Y-69403989D01*
X90811184Y-69345000D01*
X90508816Y-69345000D01*
X90212257Y-69403989D01*
X89932905Y-69519701D01*
X89681495Y-69687688D01*
X89467688Y-69901495D01*
X89299701Y-70152905D01*
X89183989Y-70432257D01*
X89125000Y-70728816D01*
X89125000Y-71031184D01*
X89183989Y-71327743D01*
X89299701Y-71607095D01*
X89467688Y-71858505D01*
X89681495Y-72072312D01*
X89932905Y-72240299D01*
X90212257Y-72356011D01*
X90508816Y-72415000D01*
X90811184Y-72415000D01*
X91068930Y-72363731D01*
X91125002Y-72419803D01*
X91125002Y-75911138D01*
X91107743Y-75903989D01*
X90811184Y-75845000D01*
X90508816Y-75845000D01*
X90212257Y-75903989D01*
X89932905Y-76019701D01*
X89681495Y-76187688D01*
X89467688Y-76401495D01*
X89299701Y-76652905D01*
X89183989Y-76932257D01*
X89125000Y-77228816D01*
X89125000Y-77531184D01*
X89183989Y-77827743D01*
X89299701Y-78107095D01*
X89467688Y-78358505D01*
X89681495Y-78572312D01*
X89900000Y-78718313D01*
X89900000Y-79365195D01*
X88760199Y-80504997D01*
X88698061Y-80504997D01*
X88498102Y-80544771D01*
X88309744Y-80622792D01*
X88140226Y-80736060D01*
X87996063Y-80880223D01*
X87882795Y-81049741D01*
X87804774Y-81238099D01*
X87765000Y-81438058D01*
X87765000Y-81641936D01*
X87804774Y-81841895D01*
X87882795Y-82030253D01*
X87889307Y-82039999D01*
X87882795Y-82049744D01*
X87804774Y-82238102D01*
X87778428Y-82370552D01*
X87724482Y-82354188D01*
X87600000Y-82341928D01*
X86985750Y-82345000D01*
X86827000Y-82503750D01*
X86573000Y-82503750D01*
X86414250Y-82345000D01*
X86145001Y-82343653D01*
X86145001Y-78916347D01*
X86414250Y-78915000D01*
X86573000Y-78756250D01*
X86573000Y-77507000D01*
X86827000Y-77507000D01*
X86827000Y-78756250D01*
X86985750Y-78915000D01*
X87600000Y-78918072D01*
X87724482Y-78905812D01*
X87844180Y-78869502D01*
X87954494Y-78810537D01*
X88051185Y-78731185D01*
X88130537Y-78634494D01*
X88189502Y-78524180D01*
X88225812Y-78404482D01*
X88238072Y-78280000D01*
X88235000Y-77665750D01*
X88076250Y-77507000D01*
X86827000Y-77507000D01*
X86573000Y-77507000D01*
X86553000Y-77507000D01*
X86553000Y-77253000D01*
X86573000Y-77253000D01*
X86573000Y-76003750D01*
X86827000Y-76003750D01*
X86827000Y-77253000D01*
X88076250Y-77253000D01*
X88235000Y-77094250D01*
X88238072Y-76480000D01*
X88225812Y-76355518D01*
X88189502Y-76235820D01*
X88130537Y-76125506D01*
X88051185Y-76028815D01*
X87954494Y-75949463D01*
X87844180Y-75890498D01*
X87724482Y-75854188D01*
X87600000Y-75841928D01*
X86985750Y-75845000D01*
X86827000Y-76003750D01*
X86573000Y-76003750D01*
X86414250Y-75845000D01*
X86145001Y-75843653D01*
X86145001Y-72416347D01*
X86414250Y-72415000D01*
X86573000Y-72256250D01*
X86573000Y-71007000D01*
X86827000Y-71007000D01*
X86827000Y-72256250D01*
X86985750Y-72415000D01*
X87600000Y-72418072D01*
X87724482Y-72405812D01*
X87844180Y-72369502D01*
X87954494Y-72310537D01*
X88051185Y-72231185D01*
X88130537Y-72134494D01*
X88189502Y-72024180D01*
X88225812Y-71904482D01*
X88238072Y-71780000D01*
X88235000Y-71165750D01*
X88076250Y-71007000D01*
X86827000Y-71007000D01*
X86573000Y-71007000D01*
X86553000Y-71007000D01*
X86553000Y-70753000D01*
X86573000Y-70753000D01*
X86573000Y-69503750D01*
X86827000Y-69503750D01*
X86827000Y-70753000D01*
X88076250Y-70753000D01*
X88235000Y-70594250D01*
X88238072Y-69980000D01*
X88225812Y-69855518D01*
X88189502Y-69735820D01*
X88130537Y-69625506D01*
X88051185Y-69528815D01*
X87954494Y-69449463D01*
X87844180Y-69390498D01*
X87724482Y-69354188D01*
X87600000Y-69341928D01*
X86985750Y-69345000D01*
X86827000Y-69503750D01*
X86573000Y-69503750D01*
X86414250Y-69345000D01*
X85800000Y-69341928D01*
X85675518Y-69354188D01*
X85555820Y-69390498D01*
X85445506Y-69449463D01*
X85348815Y-69528815D01*
X85269463Y-69625506D01*
X85210498Y-69735820D01*
X85204944Y-69754127D01*
X85138505Y-69687688D01*
X84887095Y-69519701D01*
X84607743Y-69403989D01*
X84311184Y-69345000D01*
X84008816Y-69345000D01*
X83712257Y-69403989D01*
X83432905Y-69519701D01*
X83181495Y-69687688D01*
X82967688Y-69901495D01*
X82799701Y-70152905D01*
X82683989Y-70432257D01*
X82625000Y-70728816D01*
X82625000Y-71031184D01*
X82683989Y-71327743D01*
X82799701Y-71607095D01*
X82967688Y-71858505D01*
X83181495Y-72072312D01*
X83432905Y-72240299D01*
X83712257Y-72356011D01*
X84008816Y-72415000D01*
X84311184Y-72415000D01*
X84568930Y-72363731D01*
X84625002Y-72419803D01*
X84625002Y-75911138D01*
X84607743Y-75903989D01*
X84311184Y-75845000D01*
X84008816Y-75845000D01*
X83712257Y-75903989D01*
X83432905Y-76019701D01*
X83181495Y-76187688D01*
X82967688Y-76401495D01*
X82799701Y-76652905D01*
X82683989Y-76932257D01*
X82625000Y-77228816D01*
X82625000Y-77531184D01*
X82676269Y-77788930D01*
X82121613Y-78343586D01*
X82114236Y-78268691D01*
X82032182Y-77998192D01*
X81898932Y-77748899D01*
X81719608Y-77530392D01*
X81501101Y-77351068D01*
X81251808Y-77217818D01*
X80981309Y-77135764D01*
X80770492Y-77115000D01*
X80629508Y-77115000D01*
X80418691Y-77135764D01*
X80148192Y-77217818D01*
X79898899Y-77351068D01*
X79680392Y-77530392D01*
X79501068Y-77748899D01*
X79367818Y-77998192D01*
X79285764Y-78268691D01*
X79258057Y-78550000D01*
X79285764Y-78831309D01*
X79367818Y-79101808D01*
X79501068Y-79351101D01*
X79680392Y-79569608D01*
X79898899Y-79748932D01*
X80148192Y-79882182D01*
X80418691Y-79964236D01*
X80493586Y-79971613D01*
X80115199Y-80350000D01*
X66909800Y-80350000D01*
X66375739Y-79815939D01*
X66501101Y-79748932D01*
X66719608Y-79569608D01*
X66898932Y-79351101D01*
X67032182Y-79101808D01*
X67114236Y-78831309D01*
X67141943Y-78550000D01*
X67258057Y-78550000D01*
X67285764Y-78831309D01*
X67367818Y-79101808D01*
X67501068Y-79351101D01*
X67680392Y-79569608D01*
X67898899Y-79748932D01*
X68148192Y-79882182D01*
X68418691Y-79964236D01*
X68629508Y-79985000D01*
X68770492Y-79985000D01*
X68981309Y-79964236D01*
X69251808Y-79882182D01*
X69501101Y-79748932D01*
X69719608Y-79569608D01*
X69898932Y-79351101D01*
X70032182Y-79101808D01*
X70114236Y-78831309D01*
X70141943Y-78550000D01*
X70258057Y-78550000D01*
X70285764Y-78831309D01*
X70367818Y-79101808D01*
X70501068Y-79351101D01*
X70680392Y-79569608D01*
X70898899Y-79748932D01*
X71148192Y-79882182D01*
X71418691Y-79964236D01*
X71629508Y-79985000D01*
X71770492Y-79985000D01*
X71981309Y-79964236D01*
X72251808Y-79882182D01*
X72501101Y-79748932D01*
X72719608Y-79569608D01*
X72898932Y-79351101D01*
X73032182Y-79101808D01*
X73114236Y-78831309D01*
X73141943Y-78550000D01*
X73114236Y-78268691D01*
X73032182Y-77998192D01*
X72898932Y-77748899D01*
X72719608Y-77530392D01*
X72501101Y-77351068D01*
X72251808Y-77217818D01*
X71981309Y-77135764D01*
X71770492Y-77115000D01*
X71629508Y-77115000D01*
X71418691Y-77135764D01*
X71148192Y-77217818D01*
X70898899Y-77351068D01*
X70680392Y-77530392D01*
X70501068Y-77748899D01*
X70367818Y-77998192D01*
X70285764Y-78268691D01*
X70258057Y-78550000D01*
X70141943Y-78550000D01*
X70114236Y-78268691D01*
X70032182Y-77998192D01*
X69898932Y-77748899D01*
X69719608Y-77530392D01*
X69501101Y-77351068D01*
X69251808Y-77217818D01*
X68981309Y-77135764D01*
X68770492Y-77115000D01*
X68629508Y-77115000D01*
X68418691Y-77135764D01*
X68148192Y-77217818D01*
X67898899Y-77351068D01*
X67680392Y-77530392D01*
X67501068Y-77748899D01*
X67367818Y-77998192D01*
X67285764Y-78268691D01*
X67258057Y-78550000D01*
X67141943Y-78550000D01*
X67114236Y-78268691D01*
X67032182Y-77998192D01*
X66898932Y-77748899D01*
X66719608Y-77530392D01*
X66501101Y-77351068D01*
X66426817Y-77311362D01*
X66616292Y-77243603D01*
X66741514Y-77176671D01*
X66813097Y-76932702D01*
X66000000Y-76119605D01*
X65186903Y-76932702D01*
X65258486Y-77176671D01*
X65268389Y-77181357D01*
X65148192Y-77217818D01*
X64898899Y-77351068D01*
X64680392Y-77530392D01*
X64563107Y-77673304D01*
X64231370Y-77341567D01*
X64250130Y-77338787D01*
X64516292Y-77243603D01*
X64641514Y-77176671D01*
X64713097Y-76932702D01*
X63900000Y-76119605D01*
X63885858Y-76133748D01*
X63706253Y-75954143D01*
X63720395Y-75940000D01*
X63706253Y-75925858D01*
X63885858Y-75746253D01*
X63900000Y-75760395D01*
X63914143Y-75746253D01*
X64093748Y-75925858D01*
X64079605Y-75940000D01*
X64696971Y-76557366D01*
X64763329Y-76681514D01*
X64845116Y-76705511D01*
X64892702Y-76753097D01*
X64950000Y-76736285D01*
X65007298Y-76753097D01*
X65054884Y-76705511D01*
X65136671Y-76681514D01*
X65188575Y-76571820D01*
X65820395Y-75940000D01*
X65806253Y-75925858D01*
X65985858Y-75746253D01*
X66000000Y-75760395D01*
X66014143Y-75746253D01*
X66193748Y-75925858D01*
X66179605Y-75940000D01*
X66992702Y-76753097D01*
X67236671Y-76681514D01*
X67357571Y-76426004D01*
X67426300Y-76151816D01*
X67440217Y-75869488D01*
X67398787Y-75589870D01*
X67365691Y-75497325D01*
X67454279Y-75449973D01*
X67570004Y-75355000D01*
X67593807Y-75325996D01*
X69872803Y-73047000D01*
X70990000Y-73047000D01*
X70990000Y-73797000D01*
X71035624Y-74006233D01*
X71121191Y-74202545D01*
X71243413Y-74378391D01*
X71397592Y-74527014D01*
X71577803Y-74642702D01*
X71780999Y-74714408D01*
X71948000Y-74587502D01*
X71948000Y-73047000D01*
X70990000Y-73047000D01*
X69872803Y-73047000D01*
X70764814Y-72154990D01*
X70990000Y-72154990D01*
X70990000Y-72793000D01*
X71948000Y-72793000D01*
X71948000Y-72773000D01*
X72202000Y-72773000D01*
X72202000Y-72793000D01*
X72484369Y-72793000D01*
X72495392Y-72850028D01*
X72566813Y-73025126D01*
X72571730Y-73034323D01*
X72754073Y-73047000D01*
X72202000Y-73047000D01*
X72202000Y-74587502D01*
X72369001Y-74714408D01*
X72572197Y-74642702D01*
X72752408Y-74527014D01*
X72906587Y-74378391D01*
X73028809Y-74202545D01*
X73095225Y-74050170D01*
X73245395Y-73900000D01*
X73231253Y-73885858D01*
X73315829Y-73801281D01*
X73315000Y-73805448D01*
X73315000Y-73994552D01*
X73347361Y-74157244D01*
X72952069Y-74552536D01*
X72959935Y-74665682D01*
X72818899Y-74741068D01*
X72600392Y-74920392D01*
X72421068Y-75138899D01*
X72287818Y-75388192D01*
X72205764Y-75658691D01*
X72178057Y-75940000D01*
X72205764Y-76221309D01*
X72287818Y-76491808D01*
X72421068Y-76741101D01*
X72600392Y-76959608D01*
X72818899Y-77138932D01*
X73068192Y-77272182D01*
X73338691Y-77354236D01*
X73549508Y-77375000D01*
X73690492Y-77375000D01*
X73894184Y-77354938D01*
X73680392Y-77530392D01*
X73501068Y-77748899D01*
X73367818Y-77998192D01*
X73285764Y-78268691D01*
X73258057Y-78550000D01*
X73285764Y-78831309D01*
X73367818Y-79101808D01*
X73501068Y-79351101D01*
X73680392Y-79569608D01*
X73898899Y-79748932D01*
X74148192Y-79882182D01*
X74418691Y-79964236D01*
X74629508Y-79985000D01*
X74770492Y-79985000D01*
X74981309Y-79964236D01*
X75251808Y-79882182D01*
X75501101Y-79748932D01*
X75719608Y-79569608D01*
X75898932Y-79351101D01*
X76032182Y-79101808D01*
X76114236Y-78831309D01*
X76141943Y-78550000D01*
X76258057Y-78550000D01*
X76285764Y-78831309D01*
X76367818Y-79101808D01*
X76501068Y-79351101D01*
X76680392Y-79569608D01*
X76898899Y-79748932D01*
X77148192Y-79882182D01*
X77418691Y-79964236D01*
X77629508Y-79985000D01*
X77770492Y-79985000D01*
X77981309Y-79964236D01*
X78251808Y-79882182D01*
X78501101Y-79748932D01*
X78719608Y-79569608D01*
X78898932Y-79351101D01*
X79032182Y-79101808D01*
X79114236Y-78831309D01*
X79141943Y-78550000D01*
X79114236Y-78268691D01*
X79032182Y-77998192D01*
X78898932Y-77748899D01*
X78719608Y-77530392D01*
X78501101Y-77351068D01*
X78251808Y-77217818D01*
X77981309Y-77135764D01*
X77770492Y-77115000D01*
X77629508Y-77115000D01*
X77418691Y-77135764D01*
X77148192Y-77217818D01*
X76898899Y-77351068D01*
X76680392Y-77530392D01*
X76501068Y-77748899D01*
X76367818Y-77998192D01*
X76285764Y-78268691D01*
X76258057Y-78550000D01*
X76141943Y-78550000D01*
X76114236Y-78268691D01*
X76032182Y-77998192D01*
X75898932Y-77748899D01*
X75719608Y-77530392D01*
X75501101Y-77351068D01*
X75251808Y-77217818D01*
X74981309Y-77135764D01*
X74770492Y-77115000D01*
X74629508Y-77115000D01*
X74425816Y-77135062D01*
X74639608Y-76959608D01*
X74818932Y-76741101D01*
X74840901Y-76700000D01*
X76057297Y-76700000D01*
X76094619Y-76703676D01*
X76131941Y-76700000D01*
X76131952Y-76700000D01*
X76243605Y-76689003D01*
X76386866Y-76645546D01*
X76518895Y-76574974D01*
X76634620Y-76480001D01*
X76658423Y-76450997D01*
X78186004Y-74923417D01*
X78215001Y-74899620D01*
X78273188Y-74828719D01*
X78430448Y-74860000D01*
X78619552Y-74860000D01*
X78805022Y-74823108D01*
X78950420Y-74762882D01*
X79089992Y-74821581D01*
X79275260Y-74859475D01*
X79464361Y-74860497D01*
X79650028Y-74824608D01*
X79825126Y-74753187D01*
X79834323Y-74748270D01*
X79847931Y-74552536D01*
X79452639Y-74157244D01*
X79485000Y-73994552D01*
X79485000Y-73805448D01*
X79484171Y-73801281D01*
X79568748Y-73885858D01*
X79554605Y-73900000D01*
X79704775Y-74050170D01*
X79771191Y-74202545D01*
X79893413Y-74378391D01*
X80047592Y-74527014D01*
X80227803Y-74642702D01*
X80430999Y-74714408D01*
X80598000Y-74587502D01*
X80598000Y-73047000D01*
X80852000Y-73047000D01*
X80852000Y-74587502D01*
X81019001Y-74714408D01*
X81222197Y-74642702D01*
X81402408Y-74527014D01*
X81556587Y-74378391D01*
X81678809Y-74202545D01*
X81764376Y-74006233D01*
X81810000Y-73797000D01*
X81810000Y-73047000D01*
X80852000Y-73047000D01*
X80598000Y-73047000D01*
X80040927Y-73047000D01*
X80223270Y-73034323D01*
X80296581Y-72860008D01*
X80310287Y-72793000D01*
X80598000Y-72793000D01*
X80598000Y-71252498D01*
X80852000Y-71252498D01*
X80852000Y-72793000D01*
X81810000Y-72793000D01*
X81810000Y-72043000D01*
X81764376Y-71833767D01*
X81678809Y-71637455D01*
X81556587Y-71461609D01*
X81402408Y-71312986D01*
X81222197Y-71197298D01*
X81019001Y-71125592D01*
X80852000Y-71252498D01*
X80598000Y-71252498D01*
X80430999Y-71125592D01*
X80227803Y-71197298D01*
X80047592Y-71312986D01*
X79893413Y-71461609D01*
X79771191Y-71637455D01*
X79748087Y-71690462D01*
X79660008Y-71653419D01*
X79474740Y-71615525D01*
X79285639Y-71614503D01*
X79099972Y-71650392D01*
X78947019Y-71712780D01*
X78800022Y-71651892D01*
X78614552Y-71615000D01*
X78425448Y-71615000D01*
X78239978Y-71651892D01*
X78095000Y-71711944D01*
X77950022Y-71651892D01*
X77764552Y-71615000D01*
X77575448Y-71615000D01*
X77389978Y-71651892D01*
X77245000Y-71711944D01*
X77100022Y-71651892D01*
X76914552Y-71615000D01*
X76725448Y-71615000D01*
X76539978Y-71651892D01*
X76395000Y-71711944D01*
X76250022Y-71651892D01*
X76064552Y-71615000D01*
X75875448Y-71615000D01*
X75689978Y-71651892D01*
X75545000Y-71711944D01*
X75400022Y-71651892D01*
X75379643Y-71647838D01*
X74615795Y-70883992D01*
X74591993Y-70854989D01*
X74476268Y-70760016D01*
X74344239Y-70689444D01*
X74200978Y-70645987D01*
X74089325Y-70634990D01*
X74089314Y-70634990D01*
X74051992Y-70631314D01*
X74014670Y-70634990D01*
X72915901Y-70634990D01*
X73028809Y-70472545D01*
X73114376Y-70276233D01*
X73160000Y-70067000D01*
X73160000Y-69667000D01*
X79640000Y-69667000D01*
X79640000Y-70067000D01*
X79685624Y-70276233D01*
X79771191Y-70472545D01*
X79893413Y-70648391D01*
X80047592Y-70797014D01*
X80227803Y-70912702D01*
X80430999Y-70984408D01*
X80598000Y-70857502D01*
X80598000Y-69667000D01*
X80852000Y-69667000D01*
X80852000Y-70857502D01*
X81019001Y-70984408D01*
X81222197Y-70912702D01*
X81402408Y-70797014D01*
X81556587Y-70648391D01*
X81678809Y-70472545D01*
X81764376Y-70276233D01*
X81810000Y-70067000D01*
X81810000Y-69667000D01*
X80852000Y-69667000D01*
X80598000Y-69667000D01*
X79640000Y-69667000D01*
X73160000Y-69667000D01*
X72202000Y-69667000D01*
X72202000Y-69687000D01*
X71948000Y-69687000D01*
X71948000Y-69667000D01*
X70990000Y-69667000D01*
X70990000Y-70067000D01*
X71035624Y-70276233D01*
X71121191Y-70472545D01*
X71234099Y-70634990D01*
X70487334Y-70634990D01*
X70450011Y-70631314D01*
X70412688Y-70634990D01*
X70412679Y-70634990D01*
X70301026Y-70645987D01*
X70157765Y-70689444D01*
X70025735Y-70760016D01*
X69942095Y-70828658D01*
X69910011Y-70854989D01*
X69886213Y-70883987D01*
X69538072Y-71232128D01*
X69538072Y-70190000D01*
X69525812Y-70065518D01*
X69489502Y-69945820D01*
X69430537Y-69835506D01*
X69351185Y-69738815D01*
X69254494Y-69659463D01*
X69144180Y-69600498D01*
X69024482Y-69564188D01*
X68900000Y-69551928D01*
X67300000Y-69551928D01*
X67175518Y-69564188D01*
X67055820Y-69600498D01*
X66945506Y-69659463D01*
X66848815Y-69738815D01*
X66769463Y-69835506D01*
X66710498Y-69945820D01*
X66674188Y-70065518D01*
X66661928Y-70190000D01*
X66661928Y-71790000D01*
X66674188Y-71914482D01*
X66710498Y-72034180D01*
X66769463Y-72144494D01*
X66848815Y-72241185D01*
X66945506Y-72320537D01*
X67055820Y-72379502D01*
X67175518Y-72415812D01*
X67300000Y-72428072D01*
X68342128Y-72428072D01*
X66715202Y-74054999D01*
X57442323Y-74054999D01*
X57405000Y-74051323D01*
X57367677Y-74054999D01*
X57367668Y-74054999D01*
X57256015Y-74065996D01*
X57112754Y-74109453D01*
X56980725Y-74180025D01*
X56865000Y-74274998D01*
X56841197Y-74304002D01*
X56605907Y-74539292D01*
X56561309Y-74525764D01*
X56350492Y-74505000D01*
X56209508Y-74505000D01*
X55998691Y-74525764D01*
X55960000Y-74537501D01*
X55960000Y-70990000D01*
X59038057Y-70990000D01*
X59065764Y-71271309D01*
X59147818Y-71541808D01*
X59281068Y-71791101D01*
X59460392Y-72009608D01*
X59678899Y-72188932D01*
X59928192Y-72322182D01*
X60198691Y-72404236D01*
X60409508Y-72425000D01*
X60550492Y-72425000D01*
X60761309Y-72404236D01*
X61031808Y-72322182D01*
X61281101Y-72188932D01*
X61499608Y-72009608D01*
X61678932Y-71791101D01*
X61812182Y-71541808D01*
X61894236Y-71271309D01*
X61921943Y-70990000D01*
X61894236Y-70708691D01*
X61812182Y-70438192D01*
X61678932Y-70188899D01*
X61499608Y-69970392D01*
X61281101Y-69791068D01*
X61031808Y-69657818D01*
X60761309Y-69575764D01*
X60550492Y-69555000D01*
X60409508Y-69555000D01*
X60198691Y-69575764D01*
X59928192Y-69657818D01*
X59678899Y-69791068D01*
X59460392Y-69970392D01*
X59281068Y-70188899D01*
X59147818Y-70438192D01*
X59065764Y-70708691D01*
X59038057Y-70990000D01*
X55960000Y-70990000D01*
X55960000Y-70554275D01*
X55993919Y-70568325D01*
X56329117Y-70635000D01*
X56670883Y-70635000D01*
X57006081Y-70568325D01*
X57321831Y-70437537D01*
X57605998Y-70247663D01*
X57847663Y-70005998D01*
X58037537Y-69721831D01*
X58168325Y-69406081D01*
X58235000Y-69070883D01*
X58235000Y-68729117D01*
X58168325Y-68393919D01*
X58154275Y-68360000D01*
X71317699Y-68360000D01*
X71243413Y-68431609D01*
G36*
X79568748Y-72560858D02*
G01*
X79554605Y-72575000D01*
X79568748Y-72589143D01*
X79477930Y-72679960D01*
X79480000Y-72669552D01*
X79480000Y-72480448D01*
X79477930Y-72470040D01*
X79568748Y-72560858D01*
X79568748Y-72560858D01*
G37*
X79568748Y-72560858D02*
X79554605Y-72575000D01*
X79568748Y-72589143D01*
X79477930Y-72679960D01*
X79480000Y-72669552D01*
X79480000Y-72480448D01*
X79477930Y-72470040D01*
X79568748Y-72560858D01*
G36*
X73310000Y-72480448D02*
G01*
X73310000Y-72669552D01*
X73310829Y-72673719D01*
X73226253Y-72589143D01*
X73240395Y-72575000D01*
X73226253Y-72560858D01*
X73310829Y-72476281D01*
X73310000Y-72480448D01*
X73310000Y-72480448D01*
G37*
X73310000Y-72480448D02*
X73310000Y-72669552D01*
X73310829Y-72673719D01*
X73226253Y-72589143D01*
X73240395Y-72575000D01*
X73226253Y-72560858D01*
X73310829Y-72476281D01*
X73310000Y-72480448D01*
M02*
