G04 #@! TF.GenerationSoftware,KiCad,Pcbnew,(5.1.0)-1*
G04 #@! TF.CreationDate,2020-10-10T18:43:04-04:00*
G04 #@! TF.ProjectId,switch_tester,73776974-6368-45f7-9465-737465722e6b,rev?*
G04 #@! TF.SameCoordinates,Original*
G04 #@! TF.FileFunction,Soldermask,Bot*
G04 #@! TF.FilePolarity,Negative*
%FSLAX46Y46*%
G04 Gerber Fmt 4.6, Leading zero omitted, Abs format (unit mm)*
G04 Created by KiCad (PCBNEW (5.1.0)-1) date 2020-10-10 18:43:04*
%MOMM*%
%LPD*%
G04 APERTURE LIST*
%ADD10C,0.100000*%
G04 APERTURE END LIST*
D10*
G36*
X102824549Y-131271116D02*
G01*
X102935734Y-131293232D01*
X103145203Y-131379997D01*
X103333720Y-131505960D01*
X103494040Y-131666280D01*
X103620003Y-131854797D01*
X103706768Y-132064266D01*
X103751000Y-132286636D01*
X103751000Y-132513364D01*
X103706768Y-132735734D01*
X103620003Y-132945203D01*
X103494040Y-133133720D01*
X103333720Y-133294040D01*
X103145203Y-133420003D01*
X102935734Y-133506768D01*
X102824549Y-133528884D01*
X102713365Y-133551000D01*
X102486635Y-133551000D01*
X102375451Y-133528884D01*
X102264266Y-133506768D01*
X102054797Y-133420003D01*
X101866280Y-133294040D01*
X101705960Y-133133720D01*
X101579997Y-132945203D01*
X101493232Y-132735734D01*
X101449000Y-132513364D01*
X101449000Y-132286636D01*
X101493232Y-132064266D01*
X101579997Y-131854797D01*
X101705960Y-131666280D01*
X101866280Y-131505960D01*
X102054797Y-131379997D01*
X102264266Y-131293232D01*
X102375451Y-131271116D01*
X102486635Y-131249000D01*
X102713365Y-131249000D01*
X102824549Y-131271116D01*
X102824549Y-131271116D01*
G37*
G36*
X56724549Y-131271116D02*
G01*
X56835734Y-131293232D01*
X57045203Y-131379997D01*
X57233720Y-131505960D01*
X57394040Y-131666280D01*
X57520003Y-131854797D01*
X57606768Y-132064266D01*
X57651000Y-132286636D01*
X57651000Y-132513364D01*
X57606768Y-132735734D01*
X57520003Y-132945203D01*
X57394040Y-133133720D01*
X57233720Y-133294040D01*
X57045203Y-133420003D01*
X56835734Y-133506768D01*
X56724549Y-133528884D01*
X56613365Y-133551000D01*
X56386635Y-133551000D01*
X56275451Y-133528884D01*
X56164266Y-133506768D01*
X55954797Y-133420003D01*
X55766280Y-133294040D01*
X55605960Y-133133720D01*
X55479997Y-132945203D01*
X55393232Y-132735734D01*
X55349000Y-132513364D01*
X55349000Y-132286636D01*
X55393232Y-132064266D01*
X55479997Y-131854797D01*
X55605960Y-131666280D01*
X55766280Y-131505960D01*
X55954797Y-131379997D01*
X56164266Y-131293232D01*
X56275451Y-131271116D01*
X56386635Y-131249000D01*
X56613365Y-131249000D01*
X56724549Y-131271116D01*
X56724549Y-131271116D01*
G37*
G36*
X94191231Y-130786003D02*
G01*
X94385412Y-130866436D01*
X94385414Y-130866437D01*
X94560173Y-130983207D01*
X94708793Y-131131827D01*
X94787085Y-131249000D01*
X94825564Y-131306588D01*
X94905997Y-131500769D01*
X94947000Y-131706908D01*
X94947000Y-131917092D01*
X94905997Y-132123231D01*
X94838312Y-132286635D01*
X94825563Y-132317414D01*
X94708793Y-132492173D01*
X94560173Y-132640793D01*
X94385414Y-132757563D01*
X94385413Y-132757564D01*
X94385412Y-132757564D01*
X94191231Y-132837997D01*
X93985092Y-132879000D01*
X93774908Y-132879000D01*
X93568769Y-132837997D01*
X93374588Y-132757564D01*
X93374587Y-132757564D01*
X93374586Y-132757563D01*
X93199827Y-132640793D01*
X93051207Y-132492173D01*
X92934437Y-132317414D01*
X92921688Y-132286635D01*
X92854003Y-132123231D01*
X92813000Y-131917092D01*
X92813000Y-131706908D01*
X92854003Y-131500769D01*
X92934436Y-131306588D01*
X92972915Y-131249000D01*
X93051207Y-131131827D01*
X93199827Y-130983207D01*
X93374586Y-130866437D01*
X93374588Y-130866436D01*
X93568769Y-130786003D01*
X93774908Y-130745000D01*
X93985092Y-130745000D01*
X94191231Y-130786003D01*
X94191231Y-130786003D01*
G37*
G36*
X79091231Y-130786003D02*
G01*
X79285412Y-130866436D01*
X79285414Y-130866437D01*
X79460173Y-130983207D01*
X79608793Y-131131827D01*
X79687085Y-131249000D01*
X79725564Y-131306588D01*
X79805997Y-131500769D01*
X79847000Y-131706908D01*
X79847000Y-131917092D01*
X79805997Y-132123231D01*
X79738312Y-132286635D01*
X79725563Y-132317414D01*
X79608793Y-132492173D01*
X79460173Y-132640793D01*
X79285414Y-132757563D01*
X79285413Y-132757564D01*
X79285412Y-132757564D01*
X79091231Y-132837997D01*
X78885092Y-132879000D01*
X78674908Y-132879000D01*
X78468769Y-132837997D01*
X78274588Y-132757564D01*
X78274587Y-132757564D01*
X78274586Y-132757563D01*
X78099827Y-132640793D01*
X77951207Y-132492173D01*
X77834437Y-132317414D01*
X77821688Y-132286635D01*
X77754003Y-132123231D01*
X77713000Y-131917092D01*
X77713000Y-131706908D01*
X77754003Y-131500769D01*
X77834436Y-131306588D01*
X77872915Y-131249000D01*
X77951207Y-131131827D01*
X78099827Y-130983207D01*
X78274586Y-130866437D01*
X78274588Y-130866436D01*
X78468769Y-130786003D01*
X78674908Y-130745000D01*
X78885092Y-130745000D01*
X79091231Y-130786003D01*
X79091231Y-130786003D01*
G37*
G36*
X63991231Y-130786003D02*
G01*
X64185412Y-130866436D01*
X64185414Y-130866437D01*
X64360173Y-130983207D01*
X64508793Y-131131827D01*
X64587085Y-131249000D01*
X64625564Y-131306588D01*
X64705997Y-131500769D01*
X64747000Y-131706908D01*
X64747000Y-131917092D01*
X64705997Y-132123231D01*
X64638312Y-132286635D01*
X64625563Y-132317414D01*
X64508793Y-132492173D01*
X64360173Y-132640793D01*
X64185414Y-132757563D01*
X64185413Y-132757564D01*
X64185412Y-132757564D01*
X63991231Y-132837997D01*
X63785092Y-132879000D01*
X63574908Y-132879000D01*
X63368769Y-132837997D01*
X63174588Y-132757564D01*
X63174587Y-132757564D01*
X63174586Y-132757563D01*
X62999827Y-132640793D01*
X62851207Y-132492173D01*
X62734437Y-132317414D01*
X62721688Y-132286635D01*
X62654003Y-132123231D01*
X62613000Y-131917092D01*
X62613000Y-131706908D01*
X62654003Y-131500769D01*
X62734436Y-131306588D01*
X62772915Y-131249000D01*
X62851207Y-131131827D01*
X62999827Y-130983207D01*
X63174586Y-130866437D01*
X63174588Y-130866436D01*
X63368769Y-130786003D01*
X63574908Y-130745000D01*
X63785092Y-130745000D01*
X63991231Y-130786003D01*
X63991231Y-130786003D01*
G37*
G36*
X89191231Y-128686003D02*
G01*
X89385412Y-128766436D01*
X89385414Y-128766437D01*
X89560173Y-128883207D01*
X89708793Y-129031827D01*
X89825563Y-129206586D01*
X89825564Y-129206588D01*
X89905997Y-129400769D01*
X89947000Y-129606908D01*
X89947000Y-129817092D01*
X89905997Y-130023231D01*
X89825564Y-130217412D01*
X89825563Y-130217414D01*
X89708793Y-130392173D01*
X89560173Y-130540793D01*
X89385414Y-130657563D01*
X89385413Y-130657564D01*
X89385412Y-130657564D01*
X89191231Y-130737997D01*
X88985092Y-130779000D01*
X88774908Y-130779000D01*
X88568769Y-130737997D01*
X88374588Y-130657564D01*
X88374587Y-130657564D01*
X88374586Y-130657563D01*
X88199827Y-130540793D01*
X88051207Y-130392173D01*
X87934437Y-130217414D01*
X87934436Y-130217412D01*
X87854003Y-130023231D01*
X87813000Y-129817092D01*
X87813000Y-129606908D01*
X87854003Y-129400769D01*
X87934436Y-129206588D01*
X87934437Y-129206586D01*
X88051207Y-129031827D01*
X88199827Y-128883207D01*
X88374586Y-128766437D01*
X88374588Y-128766436D01*
X88568769Y-128686003D01*
X88774908Y-128645000D01*
X88985092Y-128645000D01*
X89191231Y-128686003D01*
X89191231Y-128686003D01*
G37*
G36*
X74091231Y-128686003D02*
G01*
X74285412Y-128766436D01*
X74285414Y-128766437D01*
X74460173Y-128883207D01*
X74608793Y-129031827D01*
X74725563Y-129206586D01*
X74725564Y-129206588D01*
X74805997Y-129400769D01*
X74847000Y-129606908D01*
X74847000Y-129817092D01*
X74805997Y-130023231D01*
X74725564Y-130217412D01*
X74725563Y-130217414D01*
X74608793Y-130392173D01*
X74460173Y-130540793D01*
X74285414Y-130657563D01*
X74285413Y-130657564D01*
X74285412Y-130657564D01*
X74091231Y-130737997D01*
X73885092Y-130779000D01*
X73674908Y-130779000D01*
X73468769Y-130737997D01*
X73274588Y-130657564D01*
X73274587Y-130657564D01*
X73274586Y-130657563D01*
X73099827Y-130540793D01*
X72951207Y-130392173D01*
X72834437Y-130217414D01*
X72834436Y-130217412D01*
X72754003Y-130023231D01*
X72713000Y-129817092D01*
X72713000Y-129606908D01*
X72754003Y-129400769D01*
X72834436Y-129206588D01*
X72834437Y-129206586D01*
X72951207Y-129031827D01*
X73099827Y-128883207D01*
X73274586Y-128766437D01*
X73274588Y-128766436D01*
X73468769Y-128686003D01*
X73674908Y-128645000D01*
X73885092Y-128645000D01*
X74091231Y-128686003D01*
X74091231Y-128686003D01*
G37*
G36*
X58991231Y-128686003D02*
G01*
X59185412Y-128766436D01*
X59185414Y-128766437D01*
X59360173Y-128883207D01*
X59508793Y-129031827D01*
X59625563Y-129206586D01*
X59625564Y-129206588D01*
X59705997Y-129400769D01*
X59747000Y-129606908D01*
X59747000Y-129817092D01*
X59705997Y-130023231D01*
X59625564Y-130217412D01*
X59625563Y-130217414D01*
X59508793Y-130392173D01*
X59360173Y-130540793D01*
X59185414Y-130657563D01*
X59185413Y-130657564D01*
X59185412Y-130657564D01*
X58991231Y-130737997D01*
X58785092Y-130779000D01*
X58574908Y-130779000D01*
X58368769Y-130737997D01*
X58174588Y-130657564D01*
X58174587Y-130657564D01*
X58174586Y-130657563D01*
X57999827Y-130540793D01*
X57851207Y-130392173D01*
X57734437Y-130217414D01*
X57734436Y-130217412D01*
X57654003Y-130023231D01*
X57613000Y-129817092D01*
X57613000Y-129606908D01*
X57654003Y-129400769D01*
X57734436Y-129206588D01*
X57734437Y-129206586D01*
X57851207Y-129031827D01*
X57999827Y-128883207D01*
X58174586Y-128766437D01*
X58174588Y-128766436D01*
X58368769Y-128686003D01*
X58574908Y-128645000D01*
X58785092Y-128645000D01*
X58991231Y-128686003D01*
X58991231Y-128686003D01*
G37*
G36*
X64194976Y-124214347D02*
G01*
X64516276Y-124347434D01*
X64516278Y-124347435D01*
X64805440Y-124540647D01*
X65051353Y-124786560D01*
X65200718Y-125010100D01*
X65244566Y-125075724D01*
X65377653Y-125397024D01*
X65445500Y-125738112D01*
X65445500Y-126085888D01*
X65377653Y-126426976D01*
X65300784Y-126612554D01*
X65244565Y-126748278D01*
X65051353Y-127037440D01*
X64805440Y-127283353D01*
X64516278Y-127476565D01*
X64516277Y-127476566D01*
X64516276Y-127476566D01*
X64194976Y-127609653D01*
X63853888Y-127677500D01*
X63506112Y-127677500D01*
X63165024Y-127609653D01*
X62843724Y-127476566D01*
X62843723Y-127476566D01*
X62843722Y-127476565D01*
X62554560Y-127283353D01*
X62308647Y-127037440D01*
X62115435Y-126748278D01*
X62059216Y-126612554D01*
X61982347Y-126426976D01*
X61914500Y-126085888D01*
X61914500Y-125738112D01*
X61982347Y-125397024D01*
X62115434Y-125075724D01*
X62159283Y-125010100D01*
X62308647Y-124786560D01*
X62554560Y-124540647D01*
X62843722Y-124347435D01*
X62843724Y-124347434D01*
X63165024Y-124214347D01*
X63506112Y-124146500D01*
X63853888Y-124146500D01*
X64194976Y-124214347D01*
X64194976Y-124214347D01*
G37*
G36*
X79294976Y-124214347D02*
G01*
X79616276Y-124347434D01*
X79616278Y-124347435D01*
X79905440Y-124540647D01*
X80151353Y-124786560D01*
X80300718Y-125010100D01*
X80344566Y-125075724D01*
X80477653Y-125397024D01*
X80545500Y-125738112D01*
X80545500Y-126085888D01*
X80477653Y-126426976D01*
X80400784Y-126612554D01*
X80344565Y-126748278D01*
X80151353Y-127037440D01*
X79905440Y-127283353D01*
X79616278Y-127476565D01*
X79616277Y-127476566D01*
X79616276Y-127476566D01*
X79294976Y-127609653D01*
X78953888Y-127677500D01*
X78606112Y-127677500D01*
X78265024Y-127609653D01*
X77943724Y-127476566D01*
X77943723Y-127476566D01*
X77943722Y-127476565D01*
X77654560Y-127283353D01*
X77408647Y-127037440D01*
X77215435Y-126748278D01*
X77159216Y-126612554D01*
X77082347Y-126426976D01*
X77014500Y-126085888D01*
X77014500Y-125738112D01*
X77082347Y-125397024D01*
X77215434Y-125075724D01*
X77259283Y-125010100D01*
X77408647Y-124786560D01*
X77654560Y-124540647D01*
X77943722Y-124347435D01*
X77943724Y-124347434D01*
X78265024Y-124214347D01*
X78606112Y-124146500D01*
X78953888Y-124146500D01*
X79294976Y-124214347D01*
X79294976Y-124214347D01*
G37*
G36*
X94394976Y-124214347D02*
G01*
X94716276Y-124347434D01*
X94716278Y-124347435D01*
X95005440Y-124540647D01*
X95251353Y-124786560D01*
X95400718Y-125010100D01*
X95444566Y-125075724D01*
X95577653Y-125397024D01*
X95645500Y-125738112D01*
X95645500Y-126085888D01*
X95577653Y-126426976D01*
X95500784Y-126612554D01*
X95444565Y-126748278D01*
X95251353Y-127037440D01*
X95005440Y-127283353D01*
X94716278Y-127476565D01*
X94716277Y-127476566D01*
X94716276Y-127476566D01*
X94394976Y-127609653D01*
X94053888Y-127677500D01*
X93706112Y-127677500D01*
X93365024Y-127609653D01*
X93043724Y-127476566D01*
X93043723Y-127476566D01*
X93043722Y-127476565D01*
X92754560Y-127283353D01*
X92508647Y-127037440D01*
X92315435Y-126748278D01*
X92259216Y-126612554D01*
X92182347Y-126426976D01*
X92114500Y-126085888D01*
X92114500Y-125738112D01*
X92182347Y-125397024D01*
X92315434Y-125075724D01*
X92359283Y-125010100D01*
X92508647Y-124786560D01*
X92754560Y-124540647D01*
X93043722Y-124347435D01*
X93043724Y-124347434D01*
X93365024Y-124214347D01*
X93706112Y-124146500D01*
X94053888Y-124146500D01*
X94394976Y-124214347D01*
X94394976Y-124214347D01*
G37*
G36*
X69355952Y-125027430D02*
G01*
X69443075Y-125044759D01*
X69552498Y-125090084D01*
X69607211Y-125112747D01*
X69753933Y-125210783D01*
X69754928Y-125211448D01*
X69880552Y-125337072D01*
X69880554Y-125337075D01*
X69979253Y-125484789D01*
X69979253Y-125484790D01*
X70047241Y-125648925D01*
X70081900Y-125823171D01*
X70081900Y-126000829D01*
X70047241Y-126175075D01*
X70001916Y-126284498D01*
X69979253Y-126339211D01*
X69920610Y-126426977D01*
X69880552Y-126486928D01*
X69754928Y-126612552D01*
X69754925Y-126612554D01*
X69607211Y-126711253D01*
X69552498Y-126733916D01*
X69443075Y-126779241D01*
X69355952Y-126796571D01*
X69268831Y-126813900D01*
X69091169Y-126813900D01*
X69004048Y-126796571D01*
X68916925Y-126779241D01*
X68807502Y-126733916D01*
X68752789Y-126711253D01*
X68605075Y-126612554D01*
X68605072Y-126612552D01*
X68479448Y-126486928D01*
X68439390Y-126426977D01*
X68380747Y-126339211D01*
X68358084Y-126284498D01*
X68312759Y-126175075D01*
X68278100Y-126000829D01*
X68278100Y-125823171D01*
X68312759Y-125648925D01*
X68380747Y-125484790D01*
X68380747Y-125484789D01*
X68479446Y-125337075D01*
X68479448Y-125337072D01*
X68605072Y-125211448D01*
X68606067Y-125210783D01*
X68752789Y-125112747D01*
X68807502Y-125090084D01*
X68916925Y-125044759D01*
X69004048Y-125027430D01*
X69091169Y-125010100D01*
X69268831Y-125010100D01*
X69355952Y-125027430D01*
X69355952Y-125027430D01*
G37*
G36*
X99555952Y-125027430D02*
G01*
X99643075Y-125044759D01*
X99752498Y-125090084D01*
X99807211Y-125112747D01*
X99953933Y-125210783D01*
X99954928Y-125211448D01*
X100080552Y-125337072D01*
X100080554Y-125337075D01*
X100179253Y-125484789D01*
X100179253Y-125484790D01*
X100247241Y-125648925D01*
X100281900Y-125823171D01*
X100281900Y-126000829D01*
X100247241Y-126175075D01*
X100201916Y-126284498D01*
X100179253Y-126339211D01*
X100120610Y-126426977D01*
X100080552Y-126486928D01*
X99954928Y-126612552D01*
X99954925Y-126612554D01*
X99807211Y-126711253D01*
X99752498Y-126733916D01*
X99643075Y-126779241D01*
X99555952Y-126796571D01*
X99468831Y-126813900D01*
X99291169Y-126813900D01*
X99204048Y-126796571D01*
X99116925Y-126779241D01*
X99007502Y-126733916D01*
X98952789Y-126711253D01*
X98805075Y-126612554D01*
X98805072Y-126612552D01*
X98679448Y-126486928D01*
X98639390Y-126426977D01*
X98580747Y-126339211D01*
X98558084Y-126284498D01*
X98512759Y-126175075D01*
X98478100Y-126000829D01*
X98478100Y-125823171D01*
X98512759Y-125648925D01*
X98580747Y-125484790D01*
X98580747Y-125484789D01*
X98679446Y-125337075D01*
X98679448Y-125337072D01*
X98805072Y-125211448D01*
X98806067Y-125210783D01*
X98952789Y-125112747D01*
X99007502Y-125090084D01*
X99116925Y-125044759D01*
X99204048Y-125027430D01*
X99291169Y-125010100D01*
X99468831Y-125010100D01*
X99555952Y-125027430D01*
X99555952Y-125027430D01*
G37*
G36*
X88555952Y-125027430D02*
G01*
X88643075Y-125044759D01*
X88752498Y-125090084D01*
X88807211Y-125112747D01*
X88953933Y-125210783D01*
X88954928Y-125211448D01*
X89080552Y-125337072D01*
X89080554Y-125337075D01*
X89179253Y-125484789D01*
X89179253Y-125484790D01*
X89247241Y-125648925D01*
X89281900Y-125823171D01*
X89281900Y-126000829D01*
X89247241Y-126175075D01*
X89201916Y-126284498D01*
X89179253Y-126339211D01*
X89120610Y-126426977D01*
X89080552Y-126486928D01*
X88954928Y-126612552D01*
X88954925Y-126612554D01*
X88807211Y-126711253D01*
X88752498Y-126733916D01*
X88643075Y-126779241D01*
X88555952Y-126796571D01*
X88468831Y-126813900D01*
X88291169Y-126813900D01*
X88204048Y-126796571D01*
X88116925Y-126779241D01*
X88007502Y-126733916D01*
X87952789Y-126711253D01*
X87805075Y-126612554D01*
X87805072Y-126612552D01*
X87679448Y-126486928D01*
X87639390Y-126426977D01*
X87580747Y-126339211D01*
X87558084Y-126284498D01*
X87512759Y-126175075D01*
X87478100Y-126000829D01*
X87478100Y-125823171D01*
X87512759Y-125648925D01*
X87580747Y-125484790D01*
X87580747Y-125484789D01*
X87679446Y-125337075D01*
X87679448Y-125337072D01*
X87805072Y-125211448D01*
X87806067Y-125210783D01*
X87952789Y-125112747D01*
X88007502Y-125090084D01*
X88116925Y-125044759D01*
X88204048Y-125027430D01*
X88291169Y-125010100D01*
X88468831Y-125010100D01*
X88555952Y-125027430D01*
X88555952Y-125027430D01*
G37*
G36*
X73455952Y-125027430D02*
G01*
X73543075Y-125044759D01*
X73652498Y-125090084D01*
X73707211Y-125112747D01*
X73853933Y-125210783D01*
X73854928Y-125211448D01*
X73980552Y-125337072D01*
X73980554Y-125337075D01*
X74079253Y-125484789D01*
X74079253Y-125484790D01*
X74147241Y-125648925D01*
X74181900Y-125823171D01*
X74181900Y-126000829D01*
X74147241Y-126175075D01*
X74101916Y-126284498D01*
X74079253Y-126339211D01*
X74020610Y-126426977D01*
X73980552Y-126486928D01*
X73854928Y-126612552D01*
X73854925Y-126612554D01*
X73707211Y-126711253D01*
X73652498Y-126733916D01*
X73543075Y-126779241D01*
X73455952Y-126796571D01*
X73368831Y-126813900D01*
X73191169Y-126813900D01*
X73104048Y-126796571D01*
X73016925Y-126779241D01*
X72907502Y-126733916D01*
X72852789Y-126711253D01*
X72705075Y-126612554D01*
X72705072Y-126612552D01*
X72579448Y-126486928D01*
X72539390Y-126426977D01*
X72480747Y-126339211D01*
X72458084Y-126284498D01*
X72412759Y-126175075D01*
X72378100Y-126000829D01*
X72378100Y-125823171D01*
X72412759Y-125648925D01*
X72480747Y-125484790D01*
X72480747Y-125484789D01*
X72579446Y-125337075D01*
X72579448Y-125337072D01*
X72705072Y-125211448D01*
X72706067Y-125210783D01*
X72852789Y-125112747D01*
X72907502Y-125090084D01*
X73016925Y-125044759D01*
X73104048Y-125027430D01*
X73191169Y-125010100D01*
X73368831Y-125010100D01*
X73455952Y-125027430D01*
X73455952Y-125027430D01*
G37*
G36*
X84455952Y-125027430D02*
G01*
X84543075Y-125044759D01*
X84652498Y-125090084D01*
X84707211Y-125112747D01*
X84853933Y-125210783D01*
X84854928Y-125211448D01*
X84980552Y-125337072D01*
X84980554Y-125337075D01*
X85079253Y-125484789D01*
X85079253Y-125484790D01*
X85147241Y-125648925D01*
X85181900Y-125823171D01*
X85181900Y-126000829D01*
X85147241Y-126175075D01*
X85101916Y-126284498D01*
X85079253Y-126339211D01*
X85020610Y-126426977D01*
X84980552Y-126486928D01*
X84854928Y-126612552D01*
X84854925Y-126612554D01*
X84707211Y-126711253D01*
X84652498Y-126733916D01*
X84543075Y-126779241D01*
X84455952Y-126796571D01*
X84368831Y-126813900D01*
X84191169Y-126813900D01*
X84104048Y-126796571D01*
X84016925Y-126779241D01*
X83907502Y-126733916D01*
X83852789Y-126711253D01*
X83705075Y-126612554D01*
X83705072Y-126612552D01*
X83579448Y-126486928D01*
X83539390Y-126426977D01*
X83480747Y-126339211D01*
X83458084Y-126284498D01*
X83412759Y-126175075D01*
X83378100Y-126000829D01*
X83378100Y-125823171D01*
X83412759Y-125648925D01*
X83480747Y-125484790D01*
X83480747Y-125484789D01*
X83579446Y-125337075D01*
X83579448Y-125337072D01*
X83705072Y-125211448D01*
X83706067Y-125210783D01*
X83852789Y-125112747D01*
X83907502Y-125090084D01*
X84016925Y-125044759D01*
X84104048Y-125027430D01*
X84191169Y-125010100D01*
X84368831Y-125010100D01*
X84455952Y-125027430D01*
X84455952Y-125027430D01*
G37*
G36*
X58355952Y-125027430D02*
G01*
X58443075Y-125044759D01*
X58552498Y-125090084D01*
X58607211Y-125112747D01*
X58753933Y-125210783D01*
X58754928Y-125211448D01*
X58880552Y-125337072D01*
X58880554Y-125337075D01*
X58979253Y-125484789D01*
X58979253Y-125484790D01*
X59047241Y-125648925D01*
X59081900Y-125823171D01*
X59081900Y-126000829D01*
X59047241Y-126175075D01*
X59001916Y-126284498D01*
X58979253Y-126339211D01*
X58920610Y-126426977D01*
X58880552Y-126486928D01*
X58754928Y-126612552D01*
X58754925Y-126612554D01*
X58607211Y-126711253D01*
X58552498Y-126733916D01*
X58443075Y-126779241D01*
X58355952Y-126796571D01*
X58268831Y-126813900D01*
X58091169Y-126813900D01*
X58004048Y-126796571D01*
X57916925Y-126779241D01*
X57807502Y-126733916D01*
X57752789Y-126711253D01*
X57605075Y-126612554D01*
X57605072Y-126612552D01*
X57479448Y-126486928D01*
X57439390Y-126426977D01*
X57380747Y-126339211D01*
X57358084Y-126284498D01*
X57312759Y-126175075D01*
X57278100Y-126000829D01*
X57278100Y-125823171D01*
X57312759Y-125648925D01*
X57380747Y-125484790D01*
X57380747Y-125484789D01*
X57479446Y-125337075D01*
X57479448Y-125337072D01*
X57605072Y-125211448D01*
X57606067Y-125210783D01*
X57752789Y-125112747D01*
X57807502Y-125090084D01*
X57916925Y-125044759D01*
X58004048Y-125027430D01*
X58091169Y-125010100D01*
X58268831Y-125010100D01*
X58355952Y-125027430D01*
X58355952Y-125027430D01*
G37*
G36*
X84082585Y-120640802D02*
G01*
X84232410Y-120670604D01*
X84514674Y-120787521D01*
X84768705Y-120957259D01*
X84984741Y-121173295D01*
X85154479Y-121427326D01*
X85271396Y-121709590D01*
X85331000Y-122009240D01*
X85331000Y-122314760D01*
X85271396Y-122614410D01*
X85154479Y-122896674D01*
X84984741Y-123150705D01*
X84768705Y-123366741D01*
X84514674Y-123536479D01*
X84232410Y-123653396D01*
X84082585Y-123683198D01*
X83932761Y-123713000D01*
X83627239Y-123713000D01*
X83477415Y-123683198D01*
X83327590Y-123653396D01*
X83045326Y-123536479D01*
X82791295Y-123366741D01*
X82575259Y-123150705D01*
X82405521Y-122896674D01*
X82288604Y-122614410D01*
X82229000Y-122314760D01*
X82229000Y-122009240D01*
X82288604Y-121709590D01*
X82405521Y-121427326D01*
X82575259Y-121173295D01*
X82791295Y-120957259D01*
X83045326Y-120787521D01*
X83327590Y-120670604D01*
X83477415Y-120640802D01*
X83627239Y-120611000D01*
X83932761Y-120611000D01*
X84082585Y-120640802D01*
X84082585Y-120640802D01*
G37*
G36*
X68982585Y-120640802D02*
G01*
X69132410Y-120670604D01*
X69414674Y-120787521D01*
X69668705Y-120957259D01*
X69884741Y-121173295D01*
X70054479Y-121427326D01*
X70171396Y-121709590D01*
X70231000Y-122009240D01*
X70231000Y-122314760D01*
X70171396Y-122614410D01*
X70054479Y-122896674D01*
X69884741Y-123150705D01*
X69668705Y-123366741D01*
X69414674Y-123536479D01*
X69132410Y-123653396D01*
X68982585Y-123683198D01*
X68832761Y-123713000D01*
X68527239Y-123713000D01*
X68377415Y-123683198D01*
X68227590Y-123653396D01*
X67945326Y-123536479D01*
X67691295Y-123366741D01*
X67475259Y-123150705D01*
X67305521Y-122896674D01*
X67188604Y-122614410D01*
X67129000Y-122314760D01*
X67129000Y-122009240D01*
X67188604Y-121709590D01*
X67305521Y-121427326D01*
X67475259Y-121173295D01*
X67691295Y-120957259D01*
X67945326Y-120787521D01*
X68227590Y-120670604D01*
X68377415Y-120640802D01*
X68527239Y-120611000D01*
X68832761Y-120611000D01*
X68982585Y-120640802D01*
X68982585Y-120640802D01*
G37*
G36*
X99182585Y-120640802D02*
G01*
X99332410Y-120670604D01*
X99614674Y-120787521D01*
X99868705Y-120957259D01*
X100084741Y-121173295D01*
X100254479Y-121427326D01*
X100371396Y-121709590D01*
X100431000Y-122009240D01*
X100431000Y-122314760D01*
X100371396Y-122614410D01*
X100254479Y-122896674D01*
X100084741Y-123150705D01*
X99868705Y-123366741D01*
X99614674Y-123536479D01*
X99332410Y-123653396D01*
X99182585Y-123683198D01*
X99032761Y-123713000D01*
X98727239Y-123713000D01*
X98577415Y-123683198D01*
X98427590Y-123653396D01*
X98145326Y-123536479D01*
X97891295Y-123366741D01*
X97675259Y-123150705D01*
X97505521Y-122896674D01*
X97388604Y-122614410D01*
X97329000Y-122314760D01*
X97329000Y-122009240D01*
X97388604Y-121709590D01*
X97505521Y-121427326D01*
X97675259Y-121173295D01*
X97891295Y-120957259D01*
X98145326Y-120787521D01*
X98427590Y-120670604D01*
X98577415Y-120640802D01*
X98727239Y-120611000D01*
X99032761Y-120611000D01*
X99182585Y-120640802D01*
X99182585Y-120640802D01*
G37*
G36*
X73306000Y-123513000D02*
G01*
X70604000Y-123513000D01*
X70604000Y-120811000D01*
X73306000Y-120811000D01*
X73306000Y-123513000D01*
X73306000Y-123513000D01*
G37*
G36*
X88406000Y-123513000D02*
G01*
X85704000Y-123513000D01*
X85704000Y-120811000D01*
X88406000Y-120811000D01*
X88406000Y-123513000D01*
X88406000Y-123513000D01*
G37*
G36*
X103506000Y-123513000D02*
G01*
X100804000Y-123513000D01*
X100804000Y-120811000D01*
X103506000Y-120811000D01*
X103506000Y-123513000D01*
X103506000Y-123513000D01*
G37*
G36*
X94182585Y-118440802D02*
G01*
X94332410Y-118470604D01*
X94614674Y-118587521D01*
X94868705Y-118757259D01*
X95084741Y-118973295D01*
X95254479Y-119227326D01*
X95371396Y-119509590D01*
X95431000Y-119809240D01*
X95431000Y-120114760D01*
X95371396Y-120414410D01*
X95254479Y-120696674D01*
X95084741Y-120950705D01*
X94868705Y-121166741D01*
X94614674Y-121336479D01*
X94332410Y-121453396D01*
X94182585Y-121483198D01*
X94032761Y-121513000D01*
X93727239Y-121513000D01*
X93577415Y-121483198D01*
X93427590Y-121453396D01*
X93145326Y-121336479D01*
X92891295Y-121166741D01*
X92675259Y-120950705D01*
X92505521Y-120696674D01*
X92388604Y-120414410D01*
X92329000Y-120114760D01*
X92329000Y-119809240D01*
X92388604Y-119509590D01*
X92505521Y-119227326D01*
X92675259Y-118973295D01*
X92891295Y-118757259D01*
X93145326Y-118587521D01*
X93427590Y-118470604D01*
X93577415Y-118440802D01*
X93727239Y-118411000D01*
X94032761Y-118411000D01*
X94182585Y-118440802D01*
X94182585Y-118440802D01*
G37*
G36*
X79082585Y-118440802D02*
G01*
X79232410Y-118470604D01*
X79514674Y-118587521D01*
X79768705Y-118757259D01*
X79984741Y-118973295D01*
X80154479Y-119227326D01*
X80271396Y-119509590D01*
X80331000Y-119809240D01*
X80331000Y-120114760D01*
X80271396Y-120414410D01*
X80154479Y-120696674D01*
X79984741Y-120950705D01*
X79768705Y-121166741D01*
X79514674Y-121336479D01*
X79232410Y-121453396D01*
X79082585Y-121483198D01*
X78932761Y-121513000D01*
X78627239Y-121513000D01*
X78477415Y-121483198D01*
X78327590Y-121453396D01*
X78045326Y-121336479D01*
X77791295Y-121166741D01*
X77575259Y-120950705D01*
X77405521Y-120696674D01*
X77288604Y-120414410D01*
X77229000Y-120114760D01*
X77229000Y-119809240D01*
X77288604Y-119509590D01*
X77405521Y-119227326D01*
X77575259Y-118973295D01*
X77791295Y-118757259D01*
X78045326Y-118587521D01*
X78327590Y-118470604D01*
X78477415Y-118440802D01*
X78627239Y-118411000D01*
X78932761Y-118411000D01*
X79082585Y-118440802D01*
X79082585Y-118440802D01*
G37*
G36*
X63982585Y-118440802D02*
G01*
X64132410Y-118470604D01*
X64414674Y-118587521D01*
X64668705Y-118757259D01*
X64884741Y-118973295D01*
X65054479Y-119227326D01*
X65171396Y-119509590D01*
X65231000Y-119809240D01*
X65231000Y-120114760D01*
X65171396Y-120414410D01*
X65054479Y-120696674D01*
X64884741Y-120950705D01*
X64668705Y-121166741D01*
X64414674Y-121336479D01*
X64132410Y-121453396D01*
X63982585Y-121483198D01*
X63832761Y-121513000D01*
X63527239Y-121513000D01*
X63377415Y-121483198D01*
X63227590Y-121453396D01*
X62945326Y-121336479D01*
X62691295Y-121166741D01*
X62475259Y-120950705D01*
X62305521Y-120696674D01*
X62188604Y-120414410D01*
X62129000Y-120114760D01*
X62129000Y-119809240D01*
X62188604Y-119509590D01*
X62305521Y-119227326D01*
X62475259Y-118973295D01*
X62691295Y-118757259D01*
X62945326Y-118587521D01*
X63227590Y-118470604D01*
X63377415Y-118440802D01*
X63527239Y-118411000D01*
X63832761Y-118411000D01*
X63982585Y-118440802D01*
X63982585Y-118440802D01*
G37*
G36*
X76856000Y-121313000D02*
G01*
X74154000Y-121313000D01*
X74154000Y-118611000D01*
X76856000Y-118611000D01*
X76856000Y-121313000D01*
X76856000Y-121313000D01*
G37*
G36*
X61756000Y-121313000D02*
G01*
X59054000Y-121313000D01*
X59054000Y-118611000D01*
X61756000Y-118611000D01*
X61756000Y-121313000D01*
X61756000Y-121313000D01*
G37*
G36*
X91956000Y-121313000D02*
G01*
X89254000Y-121313000D01*
X89254000Y-118611000D01*
X91956000Y-118611000D01*
X91956000Y-121313000D01*
X91956000Y-121313000D01*
G37*
G36*
X63991231Y-115686003D02*
G01*
X64185412Y-115766436D01*
X64185414Y-115766437D01*
X64360173Y-115883207D01*
X64508793Y-116031827D01*
X64625563Y-116206586D01*
X64625564Y-116206588D01*
X64705997Y-116400769D01*
X64747000Y-116606908D01*
X64747000Y-116817092D01*
X64705997Y-117023231D01*
X64625564Y-117217412D01*
X64625563Y-117217414D01*
X64508793Y-117392173D01*
X64360173Y-117540793D01*
X64185414Y-117657563D01*
X64185413Y-117657564D01*
X64185412Y-117657564D01*
X63991231Y-117737997D01*
X63785092Y-117779000D01*
X63574908Y-117779000D01*
X63368769Y-117737997D01*
X63174588Y-117657564D01*
X63174587Y-117657564D01*
X63174586Y-117657563D01*
X62999827Y-117540793D01*
X62851207Y-117392173D01*
X62734437Y-117217414D01*
X62734436Y-117217412D01*
X62654003Y-117023231D01*
X62613000Y-116817092D01*
X62613000Y-116606908D01*
X62654003Y-116400769D01*
X62734436Y-116206588D01*
X62734437Y-116206586D01*
X62851207Y-116031827D01*
X62999827Y-115883207D01*
X63174586Y-115766437D01*
X63174588Y-115766436D01*
X63368769Y-115686003D01*
X63574908Y-115645000D01*
X63785092Y-115645000D01*
X63991231Y-115686003D01*
X63991231Y-115686003D01*
G37*
G36*
X94191231Y-115686003D02*
G01*
X94385412Y-115766436D01*
X94385414Y-115766437D01*
X94560173Y-115883207D01*
X94708793Y-116031827D01*
X94825563Y-116206586D01*
X94825564Y-116206588D01*
X94905997Y-116400769D01*
X94947000Y-116606908D01*
X94947000Y-116817092D01*
X94905997Y-117023231D01*
X94825564Y-117217412D01*
X94825563Y-117217414D01*
X94708793Y-117392173D01*
X94560173Y-117540793D01*
X94385414Y-117657563D01*
X94385413Y-117657564D01*
X94385412Y-117657564D01*
X94191231Y-117737997D01*
X93985092Y-117779000D01*
X93774908Y-117779000D01*
X93568769Y-117737997D01*
X93374588Y-117657564D01*
X93374587Y-117657564D01*
X93374586Y-117657563D01*
X93199827Y-117540793D01*
X93051207Y-117392173D01*
X92934437Y-117217414D01*
X92934436Y-117217412D01*
X92854003Y-117023231D01*
X92813000Y-116817092D01*
X92813000Y-116606908D01*
X92854003Y-116400769D01*
X92934436Y-116206588D01*
X92934437Y-116206586D01*
X93051207Y-116031827D01*
X93199827Y-115883207D01*
X93374586Y-115766437D01*
X93374588Y-115766436D01*
X93568769Y-115686003D01*
X93774908Y-115645000D01*
X93985092Y-115645000D01*
X94191231Y-115686003D01*
X94191231Y-115686003D01*
G37*
G36*
X79091231Y-115686003D02*
G01*
X79285412Y-115766436D01*
X79285414Y-115766437D01*
X79460173Y-115883207D01*
X79608793Y-116031827D01*
X79725563Y-116206586D01*
X79725564Y-116206588D01*
X79805997Y-116400769D01*
X79847000Y-116606908D01*
X79847000Y-116817092D01*
X79805997Y-117023231D01*
X79725564Y-117217412D01*
X79725563Y-117217414D01*
X79608793Y-117392173D01*
X79460173Y-117540793D01*
X79285414Y-117657563D01*
X79285413Y-117657564D01*
X79285412Y-117657564D01*
X79091231Y-117737997D01*
X78885092Y-117779000D01*
X78674908Y-117779000D01*
X78468769Y-117737997D01*
X78274588Y-117657564D01*
X78274587Y-117657564D01*
X78274586Y-117657563D01*
X78099827Y-117540793D01*
X77951207Y-117392173D01*
X77834437Y-117217414D01*
X77834436Y-117217412D01*
X77754003Y-117023231D01*
X77713000Y-116817092D01*
X77713000Y-116606908D01*
X77754003Y-116400769D01*
X77834436Y-116206588D01*
X77834437Y-116206586D01*
X77951207Y-116031827D01*
X78099827Y-115883207D01*
X78274586Y-115766437D01*
X78274588Y-115766436D01*
X78468769Y-115686003D01*
X78674908Y-115645000D01*
X78885092Y-115645000D01*
X79091231Y-115686003D01*
X79091231Y-115686003D01*
G37*
G36*
X74091231Y-113586003D02*
G01*
X74285412Y-113666436D01*
X74285414Y-113666437D01*
X74460173Y-113783207D01*
X74608793Y-113931827D01*
X74725563Y-114106586D01*
X74725564Y-114106588D01*
X74805997Y-114300769D01*
X74847000Y-114506908D01*
X74847000Y-114717092D01*
X74805997Y-114923231D01*
X74725564Y-115117412D01*
X74725563Y-115117414D01*
X74608793Y-115292173D01*
X74460173Y-115440793D01*
X74285414Y-115557563D01*
X74285413Y-115557564D01*
X74285412Y-115557564D01*
X74091231Y-115637997D01*
X73885092Y-115679000D01*
X73674908Y-115679000D01*
X73468769Y-115637997D01*
X73274588Y-115557564D01*
X73274587Y-115557564D01*
X73274586Y-115557563D01*
X73099827Y-115440793D01*
X72951207Y-115292173D01*
X72834437Y-115117414D01*
X72834436Y-115117412D01*
X72754003Y-114923231D01*
X72713000Y-114717092D01*
X72713000Y-114506908D01*
X72754003Y-114300769D01*
X72834436Y-114106588D01*
X72834437Y-114106586D01*
X72951207Y-113931827D01*
X73099827Y-113783207D01*
X73274586Y-113666437D01*
X73274588Y-113666436D01*
X73468769Y-113586003D01*
X73674908Y-113545000D01*
X73885092Y-113545000D01*
X74091231Y-113586003D01*
X74091231Y-113586003D01*
G37*
G36*
X89191231Y-113586003D02*
G01*
X89385412Y-113666436D01*
X89385414Y-113666437D01*
X89560173Y-113783207D01*
X89708793Y-113931827D01*
X89825563Y-114106586D01*
X89825564Y-114106588D01*
X89905997Y-114300769D01*
X89947000Y-114506908D01*
X89947000Y-114717092D01*
X89905997Y-114923231D01*
X89825564Y-115117412D01*
X89825563Y-115117414D01*
X89708793Y-115292173D01*
X89560173Y-115440793D01*
X89385414Y-115557563D01*
X89385413Y-115557564D01*
X89385412Y-115557564D01*
X89191231Y-115637997D01*
X88985092Y-115679000D01*
X88774908Y-115679000D01*
X88568769Y-115637997D01*
X88374588Y-115557564D01*
X88374587Y-115557564D01*
X88374586Y-115557563D01*
X88199827Y-115440793D01*
X88051207Y-115292173D01*
X87934437Y-115117414D01*
X87934436Y-115117412D01*
X87854003Y-114923231D01*
X87813000Y-114717092D01*
X87813000Y-114506908D01*
X87854003Y-114300769D01*
X87934436Y-114106588D01*
X87934437Y-114106586D01*
X88051207Y-113931827D01*
X88199827Y-113783207D01*
X88374586Y-113666437D01*
X88374588Y-113666436D01*
X88568769Y-113586003D01*
X88774908Y-113545000D01*
X88985092Y-113545000D01*
X89191231Y-113586003D01*
X89191231Y-113586003D01*
G37*
G36*
X58991231Y-113586003D02*
G01*
X59185412Y-113666436D01*
X59185414Y-113666437D01*
X59360173Y-113783207D01*
X59508793Y-113931827D01*
X59625563Y-114106586D01*
X59625564Y-114106588D01*
X59705997Y-114300769D01*
X59747000Y-114506908D01*
X59747000Y-114717092D01*
X59705997Y-114923231D01*
X59625564Y-115117412D01*
X59625563Y-115117414D01*
X59508793Y-115292173D01*
X59360173Y-115440793D01*
X59185414Y-115557563D01*
X59185413Y-115557564D01*
X59185412Y-115557564D01*
X58991231Y-115637997D01*
X58785092Y-115679000D01*
X58574908Y-115679000D01*
X58368769Y-115637997D01*
X58174588Y-115557564D01*
X58174587Y-115557564D01*
X58174586Y-115557563D01*
X57999827Y-115440793D01*
X57851207Y-115292173D01*
X57734437Y-115117414D01*
X57734436Y-115117412D01*
X57654003Y-114923231D01*
X57613000Y-114717092D01*
X57613000Y-114506908D01*
X57654003Y-114300769D01*
X57734436Y-114106588D01*
X57734437Y-114106586D01*
X57851207Y-113931827D01*
X57999827Y-113783207D01*
X58174586Y-113666437D01*
X58174588Y-113666436D01*
X58368769Y-113586003D01*
X58574908Y-113545000D01*
X58785092Y-113545000D01*
X58991231Y-113586003D01*
X58991231Y-113586003D01*
G37*
G36*
X64194976Y-109114347D02*
G01*
X64516276Y-109247434D01*
X64516278Y-109247435D01*
X64805440Y-109440647D01*
X65051353Y-109686560D01*
X65200718Y-109910100D01*
X65244566Y-109975724D01*
X65377653Y-110297024D01*
X65445500Y-110638112D01*
X65445500Y-110985888D01*
X65377653Y-111326976D01*
X65300784Y-111512554D01*
X65244565Y-111648278D01*
X65051353Y-111937440D01*
X64805440Y-112183353D01*
X64516278Y-112376565D01*
X64516277Y-112376566D01*
X64516276Y-112376566D01*
X64194976Y-112509653D01*
X63853888Y-112577500D01*
X63506112Y-112577500D01*
X63165024Y-112509653D01*
X62843724Y-112376566D01*
X62843723Y-112376566D01*
X62843722Y-112376565D01*
X62554560Y-112183353D01*
X62308647Y-111937440D01*
X62115435Y-111648278D01*
X62059216Y-111512554D01*
X61982347Y-111326976D01*
X61914500Y-110985888D01*
X61914500Y-110638112D01*
X61982347Y-110297024D01*
X62115434Y-109975724D01*
X62159283Y-109910100D01*
X62308647Y-109686560D01*
X62554560Y-109440647D01*
X62843722Y-109247435D01*
X62843724Y-109247434D01*
X63165024Y-109114347D01*
X63506112Y-109046500D01*
X63853888Y-109046500D01*
X64194976Y-109114347D01*
X64194976Y-109114347D01*
G37*
G36*
X94394976Y-109114347D02*
G01*
X94716276Y-109247434D01*
X94716278Y-109247435D01*
X95005440Y-109440647D01*
X95251353Y-109686560D01*
X95400718Y-109910100D01*
X95444566Y-109975724D01*
X95577653Y-110297024D01*
X95645500Y-110638112D01*
X95645500Y-110985888D01*
X95577653Y-111326976D01*
X95500784Y-111512554D01*
X95444565Y-111648278D01*
X95251353Y-111937440D01*
X95005440Y-112183353D01*
X94716278Y-112376565D01*
X94716277Y-112376566D01*
X94716276Y-112376566D01*
X94394976Y-112509653D01*
X94053888Y-112577500D01*
X93706112Y-112577500D01*
X93365024Y-112509653D01*
X93043724Y-112376566D01*
X93043723Y-112376566D01*
X93043722Y-112376565D01*
X92754560Y-112183353D01*
X92508647Y-111937440D01*
X92315435Y-111648278D01*
X92259216Y-111512554D01*
X92182347Y-111326976D01*
X92114500Y-110985888D01*
X92114500Y-110638112D01*
X92182347Y-110297024D01*
X92315434Y-109975724D01*
X92359283Y-109910100D01*
X92508647Y-109686560D01*
X92754560Y-109440647D01*
X93043722Y-109247435D01*
X93043724Y-109247434D01*
X93365024Y-109114347D01*
X93706112Y-109046500D01*
X94053888Y-109046500D01*
X94394976Y-109114347D01*
X94394976Y-109114347D01*
G37*
G36*
X79294976Y-109114347D02*
G01*
X79616276Y-109247434D01*
X79616278Y-109247435D01*
X79905440Y-109440647D01*
X80151353Y-109686560D01*
X80300718Y-109910100D01*
X80344566Y-109975724D01*
X80477653Y-110297024D01*
X80545500Y-110638112D01*
X80545500Y-110985888D01*
X80477653Y-111326976D01*
X80400784Y-111512554D01*
X80344565Y-111648278D01*
X80151353Y-111937440D01*
X79905440Y-112183353D01*
X79616278Y-112376565D01*
X79616277Y-112376566D01*
X79616276Y-112376566D01*
X79294976Y-112509653D01*
X78953888Y-112577500D01*
X78606112Y-112577500D01*
X78265024Y-112509653D01*
X77943724Y-112376566D01*
X77943723Y-112376566D01*
X77943722Y-112376565D01*
X77654560Y-112183353D01*
X77408647Y-111937440D01*
X77215435Y-111648278D01*
X77159216Y-111512554D01*
X77082347Y-111326976D01*
X77014500Y-110985888D01*
X77014500Y-110638112D01*
X77082347Y-110297024D01*
X77215434Y-109975724D01*
X77259283Y-109910100D01*
X77408647Y-109686560D01*
X77654560Y-109440647D01*
X77943722Y-109247435D01*
X77943724Y-109247434D01*
X78265024Y-109114347D01*
X78606112Y-109046500D01*
X78953888Y-109046500D01*
X79294976Y-109114347D01*
X79294976Y-109114347D01*
G37*
G36*
X73455952Y-109927429D02*
G01*
X73543075Y-109944759D01*
X73652498Y-109990084D01*
X73707211Y-110012747D01*
X73853933Y-110110783D01*
X73854928Y-110111448D01*
X73980552Y-110237072D01*
X73980554Y-110237075D01*
X74079253Y-110384789D01*
X74079253Y-110384790D01*
X74147241Y-110548925D01*
X74181900Y-110723171D01*
X74181900Y-110900829D01*
X74147241Y-111075075D01*
X74101916Y-111184498D01*
X74079253Y-111239211D01*
X74020610Y-111326977D01*
X73980552Y-111386928D01*
X73854928Y-111512552D01*
X73854925Y-111512554D01*
X73707211Y-111611253D01*
X73652498Y-111633916D01*
X73543075Y-111679241D01*
X73455952Y-111696571D01*
X73368831Y-111713900D01*
X73191169Y-111713900D01*
X73104048Y-111696571D01*
X73016925Y-111679241D01*
X72907502Y-111633916D01*
X72852789Y-111611253D01*
X72705075Y-111512554D01*
X72705072Y-111512552D01*
X72579448Y-111386928D01*
X72539390Y-111326977D01*
X72480747Y-111239211D01*
X72458084Y-111184498D01*
X72412759Y-111075075D01*
X72378100Y-110900829D01*
X72378100Y-110723171D01*
X72412759Y-110548925D01*
X72480747Y-110384790D01*
X72480747Y-110384789D01*
X72579446Y-110237075D01*
X72579448Y-110237072D01*
X72705072Y-110111448D01*
X72706067Y-110110783D01*
X72852789Y-110012747D01*
X72907502Y-109990084D01*
X73016925Y-109944759D01*
X73104048Y-109927429D01*
X73191169Y-109910100D01*
X73368831Y-109910100D01*
X73455952Y-109927429D01*
X73455952Y-109927429D01*
G37*
G36*
X69355952Y-109927429D02*
G01*
X69443075Y-109944759D01*
X69552498Y-109990084D01*
X69607211Y-110012747D01*
X69753933Y-110110783D01*
X69754928Y-110111448D01*
X69880552Y-110237072D01*
X69880554Y-110237075D01*
X69979253Y-110384789D01*
X69979253Y-110384790D01*
X70047241Y-110548925D01*
X70081900Y-110723171D01*
X70081900Y-110900829D01*
X70047241Y-111075075D01*
X70001916Y-111184498D01*
X69979253Y-111239211D01*
X69920610Y-111326977D01*
X69880552Y-111386928D01*
X69754928Y-111512552D01*
X69754925Y-111512554D01*
X69607211Y-111611253D01*
X69552498Y-111633916D01*
X69443075Y-111679241D01*
X69355952Y-111696571D01*
X69268831Y-111713900D01*
X69091169Y-111713900D01*
X69004048Y-111696571D01*
X68916925Y-111679241D01*
X68807502Y-111633916D01*
X68752789Y-111611253D01*
X68605075Y-111512554D01*
X68605072Y-111512552D01*
X68479448Y-111386928D01*
X68439390Y-111326977D01*
X68380747Y-111239211D01*
X68358084Y-111184498D01*
X68312759Y-111075075D01*
X68278100Y-110900829D01*
X68278100Y-110723171D01*
X68312759Y-110548925D01*
X68380747Y-110384790D01*
X68380747Y-110384789D01*
X68479446Y-110237075D01*
X68479448Y-110237072D01*
X68605072Y-110111448D01*
X68606067Y-110110783D01*
X68752789Y-110012747D01*
X68807502Y-109990084D01*
X68916925Y-109944759D01*
X69004048Y-109927429D01*
X69091169Y-109910100D01*
X69268831Y-109910100D01*
X69355952Y-109927429D01*
X69355952Y-109927429D01*
G37*
G36*
X84455952Y-109927429D02*
G01*
X84543075Y-109944759D01*
X84652498Y-109990084D01*
X84707211Y-110012747D01*
X84853933Y-110110783D01*
X84854928Y-110111448D01*
X84980552Y-110237072D01*
X84980554Y-110237075D01*
X85079253Y-110384789D01*
X85079253Y-110384790D01*
X85147241Y-110548925D01*
X85181900Y-110723171D01*
X85181900Y-110900829D01*
X85147241Y-111075075D01*
X85101916Y-111184498D01*
X85079253Y-111239211D01*
X85020610Y-111326977D01*
X84980552Y-111386928D01*
X84854928Y-111512552D01*
X84854925Y-111512554D01*
X84707211Y-111611253D01*
X84652498Y-111633916D01*
X84543075Y-111679241D01*
X84455952Y-111696571D01*
X84368831Y-111713900D01*
X84191169Y-111713900D01*
X84104048Y-111696571D01*
X84016925Y-111679241D01*
X83907502Y-111633916D01*
X83852789Y-111611253D01*
X83705075Y-111512554D01*
X83705072Y-111512552D01*
X83579448Y-111386928D01*
X83539390Y-111326977D01*
X83480747Y-111239211D01*
X83458084Y-111184498D01*
X83412759Y-111075075D01*
X83378100Y-110900829D01*
X83378100Y-110723171D01*
X83412759Y-110548925D01*
X83480747Y-110384790D01*
X83480747Y-110384789D01*
X83579446Y-110237075D01*
X83579448Y-110237072D01*
X83705072Y-110111448D01*
X83706067Y-110110783D01*
X83852789Y-110012747D01*
X83907502Y-109990084D01*
X84016925Y-109944759D01*
X84104048Y-109927429D01*
X84191169Y-109910100D01*
X84368831Y-109910100D01*
X84455952Y-109927429D01*
X84455952Y-109927429D01*
G37*
G36*
X88555952Y-109927429D02*
G01*
X88643075Y-109944759D01*
X88752498Y-109990084D01*
X88807211Y-110012747D01*
X88953933Y-110110783D01*
X88954928Y-110111448D01*
X89080552Y-110237072D01*
X89080554Y-110237075D01*
X89179253Y-110384789D01*
X89179253Y-110384790D01*
X89247241Y-110548925D01*
X89281900Y-110723171D01*
X89281900Y-110900829D01*
X89247241Y-111075075D01*
X89201916Y-111184498D01*
X89179253Y-111239211D01*
X89120610Y-111326977D01*
X89080552Y-111386928D01*
X88954928Y-111512552D01*
X88954925Y-111512554D01*
X88807211Y-111611253D01*
X88752498Y-111633916D01*
X88643075Y-111679241D01*
X88555952Y-111696571D01*
X88468831Y-111713900D01*
X88291169Y-111713900D01*
X88204048Y-111696571D01*
X88116925Y-111679241D01*
X88007502Y-111633916D01*
X87952789Y-111611253D01*
X87805075Y-111512554D01*
X87805072Y-111512552D01*
X87679448Y-111386928D01*
X87639390Y-111326977D01*
X87580747Y-111239211D01*
X87558084Y-111184498D01*
X87512759Y-111075075D01*
X87478100Y-110900829D01*
X87478100Y-110723171D01*
X87512759Y-110548925D01*
X87580747Y-110384790D01*
X87580747Y-110384789D01*
X87679446Y-110237075D01*
X87679448Y-110237072D01*
X87805072Y-110111448D01*
X87806067Y-110110783D01*
X87952789Y-110012747D01*
X88007502Y-109990084D01*
X88116925Y-109944759D01*
X88204048Y-109927429D01*
X88291169Y-109910100D01*
X88468831Y-109910100D01*
X88555952Y-109927429D01*
X88555952Y-109927429D01*
G37*
G36*
X58355952Y-109927429D02*
G01*
X58443075Y-109944759D01*
X58552498Y-109990084D01*
X58607211Y-110012747D01*
X58753933Y-110110783D01*
X58754928Y-110111448D01*
X58880552Y-110237072D01*
X58880554Y-110237075D01*
X58979253Y-110384789D01*
X58979253Y-110384790D01*
X59047241Y-110548925D01*
X59081900Y-110723171D01*
X59081900Y-110900829D01*
X59047241Y-111075075D01*
X59001916Y-111184498D01*
X58979253Y-111239211D01*
X58920610Y-111326977D01*
X58880552Y-111386928D01*
X58754928Y-111512552D01*
X58754925Y-111512554D01*
X58607211Y-111611253D01*
X58552498Y-111633916D01*
X58443075Y-111679241D01*
X58355952Y-111696571D01*
X58268831Y-111713900D01*
X58091169Y-111713900D01*
X58004048Y-111696571D01*
X57916925Y-111679241D01*
X57807502Y-111633916D01*
X57752789Y-111611253D01*
X57605075Y-111512554D01*
X57605072Y-111512552D01*
X57479448Y-111386928D01*
X57439390Y-111326977D01*
X57380747Y-111239211D01*
X57358084Y-111184498D01*
X57312759Y-111075075D01*
X57278100Y-110900829D01*
X57278100Y-110723171D01*
X57312759Y-110548925D01*
X57380747Y-110384790D01*
X57380747Y-110384789D01*
X57479446Y-110237075D01*
X57479448Y-110237072D01*
X57605072Y-110111448D01*
X57606067Y-110110783D01*
X57752789Y-110012747D01*
X57807502Y-109990084D01*
X57916925Y-109944759D01*
X58004048Y-109927429D01*
X58091169Y-109910100D01*
X58268831Y-109910100D01*
X58355952Y-109927429D01*
X58355952Y-109927429D01*
G37*
G36*
X99555952Y-109927429D02*
G01*
X99643075Y-109944759D01*
X99752498Y-109990084D01*
X99807211Y-110012747D01*
X99953933Y-110110783D01*
X99954928Y-110111448D01*
X100080552Y-110237072D01*
X100080554Y-110237075D01*
X100179253Y-110384789D01*
X100179253Y-110384790D01*
X100247241Y-110548925D01*
X100281900Y-110723171D01*
X100281900Y-110900829D01*
X100247241Y-111075075D01*
X100201916Y-111184498D01*
X100179253Y-111239211D01*
X100120610Y-111326977D01*
X100080552Y-111386928D01*
X99954928Y-111512552D01*
X99954925Y-111512554D01*
X99807211Y-111611253D01*
X99752498Y-111633916D01*
X99643075Y-111679241D01*
X99555952Y-111696571D01*
X99468831Y-111713900D01*
X99291169Y-111713900D01*
X99204048Y-111696571D01*
X99116925Y-111679241D01*
X99007502Y-111633916D01*
X98952789Y-111611253D01*
X98805075Y-111512554D01*
X98805072Y-111512552D01*
X98679448Y-111386928D01*
X98639390Y-111326977D01*
X98580747Y-111239211D01*
X98558084Y-111184498D01*
X98512759Y-111075075D01*
X98478100Y-110900829D01*
X98478100Y-110723171D01*
X98512759Y-110548925D01*
X98580747Y-110384790D01*
X98580747Y-110384789D01*
X98679446Y-110237075D01*
X98679448Y-110237072D01*
X98805072Y-110111448D01*
X98806067Y-110110783D01*
X98952789Y-110012747D01*
X99007502Y-109990084D01*
X99116925Y-109944759D01*
X99204048Y-109927429D01*
X99291169Y-109910100D01*
X99468831Y-109910100D01*
X99555952Y-109927429D01*
X99555952Y-109927429D01*
G37*
G36*
X99182585Y-105540802D02*
G01*
X99332410Y-105570604D01*
X99614674Y-105687521D01*
X99868705Y-105857259D01*
X100084741Y-106073295D01*
X100254479Y-106327326D01*
X100371396Y-106609590D01*
X100431000Y-106909240D01*
X100431000Y-107214760D01*
X100371396Y-107514410D01*
X100254479Y-107796674D01*
X100084741Y-108050705D01*
X99868705Y-108266741D01*
X99614674Y-108436479D01*
X99332410Y-108553396D01*
X99182585Y-108583198D01*
X99032761Y-108613000D01*
X98727239Y-108613000D01*
X98577415Y-108583198D01*
X98427590Y-108553396D01*
X98145326Y-108436479D01*
X97891295Y-108266741D01*
X97675259Y-108050705D01*
X97505521Y-107796674D01*
X97388604Y-107514410D01*
X97329000Y-107214760D01*
X97329000Y-106909240D01*
X97388604Y-106609590D01*
X97505521Y-106327326D01*
X97675259Y-106073295D01*
X97891295Y-105857259D01*
X98145326Y-105687521D01*
X98427590Y-105570604D01*
X98577415Y-105540802D01*
X98727239Y-105511000D01*
X99032761Y-105511000D01*
X99182585Y-105540802D01*
X99182585Y-105540802D01*
G37*
G36*
X84082585Y-105540802D02*
G01*
X84232410Y-105570604D01*
X84514674Y-105687521D01*
X84768705Y-105857259D01*
X84984741Y-106073295D01*
X85154479Y-106327326D01*
X85271396Y-106609590D01*
X85331000Y-106909240D01*
X85331000Y-107214760D01*
X85271396Y-107514410D01*
X85154479Y-107796674D01*
X84984741Y-108050705D01*
X84768705Y-108266741D01*
X84514674Y-108436479D01*
X84232410Y-108553396D01*
X84082585Y-108583198D01*
X83932761Y-108613000D01*
X83627239Y-108613000D01*
X83477415Y-108583198D01*
X83327590Y-108553396D01*
X83045326Y-108436479D01*
X82791295Y-108266741D01*
X82575259Y-108050705D01*
X82405521Y-107796674D01*
X82288604Y-107514410D01*
X82229000Y-107214760D01*
X82229000Y-106909240D01*
X82288604Y-106609590D01*
X82405521Y-106327326D01*
X82575259Y-106073295D01*
X82791295Y-105857259D01*
X83045326Y-105687521D01*
X83327590Y-105570604D01*
X83477415Y-105540802D01*
X83627239Y-105511000D01*
X83932761Y-105511000D01*
X84082585Y-105540802D01*
X84082585Y-105540802D01*
G37*
G36*
X68982585Y-105540802D02*
G01*
X69132410Y-105570604D01*
X69414674Y-105687521D01*
X69668705Y-105857259D01*
X69884741Y-106073295D01*
X70054479Y-106327326D01*
X70171396Y-106609590D01*
X70231000Y-106909240D01*
X70231000Y-107214760D01*
X70171396Y-107514410D01*
X70054479Y-107796674D01*
X69884741Y-108050705D01*
X69668705Y-108266741D01*
X69414674Y-108436479D01*
X69132410Y-108553396D01*
X68982585Y-108583198D01*
X68832761Y-108613000D01*
X68527239Y-108613000D01*
X68377415Y-108583198D01*
X68227590Y-108553396D01*
X67945326Y-108436479D01*
X67691295Y-108266741D01*
X67475259Y-108050705D01*
X67305521Y-107796674D01*
X67188604Y-107514410D01*
X67129000Y-107214760D01*
X67129000Y-106909240D01*
X67188604Y-106609590D01*
X67305521Y-106327326D01*
X67475259Y-106073295D01*
X67691295Y-105857259D01*
X67945326Y-105687521D01*
X68227590Y-105570604D01*
X68377415Y-105540802D01*
X68527239Y-105511000D01*
X68832761Y-105511000D01*
X68982585Y-105540802D01*
X68982585Y-105540802D01*
G37*
G36*
X103506000Y-108413000D02*
G01*
X100804000Y-108413000D01*
X100804000Y-105711000D01*
X103506000Y-105711000D01*
X103506000Y-108413000D01*
X103506000Y-108413000D01*
G37*
G36*
X73306000Y-108413000D02*
G01*
X70604000Y-108413000D01*
X70604000Y-105711000D01*
X73306000Y-105711000D01*
X73306000Y-108413000D01*
X73306000Y-108413000D01*
G37*
G36*
X88406000Y-108413000D02*
G01*
X85704000Y-108413000D01*
X85704000Y-105711000D01*
X88406000Y-105711000D01*
X88406000Y-108413000D01*
X88406000Y-108413000D01*
G37*
G36*
X79082585Y-103340802D02*
G01*
X79232410Y-103370604D01*
X79514674Y-103487521D01*
X79768705Y-103657259D01*
X79984741Y-103873295D01*
X80154479Y-104127326D01*
X80271396Y-104409590D01*
X80331000Y-104709240D01*
X80331000Y-105014760D01*
X80271396Y-105314410D01*
X80154479Y-105596674D01*
X79984741Y-105850705D01*
X79768705Y-106066741D01*
X79514674Y-106236479D01*
X79232410Y-106353396D01*
X79082585Y-106383198D01*
X78932761Y-106413000D01*
X78627239Y-106413000D01*
X78477415Y-106383198D01*
X78327590Y-106353396D01*
X78045326Y-106236479D01*
X77791295Y-106066741D01*
X77575259Y-105850705D01*
X77405521Y-105596674D01*
X77288604Y-105314410D01*
X77229000Y-105014760D01*
X77229000Y-104709240D01*
X77288604Y-104409590D01*
X77405521Y-104127326D01*
X77575259Y-103873295D01*
X77791295Y-103657259D01*
X78045326Y-103487521D01*
X78327590Y-103370604D01*
X78477415Y-103340802D01*
X78627239Y-103311000D01*
X78932761Y-103311000D01*
X79082585Y-103340802D01*
X79082585Y-103340802D01*
G37*
G36*
X63982585Y-103340802D02*
G01*
X64132410Y-103370604D01*
X64414674Y-103487521D01*
X64668705Y-103657259D01*
X64884741Y-103873295D01*
X65054479Y-104127326D01*
X65171396Y-104409590D01*
X65231000Y-104709240D01*
X65231000Y-105014760D01*
X65171396Y-105314410D01*
X65054479Y-105596674D01*
X64884741Y-105850705D01*
X64668705Y-106066741D01*
X64414674Y-106236479D01*
X64132410Y-106353396D01*
X63982585Y-106383198D01*
X63832761Y-106413000D01*
X63527239Y-106413000D01*
X63377415Y-106383198D01*
X63227590Y-106353396D01*
X62945326Y-106236479D01*
X62691295Y-106066741D01*
X62475259Y-105850705D01*
X62305521Y-105596674D01*
X62188604Y-105314410D01*
X62129000Y-105014760D01*
X62129000Y-104709240D01*
X62188604Y-104409590D01*
X62305521Y-104127326D01*
X62475259Y-103873295D01*
X62691295Y-103657259D01*
X62945326Y-103487521D01*
X63227590Y-103370604D01*
X63377415Y-103340802D01*
X63527239Y-103311000D01*
X63832761Y-103311000D01*
X63982585Y-103340802D01*
X63982585Y-103340802D01*
G37*
G36*
X94182585Y-103340802D02*
G01*
X94332410Y-103370604D01*
X94614674Y-103487521D01*
X94868705Y-103657259D01*
X95084741Y-103873295D01*
X95254479Y-104127326D01*
X95371396Y-104409590D01*
X95431000Y-104709240D01*
X95431000Y-105014760D01*
X95371396Y-105314410D01*
X95254479Y-105596674D01*
X95084741Y-105850705D01*
X94868705Y-106066741D01*
X94614674Y-106236479D01*
X94332410Y-106353396D01*
X94182585Y-106383198D01*
X94032761Y-106413000D01*
X93727239Y-106413000D01*
X93577415Y-106383198D01*
X93427590Y-106353396D01*
X93145326Y-106236479D01*
X92891295Y-106066741D01*
X92675259Y-105850705D01*
X92505521Y-105596674D01*
X92388604Y-105314410D01*
X92329000Y-105014760D01*
X92329000Y-104709240D01*
X92388604Y-104409590D01*
X92505521Y-104127326D01*
X92675259Y-103873295D01*
X92891295Y-103657259D01*
X93145326Y-103487521D01*
X93427590Y-103370604D01*
X93577415Y-103340802D01*
X93727239Y-103311000D01*
X94032761Y-103311000D01*
X94182585Y-103340802D01*
X94182585Y-103340802D01*
G37*
G36*
X91956000Y-106213000D02*
G01*
X89254000Y-106213000D01*
X89254000Y-103511000D01*
X91956000Y-103511000D01*
X91956000Y-106213000D01*
X91956000Y-106213000D01*
G37*
G36*
X76856000Y-106213000D02*
G01*
X74154000Y-106213000D01*
X74154000Y-103511000D01*
X76856000Y-103511000D01*
X76856000Y-106213000D01*
X76856000Y-106213000D01*
G37*
G36*
X61756000Y-106213000D02*
G01*
X59054000Y-106213000D01*
X59054000Y-103511000D01*
X61756000Y-103511000D01*
X61756000Y-106213000D01*
X61756000Y-106213000D01*
G37*
G36*
X63991231Y-100586003D02*
G01*
X64185412Y-100666436D01*
X64185414Y-100666437D01*
X64360173Y-100783207D01*
X64508793Y-100931827D01*
X64625563Y-101106586D01*
X64625564Y-101106588D01*
X64705997Y-101300769D01*
X64747000Y-101506908D01*
X64747000Y-101717092D01*
X64705997Y-101923231D01*
X64625564Y-102117412D01*
X64625563Y-102117414D01*
X64508793Y-102292173D01*
X64360173Y-102440793D01*
X64185414Y-102557563D01*
X64185413Y-102557564D01*
X64185412Y-102557564D01*
X63991231Y-102637997D01*
X63785092Y-102679000D01*
X63574908Y-102679000D01*
X63368769Y-102637997D01*
X63174588Y-102557564D01*
X63174587Y-102557564D01*
X63174586Y-102557563D01*
X62999827Y-102440793D01*
X62851207Y-102292173D01*
X62734437Y-102117414D01*
X62734436Y-102117412D01*
X62654003Y-101923231D01*
X62613000Y-101717092D01*
X62613000Y-101506908D01*
X62654003Y-101300769D01*
X62734436Y-101106588D01*
X62734437Y-101106586D01*
X62851207Y-100931827D01*
X62999827Y-100783207D01*
X63174586Y-100666437D01*
X63174588Y-100666436D01*
X63368769Y-100586003D01*
X63574908Y-100545000D01*
X63785092Y-100545000D01*
X63991231Y-100586003D01*
X63991231Y-100586003D01*
G37*
G36*
X79091231Y-100586003D02*
G01*
X79285412Y-100666436D01*
X79285414Y-100666437D01*
X79460173Y-100783207D01*
X79608793Y-100931827D01*
X79725563Y-101106586D01*
X79725564Y-101106588D01*
X79805997Y-101300769D01*
X79847000Y-101506908D01*
X79847000Y-101717092D01*
X79805997Y-101923231D01*
X79725564Y-102117412D01*
X79725563Y-102117414D01*
X79608793Y-102292173D01*
X79460173Y-102440793D01*
X79285414Y-102557563D01*
X79285413Y-102557564D01*
X79285412Y-102557564D01*
X79091231Y-102637997D01*
X78885092Y-102679000D01*
X78674908Y-102679000D01*
X78468769Y-102637997D01*
X78274588Y-102557564D01*
X78274587Y-102557564D01*
X78274586Y-102557563D01*
X78099827Y-102440793D01*
X77951207Y-102292173D01*
X77834437Y-102117414D01*
X77834436Y-102117412D01*
X77754003Y-101923231D01*
X77713000Y-101717092D01*
X77713000Y-101506908D01*
X77754003Y-101300769D01*
X77834436Y-101106588D01*
X77834437Y-101106586D01*
X77951207Y-100931827D01*
X78099827Y-100783207D01*
X78274586Y-100666437D01*
X78274588Y-100666436D01*
X78468769Y-100586003D01*
X78674908Y-100545000D01*
X78885092Y-100545000D01*
X79091231Y-100586003D01*
X79091231Y-100586003D01*
G37*
G36*
X94191231Y-100586003D02*
G01*
X94385412Y-100666436D01*
X94385414Y-100666437D01*
X94560173Y-100783207D01*
X94708793Y-100931827D01*
X94825563Y-101106586D01*
X94825564Y-101106588D01*
X94905997Y-101300769D01*
X94947000Y-101506908D01*
X94947000Y-101717092D01*
X94905997Y-101923231D01*
X94825564Y-102117412D01*
X94825563Y-102117414D01*
X94708793Y-102292173D01*
X94560173Y-102440793D01*
X94385414Y-102557563D01*
X94385413Y-102557564D01*
X94385412Y-102557564D01*
X94191231Y-102637997D01*
X93985092Y-102679000D01*
X93774908Y-102679000D01*
X93568769Y-102637997D01*
X93374588Y-102557564D01*
X93374587Y-102557564D01*
X93374586Y-102557563D01*
X93199827Y-102440793D01*
X93051207Y-102292173D01*
X92934437Y-102117414D01*
X92934436Y-102117412D01*
X92854003Y-101923231D01*
X92813000Y-101717092D01*
X92813000Y-101506908D01*
X92854003Y-101300769D01*
X92934436Y-101106588D01*
X92934437Y-101106586D01*
X93051207Y-100931827D01*
X93199827Y-100783207D01*
X93374586Y-100666437D01*
X93374588Y-100666436D01*
X93568769Y-100586003D01*
X93774908Y-100545000D01*
X93985092Y-100545000D01*
X94191231Y-100586003D01*
X94191231Y-100586003D01*
G37*
G36*
X89191231Y-98486003D02*
G01*
X89385412Y-98566436D01*
X89385414Y-98566437D01*
X89560173Y-98683207D01*
X89708793Y-98831827D01*
X89825563Y-99006586D01*
X89825564Y-99006588D01*
X89905997Y-99200769D01*
X89947000Y-99406908D01*
X89947000Y-99617092D01*
X89905997Y-99823231D01*
X89825564Y-100017412D01*
X89825563Y-100017414D01*
X89708793Y-100192173D01*
X89560173Y-100340793D01*
X89385414Y-100457563D01*
X89385413Y-100457564D01*
X89385412Y-100457564D01*
X89191231Y-100537997D01*
X88985092Y-100579000D01*
X88774908Y-100579000D01*
X88568769Y-100537997D01*
X88374588Y-100457564D01*
X88374587Y-100457564D01*
X88374586Y-100457563D01*
X88199827Y-100340793D01*
X88051207Y-100192173D01*
X87934437Y-100017414D01*
X87934436Y-100017412D01*
X87854003Y-99823231D01*
X87813000Y-99617092D01*
X87813000Y-99406908D01*
X87854003Y-99200769D01*
X87934436Y-99006588D01*
X87934437Y-99006586D01*
X88051207Y-98831827D01*
X88199827Y-98683207D01*
X88374586Y-98566437D01*
X88374588Y-98566436D01*
X88568769Y-98486003D01*
X88774908Y-98445000D01*
X88985092Y-98445000D01*
X89191231Y-98486003D01*
X89191231Y-98486003D01*
G37*
G36*
X74091231Y-98486003D02*
G01*
X74285412Y-98566436D01*
X74285414Y-98566437D01*
X74460173Y-98683207D01*
X74608793Y-98831827D01*
X74725563Y-99006586D01*
X74725564Y-99006588D01*
X74805997Y-99200769D01*
X74847000Y-99406908D01*
X74847000Y-99617092D01*
X74805997Y-99823231D01*
X74725564Y-100017412D01*
X74725563Y-100017414D01*
X74608793Y-100192173D01*
X74460173Y-100340793D01*
X74285414Y-100457563D01*
X74285413Y-100457564D01*
X74285412Y-100457564D01*
X74091231Y-100537997D01*
X73885092Y-100579000D01*
X73674908Y-100579000D01*
X73468769Y-100537997D01*
X73274588Y-100457564D01*
X73274587Y-100457564D01*
X73274586Y-100457563D01*
X73099827Y-100340793D01*
X72951207Y-100192173D01*
X72834437Y-100017414D01*
X72834436Y-100017412D01*
X72754003Y-99823231D01*
X72713000Y-99617092D01*
X72713000Y-99406908D01*
X72754003Y-99200769D01*
X72834436Y-99006588D01*
X72834437Y-99006586D01*
X72951207Y-98831827D01*
X73099827Y-98683207D01*
X73274586Y-98566437D01*
X73274588Y-98566436D01*
X73468769Y-98486003D01*
X73674908Y-98445000D01*
X73885092Y-98445000D01*
X74091231Y-98486003D01*
X74091231Y-98486003D01*
G37*
G36*
X58991231Y-98486003D02*
G01*
X59185412Y-98566436D01*
X59185414Y-98566437D01*
X59360173Y-98683207D01*
X59508793Y-98831827D01*
X59625563Y-99006586D01*
X59625564Y-99006588D01*
X59705997Y-99200769D01*
X59747000Y-99406908D01*
X59747000Y-99617092D01*
X59705997Y-99823231D01*
X59625564Y-100017412D01*
X59625563Y-100017414D01*
X59508793Y-100192173D01*
X59360173Y-100340793D01*
X59185414Y-100457563D01*
X59185413Y-100457564D01*
X59185412Y-100457564D01*
X58991231Y-100537997D01*
X58785092Y-100579000D01*
X58574908Y-100579000D01*
X58368769Y-100537997D01*
X58174588Y-100457564D01*
X58174587Y-100457564D01*
X58174586Y-100457563D01*
X57999827Y-100340793D01*
X57851207Y-100192173D01*
X57734437Y-100017414D01*
X57734436Y-100017412D01*
X57654003Y-99823231D01*
X57613000Y-99617092D01*
X57613000Y-99406908D01*
X57654003Y-99200769D01*
X57734436Y-99006588D01*
X57734437Y-99006586D01*
X57851207Y-98831827D01*
X57999827Y-98683207D01*
X58174586Y-98566437D01*
X58174588Y-98566436D01*
X58368769Y-98486003D01*
X58574908Y-98445000D01*
X58785092Y-98445000D01*
X58991231Y-98486003D01*
X58991231Y-98486003D01*
G37*
G36*
X94394976Y-94014347D02*
G01*
X94716276Y-94147434D01*
X94716278Y-94147435D01*
X95005440Y-94340647D01*
X95251353Y-94586560D01*
X95400718Y-94810100D01*
X95444566Y-94875724D01*
X95577653Y-95197024D01*
X95645500Y-95538112D01*
X95645500Y-95885888D01*
X95577653Y-96226976D01*
X95500784Y-96412554D01*
X95444565Y-96548278D01*
X95251353Y-96837440D01*
X95005440Y-97083353D01*
X94716278Y-97276565D01*
X94716277Y-97276566D01*
X94716276Y-97276566D01*
X94394976Y-97409653D01*
X94053888Y-97477500D01*
X93706112Y-97477500D01*
X93365024Y-97409653D01*
X93043724Y-97276566D01*
X93043723Y-97276566D01*
X93043722Y-97276565D01*
X92754560Y-97083353D01*
X92508647Y-96837440D01*
X92315435Y-96548278D01*
X92259216Y-96412554D01*
X92182347Y-96226976D01*
X92114500Y-95885888D01*
X92114500Y-95538112D01*
X92182347Y-95197024D01*
X92315434Y-94875724D01*
X92359283Y-94810100D01*
X92508647Y-94586560D01*
X92754560Y-94340647D01*
X93043722Y-94147435D01*
X93043724Y-94147434D01*
X93365024Y-94014347D01*
X93706112Y-93946500D01*
X94053888Y-93946500D01*
X94394976Y-94014347D01*
X94394976Y-94014347D01*
G37*
G36*
X64194976Y-94014347D02*
G01*
X64516276Y-94147434D01*
X64516278Y-94147435D01*
X64805440Y-94340647D01*
X65051353Y-94586560D01*
X65200718Y-94810100D01*
X65244566Y-94875724D01*
X65377653Y-95197024D01*
X65445500Y-95538112D01*
X65445500Y-95885888D01*
X65377653Y-96226976D01*
X65300784Y-96412554D01*
X65244565Y-96548278D01*
X65051353Y-96837440D01*
X64805440Y-97083353D01*
X64516278Y-97276565D01*
X64516277Y-97276566D01*
X64516276Y-97276566D01*
X64194976Y-97409653D01*
X63853888Y-97477500D01*
X63506112Y-97477500D01*
X63165024Y-97409653D01*
X62843724Y-97276566D01*
X62843723Y-97276566D01*
X62843722Y-97276565D01*
X62554560Y-97083353D01*
X62308647Y-96837440D01*
X62115435Y-96548278D01*
X62059216Y-96412554D01*
X61982347Y-96226976D01*
X61914500Y-95885888D01*
X61914500Y-95538112D01*
X61982347Y-95197024D01*
X62115434Y-94875724D01*
X62159283Y-94810100D01*
X62308647Y-94586560D01*
X62554560Y-94340647D01*
X62843722Y-94147435D01*
X62843724Y-94147434D01*
X63165024Y-94014347D01*
X63506112Y-93946500D01*
X63853888Y-93946500D01*
X64194976Y-94014347D01*
X64194976Y-94014347D01*
G37*
G36*
X79294976Y-94014347D02*
G01*
X79616276Y-94147434D01*
X79616278Y-94147435D01*
X79905440Y-94340647D01*
X80151353Y-94586560D01*
X80300718Y-94810100D01*
X80344566Y-94875724D01*
X80477653Y-95197024D01*
X80545500Y-95538112D01*
X80545500Y-95885888D01*
X80477653Y-96226976D01*
X80400784Y-96412554D01*
X80344565Y-96548278D01*
X80151353Y-96837440D01*
X79905440Y-97083353D01*
X79616278Y-97276565D01*
X79616277Y-97276566D01*
X79616276Y-97276566D01*
X79294976Y-97409653D01*
X78953888Y-97477500D01*
X78606112Y-97477500D01*
X78265024Y-97409653D01*
X77943724Y-97276566D01*
X77943723Y-97276566D01*
X77943722Y-97276565D01*
X77654560Y-97083353D01*
X77408647Y-96837440D01*
X77215435Y-96548278D01*
X77159216Y-96412554D01*
X77082347Y-96226976D01*
X77014500Y-95885888D01*
X77014500Y-95538112D01*
X77082347Y-95197024D01*
X77215434Y-94875724D01*
X77259283Y-94810100D01*
X77408647Y-94586560D01*
X77654560Y-94340647D01*
X77943722Y-94147435D01*
X77943724Y-94147434D01*
X78265024Y-94014347D01*
X78606112Y-93946500D01*
X78953888Y-93946500D01*
X79294976Y-94014347D01*
X79294976Y-94014347D01*
G37*
G36*
X69355952Y-94827430D02*
G01*
X69443075Y-94844759D01*
X69552498Y-94890084D01*
X69607211Y-94912747D01*
X69753933Y-95010783D01*
X69754928Y-95011448D01*
X69880552Y-95137072D01*
X69880554Y-95137075D01*
X69979253Y-95284789D01*
X69979253Y-95284790D01*
X70047241Y-95448925D01*
X70081900Y-95623171D01*
X70081900Y-95800829D01*
X70047241Y-95975075D01*
X70001916Y-96084498D01*
X69979253Y-96139211D01*
X69920610Y-96226977D01*
X69880552Y-96286928D01*
X69754928Y-96412552D01*
X69754925Y-96412554D01*
X69607211Y-96511253D01*
X69552498Y-96533916D01*
X69443075Y-96579241D01*
X69355952Y-96596571D01*
X69268831Y-96613900D01*
X69091169Y-96613900D01*
X69004048Y-96596571D01*
X68916925Y-96579241D01*
X68807502Y-96533916D01*
X68752789Y-96511253D01*
X68605075Y-96412554D01*
X68605072Y-96412552D01*
X68479448Y-96286928D01*
X68439390Y-96226977D01*
X68380747Y-96139211D01*
X68358084Y-96084498D01*
X68312759Y-95975075D01*
X68278100Y-95800829D01*
X68278100Y-95623171D01*
X68312759Y-95448925D01*
X68380747Y-95284790D01*
X68380747Y-95284789D01*
X68479446Y-95137075D01*
X68479448Y-95137072D01*
X68605072Y-95011448D01*
X68606067Y-95010783D01*
X68752789Y-94912747D01*
X68807502Y-94890084D01*
X68916925Y-94844759D01*
X69004048Y-94827430D01*
X69091169Y-94810100D01*
X69268831Y-94810100D01*
X69355952Y-94827430D01*
X69355952Y-94827430D01*
G37*
G36*
X84455952Y-94827430D02*
G01*
X84543075Y-94844759D01*
X84652498Y-94890084D01*
X84707211Y-94912747D01*
X84853933Y-95010783D01*
X84854928Y-95011448D01*
X84980552Y-95137072D01*
X84980554Y-95137075D01*
X85079253Y-95284789D01*
X85079253Y-95284790D01*
X85147241Y-95448925D01*
X85181900Y-95623171D01*
X85181900Y-95800829D01*
X85147241Y-95975075D01*
X85101916Y-96084498D01*
X85079253Y-96139211D01*
X85020610Y-96226977D01*
X84980552Y-96286928D01*
X84854928Y-96412552D01*
X84854925Y-96412554D01*
X84707211Y-96511253D01*
X84652498Y-96533916D01*
X84543075Y-96579241D01*
X84455952Y-96596571D01*
X84368831Y-96613900D01*
X84191169Y-96613900D01*
X84104048Y-96596571D01*
X84016925Y-96579241D01*
X83907502Y-96533916D01*
X83852789Y-96511253D01*
X83705075Y-96412554D01*
X83705072Y-96412552D01*
X83579448Y-96286928D01*
X83539390Y-96226977D01*
X83480747Y-96139211D01*
X83458084Y-96084498D01*
X83412759Y-95975075D01*
X83378100Y-95800829D01*
X83378100Y-95623171D01*
X83412759Y-95448925D01*
X83480747Y-95284790D01*
X83480747Y-95284789D01*
X83579446Y-95137075D01*
X83579448Y-95137072D01*
X83705072Y-95011448D01*
X83706067Y-95010783D01*
X83852789Y-94912747D01*
X83907502Y-94890084D01*
X84016925Y-94844759D01*
X84104048Y-94827430D01*
X84191169Y-94810100D01*
X84368831Y-94810100D01*
X84455952Y-94827430D01*
X84455952Y-94827430D01*
G37*
G36*
X73455952Y-94827430D02*
G01*
X73543075Y-94844759D01*
X73652498Y-94890084D01*
X73707211Y-94912747D01*
X73853933Y-95010783D01*
X73854928Y-95011448D01*
X73980552Y-95137072D01*
X73980554Y-95137075D01*
X74079253Y-95284789D01*
X74079253Y-95284790D01*
X74147241Y-95448925D01*
X74181900Y-95623171D01*
X74181900Y-95800829D01*
X74147241Y-95975075D01*
X74101916Y-96084498D01*
X74079253Y-96139211D01*
X74020610Y-96226977D01*
X73980552Y-96286928D01*
X73854928Y-96412552D01*
X73854925Y-96412554D01*
X73707211Y-96511253D01*
X73652498Y-96533916D01*
X73543075Y-96579241D01*
X73455952Y-96596571D01*
X73368831Y-96613900D01*
X73191169Y-96613900D01*
X73104048Y-96596571D01*
X73016925Y-96579241D01*
X72907502Y-96533916D01*
X72852789Y-96511253D01*
X72705075Y-96412554D01*
X72705072Y-96412552D01*
X72579448Y-96286928D01*
X72539390Y-96226977D01*
X72480747Y-96139211D01*
X72458084Y-96084498D01*
X72412759Y-95975075D01*
X72378100Y-95800829D01*
X72378100Y-95623171D01*
X72412759Y-95448925D01*
X72480747Y-95284790D01*
X72480747Y-95284789D01*
X72579446Y-95137075D01*
X72579448Y-95137072D01*
X72705072Y-95011448D01*
X72706067Y-95010783D01*
X72852789Y-94912747D01*
X72907502Y-94890084D01*
X73016925Y-94844759D01*
X73104048Y-94827430D01*
X73191169Y-94810100D01*
X73368831Y-94810100D01*
X73455952Y-94827430D01*
X73455952Y-94827430D01*
G37*
G36*
X88555952Y-94827430D02*
G01*
X88643075Y-94844759D01*
X88752498Y-94890084D01*
X88807211Y-94912747D01*
X88953933Y-95010783D01*
X88954928Y-95011448D01*
X89080552Y-95137072D01*
X89080554Y-95137075D01*
X89179253Y-95284789D01*
X89179253Y-95284790D01*
X89247241Y-95448925D01*
X89281900Y-95623171D01*
X89281900Y-95800829D01*
X89247241Y-95975075D01*
X89201916Y-96084498D01*
X89179253Y-96139211D01*
X89120610Y-96226977D01*
X89080552Y-96286928D01*
X88954928Y-96412552D01*
X88954925Y-96412554D01*
X88807211Y-96511253D01*
X88752498Y-96533916D01*
X88643075Y-96579241D01*
X88555952Y-96596571D01*
X88468831Y-96613900D01*
X88291169Y-96613900D01*
X88204048Y-96596571D01*
X88116925Y-96579241D01*
X88007502Y-96533916D01*
X87952789Y-96511253D01*
X87805075Y-96412554D01*
X87805072Y-96412552D01*
X87679448Y-96286928D01*
X87639390Y-96226977D01*
X87580747Y-96139211D01*
X87558084Y-96084498D01*
X87512759Y-95975075D01*
X87478100Y-95800829D01*
X87478100Y-95623171D01*
X87512759Y-95448925D01*
X87580747Y-95284790D01*
X87580747Y-95284789D01*
X87679446Y-95137075D01*
X87679448Y-95137072D01*
X87805072Y-95011448D01*
X87806067Y-95010783D01*
X87952789Y-94912747D01*
X88007502Y-94890084D01*
X88116925Y-94844759D01*
X88204048Y-94827430D01*
X88291169Y-94810100D01*
X88468831Y-94810100D01*
X88555952Y-94827430D01*
X88555952Y-94827430D01*
G37*
G36*
X99555952Y-94827430D02*
G01*
X99643075Y-94844759D01*
X99752498Y-94890084D01*
X99807211Y-94912747D01*
X99953933Y-95010783D01*
X99954928Y-95011448D01*
X100080552Y-95137072D01*
X100080554Y-95137075D01*
X100179253Y-95284789D01*
X100179253Y-95284790D01*
X100247241Y-95448925D01*
X100281900Y-95623171D01*
X100281900Y-95800829D01*
X100247241Y-95975075D01*
X100201916Y-96084498D01*
X100179253Y-96139211D01*
X100120610Y-96226977D01*
X100080552Y-96286928D01*
X99954928Y-96412552D01*
X99954925Y-96412554D01*
X99807211Y-96511253D01*
X99752498Y-96533916D01*
X99643075Y-96579241D01*
X99555952Y-96596571D01*
X99468831Y-96613900D01*
X99291169Y-96613900D01*
X99204048Y-96596571D01*
X99116925Y-96579241D01*
X99007502Y-96533916D01*
X98952789Y-96511253D01*
X98805075Y-96412554D01*
X98805072Y-96412552D01*
X98679448Y-96286928D01*
X98639390Y-96226977D01*
X98580747Y-96139211D01*
X98558084Y-96084498D01*
X98512759Y-95975075D01*
X98478100Y-95800829D01*
X98478100Y-95623171D01*
X98512759Y-95448925D01*
X98580747Y-95284790D01*
X98580747Y-95284789D01*
X98679446Y-95137075D01*
X98679448Y-95137072D01*
X98805072Y-95011448D01*
X98806067Y-95010783D01*
X98952789Y-94912747D01*
X99007502Y-94890084D01*
X99116925Y-94844759D01*
X99204048Y-94827430D01*
X99291169Y-94810100D01*
X99468831Y-94810100D01*
X99555952Y-94827430D01*
X99555952Y-94827430D01*
G37*
G36*
X58355952Y-94827430D02*
G01*
X58443075Y-94844759D01*
X58552498Y-94890084D01*
X58607211Y-94912747D01*
X58753933Y-95010783D01*
X58754928Y-95011448D01*
X58880552Y-95137072D01*
X58880554Y-95137075D01*
X58979253Y-95284789D01*
X58979253Y-95284790D01*
X59047241Y-95448925D01*
X59081900Y-95623171D01*
X59081900Y-95800829D01*
X59047241Y-95975075D01*
X59001916Y-96084498D01*
X58979253Y-96139211D01*
X58920610Y-96226977D01*
X58880552Y-96286928D01*
X58754928Y-96412552D01*
X58754925Y-96412554D01*
X58607211Y-96511253D01*
X58552498Y-96533916D01*
X58443075Y-96579241D01*
X58355952Y-96596571D01*
X58268831Y-96613900D01*
X58091169Y-96613900D01*
X58004048Y-96596571D01*
X57916925Y-96579241D01*
X57807502Y-96533916D01*
X57752789Y-96511253D01*
X57605075Y-96412554D01*
X57605072Y-96412552D01*
X57479448Y-96286928D01*
X57439390Y-96226977D01*
X57380747Y-96139211D01*
X57358084Y-96084498D01*
X57312759Y-95975075D01*
X57278100Y-95800829D01*
X57278100Y-95623171D01*
X57312759Y-95448925D01*
X57380747Y-95284790D01*
X57380747Y-95284789D01*
X57479446Y-95137075D01*
X57479448Y-95137072D01*
X57605072Y-95011448D01*
X57606067Y-95010783D01*
X57752789Y-94912747D01*
X57807502Y-94890084D01*
X57916925Y-94844759D01*
X58004048Y-94827430D01*
X58091169Y-94810100D01*
X58268831Y-94810100D01*
X58355952Y-94827430D01*
X58355952Y-94827430D01*
G37*
G36*
X99182585Y-90440802D02*
G01*
X99332410Y-90470604D01*
X99614674Y-90587521D01*
X99868705Y-90757259D01*
X100084741Y-90973295D01*
X100254479Y-91227326D01*
X100371396Y-91509590D01*
X100431000Y-91809240D01*
X100431000Y-92114760D01*
X100371396Y-92414410D01*
X100254479Y-92696674D01*
X100084741Y-92950705D01*
X99868705Y-93166741D01*
X99614674Y-93336479D01*
X99332410Y-93453396D01*
X99182585Y-93483198D01*
X99032761Y-93513000D01*
X98727239Y-93513000D01*
X98577415Y-93483198D01*
X98427590Y-93453396D01*
X98145326Y-93336479D01*
X97891295Y-93166741D01*
X97675259Y-92950705D01*
X97505521Y-92696674D01*
X97388604Y-92414410D01*
X97329000Y-92114760D01*
X97329000Y-91809240D01*
X97388604Y-91509590D01*
X97505521Y-91227326D01*
X97675259Y-90973295D01*
X97891295Y-90757259D01*
X98145326Y-90587521D01*
X98427590Y-90470604D01*
X98577415Y-90440802D01*
X98727239Y-90411000D01*
X99032761Y-90411000D01*
X99182585Y-90440802D01*
X99182585Y-90440802D01*
G37*
G36*
X68982585Y-90440802D02*
G01*
X69132410Y-90470604D01*
X69414674Y-90587521D01*
X69668705Y-90757259D01*
X69884741Y-90973295D01*
X70054479Y-91227326D01*
X70171396Y-91509590D01*
X70231000Y-91809240D01*
X70231000Y-92114760D01*
X70171396Y-92414410D01*
X70054479Y-92696674D01*
X69884741Y-92950705D01*
X69668705Y-93166741D01*
X69414674Y-93336479D01*
X69132410Y-93453396D01*
X68982585Y-93483198D01*
X68832761Y-93513000D01*
X68527239Y-93513000D01*
X68377415Y-93483198D01*
X68227590Y-93453396D01*
X67945326Y-93336479D01*
X67691295Y-93166741D01*
X67475259Y-92950705D01*
X67305521Y-92696674D01*
X67188604Y-92414410D01*
X67129000Y-92114760D01*
X67129000Y-91809240D01*
X67188604Y-91509590D01*
X67305521Y-91227326D01*
X67475259Y-90973295D01*
X67691295Y-90757259D01*
X67945326Y-90587521D01*
X68227590Y-90470604D01*
X68377415Y-90440802D01*
X68527239Y-90411000D01*
X68832761Y-90411000D01*
X68982585Y-90440802D01*
X68982585Y-90440802D01*
G37*
G36*
X84082585Y-90440802D02*
G01*
X84232410Y-90470604D01*
X84514674Y-90587521D01*
X84768705Y-90757259D01*
X84984741Y-90973295D01*
X85154479Y-91227326D01*
X85271396Y-91509590D01*
X85331000Y-91809240D01*
X85331000Y-92114760D01*
X85271396Y-92414410D01*
X85154479Y-92696674D01*
X84984741Y-92950705D01*
X84768705Y-93166741D01*
X84514674Y-93336479D01*
X84232410Y-93453396D01*
X84082585Y-93483198D01*
X83932761Y-93513000D01*
X83627239Y-93513000D01*
X83477415Y-93483198D01*
X83327590Y-93453396D01*
X83045326Y-93336479D01*
X82791295Y-93166741D01*
X82575259Y-92950705D01*
X82405521Y-92696674D01*
X82288604Y-92414410D01*
X82229000Y-92114760D01*
X82229000Y-91809240D01*
X82288604Y-91509590D01*
X82405521Y-91227326D01*
X82575259Y-90973295D01*
X82791295Y-90757259D01*
X83045326Y-90587521D01*
X83327590Y-90470604D01*
X83477415Y-90440802D01*
X83627239Y-90411000D01*
X83932761Y-90411000D01*
X84082585Y-90440802D01*
X84082585Y-90440802D01*
G37*
G36*
X103506000Y-93313000D02*
G01*
X100804000Y-93313000D01*
X100804000Y-90611000D01*
X103506000Y-90611000D01*
X103506000Y-93313000D01*
X103506000Y-93313000D01*
G37*
G36*
X73306000Y-93313000D02*
G01*
X70604000Y-93313000D01*
X70604000Y-90611000D01*
X73306000Y-90611000D01*
X73306000Y-93313000D01*
X73306000Y-93313000D01*
G37*
G36*
X88406000Y-93313000D02*
G01*
X85704000Y-93313000D01*
X85704000Y-90611000D01*
X88406000Y-90611000D01*
X88406000Y-93313000D01*
X88406000Y-93313000D01*
G37*
G36*
X63982585Y-88240802D02*
G01*
X64132410Y-88270604D01*
X64414674Y-88387521D01*
X64668705Y-88557259D01*
X64884741Y-88773295D01*
X65054479Y-89027326D01*
X65171396Y-89309590D01*
X65231000Y-89609240D01*
X65231000Y-89914760D01*
X65171396Y-90214410D01*
X65054479Y-90496674D01*
X64884741Y-90750705D01*
X64668705Y-90966741D01*
X64414674Y-91136479D01*
X64132410Y-91253396D01*
X63982585Y-91283198D01*
X63832761Y-91313000D01*
X63527239Y-91313000D01*
X63377415Y-91283198D01*
X63227590Y-91253396D01*
X62945326Y-91136479D01*
X62691295Y-90966741D01*
X62475259Y-90750705D01*
X62305521Y-90496674D01*
X62188604Y-90214410D01*
X62129000Y-89914760D01*
X62129000Y-89609240D01*
X62188604Y-89309590D01*
X62305521Y-89027326D01*
X62475259Y-88773295D01*
X62691295Y-88557259D01*
X62945326Y-88387521D01*
X63227590Y-88270604D01*
X63377415Y-88240802D01*
X63527239Y-88211000D01*
X63832761Y-88211000D01*
X63982585Y-88240802D01*
X63982585Y-88240802D01*
G37*
G36*
X94182585Y-88240802D02*
G01*
X94332410Y-88270604D01*
X94614674Y-88387521D01*
X94868705Y-88557259D01*
X95084741Y-88773295D01*
X95254479Y-89027326D01*
X95371396Y-89309590D01*
X95431000Y-89609240D01*
X95431000Y-89914760D01*
X95371396Y-90214410D01*
X95254479Y-90496674D01*
X95084741Y-90750705D01*
X94868705Y-90966741D01*
X94614674Y-91136479D01*
X94332410Y-91253396D01*
X94182585Y-91283198D01*
X94032761Y-91313000D01*
X93727239Y-91313000D01*
X93577415Y-91283198D01*
X93427590Y-91253396D01*
X93145326Y-91136479D01*
X92891295Y-90966741D01*
X92675259Y-90750705D01*
X92505521Y-90496674D01*
X92388604Y-90214410D01*
X92329000Y-89914760D01*
X92329000Y-89609240D01*
X92388604Y-89309590D01*
X92505521Y-89027326D01*
X92675259Y-88773295D01*
X92891295Y-88557259D01*
X93145326Y-88387521D01*
X93427590Y-88270604D01*
X93577415Y-88240802D01*
X93727239Y-88211000D01*
X94032761Y-88211000D01*
X94182585Y-88240802D01*
X94182585Y-88240802D01*
G37*
G36*
X79082585Y-88240802D02*
G01*
X79232410Y-88270604D01*
X79514674Y-88387521D01*
X79768705Y-88557259D01*
X79984741Y-88773295D01*
X80154479Y-89027326D01*
X80271396Y-89309590D01*
X80331000Y-89609240D01*
X80331000Y-89914760D01*
X80271396Y-90214410D01*
X80154479Y-90496674D01*
X79984741Y-90750705D01*
X79768705Y-90966741D01*
X79514674Y-91136479D01*
X79232410Y-91253396D01*
X79082585Y-91283198D01*
X78932761Y-91313000D01*
X78627239Y-91313000D01*
X78477415Y-91283198D01*
X78327590Y-91253396D01*
X78045326Y-91136479D01*
X77791295Y-90966741D01*
X77575259Y-90750705D01*
X77405521Y-90496674D01*
X77288604Y-90214410D01*
X77229000Y-89914760D01*
X77229000Y-89609240D01*
X77288604Y-89309590D01*
X77405521Y-89027326D01*
X77575259Y-88773295D01*
X77791295Y-88557259D01*
X78045326Y-88387521D01*
X78327590Y-88270604D01*
X78477415Y-88240802D01*
X78627239Y-88211000D01*
X78932761Y-88211000D01*
X79082585Y-88240802D01*
X79082585Y-88240802D01*
G37*
G36*
X76856000Y-91113000D02*
G01*
X74154000Y-91113000D01*
X74154000Y-88411000D01*
X76856000Y-88411000D01*
X76856000Y-91113000D01*
X76856000Y-91113000D01*
G37*
G36*
X61756000Y-91113000D02*
G01*
X59054000Y-91113000D01*
X59054000Y-88411000D01*
X61756000Y-88411000D01*
X61756000Y-91113000D01*
X61756000Y-91113000D01*
G37*
G36*
X91956000Y-91113000D02*
G01*
X89254000Y-91113000D01*
X89254000Y-88411000D01*
X91956000Y-88411000D01*
X91956000Y-91113000D01*
X91956000Y-91113000D01*
G37*
G36*
X71948228Y-85351703D02*
G01*
X72103100Y-85415853D01*
X72242481Y-85508985D01*
X72361015Y-85627519D01*
X72454147Y-85766900D01*
X72518297Y-85921772D01*
X72551000Y-86086184D01*
X72551000Y-86253816D01*
X72518297Y-86418228D01*
X72454147Y-86573100D01*
X72361015Y-86712481D01*
X72242481Y-86831015D01*
X72103100Y-86924147D01*
X71948228Y-86988297D01*
X71783816Y-87021000D01*
X71616184Y-87021000D01*
X71451772Y-86988297D01*
X71296900Y-86924147D01*
X71157519Y-86831015D01*
X71038985Y-86712481D01*
X70945853Y-86573100D01*
X70881703Y-86418228D01*
X70849000Y-86253816D01*
X70849000Y-86086184D01*
X70881703Y-85921772D01*
X70945853Y-85766900D01*
X71038985Y-85627519D01*
X71157519Y-85508985D01*
X71296900Y-85415853D01*
X71451772Y-85351703D01*
X71616184Y-85319000D01*
X71783816Y-85319000D01*
X71948228Y-85351703D01*
X71948228Y-85351703D01*
G37*
G36*
X56948228Y-85351703D02*
G01*
X57103100Y-85415853D01*
X57242481Y-85508985D01*
X57361015Y-85627519D01*
X57454147Y-85766900D01*
X57518297Y-85921772D01*
X57551000Y-86086184D01*
X57551000Y-86253816D01*
X57518297Y-86418228D01*
X57454147Y-86573100D01*
X57361015Y-86712481D01*
X57242481Y-86831015D01*
X57103100Y-86924147D01*
X56948228Y-86988297D01*
X56783816Y-87021000D01*
X56616184Y-87021000D01*
X56451772Y-86988297D01*
X56296900Y-86924147D01*
X56157519Y-86831015D01*
X56038985Y-86712481D01*
X55945853Y-86573100D01*
X55881703Y-86418228D01*
X55849000Y-86253816D01*
X55849000Y-86086184D01*
X55881703Y-85921772D01*
X55945853Y-85766900D01*
X56038985Y-85627519D01*
X56157519Y-85508985D01*
X56296900Y-85415853D01*
X56451772Y-85351703D01*
X56616184Y-85319000D01*
X56783816Y-85319000D01*
X56948228Y-85351703D01*
X56948228Y-85351703D01*
G37*
G36*
X59948228Y-85351703D02*
G01*
X60103100Y-85415853D01*
X60242481Y-85508985D01*
X60361015Y-85627519D01*
X60454147Y-85766900D01*
X60518297Y-85921772D01*
X60551000Y-86086184D01*
X60551000Y-86253816D01*
X60518297Y-86418228D01*
X60454147Y-86573100D01*
X60361015Y-86712481D01*
X60242481Y-86831015D01*
X60103100Y-86924147D01*
X59948228Y-86988297D01*
X59783816Y-87021000D01*
X59616184Y-87021000D01*
X59451772Y-86988297D01*
X59296900Y-86924147D01*
X59157519Y-86831015D01*
X59038985Y-86712481D01*
X58945853Y-86573100D01*
X58881703Y-86418228D01*
X58849000Y-86253816D01*
X58849000Y-86086184D01*
X58881703Y-85921772D01*
X58945853Y-85766900D01*
X59038985Y-85627519D01*
X59157519Y-85508985D01*
X59296900Y-85415853D01*
X59451772Y-85351703D01*
X59616184Y-85319000D01*
X59783816Y-85319000D01*
X59948228Y-85351703D01*
X59948228Y-85351703D01*
G37*
G36*
X62948228Y-85351703D02*
G01*
X63103100Y-85415853D01*
X63242481Y-85508985D01*
X63361015Y-85627519D01*
X63454147Y-85766900D01*
X63518297Y-85921772D01*
X63551000Y-86086184D01*
X63551000Y-86253816D01*
X63518297Y-86418228D01*
X63454147Y-86573100D01*
X63361015Y-86712481D01*
X63242481Y-86831015D01*
X63103100Y-86924147D01*
X62948228Y-86988297D01*
X62783816Y-87021000D01*
X62616184Y-87021000D01*
X62451772Y-86988297D01*
X62296900Y-86924147D01*
X62157519Y-86831015D01*
X62038985Y-86712481D01*
X61945853Y-86573100D01*
X61881703Y-86418228D01*
X61849000Y-86253816D01*
X61849000Y-86086184D01*
X61881703Y-85921772D01*
X61945853Y-85766900D01*
X62038985Y-85627519D01*
X62157519Y-85508985D01*
X62296900Y-85415853D01*
X62451772Y-85351703D01*
X62616184Y-85319000D01*
X62783816Y-85319000D01*
X62948228Y-85351703D01*
X62948228Y-85351703D01*
G37*
G36*
X65948228Y-85351703D02*
G01*
X66103100Y-85415853D01*
X66242481Y-85508985D01*
X66361015Y-85627519D01*
X66454147Y-85766900D01*
X66518297Y-85921772D01*
X66551000Y-86086184D01*
X66551000Y-86253816D01*
X66518297Y-86418228D01*
X66454147Y-86573100D01*
X66361015Y-86712481D01*
X66242481Y-86831015D01*
X66103100Y-86924147D01*
X65948228Y-86988297D01*
X65783816Y-87021000D01*
X65616184Y-87021000D01*
X65451772Y-86988297D01*
X65296900Y-86924147D01*
X65157519Y-86831015D01*
X65038985Y-86712481D01*
X64945853Y-86573100D01*
X64881703Y-86418228D01*
X64849000Y-86253816D01*
X64849000Y-86086184D01*
X64881703Y-85921772D01*
X64945853Y-85766900D01*
X65038985Y-85627519D01*
X65157519Y-85508985D01*
X65296900Y-85415853D01*
X65451772Y-85351703D01*
X65616184Y-85319000D01*
X65783816Y-85319000D01*
X65948228Y-85351703D01*
X65948228Y-85351703D01*
G37*
G36*
X74948228Y-85351703D02*
G01*
X75103100Y-85415853D01*
X75242481Y-85508985D01*
X75361015Y-85627519D01*
X75454147Y-85766900D01*
X75518297Y-85921772D01*
X75551000Y-86086184D01*
X75551000Y-86253816D01*
X75518297Y-86418228D01*
X75454147Y-86573100D01*
X75361015Y-86712481D01*
X75242481Y-86831015D01*
X75103100Y-86924147D01*
X74948228Y-86988297D01*
X74783816Y-87021000D01*
X74616184Y-87021000D01*
X74451772Y-86988297D01*
X74296900Y-86924147D01*
X74157519Y-86831015D01*
X74038985Y-86712481D01*
X73945853Y-86573100D01*
X73881703Y-86418228D01*
X73849000Y-86253816D01*
X73849000Y-86086184D01*
X73881703Y-85921772D01*
X73945853Y-85766900D01*
X74038985Y-85627519D01*
X74157519Y-85508985D01*
X74296900Y-85415853D01*
X74451772Y-85351703D01*
X74616184Y-85319000D01*
X74783816Y-85319000D01*
X74948228Y-85351703D01*
X74948228Y-85351703D01*
G37*
G36*
X77948228Y-85351703D02*
G01*
X78103100Y-85415853D01*
X78242481Y-85508985D01*
X78361015Y-85627519D01*
X78454147Y-85766900D01*
X78518297Y-85921772D01*
X78551000Y-86086184D01*
X78551000Y-86253816D01*
X78518297Y-86418228D01*
X78454147Y-86573100D01*
X78361015Y-86712481D01*
X78242481Y-86831015D01*
X78103100Y-86924147D01*
X77948228Y-86988297D01*
X77783816Y-87021000D01*
X77616184Y-87021000D01*
X77451772Y-86988297D01*
X77296900Y-86924147D01*
X77157519Y-86831015D01*
X77038985Y-86712481D01*
X76945853Y-86573100D01*
X76881703Y-86418228D01*
X76849000Y-86253816D01*
X76849000Y-86086184D01*
X76881703Y-85921772D01*
X76945853Y-85766900D01*
X77038985Y-85627519D01*
X77157519Y-85508985D01*
X77296900Y-85415853D01*
X77451772Y-85351703D01*
X77616184Y-85319000D01*
X77783816Y-85319000D01*
X77948228Y-85351703D01*
X77948228Y-85351703D01*
G37*
G36*
X80948228Y-85351703D02*
G01*
X81103100Y-85415853D01*
X81242481Y-85508985D01*
X81361015Y-85627519D01*
X81454147Y-85766900D01*
X81518297Y-85921772D01*
X81551000Y-86086184D01*
X81551000Y-86253816D01*
X81518297Y-86418228D01*
X81454147Y-86573100D01*
X81361015Y-86712481D01*
X81242481Y-86831015D01*
X81103100Y-86924147D01*
X80948228Y-86988297D01*
X80783816Y-87021000D01*
X80616184Y-87021000D01*
X80451772Y-86988297D01*
X80296900Y-86924147D01*
X80157519Y-86831015D01*
X80038985Y-86712481D01*
X79945853Y-86573100D01*
X79881703Y-86418228D01*
X79849000Y-86253816D01*
X79849000Y-86086184D01*
X79881703Y-85921772D01*
X79945853Y-85766900D01*
X80038985Y-85627519D01*
X80157519Y-85508985D01*
X80296900Y-85415853D01*
X80451772Y-85351703D01*
X80616184Y-85319000D01*
X80783816Y-85319000D01*
X80948228Y-85351703D01*
X80948228Y-85351703D01*
G37*
G36*
X68948228Y-85351703D02*
G01*
X69103100Y-85415853D01*
X69242481Y-85508985D01*
X69361015Y-85627519D01*
X69454147Y-85766900D01*
X69518297Y-85921772D01*
X69551000Y-86086184D01*
X69551000Y-86253816D01*
X69518297Y-86418228D01*
X69454147Y-86573100D01*
X69361015Y-86712481D01*
X69242481Y-86831015D01*
X69103100Y-86924147D01*
X68948228Y-86988297D01*
X68783816Y-87021000D01*
X68616184Y-87021000D01*
X68451772Y-86988297D01*
X68296900Y-86924147D01*
X68157519Y-86831015D01*
X68038985Y-86712481D01*
X67945853Y-86573100D01*
X67881703Y-86418228D01*
X67849000Y-86253816D01*
X67849000Y-86086184D01*
X67881703Y-85921772D01*
X67945853Y-85766900D01*
X68038985Y-85627519D01*
X68157519Y-85508985D01*
X68296900Y-85415853D01*
X68451772Y-85351703D01*
X68616184Y-85319000D01*
X68783816Y-85319000D01*
X68948228Y-85351703D01*
X68948228Y-85351703D01*
G37*
G36*
X84437395Y-82965546D02*
G01*
X84610466Y-83037234D01*
X84610467Y-83037235D01*
X84766227Y-83141310D01*
X84898690Y-83273773D01*
X84898691Y-83273775D01*
X85002766Y-83429534D01*
X85074454Y-83602605D01*
X85111000Y-83786333D01*
X85111000Y-83973667D01*
X85074454Y-84157395D01*
X85002766Y-84330466D01*
X85002765Y-84330467D01*
X84898690Y-84486227D01*
X84766227Y-84618690D01*
X84687818Y-84671081D01*
X84610466Y-84722766D01*
X84437395Y-84794454D01*
X84253667Y-84831000D01*
X84066333Y-84831000D01*
X83882605Y-84794454D01*
X83709534Y-84722766D01*
X83632182Y-84671081D01*
X83553773Y-84618690D01*
X83421310Y-84486227D01*
X83317235Y-84330467D01*
X83317234Y-84330466D01*
X83245546Y-84157395D01*
X83209000Y-83973667D01*
X83209000Y-83786333D01*
X83245546Y-83602605D01*
X83317234Y-83429534D01*
X83421309Y-83273775D01*
X83421310Y-83273773D01*
X83553773Y-83141310D01*
X83709533Y-83037235D01*
X83709534Y-83037234D01*
X83882605Y-82965546D01*
X84066333Y-82929000D01*
X84253667Y-82929000D01*
X84437395Y-82965546D01*
X84437395Y-82965546D01*
G37*
G36*
X87651000Y-84831000D02*
G01*
X85749000Y-84831000D01*
X85749000Y-82929000D01*
X87651000Y-82929000D01*
X87651000Y-84831000D01*
X87651000Y-84831000D01*
G37*
G36*
X94151000Y-84831000D02*
G01*
X92249000Y-84831000D01*
X92249000Y-82929000D01*
X94151000Y-82929000D01*
X94151000Y-84831000D01*
X94151000Y-84831000D01*
G37*
G36*
X90937395Y-82965546D02*
G01*
X91110466Y-83037234D01*
X91110467Y-83037235D01*
X91266227Y-83141310D01*
X91398690Y-83273773D01*
X91398691Y-83273775D01*
X91502766Y-83429534D01*
X91574454Y-83602605D01*
X91611000Y-83786333D01*
X91611000Y-83973667D01*
X91574454Y-84157395D01*
X91502766Y-84330466D01*
X91502765Y-84330467D01*
X91398690Y-84486227D01*
X91266227Y-84618690D01*
X91187818Y-84671081D01*
X91110466Y-84722766D01*
X90937395Y-84794454D01*
X90753667Y-84831000D01*
X90566333Y-84831000D01*
X90382605Y-84794454D01*
X90209534Y-84722766D01*
X90132182Y-84671081D01*
X90053773Y-84618690D01*
X89921310Y-84486227D01*
X89817235Y-84330467D01*
X89817234Y-84330466D01*
X89745546Y-84157395D01*
X89709000Y-83973667D01*
X89709000Y-83786333D01*
X89745546Y-83602605D01*
X89817234Y-83429534D01*
X89921309Y-83273775D01*
X89921310Y-83273773D01*
X90053773Y-83141310D01*
X90209533Y-83037235D01*
X90209534Y-83037234D01*
X90382605Y-82965546D01*
X90566333Y-82929000D01*
X90753667Y-82929000D01*
X90937395Y-82965546D01*
X90937395Y-82965546D01*
G37*
G36*
X100651000Y-84831000D02*
G01*
X98749000Y-84831000D01*
X98749000Y-82929000D01*
X100651000Y-82929000D01*
X100651000Y-84831000D01*
X100651000Y-84831000D01*
G37*
G36*
X97437395Y-82965546D02*
G01*
X97610466Y-83037234D01*
X97610467Y-83037235D01*
X97766227Y-83141310D01*
X97898690Y-83273773D01*
X97898691Y-83273775D01*
X98002766Y-83429534D01*
X98074454Y-83602605D01*
X98111000Y-83786333D01*
X98111000Y-83973667D01*
X98074454Y-84157395D01*
X98002766Y-84330466D01*
X98002765Y-84330467D01*
X97898690Y-84486227D01*
X97766227Y-84618690D01*
X97687818Y-84671081D01*
X97610466Y-84722766D01*
X97437395Y-84794454D01*
X97253667Y-84831000D01*
X97066333Y-84831000D01*
X96882605Y-84794454D01*
X96709534Y-84722766D01*
X96632182Y-84671081D01*
X96553773Y-84618690D01*
X96421310Y-84486227D01*
X96317235Y-84330467D01*
X96317234Y-84330466D01*
X96245546Y-84157395D01*
X96209000Y-83973667D01*
X96209000Y-83786333D01*
X96245546Y-83602605D01*
X96317234Y-83429534D01*
X96421309Y-83273775D01*
X96421310Y-83273773D01*
X96553773Y-83141310D01*
X96709533Y-83037235D01*
X96709534Y-83037234D01*
X96882605Y-82965546D01*
X97066333Y-82929000D01*
X97253667Y-82929000D01*
X97437395Y-82965546D01*
X97437395Y-82965546D01*
G37*
G36*
X59866823Y-77711313D02*
G01*
X60027242Y-77759976D01*
X60159119Y-77830466D01*
X60175078Y-77838996D01*
X60304659Y-77945341D01*
X60411004Y-78074922D01*
X60411005Y-78074924D01*
X60490024Y-78222758D01*
X60490025Y-78222761D01*
X60499083Y-78252620D01*
X60538687Y-78383177D01*
X60555117Y-78550000D01*
X60538687Y-78716823D01*
X60490024Y-78877242D01*
X60419114Y-79009906D01*
X60411004Y-79025078D01*
X60304659Y-79154659D01*
X60175078Y-79261004D01*
X60175076Y-79261005D01*
X60027242Y-79340024D01*
X59866823Y-79388687D01*
X59741804Y-79401000D01*
X59658196Y-79401000D01*
X59533177Y-79388687D01*
X59372758Y-79340024D01*
X59224924Y-79261005D01*
X59224922Y-79261004D01*
X59095341Y-79154659D01*
X58988996Y-79025078D01*
X58980886Y-79009906D01*
X58909976Y-78877242D01*
X58861313Y-78716823D01*
X58844883Y-78550000D01*
X58861313Y-78383177D01*
X58900917Y-78252620D01*
X58909975Y-78222761D01*
X58909976Y-78222758D01*
X58988995Y-78074924D01*
X58988996Y-78074922D01*
X59095341Y-77945341D01*
X59224922Y-77838996D01*
X59240881Y-77830466D01*
X59372758Y-77759976D01*
X59533177Y-77711313D01*
X59658196Y-77699000D01*
X59741804Y-77699000D01*
X59866823Y-77711313D01*
X59866823Y-77711313D01*
G37*
G36*
X80866823Y-77711313D02*
G01*
X81027242Y-77759976D01*
X81159119Y-77830466D01*
X81175078Y-77838996D01*
X81304659Y-77945341D01*
X81411004Y-78074922D01*
X81411005Y-78074924D01*
X81490024Y-78222758D01*
X81490025Y-78222761D01*
X81499083Y-78252620D01*
X81538687Y-78383177D01*
X81555117Y-78550000D01*
X81538687Y-78716823D01*
X81490024Y-78877242D01*
X81419114Y-79009906D01*
X81411004Y-79025078D01*
X81304659Y-79154659D01*
X81175078Y-79261004D01*
X81175076Y-79261005D01*
X81027242Y-79340024D01*
X80866823Y-79388687D01*
X80741804Y-79401000D01*
X80658196Y-79401000D01*
X80533177Y-79388687D01*
X80372758Y-79340024D01*
X80224924Y-79261005D01*
X80224922Y-79261004D01*
X80095341Y-79154659D01*
X79988996Y-79025078D01*
X79980886Y-79009906D01*
X79909976Y-78877242D01*
X79861313Y-78716823D01*
X79844883Y-78550000D01*
X79861313Y-78383177D01*
X79900917Y-78252620D01*
X79909975Y-78222761D01*
X79909976Y-78222758D01*
X79988995Y-78074924D01*
X79988996Y-78074922D01*
X80095341Y-77945341D01*
X80224922Y-77838996D01*
X80240881Y-77830466D01*
X80372758Y-77759976D01*
X80533177Y-77711313D01*
X80658196Y-77699000D01*
X80741804Y-77699000D01*
X80866823Y-77711313D01*
X80866823Y-77711313D01*
G37*
G36*
X56866823Y-77711313D02*
G01*
X57027242Y-77759976D01*
X57159119Y-77830466D01*
X57175078Y-77838996D01*
X57304659Y-77945341D01*
X57411004Y-78074922D01*
X57411005Y-78074924D01*
X57490024Y-78222758D01*
X57490025Y-78222761D01*
X57499083Y-78252620D01*
X57538687Y-78383177D01*
X57555117Y-78550000D01*
X57538687Y-78716823D01*
X57490024Y-78877242D01*
X57419114Y-79009906D01*
X57411004Y-79025078D01*
X57304659Y-79154659D01*
X57175078Y-79261004D01*
X57175076Y-79261005D01*
X57027242Y-79340024D01*
X56866823Y-79388687D01*
X56741804Y-79401000D01*
X56658196Y-79401000D01*
X56533177Y-79388687D01*
X56372758Y-79340024D01*
X56224924Y-79261005D01*
X56224922Y-79261004D01*
X56095341Y-79154659D01*
X55988996Y-79025078D01*
X55980886Y-79009906D01*
X55909976Y-78877242D01*
X55861313Y-78716823D01*
X55844883Y-78550000D01*
X55861313Y-78383177D01*
X55900917Y-78252620D01*
X55909975Y-78222761D01*
X55909976Y-78222758D01*
X55988995Y-78074924D01*
X55988996Y-78074922D01*
X56095341Y-77945341D01*
X56224922Y-77838996D01*
X56240881Y-77830466D01*
X56372758Y-77759976D01*
X56533177Y-77711313D01*
X56658196Y-77699000D01*
X56741804Y-77699000D01*
X56866823Y-77711313D01*
X56866823Y-77711313D01*
G37*
G36*
X62866823Y-77711313D02*
G01*
X63027242Y-77759976D01*
X63159119Y-77830466D01*
X63175078Y-77838996D01*
X63304659Y-77945341D01*
X63411004Y-78074922D01*
X63411005Y-78074924D01*
X63490024Y-78222758D01*
X63490025Y-78222761D01*
X63499083Y-78252620D01*
X63538687Y-78383177D01*
X63555117Y-78550000D01*
X63538687Y-78716823D01*
X63490024Y-78877242D01*
X63419114Y-79009906D01*
X63411004Y-79025078D01*
X63304659Y-79154659D01*
X63175078Y-79261004D01*
X63175076Y-79261005D01*
X63027242Y-79340024D01*
X62866823Y-79388687D01*
X62741804Y-79401000D01*
X62658196Y-79401000D01*
X62533177Y-79388687D01*
X62372758Y-79340024D01*
X62224924Y-79261005D01*
X62224922Y-79261004D01*
X62095341Y-79154659D01*
X61988996Y-79025078D01*
X61980886Y-79009906D01*
X61909976Y-78877242D01*
X61861313Y-78716823D01*
X61844883Y-78550000D01*
X61861313Y-78383177D01*
X61900917Y-78252620D01*
X61909975Y-78222761D01*
X61909976Y-78222758D01*
X61988995Y-78074924D01*
X61988996Y-78074922D01*
X62095341Y-77945341D01*
X62224922Y-77838996D01*
X62240881Y-77830466D01*
X62372758Y-77759976D01*
X62533177Y-77711313D01*
X62658196Y-77699000D01*
X62741804Y-77699000D01*
X62866823Y-77711313D01*
X62866823Y-77711313D01*
G37*
G36*
X68866823Y-77711313D02*
G01*
X69027242Y-77759976D01*
X69159119Y-77830466D01*
X69175078Y-77838996D01*
X69304659Y-77945341D01*
X69411004Y-78074922D01*
X69411005Y-78074924D01*
X69490024Y-78222758D01*
X69490025Y-78222761D01*
X69499083Y-78252620D01*
X69538687Y-78383177D01*
X69555117Y-78550000D01*
X69538687Y-78716823D01*
X69490024Y-78877242D01*
X69419114Y-79009906D01*
X69411004Y-79025078D01*
X69304659Y-79154659D01*
X69175078Y-79261004D01*
X69175076Y-79261005D01*
X69027242Y-79340024D01*
X68866823Y-79388687D01*
X68741804Y-79401000D01*
X68658196Y-79401000D01*
X68533177Y-79388687D01*
X68372758Y-79340024D01*
X68224924Y-79261005D01*
X68224922Y-79261004D01*
X68095341Y-79154659D01*
X67988996Y-79025078D01*
X67980886Y-79009906D01*
X67909976Y-78877242D01*
X67861313Y-78716823D01*
X67844883Y-78550000D01*
X67861313Y-78383177D01*
X67900917Y-78252620D01*
X67909975Y-78222761D01*
X67909976Y-78222758D01*
X67988995Y-78074924D01*
X67988996Y-78074922D01*
X68095341Y-77945341D01*
X68224922Y-77838996D01*
X68240881Y-77830466D01*
X68372758Y-77759976D01*
X68533177Y-77711313D01*
X68658196Y-77699000D01*
X68741804Y-77699000D01*
X68866823Y-77711313D01*
X68866823Y-77711313D01*
G37*
G36*
X71866823Y-77711313D02*
G01*
X72027242Y-77759976D01*
X72159119Y-77830466D01*
X72175078Y-77838996D01*
X72304659Y-77945341D01*
X72411004Y-78074922D01*
X72411005Y-78074924D01*
X72490024Y-78222758D01*
X72490025Y-78222761D01*
X72499083Y-78252620D01*
X72538687Y-78383177D01*
X72555117Y-78550000D01*
X72538687Y-78716823D01*
X72490024Y-78877242D01*
X72419114Y-79009906D01*
X72411004Y-79025078D01*
X72304659Y-79154659D01*
X72175078Y-79261004D01*
X72175076Y-79261005D01*
X72027242Y-79340024D01*
X71866823Y-79388687D01*
X71741804Y-79401000D01*
X71658196Y-79401000D01*
X71533177Y-79388687D01*
X71372758Y-79340024D01*
X71224924Y-79261005D01*
X71224922Y-79261004D01*
X71095341Y-79154659D01*
X70988996Y-79025078D01*
X70980886Y-79009906D01*
X70909976Y-78877242D01*
X70861313Y-78716823D01*
X70844883Y-78550000D01*
X70861313Y-78383177D01*
X70900917Y-78252620D01*
X70909975Y-78222761D01*
X70909976Y-78222758D01*
X70988995Y-78074924D01*
X70988996Y-78074922D01*
X71095341Y-77945341D01*
X71224922Y-77838996D01*
X71240881Y-77830466D01*
X71372758Y-77759976D01*
X71533177Y-77711313D01*
X71658196Y-77699000D01*
X71741804Y-77699000D01*
X71866823Y-77711313D01*
X71866823Y-77711313D01*
G37*
G36*
X77866823Y-77711313D02*
G01*
X78027242Y-77759976D01*
X78159119Y-77830466D01*
X78175078Y-77838996D01*
X78304659Y-77945341D01*
X78411004Y-78074922D01*
X78411005Y-78074924D01*
X78490024Y-78222758D01*
X78490025Y-78222761D01*
X78499083Y-78252620D01*
X78538687Y-78383177D01*
X78555117Y-78550000D01*
X78538687Y-78716823D01*
X78490024Y-78877242D01*
X78419114Y-79009906D01*
X78411004Y-79025078D01*
X78304659Y-79154659D01*
X78175078Y-79261004D01*
X78175076Y-79261005D01*
X78027242Y-79340024D01*
X77866823Y-79388687D01*
X77741804Y-79401000D01*
X77658196Y-79401000D01*
X77533177Y-79388687D01*
X77372758Y-79340024D01*
X77224924Y-79261005D01*
X77224922Y-79261004D01*
X77095341Y-79154659D01*
X76988996Y-79025078D01*
X76980886Y-79009906D01*
X76909976Y-78877242D01*
X76861313Y-78716823D01*
X76844883Y-78550000D01*
X76861313Y-78383177D01*
X76900917Y-78252620D01*
X76909975Y-78222761D01*
X76909976Y-78222758D01*
X76988995Y-78074924D01*
X76988996Y-78074922D01*
X77095341Y-77945341D01*
X77224922Y-77838996D01*
X77240881Y-77830466D01*
X77372758Y-77759976D01*
X77533177Y-77711313D01*
X77658196Y-77699000D01*
X77741804Y-77699000D01*
X77866823Y-77711313D01*
X77866823Y-77711313D01*
G37*
G36*
X74866823Y-77711313D02*
G01*
X75027242Y-77759976D01*
X75159119Y-77830466D01*
X75175078Y-77838996D01*
X75304659Y-77945341D01*
X75411004Y-78074922D01*
X75411005Y-78074924D01*
X75490024Y-78222758D01*
X75490025Y-78222761D01*
X75499083Y-78252620D01*
X75538687Y-78383177D01*
X75555117Y-78550000D01*
X75538687Y-78716823D01*
X75490024Y-78877242D01*
X75419114Y-79009906D01*
X75411004Y-79025078D01*
X75304659Y-79154659D01*
X75175078Y-79261004D01*
X75175076Y-79261005D01*
X75027242Y-79340024D01*
X74866823Y-79388687D01*
X74741804Y-79401000D01*
X74658196Y-79401000D01*
X74533177Y-79388687D01*
X74372758Y-79340024D01*
X74224924Y-79261005D01*
X74224922Y-79261004D01*
X74095341Y-79154659D01*
X73988996Y-79025078D01*
X73980886Y-79009906D01*
X73909976Y-78877242D01*
X73861313Y-78716823D01*
X73844883Y-78550000D01*
X73861313Y-78383177D01*
X73900917Y-78252620D01*
X73909975Y-78222761D01*
X73909976Y-78222758D01*
X73988995Y-78074924D01*
X73988996Y-78074922D01*
X74095341Y-77945341D01*
X74224922Y-77838996D01*
X74240881Y-77830466D01*
X74372758Y-77759976D01*
X74533177Y-77711313D01*
X74658196Y-77699000D01*
X74741804Y-77699000D01*
X74866823Y-77711313D01*
X74866823Y-77711313D01*
G37*
G36*
X65866823Y-77711313D02*
G01*
X66027242Y-77759976D01*
X66159119Y-77830466D01*
X66175078Y-77838996D01*
X66304659Y-77945341D01*
X66411004Y-78074922D01*
X66411005Y-78074924D01*
X66490024Y-78222758D01*
X66490025Y-78222761D01*
X66499083Y-78252620D01*
X66538687Y-78383177D01*
X66555117Y-78550000D01*
X66538687Y-78716823D01*
X66490024Y-78877242D01*
X66419114Y-79009906D01*
X66411004Y-79025078D01*
X66304659Y-79154659D01*
X66175078Y-79261004D01*
X66175076Y-79261005D01*
X66027242Y-79340024D01*
X65866823Y-79388687D01*
X65741804Y-79401000D01*
X65658196Y-79401000D01*
X65533177Y-79388687D01*
X65372758Y-79340024D01*
X65224924Y-79261005D01*
X65224922Y-79261004D01*
X65095341Y-79154659D01*
X64988996Y-79025078D01*
X64980886Y-79009906D01*
X64909976Y-78877242D01*
X64861313Y-78716823D01*
X64844883Y-78550000D01*
X64861313Y-78383177D01*
X64900917Y-78252620D01*
X64909975Y-78222761D01*
X64909976Y-78222758D01*
X64988995Y-78074924D01*
X64988996Y-78074922D01*
X65095341Y-77945341D01*
X65224922Y-77838996D01*
X65240881Y-77830466D01*
X65372758Y-77759976D01*
X65533177Y-77711313D01*
X65658196Y-77699000D01*
X65741804Y-77699000D01*
X65866823Y-77711313D01*
X65866823Y-77711313D01*
G37*
G36*
X94151000Y-78331000D02*
G01*
X92249000Y-78331000D01*
X92249000Y-76429000D01*
X94151000Y-76429000D01*
X94151000Y-78331000D01*
X94151000Y-78331000D01*
G37*
G36*
X87651000Y-78331000D02*
G01*
X85749000Y-78331000D01*
X85749000Y-76429000D01*
X87651000Y-76429000D01*
X87651000Y-78331000D01*
X87651000Y-78331000D01*
G37*
G36*
X90937395Y-76465546D02*
G01*
X91110466Y-76537234D01*
X91110467Y-76537235D01*
X91266227Y-76641310D01*
X91398690Y-76773773D01*
X91451081Y-76852182D01*
X91502766Y-76929534D01*
X91574454Y-77102605D01*
X91611000Y-77286333D01*
X91611000Y-77473667D01*
X91574454Y-77657395D01*
X91502766Y-77830466D01*
X91502765Y-77830467D01*
X91398690Y-77986227D01*
X91266227Y-78118690D01*
X91187818Y-78171081D01*
X91110466Y-78222766D01*
X90937395Y-78294454D01*
X90753667Y-78331000D01*
X90566333Y-78331000D01*
X90382605Y-78294454D01*
X90209534Y-78222766D01*
X90132182Y-78171081D01*
X90053773Y-78118690D01*
X89921310Y-77986227D01*
X89817235Y-77830467D01*
X89817234Y-77830466D01*
X89745546Y-77657395D01*
X89709000Y-77473667D01*
X89709000Y-77286333D01*
X89745546Y-77102605D01*
X89817234Y-76929534D01*
X89868919Y-76852182D01*
X89921310Y-76773773D01*
X90053773Y-76641310D01*
X90209533Y-76537235D01*
X90209534Y-76537234D01*
X90382605Y-76465546D01*
X90566333Y-76429000D01*
X90753667Y-76429000D01*
X90937395Y-76465546D01*
X90937395Y-76465546D01*
G37*
G36*
X84437395Y-76465546D02*
G01*
X84610466Y-76537234D01*
X84610467Y-76537235D01*
X84766227Y-76641310D01*
X84898690Y-76773773D01*
X84951081Y-76852182D01*
X85002766Y-76929534D01*
X85074454Y-77102605D01*
X85111000Y-77286333D01*
X85111000Y-77473667D01*
X85074454Y-77657395D01*
X85002766Y-77830466D01*
X85002765Y-77830467D01*
X84898690Y-77986227D01*
X84766227Y-78118690D01*
X84687818Y-78171081D01*
X84610466Y-78222766D01*
X84437395Y-78294454D01*
X84253667Y-78331000D01*
X84066333Y-78331000D01*
X83882605Y-78294454D01*
X83709534Y-78222766D01*
X83632182Y-78171081D01*
X83553773Y-78118690D01*
X83421310Y-77986227D01*
X83317235Y-77830467D01*
X83317234Y-77830466D01*
X83245546Y-77657395D01*
X83209000Y-77473667D01*
X83209000Y-77286333D01*
X83245546Y-77102605D01*
X83317234Y-76929534D01*
X83368919Y-76852182D01*
X83421310Y-76773773D01*
X83553773Y-76641310D01*
X83709533Y-76537235D01*
X83709534Y-76537234D01*
X83882605Y-76465546D01*
X84066333Y-76429000D01*
X84253667Y-76429000D01*
X84437395Y-76465546D01*
X84437395Y-76465546D01*
G37*
G36*
X97437395Y-76465546D02*
G01*
X97610466Y-76537234D01*
X97610467Y-76537235D01*
X97766227Y-76641310D01*
X97898690Y-76773773D01*
X97951081Y-76852182D01*
X98002766Y-76929534D01*
X98074454Y-77102605D01*
X98111000Y-77286333D01*
X98111000Y-77473667D01*
X98074454Y-77657395D01*
X98002766Y-77830466D01*
X98002765Y-77830467D01*
X97898690Y-77986227D01*
X97766227Y-78118690D01*
X97687818Y-78171081D01*
X97610466Y-78222766D01*
X97437395Y-78294454D01*
X97253667Y-78331000D01*
X97066333Y-78331000D01*
X96882605Y-78294454D01*
X96709534Y-78222766D01*
X96632182Y-78171081D01*
X96553773Y-78118690D01*
X96421310Y-77986227D01*
X96317235Y-77830467D01*
X96317234Y-77830466D01*
X96245546Y-77657395D01*
X96209000Y-77473667D01*
X96209000Y-77286333D01*
X96245546Y-77102605D01*
X96317234Y-76929534D01*
X96368919Y-76852182D01*
X96421310Y-76773773D01*
X96553773Y-76641310D01*
X96709533Y-76537235D01*
X96709534Y-76537234D01*
X96882605Y-76465546D01*
X97066333Y-76429000D01*
X97253667Y-76429000D01*
X97437395Y-76465546D01*
X97437395Y-76465546D01*
G37*
G36*
X100651000Y-78331000D02*
G01*
X98749000Y-78331000D01*
X98749000Y-76429000D01*
X100651000Y-76429000D01*
X100651000Y-78331000D01*
X100651000Y-78331000D01*
G37*
G36*
X56446823Y-75101313D02*
G01*
X56607242Y-75149976D01*
X56674361Y-75185852D01*
X56755078Y-75228996D01*
X56884659Y-75335341D01*
X56991004Y-75464922D01*
X56991005Y-75464924D01*
X57070024Y-75612758D01*
X57118687Y-75773177D01*
X57135117Y-75940000D01*
X57118687Y-76106823D01*
X57070024Y-76267242D01*
X57029477Y-76343100D01*
X56991004Y-76415078D01*
X56884659Y-76544659D01*
X56755078Y-76651004D01*
X56755076Y-76651005D01*
X56607242Y-76730024D01*
X56446823Y-76778687D01*
X56321804Y-76791000D01*
X56238196Y-76791000D01*
X56113177Y-76778687D01*
X55952758Y-76730024D01*
X55804924Y-76651005D01*
X55804922Y-76651004D01*
X55675341Y-76544659D01*
X55568996Y-76415078D01*
X55530523Y-76343100D01*
X55489976Y-76267242D01*
X55441313Y-76106823D01*
X55424883Y-75940000D01*
X55441313Y-75773177D01*
X55489976Y-75612758D01*
X55568995Y-75464924D01*
X55568996Y-75464922D01*
X55675341Y-75335341D01*
X55804922Y-75228996D01*
X55885639Y-75185852D01*
X55952758Y-75149976D01*
X56113177Y-75101313D01*
X56238196Y-75089000D01*
X56321804Y-75089000D01*
X56446823Y-75101313D01*
X56446823Y-75101313D01*
G37*
G36*
X64148228Y-75121703D02*
G01*
X64303100Y-75185853D01*
X64442481Y-75278985D01*
X64561015Y-75397519D01*
X64654147Y-75536900D01*
X64718297Y-75691772D01*
X64751000Y-75856184D01*
X64751000Y-76023816D01*
X64718297Y-76188228D01*
X64654147Y-76343100D01*
X64561015Y-76482481D01*
X64442481Y-76601015D01*
X64303100Y-76694147D01*
X64148228Y-76758297D01*
X63983816Y-76791000D01*
X63816184Y-76791000D01*
X63651772Y-76758297D01*
X63496900Y-76694147D01*
X63357519Y-76601015D01*
X63238985Y-76482481D01*
X63145853Y-76343100D01*
X63081703Y-76188228D01*
X63049000Y-76023816D01*
X63049000Y-75856184D01*
X63081703Y-75691772D01*
X63145853Y-75536900D01*
X63238985Y-75397519D01*
X63357519Y-75278985D01*
X63496900Y-75185853D01*
X63651772Y-75121703D01*
X63816184Y-75089000D01*
X63983816Y-75089000D01*
X64148228Y-75121703D01*
X64148228Y-75121703D01*
G37*
G36*
X73786823Y-75101313D02*
G01*
X73947242Y-75149976D01*
X74014361Y-75185852D01*
X74095078Y-75228996D01*
X74224659Y-75335341D01*
X74331004Y-75464922D01*
X74331005Y-75464924D01*
X74410024Y-75612758D01*
X74458687Y-75773177D01*
X74475117Y-75940000D01*
X74458687Y-76106823D01*
X74410024Y-76267242D01*
X74369477Y-76343100D01*
X74331004Y-76415078D01*
X74224659Y-76544659D01*
X74095078Y-76651004D01*
X74095076Y-76651005D01*
X73947242Y-76730024D01*
X73786823Y-76778687D01*
X73661804Y-76791000D01*
X73578196Y-76791000D01*
X73453177Y-76778687D01*
X73292758Y-76730024D01*
X73144924Y-76651005D01*
X73144922Y-76651004D01*
X73015341Y-76544659D01*
X72908996Y-76415078D01*
X72870523Y-76343100D01*
X72829976Y-76267242D01*
X72781313Y-76106823D01*
X72764883Y-75940000D01*
X72781313Y-75773177D01*
X72829976Y-75612758D01*
X72908995Y-75464924D01*
X72908996Y-75464922D01*
X73015341Y-75335341D01*
X73144922Y-75228996D01*
X73225639Y-75185852D01*
X73292758Y-75149976D01*
X73453177Y-75101313D01*
X73578196Y-75089000D01*
X73661804Y-75089000D01*
X73786823Y-75101313D01*
X73786823Y-75101313D01*
G37*
G36*
X66248228Y-75121703D02*
G01*
X66403100Y-75185853D01*
X66542481Y-75278985D01*
X66661015Y-75397519D01*
X66754147Y-75536900D01*
X66818297Y-75691772D01*
X66851000Y-75856184D01*
X66851000Y-76023816D01*
X66818297Y-76188228D01*
X66754147Y-76343100D01*
X66661015Y-76482481D01*
X66542481Y-76601015D01*
X66403100Y-76694147D01*
X66248228Y-76758297D01*
X66083816Y-76791000D01*
X65916184Y-76791000D01*
X65751772Y-76758297D01*
X65596900Y-76694147D01*
X65457519Y-76601015D01*
X65338985Y-76482481D01*
X65245853Y-76343100D01*
X65181703Y-76188228D01*
X65149000Y-76023816D01*
X65149000Y-75856184D01*
X65181703Y-75691772D01*
X65245853Y-75536900D01*
X65338985Y-75397519D01*
X65457519Y-75278985D01*
X65596900Y-75185853D01*
X65751772Y-75121703D01*
X65916184Y-75089000D01*
X66083816Y-75089000D01*
X66248228Y-75121703D01*
X66248228Y-75121703D01*
G37*
G36*
X73534672Y-73538449D02*
G01*
X73534674Y-73538450D01*
X73534675Y-73538450D01*
X73603103Y-73566793D01*
X73664686Y-73607942D01*
X73717058Y-73660314D01*
X73746073Y-73703737D01*
X73761612Y-73722672D01*
X73780554Y-73738217D01*
X73802165Y-73749768D01*
X73825614Y-73756881D01*
X73850000Y-73759283D01*
X73874386Y-73756881D01*
X73897835Y-73749768D01*
X73919446Y-73738217D01*
X73938388Y-73722672D01*
X73953927Y-73703737D01*
X73982942Y-73660314D01*
X74035314Y-73607942D01*
X74096897Y-73566793D01*
X74165325Y-73538450D01*
X74165326Y-73538450D01*
X74165328Y-73538449D01*
X74237966Y-73524000D01*
X74312034Y-73524000D01*
X74384672Y-73538449D01*
X74384674Y-73538450D01*
X74384675Y-73538450D01*
X74453103Y-73566793D01*
X74514686Y-73607942D01*
X74567058Y-73660314D01*
X74596073Y-73703737D01*
X74611612Y-73722672D01*
X74630554Y-73738217D01*
X74652165Y-73749768D01*
X74675614Y-73756881D01*
X74700000Y-73759283D01*
X74724386Y-73756881D01*
X74747835Y-73749768D01*
X74769446Y-73738217D01*
X74788388Y-73722672D01*
X74803927Y-73703737D01*
X74832942Y-73660314D01*
X74885314Y-73607942D01*
X74946897Y-73566793D01*
X75015325Y-73538450D01*
X75015326Y-73538450D01*
X75015328Y-73538449D01*
X75087966Y-73524000D01*
X75162034Y-73524000D01*
X75234672Y-73538449D01*
X75234674Y-73538450D01*
X75234675Y-73538450D01*
X75303103Y-73566793D01*
X75364686Y-73607942D01*
X75417058Y-73660314D01*
X75446073Y-73703737D01*
X75461612Y-73722672D01*
X75480554Y-73738217D01*
X75502165Y-73749768D01*
X75525614Y-73756881D01*
X75550000Y-73759283D01*
X75574386Y-73756881D01*
X75597835Y-73749768D01*
X75619446Y-73738217D01*
X75638388Y-73722672D01*
X75653927Y-73703737D01*
X75682942Y-73660314D01*
X75735314Y-73607942D01*
X75796897Y-73566793D01*
X75865325Y-73538450D01*
X75865326Y-73538450D01*
X75865328Y-73538449D01*
X75937966Y-73524000D01*
X76012034Y-73524000D01*
X76084672Y-73538449D01*
X76084674Y-73538450D01*
X76084675Y-73538450D01*
X76153103Y-73566793D01*
X76214686Y-73607942D01*
X76267058Y-73660314D01*
X76296073Y-73703737D01*
X76311612Y-73722672D01*
X76330554Y-73738217D01*
X76352165Y-73749768D01*
X76375614Y-73756881D01*
X76400000Y-73759283D01*
X76424386Y-73756881D01*
X76447835Y-73749768D01*
X76469446Y-73738217D01*
X76488388Y-73722672D01*
X76503927Y-73703737D01*
X76532942Y-73660314D01*
X76585314Y-73607942D01*
X76646897Y-73566793D01*
X76715325Y-73538450D01*
X76715326Y-73538450D01*
X76715328Y-73538449D01*
X76787966Y-73524000D01*
X76862034Y-73524000D01*
X76934672Y-73538449D01*
X76934674Y-73538450D01*
X76934675Y-73538450D01*
X77003103Y-73566793D01*
X77064686Y-73607942D01*
X77117058Y-73660314D01*
X77146073Y-73703737D01*
X77161612Y-73722672D01*
X77180554Y-73738217D01*
X77202165Y-73749768D01*
X77225614Y-73756881D01*
X77250000Y-73759283D01*
X77274386Y-73756881D01*
X77297835Y-73749768D01*
X77319446Y-73738217D01*
X77338388Y-73722672D01*
X77353927Y-73703737D01*
X77382942Y-73660314D01*
X77435314Y-73607942D01*
X77496897Y-73566793D01*
X77565325Y-73538450D01*
X77565326Y-73538450D01*
X77565328Y-73538449D01*
X77637966Y-73524000D01*
X77712034Y-73524000D01*
X77784672Y-73538449D01*
X77784674Y-73538450D01*
X77784675Y-73538450D01*
X77853103Y-73566793D01*
X77914686Y-73607942D01*
X77967058Y-73660314D01*
X77996073Y-73703737D01*
X78011612Y-73722672D01*
X78030554Y-73738217D01*
X78052165Y-73749768D01*
X78075614Y-73756881D01*
X78100000Y-73759283D01*
X78124386Y-73756881D01*
X78147835Y-73749768D01*
X78169446Y-73738217D01*
X78188388Y-73722672D01*
X78203927Y-73703737D01*
X78232942Y-73660314D01*
X78285314Y-73607942D01*
X78346897Y-73566793D01*
X78415325Y-73538450D01*
X78415326Y-73538450D01*
X78415328Y-73538449D01*
X78487966Y-73524000D01*
X78562034Y-73524000D01*
X78634672Y-73538449D01*
X78634674Y-73538450D01*
X78634675Y-73538450D01*
X78703103Y-73566793D01*
X78764686Y-73607942D01*
X78817058Y-73660314D01*
X78846073Y-73703737D01*
X78861612Y-73722672D01*
X78880554Y-73738217D01*
X78902165Y-73749768D01*
X78925614Y-73756881D01*
X78950000Y-73759283D01*
X78974386Y-73756881D01*
X78997835Y-73749768D01*
X79019446Y-73738217D01*
X79038388Y-73722672D01*
X79053927Y-73703737D01*
X79082942Y-73660314D01*
X79135314Y-73607942D01*
X79196897Y-73566793D01*
X79265325Y-73538450D01*
X79265326Y-73538450D01*
X79265328Y-73538449D01*
X79337966Y-73524000D01*
X79412034Y-73524000D01*
X79484672Y-73538449D01*
X79484674Y-73538450D01*
X79484675Y-73538450D01*
X79553103Y-73566793D01*
X79614686Y-73607942D01*
X79667058Y-73660314D01*
X79708207Y-73721897D01*
X79727391Y-73768213D01*
X79736551Y-73790328D01*
X79751000Y-73862966D01*
X79751000Y-73937034D01*
X79748483Y-73949689D01*
X79736550Y-74009675D01*
X79708207Y-74078103D01*
X79667058Y-74139686D01*
X79614686Y-74192058D01*
X79553103Y-74233207D01*
X79484675Y-74261550D01*
X79484674Y-74261550D01*
X79484672Y-74261551D01*
X79412034Y-74276000D01*
X79337966Y-74276000D01*
X79265328Y-74261551D01*
X79265326Y-74261550D01*
X79265325Y-74261550D01*
X79196897Y-74233207D01*
X79135314Y-74192058D01*
X79082942Y-74139686D01*
X79053927Y-74096263D01*
X79038388Y-74077328D01*
X79019446Y-74061783D01*
X78997835Y-74050232D01*
X78974386Y-74043119D01*
X78950000Y-74040717D01*
X78925614Y-74043119D01*
X78902165Y-74050232D01*
X78880554Y-74061783D01*
X78861612Y-74077328D01*
X78846073Y-74096263D01*
X78817058Y-74139686D01*
X78764686Y-74192058D01*
X78703103Y-74233207D01*
X78634675Y-74261550D01*
X78634674Y-74261550D01*
X78634672Y-74261551D01*
X78562034Y-74276000D01*
X78487966Y-74276000D01*
X78415328Y-74261551D01*
X78415326Y-74261550D01*
X78415325Y-74261550D01*
X78346897Y-74233207D01*
X78285314Y-74192058D01*
X78232942Y-74139686D01*
X78203927Y-74096263D01*
X78188388Y-74077328D01*
X78169446Y-74061783D01*
X78147835Y-74050232D01*
X78124386Y-74043119D01*
X78100000Y-74040717D01*
X78075614Y-74043119D01*
X78052165Y-74050232D01*
X78030554Y-74061783D01*
X78011612Y-74077328D01*
X77996073Y-74096263D01*
X77967058Y-74139686D01*
X77914686Y-74192058D01*
X77853103Y-74233207D01*
X77784675Y-74261550D01*
X77784674Y-74261550D01*
X77784672Y-74261551D01*
X77712034Y-74276000D01*
X77637966Y-74276000D01*
X77565328Y-74261551D01*
X77565326Y-74261550D01*
X77565325Y-74261550D01*
X77496897Y-74233207D01*
X77435314Y-74192058D01*
X77382942Y-74139686D01*
X77353927Y-74096263D01*
X77338388Y-74077328D01*
X77319446Y-74061783D01*
X77297835Y-74050232D01*
X77274386Y-74043119D01*
X77250000Y-74040717D01*
X77225614Y-74043119D01*
X77202165Y-74050232D01*
X77180554Y-74061783D01*
X77161612Y-74077328D01*
X77146073Y-74096263D01*
X77117058Y-74139686D01*
X77064686Y-74192058D01*
X77003103Y-74233207D01*
X76934675Y-74261550D01*
X76934674Y-74261550D01*
X76934672Y-74261551D01*
X76862034Y-74276000D01*
X76787966Y-74276000D01*
X76715328Y-74261551D01*
X76715326Y-74261550D01*
X76715325Y-74261550D01*
X76646897Y-74233207D01*
X76585314Y-74192058D01*
X76532942Y-74139686D01*
X76503927Y-74096263D01*
X76488388Y-74077328D01*
X76469446Y-74061783D01*
X76447835Y-74050232D01*
X76424386Y-74043119D01*
X76400000Y-74040717D01*
X76375614Y-74043119D01*
X76352165Y-74050232D01*
X76330554Y-74061783D01*
X76311612Y-74077328D01*
X76296073Y-74096263D01*
X76267058Y-74139686D01*
X76214686Y-74192058D01*
X76153103Y-74233207D01*
X76084675Y-74261550D01*
X76084674Y-74261550D01*
X76084672Y-74261551D01*
X76012034Y-74276000D01*
X75937966Y-74276000D01*
X75865328Y-74261551D01*
X75865326Y-74261550D01*
X75865325Y-74261550D01*
X75796897Y-74233207D01*
X75735314Y-74192058D01*
X75682942Y-74139686D01*
X75653927Y-74096263D01*
X75638388Y-74077328D01*
X75619446Y-74061783D01*
X75597835Y-74050232D01*
X75574386Y-74043119D01*
X75550000Y-74040717D01*
X75525614Y-74043119D01*
X75502165Y-74050232D01*
X75480554Y-74061783D01*
X75461612Y-74077328D01*
X75446073Y-74096263D01*
X75417058Y-74139686D01*
X75364686Y-74192058D01*
X75303103Y-74233207D01*
X75234675Y-74261550D01*
X75234674Y-74261550D01*
X75234672Y-74261551D01*
X75162034Y-74276000D01*
X75087966Y-74276000D01*
X75015328Y-74261551D01*
X75015326Y-74261550D01*
X75015325Y-74261550D01*
X74946897Y-74233207D01*
X74885314Y-74192058D01*
X74832942Y-74139686D01*
X74803927Y-74096263D01*
X74788388Y-74077328D01*
X74769446Y-74061783D01*
X74747835Y-74050232D01*
X74724386Y-74043119D01*
X74700000Y-74040717D01*
X74675614Y-74043119D01*
X74652165Y-74050232D01*
X74630554Y-74061783D01*
X74611612Y-74077328D01*
X74596073Y-74096263D01*
X74567058Y-74139686D01*
X74514686Y-74192058D01*
X74453103Y-74233207D01*
X74384675Y-74261550D01*
X74384674Y-74261550D01*
X74384672Y-74261551D01*
X74312034Y-74276000D01*
X74237966Y-74276000D01*
X74165328Y-74261551D01*
X74165326Y-74261550D01*
X74165325Y-74261550D01*
X74096897Y-74233207D01*
X74035314Y-74192058D01*
X73982942Y-74139686D01*
X73953927Y-74096263D01*
X73938388Y-74077328D01*
X73919446Y-74061783D01*
X73897835Y-74050232D01*
X73874386Y-74043119D01*
X73850000Y-74040717D01*
X73825614Y-74043119D01*
X73802165Y-74050232D01*
X73780554Y-74061783D01*
X73761612Y-74077328D01*
X73746073Y-74096263D01*
X73717058Y-74139686D01*
X73664686Y-74192058D01*
X73603103Y-74233207D01*
X73534675Y-74261550D01*
X73534674Y-74261550D01*
X73534672Y-74261551D01*
X73462034Y-74276000D01*
X73387966Y-74276000D01*
X73315328Y-74261551D01*
X73315326Y-74261550D01*
X73315325Y-74261550D01*
X73246897Y-74233207D01*
X73185314Y-74192058D01*
X73132942Y-74139686D01*
X73091793Y-74078103D01*
X73063450Y-74009675D01*
X73051518Y-73949689D01*
X73049000Y-73937034D01*
X73049000Y-73862966D01*
X73063449Y-73790328D01*
X73072609Y-73768213D01*
X73091793Y-73721897D01*
X73132942Y-73660314D01*
X73185314Y-73607942D01*
X73246897Y-73566793D01*
X73315325Y-73538450D01*
X73315326Y-73538450D01*
X73315328Y-73538449D01*
X73387966Y-73524000D01*
X73462034Y-73524000D01*
X73534672Y-73538449D01*
X73534672Y-73538449D01*
G37*
G36*
X72173213Y-71676249D02*
G01*
X72267652Y-71704897D01*
X72354687Y-71751418D01*
X72430975Y-71814025D01*
X72493582Y-71890313D01*
X72540103Y-71977348D01*
X72568751Y-72071787D01*
X72576000Y-72145388D01*
X72576000Y-73694612D01*
X72568751Y-73768213D01*
X72540103Y-73862652D01*
X72493582Y-73949687D01*
X72430975Y-74025975D01*
X72354687Y-74088582D01*
X72267651Y-74135103D01*
X72173212Y-74163751D01*
X72075000Y-74173424D01*
X71976787Y-74163751D01*
X71882348Y-74135103D01*
X71795313Y-74088582D01*
X71719025Y-74025975D01*
X71656418Y-73949687D01*
X71609897Y-73862651D01*
X71581249Y-73768212D01*
X71574000Y-73694611D01*
X71574001Y-72145388D01*
X71581250Y-72071787D01*
X71609898Y-71977348D01*
X71656419Y-71890313D01*
X71719026Y-71814025D01*
X71795314Y-71751418D01*
X71882349Y-71704897D01*
X71976788Y-71676249D01*
X72075000Y-71666576D01*
X72173213Y-71676249D01*
X72173213Y-71676249D01*
G37*
G36*
X80823213Y-71676249D02*
G01*
X80917652Y-71704897D01*
X81004687Y-71751418D01*
X81080975Y-71814025D01*
X81143582Y-71890313D01*
X81190103Y-71977348D01*
X81218751Y-72071787D01*
X81226000Y-72145388D01*
X81226000Y-73694612D01*
X81218751Y-73768213D01*
X81190103Y-73862652D01*
X81143582Y-73949687D01*
X81080975Y-74025975D01*
X81004687Y-74088582D01*
X80917651Y-74135103D01*
X80823212Y-74163751D01*
X80725000Y-74173424D01*
X80626787Y-74163751D01*
X80532348Y-74135103D01*
X80445313Y-74088582D01*
X80369025Y-74025975D01*
X80306418Y-73949687D01*
X80259897Y-73862651D01*
X80231249Y-73768212D01*
X80224000Y-73694611D01*
X80224001Y-72145388D01*
X80231250Y-72071787D01*
X80259898Y-71977348D01*
X80306419Y-71890313D01*
X80369026Y-71814025D01*
X80445314Y-71751418D01*
X80532349Y-71704897D01*
X80626788Y-71676249D01*
X80725000Y-71666576D01*
X80823213Y-71676249D01*
X80823213Y-71676249D01*
G37*
G36*
X73529672Y-72213449D02*
G01*
X73529674Y-72213450D01*
X73529675Y-72213450D01*
X73598103Y-72241793D01*
X73659686Y-72282942D01*
X73712058Y-72335314D01*
X73741073Y-72378737D01*
X73756612Y-72397672D01*
X73775554Y-72413217D01*
X73797165Y-72424768D01*
X73820614Y-72431881D01*
X73845000Y-72434283D01*
X73869386Y-72431881D01*
X73892835Y-72424768D01*
X73914446Y-72413217D01*
X73933388Y-72397672D01*
X73948927Y-72378737D01*
X73977942Y-72335314D01*
X74030314Y-72282942D01*
X74091897Y-72241793D01*
X74160325Y-72213450D01*
X74160326Y-72213450D01*
X74160328Y-72213449D01*
X74232966Y-72199000D01*
X74307034Y-72199000D01*
X74379672Y-72213449D01*
X74379674Y-72213450D01*
X74379675Y-72213450D01*
X74448103Y-72241793D01*
X74509686Y-72282942D01*
X74562058Y-72335314D01*
X74591073Y-72378737D01*
X74606612Y-72397672D01*
X74625554Y-72413217D01*
X74647165Y-72424768D01*
X74670614Y-72431881D01*
X74695000Y-72434283D01*
X74719386Y-72431881D01*
X74742835Y-72424768D01*
X74764446Y-72413217D01*
X74783388Y-72397672D01*
X74798927Y-72378737D01*
X74827942Y-72335314D01*
X74880314Y-72282942D01*
X74941897Y-72241793D01*
X75010325Y-72213450D01*
X75010326Y-72213450D01*
X75010328Y-72213449D01*
X75082966Y-72199000D01*
X75157034Y-72199000D01*
X75229672Y-72213449D01*
X75229674Y-72213450D01*
X75229675Y-72213450D01*
X75298103Y-72241793D01*
X75359686Y-72282942D01*
X75412058Y-72335314D01*
X75441073Y-72378737D01*
X75456612Y-72397672D01*
X75475554Y-72413217D01*
X75497165Y-72424768D01*
X75520614Y-72431881D01*
X75545000Y-72434283D01*
X75569386Y-72431881D01*
X75592835Y-72424768D01*
X75614446Y-72413217D01*
X75633388Y-72397672D01*
X75648927Y-72378737D01*
X75677942Y-72335314D01*
X75730314Y-72282942D01*
X75791897Y-72241793D01*
X75860325Y-72213450D01*
X75860326Y-72213450D01*
X75860328Y-72213449D01*
X75932966Y-72199000D01*
X76007034Y-72199000D01*
X76079672Y-72213449D01*
X76079674Y-72213450D01*
X76079675Y-72213450D01*
X76148103Y-72241793D01*
X76209686Y-72282942D01*
X76262058Y-72335314D01*
X76291073Y-72378737D01*
X76306612Y-72397672D01*
X76325554Y-72413217D01*
X76347165Y-72424768D01*
X76370614Y-72431881D01*
X76395000Y-72434283D01*
X76419386Y-72431881D01*
X76442835Y-72424768D01*
X76464446Y-72413217D01*
X76483388Y-72397672D01*
X76498927Y-72378737D01*
X76527942Y-72335314D01*
X76580314Y-72282942D01*
X76641897Y-72241793D01*
X76710325Y-72213450D01*
X76710326Y-72213450D01*
X76710328Y-72213449D01*
X76782966Y-72199000D01*
X76857034Y-72199000D01*
X76929672Y-72213449D01*
X76929674Y-72213450D01*
X76929675Y-72213450D01*
X76998103Y-72241793D01*
X77059686Y-72282942D01*
X77112058Y-72335314D01*
X77141073Y-72378737D01*
X77156612Y-72397672D01*
X77175554Y-72413217D01*
X77197165Y-72424768D01*
X77220614Y-72431881D01*
X77245000Y-72434283D01*
X77269386Y-72431881D01*
X77292835Y-72424768D01*
X77314446Y-72413217D01*
X77333388Y-72397672D01*
X77348927Y-72378737D01*
X77377942Y-72335314D01*
X77430314Y-72282942D01*
X77491897Y-72241793D01*
X77560325Y-72213450D01*
X77560326Y-72213450D01*
X77560328Y-72213449D01*
X77632966Y-72199000D01*
X77707034Y-72199000D01*
X77779672Y-72213449D01*
X77779674Y-72213450D01*
X77779675Y-72213450D01*
X77848103Y-72241793D01*
X77909686Y-72282942D01*
X77962058Y-72335314D01*
X77991073Y-72378737D01*
X78006612Y-72397672D01*
X78025554Y-72413217D01*
X78047165Y-72424768D01*
X78070614Y-72431881D01*
X78095000Y-72434283D01*
X78119386Y-72431881D01*
X78142835Y-72424768D01*
X78164446Y-72413217D01*
X78183388Y-72397672D01*
X78198927Y-72378737D01*
X78227942Y-72335314D01*
X78280314Y-72282942D01*
X78341897Y-72241793D01*
X78410325Y-72213450D01*
X78410326Y-72213450D01*
X78410328Y-72213449D01*
X78482966Y-72199000D01*
X78557034Y-72199000D01*
X78629672Y-72213449D01*
X78629674Y-72213450D01*
X78629675Y-72213450D01*
X78698103Y-72241793D01*
X78759686Y-72282942D01*
X78812058Y-72335314D01*
X78843571Y-72382476D01*
X78859113Y-72401413D01*
X78878055Y-72416958D01*
X78899665Y-72428509D01*
X78923114Y-72435622D01*
X78947500Y-72438024D01*
X78971886Y-72435622D01*
X78995335Y-72428509D01*
X79016946Y-72416958D01*
X79035888Y-72401412D01*
X79051429Y-72382476D01*
X79082942Y-72335314D01*
X79135314Y-72282942D01*
X79196897Y-72241793D01*
X79265325Y-72213450D01*
X79265326Y-72213450D01*
X79265328Y-72213449D01*
X79337966Y-72199000D01*
X79412034Y-72199000D01*
X79484672Y-72213449D01*
X79484674Y-72213450D01*
X79484675Y-72213450D01*
X79553103Y-72241793D01*
X79614686Y-72282942D01*
X79667058Y-72335314D01*
X79708207Y-72396897D01*
X79736550Y-72465325D01*
X79751000Y-72537967D01*
X79751000Y-72612033D01*
X79736550Y-72684675D01*
X79708207Y-72753103D01*
X79667058Y-72814686D01*
X79614686Y-72867058D01*
X79553103Y-72908207D01*
X79484675Y-72936550D01*
X79484674Y-72936550D01*
X79484672Y-72936551D01*
X79412034Y-72951000D01*
X79337966Y-72951000D01*
X79265328Y-72936551D01*
X79265326Y-72936550D01*
X79265325Y-72936550D01*
X79196897Y-72908207D01*
X79135314Y-72867058D01*
X79082942Y-72814686D01*
X79051429Y-72767524D01*
X79035887Y-72748587D01*
X79016945Y-72733042D01*
X78995335Y-72721491D01*
X78971886Y-72714378D01*
X78947500Y-72711976D01*
X78923114Y-72714378D01*
X78899665Y-72721491D01*
X78878054Y-72733042D01*
X78859112Y-72748588D01*
X78843571Y-72767524D01*
X78812058Y-72814686D01*
X78759686Y-72867058D01*
X78698103Y-72908207D01*
X78629675Y-72936550D01*
X78629674Y-72936550D01*
X78629672Y-72936551D01*
X78557034Y-72951000D01*
X78482966Y-72951000D01*
X78410328Y-72936551D01*
X78410326Y-72936550D01*
X78410325Y-72936550D01*
X78341897Y-72908207D01*
X78280314Y-72867058D01*
X78227942Y-72814686D01*
X78198927Y-72771263D01*
X78183388Y-72752328D01*
X78164446Y-72736783D01*
X78142835Y-72725232D01*
X78119386Y-72718119D01*
X78095000Y-72715717D01*
X78070614Y-72718119D01*
X78047165Y-72725232D01*
X78025554Y-72736783D01*
X78006612Y-72752328D01*
X77991073Y-72771263D01*
X77962058Y-72814686D01*
X77909686Y-72867058D01*
X77848103Y-72908207D01*
X77779675Y-72936550D01*
X77779674Y-72936550D01*
X77779672Y-72936551D01*
X77707034Y-72951000D01*
X77632966Y-72951000D01*
X77560328Y-72936551D01*
X77560326Y-72936550D01*
X77560325Y-72936550D01*
X77491897Y-72908207D01*
X77430314Y-72867058D01*
X77377942Y-72814686D01*
X77348927Y-72771263D01*
X77333388Y-72752328D01*
X77314446Y-72736783D01*
X77292835Y-72725232D01*
X77269386Y-72718119D01*
X77245000Y-72715717D01*
X77220614Y-72718119D01*
X77197165Y-72725232D01*
X77175554Y-72736783D01*
X77156612Y-72752328D01*
X77141073Y-72771263D01*
X77112058Y-72814686D01*
X77059686Y-72867058D01*
X76998103Y-72908207D01*
X76929675Y-72936550D01*
X76929674Y-72936550D01*
X76929672Y-72936551D01*
X76857034Y-72951000D01*
X76782966Y-72951000D01*
X76710328Y-72936551D01*
X76710326Y-72936550D01*
X76710325Y-72936550D01*
X76641897Y-72908207D01*
X76580314Y-72867058D01*
X76527942Y-72814686D01*
X76498927Y-72771263D01*
X76483388Y-72752328D01*
X76464446Y-72736783D01*
X76442835Y-72725232D01*
X76419386Y-72718119D01*
X76395000Y-72715717D01*
X76370614Y-72718119D01*
X76347165Y-72725232D01*
X76325554Y-72736783D01*
X76306612Y-72752328D01*
X76291073Y-72771263D01*
X76262058Y-72814686D01*
X76209686Y-72867058D01*
X76148103Y-72908207D01*
X76079675Y-72936550D01*
X76079674Y-72936550D01*
X76079672Y-72936551D01*
X76007034Y-72951000D01*
X75932966Y-72951000D01*
X75860328Y-72936551D01*
X75860326Y-72936550D01*
X75860325Y-72936550D01*
X75791897Y-72908207D01*
X75730314Y-72867058D01*
X75677942Y-72814686D01*
X75648927Y-72771263D01*
X75633388Y-72752328D01*
X75614446Y-72736783D01*
X75592835Y-72725232D01*
X75569386Y-72718119D01*
X75545000Y-72715717D01*
X75520614Y-72718119D01*
X75497165Y-72725232D01*
X75475554Y-72736783D01*
X75456612Y-72752328D01*
X75441073Y-72771263D01*
X75412058Y-72814686D01*
X75359686Y-72867058D01*
X75298103Y-72908207D01*
X75229675Y-72936550D01*
X75229674Y-72936550D01*
X75229672Y-72936551D01*
X75157034Y-72951000D01*
X75082966Y-72951000D01*
X75010328Y-72936551D01*
X75010326Y-72936550D01*
X75010325Y-72936550D01*
X74941897Y-72908207D01*
X74880314Y-72867058D01*
X74827942Y-72814686D01*
X74798927Y-72771263D01*
X74783388Y-72752328D01*
X74764446Y-72736783D01*
X74742835Y-72725232D01*
X74719386Y-72718119D01*
X74695000Y-72715717D01*
X74670614Y-72718119D01*
X74647165Y-72725232D01*
X74625554Y-72736783D01*
X74606612Y-72752328D01*
X74591073Y-72771263D01*
X74562058Y-72814686D01*
X74509686Y-72867058D01*
X74448103Y-72908207D01*
X74379675Y-72936550D01*
X74379674Y-72936550D01*
X74379672Y-72936551D01*
X74307034Y-72951000D01*
X74232966Y-72951000D01*
X74160328Y-72936551D01*
X74160326Y-72936550D01*
X74160325Y-72936550D01*
X74091897Y-72908207D01*
X74030314Y-72867058D01*
X73977942Y-72814686D01*
X73948927Y-72771263D01*
X73933388Y-72752328D01*
X73914446Y-72736783D01*
X73892835Y-72725232D01*
X73869386Y-72718119D01*
X73845000Y-72715717D01*
X73820614Y-72718119D01*
X73797165Y-72725232D01*
X73775554Y-72736783D01*
X73756612Y-72752328D01*
X73741073Y-72771263D01*
X73712058Y-72814686D01*
X73659686Y-72867058D01*
X73598103Y-72908207D01*
X73529675Y-72936550D01*
X73529674Y-72936550D01*
X73529672Y-72936551D01*
X73457034Y-72951000D01*
X73382966Y-72951000D01*
X73310328Y-72936551D01*
X73310326Y-72936550D01*
X73310325Y-72936550D01*
X73241897Y-72908207D01*
X73180314Y-72867058D01*
X73127942Y-72814686D01*
X73086793Y-72753103D01*
X73058450Y-72684675D01*
X73044000Y-72612033D01*
X73044000Y-72537967D01*
X73058450Y-72465325D01*
X73086793Y-72396897D01*
X73127942Y-72335314D01*
X73180314Y-72282942D01*
X73241897Y-72241793D01*
X73310325Y-72213450D01*
X73310326Y-72213450D01*
X73310328Y-72213449D01*
X73382966Y-72199000D01*
X73457034Y-72199000D01*
X73529672Y-72213449D01*
X73529672Y-72213449D01*
G37*
G36*
X60646823Y-70151313D02*
G01*
X60807242Y-70199976D01*
X60939906Y-70270886D01*
X60955078Y-70278996D01*
X61084659Y-70385341D01*
X61191004Y-70514922D01*
X61191005Y-70514924D01*
X61270024Y-70662758D01*
X61318687Y-70823177D01*
X61335117Y-70990000D01*
X61318687Y-71156823D01*
X61270024Y-71317242D01*
X61262955Y-71330467D01*
X61191004Y-71465078D01*
X61084659Y-71594659D01*
X60955078Y-71701004D01*
X60955076Y-71701005D01*
X60807242Y-71780024D01*
X60646823Y-71828687D01*
X60521804Y-71841000D01*
X60438196Y-71841000D01*
X60313177Y-71828687D01*
X60152758Y-71780024D01*
X60004924Y-71701005D01*
X60004922Y-71701004D01*
X59875341Y-71594659D01*
X59768996Y-71465078D01*
X59697045Y-71330467D01*
X59689976Y-71317242D01*
X59641313Y-71156823D01*
X59624883Y-70990000D01*
X59641313Y-70823177D01*
X59689976Y-70662758D01*
X59768995Y-70514924D01*
X59768996Y-70514922D01*
X59875341Y-70385341D01*
X60004922Y-70278996D01*
X60020094Y-70270886D01*
X60152758Y-70199976D01*
X60313177Y-70151313D01*
X60438196Y-70139000D01*
X60521804Y-70139000D01*
X60646823Y-70151313D01*
X60646823Y-70151313D01*
G37*
G36*
X68951000Y-71841000D02*
G01*
X67249000Y-71841000D01*
X67249000Y-70139000D01*
X68951000Y-70139000D01*
X68951000Y-71841000D01*
X68951000Y-71841000D01*
G37*
G36*
X84437395Y-69965546D02*
G01*
X84610466Y-70037234D01*
X84611931Y-70038213D01*
X84766227Y-70141310D01*
X84898690Y-70273773D01*
X84898691Y-70273775D01*
X85002766Y-70429534D01*
X85074454Y-70602605D01*
X85111000Y-70786333D01*
X85111000Y-70973667D01*
X85074454Y-71157395D01*
X85002766Y-71330466D01*
X85002765Y-71330467D01*
X84898690Y-71486227D01*
X84766227Y-71618690D01*
X84694560Y-71666576D01*
X84610466Y-71722766D01*
X84437395Y-71794454D01*
X84253667Y-71831000D01*
X84066333Y-71831000D01*
X83882605Y-71794454D01*
X83709534Y-71722766D01*
X83625440Y-71666576D01*
X83553773Y-71618690D01*
X83421310Y-71486227D01*
X83317235Y-71330467D01*
X83317234Y-71330466D01*
X83245546Y-71157395D01*
X83209000Y-70973667D01*
X83209000Y-70786333D01*
X83245546Y-70602605D01*
X83317234Y-70429534D01*
X83421309Y-70273775D01*
X83421310Y-70273773D01*
X83553773Y-70141310D01*
X83708069Y-70038213D01*
X83709534Y-70037234D01*
X83882605Y-69965546D01*
X84066333Y-69929000D01*
X84253667Y-69929000D01*
X84437395Y-69965546D01*
X84437395Y-69965546D01*
G37*
G36*
X94151000Y-71831000D02*
G01*
X92249000Y-71831000D01*
X92249000Y-69929000D01*
X94151000Y-69929000D01*
X94151000Y-71831000D01*
X94151000Y-71831000D01*
G37*
G36*
X90937395Y-69965546D02*
G01*
X91110466Y-70037234D01*
X91111931Y-70038213D01*
X91266227Y-70141310D01*
X91398690Y-70273773D01*
X91398691Y-70273775D01*
X91502766Y-70429534D01*
X91574454Y-70602605D01*
X91611000Y-70786333D01*
X91611000Y-70973667D01*
X91574454Y-71157395D01*
X91502766Y-71330466D01*
X91502765Y-71330467D01*
X91398690Y-71486227D01*
X91266227Y-71618690D01*
X91194560Y-71666576D01*
X91110466Y-71722766D01*
X90937395Y-71794454D01*
X90753667Y-71831000D01*
X90566333Y-71831000D01*
X90382605Y-71794454D01*
X90209534Y-71722766D01*
X90125440Y-71666576D01*
X90053773Y-71618690D01*
X89921310Y-71486227D01*
X89817235Y-71330467D01*
X89817234Y-71330466D01*
X89745546Y-71157395D01*
X89709000Y-70973667D01*
X89709000Y-70786333D01*
X89745546Y-70602605D01*
X89817234Y-70429534D01*
X89921309Y-70273775D01*
X89921310Y-70273773D01*
X90053773Y-70141310D01*
X90208069Y-70038213D01*
X90209534Y-70037234D01*
X90382605Y-69965546D01*
X90566333Y-69929000D01*
X90753667Y-69929000D01*
X90937395Y-69965546D01*
X90937395Y-69965546D01*
G37*
G36*
X87651000Y-71831000D02*
G01*
X85749000Y-71831000D01*
X85749000Y-69929000D01*
X87651000Y-69929000D01*
X87651000Y-71831000D01*
X87651000Y-71831000D01*
G37*
G36*
X100651000Y-71831000D02*
G01*
X98749000Y-71831000D01*
X98749000Y-69929000D01*
X100651000Y-69929000D01*
X100651000Y-71831000D01*
X100651000Y-71831000D01*
G37*
G36*
X97437395Y-69965546D02*
G01*
X97610466Y-70037234D01*
X97611931Y-70038213D01*
X97766227Y-70141310D01*
X97898690Y-70273773D01*
X97898691Y-70273775D01*
X98002766Y-70429534D01*
X98074454Y-70602605D01*
X98111000Y-70786333D01*
X98111000Y-70973667D01*
X98074454Y-71157395D01*
X98002766Y-71330466D01*
X98002765Y-71330467D01*
X97898690Y-71486227D01*
X97766227Y-71618690D01*
X97694560Y-71666576D01*
X97610466Y-71722766D01*
X97437395Y-71794454D01*
X97253667Y-71831000D01*
X97066333Y-71831000D01*
X96882605Y-71794454D01*
X96709534Y-71722766D01*
X96625440Y-71666576D01*
X96553773Y-71618690D01*
X96421310Y-71486227D01*
X96317235Y-71330467D01*
X96317234Y-71330466D01*
X96245546Y-71157395D01*
X96209000Y-70973667D01*
X96209000Y-70786333D01*
X96245546Y-70602605D01*
X96317234Y-70429534D01*
X96421309Y-70273775D01*
X96421310Y-70273773D01*
X96553773Y-70141310D01*
X96708069Y-70038213D01*
X96709534Y-70037234D01*
X96882605Y-69965546D01*
X97066333Y-69929000D01*
X97253667Y-69929000D01*
X97437395Y-69965546D01*
X97437395Y-69965546D01*
G37*
G36*
X72173213Y-68646249D02*
G01*
X72267652Y-68674897D01*
X72354687Y-68721418D01*
X72430975Y-68784025D01*
X72493582Y-68860313D01*
X72540103Y-68947348D01*
X72568751Y-69041787D01*
X72576000Y-69115388D01*
X72576000Y-69964612D01*
X72568751Y-70038213D01*
X72540103Y-70132652D01*
X72493582Y-70219687D01*
X72430975Y-70295975D01*
X72354687Y-70358582D01*
X72267651Y-70405103D01*
X72173212Y-70433751D01*
X72075000Y-70443424D01*
X71976787Y-70433751D01*
X71882348Y-70405103D01*
X71795313Y-70358582D01*
X71719025Y-70295975D01*
X71656418Y-70219687D01*
X71609897Y-70132651D01*
X71581249Y-70038212D01*
X71574000Y-69964611D01*
X71574000Y-69115398D01*
X71581250Y-69041786D01*
X71591846Y-69006856D01*
X71609898Y-68947348D01*
X71656419Y-68860313D01*
X71719026Y-68784025D01*
X71795314Y-68721418D01*
X71882349Y-68674897D01*
X71976788Y-68646249D01*
X72075000Y-68636576D01*
X72173213Y-68646249D01*
X72173213Y-68646249D01*
G37*
G36*
X80823213Y-68646249D02*
G01*
X80917652Y-68674897D01*
X81004687Y-68721418D01*
X81080975Y-68784025D01*
X81143582Y-68860313D01*
X81190103Y-68947348D01*
X81218751Y-69041787D01*
X81226000Y-69115388D01*
X81226000Y-69964612D01*
X81218751Y-70038213D01*
X81190103Y-70132652D01*
X81143582Y-70219687D01*
X81080975Y-70295975D01*
X81004687Y-70358582D01*
X80917651Y-70405103D01*
X80823212Y-70433751D01*
X80725000Y-70443424D01*
X80626787Y-70433751D01*
X80532348Y-70405103D01*
X80445313Y-70358582D01*
X80369025Y-70295975D01*
X80306418Y-70219687D01*
X80259897Y-70132651D01*
X80231249Y-70038212D01*
X80224000Y-69964611D01*
X80224000Y-69115398D01*
X80231250Y-69041786D01*
X80241846Y-69006856D01*
X80259898Y-68947348D01*
X80306419Y-68860313D01*
X80369026Y-68784025D01*
X80445314Y-68721418D01*
X80532349Y-68674897D01*
X80626788Y-68646249D01*
X80725000Y-68636576D01*
X80823213Y-68646249D01*
X80823213Y-68646249D01*
G37*
G36*
X56724549Y-67771116D02*
G01*
X56835734Y-67793232D01*
X57045203Y-67879997D01*
X57233720Y-68005960D01*
X57394040Y-68166280D01*
X57520003Y-68354797D01*
X57606768Y-68564266D01*
X57651000Y-68786636D01*
X57651000Y-69013364D01*
X57606768Y-69235734D01*
X57520003Y-69445203D01*
X57394040Y-69633720D01*
X57233720Y-69794040D01*
X57045203Y-69920003D01*
X57045202Y-69920004D01*
X57045201Y-69920004D01*
X56983850Y-69945416D01*
X56835734Y-70006768D01*
X56724549Y-70028884D01*
X56613365Y-70051000D01*
X56386635Y-70051000D01*
X56275451Y-70028884D01*
X56164266Y-70006768D01*
X56016150Y-69945416D01*
X55954799Y-69920004D01*
X55954798Y-69920004D01*
X55954797Y-69920003D01*
X55766280Y-69794040D01*
X55605960Y-69633720D01*
X55479997Y-69445203D01*
X55393232Y-69235734D01*
X55349000Y-69013364D01*
X55349000Y-68786636D01*
X55393232Y-68564266D01*
X55479997Y-68354797D01*
X55605960Y-68166280D01*
X55766280Y-68005960D01*
X55954797Y-67879997D01*
X56164266Y-67793232D01*
X56275451Y-67771116D01*
X56386635Y-67749000D01*
X56613365Y-67749000D01*
X56724549Y-67771116D01*
X56724549Y-67771116D01*
G37*
G36*
X102824549Y-67771116D02*
G01*
X102935734Y-67793232D01*
X103145203Y-67879997D01*
X103333720Y-68005960D01*
X103494040Y-68166280D01*
X103620003Y-68354797D01*
X103706768Y-68564266D01*
X103751000Y-68786636D01*
X103751000Y-69013364D01*
X103706768Y-69235734D01*
X103620003Y-69445203D01*
X103494040Y-69633720D01*
X103333720Y-69794040D01*
X103145203Y-69920003D01*
X103145202Y-69920004D01*
X103145201Y-69920004D01*
X103083850Y-69945416D01*
X102935734Y-70006768D01*
X102824549Y-70028884D01*
X102713365Y-70051000D01*
X102486635Y-70051000D01*
X102375451Y-70028884D01*
X102264266Y-70006768D01*
X102116150Y-69945416D01*
X102054799Y-69920004D01*
X102054798Y-69920004D01*
X102054797Y-69920003D01*
X101866280Y-69794040D01*
X101705960Y-69633720D01*
X101579997Y-69445203D01*
X101493232Y-69235734D01*
X101449000Y-69013364D01*
X101449000Y-68786636D01*
X101493232Y-68564266D01*
X101579997Y-68354797D01*
X101705960Y-68166280D01*
X101866280Y-68005960D01*
X102054797Y-67879997D01*
X102264266Y-67793232D01*
X102375451Y-67771116D01*
X102486635Y-67749000D01*
X102713365Y-67749000D01*
X102824549Y-67771116D01*
X102824549Y-67771116D01*
G37*
M02*
