M48
; DRILL file {KiCad (5.1.0)-1} date 10/10/2020 6:43:06 PM
; FORMAT={-:-/ absolute / inch / decimal}
; #@! TF.CreationDate,2020-10-10T18:43:06-04:00
; #@! TF.GenerationSoftware,Kicad,Pcbnew,(5.1.0)-1
; #@! TF.FileFunction,Plated,1,2,PTH
FMAT,2
INCH
T1C0.0157
T2C0.0236
T3C0.0315
T4C0.0354
T5C0.0500
%
G90
G05
T1
X3.4961Y-3.2102
X3.4961Y-3.2496
X3.7441Y-2.9681
X3.8266Y-3.1671
X2.8906Y-2.8573
X2.8907Y-2.9094
X2.924Y-2.8573
X2.9242Y-2.9094
X2.9575Y-2.8573
X2.9577Y-2.9094
X2.9909Y-2.8573
X2.9911Y-2.9094
X3.0244Y-2.8573
X3.0246Y-2.9094
X3.0579Y-2.8573
X3.0581Y-2.9094
X3.0913Y-2.8573
X3.0915Y-2.9094
X3.125Y-2.8573
X3.125Y-2.9094
T3
X2.3811Y-2.7949
X2.6811Y-2.7949
X2.5866Y-3.0925
X2.5866Y-3.3925
X3.1772Y-3.0925
X3.1772Y-3.3925
X2.2157Y-2.9898
X2.5157Y-2.9898
X2.9409Y-3.0925
X2.9409Y-3.3925
X2.7047Y-3.0925
X2.7047Y-3.3925
X2.5984Y-2.9898
X2.8984Y-2.9898
X2.4685Y-3.0925
X2.4685Y-3.3925
X2.2323Y-3.0925
X2.2323Y-3.3925
X3.0591Y-3.0925
X3.0591Y-3.3925
X2.8228Y-3.0925
X2.8228Y-3.3925
X2.3504Y-3.0925
X2.3504Y-3.3925
T4
X3.5693Y-3.3024
X3.6693Y-3.3024
X3.8252Y-3.3024
X3.9252Y-3.3024
X3.5693Y-3.0465
X3.6693Y-3.0465
X3.3134Y-2.7906
X3.4134Y-2.7906
X3.8252Y-3.0465
X3.9252Y-3.0465
X3.3134Y-3.3024
X3.4134Y-3.3024
X3.5693Y-2.7906
X3.6693Y-2.7906
X3.8252Y-2.7906
X3.9252Y-2.7906
X3.3134Y-3.0465
X3.4134Y-3.0465
T5
X2.3102Y-4.5123
X2.5071Y-4.595
X2.9047Y-5.1068
X3.1016Y-5.1894
X2.3102Y-5.1068
X2.5071Y-5.1894
X3.4992Y-5.1068
X3.6961Y-5.1894
X3.4992Y-4.5123
X3.6961Y-4.595
X2.3102Y-3.9178
X2.5071Y-4.0005
X3.4992Y-3.9178
X3.6961Y-4.0005
X2.9047Y-4.5123
X3.1016Y-4.595
X2.9047Y-3.9178
X3.1016Y-4.0005
T2
G00X2.8376Y-2.7535
M15
G01X2.8376Y-2.722
M16
G05
G00X2.8376Y-2.9004
M15
G01X2.8376Y-2.8413
M16
G05
G00X3.1781Y-2.7535
M15
G01X3.1781Y-2.722
M16
G05
G00X3.1781Y-2.9004
M15
G01X3.1781Y-2.8413
M16
G05
T0
M30
