G04 #@! TF.GenerationSoftware,KiCad,Pcbnew,(5.1.0)-1*
G04 #@! TF.CreationDate,2020-10-10T14:24:37-04:00*
G04 #@! TF.ProjectId,rev1.0,72657631-2e30-42e6-9b69-6361645f7063,rev?*
G04 #@! TF.SameCoordinates,Original*
G04 #@! TF.FileFunction,Legend,Top*
G04 #@! TF.FilePolarity,Positive*
%FSLAX46Y46*%
G04 Gerber Fmt 4.6, Leading zero omitted, Abs format (unit mm)*
G04 Created by KiCad (PCBNEW (5.1.0)-1) date 2020-10-10 14:24:37*
%MOMM*%
%LPD*%
G04 APERTURE LIST*
%ADD10C,0.381000*%
%ADD11C,0.150000*%
%ADD12C,0.120000*%
G04 APERTURE END LIST*
D10*
X106045000Y-49657000D02*
X107823000Y-49657000D01*
X116967000Y-49657000D02*
X118745000Y-49657000D01*
X118745000Y-49657000D02*
X118745000Y-51435000D01*
X118745000Y-60579000D02*
X118745000Y-62357000D01*
X118745000Y-62357000D02*
X116967000Y-62357000D01*
X107823000Y-62357000D02*
X106045000Y-62357000D01*
X106045000Y-62357000D02*
X106045000Y-60579000D01*
X106045000Y-51435000D02*
X106045000Y-49657000D01*
X125095000Y-49657000D02*
X126873000Y-49657000D01*
X136017000Y-49657000D02*
X137795000Y-49657000D01*
X137795000Y-49657000D02*
X137795000Y-51435000D01*
X137795000Y-60579000D02*
X137795000Y-62357000D01*
X137795000Y-62357000D02*
X136017000Y-62357000D01*
X126873000Y-62357000D02*
X125095000Y-62357000D01*
X125095000Y-62357000D02*
X125095000Y-60579000D01*
X125095000Y-51435000D02*
X125095000Y-49657000D01*
X29845000Y-49657000D02*
X31623000Y-49657000D01*
X40767000Y-49657000D02*
X42545000Y-49657000D01*
X42545000Y-49657000D02*
X42545000Y-51435000D01*
X42545000Y-60579000D02*
X42545000Y-62357000D01*
X42545000Y-62357000D02*
X40767000Y-62357000D01*
X31623000Y-62357000D02*
X29845000Y-62357000D01*
X29845000Y-62357000D02*
X29845000Y-60579000D01*
X29845000Y-51435000D02*
X29845000Y-49657000D01*
X29845000Y-30607000D02*
X31623000Y-30607000D01*
X40767000Y-30607000D02*
X42545000Y-30607000D01*
X42545000Y-30607000D02*
X42545000Y-32385000D01*
X42545000Y-41529000D02*
X42545000Y-43307000D01*
X42545000Y-43307000D02*
X40767000Y-43307000D01*
X31623000Y-43307000D02*
X29845000Y-43307000D01*
X29845000Y-43307000D02*
X29845000Y-41529000D01*
X29845000Y-32385000D02*
X29845000Y-30607000D01*
D11*
X54917000Y-13335000D02*
X45667000Y-13335000D01*
X54767000Y-19995000D02*
X45817000Y-19995000D01*
X45812000Y-11585000D02*
X45817000Y-10825000D01*
X54767000Y-10825000D02*
X45817000Y-10825000D01*
X54767000Y-10825000D02*
X54772000Y-11585000D01*
X50292000Y-13335000D02*
X50292000Y-14605000D01*
D10*
X29845000Y-87757000D02*
X31623000Y-87757000D01*
X40767000Y-87757000D02*
X42545000Y-87757000D01*
X42545000Y-87757000D02*
X42545000Y-89535000D01*
X42545000Y-98679000D02*
X42545000Y-100457000D01*
X42545000Y-100457000D02*
X40767000Y-100457000D01*
X31623000Y-100457000D02*
X29845000Y-100457000D01*
X29845000Y-100457000D02*
X29845000Y-98679000D01*
X29845000Y-89535000D02*
X29845000Y-87757000D01*
X48895000Y-30607000D02*
X50673000Y-30607000D01*
X59817000Y-30607000D02*
X61595000Y-30607000D01*
X61595000Y-30607000D02*
X61595000Y-32385000D01*
X61595000Y-41529000D02*
X61595000Y-43307000D01*
X61595000Y-43307000D02*
X59817000Y-43307000D01*
X50673000Y-43307000D02*
X48895000Y-43307000D01*
X48895000Y-43307000D02*
X48895000Y-41529000D01*
X48895000Y-32385000D02*
X48895000Y-30607000D01*
X48895000Y-49657000D02*
X50673000Y-49657000D01*
X59817000Y-49657000D02*
X61595000Y-49657000D01*
X61595000Y-49657000D02*
X61595000Y-51435000D01*
X61595000Y-60579000D02*
X61595000Y-62357000D01*
X61595000Y-62357000D02*
X59817000Y-62357000D01*
X50673000Y-62357000D02*
X48895000Y-62357000D01*
X48895000Y-62357000D02*
X48895000Y-60579000D01*
X48895000Y-51435000D02*
X48895000Y-49657000D01*
X48895000Y-68707000D02*
X50673000Y-68707000D01*
X59817000Y-68707000D02*
X61595000Y-68707000D01*
X61595000Y-68707000D02*
X61595000Y-70485000D01*
X61595000Y-79629000D02*
X61595000Y-81407000D01*
X61595000Y-81407000D02*
X59817000Y-81407000D01*
X50673000Y-81407000D02*
X48895000Y-81407000D01*
X48895000Y-81407000D02*
X48895000Y-79629000D01*
X48895000Y-70485000D02*
X48895000Y-68707000D01*
X48895000Y-87757000D02*
X50673000Y-87757000D01*
X59817000Y-87757000D02*
X61595000Y-87757000D01*
X61595000Y-87757000D02*
X61595000Y-89535000D01*
X61595000Y-98679000D02*
X61595000Y-100457000D01*
X61595000Y-100457000D02*
X59817000Y-100457000D01*
X50673000Y-100457000D02*
X48895000Y-100457000D01*
X48895000Y-100457000D02*
X48895000Y-98679000D01*
X48895000Y-89535000D02*
X48895000Y-87757000D01*
X67945000Y-30607000D02*
X69723000Y-30607000D01*
X78867000Y-30607000D02*
X80645000Y-30607000D01*
X80645000Y-30607000D02*
X80645000Y-32385000D01*
X80645000Y-41529000D02*
X80645000Y-43307000D01*
X80645000Y-43307000D02*
X78867000Y-43307000D01*
X69723000Y-43307000D02*
X67945000Y-43307000D01*
X67945000Y-43307000D02*
X67945000Y-41529000D01*
X67945000Y-32385000D02*
X67945000Y-30607000D01*
X67945000Y-49657000D02*
X69723000Y-49657000D01*
X78867000Y-49657000D02*
X80645000Y-49657000D01*
X80645000Y-49657000D02*
X80645000Y-51435000D01*
X80645000Y-60579000D02*
X80645000Y-62357000D01*
X80645000Y-62357000D02*
X78867000Y-62357000D01*
X69723000Y-62357000D02*
X67945000Y-62357000D01*
X67945000Y-62357000D02*
X67945000Y-60579000D01*
X67945000Y-51435000D02*
X67945000Y-49657000D01*
X67945000Y-68707000D02*
X69723000Y-68707000D01*
X78867000Y-68707000D02*
X80645000Y-68707000D01*
X80645000Y-68707000D02*
X80645000Y-70485000D01*
X80645000Y-79629000D02*
X80645000Y-81407000D01*
X80645000Y-81407000D02*
X78867000Y-81407000D01*
X69723000Y-81407000D02*
X67945000Y-81407000D01*
X67945000Y-81407000D02*
X67945000Y-79629000D01*
X67945000Y-70485000D02*
X67945000Y-68707000D01*
X67945000Y-87757000D02*
X69723000Y-87757000D01*
X78867000Y-87757000D02*
X80645000Y-87757000D01*
X80645000Y-87757000D02*
X80645000Y-89535000D01*
X80645000Y-98679000D02*
X80645000Y-100457000D01*
X80645000Y-100457000D02*
X78867000Y-100457000D01*
X69723000Y-100457000D02*
X67945000Y-100457000D01*
X67945000Y-100457000D02*
X67945000Y-98679000D01*
X67945000Y-89535000D02*
X67945000Y-87757000D01*
X86995000Y-30607000D02*
X88773000Y-30607000D01*
X97917000Y-30607000D02*
X99695000Y-30607000D01*
X99695000Y-30607000D02*
X99695000Y-32385000D01*
X99695000Y-41529000D02*
X99695000Y-43307000D01*
X99695000Y-43307000D02*
X97917000Y-43307000D01*
X88773000Y-43307000D02*
X86995000Y-43307000D01*
X86995000Y-43307000D02*
X86995000Y-41529000D01*
X86995000Y-32385000D02*
X86995000Y-30607000D01*
X86995000Y-49657000D02*
X88773000Y-49657000D01*
X97917000Y-49657000D02*
X99695000Y-49657000D01*
X99695000Y-49657000D02*
X99695000Y-51435000D01*
X99695000Y-60579000D02*
X99695000Y-62357000D01*
X99695000Y-62357000D02*
X97917000Y-62357000D01*
X88773000Y-62357000D02*
X86995000Y-62357000D01*
X86995000Y-62357000D02*
X86995000Y-60579000D01*
X86995000Y-51435000D02*
X86995000Y-49657000D01*
X86995000Y-68707000D02*
X88773000Y-68707000D01*
X97917000Y-68707000D02*
X99695000Y-68707000D01*
X99695000Y-68707000D02*
X99695000Y-70485000D01*
X99695000Y-79629000D02*
X99695000Y-81407000D01*
X99695000Y-81407000D02*
X97917000Y-81407000D01*
X88773000Y-81407000D02*
X86995000Y-81407000D01*
X86995000Y-81407000D02*
X86995000Y-79629000D01*
X86995000Y-70485000D02*
X86995000Y-68707000D01*
X86995000Y-87757000D02*
X88773000Y-87757000D01*
X97917000Y-87757000D02*
X99695000Y-87757000D01*
X99695000Y-87757000D02*
X99695000Y-89535000D01*
X99695000Y-98679000D02*
X99695000Y-100457000D01*
X99695000Y-100457000D02*
X97917000Y-100457000D01*
X88773000Y-100457000D02*
X86995000Y-100457000D01*
X86995000Y-100457000D02*
X86995000Y-98679000D01*
X86995000Y-89535000D02*
X86995000Y-87757000D01*
X106045000Y-30607000D02*
X107823000Y-30607000D01*
X116967000Y-30607000D02*
X118745000Y-30607000D01*
X118745000Y-30607000D02*
X118745000Y-32385000D01*
X118745000Y-41529000D02*
X118745000Y-43307000D01*
X118745000Y-43307000D02*
X116967000Y-43307000D01*
X107823000Y-43307000D02*
X106045000Y-43307000D01*
X106045000Y-43307000D02*
X106045000Y-41529000D01*
X106045000Y-32385000D02*
X106045000Y-30607000D01*
X106045000Y-68707000D02*
X107823000Y-68707000D01*
X116967000Y-68707000D02*
X118745000Y-68707000D01*
X118745000Y-68707000D02*
X118745000Y-70485000D01*
X118745000Y-79629000D02*
X118745000Y-81407000D01*
X118745000Y-81407000D02*
X116967000Y-81407000D01*
X107823000Y-81407000D02*
X106045000Y-81407000D01*
X106045000Y-81407000D02*
X106045000Y-79629000D01*
X106045000Y-70485000D02*
X106045000Y-68707000D01*
X106045000Y-87757000D02*
X107823000Y-87757000D01*
X116967000Y-87757000D02*
X118745000Y-87757000D01*
X118745000Y-87757000D02*
X118745000Y-89535000D01*
X118745000Y-98679000D02*
X118745000Y-100457000D01*
X118745000Y-100457000D02*
X116967000Y-100457000D01*
X107823000Y-100457000D02*
X106045000Y-100457000D01*
X106045000Y-100457000D02*
X106045000Y-98679000D01*
X106045000Y-89535000D02*
X106045000Y-87757000D01*
X125095000Y-30607000D02*
X126873000Y-30607000D01*
X136017000Y-30607000D02*
X137795000Y-30607000D01*
X137795000Y-30607000D02*
X137795000Y-32385000D01*
X137795000Y-41529000D02*
X137795000Y-43307000D01*
X137795000Y-43307000D02*
X136017000Y-43307000D01*
X126873000Y-43307000D02*
X125095000Y-43307000D01*
X125095000Y-43307000D02*
X125095000Y-41529000D01*
X125095000Y-32385000D02*
X125095000Y-30607000D01*
X144145000Y-30607000D02*
X145923000Y-30607000D01*
X155067000Y-30607000D02*
X156845000Y-30607000D01*
X156845000Y-30607000D02*
X156845000Y-32385000D01*
X156845000Y-41529000D02*
X156845000Y-43307000D01*
X156845000Y-43307000D02*
X155067000Y-43307000D01*
X145923000Y-43307000D02*
X144145000Y-43307000D01*
X144145000Y-43307000D02*
X144145000Y-41529000D01*
X144145000Y-32385000D02*
X144145000Y-30607000D01*
X144145000Y-49657000D02*
X145923000Y-49657000D01*
X155067000Y-49657000D02*
X156845000Y-49657000D01*
X156845000Y-49657000D02*
X156845000Y-51435000D01*
X156845000Y-60579000D02*
X156845000Y-62357000D01*
X156845000Y-62357000D02*
X155067000Y-62357000D01*
X145923000Y-62357000D02*
X144145000Y-62357000D01*
X144145000Y-62357000D02*
X144145000Y-60579000D01*
X144145000Y-51435000D02*
X144145000Y-49657000D01*
X144145000Y-68707000D02*
X145923000Y-68707000D01*
X155067000Y-68707000D02*
X156845000Y-68707000D01*
X156845000Y-68707000D02*
X156845000Y-70485000D01*
X156845000Y-79629000D02*
X156845000Y-81407000D01*
X156845000Y-81407000D02*
X155067000Y-81407000D01*
X145923000Y-81407000D02*
X144145000Y-81407000D01*
X144145000Y-81407000D02*
X144145000Y-79629000D01*
X144145000Y-70485000D02*
X144145000Y-68707000D01*
X134620000Y-87757000D02*
X136398000Y-87757000D01*
X145542000Y-87757000D02*
X147320000Y-87757000D01*
X147320000Y-87757000D02*
X147320000Y-89535000D01*
X147320000Y-98679000D02*
X147320000Y-100457000D01*
X147320000Y-100457000D02*
X145542000Y-100457000D01*
X136398000Y-100457000D02*
X134620000Y-100457000D01*
X134620000Y-100457000D02*
X134620000Y-98679000D01*
X134620000Y-89535000D02*
X134620000Y-87757000D01*
X163195000Y-30607000D02*
X164973000Y-30607000D01*
X174117000Y-30607000D02*
X175895000Y-30607000D01*
X175895000Y-30607000D02*
X175895000Y-32385000D01*
X175895000Y-41529000D02*
X175895000Y-43307000D01*
X175895000Y-43307000D02*
X174117000Y-43307000D01*
X164973000Y-43307000D02*
X163195000Y-43307000D01*
X163195000Y-43307000D02*
X163195000Y-41529000D01*
X163195000Y-32385000D02*
X163195000Y-30607000D01*
X163195000Y-49657000D02*
X164973000Y-49657000D01*
X174117000Y-49657000D02*
X175895000Y-49657000D01*
X175895000Y-49657000D02*
X175895000Y-51435000D01*
X175895000Y-60579000D02*
X175895000Y-62357000D01*
X175895000Y-62357000D02*
X174117000Y-62357000D01*
X164973000Y-62357000D02*
X163195000Y-62357000D01*
X163195000Y-62357000D02*
X163195000Y-60579000D01*
X163195000Y-51435000D02*
X163195000Y-49657000D01*
X163195000Y-68707000D02*
X164973000Y-68707000D01*
X174117000Y-68707000D02*
X175895000Y-68707000D01*
X175895000Y-68707000D02*
X175895000Y-70485000D01*
X175895000Y-79629000D02*
X175895000Y-81407000D01*
X175895000Y-81407000D02*
X174117000Y-81407000D01*
X164973000Y-81407000D02*
X163195000Y-81407000D01*
X163195000Y-81407000D02*
X163195000Y-79629000D01*
X163195000Y-70485000D02*
X163195000Y-68707000D01*
X163195000Y-87757000D02*
X164973000Y-87757000D01*
X174117000Y-87757000D02*
X175895000Y-87757000D01*
X175895000Y-87757000D02*
X175895000Y-89535000D01*
X175895000Y-98679000D02*
X175895000Y-100457000D01*
X175895000Y-100457000D02*
X174117000Y-100457000D01*
X164973000Y-100457000D02*
X163195000Y-100457000D01*
X163195000Y-100457000D02*
X163195000Y-98679000D01*
X163195000Y-89535000D02*
X163195000Y-87757000D01*
X182245000Y-30607000D02*
X184023000Y-30607000D01*
X193167000Y-30607000D02*
X194945000Y-30607000D01*
X194945000Y-30607000D02*
X194945000Y-32385000D01*
X194945000Y-41529000D02*
X194945000Y-43307000D01*
X194945000Y-43307000D02*
X193167000Y-43307000D01*
X184023000Y-43307000D02*
X182245000Y-43307000D01*
X182245000Y-43307000D02*
X182245000Y-41529000D01*
X182245000Y-32385000D02*
X182245000Y-30607000D01*
X182245000Y-49657000D02*
X184023000Y-49657000D01*
X193167000Y-49657000D02*
X194945000Y-49657000D01*
X194945000Y-49657000D02*
X194945000Y-51435000D01*
X194945000Y-60579000D02*
X194945000Y-62357000D01*
X194945000Y-62357000D02*
X193167000Y-62357000D01*
X184023000Y-62357000D02*
X182245000Y-62357000D01*
X182245000Y-62357000D02*
X182245000Y-60579000D01*
X182245000Y-51435000D02*
X182245000Y-49657000D01*
X182245000Y-68707000D02*
X184023000Y-68707000D01*
X193167000Y-68707000D02*
X194945000Y-68707000D01*
X194945000Y-68707000D02*
X194945000Y-70485000D01*
X194945000Y-79629000D02*
X194945000Y-81407000D01*
X194945000Y-81407000D02*
X193167000Y-81407000D01*
X184023000Y-81407000D02*
X182245000Y-81407000D01*
X182245000Y-81407000D02*
X182245000Y-79629000D01*
X182245000Y-70485000D02*
X182245000Y-68707000D01*
X182245000Y-87757000D02*
X184023000Y-87757000D01*
X193167000Y-87757000D02*
X194945000Y-87757000D01*
X194945000Y-87757000D02*
X194945000Y-89535000D01*
X194945000Y-98679000D02*
X194945000Y-100457000D01*
X194945000Y-100457000D02*
X193167000Y-100457000D01*
X184023000Y-100457000D02*
X182245000Y-100457000D01*
X182245000Y-100457000D02*
X182245000Y-98679000D01*
X182245000Y-89535000D02*
X182245000Y-87757000D01*
X201295000Y-30607000D02*
X203073000Y-30607000D01*
X212217000Y-30607000D02*
X213995000Y-30607000D01*
X213995000Y-30607000D02*
X213995000Y-32385000D01*
X213995000Y-41529000D02*
X213995000Y-43307000D01*
X213995000Y-43307000D02*
X212217000Y-43307000D01*
X203073000Y-43307000D02*
X201295000Y-43307000D01*
X201295000Y-43307000D02*
X201295000Y-41529000D01*
X201295000Y-32385000D02*
X201295000Y-30607000D01*
X201295000Y-49657000D02*
X203073000Y-49657000D01*
X212217000Y-49657000D02*
X213995000Y-49657000D01*
X213995000Y-49657000D02*
X213995000Y-51435000D01*
X213995000Y-60579000D02*
X213995000Y-62357000D01*
X213995000Y-62357000D02*
X212217000Y-62357000D01*
X203073000Y-62357000D02*
X201295000Y-62357000D01*
X201295000Y-62357000D02*
X201295000Y-60579000D01*
X201295000Y-51435000D02*
X201295000Y-49657000D01*
X201295000Y-68707000D02*
X203073000Y-68707000D01*
X212217000Y-68707000D02*
X213995000Y-68707000D01*
X213995000Y-68707000D02*
X213995000Y-70485000D01*
X213995000Y-79629000D02*
X213995000Y-81407000D01*
X213995000Y-81407000D02*
X212217000Y-81407000D01*
X203073000Y-81407000D02*
X201295000Y-81407000D01*
X201295000Y-81407000D02*
X201295000Y-79629000D01*
X201295000Y-70485000D02*
X201295000Y-68707000D01*
X201295000Y-87757000D02*
X203073000Y-87757000D01*
X212217000Y-87757000D02*
X213995000Y-87757000D01*
X213995000Y-87757000D02*
X213995000Y-89535000D01*
X213995000Y-98679000D02*
X213995000Y-100457000D01*
X213995000Y-100457000D02*
X212217000Y-100457000D01*
X203073000Y-100457000D02*
X201295000Y-100457000D01*
X201295000Y-100457000D02*
X201295000Y-98679000D01*
X201295000Y-89535000D02*
X201295000Y-87757000D01*
X220345000Y-30607000D02*
X222123000Y-30607000D01*
X231267000Y-30607000D02*
X233045000Y-30607000D01*
X233045000Y-30607000D02*
X233045000Y-32385000D01*
X233045000Y-41529000D02*
X233045000Y-43307000D01*
X233045000Y-43307000D02*
X231267000Y-43307000D01*
X222123000Y-43307000D02*
X220345000Y-43307000D01*
X220345000Y-43307000D02*
X220345000Y-41529000D01*
X220345000Y-32385000D02*
X220345000Y-30607000D01*
X220345000Y-49657000D02*
X222123000Y-49657000D01*
X231267000Y-49657000D02*
X233045000Y-49657000D01*
X233045000Y-49657000D02*
X233045000Y-51435000D01*
X233045000Y-60579000D02*
X233045000Y-62357000D01*
X233045000Y-62357000D02*
X231267000Y-62357000D01*
X222123000Y-62357000D02*
X220345000Y-62357000D01*
X220345000Y-62357000D02*
X220345000Y-60579000D01*
X220345000Y-51435000D02*
X220345000Y-49657000D01*
X220345000Y-68707000D02*
X222123000Y-68707000D01*
X231267000Y-68707000D02*
X233045000Y-68707000D01*
X233045000Y-68707000D02*
X233045000Y-70485000D01*
X233045000Y-79629000D02*
X233045000Y-81407000D01*
X233045000Y-81407000D02*
X231267000Y-81407000D01*
X222123000Y-81407000D02*
X220345000Y-81407000D01*
X220345000Y-81407000D02*
X220345000Y-79629000D01*
X220345000Y-70485000D02*
X220345000Y-68707000D01*
X220345000Y-87757000D02*
X222123000Y-87757000D01*
X231267000Y-87757000D02*
X233045000Y-87757000D01*
X233045000Y-87757000D02*
X233045000Y-89535000D01*
X233045000Y-98679000D02*
X233045000Y-100457000D01*
X233045000Y-100457000D02*
X231267000Y-100457000D01*
X222123000Y-100457000D02*
X220345000Y-100457000D01*
X220345000Y-100457000D02*
X220345000Y-98679000D01*
X220345000Y-89535000D02*
X220345000Y-87757000D01*
X239395000Y-30607000D02*
X241173000Y-30607000D01*
X250317000Y-30607000D02*
X252095000Y-30607000D01*
X252095000Y-30607000D02*
X252095000Y-32385000D01*
X252095000Y-41529000D02*
X252095000Y-43307000D01*
X252095000Y-43307000D02*
X250317000Y-43307000D01*
X241173000Y-43307000D02*
X239395000Y-43307000D01*
X239395000Y-43307000D02*
X239395000Y-41529000D01*
X239395000Y-32385000D02*
X239395000Y-30607000D01*
X239395000Y-49657000D02*
X241173000Y-49657000D01*
X250317000Y-49657000D02*
X252095000Y-49657000D01*
X252095000Y-49657000D02*
X252095000Y-51435000D01*
X252095000Y-60579000D02*
X252095000Y-62357000D01*
X252095000Y-62357000D02*
X250317000Y-62357000D01*
X241173000Y-62357000D02*
X239395000Y-62357000D01*
X239395000Y-62357000D02*
X239395000Y-60579000D01*
X239395000Y-51435000D02*
X239395000Y-49657000D01*
X239395000Y-68707000D02*
X241173000Y-68707000D01*
X250317000Y-68707000D02*
X252095000Y-68707000D01*
X252095000Y-68707000D02*
X252095000Y-70485000D01*
X252095000Y-79629000D02*
X252095000Y-81407000D01*
X252095000Y-81407000D02*
X250317000Y-81407000D01*
X241173000Y-81407000D02*
X239395000Y-81407000D01*
X239395000Y-81407000D02*
X239395000Y-79629000D01*
X239395000Y-70485000D02*
X239395000Y-68707000D01*
X239395000Y-87757000D02*
X241173000Y-87757000D01*
X250317000Y-87757000D02*
X252095000Y-87757000D01*
X252095000Y-87757000D02*
X252095000Y-89535000D01*
X252095000Y-98679000D02*
X252095000Y-100457000D01*
X252095000Y-100457000D02*
X250317000Y-100457000D01*
X241173000Y-100457000D02*
X239395000Y-100457000D01*
X239395000Y-100457000D02*
X239395000Y-98679000D01*
X239395000Y-89535000D02*
X239395000Y-87757000D01*
X29845000Y-68707000D02*
X31623000Y-68707000D01*
X40767000Y-68707000D02*
X42545000Y-68707000D01*
X42545000Y-68707000D02*
X42545000Y-70485000D01*
X42545000Y-79629000D02*
X42545000Y-81407000D01*
X42545000Y-81407000D02*
X40767000Y-81407000D01*
X31623000Y-81407000D02*
X29845000Y-81407000D01*
X29845000Y-81407000D02*
X29845000Y-79629000D01*
X29845000Y-70485000D02*
X29845000Y-68707000D01*
D12*
X239768000Y-22359000D02*
G75*
G03X239768000Y-22359000I-3000000J0D01*
G01*
X242668000Y-24359000D02*
X242668000Y-28459000D01*
X230868000Y-28459000D02*
X230868000Y-24359000D01*
X230868000Y-20359000D02*
X230868000Y-16259000D01*
X242668000Y-20359000D02*
X242668000Y-16259000D01*
X242668000Y-16259000D02*
X230868000Y-16259000D01*
X240568000Y-14859000D02*
X240868000Y-14559000D01*
X240868000Y-14559000D02*
X240868000Y-15159000D01*
X240868000Y-15159000D02*
X240568000Y-14859000D01*
X242668000Y-28459000D02*
X240268000Y-28459000D01*
X238068000Y-28459000D02*
X235468000Y-28459000D01*
X233268000Y-28459000D02*
X230868000Y-28459000D01*
X237268000Y-22359000D02*
X236268000Y-22359000D01*
X236768000Y-21859000D02*
X236768000Y-22859000D01*
D10*
X125095000Y-68707000D02*
X126873000Y-68707000D01*
X136017000Y-68707000D02*
X137795000Y-68707000D01*
X137795000Y-68707000D02*
X137795000Y-70485000D01*
X137795000Y-79629000D02*
X137795000Y-81407000D01*
X137795000Y-81407000D02*
X136017000Y-81407000D01*
X126873000Y-81407000D02*
X125095000Y-81407000D01*
X125095000Y-81407000D02*
X125095000Y-79629000D01*
X125095000Y-70485000D02*
X125095000Y-68707000D01*
D12*
X33009000Y-44429600D02*
X33009000Y-43609600D01*
X34809000Y-44429600D02*
X33009000Y-44429600D01*
X34809000Y-43609600D02*
X33009000Y-43609600D01*
X52008200Y-43718400D02*
X52008200Y-42898400D01*
X53808200Y-43718400D02*
X52008200Y-43718400D01*
X53808200Y-42898400D02*
X52008200Y-42898400D01*
X73010600Y-42898400D02*
X71210600Y-42898400D01*
X73010600Y-43718400D02*
X71210600Y-43718400D01*
X71210600Y-43718400D02*
X71210600Y-42898400D01*
X223509000Y-100817600D02*
X223509000Y-99997600D01*
X225309000Y-100817600D02*
X223509000Y-100817600D01*
X225309000Y-99997600D02*
X223509000Y-99997600D01*
X91908200Y-42898400D02*
X90108200Y-42898400D01*
X91908200Y-43718400D02*
X90108200Y-43718400D01*
X90108200Y-43718400D02*
X90108200Y-42898400D01*
X109209000Y-43718400D02*
X109209000Y-42898400D01*
X111009000Y-43718400D02*
X109209000Y-43718400D01*
X111009000Y-42898400D02*
X109209000Y-42898400D01*
X130008200Y-42898400D02*
X128208200Y-42898400D01*
X130008200Y-43718400D02*
X128208200Y-43718400D01*
X128208200Y-43718400D02*
X128208200Y-42898400D01*
X147207400Y-43718400D02*
X147207400Y-42898400D01*
X149007400Y-43718400D02*
X147207400Y-43718400D01*
X149007400Y-42898400D02*
X147207400Y-42898400D01*
X168108200Y-42898400D02*
X166308200Y-42898400D01*
X168108200Y-43718400D02*
X166308200Y-43718400D01*
X166308200Y-43718400D02*
X166308200Y-42898400D01*
X185409000Y-43718400D02*
X185409000Y-42898400D01*
X187209000Y-43718400D02*
X185409000Y-43718400D01*
X187209000Y-42898400D02*
X185409000Y-42898400D01*
X206208200Y-42898400D02*
X204408200Y-42898400D01*
X206208200Y-43718400D02*
X204408200Y-43718400D01*
X204408200Y-43718400D02*
X204408200Y-42898400D01*
X223407400Y-43718400D02*
X223407400Y-42898400D01*
X225207400Y-43718400D02*
X223407400Y-43718400D01*
X225207400Y-42898400D02*
X223407400Y-42898400D01*
X242406600Y-43718400D02*
X242406600Y-42898400D01*
X244206600Y-43718400D02*
X242406600Y-43718400D01*
X244206600Y-42898400D02*
X242406600Y-42898400D01*
X34707400Y-61921600D02*
X32907400Y-61921600D01*
X34707400Y-62741600D02*
X32907400Y-62741600D01*
X32907400Y-62741600D02*
X32907400Y-61921600D01*
X52008200Y-62717600D02*
X52008200Y-61897600D01*
X53808200Y-62717600D02*
X52008200Y-62717600D01*
X53808200Y-61897600D02*
X52008200Y-61897600D01*
X71210600Y-62717600D02*
X71210600Y-61897600D01*
X73010600Y-62717600D02*
X71210600Y-62717600D01*
X73010600Y-61897600D02*
X71210600Y-61897600D01*
X91908200Y-61897600D02*
X90108200Y-61897600D01*
X91908200Y-62717600D02*
X90108200Y-62717600D01*
X90108200Y-62717600D02*
X90108200Y-61897600D01*
X111009000Y-61897600D02*
X109209000Y-61897600D01*
X111009000Y-62717600D02*
X109209000Y-62717600D01*
X109209000Y-62717600D02*
X109209000Y-61897600D01*
X128208200Y-62717600D02*
X128208200Y-61897600D01*
X130008200Y-62717600D02*
X128208200Y-62717600D01*
X130008200Y-61897600D02*
X128208200Y-61897600D01*
X149007400Y-61897600D02*
X147207400Y-61897600D01*
X149007400Y-62717600D02*
X147207400Y-62717600D01*
X147207400Y-62717600D02*
X147207400Y-61897600D01*
X166308200Y-62717600D02*
X166308200Y-61897600D01*
X168108200Y-62717600D02*
X166308200Y-62717600D01*
X168108200Y-61897600D02*
X166308200Y-61897600D01*
X187209000Y-61897600D02*
X185409000Y-61897600D01*
X187209000Y-62717600D02*
X185409000Y-62717600D01*
X185409000Y-62717600D02*
X185409000Y-61897600D01*
X204408200Y-62717600D02*
X204408200Y-61897600D01*
X206208200Y-62717600D02*
X204408200Y-62717600D01*
X206208200Y-61897600D02*
X204408200Y-61897600D01*
X225207400Y-61897600D02*
X223407400Y-61897600D01*
X225207400Y-62717600D02*
X223407400Y-62717600D01*
X223407400Y-62717600D02*
X223407400Y-61897600D01*
X244206600Y-61897600D02*
X242406600Y-61897600D01*
X244206600Y-62717600D02*
X242406600Y-62717600D01*
X242406600Y-62717600D02*
X242406600Y-61897600D01*
X33009000Y-81818400D02*
X33009000Y-80998400D01*
X34809000Y-81818400D02*
X33009000Y-81818400D01*
X34809000Y-80998400D02*
X33009000Y-80998400D01*
X53808200Y-80998400D02*
X52008200Y-80998400D01*
X53808200Y-81818400D02*
X52008200Y-81818400D01*
X52008200Y-81818400D02*
X52008200Y-80998400D01*
X72909000Y-80998400D02*
X71109000Y-80998400D01*
X72909000Y-81818400D02*
X71109000Y-81818400D01*
X71109000Y-81818400D02*
X71109000Y-80998400D01*
X90108200Y-81818400D02*
X90108200Y-80998400D01*
X91908200Y-81818400D02*
X90108200Y-81818400D01*
X91908200Y-80998400D02*
X90108200Y-80998400D01*
X111009000Y-80998400D02*
X109209000Y-80998400D01*
X111009000Y-81818400D02*
X109209000Y-81818400D01*
X109209000Y-81818400D02*
X109209000Y-80998400D01*
X130008200Y-80998400D02*
X128208200Y-80998400D01*
X130008200Y-81818400D02*
X128208200Y-81818400D01*
X128208200Y-81818400D02*
X128208200Y-80998400D01*
X149007400Y-80998400D02*
X147207400Y-80998400D01*
X149007400Y-81818400D02*
X147207400Y-81818400D01*
X147207400Y-81818400D02*
X147207400Y-80998400D01*
X166206600Y-81818400D02*
X166206600Y-80998400D01*
X168006600Y-81818400D02*
X166206600Y-81818400D01*
X168006600Y-80998400D02*
X166206600Y-80998400D01*
X187107400Y-80998400D02*
X185307400Y-80998400D01*
X187107400Y-81818400D02*
X185307400Y-81818400D01*
X185307400Y-81818400D02*
X185307400Y-80998400D01*
X204408200Y-81818400D02*
X204408200Y-80998400D01*
X206208200Y-81818400D02*
X204408200Y-81818400D01*
X206208200Y-80998400D02*
X204408200Y-80998400D01*
X223407400Y-81818400D02*
X223407400Y-80998400D01*
X225207400Y-81818400D02*
X223407400Y-81818400D01*
X225207400Y-80998400D02*
X223407400Y-80998400D01*
X244308200Y-80998400D02*
X242508200Y-80998400D01*
X244308200Y-81818400D02*
X242508200Y-81818400D01*
X242508200Y-81818400D02*
X242508200Y-80998400D01*
X32805800Y-100817600D02*
X32805800Y-99997600D01*
X34605800Y-100817600D02*
X32805800Y-100817600D01*
X34605800Y-99997600D02*
X32805800Y-99997600D01*
X53808200Y-99997600D02*
X52008200Y-99997600D01*
X53808200Y-100817600D02*
X52008200Y-100817600D01*
X52008200Y-100817600D02*
X52008200Y-99997600D01*
X71109000Y-100817600D02*
X71109000Y-99997600D01*
X72909000Y-100817600D02*
X71109000Y-100817600D01*
X72909000Y-99997600D02*
X71109000Y-99997600D01*
X91908200Y-99997600D02*
X90108200Y-99997600D01*
X91908200Y-100817600D02*
X90108200Y-100817600D01*
X90108200Y-100817600D02*
X90108200Y-99997600D01*
X111009000Y-99997600D02*
X109209000Y-99997600D01*
X111009000Y-100817600D02*
X109209000Y-100817600D01*
X109209000Y-100817600D02*
X109209000Y-99997600D01*
X137657000Y-100817600D02*
X137657000Y-99997600D01*
X139457000Y-100817600D02*
X137657000Y-100817600D01*
X139457000Y-99997600D02*
X137657000Y-99997600D01*
X166206600Y-100817600D02*
X166206600Y-99997600D01*
X168006600Y-100817600D02*
X166206600Y-100817600D01*
X168006600Y-99997600D02*
X166206600Y-99997600D01*
X185307400Y-100817600D02*
X185307400Y-99997600D01*
X187107400Y-100817600D02*
X185307400Y-100817600D01*
X187107400Y-99997600D02*
X185307400Y-99997600D01*
X206208200Y-99997600D02*
X204408200Y-99997600D01*
X206208200Y-100817600D02*
X204408200Y-100817600D01*
X204408200Y-100817600D02*
X204408200Y-99997600D01*
X244308200Y-99997600D02*
X242508200Y-99997600D01*
X244308200Y-100817600D02*
X242508200Y-100817600D01*
X242508200Y-100817600D02*
X242508200Y-99997600D01*
D11*
M02*
