G04 #@! TF.GenerationSoftware,KiCad,Pcbnew,(5.1.0)-1*
G04 #@! TF.CreationDate,2020-10-10T14:24:37-04:00*
G04 #@! TF.ProjectId,rev1.0,72657631-2e30-42e6-9b69-6361645f7063,rev?*
G04 #@! TF.SameCoordinates,Original*
G04 #@! TF.FileFunction,Paste,Top*
G04 #@! TF.FilePolarity,Positive*
%FSLAX46Y46*%
G04 Gerber Fmt 4.6, Leading zero omitted, Abs format (unit mm)*
G04 Created by KiCad (PCBNEW (5.1.0)-1) date 2020-10-10 14:24:37*
%MOMM*%
%LPD*%
G04 APERTURE LIST*
%ADD10R,1.800000X0.820000*%
G04 APERTURE END LIST*
D10*
X38909000Y-42519600D03*
X38909000Y-44019600D03*
X33909000Y-42519600D03*
X33909000Y-44019600D03*
X57908200Y-41808400D03*
X57908200Y-43308400D03*
X52908200Y-41808400D03*
X52908200Y-43308400D03*
X72110600Y-43308400D03*
X72110600Y-41808400D03*
X77110600Y-43308400D03*
X77110600Y-41808400D03*
X229409000Y-98907600D03*
X229409000Y-100407600D03*
X224409000Y-98907600D03*
X224409000Y-100407600D03*
X91008200Y-43308400D03*
X91008200Y-41808400D03*
X96008200Y-43308400D03*
X96008200Y-41808400D03*
X115109000Y-41808400D03*
X115109000Y-43308400D03*
X110109000Y-41808400D03*
X110109000Y-43308400D03*
X129108200Y-43308400D03*
X129108200Y-41808400D03*
X134108200Y-43308400D03*
X134108200Y-41808400D03*
X153107400Y-41808400D03*
X153107400Y-43308400D03*
X148107400Y-41808400D03*
X148107400Y-43308400D03*
X167208200Y-43308400D03*
X167208200Y-41808400D03*
X172208200Y-43308400D03*
X172208200Y-41808400D03*
X191309000Y-41808400D03*
X191309000Y-43308400D03*
X186309000Y-41808400D03*
X186309000Y-43308400D03*
X205308200Y-43308400D03*
X205308200Y-41808400D03*
X210308200Y-43308400D03*
X210308200Y-41808400D03*
X229307400Y-41808400D03*
X229307400Y-43308400D03*
X224307400Y-41808400D03*
X224307400Y-43308400D03*
X248306600Y-41808400D03*
X248306600Y-43308400D03*
X243306600Y-41808400D03*
X243306600Y-43308400D03*
X33807400Y-62331600D03*
X33807400Y-60831600D03*
X38807400Y-62331600D03*
X38807400Y-60831600D03*
X57908200Y-60807600D03*
X57908200Y-62307600D03*
X52908200Y-60807600D03*
X52908200Y-62307600D03*
X77110600Y-60807600D03*
X77110600Y-62307600D03*
X72110600Y-60807600D03*
X72110600Y-62307600D03*
X91008200Y-62307600D03*
X91008200Y-60807600D03*
X96008200Y-62307600D03*
X96008200Y-60807600D03*
X110109000Y-62307600D03*
X110109000Y-60807600D03*
X115109000Y-62307600D03*
X115109000Y-60807600D03*
X134108200Y-60807600D03*
X134108200Y-62307600D03*
X129108200Y-60807600D03*
X129108200Y-62307600D03*
X148107400Y-62307600D03*
X148107400Y-60807600D03*
X153107400Y-62307600D03*
X153107400Y-60807600D03*
X172208200Y-60807600D03*
X172208200Y-62307600D03*
X167208200Y-60807600D03*
X167208200Y-62307600D03*
X186309000Y-62307600D03*
X186309000Y-60807600D03*
X191309000Y-62307600D03*
X191309000Y-60807600D03*
X210308200Y-60807600D03*
X210308200Y-62307600D03*
X205308200Y-60807600D03*
X205308200Y-62307600D03*
X224307400Y-62307600D03*
X224307400Y-60807600D03*
X229307400Y-62307600D03*
X229307400Y-60807600D03*
X243306600Y-62307600D03*
X243306600Y-60807600D03*
X248306600Y-62307600D03*
X248306600Y-60807600D03*
X38909000Y-79908400D03*
X38909000Y-81408400D03*
X33909000Y-79908400D03*
X33909000Y-81408400D03*
X52908200Y-81408400D03*
X52908200Y-79908400D03*
X57908200Y-81408400D03*
X57908200Y-79908400D03*
X72009000Y-81408400D03*
X72009000Y-79908400D03*
X77009000Y-81408400D03*
X77009000Y-79908400D03*
X96008200Y-79908400D03*
X96008200Y-81408400D03*
X91008200Y-79908400D03*
X91008200Y-81408400D03*
X110109000Y-81408400D03*
X110109000Y-79908400D03*
X115109000Y-81408400D03*
X115109000Y-79908400D03*
X129108200Y-81408400D03*
X129108200Y-79908400D03*
X134108200Y-81408400D03*
X134108200Y-79908400D03*
X148107400Y-81408400D03*
X148107400Y-79908400D03*
X153107400Y-81408400D03*
X153107400Y-79908400D03*
X172106600Y-79908400D03*
X172106600Y-81408400D03*
X167106600Y-79908400D03*
X167106600Y-81408400D03*
X186207400Y-81408400D03*
X186207400Y-79908400D03*
X191207400Y-81408400D03*
X191207400Y-79908400D03*
X210308200Y-79908400D03*
X210308200Y-81408400D03*
X205308200Y-79908400D03*
X205308200Y-81408400D03*
X229307400Y-79908400D03*
X229307400Y-81408400D03*
X224307400Y-79908400D03*
X224307400Y-81408400D03*
X243408200Y-81408400D03*
X243408200Y-79908400D03*
X248408200Y-81408400D03*
X248408200Y-79908400D03*
X38705800Y-98907600D03*
X38705800Y-100407600D03*
X33705800Y-98907600D03*
X33705800Y-100407600D03*
X52908200Y-100407600D03*
X52908200Y-98907600D03*
X57908200Y-100407600D03*
X57908200Y-98907600D03*
X77009000Y-98907600D03*
X77009000Y-100407600D03*
X72009000Y-98907600D03*
X72009000Y-100407600D03*
X91008200Y-100407600D03*
X91008200Y-98907600D03*
X96008200Y-100407600D03*
X96008200Y-98907600D03*
X110109000Y-100407600D03*
X110109000Y-98907600D03*
X115109000Y-100407600D03*
X115109000Y-98907600D03*
X143557000Y-98907600D03*
X143557000Y-100407600D03*
X138557000Y-98907600D03*
X138557000Y-100407600D03*
X172106600Y-98907600D03*
X172106600Y-100407600D03*
X167106600Y-98907600D03*
X167106600Y-100407600D03*
X191207400Y-98907600D03*
X191207400Y-100407600D03*
X186207400Y-98907600D03*
X186207400Y-100407600D03*
X205308200Y-100407600D03*
X205308200Y-98907600D03*
X210308200Y-100407600D03*
X210308200Y-98907600D03*
X243408200Y-100407600D03*
X243408200Y-98907600D03*
X248408200Y-100407600D03*
X248408200Y-98907600D03*
M02*
