M48
; DRILL file {KiCad (5.1.0)-1} date 10/10/2020 2:24:43 PM
; FORMAT={-:-/ absolute / inch / decimal}
; #@! TF.CreationDate,2020-10-10T14:24:43-04:00
; #@! TF.GenerationSoftware,Kicad,Pcbnew,(5.1.0)-1
; #@! TF.FileFunction,Plated,1,2,PTH
FMAT,2
INCH
T1C0.0157
T2C0.0236
T3C0.0394
T4C0.0591
T5C0.0866
T6C0.1024
%
G90
G05
T1
X1.119Y-1.15
X1.119Y-1.898
X1.119Y-2.65
X1.119Y-3.398
X1.154Y-1.753
X1.2059Y-3.414
X1.243Y-1.534
X1.247Y-2.666
X1.255Y-1.922
X1.263Y-3.414
X1.263Y-3.954
X1.267Y-3.146
X1.311Y-3.77
X1.318Y-2.4938
X1.319Y-2.29
X1.319Y-2.578
X1.327Y-3.998
X1.331Y-1.5946
X1.335Y-3.086
X1.335Y-3.322
X1.336Y-1.6337
X1.339Y-1.542
X1.435Y-1.798
X1.435Y-1.858
X1.523Y-3.8533
X1.527Y-2.3552
X1.531Y-3.038
X1.535Y-3.246
X1.5794Y-3.9225
X1.587Y-2.426
X1.623Y-1.27
X1.651Y-1.7616
X1.651Y-1.922
X1.651Y-3.254
X1.727Y-3.938
X1.759Y-1.79
X1.835Y-1.786
X1.8964Y-1.646
X1.9312Y-1.9218
X1.951Y-1.27
X1.955Y-2.29
X2.007Y-1.706
X2.015Y-3.178
X2.0391Y-1.6078
X2.043Y-2.546
X2.047Y-1.526
X2.075Y-2.29
X2.075Y-3.77
X2.083Y-1.6062
X2.083Y-1.754
X2.083Y-2.494
X2.083Y-3.03
X2.083Y-3.322
X2.083Y-3.994
X2.0967Y-3.1062
X2.115Y-1.035
X2.259Y-0.762
X2.275Y-3.854
X2.279Y-2.3542
X2.279Y-3.25
X2.3354Y-2.4226
X2.3354Y-3.9225
X2.399Y-4.074
X2.3992Y-1.9218
X2.403Y-3.254
X2.479Y-1.558
X2.479Y-2.354
X2.4797Y-3.1053
X2.5373Y-1.1877
X2.551Y-0.95
X2.631Y-0.59
X2.631Y-0.682
X2.727Y-2.286
X2.727Y-3.038
X2.763Y-1.706
X2.7788Y-3.1734
X2.7951Y-1.6078
X2.823Y-2.29
X2.835Y-2.554
X2.835Y-3.326
X2.835Y-3.774
X2.835Y-3.994
X2.839Y-1.606
X2.839Y-1.754
X2.839Y-2.494
X2.839Y-3.034
X2.843Y-3.1053
X2.951Y-0.9465
X2.9981Y-1.0949
X3.003Y-1.134
X3.015Y-0.765
X3.0214Y-3.8542
X3.035Y-3.246
X3.039Y-2.3533
X3.055Y-1.554
X3.0879Y-3.9217
X3.0908Y-2.4235
X3.122Y-1.2683
X3.147Y-0.942
X3.15Y-0.81
X3.15Y-0.855
X3.15Y-0.9
X3.1508Y-1.9218
X3.151Y-3.258
X3.179Y-1.394
X3.211Y-3.93
X3.219Y-0.69
X3.235Y-2.206
X3.235Y-2.666
X3.2501Y-1.4331
X3.2889Y-1.4397
X3.3282Y-1.4379
X3.351Y-2.342
X3.3511Y-3.0767
X3.39Y-1.125
X3.3904Y-2.342
X3.391Y-3.074
X3.391Y-3.8247
X3.447Y-1.53
X3.479Y-3.05
X3.487Y-2.294
X3.507Y-1.702
X3.5274Y-3.1765
X3.5304Y-1.6136
X3.5469Y-1.5224
X3.579Y-3.034
X3.583Y-1.6062
X3.583Y-1.754
X3.583Y-2.494
X3.583Y-2.574
X3.583Y-3.326
X3.583Y-3.778
X3.587Y-3.1062
X3.587Y-3.9928
X3.595Y-1.542
X3.607Y-2.29
X3.63Y-0.8954
X3.775Y-3.8542
X3.779Y-2.3533
X3.7794Y-2.5186
X3.783Y-3.25
X3.8359Y-2.4217
X3.8387Y-3.9335
X3.843Y-1.346
X3.899Y-1.754
X3.899Y-3.254
X3.931Y-1.398
X3.979Y-3.938
X4.171Y-1.234
X4.1713Y-1.6063
X4.1717Y-2.3533
X4.175Y-3.106
X4.215Y-1.546
X4.227Y-0.722
X4.227Y-2.298
X4.251Y-1.158
X4.26Y-1.2285
X4.275Y-1.71
X4.2795Y-3.1747
X4.295Y-3.266
X4.2959Y-1.6063
X4.2985Y-0.5913
X4.303Y-3.778
X4.331Y-2.294
X4.335Y-1.602
X4.335Y-1.746
X4.335Y-2.498
X4.335Y-2.578
X4.335Y-3.106
X4.335Y-3.9928
X4.339Y-1.538
X4.41Y-1.3385
X4.531Y-2.3533
X4.531Y-3.854
X4.535Y-3.034
X4.535Y-3.246
X4.5875Y-3.9223
X4.591Y-2.43
X4.651Y-3.254
X4.6512Y-1.9218
X4.731Y-3.938
X4.971Y-1.538
X4.975Y-2.286
X5.019Y-1.714
X5.0268Y-3.1734
X5.043Y-1.602
X5.075Y-3.03
X5.083Y-1.594
X5.083Y-1.754
X5.083Y-2.282
X5.083Y-2.498
X5.083Y-2.574
X5.083Y-3.106
X5.083Y-3.326
X5.087Y-1.534
X5.271Y-2.354
X5.283Y-3.254
X5.3355Y-2.4223
X5.399Y-1.754
X5.399Y-3.254
X5.443Y-3.778
X5.455Y-3.9928
X5.549Y-1.62
X5.551Y-2.354
X5.647Y-3.8533
X5.7075Y-3.9223
X5.723Y-2.294
X5.763Y-1.702
X5.763Y-4.074
X5.7719Y-3.19
X5.791Y-1.602
X5.827Y-1.522
X5.831Y-1.598
X5.831Y-1.758
X5.831Y-2.286
X5.831Y-2.494
X5.831Y-3.1053
X5.831Y-3.326
X5.835Y-2.574
X5.835Y-3.026
X6.027Y-2.3533
X6.027Y-3.25
X6.087Y-2.43
X6.151Y-1.754
X6.151Y-3.262
X6.467Y-2.286
X6.479Y-1.526
X6.519Y-1.706
X6.5234Y-3.1766
X6.543Y-1.602
X6.551Y-3.778
X6.579Y-2.578
X6.579Y-3.106
X6.579Y-3.994
X6.583Y-1.598
X6.583Y-1.758
X6.583Y-2.498
X6.587Y-1.526
X6.595Y-2.294
X6.775Y-3.2448
X6.775Y-3.8533
X6.779Y-2.3533
X6.8376Y-2.4291
X6.839Y-3.922
X6.899Y-4.074
X6.9028Y-1.9218
X6.903Y-3.258
X7.187Y-1.514
X7.271Y-3.186
X7.295Y-1.602
X7.303Y-3.778
X7.319Y-1.534
X7.331Y-3.1062
X7.331Y-3.994
X7.335Y-1.598
X7.335Y-1.754
X7.335Y-2.282
X7.335Y-2.498
X7.339Y-2.574
X7.527Y-3.854
X7.5287Y-2.3533
X7.531Y-3.246
X7.584Y-3.9255
X7.5896Y-2.4291
X7.651Y-3.254
X7.651Y-4.074
X7.6512Y-1.9218
X7.8717Y-2.3533
X7.873Y-1.6175
X7.8743Y-3.1053
X7.971Y-1.522
X7.983Y-2.29
X8.015Y-1.706
X8.027Y-3.174
X8.0439Y-1.5983
X8.055Y-3.79
X8.083Y-1.518
X8.083Y-1.594
X8.083Y-1.754
X8.083Y-2.502
X8.083Y-2.574
X8.083Y-3.1053
X8.087Y-3.994
X8.091Y-2.29
X8.275Y-3.246
X8.2767Y-2.3533
X8.279Y-3.846
X8.3348Y-3.9235
X8.339Y-2.43
X8.399Y-3.258
X8.399Y-4.074
X8.3992Y-1.9218
X8.451Y-0.822
X8.703Y-1.526
X8.767Y-2.498
X8.7722Y-3.1856
X8.791Y-1.598
X8.827Y-1.526
X8.827Y-3.766
X8.831Y-1.594
X8.831Y-2.498
X8.831Y-3.106
X8.835Y-2.286
X8.985Y-0.7396
X9.023Y-1.754
X9.027Y-2.346
X9.027Y-3.2448
X9.0277Y-3.8533
X9.0835Y-2.4223
X9.088Y-3.9255
X9.151Y-1.754
X9.151Y-4.074
X9.155Y-3.254
X9.227Y-1.57
X9.227Y-2.3175
X9.227Y-3.0775
X9.299Y-2.394
X9.423Y-2.666
X9.427Y-1.378
X9.463Y-4.074
X9.479Y-2.422
X9.5075Y-2.666
X9.515Y-1.706
X9.515Y-2.454
X9.5252Y-3.1814
X9.531Y-3.25
X9.535Y-1.602
X9.563Y-1.514
X9.579Y-1.598
X9.579Y-2.4928
X9.5828Y-3.9938
X9.583Y-3.106
X9.583Y-3.854
X9.767Y-2.3542
X9.767Y-3.77
X9.783Y-1.758
X9.783Y-3.25
X9.819Y-1.922
X9.832Y-2.4255
X9.8364Y-3.8655
X9.843Y-3.25
X9.899Y-3.254
X9.899Y-4.006
X5.486Y-2.582
X5.5051Y-2.5361
X5.5051Y-2.6279
X5.551Y-2.517
X5.551Y-2.647
X5.5969Y-2.5361
X5.5969Y-2.6279
X5.616Y-2.582
X1.8627Y-0.713
X1.8629Y-0.7652
X1.8961Y-0.713
X1.8963Y-0.7652
X1.9296Y-0.713
X1.9298Y-0.7652
X1.9631Y-0.713
X1.9633Y-0.7652
X1.9965Y-0.713
X1.9967Y-0.7652
X2.03Y-0.713
X2.0302Y-0.7652
X2.0635Y-0.713
X2.0637Y-0.7652
X2.0971Y-0.713
X2.0971Y-0.7652
T3
X9.2231Y-0.585
X9.2231Y-1.1559
X9.3216Y-0.585
X9.42Y-0.585
X9.42Y-1.1559
T5
X5.551Y-2.582
T6
X9.1011Y-0.8803
X9.542Y-0.8803
T2
G00X1.8097Y-0.6093
M15
G01X1.8097Y-0.5778
M16
G05
G00X1.8097Y-0.7561
M15
G01X1.8097Y-0.697
M16
G05
G00X2.1503Y-0.6093
M15
G01X2.1503Y-0.5778
M16
G05
G00X2.1503Y-0.7561
M15
G01X2.1503Y-0.697
M16
G05
T4
G00X4.3206Y-1.2791
M15
G01X4.2731Y-1.3538
M16
G05
G00X4.525Y-1.255
M15
G01X4.5234Y-1.2778
M16
G05
G00X8.8206Y-1.2791
M15
G01X8.7731Y-1.3538
M16
G05
G00X9.025Y-1.255
M15
G01X9.0234Y-1.2778
M16
G05
G00X4.3206Y-3.5291
M15
G01X4.2731Y-3.6038
M16
G05
G00X4.525Y-3.505
M15
G01X4.5234Y-3.5278
M16
G05
G00X5.8206Y-1.2791
M15
G01X5.7731Y-1.3538
M16
G05
G00X6.025Y-1.255
M15
G01X6.0234Y-1.2778
M16
G05
G00X2.8206Y-1.2791
M15
G01X2.7731Y-1.3538
M16
G05
G00X3.025Y-1.255
M15
G01X3.0234Y-1.2778
M16
G05
G00X6.5706Y-2.7791
M15
G01X6.5231Y-2.8538
M16
G05
G00X6.775Y-2.755
M15
G01X6.7734Y-2.7778
M16
G05
G00X9.5706Y-2.7791
M15
G01X9.5231Y-2.8538
M16
G05
G00X9.775Y-2.755
M15
G01X9.7734Y-2.7778
M16
G05
G00X5.0706Y-2.0291
M15
G01X5.0231Y-2.1038
M16
G05
G00X5.275Y-2.005
M15
G01X5.2734Y-2.0278
M16
G05
G00X5.8206Y-2.0291
M15
G01X5.7731Y-2.1038
M16
G05
G00X6.025Y-2.005
M15
G01X6.0234Y-2.0278
M16
G05
G00X2.0706Y-3.5291
M15
G01X2.0231Y-3.6038
M16
G05
G00X2.275Y-3.505
M15
G01X2.2734Y-3.5278
M16
G05
G00X8.0706Y-1.2791
M15
G01X8.0231Y-1.3538
M16
G05
G00X8.275Y-1.255
M15
G01X8.2734Y-1.2778
M16
G05
G00X1.3206Y-1.2791
M15
G01X1.2731Y-1.3538
M16
G05
G00X1.525Y-1.255
M15
G01X1.5234Y-1.2778
M16
G05
G00X3.5706Y-2.7791
M15
G01X3.5231Y-2.8538
M16
G05
G00X3.775Y-2.755
M15
G01X3.7734Y-2.7778
M16
G05
G00X7.3206Y-1.2791
M15
G01X7.2731Y-1.3538
M16
G05
G00X7.525Y-1.255
M15
G01X7.5234Y-1.2778
M16
G05
G00X5.0706Y-2.7791
M15
G01X5.0231Y-2.8538
M16
G05
G00X5.275Y-2.755
M15
G01X5.2734Y-2.7778
M16
G05
G00X4.3206Y-2.7791
M15
G01X4.2731Y-2.8538
M16
G05
G00X4.525Y-2.755
M15
G01X4.5234Y-2.7778
M16
G05
G00X5.0706Y-1.2791
M15
G01X5.0231Y-1.3538
M16
G05
G00X5.275Y-1.255
M15
G01X5.2734Y-1.2778
M16
G05
G00X9.5706Y-3.5291
M15
G01X9.5231Y-3.6038
M16
G05
G00X9.775Y-3.505
M15
G01X9.7734Y-3.5278
M16
G05
G00X6.5706Y-1.2791
M15
G01X6.5231Y-1.3538
M16
G05
G00X6.775Y-1.255
M15
G01X6.7734Y-1.2778
M16
G05
G00X2.8206Y-2.0291
M15
G01X2.7731Y-2.1038
M16
G05
G00X3.025Y-2.005
M15
G01X3.0234Y-2.0278
M16
G05
G00X7.3206Y-2.7791
M15
G01X7.2731Y-2.8538
M16
G05
G00X7.525Y-2.755
M15
G01X7.5234Y-2.7778
M16
G05
G00X9.5706Y-2.0291
M15
G01X9.5231Y-2.1038
M16
G05
G00X9.775Y-2.005
M15
G01X9.7734Y-2.0278
M16
G05
G00X1.3206Y-2.7791
M15
G01X1.2731Y-2.8538
M16
G05
G00X1.525Y-2.755
M15
G01X1.5234Y-2.7778
M16
G05
G00X8.8206Y-2.0291
M15
G01X8.7731Y-2.1038
M16
G05
G00X9.025Y-2.005
M15
G01X9.0234Y-2.0278
M16
G05
G00X4.3206Y-2.0291
M15
G01X4.2731Y-2.1038
M16
G05
G00X4.525Y-2.005
M15
G01X4.5234Y-2.0278
M16
G05
G00X7.3206Y-2.0291
M15
G01X7.2731Y-2.1038
M16
G05
G00X7.525Y-2.005
M15
G01X7.5234Y-2.0278
M16
G05
G00X2.0706Y-2.0291
M15
G01X2.0231Y-2.1038
M16
G05
G00X2.275Y-2.005
M15
G01X2.2734Y-2.0278
M16
G05
G00X7.3206Y-3.5291
M15
G01X7.2731Y-3.6038
M16
G05
G00X7.525Y-3.505
M15
G01X7.5234Y-3.5278
M16
G05
G00X2.8206Y-2.7791
M15
G01X2.7731Y-2.8538
M16
G05
G00X3.025Y-2.755
M15
G01X3.0234Y-2.7778
M16
G05
G00X8.0706Y-2.0291
M15
G01X8.0231Y-2.1038
M16
G05
G00X8.275Y-2.005
M15
G01X8.2734Y-2.0278
M16
G05
G00X3.5706Y-3.5291
M15
G01X3.5231Y-3.6038
M16
G05
G00X3.775Y-3.505
M15
G01X3.7734Y-3.5278
M16
G05
G00X8.0706Y-3.5291
M15
G01X8.0231Y-3.6038
M16
G05
G00X8.275Y-3.505
M15
G01X8.2734Y-3.5278
M16
G05
G00X2.0706Y-1.2791
M15
G01X2.0231Y-1.3538
M16
G05
G00X2.275Y-1.255
M15
G01X2.2734Y-1.2778
M16
G05
G00X5.4456Y-3.5291
M15
G01X5.3981Y-3.6038
M16
G05
G00X5.65Y-3.505
M15
G01X5.6484Y-3.5278
M16
G05
G00X3.5706Y-1.2791
M15
G01X3.5231Y-1.3538
M16
G05
G00X3.775Y-1.255
M15
G01X3.7734Y-1.2778
M16
G05
G00X6.5706Y-2.0291
M15
G01X6.5231Y-2.1038
M16
G05
G00X6.775Y-2.005
M15
G01X6.7734Y-2.0278
M16
G05
G00X9.5706Y-1.2791
M15
G01X9.5231Y-1.3538
M16
G05
G00X9.775Y-1.255
M15
G01X9.7734Y-1.2778
M16
G05
G00X2.8206Y-3.5291
M15
G01X2.7731Y-3.6038
M16
G05
G00X3.025Y-3.505
M15
G01X3.0234Y-3.5278
M16
G05
G00X8.8206Y-3.5291
M15
G01X8.7731Y-3.6038
M16
G05
G00X9.025Y-3.505
M15
G01X9.0234Y-3.5278
M16
G05
G00X8.8206Y-2.7791
M15
G01X8.7731Y-2.8538
M16
G05
G00X9.025Y-2.755
M15
G01X9.0234Y-2.7778
M16
G05
G00X1.3206Y-3.5291
M15
G01X1.2731Y-3.6038
M16
G05
G00X1.525Y-3.505
M15
G01X1.5234Y-3.5278
M16
G05
G00X6.5706Y-3.5291
M15
G01X6.5231Y-3.6038
M16
G05
G00X6.775Y-3.505
M15
G01X6.7734Y-3.5278
M16
G05
G00X2.0706Y-2.7791
M15
G01X2.0231Y-2.8538
M16
G05
G00X2.275Y-2.755
M15
G01X2.2734Y-2.7778
M16
G05
G00X5.8206Y-2.7791
M15
G01X5.7731Y-2.8538
M16
G05
G00X6.025Y-2.755
M15
G01X6.0234Y-2.7778
M16
G05
G00X1.3206Y-2.0291
M15
G01X1.2731Y-2.1038
M16
G05
G00X1.525Y-2.005
M15
G01X1.5234Y-2.0278
M16
G05
G00X3.5706Y-2.0291
M15
G01X3.5231Y-2.1038
M16
G05
G00X3.775Y-2.005
M15
G01X3.7734Y-2.0278
M16
G05
G00X8.0706Y-2.7791
M15
G01X8.0231Y-2.8538
M16
G05
G00X8.275Y-2.755
M15
G01X8.2734Y-2.7778
M16
G05
T0
M30
