M48
; DRILL file {KiCad (5.1.0)-1} date 10/10/2020 2:24:43 PM
; FORMAT={-:-/ absolute / inch / decimal}
; #@! TF.CreationDate,2020-10-10T14:24:43-04:00
; #@! TF.GenerationSoftware,Kicad,Pcbnew,(5.1.0)-1
; #@! TF.FileFunction,NonPlated,1,2,NPTH
FMAT,2
INCH
T1C0.0670
T2C0.0866
T3C0.1200
T4C0.1570
%
G90
G05
T1
X9.475Y-2.955
X9.875Y-2.955
X4.975Y-2.205
X5.375Y-2.205
X5.725Y-2.205
X6.125Y-2.205
X1.975Y-3.705
X2.375Y-3.705
X7.975Y-1.455
X8.375Y-1.455
X1.225Y-1.455
X1.625Y-1.455
X3.475Y-2.955
X3.875Y-2.955
X7.225Y-1.455
X7.625Y-1.455
X4.975Y-2.955
X5.375Y-2.955
X4.225Y-2.955
X4.625Y-2.955
X4.975Y-1.455
X5.375Y-1.455
X9.475Y-3.705
X9.875Y-3.705
X6.475Y-1.455
X6.875Y-1.455
X2.725Y-2.205
X3.125Y-2.205
X7.225Y-2.955
X7.625Y-2.955
X9.475Y-2.205
X9.875Y-2.205
X1.225Y-2.955
X1.625Y-2.955
X8.725Y-2.205
X9.125Y-2.205
X4.225Y-2.205
X4.625Y-2.205
X7.225Y-2.205
X7.625Y-2.205
X1.975Y-2.205
X2.375Y-2.205
X7.225Y-3.705
X7.625Y-3.705
X2.725Y-2.955
X3.125Y-2.955
X7.975Y-2.205
X8.375Y-2.205
X3.475Y-3.705
X3.875Y-3.705
X7.975Y-3.705
X8.375Y-3.705
X1.975Y-1.455
X2.375Y-1.455
X5.35Y-3.705
X5.75Y-3.705
X3.475Y-1.455
X3.875Y-1.455
X6.475Y-2.205
X6.875Y-2.205
X9.475Y-1.455
X9.875Y-1.455
X2.725Y-3.705
X3.125Y-3.705
X8.725Y-3.705
X9.125Y-3.705
X8.725Y-2.955
X9.125Y-2.955
X1.225Y-3.705
X1.625Y-3.705
X6.475Y-3.705
X6.875Y-3.705
X1.975Y-2.955
X2.375Y-2.955
X5.725Y-2.955
X6.125Y-2.955
X1.225Y-2.205
X1.625Y-2.205
X3.475Y-2.205
X3.875Y-2.205
X7.975Y-2.955
X8.375Y-2.955
X4.225Y-1.455
X4.625Y-1.455
X8.725Y-1.455
X9.125Y-1.455
X4.225Y-3.705
X4.625Y-3.705
X5.725Y-1.455
X6.125Y-1.455
X2.725Y-1.455
X3.125Y-1.455
X6.475Y-2.955
X6.875Y-2.955
T2
X3.295Y-1.825
X3.3Y-3.33
X7.8Y-3.33
X9.305Y-2.575
X1.799Y-2.578
X7.8Y-1.83
T3
X5.08Y-3.43
X6.02Y-3.43
T4
X7.425Y-2.205
X2.175Y-2.205
X7.425Y-3.705
X2.925Y-2.955
X8.175Y-2.205
X3.675Y-3.705
X8.175Y-3.705
X2.175Y-1.455
X5.08Y-4.03
X5.55Y-3.705
X6.02Y-4.03
X3.675Y-1.455
X6.675Y-2.205
X9.675Y-1.455
X2.925Y-3.705
X8.925Y-3.705
X8.925Y-2.955
X1.425Y-3.705
X6.675Y-3.705
X2.175Y-2.955
X5.925Y-2.955
X1.425Y-2.205
X3.675Y-2.205
X8.175Y-2.955
X4.425Y-1.455
X8.925Y-1.455
X4.425Y-3.705
X5.925Y-1.455
X2.925Y-1.455
X6.675Y-2.955
X9.675Y-2.955
X5.175Y-2.205
X5.925Y-2.205
X2.175Y-3.705
X8.175Y-1.455
X1.425Y-1.455
X3.675Y-2.955
X7.425Y-1.455
X5.175Y-2.955
X4.425Y-2.955
X5.175Y-1.455
X9.675Y-3.705
X6.675Y-1.455
X2.925Y-2.205
X7.425Y-2.955
X9.675Y-2.205
X1.425Y-2.955
X8.925Y-2.205
X4.425Y-2.205
T0
M30
