G04 #@! TF.GenerationSoftware,KiCad,Pcbnew,(5.1.0)-1*
G04 #@! TF.CreationDate,2020-10-10T14:24:37-04:00*
G04 #@! TF.ProjectId,rev1.0,72657631-2e30-42e6-9b69-6361645f7063,rev?*
G04 #@! TF.SameCoordinates,Original*
G04 #@! TF.FileFunction,Profile,NP*
%FSLAX46Y46*%
G04 Gerber Fmt 4.6, Leading zero omitted, Abs format (unit mm)*
G04 Created by KiCad (PCBNEW (5.1.0)-1) date 2020-10-10 14:24:37*
%MOMM*%
%LPD*%
G04 APERTURE LIST*
%ADD10C,0.050000*%
%ADD11C,0.120000*%
G04 APERTURE END LIST*
D10*
X53721000Y-13335000D02*
X254508000Y-13335000D01*
X27432000Y-13335000D02*
X46863000Y-13335000D01*
X26289000Y-104775000D02*
X26289000Y-14478000D01*
X254508000Y-105918000D02*
X27432000Y-105918000D01*
X255651000Y-14478000D02*
X255651000Y-104775000D01*
X27432000Y-105918000D02*
G75*
G02X26289000Y-104775000I0J1143000D01*
G01*
X255651000Y-104775000D02*
G75*
G02X254508000Y-105918000I-1143000J0D01*
G01*
X254508000Y-13335000D02*
G75*
G02X255651000Y-14478000I0J-1143000D01*
G01*
X26289000Y-14478000D02*
G75*
G02X27432000Y-13335000I1143000J0D01*
G01*
X46863000Y-16764000D02*
X46863000Y-13335000D01*
X53721000Y-16764000D02*
X46863000Y-16764000D01*
X53721000Y-13335000D02*
X53721000Y-16764000D01*
D11*
X34809000Y-41869600D02*
X38009000Y-41869600D01*
X38009000Y-41869600D02*
X38009000Y-44669600D01*
X38009000Y-44669600D02*
X34809000Y-44669600D01*
X34809000Y-41869600D02*
X34809000Y-44669600D01*
X53808200Y-41158400D02*
X57008200Y-41158400D01*
X57008200Y-41158400D02*
X57008200Y-43958400D01*
X57008200Y-43958400D02*
X53808200Y-43958400D01*
X53808200Y-41158400D02*
X53808200Y-43958400D01*
X73010600Y-41158400D02*
X73010600Y-43958400D01*
X76210600Y-43958400D02*
X73010600Y-43958400D01*
X76210600Y-41158400D02*
X76210600Y-43958400D01*
X73010600Y-41158400D02*
X76210600Y-41158400D01*
X225309000Y-98257600D02*
X228509000Y-98257600D01*
X228509000Y-98257600D02*
X228509000Y-101057600D01*
X228509000Y-101057600D02*
X225309000Y-101057600D01*
X225309000Y-98257600D02*
X225309000Y-101057600D01*
X91908200Y-41158400D02*
X91908200Y-43958400D01*
X95108200Y-43958400D02*
X91908200Y-43958400D01*
X95108200Y-41158400D02*
X95108200Y-43958400D01*
X91908200Y-41158400D02*
X95108200Y-41158400D01*
X111009000Y-41158400D02*
X114209000Y-41158400D01*
X114209000Y-41158400D02*
X114209000Y-43958400D01*
X114209000Y-43958400D02*
X111009000Y-43958400D01*
X111009000Y-41158400D02*
X111009000Y-43958400D01*
X130008200Y-41158400D02*
X130008200Y-43958400D01*
X133208200Y-43958400D02*
X130008200Y-43958400D01*
X133208200Y-41158400D02*
X133208200Y-43958400D01*
X130008200Y-41158400D02*
X133208200Y-41158400D01*
X149007400Y-41158400D02*
X152207400Y-41158400D01*
X152207400Y-41158400D02*
X152207400Y-43958400D01*
X152207400Y-43958400D02*
X149007400Y-43958400D01*
X149007400Y-41158400D02*
X149007400Y-43958400D01*
X168108200Y-41158400D02*
X168108200Y-43958400D01*
X171308200Y-43958400D02*
X168108200Y-43958400D01*
X171308200Y-41158400D02*
X171308200Y-43958400D01*
X168108200Y-41158400D02*
X171308200Y-41158400D01*
X187209000Y-41158400D02*
X190409000Y-41158400D01*
X190409000Y-41158400D02*
X190409000Y-43958400D01*
X190409000Y-43958400D02*
X187209000Y-43958400D01*
X187209000Y-41158400D02*
X187209000Y-43958400D01*
X206208200Y-41158400D02*
X206208200Y-43958400D01*
X209408200Y-43958400D02*
X206208200Y-43958400D01*
X209408200Y-41158400D02*
X209408200Y-43958400D01*
X206208200Y-41158400D02*
X209408200Y-41158400D01*
X225207400Y-41158400D02*
X228407400Y-41158400D01*
X228407400Y-41158400D02*
X228407400Y-43958400D01*
X228407400Y-43958400D02*
X225207400Y-43958400D01*
X225207400Y-41158400D02*
X225207400Y-43958400D01*
X244206600Y-41158400D02*
X247406600Y-41158400D01*
X247406600Y-41158400D02*
X247406600Y-43958400D01*
X247406600Y-43958400D02*
X244206600Y-43958400D01*
X244206600Y-41158400D02*
X244206600Y-43958400D01*
X34707400Y-60181600D02*
X34707400Y-62981600D01*
X37907400Y-62981600D02*
X34707400Y-62981600D01*
X37907400Y-60181600D02*
X37907400Y-62981600D01*
X34707400Y-60181600D02*
X37907400Y-60181600D01*
X53808200Y-60157600D02*
X57008200Y-60157600D01*
X57008200Y-60157600D02*
X57008200Y-62957600D01*
X57008200Y-62957600D02*
X53808200Y-62957600D01*
X53808200Y-60157600D02*
X53808200Y-62957600D01*
X73010600Y-60157600D02*
X76210600Y-60157600D01*
X76210600Y-60157600D02*
X76210600Y-62957600D01*
X76210600Y-62957600D02*
X73010600Y-62957600D01*
X73010600Y-60157600D02*
X73010600Y-62957600D01*
X91908200Y-60157600D02*
X91908200Y-62957600D01*
X95108200Y-62957600D02*
X91908200Y-62957600D01*
X95108200Y-60157600D02*
X95108200Y-62957600D01*
X91908200Y-60157600D02*
X95108200Y-60157600D01*
X111009000Y-60157600D02*
X111009000Y-62957600D01*
X114209000Y-62957600D02*
X111009000Y-62957600D01*
X114209000Y-60157600D02*
X114209000Y-62957600D01*
X111009000Y-60157600D02*
X114209000Y-60157600D01*
X130008200Y-60157600D02*
X133208200Y-60157600D01*
X133208200Y-60157600D02*
X133208200Y-62957600D01*
X133208200Y-62957600D02*
X130008200Y-62957600D01*
X130008200Y-60157600D02*
X130008200Y-62957600D01*
X149007400Y-60157600D02*
X149007400Y-62957600D01*
X152207400Y-62957600D02*
X149007400Y-62957600D01*
X152207400Y-60157600D02*
X152207400Y-62957600D01*
X149007400Y-60157600D02*
X152207400Y-60157600D01*
X168108200Y-60157600D02*
X171308200Y-60157600D01*
X171308200Y-60157600D02*
X171308200Y-62957600D01*
X171308200Y-62957600D02*
X168108200Y-62957600D01*
X168108200Y-60157600D02*
X168108200Y-62957600D01*
X187209000Y-60157600D02*
X187209000Y-62957600D01*
X190409000Y-62957600D02*
X187209000Y-62957600D01*
X190409000Y-60157600D02*
X190409000Y-62957600D01*
X187209000Y-60157600D02*
X190409000Y-60157600D01*
X206208200Y-60157600D02*
X209408200Y-60157600D01*
X209408200Y-60157600D02*
X209408200Y-62957600D01*
X209408200Y-62957600D02*
X206208200Y-62957600D01*
X206208200Y-60157600D02*
X206208200Y-62957600D01*
X225207400Y-60157600D02*
X225207400Y-62957600D01*
X228407400Y-62957600D02*
X225207400Y-62957600D01*
X228407400Y-60157600D02*
X228407400Y-62957600D01*
X225207400Y-60157600D02*
X228407400Y-60157600D01*
X244206600Y-60157600D02*
X244206600Y-62957600D01*
X247406600Y-62957600D02*
X244206600Y-62957600D01*
X247406600Y-60157600D02*
X247406600Y-62957600D01*
X244206600Y-60157600D02*
X247406600Y-60157600D01*
X34809000Y-79258400D02*
X38009000Y-79258400D01*
X38009000Y-79258400D02*
X38009000Y-82058400D01*
X38009000Y-82058400D02*
X34809000Y-82058400D01*
X34809000Y-79258400D02*
X34809000Y-82058400D01*
X53808200Y-79258400D02*
X53808200Y-82058400D01*
X57008200Y-82058400D02*
X53808200Y-82058400D01*
X57008200Y-79258400D02*
X57008200Y-82058400D01*
X53808200Y-79258400D02*
X57008200Y-79258400D01*
X72909000Y-79258400D02*
X72909000Y-82058400D01*
X76109000Y-82058400D02*
X72909000Y-82058400D01*
X76109000Y-79258400D02*
X76109000Y-82058400D01*
X72909000Y-79258400D02*
X76109000Y-79258400D01*
X91908200Y-79258400D02*
X95108200Y-79258400D01*
X95108200Y-79258400D02*
X95108200Y-82058400D01*
X95108200Y-82058400D02*
X91908200Y-82058400D01*
X91908200Y-79258400D02*
X91908200Y-82058400D01*
X111009000Y-79258400D02*
X111009000Y-82058400D01*
X114209000Y-82058400D02*
X111009000Y-82058400D01*
X114209000Y-79258400D02*
X114209000Y-82058400D01*
X111009000Y-79258400D02*
X114209000Y-79258400D01*
X130008200Y-79258400D02*
X130008200Y-82058400D01*
X133208200Y-82058400D02*
X130008200Y-82058400D01*
X133208200Y-79258400D02*
X133208200Y-82058400D01*
X130008200Y-79258400D02*
X133208200Y-79258400D01*
X149007400Y-79258400D02*
X149007400Y-82058400D01*
X152207400Y-82058400D02*
X149007400Y-82058400D01*
X152207400Y-79258400D02*
X152207400Y-82058400D01*
X149007400Y-79258400D02*
X152207400Y-79258400D01*
X168006600Y-79258400D02*
X171206600Y-79258400D01*
X171206600Y-79258400D02*
X171206600Y-82058400D01*
X171206600Y-82058400D02*
X168006600Y-82058400D01*
X168006600Y-79258400D02*
X168006600Y-82058400D01*
X187107400Y-79258400D02*
X187107400Y-82058400D01*
X190307400Y-82058400D02*
X187107400Y-82058400D01*
X190307400Y-79258400D02*
X190307400Y-82058400D01*
X187107400Y-79258400D02*
X190307400Y-79258400D01*
X206208200Y-79258400D02*
X209408200Y-79258400D01*
X209408200Y-79258400D02*
X209408200Y-82058400D01*
X209408200Y-82058400D02*
X206208200Y-82058400D01*
X206208200Y-79258400D02*
X206208200Y-82058400D01*
X225207400Y-79258400D02*
X228407400Y-79258400D01*
X228407400Y-79258400D02*
X228407400Y-82058400D01*
X228407400Y-82058400D02*
X225207400Y-82058400D01*
X225207400Y-79258400D02*
X225207400Y-82058400D01*
X244308200Y-79258400D02*
X244308200Y-82058400D01*
X247508200Y-82058400D02*
X244308200Y-82058400D01*
X247508200Y-79258400D02*
X247508200Y-82058400D01*
X244308200Y-79258400D02*
X247508200Y-79258400D01*
X34605800Y-98257600D02*
X37805800Y-98257600D01*
X37805800Y-98257600D02*
X37805800Y-101057600D01*
X37805800Y-101057600D02*
X34605800Y-101057600D01*
X34605800Y-98257600D02*
X34605800Y-101057600D01*
X53808200Y-98257600D02*
X53808200Y-101057600D01*
X57008200Y-101057600D02*
X53808200Y-101057600D01*
X57008200Y-98257600D02*
X57008200Y-101057600D01*
X53808200Y-98257600D02*
X57008200Y-98257600D01*
X72909000Y-98257600D02*
X76109000Y-98257600D01*
X76109000Y-98257600D02*
X76109000Y-101057600D01*
X76109000Y-101057600D02*
X72909000Y-101057600D01*
X72909000Y-98257600D02*
X72909000Y-101057600D01*
X91908200Y-98257600D02*
X91908200Y-101057600D01*
X95108200Y-101057600D02*
X91908200Y-101057600D01*
X95108200Y-98257600D02*
X95108200Y-101057600D01*
X91908200Y-98257600D02*
X95108200Y-98257600D01*
X111009000Y-98257600D02*
X111009000Y-101057600D01*
X114209000Y-101057600D02*
X111009000Y-101057600D01*
X114209000Y-98257600D02*
X114209000Y-101057600D01*
X111009000Y-98257600D02*
X114209000Y-98257600D01*
X139457000Y-98257600D02*
X142657000Y-98257600D01*
X142657000Y-98257600D02*
X142657000Y-101057600D01*
X142657000Y-101057600D02*
X139457000Y-101057600D01*
X139457000Y-98257600D02*
X139457000Y-101057600D01*
X168006600Y-98257600D02*
X171206600Y-98257600D01*
X171206600Y-98257600D02*
X171206600Y-101057600D01*
X171206600Y-101057600D02*
X168006600Y-101057600D01*
X168006600Y-98257600D02*
X168006600Y-101057600D01*
X187107400Y-98257600D02*
X190307400Y-98257600D01*
X190307400Y-98257600D02*
X190307400Y-101057600D01*
X190307400Y-101057600D02*
X187107400Y-101057600D01*
X187107400Y-98257600D02*
X187107400Y-101057600D01*
X206208200Y-98257600D02*
X206208200Y-101057600D01*
X209408200Y-101057600D02*
X206208200Y-101057600D01*
X209408200Y-98257600D02*
X209408200Y-101057600D01*
X206208200Y-98257600D02*
X209408200Y-98257600D01*
X244308200Y-98257600D02*
X244308200Y-101057600D01*
X247508200Y-101057600D02*
X244308200Y-101057600D01*
X247508200Y-98257600D02*
X247508200Y-101057600D01*
X244308200Y-98257600D02*
X247508200Y-98257600D01*
M02*
