G04 #@! TF.GenerationSoftware,KiCad,Pcbnew,(5.1.0)-1*
G04 #@! TF.CreationDate,2020-08-28T00:10:40-04:00*
G04 #@! TF.ProjectId,keyboard,6b657962-6f61-4726-942e-6b696361645f,rev?*
G04 #@! TF.SameCoordinates,Original*
G04 #@! TF.FileFunction,Legend,Top*
G04 #@! TF.FilePolarity,Positive*
%FSLAX46Y46*%
G04 Gerber Fmt 4.6, Leading zero omitted, Abs format (unit mm)*
G04 Created by KiCad (PCBNEW (5.1.0)-1) date 2020-08-28 00:10:40*
%MOMM*%
%LPD*%
G04 APERTURE LIST*
%ADD10C,0.150000*%
%ADD11C,0.381000*%
%ADD12C,0.120000*%
G04 APERTURE END LIST*
D10*
X226081250Y-30956250D02*
X216831250Y-30956250D01*
X225931250Y-37616250D02*
X216981250Y-37616250D01*
X216976250Y-29206250D02*
X216981250Y-28446250D01*
X225931250Y-28446250D02*
X216981250Y-28446250D01*
X225931250Y-28446250D02*
X225936250Y-29206250D01*
X221456250Y-30956250D02*
X221456250Y-32226250D01*
D11*
X22225000Y-54959250D02*
X22225000Y-53181250D01*
X22225000Y-65881250D02*
X22225000Y-64103250D01*
X24003000Y-65881250D02*
X22225000Y-65881250D01*
X34925000Y-65881250D02*
X33147000Y-65881250D01*
X34925000Y-64103250D02*
X34925000Y-65881250D01*
X34925000Y-53181250D02*
X34925000Y-54959250D01*
X33147000Y-53181250D02*
X34925000Y-53181250D01*
X22225000Y-53181250D02*
X24003000Y-53181250D01*
X41275000Y-53181250D02*
X43053000Y-53181250D01*
X52197000Y-53181250D02*
X53975000Y-53181250D01*
X53975000Y-53181250D02*
X53975000Y-54959250D01*
X53975000Y-64103250D02*
X53975000Y-65881250D01*
X53975000Y-65881250D02*
X52197000Y-65881250D01*
X43053000Y-65881250D02*
X41275000Y-65881250D01*
X41275000Y-65881250D02*
X41275000Y-64103250D01*
X41275000Y-54959250D02*
X41275000Y-53181250D01*
X60325000Y-54959250D02*
X60325000Y-53181250D01*
X60325000Y-65881250D02*
X60325000Y-64103250D01*
X62103000Y-65881250D02*
X60325000Y-65881250D01*
X73025000Y-65881250D02*
X71247000Y-65881250D01*
X73025000Y-64103250D02*
X73025000Y-65881250D01*
X73025000Y-53181250D02*
X73025000Y-54959250D01*
X71247000Y-53181250D02*
X73025000Y-53181250D01*
X60325000Y-53181250D02*
X62103000Y-53181250D01*
X79375000Y-53181250D02*
X81153000Y-53181250D01*
X90297000Y-53181250D02*
X92075000Y-53181250D01*
X92075000Y-53181250D02*
X92075000Y-54959250D01*
X92075000Y-64103250D02*
X92075000Y-65881250D01*
X92075000Y-65881250D02*
X90297000Y-65881250D01*
X81153000Y-65881250D02*
X79375000Y-65881250D01*
X79375000Y-65881250D02*
X79375000Y-64103250D01*
X79375000Y-54959250D02*
X79375000Y-53181250D01*
X98425000Y-54959250D02*
X98425000Y-53181250D01*
X98425000Y-65881250D02*
X98425000Y-64103250D01*
X100203000Y-65881250D02*
X98425000Y-65881250D01*
X111125000Y-65881250D02*
X109347000Y-65881250D01*
X111125000Y-64103250D02*
X111125000Y-65881250D01*
X111125000Y-53181250D02*
X111125000Y-54959250D01*
X109347000Y-53181250D02*
X111125000Y-53181250D01*
X98425000Y-53181250D02*
X100203000Y-53181250D01*
X117475000Y-53181250D02*
X119253000Y-53181250D01*
X128397000Y-53181250D02*
X130175000Y-53181250D01*
X130175000Y-53181250D02*
X130175000Y-54959250D01*
X130175000Y-64103250D02*
X130175000Y-65881250D01*
X130175000Y-65881250D02*
X128397000Y-65881250D01*
X119253000Y-65881250D02*
X117475000Y-65881250D01*
X117475000Y-65881250D02*
X117475000Y-64103250D01*
X117475000Y-54959250D02*
X117475000Y-53181250D01*
X136525000Y-54959250D02*
X136525000Y-53181250D01*
X136525000Y-65881250D02*
X136525000Y-64103250D01*
X138303000Y-65881250D02*
X136525000Y-65881250D01*
X149225000Y-65881250D02*
X147447000Y-65881250D01*
X149225000Y-64103250D02*
X149225000Y-65881250D01*
X149225000Y-53181250D02*
X149225000Y-54959250D01*
X147447000Y-53181250D02*
X149225000Y-53181250D01*
X136525000Y-53181250D02*
X138303000Y-53181250D01*
X155575000Y-53181250D02*
X157353000Y-53181250D01*
X166497000Y-53181250D02*
X168275000Y-53181250D01*
X168275000Y-53181250D02*
X168275000Y-54959250D01*
X168275000Y-64103250D02*
X168275000Y-65881250D01*
X168275000Y-65881250D02*
X166497000Y-65881250D01*
X157353000Y-65881250D02*
X155575000Y-65881250D01*
X155575000Y-65881250D02*
X155575000Y-64103250D01*
X155575000Y-54959250D02*
X155575000Y-53181250D01*
X174625000Y-54959250D02*
X174625000Y-53181250D01*
X174625000Y-65881250D02*
X174625000Y-64103250D01*
X176403000Y-65881250D02*
X174625000Y-65881250D01*
X187325000Y-65881250D02*
X185547000Y-65881250D01*
X187325000Y-64103250D02*
X187325000Y-65881250D01*
X187325000Y-53181250D02*
X187325000Y-54959250D01*
X185547000Y-53181250D02*
X187325000Y-53181250D01*
X174625000Y-53181250D02*
X176403000Y-53181250D01*
X193675000Y-53181250D02*
X195453000Y-53181250D01*
X204597000Y-53181250D02*
X206375000Y-53181250D01*
X206375000Y-53181250D02*
X206375000Y-54959250D01*
X206375000Y-64103250D02*
X206375000Y-65881250D01*
X206375000Y-65881250D02*
X204597000Y-65881250D01*
X195453000Y-65881250D02*
X193675000Y-65881250D01*
X193675000Y-65881250D02*
X193675000Y-64103250D01*
X193675000Y-54959250D02*
X193675000Y-53181250D01*
X212725000Y-54959250D02*
X212725000Y-53181250D01*
X212725000Y-65881250D02*
X212725000Y-64103250D01*
X214503000Y-65881250D02*
X212725000Y-65881250D01*
X225425000Y-65881250D02*
X223647000Y-65881250D01*
X225425000Y-64103250D02*
X225425000Y-65881250D01*
X225425000Y-53181250D02*
X225425000Y-54959250D01*
X223647000Y-53181250D02*
X225425000Y-53181250D01*
X212725000Y-53181250D02*
X214503000Y-53181250D01*
X231775000Y-53181250D02*
X233553000Y-53181250D01*
X242697000Y-53181250D02*
X244475000Y-53181250D01*
X244475000Y-53181250D02*
X244475000Y-54959250D01*
X244475000Y-64103250D02*
X244475000Y-65881250D01*
X244475000Y-65881250D02*
X242697000Y-65881250D01*
X233553000Y-65881250D02*
X231775000Y-65881250D01*
X231775000Y-65881250D02*
X231775000Y-64103250D01*
X231775000Y-54959250D02*
X231775000Y-53181250D01*
X22225000Y-72231250D02*
X24003000Y-72231250D01*
X33147000Y-72231250D02*
X34925000Y-72231250D01*
X34925000Y-72231250D02*
X34925000Y-74009250D01*
X34925000Y-83153250D02*
X34925000Y-84931250D01*
X34925000Y-84931250D02*
X33147000Y-84931250D01*
X24003000Y-84931250D02*
X22225000Y-84931250D01*
X22225000Y-84931250D02*
X22225000Y-83153250D01*
X22225000Y-74009250D02*
X22225000Y-72231250D01*
X60325000Y-74009250D02*
X60325000Y-72231250D01*
X60325000Y-84931250D02*
X60325000Y-83153250D01*
X62103000Y-84931250D02*
X60325000Y-84931250D01*
X73025000Y-84931250D02*
X71247000Y-84931250D01*
X73025000Y-83153250D02*
X73025000Y-84931250D01*
X73025000Y-72231250D02*
X73025000Y-74009250D01*
X71247000Y-72231250D02*
X73025000Y-72231250D01*
X60325000Y-72231250D02*
X62103000Y-72231250D01*
X79375000Y-72231250D02*
X81153000Y-72231250D01*
X90297000Y-72231250D02*
X92075000Y-72231250D01*
X92075000Y-72231250D02*
X92075000Y-74009250D01*
X92075000Y-83153250D02*
X92075000Y-84931250D01*
X92075000Y-84931250D02*
X90297000Y-84931250D01*
X81153000Y-84931250D02*
X79375000Y-84931250D01*
X79375000Y-84931250D02*
X79375000Y-83153250D01*
X79375000Y-74009250D02*
X79375000Y-72231250D01*
X98425000Y-74009250D02*
X98425000Y-72231250D01*
X98425000Y-84931250D02*
X98425000Y-83153250D01*
X100203000Y-84931250D02*
X98425000Y-84931250D01*
X111125000Y-84931250D02*
X109347000Y-84931250D01*
X111125000Y-83153250D02*
X111125000Y-84931250D01*
X111125000Y-72231250D02*
X111125000Y-74009250D01*
X109347000Y-72231250D02*
X111125000Y-72231250D01*
X98425000Y-72231250D02*
X100203000Y-72231250D01*
X117475000Y-72231250D02*
X119253000Y-72231250D01*
X128397000Y-72231250D02*
X130175000Y-72231250D01*
X130175000Y-72231250D02*
X130175000Y-74009250D01*
X130175000Y-83153250D02*
X130175000Y-84931250D01*
X130175000Y-84931250D02*
X128397000Y-84931250D01*
X119253000Y-84931250D02*
X117475000Y-84931250D01*
X117475000Y-84931250D02*
X117475000Y-83153250D01*
X117475000Y-74009250D02*
X117475000Y-72231250D01*
X136525000Y-74009250D02*
X136525000Y-72231250D01*
X136525000Y-84931250D02*
X136525000Y-83153250D01*
X138303000Y-84931250D02*
X136525000Y-84931250D01*
X149225000Y-84931250D02*
X147447000Y-84931250D01*
X149225000Y-83153250D02*
X149225000Y-84931250D01*
X149225000Y-72231250D02*
X149225000Y-74009250D01*
X147447000Y-72231250D02*
X149225000Y-72231250D01*
X136525000Y-72231250D02*
X138303000Y-72231250D01*
X155575000Y-72231250D02*
X157353000Y-72231250D01*
X166497000Y-72231250D02*
X168275000Y-72231250D01*
X168275000Y-72231250D02*
X168275000Y-74009250D01*
X168275000Y-83153250D02*
X168275000Y-84931250D01*
X168275000Y-84931250D02*
X166497000Y-84931250D01*
X157353000Y-84931250D02*
X155575000Y-84931250D01*
X155575000Y-84931250D02*
X155575000Y-83153250D01*
X155575000Y-74009250D02*
X155575000Y-72231250D01*
X174625000Y-74009250D02*
X174625000Y-72231250D01*
X174625000Y-84931250D02*
X174625000Y-83153250D01*
X176403000Y-84931250D02*
X174625000Y-84931250D01*
X187325000Y-84931250D02*
X185547000Y-84931250D01*
X187325000Y-83153250D02*
X187325000Y-84931250D01*
X187325000Y-72231250D02*
X187325000Y-74009250D01*
X185547000Y-72231250D02*
X187325000Y-72231250D01*
X174625000Y-72231250D02*
X176403000Y-72231250D01*
X193675000Y-72231250D02*
X195453000Y-72231250D01*
X204597000Y-72231250D02*
X206375000Y-72231250D01*
X206375000Y-72231250D02*
X206375000Y-74009250D01*
X206375000Y-83153250D02*
X206375000Y-84931250D01*
X206375000Y-84931250D02*
X204597000Y-84931250D01*
X195453000Y-84931250D02*
X193675000Y-84931250D01*
X193675000Y-84931250D02*
X193675000Y-83153250D01*
X193675000Y-74009250D02*
X193675000Y-72231250D01*
X212725000Y-74009250D02*
X212725000Y-72231250D01*
X212725000Y-84931250D02*
X212725000Y-83153250D01*
X214503000Y-84931250D02*
X212725000Y-84931250D01*
X225425000Y-84931250D02*
X223647000Y-84931250D01*
X225425000Y-83153250D02*
X225425000Y-84931250D01*
X225425000Y-72231250D02*
X225425000Y-74009250D01*
X223647000Y-72231250D02*
X225425000Y-72231250D01*
X212725000Y-72231250D02*
X214503000Y-72231250D01*
X231775000Y-74009250D02*
X231775000Y-72231250D01*
X231775000Y-84931250D02*
X231775000Y-83153250D01*
X233553000Y-84931250D02*
X231775000Y-84931250D01*
X244475000Y-84931250D02*
X242697000Y-84931250D01*
X244475000Y-83153250D02*
X244475000Y-84931250D01*
X244475000Y-72231250D02*
X244475000Y-74009250D01*
X242697000Y-72231250D02*
X244475000Y-72231250D01*
X231775000Y-72231250D02*
X233553000Y-72231250D01*
X22225000Y-91281250D02*
X24003000Y-91281250D01*
X33147000Y-91281250D02*
X34925000Y-91281250D01*
X34925000Y-91281250D02*
X34925000Y-93059250D01*
X34925000Y-102203250D02*
X34925000Y-103981250D01*
X34925000Y-103981250D02*
X33147000Y-103981250D01*
X24003000Y-103981250D02*
X22225000Y-103981250D01*
X22225000Y-103981250D02*
X22225000Y-102203250D01*
X22225000Y-93059250D02*
X22225000Y-91281250D01*
X41275000Y-91281250D02*
X43053000Y-91281250D01*
X52197000Y-91281250D02*
X53975000Y-91281250D01*
X53975000Y-91281250D02*
X53975000Y-93059250D01*
X53975000Y-102203250D02*
X53975000Y-103981250D01*
X53975000Y-103981250D02*
X52197000Y-103981250D01*
X43053000Y-103981250D02*
X41275000Y-103981250D01*
X41275000Y-103981250D02*
X41275000Y-102203250D01*
X41275000Y-93059250D02*
X41275000Y-91281250D01*
X60325000Y-93059250D02*
X60325000Y-91281250D01*
X60325000Y-103981250D02*
X60325000Y-102203250D01*
X62103000Y-103981250D02*
X60325000Y-103981250D01*
X73025000Y-103981250D02*
X71247000Y-103981250D01*
X73025000Y-102203250D02*
X73025000Y-103981250D01*
X73025000Y-91281250D02*
X73025000Y-93059250D01*
X71247000Y-91281250D02*
X73025000Y-91281250D01*
X60325000Y-91281250D02*
X62103000Y-91281250D01*
X79375000Y-91281250D02*
X81153000Y-91281250D01*
X90297000Y-91281250D02*
X92075000Y-91281250D01*
X92075000Y-91281250D02*
X92075000Y-93059250D01*
X92075000Y-102203250D02*
X92075000Y-103981250D01*
X92075000Y-103981250D02*
X90297000Y-103981250D01*
X81153000Y-103981250D02*
X79375000Y-103981250D01*
X79375000Y-103981250D02*
X79375000Y-102203250D01*
X79375000Y-93059250D02*
X79375000Y-91281250D01*
X98425000Y-93059250D02*
X98425000Y-91281250D01*
X98425000Y-103981250D02*
X98425000Y-102203250D01*
X100203000Y-103981250D02*
X98425000Y-103981250D01*
X111125000Y-103981250D02*
X109347000Y-103981250D01*
X111125000Y-102203250D02*
X111125000Y-103981250D01*
X111125000Y-91281250D02*
X111125000Y-93059250D01*
X109347000Y-91281250D02*
X111125000Y-91281250D01*
X98425000Y-91281250D02*
X100203000Y-91281250D01*
X117475000Y-93059250D02*
X117475000Y-91281250D01*
X117475000Y-103981250D02*
X117475000Y-102203250D01*
X119253000Y-103981250D02*
X117475000Y-103981250D01*
X130175000Y-103981250D02*
X128397000Y-103981250D01*
X130175000Y-102203250D02*
X130175000Y-103981250D01*
X130175000Y-91281250D02*
X130175000Y-93059250D01*
X128397000Y-91281250D02*
X130175000Y-91281250D01*
X117475000Y-91281250D02*
X119253000Y-91281250D01*
X136525000Y-93059250D02*
X136525000Y-91281250D01*
X136525000Y-103981250D02*
X136525000Y-102203250D01*
X138303000Y-103981250D02*
X136525000Y-103981250D01*
X149225000Y-103981250D02*
X147447000Y-103981250D01*
X149225000Y-102203250D02*
X149225000Y-103981250D01*
X149225000Y-91281250D02*
X149225000Y-93059250D01*
X147447000Y-91281250D02*
X149225000Y-91281250D01*
X136525000Y-91281250D02*
X138303000Y-91281250D01*
X155575000Y-93059250D02*
X155575000Y-91281250D01*
X155575000Y-103981250D02*
X155575000Y-102203250D01*
X157353000Y-103981250D02*
X155575000Y-103981250D01*
X168275000Y-103981250D02*
X166497000Y-103981250D01*
X168275000Y-102203250D02*
X168275000Y-103981250D01*
X168275000Y-91281250D02*
X168275000Y-93059250D01*
X166497000Y-91281250D02*
X168275000Y-91281250D01*
X155575000Y-91281250D02*
X157353000Y-91281250D01*
X174625000Y-91281250D02*
X176403000Y-91281250D01*
X185547000Y-91281250D02*
X187325000Y-91281250D01*
X187325000Y-91281250D02*
X187325000Y-93059250D01*
X187325000Y-102203250D02*
X187325000Y-103981250D01*
X187325000Y-103981250D02*
X185547000Y-103981250D01*
X176403000Y-103981250D02*
X174625000Y-103981250D01*
X174625000Y-103981250D02*
X174625000Y-102203250D01*
X174625000Y-93059250D02*
X174625000Y-91281250D01*
X193675000Y-91281250D02*
X195453000Y-91281250D01*
X204597000Y-91281250D02*
X206375000Y-91281250D01*
X206375000Y-91281250D02*
X206375000Y-93059250D01*
X206375000Y-102203250D02*
X206375000Y-103981250D01*
X206375000Y-103981250D02*
X204597000Y-103981250D01*
X195453000Y-103981250D02*
X193675000Y-103981250D01*
X193675000Y-103981250D02*
X193675000Y-102203250D01*
X193675000Y-93059250D02*
X193675000Y-91281250D01*
X212725000Y-93059250D02*
X212725000Y-91281250D01*
X212725000Y-103981250D02*
X212725000Y-102203250D01*
X214503000Y-103981250D02*
X212725000Y-103981250D01*
X225425000Y-103981250D02*
X223647000Y-103981250D01*
X225425000Y-102203250D02*
X225425000Y-103981250D01*
X225425000Y-91281250D02*
X225425000Y-93059250D01*
X223647000Y-91281250D02*
X225425000Y-91281250D01*
X212725000Y-91281250D02*
X214503000Y-91281250D01*
X231775000Y-91281250D02*
X233553000Y-91281250D01*
X242697000Y-91281250D02*
X244475000Y-91281250D01*
X244475000Y-91281250D02*
X244475000Y-93059250D01*
X244475000Y-102203250D02*
X244475000Y-103981250D01*
X244475000Y-103981250D02*
X242697000Y-103981250D01*
X233553000Y-103981250D02*
X231775000Y-103981250D01*
X231775000Y-103981250D02*
X231775000Y-102203250D01*
X231775000Y-93059250D02*
X231775000Y-91281250D01*
X22225000Y-112109250D02*
X22225000Y-110331250D01*
X22225000Y-123031250D02*
X22225000Y-121253250D01*
X24003000Y-123031250D02*
X22225000Y-123031250D01*
X34925000Y-123031250D02*
X33147000Y-123031250D01*
X34925000Y-121253250D02*
X34925000Y-123031250D01*
X34925000Y-110331250D02*
X34925000Y-112109250D01*
X33147000Y-110331250D02*
X34925000Y-110331250D01*
X22225000Y-110331250D02*
X24003000Y-110331250D01*
X41275000Y-110331250D02*
X43053000Y-110331250D01*
X52197000Y-110331250D02*
X53975000Y-110331250D01*
X53975000Y-110331250D02*
X53975000Y-112109250D01*
X53975000Y-121253250D02*
X53975000Y-123031250D01*
X53975000Y-123031250D02*
X52197000Y-123031250D01*
X43053000Y-123031250D02*
X41275000Y-123031250D01*
X41275000Y-123031250D02*
X41275000Y-121253250D01*
X41275000Y-112109250D02*
X41275000Y-110331250D01*
X60325000Y-112109250D02*
X60325000Y-110331250D01*
X60325000Y-123031250D02*
X60325000Y-121253250D01*
X62103000Y-123031250D02*
X60325000Y-123031250D01*
X73025000Y-123031250D02*
X71247000Y-123031250D01*
X73025000Y-121253250D02*
X73025000Y-123031250D01*
X73025000Y-110331250D02*
X73025000Y-112109250D01*
X71247000Y-110331250D02*
X73025000Y-110331250D01*
X60325000Y-110331250D02*
X62103000Y-110331250D01*
X79375000Y-110331250D02*
X81153000Y-110331250D01*
X90297000Y-110331250D02*
X92075000Y-110331250D01*
X92075000Y-110331250D02*
X92075000Y-112109250D01*
X92075000Y-121253250D02*
X92075000Y-123031250D01*
X92075000Y-123031250D02*
X90297000Y-123031250D01*
X81153000Y-123031250D02*
X79375000Y-123031250D01*
X79375000Y-123031250D02*
X79375000Y-121253250D01*
X79375000Y-112109250D02*
X79375000Y-110331250D01*
X98425000Y-110331250D02*
X100203000Y-110331250D01*
X109347000Y-110331250D02*
X111125000Y-110331250D01*
X111125000Y-110331250D02*
X111125000Y-112109250D01*
X111125000Y-121253250D02*
X111125000Y-123031250D01*
X111125000Y-123031250D02*
X109347000Y-123031250D01*
X100203000Y-123031250D02*
X98425000Y-123031250D01*
X98425000Y-123031250D02*
X98425000Y-121253250D01*
X98425000Y-112109250D02*
X98425000Y-110331250D01*
X155575000Y-112109250D02*
X155575000Y-110331250D01*
X155575000Y-123031250D02*
X155575000Y-121253250D01*
X157353000Y-123031250D02*
X155575000Y-123031250D01*
X168275000Y-123031250D02*
X166497000Y-123031250D01*
X168275000Y-121253250D02*
X168275000Y-123031250D01*
X168275000Y-110331250D02*
X168275000Y-112109250D01*
X166497000Y-110331250D02*
X168275000Y-110331250D01*
X155575000Y-110331250D02*
X157353000Y-110331250D01*
X174625000Y-110331250D02*
X176403000Y-110331250D01*
X185547000Y-110331250D02*
X187325000Y-110331250D01*
X187325000Y-110331250D02*
X187325000Y-112109250D01*
X187325000Y-121253250D02*
X187325000Y-123031250D01*
X187325000Y-123031250D02*
X185547000Y-123031250D01*
X176403000Y-123031250D02*
X174625000Y-123031250D01*
X174625000Y-123031250D02*
X174625000Y-121253250D01*
X174625000Y-112109250D02*
X174625000Y-110331250D01*
X193675000Y-110331250D02*
X195453000Y-110331250D01*
X204597000Y-110331250D02*
X206375000Y-110331250D01*
X206375000Y-110331250D02*
X206375000Y-112109250D01*
X206375000Y-121253250D02*
X206375000Y-123031250D01*
X206375000Y-123031250D02*
X204597000Y-123031250D01*
X195453000Y-123031250D02*
X193675000Y-123031250D01*
X193675000Y-123031250D02*
X193675000Y-121253250D01*
X193675000Y-112109250D02*
X193675000Y-110331250D01*
X212725000Y-112109250D02*
X212725000Y-110331250D01*
X212725000Y-123031250D02*
X212725000Y-121253250D01*
X214503000Y-123031250D02*
X212725000Y-123031250D01*
X225425000Y-123031250D02*
X223647000Y-123031250D01*
X225425000Y-121253250D02*
X225425000Y-123031250D01*
X225425000Y-110331250D02*
X225425000Y-112109250D01*
X223647000Y-110331250D02*
X225425000Y-110331250D01*
X212725000Y-110331250D02*
X214503000Y-110331250D01*
X231775000Y-112109250D02*
X231775000Y-110331250D01*
X231775000Y-123031250D02*
X231775000Y-121253250D01*
X233553000Y-123031250D02*
X231775000Y-123031250D01*
X244475000Y-123031250D02*
X242697000Y-123031250D01*
X244475000Y-121253250D02*
X244475000Y-123031250D01*
X244475000Y-110331250D02*
X244475000Y-112109250D01*
X242697000Y-110331250D02*
X244475000Y-110331250D01*
X231775000Y-110331250D02*
X233553000Y-110331250D01*
D12*
X208186550Y-38018750D02*
X208636550Y-38468750D01*
X211586550Y-38018750D02*
X211136550Y-38468750D01*
X211586550Y-33418750D02*
X211136550Y-32968750D01*
X208186550Y-33418750D02*
X208636550Y-32968750D01*
X212636550Y-34718750D02*
X212636550Y-36718750D01*
X208636550Y-38468750D02*
X211136550Y-38468750D01*
X207136550Y-34718750D02*
X207136550Y-36718750D01*
X208636550Y-32968750D02*
X211136550Y-32968750D01*
D11*
X41275000Y-74009250D02*
X41275000Y-72231250D01*
X41275000Y-84931250D02*
X41275000Y-83153250D01*
X43053000Y-84931250D02*
X41275000Y-84931250D01*
X53975000Y-84931250D02*
X52197000Y-84931250D01*
X53975000Y-83153250D02*
X53975000Y-84931250D01*
X53975000Y-72231250D02*
X53975000Y-74009250D01*
X52197000Y-72231250D02*
X53975000Y-72231250D01*
X41275000Y-72231250D02*
X43053000Y-72231250D01*
X127000000Y-112109250D02*
X127000000Y-110331250D01*
X127000000Y-123031250D02*
X127000000Y-121253250D01*
X128778000Y-123031250D02*
X127000000Y-123031250D01*
X139700000Y-123031250D02*
X137922000Y-123031250D01*
X139700000Y-121253250D02*
X139700000Y-123031250D01*
X139700000Y-110331250D02*
X139700000Y-112109250D01*
X137922000Y-110331250D02*
X139700000Y-110331250D01*
X127000000Y-110331250D02*
X128778000Y-110331250D01*
D10*
X221122916Y-39933630D02*
X221122916Y-40647916D01*
X221075297Y-40790773D01*
X220980059Y-40886011D01*
X220837202Y-40933630D01*
X220741964Y-40933630D01*
X222122916Y-40933630D02*
X221551488Y-40933630D01*
X221837202Y-40933630D02*
X221837202Y-39933630D01*
X221741964Y-40076488D01*
X221646726Y-40171726D01*
X221551488Y-40219345D01*
X208807216Y-41838511D02*
X208950073Y-41886130D01*
X209188169Y-41886130D01*
X209283407Y-41838511D01*
X209331026Y-41790892D01*
X209378645Y-41695654D01*
X209378645Y-41600416D01*
X209331026Y-41505178D01*
X209283407Y-41457559D01*
X209188169Y-41409940D01*
X208997692Y-41362321D01*
X208902454Y-41314702D01*
X208854835Y-41267083D01*
X208807216Y-41171845D01*
X208807216Y-41076607D01*
X208854835Y-40981369D01*
X208902454Y-40933750D01*
X208997692Y-40886130D01*
X209235788Y-40886130D01*
X209378645Y-40933750D01*
X209711978Y-40886130D02*
X209950073Y-41886130D01*
X210140550Y-41171845D01*
X210331026Y-41886130D01*
X210569121Y-40886130D01*
X211473883Y-41886130D02*
X210902454Y-41886130D01*
X211188169Y-41886130D02*
X211188169Y-40886130D01*
X211092930Y-41028988D01*
X210997692Y-41124226D01*
X210902454Y-41171845D01*
M02*
