G04 #@! TF.GenerationSoftware,KiCad,Pcbnew,(5.1.0)-1*
G04 #@! TF.CreationDate,2020-08-28T00:10:40-04:00*
G04 #@! TF.ProjectId,keyboard,6b657962-6f61-4726-942e-6b696361645f,rev?*
G04 #@! TF.SameCoordinates,Original*
G04 #@! TF.FileFunction,Paste,Bot*
G04 #@! TF.FilePolarity,Positive*
%FSLAX46Y46*%
G04 Gerber Fmt 4.6, Leading zero omitted, Abs format (unit mm)*
G04 Created by KiCad (PCBNEW (5.1.0)-1) date 2020-08-28 00:10:40*
%MOMM*%
%LPD*%
G04 APERTURE LIST*
%ADD10C,0.020000*%
%ADD11C,0.975000*%
%ADD12R,0.550000X1.500000*%
%ADD13R,1.500000X0.550000*%
%ADD14R,1.200000X1.200000*%
%ADD15C,1.800000*%
G04 APERTURE END LIST*
D10*
G36*
X46612892Y-37693924D02*
G01*
X46636553Y-37697434D01*
X46659757Y-37703246D01*
X46682279Y-37711304D01*
X46703903Y-37721532D01*
X46724420Y-37733829D01*
X46743633Y-37748079D01*
X46761357Y-37764143D01*
X46777421Y-37781867D01*
X46791671Y-37801080D01*
X46803968Y-37821597D01*
X46814196Y-37843221D01*
X46822254Y-37865743D01*
X46828066Y-37888947D01*
X46831576Y-37912608D01*
X46832750Y-37936500D01*
X46832750Y-38424000D01*
X46831576Y-38447892D01*
X46828066Y-38471553D01*
X46822254Y-38494757D01*
X46814196Y-38517279D01*
X46803968Y-38538903D01*
X46791671Y-38559420D01*
X46777421Y-38578633D01*
X46761357Y-38596357D01*
X46743633Y-38612421D01*
X46724420Y-38626671D01*
X46703903Y-38638968D01*
X46682279Y-38649196D01*
X46659757Y-38657254D01*
X46636553Y-38663066D01*
X46612892Y-38666576D01*
X46589000Y-38667750D01*
X45676500Y-38667750D01*
X45652608Y-38666576D01*
X45628947Y-38663066D01*
X45605743Y-38657254D01*
X45583221Y-38649196D01*
X45561597Y-38638968D01*
X45541080Y-38626671D01*
X45521867Y-38612421D01*
X45504143Y-38596357D01*
X45488079Y-38578633D01*
X45473829Y-38559420D01*
X45461532Y-38538903D01*
X45451304Y-38517279D01*
X45443246Y-38494757D01*
X45437434Y-38471553D01*
X45433924Y-38447892D01*
X45432750Y-38424000D01*
X45432750Y-37936500D01*
X45433924Y-37912608D01*
X45437434Y-37888947D01*
X45443246Y-37865743D01*
X45451304Y-37843221D01*
X45461532Y-37821597D01*
X45473829Y-37801080D01*
X45488079Y-37781867D01*
X45504143Y-37764143D01*
X45521867Y-37748079D01*
X45541080Y-37733829D01*
X45561597Y-37721532D01*
X45583221Y-37711304D01*
X45605743Y-37703246D01*
X45628947Y-37697434D01*
X45652608Y-37693924D01*
X45676500Y-37692750D01*
X46589000Y-37692750D01*
X46612892Y-37693924D01*
X46612892Y-37693924D01*
G37*
D11*
X46132750Y-38180250D03*
D10*
G36*
X46612892Y-35818924D02*
G01*
X46636553Y-35822434D01*
X46659757Y-35828246D01*
X46682279Y-35836304D01*
X46703903Y-35846532D01*
X46724420Y-35858829D01*
X46743633Y-35873079D01*
X46761357Y-35889143D01*
X46777421Y-35906867D01*
X46791671Y-35926080D01*
X46803968Y-35946597D01*
X46814196Y-35968221D01*
X46822254Y-35990743D01*
X46828066Y-36013947D01*
X46831576Y-36037608D01*
X46832750Y-36061500D01*
X46832750Y-36549000D01*
X46831576Y-36572892D01*
X46828066Y-36596553D01*
X46822254Y-36619757D01*
X46814196Y-36642279D01*
X46803968Y-36663903D01*
X46791671Y-36684420D01*
X46777421Y-36703633D01*
X46761357Y-36721357D01*
X46743633Y-36737421D01*
X46724420Y-36751671D01*
X46703903Y-36763968D01*
X46682279Y-36774196D01*
X46659757Y-36782254D01*
X46636553Y-36788066D01*
X46612892Y-36791576D01*
X46589000Y-36792750D01*
X45676500Y-36792750D01*
X45652608Y-36791576D01*
X45628947Y-36788066D01*
X45605743Y-36782254D01*
X45583221Y-36774196D01*
X45561597Y-36763968D01*
X45541080Y-36751671D01*
X45521867Y-36737421D01*
X45504143Y-36721357D01*
X45488079Y-36703633D01*
X45473829Y-36684420D01*
X45461532Y-36663903D01*
X45451304Y-36642279D01*
X45443246Y-36619757D01*
X45437434Y-36596553D01*
X45433924Y-36572892D01*
X45432750Y-36549000D01*
X45432750Y-36061500D01*
X45433924Y-36037608D01*
X45437434Y-36013947D01*
X45443246Y-35990743D01*
X45451304Y-35968221D01*
X45461532Y-35946597D01*
X45473829Y-35926080D01*
X45488079Y-35906867D01*
X45504143Y-35889143D01*
X45521867Y-35873079D01*
X45541080Y-35858829D01*
X45561597Y-35846532D01*
X45583221Y-35836304D01*
X45605743Y-35828246D01*
X45628947Y-35822434D01*
X45652608Y-35818924D01*
X45676500Y-35817750D01*
X46589000Y-35817750D01*
X46612892Y-35818924D01*
X46612892Y-35818924D01*
G37*
D11*
X46132750Y-36305250D03*
D10*
G36*
X44231642Y-35818924D02*
G01*
X44255303Y-35822434D01*
X44278507Y-35828246D01*
X44301029Y-35836304D01*
X44322653Y-35846532D01*
X44343170Y-35858829D01*
X44362383Y-35873079D01*
X44380107Y-35889143D01*
X44396171Y-35906867D01*
X44410421Y-35926080D01*
X44422718Y-35946597D01*
X44432946Y-35968221D01*
X44441004Y-35990743D01*
X44446816Y-36013947D01*
X44450326Y-36037608D01*
X44451500Y-36061500D01*
X44451500Y-36549000D01*
X44450326Y-36572892D01*
X44446816Y-36596553D01*
X44441004Y-36619757D01*
X44432946Y-36642279D01*
X44422718Y-36663903D01*
X44410421Y-36684420D01*
X44396171Y-36703633D01*
X44380107Y-36721357D01*
X44362383Y-36737421D01*
X44343170Y-36751671D01*
X44322653Y-36763968D01*
X44301029Y-36774196D01*
X44278507Y-36782254D01*
X44255303Y-36788066D01*
X44231642Y-36791576D01*
X44207750Y-36792750D01*
X43295250Y-36792750D01*
X43271358Y-36791576D01*
X43247697Y-36788066D01*
X43224493Y-36782254D01*
X43201971Y-36774196D01*
X43180347Y-36763968D01*
X43159830Y-36751671D01*
X43140617Y-36737421D01*
X43122893Y-36721357D01*
X43106829Y-36703633D01*
X43092579Y-36684420D01*
X43080282Y-36663903D01*
X43070054Y-36642279D01*
X43061996Y-36619757D01*
X43056184Y-36596553D01*
X43052674Y-36572892D01*
X43051500Y-36549000D01*
X43051500Y-36061500D01*
X43052674Y-36037608D01*
X43056184Y-36013947D01*
X43061996Y-35990743D01*
X43070054Y-35968221D01*
X43080282Y-35946597D01*
X43092579Y-35926080D01*
X43106829Y-35906867D01*
X43122893Y-35889143D01*
X43140617Y-35873079D01*
X43159830Y-35858829D01*
X43180347Y-35846532D01*
X43201971Y-35836304D01*
X43224493Y-35828246D01*
X43247697Y-35822434D01*
X43271358Y-35818924D01*
X43295250Y-35817750D01*
X44207750Y-35817750D01*
X44231642Y-35818924D01*
X44231642Y-35818924D01*
G37*
D11*
X43751500Y-36305250D03*
D10*
G36*
X44231642Y-37693924D02*
G01*
X44255303Y-37697434D01*
X44278507Y-37703246D01*
X44301029Y-37711304D01*
X44322653Y-37721532D01*
X44343170Y-37733829D01*
X44362383Y-37748079D01*
X44380107Y-37764143D01*
X44396171Y-37781867D01*
X44410421Y-37801080D01*
X44422718Y-37821597D01*
X44432946Y-37843221D01*
X44441004Y-37865743D01*
X44446816Y-37888947D01*
X44450326Y-37912608D01*
X44451500Y-37936500D01*
X44451500Y-38424000D01*
X44450326Y-38447892D01*
X44446816Y-38471553D01*
X44441004Y-38494757D01*
X44432946Y-38517279D01*
X44422718Y-38538903D01*
X44410421Y-38559420D01*
X44396171Y-38578633D01*
X44380107Y-38596357D01*
X44362383Y-38612421D01*
X44343170Y-38626671D01*
X44322653Y-38638968D01*
X44301029Y-38649196D01*
X44278507Y-38657254D01*
X44255303Y-38663066D01*
X44231642Y-38666576D01*
X44207750Y-38667750D01*
X43295250Y-38667750D01*
X43271358Y-38666576D01*
X43247697Y-38663066D01*
X43224493Y-38657254D01*
X43201971Y-38649196D01*
X43180347Y-38638968D01*
X43159830Y-38626671D01*
X43140617Y-38612421D01*
X43122893Y-38596357D01*
X43106829Y-38578633D01*
X43092579Y-38559420D01*
X43080282Y-38538903D01*
X43070054Y-38517279D01*
X43061996Y-38494757D01*
X43056184Y-38471553D01*
X43052674Y-38447892D01*
X43051500Y-38424000D01*
X43051500Y-37936500D01*
X43052674Y-37912608D01*
X43056184Y-37888947D01*
X43061996Y-37865743D01*
X43070054Y-37843221D01*
X43080282Y-37821597D01*
X43092579Y-37801080D01*
X43106829Y-37781867D01*
X43122893Y-37764143D01*
X43140617Y-37748079D01*
X43159830Y-37733829D01*
X43180347Y-37721532D01*
X43201971Y-37711304D01*
X43224493Y-37703246D01*
X43247697Y-37697434D01*
X43271358Y-37693924D01*
X43295250Y-37692750D01*
X44207750Y-37692750D01*
X44231642Y-37693924D01*
X44231642Y-37693924D01*
G37*
D11*
X43751500Y-38180250D03*
D10*
G36*
X51184892Y-37693924D02*
G01*
X51208553Y-37697434D01*
X51231757Y-37703246D01*
X51254279Y-37711304D01*
X51275903Y-37721532D01*
X51296420Y-37733829D01*
X51315633Y-37748079D01*
X51333357Y-37764143D01*
X51349421Y-37781867D01*
X51363671Y-37801080D01*
X51375968Y-37821597D01*
X51386196Y-37843221D01*
X51394254Y-37865743D01*
X51400066Y-37888947D01*
X51403576Y-37912608D01*
X51404750Y-37936500D01*
X51404750Y-38424000D01*
X51403576Y-38447892D01*
X51400066Y-38471553D01*
X51394254Y-38494757D01*
X51386196Y-38517279D01*
X51375968Y-38538903D01*
X51363671Y-38559420D01*
X51349421Y-38578633D01*
X51333357Y-38596357D01*
X51315633Y-38612421D01*
X51296420Y-38626671D01*
X51275903Y-38638968D01*
X51254279Y-38649196D01*
X51231757Y-38657254D01*
X51208553Y-38663066D01*
X51184892Y-38666576D01*
X51161000Y-38667750D01*
X50248500Y-38667750D01*
X50224608Y-38666576D01*
X50200947Y-38663066D01*
X50177743Y-38657254D01*
X50155221Y-38649196D01*
X50133597Y-38638968D01*
X50113080Y-38626671D01*
X50093867Y-38612421D01*
X50076143Y-38596357D01*
X50060079Y-38578633D01*
X50045829Y-38559420D01*
X50033532Y-38538903D01*
X50023304Y-38517279D01*
X50015246Y-38494757D01*
X50009434Y-38471553D01*
X50005924Y-38447892D01*
X50004750Y-38424000D01*
X50004750Y-37936500D01*
X50005924Y-37912608D01*
X50009434Y-37888947D01*
X50015246Y-37865743D01*
X50023304Y-37843221D01*
X50033532Y-37821597D01*
X50045829Y-37801080D01*
X50060079Y-37781867D01*
X50076143Y-37764143D01*
X50093867Y-37748079D01*
X50113080Y-37733829D01*
X50133597Y-37721532D01*
X50155221Y-37711304D01*
X50177743Y-37703246D01*
X50200947Y-37697434D01*
X50224608Y-37693924D01*
X50248500Y-37692750D01*
X51161000Y-37692750D01*
X51184892Y-37693924D01*
X51184892Y-37693924D01*
G37*
D11*
X50704750Y-38180250D03*
D10*
G36*
X51184892Y-35818924D02*
G01*
X51208553Y-35822434D01*
X51231757Y-35828246D01*
X51254279Y-35836304D01*
X51275903Y-35846532D01*
X51296420Y-35858829D01*
X51315633Y-35873079D01*
X51333357Y-35889143D01*
X51349421Y-35906867D01*
X51363671Y-35926080D01*
X51375968Y-35946597D01*
X51386196Y-35968221D01*
X51394254Y-35990743D01*
X51400066Y-36013947D01*
X51403576Y-36037608D01*
X51404750Y-36061500D01*
X51404750Y-36549000D01*
X51403576Y-36572892D01*
X51400066Y-36596553D01*
X51394254Y-36619757D01*
X51386196Y-36642279D01*
X51375968Y-36663903D01*
X51363671Y-36684420D01*
X51349421Y-36703633D01*
X51333357Y-36721357D01*
X51315633Y-36737421D01*
X51296420Y-36751671D01*
X51275903Y-36763968D01*
X51254279Y-36774196D01*
X51231757Y-36782254D01*
X51208553Y-36788066D01*
X51184892Y-36791576D01*
X51161000Y-36792750D01*
X50248500Y-36792750D01*
X50224608Y-36791576D01*
X50200947Y-36788066D01*
X50177743Y-36782254D01*
X50155221Y-36774196D01*
X50133597Y-36763968D01*
X50113080Y-36751671D01*
X50093867Y-36737421D01*
X50076143Y-36721357D01*
X50060079Y-36703633D01*
X50045829Y-36684420D01*
X50033532Y-36663903D01*
X50023304Y-36642279D01*
X50015246Y-36619757D01*
X50009434Y-36596553D01*
X50005924Y-36572892D01*
X50004750Y-36549000D01*
X50004750Y-36061500D01*
X50005924Y-36037608D01*
X50009434Y-36013947D01*
X50015246Y-35990743D01*
X50023304Y-35968221D01*
X50033532Y-35946597D01*
X50045829Y-35926080D01*
X50060079Y-35906867D01*
X50076143Y-35889143D01*
X50093867Y-35873079D01*
X50113080Y-35858829D01*
X50133597Y-35846532D01*
X50155221Y-35836304D01*
X50177743Y-35828246D01*
X50200947Y-35822434D01*
X50224608Y-35818924D01*
X50248500Y-35817750D01*
X51161000Y-35817750D01*
X51184892Y-35818924D01*
X51184892Y-35818924D01*
G37*
D11*
X50704750Y-36305250D03*
D10*
G36*
X48803642Y-35818924D02*
G01*
X48827303Y-35822434D01*
X48850507Y-35828246D01*
X48873029Y-35836304D01*
X48894653Y-35846532D01*
X48915170Y-35858829D01*
X48934383Y-35873079D01*
X48952107Y-35889143D01*
X48968171Y-35906867D01*
X48982421Y-35926080D01*
X48994718Y-35946597D01*
X49004946Y-35968221D01*
X49013004Y-35990743D01*
X49018816Y-36013947D01*
X49022326Y-36037608D01*
X49023500Y-36061500D01*
X49023500Y-36549000D01*
X49022326Y-36572892D01*
X49018816Y-36596553D01*
X49013004Y-36619757D01*
X49004946Y-36642279D01*
X48994718Y-36663903D01*
X48982421Y-36684420D01*
X48968171Y-36703633D01*
X48952107Y-36721357D01*
X48934383Y-36737421D01*
X48915170Y-36751671D01*
X48894653Y-36763968D01*
X48873029Y-36774196D01*
X48850507Y-36782254D01*
X48827303Y-36788066D01*
X48803642Y-36791576D01*
X48779750Y-36792750D01*
X47867250Y-36792750D01*
X47843358Y-36791576D01*
X47819697Y-36788066D01*
X47796493Y-36782254D01*
X47773971Y-36774196D01*
X47752347Y-36763968D01*
X47731830Y-36751671D01*
X47712617Y-36737421D01*
X47694893Y-36721357D01*
X47678829Y-36703633D01*
X47664579Y-36684420D01*
X47652282Y-36663903D01*
X47642054Y-36642279D01*
X47633996Y-36619757D01*
X47628184Y-36596553D01*
X47624674Y-36572892D01*
X47623500Y-36549000D01*
X47623500Y-36061500D01*
X47624674Y-36037608D01*
X47628184Y-36013947D01*
X47633996Y-35990743D01*
X47642054Y-35968221D01*
X47652282Y-35946597D01*
X47664579Y-35926080D01*
X47678829Y-35906867D01*
X47694893Y-35889143D01*
X47712617Y-35873079D01*
X47731830Y-35858829D01*
X47752347Y-35846532D01*
X47773971Y-35836304D01*
X47796493Y-35828246D01*
X47819697Y-35822434D01*
X47843358Y-35818924D01*
X47867250Y-35817750D01*
X48779750Y-35817750D01*
X48803642Y-35818924D01*
X48803642Y-35818924D01*
G37*
D11*
X48323500Y-36305250D03*
D10*
G36*
X48803642Y-37693924D02*
G01*
X48827303Y-37697434D01*
X48850507Y-37703246D01*
X48873029Y-37711304D01*
X48894653Y-37721532D01*
X48915170Y-37733829D01*
X48934383Y-37748079D01*
X48952107Y-37764143D01*
X48968171Y-37781867D01*
X48982421Y-37801080D01*
X48994718Y-37821597D01*
X49004946Y-37843221D01*
X49013004Y-37865743D01*
X49018816Y-37888947D01*
X49022326Y-37912608D01*
X49023500Y-37936500D01*
X49023500Y-38424000D01*
X49022326Y-38447892D01*
X49018816Y-38471553D01*
X49013004Y-38494757D01*
X49004946Y-38517279D01*
X48994718Y-38538903D01*
X48982421Y-38559420D01*
X48968171Y-38578633D01*
X48952107Y-38596357D01*
X48934383Y-38612421D01*
X48915170Y-38626671D01*
X48894653Y-38638968D01*
X48873029Y-38649196D01*
X48850507Y-38657254D01*
X48827303Y-38663066D01*
X48803642Y-38666576D01*
X48779750Y-38667750D01*
X47867250Y-38667750D01*
X47843358Y-38666576D01*
X47819697Y-38663066D01*
X47796493Y-38657254D01*
X47773971Y-38649196D01*
X47752347Y-38638968D01*
X47731830Y-38626671D01*
X47712617Y-38612421D01*
X47694893Y-38596357D01*
X47678829Y-38578633D01*
X47664579Y-38559420D01*
X47652282Y-38538903D01*
X47642054Y-38517279D01*
X47633996Y-38494757D01*
X47628184Y-38471553D01*
X47624674Y-38447892D01*
X47623500Y-38424000D01*
X47623500Y-37936500D01*
X47624674Y-37912608D01*
X47628184Y-37888947D01*
X47633996Y-37865743D01*
X47642054Y-37843221D01*
X47652282Y-37821597D01*
X47664579Y-37801080D01*
X47678829Y-37781867D01*
X47694893Y-37764143D01*
X47712617Y-37748079D01*
X47731830Y-37733829D01*
X47752347Y-37721532D01*
X47773971Y-37711304D01*
X47796493Y-37703246D01*
X47819697Y-37697434D01*
X47843358Y-37693924D01*
X47867250Y-37692750D01*
X48779750Y-37692750D01*
X48803642Y-37693924D01*
X48803642Y-37693924D01*
G37*
D11*
X48323500Y-38180250D03*
D10*
G36*
X69472892Y-37693924D02*
G01*
X69496553Y-37697434D01*
X69519757Y-37703246D01*
X69542279Y-37711304D01*
X69563903Y-37721532D01*
X69584420Y-37733829D01*
X69603633Y-37748079D01*
X69621357Y-37764143D01*
X69637421Y-37781867D01*
X69651671Y-37801080D01*
X69663968Y-37821597D01*
X69674196Y-37843221D01*
X69682254Y-37865743D01*
X69688066Y-37888947D01*
X69691576Y-37912608D01*
X69692750Y-37936500D01*
X69692750Y-38424000D01*
X69691576Y-38447892D01*
X69688066Y-38471553D01*
X69682254Y-38494757D01*
X69674196Y-38517279D01*
X69663968Y-38538903D01*
X69651671Y-38559420D01*
X69637421Y-38578633D01*
X69621357Y-38596357D01*
X69603633Y-38612421D01*
X69584420Y-38626671D01*
X69563903Y-38638968D01*
X69542279Y-38649196D01*
X69519757Y-38657254D01*
X69496553Y-38663066D01*
X69472892Y-38666576D01*
X69449000Y-38667750D01*
X68536500Y-38667750D01*
X68512608Y-38666576D01*
X68488947Y-38663066D01*
X68465743Y-38657254D01*
X68443221Y-38649196D01*
X68421597Y-38638968D01*
X68401080Y-38626671D01*
X68381867Y-38612421D01*
X68364143Y-38596357D01*
X68348079Y-38578633D01*
X68333829Y-38559420D01*
X68321532Y-38538903D01*
X68311304Y-38517279D01*
X68303246Y-38494757D01*
X68297434Y-38471553D01*
X68293924Y-38447892D01*
X68292750Y-38424000D01*
X68292750Y-37936500D01*
X68293924Y-37912608D01*
X68297434Y-37888947D01*
X68303246Y-37865743D01*
X68311304Y-37843221D01*
X68321532Y-37821597D01*
X68333829Y-37801080D01*
X68348079Y-37781867D01*
X68364143Y-37764143D01*
X68381867Y-37748079D01*
X68401080Y-37733829D01*
X68421597Y-37721532D01*
X68443221Y-37711304D01*
X68465743Y-37703246D01*
X68488947Y-37697434D01*
X68512608Y-37693924D01*
X68536500Y-37692750D01*
X69449000Y-37692750D01*
X69472892Y-37693924D01*
X69472892Y-37693924D01*
G37*
D11*
X68992750Y-38180250D03*
D10*
G36*
X69472892Y-35818924D02*
G01*
X69496553Y-35822434D01*
X69519757Y-35828246D01*
X69542279Y-35836304D01*
X69563903Y-35846532D01*
X69584420Y-35858829D01*
X69603633Y-35873079D01*
X69621357Y-35889143D01*
X69637421Y-35906867D01*
X69651671Y-35926080D01*
X69663968Y-35946597D01*
X69674196Y-35968221D01*
X69682254Y-35990743D01*
X69688066Y-36013947D01*
X69691576Y-36037608D01*
X69692750Y-36061500D01*
X69692750Y-36549000D01*
X69691576Y-36572892D01*
X69688066Y-36596553D01*
X69682254Y-36619757D01*
X69674196Y-36642279D01*
X69663968Y-36663903D01*
X69651671Y-36684420D01*
X69637421Y-36703633D01*
X69621357Y-36721357D01*
X69603633Y-36737421D01*
X69584420Y-36751671D01*
X69563903Y-36763968D01*
X69542279Y-36774196D01*
X69519757Y-36782254D01*
X69496553Y-36788066D01*
X69472892Y-36791576D01*
X69449000Y-36792750D01*
X68536500Y-36792750D01*
X68512608Y-36791576D01*
X68488947Y-36788066D01*
X68465743Y-36782254D01*
X68443221Y-36774196D01*
X68421597Y-36763968D01*
X68401080Y-36751671D01*
X68381867Y-36737421D01*
X68364143Y-36721357D01*
X68348079Y-36703633D01*
X68333829Y-36684420D01*
X68321532Y-36663903D01*
X68311304Y-36642279D01*
X68303246Y-36619757D01*
X68297434Y-36596553D01*
X68293924Y-36572892D01*
X68292750Y-36549000D01*
X68292750Y-36061500D01*
X68293924Y-36037608D01*
X68297434Y-36013947D01*
X68303246Y-35990743D01*
X68311304Y-35968221D01*
X68321532Y-35946597D01*
X68333829Y-35926080D01*
X68348079Y-35906867D01*
X68364143Y-35889143D01*
X68381867Y-35873079D01*
X68401080Y-35858829D01*
X68421597Y-35846532D01*
X68443221Y-35836304D01*
X68465743Y-35828246D01*
X68488947Y-35822434D01*
X68512608Y-35818924D01*
X68536500Y-35817750D01*
X69449000Y-35817750D01*
X69472892Y-35818924D01*
X69472892Y-35818924D01*
G37*
D11*
X68992750Y-36305250D03*
D10*
G36*
X67091642Y-35818924D02*
G01*
X67115303Y-35822434D01*
X67138507Y-35828246D01*
X67161029Y-35836304D01*
X67182653Y-35846532D01*
X67203170Y-35858829D01*
X67222383Y-35873079D01*
X67240107Y-35889143D01*
X67256171Y-35906867D01*
X67270421Y-35926080D01*
X67282718Y-35946597D01*
X67292946Y-35968221D01*
X67301004Y-35990743D01*
X67306816Y-36013947D01*
X67310326Y-36037608D01*
X67311500Y-36061500D01*
X67311500Y-36549000D01*
X67310326Y-36572892D01*
X67306816Y-36596553D01*
X67301004Y-36619757D01*
X67292946Y-36642279D01*
X67282718Y-36663903D01*
X67270421Y-36684420D01*
X67256171Y-36703633D01*
X67240107Y-36721357D01*
X67222383Y-36737421D01*
X67203170Y-36751671D01*
X67182653Y-36763968D01*
X67161029Y-36774196D01*
X67138507Y-36782254D01*
X67115303Y-36788066D01*
X67091642Y-36791576D01*
X67067750Y-36792750D01*
X66155250Y-36792750D01*
X66131358Y-36791576D01*
X66107697Y-36788066D01*
X66084493Y-36782254D01*
X66061971Y-36774196D01*
X66040347Y-36763968D01*
X66019830Y-36751671D01*
X66000617Y-36737421D01*
X65982893Y-36721357D01*
X65966829Y-36703633D01*
X65952579Y-36684420D01*
X65940282Y-36663903D01*
X65930054Y-36642279D01*
X65921996Y-36619757D01*
X65916184Y-36596553D01*
X65912674Y-36572892D01*
X65911500Y-36549000D01*
X65911500Y-36061500D01*
X65912674Y-36037608D01*
X65916184Y-36013947D01*
X65921996Y-35990743D01*
X65930054Y-35968221D01*
X65940282Y-35946597D01*
X65952579Y-35926080D01*
X65966829Y-35906867D01*
X65982893Y-35889143D01*
X66000617Y-35873079D01*
X66019830Y-35858829D01*
X66040347Y-35846532D01*
X66061971Y-35836304D01*
X66084493Y-35828246D01*
X66107697Y-35822434D01*
X66131358Y-35818924D01*
X66155250Y-35817750D01*
X67067750Y-35817750D01*
X67091642Y-35818924D01*
X67091642Y-35818924D01*
G37*
D11*
X66611500Y-36305250D03*
D10*
G36*
X67091642Y-37693924D02*
G01*
X67115303Y-37697434D01*
X67138507Y-37703246D01*
X67161029Y-37711304D01*
X67182653Y-37721532D01*
X67203170Y-37733829D01*
X67222383Y-37748079D01*
X67240107Y-37764143D01*
X67256171Y-37781867D01*
X67270421Y-37801080D01*
X67282718Y-37821597D01*
X67292946Y-37843221D01*
X67301004Y-37865743D01*
X67306816Y-37888947D01*
X67310326Y-37912608D01*
X67311500Y-37936500D01*
X67311500Y-38424000D01*
X67310326Y-38447892D01*
X67306816Y-38471553D01*
X67301004Y-38494757D01*
X67292946Y-38517279D01*
X67282718Y-38538903D01*
X67270421Y-38559420D01*
X67256171Y-38578633D01*
X67240107Y-38596357D01*
X67222383Y-38612421D01*
X67203170Y-38626671D01*
X67182653Y-38638968D01*
X67161029Y-38649196D01*
X67138507Y-38657254D01*
X67115303Y-38663066D01*
X67091642Y-38666576D01*
X67067750Y-38667750D01*
X66155250Y-38667750D01*
X66131358Y-38666576D01*
X66107697Y-38663066D01*
X66084493Y-38657254D01*
X66061971Y-38649196D01*
X66040347Y-38638968D01*
X66019830Y-38626671D01*
X66000617Y-38612421D01*
X65982893Y-38596357D01*
X65966829Y-38578633D01*
X65952579Y-38559420D01*
X65940282Y-38538903D01*
X65930054Y-38517279D01*
X65921996Y-38494757D01*
X65916184Y-38471553D01*
X65912674Y-38447892D01*
X65911500Y-38424000D01*
X65911500Y-37936500D01*
X65912674Y-37912608D01*
X65916184Y-37888947D01*
X65921996Y-37865743D01*
X65930054Y-37843221D01*
X65940282Y-37821597D01*
X65952579Y-37801080D01*
X65966829Y-37781867D01*
X65982893Y-37764143D01*
X66000617Y-37748079D01*
X66019830Y-37733829D01*
X66040347Y-37721532D01*
X66061971Y-37711304D01*
X66084493Y-37703246D01*
X66107697Y-37697434D01*
X66131358Y-37693924D01*
X66155250Y-37692750D01*
X67067750Y-37692750D01*
X67091642Y-37693924D01*
X67091642Y-37693924D01*
G37*
D11*
X66611500Y-38180250D03*
D10*
G36*
X64900892Y-37693924D02*
G01*
X64924553Y-37697434D01*
X64947757Y-37703246D01*
X64970279Y-37711304D01*
X64991903Y-37721532D01*
X65012420Y-37733829D01*
X65031633Y-37748079D01*
X65049357Y-37764143D01*
X65065421Y-37781867D01*
X65079671Y-37801080D01*
X65091968Y-37821597D01*
X65102196Y-37843221D01*
X65110254Y-37865743D01*
X65116066Y-37888947D01*
X65119576Y-37912608D01*
X65120750Y-37936500D01*
X65120750Y-38424000D01*
X65119576Y-38447892D01*
X65116066Y-38471553D01*
X65110254Y-38494757D01*
X65102196Y-38517279D01*
X65091968Y-38538903D01*
X65079671Y-38559420D01*
X65065421Y-38578633D01*
X65049357Y-38596357D01*
X65031633Y-38612421D01*
X65012420Y-38626671D01*
X64991903Y-38638968D01*
X64970279Y-38649196D01*
X64947757Y-38657254D01*
X64924553Y-38663066D01*
X64900892Y-38666576D01*
X64877000Y-38667750D01*
X63964500Y-38667750D01*
X63940608Y-38666576D01*
X63916947Y-38663066D01*
X63893743Y-38657254D01*
X63871221Y-38649196D01*
X63849597Y-38638968D01*
X63829080Y-38626671D01*
X63809867Y-38612421D01*
X63792143Y-38596357D01*
X63776079Y-38578633D01*
X63761829Y-38559420D01*
X63749532Y-38538903D01*
X63739304Y-38517279D01*
X63731246Y-38494757D01*
X63725434Y-38471553D01*
X63721924Y-38447892D01*
X63720750Y-38424000D01*
X63720750Y-37936500D01*
X63721924Y-37912608D01*
X63725434Y-37888947D01*
X63731246Y-37865743D01*
X63739304Y-37843221D01*
X63749532Y-37821597D01*
X63761829Y-37801080D01*
X63776079Y-37781867D01*
X63792143Y-37764143D01*
X63809867Y-37748079D01*
X63829080Y-37733829D01*
X63849597Y-37721532D01*
X63871221Y-37711304D01*
X63893743Y-37703246D01*
X63916947Y-37697434D01*
X63940608Y-37693924D01*
X63964500Y-37692750D01*
X64877000Y-37692750D01*
X64900892Y-37693924D01*
X64900892Y-37693924D01*
G37*
D11*
X64420750Y-38180250D03*
D10*
G36*
X64900892Y-35818924D02*
G01*
X64924553Y-35822434D01*
X64947757Y-35828246D01*
X64970279Y-35836304D01*
X64991903Y-35846532D01*
X65012420Y-35858829D01*
X65031633Y-35873079D01*
X65049357Y-35889143D01*
X65065421Y-35906867D01*
X65079671Y-35926080D01*
X65091968Y-35946597D01*
X65102196Y-35968221D01*
X65110254Y-35990743D01*
X65116066Y-36013947D01*
X65119576Y-36037608D01*
X65120750Y-36061500D01*
X65120750Y-36549000D01*
X65119576Y-36572892D01*
X65116066Y-36596553D01*
X65110254Y-36619757D01*
X65102196Y-36642279D01*
X65091968Y-36663903D01*
X65079671Y-36684420D01*
X65065421Y-36703633D01*
X65049357Y-36721357D01*
X65031633Y-36737421D01*
X65012420Y-36751671D01*
X64991903Y-36763968D01*
X64970279Y-36774196D01*
X64947757Y-36782254D01*
X64924553Y-36788066D01*
X64900892Y-36791576D01*
X64877000Y-36792750D01*
X63964500Y-36792750D01*
X63940608Y-36791576D01*
X63916947Y-36788066D01*
X63893743Y-36782254D01*
X63871221Y-36774196D01*
X63849597Y-36763968D01*
X63829080Y-36751671D01*
X63809867Y-36737421D01*
X63792143Y-36721357D01*
X63776079Y-36703633D01*
X63761829Y-36684420D01*
X63749532Y-36663903D01*
X63739304Y-36642279D01*
X63731246Y-36619757D01*
X63725434Y-36596553D01*
X63721924Y-36572892D01*
X63720750Y-36549000D01*
X63720750Y-36061500D01*
X63721924Y-36037608D01*
X63725434Y-36013947D01*
X63731246Y-35990743D01*
X63739304Y-35968221D01*
X63749532Y-35946597D01*
X63761829Y-35926080D01*
X63776079Y-35906867D01*
X63792143Y-35889143D01*
X63809867Y-35873079D01*
X63829080Y-35858829D01*
X63849597Y-35846532D01*
X63871221Y-35836304D01*
X63893743Y-35828246D01*
X63916947Y-35822434D01*
X63940608Y-35818924D01*
X63964500Y-35817750D01*
X64877000Y-35817750D01*
X64900892Y-35818924D01*
X64900892Y-35818924D01*
G37*
D11*
X64420750Y-36305250D03*
D10*
G36*
X62519642Y-35818924D02*
G01*
X62543303Y-35822434D01*
X62566507Y-35828246D01*
X62589029Y-35836304D01*
X62610653Y-35846532D01*
X62631170Y-35858829D01*
X62650383Y-35873079D01*
X62668107Y-35889143D01*
X62684171Y-35906867D01*
X62698421Y-35926080D01*
X62710718Y-35946597D01*
X62720946Y-35968221D01*
X62729004Y-35990743D01*
X62734816Y-36013947D01*
X62738326Y-36037608D01*
X62739500Y-36061500D01*
X62739500Y-36549000D01*
X62738326Y-36572892D01*
X62734816Y-36596553D01*
X62729004Y-36619757D01*
X62720946Y-36642279D01*
X62710718Y-36663903D01*
X62698421Y-36684420D01*
X62684171Y-36703633D01*
X62668107Y-36721357D01*
X62650383Y-36737421D01*
X62631170Y-36751671D01*
X62610653Y-36763968D01*
X62589029Y-36774196D01*
X62566507Y-36782254D01*
X62543303Y-36788066D01*
X62519642Y-36791576D01*
X62495750Y-36792750D01*
X61583250Y-36792750D01*
X61559358Y-36791576D01*
X61535697Y-36788066D01*
X61512493Y-36782254D01*
X61489971Y-36774196D01*
X61468347Y-36763968D01*
X61447830Y-36751671D01*
X61428617Y-36737421D01*
X61410893Y-36721357D01*
X61394829Y-36703633D01*
X61380579Y-36684420D01*
X61368282Y-36663903D01*
X61358054Y-36642279D01*
X61349996Y-36619757D01*
X61344184Y-36596553D01*
X61340674Y-36572892D01*
X61339500Y-36549000D01*
X61339500Y-36061500D01*
X61340674Y-36037608D01*
X61344184Y-36013947D01*
X61349996Y-35990743D01*
X61358054Y-35968221D01*
X61368282Y-35946597D01*
X61380579Y-35926080D01*
X61394829Y-35906867D01*
X61410893Y-35889143D01*
X61428617Y-35873079D01*
X61447830Y-35858829D01*
X61468347Y-35846532D01*
X61489971Y-35836304D01*
X61512493Y-35828246D01*
X61535697Y-35822434D01*
X61559358Y-35818924D01*
X61583250Y-35817750D01*
X62495750Y-35817750D01*
X62519642Y-35818924D01*
X62519642Y-35818924D01*
G37*
D11*
X62039500Y-36305250D03*
D10*
G36*
X62519642Y-37693924D02*
G01*
X62543303Y-37697434D01*
X62566507Y-37703246D01*
X62589029Y-37711304D01*
X62610653Y-37721532D01*
X62631170Y-37733829D01*
X62650383Y-37748079D01*
X62668107Y-37764143D01*
X62684171Y-37781867D01*
X62698421Y-37801080D01*
X62710718Y-37821597D01*
X62720946Y-37843221D01*
X62729004Y-37865743D01*
X62734816Y-37888947D01*
X62738326Y-37912608D01*
X62739500Y-37936500D01*
X62739500Y-38424000D01*
X62738326Y-38447892D01*
X62734816Y-38471553D01*
X62729004Y-38494757D01*
X62720946Y-38517279D01*
X62710718Y-38538903D01*
X62698421Y-38559420D01*
X62684171Y-38578633D01*
X62668107Y-38596357D01*
X62650383Y-38612421D01*
X62631170Y-38626671D01*
X62610653Y-38638968D01*
X62589029Y-38649196D01*
X62566507Y-38657254D01*
X62543303Y-38663066D01*
X62519642Y-38666576D01*
X62495750Y-38667750D01*
X61583250Y-38667750D01*
X61559358Y-38666576D01*
X61535697Y-38663066D01*
X61512493Y-38657254D01*
X61489971Y-38649196D01*
X61468347Y-38638968D01*
X61447830Y-38626671D01*
X61428617Y-38612421D01*
X61410893Y-38596357D01*
X61394829Y-38578633D01*
X61380579Y-38559420D01*
X61368282Y-38538903D01*
X61358054Y-38517279D01*
X61349996Y-38494757D01*
X61344184Y-38471553D01*
X61340674Y-38447892D01*
X61339500Y-38424000D01*
X61339500Y-37936500D01*
X61340674Y-37912608D01*
X61344184Y-37888947D01*
X61349996Y-37865743D01*
X61358054Y-37843221D01*
X61368282Y-37821597D01*
X61380579Y-37801080D01*
X61394829Y-37781867D01*
X61410893Y-37764143D01*
X61428617Y-37748079D01*
X61447830Y-37733829D01*
X61468347Y-37721532D01*
X61489971Y-37711304D01*
X61512493Y-37703246D01*
X61535697Y-37697434D01*
X61559358Y-37693924D01*
X61583250Y-37692750D01*
X62495750Y-37692750D01*
X62519642Y-37693924D01*
X62519642Y-37693924D01*
G37*
D11*
X62039500Y-38180250D03*
D10*
G36*
X60328892Y-37693924D02*
G01*
X60352553Y-37697434D01*
X60375757Y-37703246D01*
X60398279Y-37711304D01*
X60419903Y-37721532D01*
X60440420Y-37733829D01*
X60459633Y-37748079D01*
X60477357Y-37764143D01*
X60493421Y-37781867D01*
X60507671Y-37801080D01*
X60519968Y-37821597D01*
X60530196Y-37843221D01*
X60538254Y-37865743D01*
X60544066Y-37888947D01*
X60547576Y-37912608D01*
X60548750Y-37936500D01*
X60548750Y-38424000D01*
X60547576Y-38447892D01*
X60544066Y-38471553D01*
X60538254Y-38494757D01*
X60530196Y-38517279D01*
X60519968Y-38538903D01*
X60507671Y-38559420D01*
X60493421Y-38578633D01*
X60477357Y-38596357D01*
X60459633Y-38612421D01*
X60440420Y-38626671D01*
X60419903Y-38638968D01*
X60398279Y-38649196D01*
X60375757Y-38657254D01*
X60352553Y-38663066D01*
X60328892Y-38666576D01*
X60305000Y-38667750D01*
X59392500Y-38667750D01*
X59368608Y-38666576D01*
X59344947Y-38663066D01*
X59321743Y-38657254D01*
X59299221Y-38649196D01*
X59277597Y-38638968D01*
X59257080Y-38626671D01*
X59237867Y-38612421D01*
X59220143Y-38596357D01*
X59204079Y-38578633D01*
X59189829Y-38559420D01*
X59177532Y-38538903D01*
X59167304Y-38517279D01*
X59159246Y-38494757D01*
X59153434Y-38471553D01*
X59149924Y-38447892D01*
X59148750Y-38424000D01*
X59148750Y-37936500D01*
X59149924Y-37912608D01*
X59153434Y-37888947D01*
X59159246Y-37865743D01*
X59167304Y-37843221D01*
X59177532Y-37821597D01*
X59189829Y-37801080D01*
X59204079Y-37781867D01*
X59220143Y-37764143D01*
X59237867Y-37748079D01*
X59257080Y-37733829D01*
X59277597Y-37721532D01*
X59299221Y-37711304D01*
X59321743Y-37703246D01*
X59344947Y-37697434D01*
X59368608Y-37693924D01*
X59392500Y-37692750D01*
X60305000Y-37692750D01*
X60328892Y-37693924D01*
X60328892Y-37693924D01*
G37*
D11*
X59848750Y-38180250D03*
D10*
G36*
X60328892Y-35818924D02*
G01*
X60352553Y-35822434D01*
X60375757Y-35828246D01*
X60398279Y-35836304D01*
X60419903Y-35846532D01*
X60440420Y-35858829D01*
X60459633Y-35873079D01*
X60477357Y-35889143D01*
X60493421Y-35906867D01*
X60507671Y-35926080D01*
X60519968Y-35946597D01*
X60530196Y-35968221D01*
X60538254Y-35990743D01*
X60544066Y-36013947D01*
X60547576Y-36037608D01*
X60548750Y-36061500D01*
X60548750Y-36549000D01*
X60547576Y-36572892D01*
X60544066Y-36596553D01*
X60538254Y-36619757D01*
X60530196Y-36642279D01*
X60519968Y-36663903D01*
X60507671Y-36684420D01*
X60493421Y-36703633D01*
X60477357Y-36721357D01*
X60459633Y-36737421D01*
X60440420Y-36751671D01*
X60419903Y-36763968D01*
X60398279Y-36774196D01*
X60375757Y-36782254D01*
X60352553Y-36788066D01*
X60328892Y-36791576D01*
X60305000Y-36792750D01*
X59392500Y-36792750D01*
X59368608Y-36791576D01*
X59344947Y-36788066D01*
X59321743Y-36782254D01*
X59299221Y-36774196D01*
X59277597Y-36763968D01*
X59257080Y-36751671D01*
X59237867Y-36737421D01*
X59220143Y-36721357D01*
X59204079Y-36703633D01*
X59189829Y-36684420D01*
X59177532Y-36663903D01*
X59167304Y-36642279D01*
X59159246Y-36619757D01*
X59153434Y-36596553D01*
X59149924Y-36572892D01*
X59148750Y-36549000D01*
X59148750Y-36061500D01*
X59149924Y-36037608D01*
X59153434Y-36013947D01*
X59159246Y-35990743D01*
X59167304Y-35968221D01*
X59177532Y-35946597D01*
X59189829Y-35926080D01*
X59204079Y-35906867D01*
X59220143Y-35889143D01*
X59237867Y-35873079D01*
X59257080Y-35858829D01*
X59277597Y-35846532D01*
X59299221Y-35836304D01*
X59321743Y-35828246D01*
X59344947Y-35822434D01*
X59368608Y-35818924D01*
X59392500Y-35817750D01*
X60305000Y-35817750D01*
X60328892Y-35818924D01*
X60328892Y-35818924D01*
G37*
D11*
X59848750Y-36305250D03*
D10*
G36*
X57947642Y-35818924D02*
G01*
X57971303Y-35822434D01*
X57994507Y-35828246D01*
X58017029Y-35836304D01*
X58038653Y-35846532D01*
X58059170Y-35858829D01*
X58078383Y-35873079D01*
X58096107Y-35889143D01*
X58112171Y-35906867D01*
X58126421Y-35926080D01*
X58138718Y-35946597D01*
X58148946Y-35968221D01*
X58157004Y-35990743D01*
X58162816Y-36013947D01*
X58166326Y-36037608D01*
X58167500Y-36061500D01*
X58167500Y-36549000D01*
X58166326Y-36572892D01*
X58162816Y-36596553D01*
X58157004Y-36619757D01*
X58148946Y-36642279D01*
X58138718Y-36663903D01*
X58126421Y-36684420D01*
X58112171Y-36703633D01*
X58096107Y-36721357D01*
X58078383Y-36737421D01*
X58059170Y-36751671D01*
X58038653Y-36763968D01*
X58017029Y-36774196D01*
X57994507Y-36782254D01*
X57971303Y-36788066D01*
X57947642Y-36791576D01*
X57923750Y-36792750D01*
X57011250Y-36792750D01*
X56987358Y-36791576D01*
X56963697Y-36788066D01*
X56940493Y-36782254D01*
X56917971Y-36774196D01*
X56896347Y-36763968D01*
X56875830Y-36751671D01*
X56856617Y-36737421D01*
X56838893Y-36721357D01*
X56822829Y-36703633D01*
X56808579Y-36684420D01*
X56796282Y-36663903D01*
X56786054Y-36642279D01*
X56777996Y-36619757D01*
X56772184Y-36596553D01*
X56768674Y-36572892D01*
X56767500Y-36549000D01*
X56767500Y-36061500D01*
X56768674Y-36037608D01*
X56772184Y-36013947D01*
X56777996Y-35990743D01*
X56786054Y-35968221D01*
X56796282Y-35946597D01*
X56808579Y-35926080D01*
X56822829Y-35906867D01*
X56838893Y-35889143D01*
X56856617Y-35873079D01*
X56875830Y-35858829D01*
X56896347Y-35846532D01*
X56917971Y-35836304D01*
X56940493Y-35828246D01*
X56963697Y-35822434D01*
X56987358Y-35818924D01*
X57011250Y-35817750D01*
X57923750Y-35817750D01*
X57947642Y-35818924D01*
X57947642Y-35818924D01*
G37*
D11*
X57467500Y-36305250D03*
D10*
G36*
X57947642Y-37693924D02*
G01*
X57971303Y-37697434D01*
X57994507Y-37703246D01*
X58017029Y-37711304D01*
X58038653Y-37721532D01*
X58059170Y-37733829D01*
X58078383Y-37748079D01*
X58096107Y-37764143D01*
X58112171Y-37781867D01*
X58126421Y-37801080D01*
X58138718Y-37821597D01*
X58148946Y-37843221D01*
X58157004Y-37865743D01*
X58162816Y-37888947D01*
X58166326Y-37912608D01*
X58167500Y-37936500D01*
X58167500Y-38424000D01*
X58166326Y-38447892D01*
X58162816Y-38471553D01*
X58157004Y-38494757D01*
X58148946Y-38517279D01*
X58138718Y-38538903D01*
X58126421Y-38559420D01*
X58112171Y-38578633D01*
X58096107Y-38596357D01*
X58078383Y-38612421D01*
X58059170Y-38626671D01*
X58038653Y-38638968D01*
X58017029Y-38649196D01*
X57994507Y-38657254D01*
X57971303Y-38663066D01*
X57947642Y-38666576D01*
X57923750Y-38667750D01*
X57011250Y-38667750D01*
X56987358Y-38666576D01*
X56963697Y-38663066D01*
X56940493Y-38657254D01*
X56917971Y-38649196D01*
X56896347Y-38638968D01*
X56875830Y-38626671D01*
X56856617Y-38612421D01*
X56838893Y-38596357D01*
X56822829Y-38578633D01*
X56808579Y-38559420D01*
X56796282Y-38538903D01*
X56786054Y-38517279D01*
X56777996Y-38494757D01*
X56772184Y-38471553D01*
X56768674Y-38447892D01*
X56767500Y-38424000D01*
X56767500Y-37936500D01*
X56768674Y-37912608D01*
X56772184Y-37888947D01*
X56777996Y-37865743D01*
X56786054Y-37843221D01*
X56796282Y-37821597D01*
X56808579Y-37801080D01*
X56822829Y-37781867D01*
X56838893Y-37764143D01*
X56856617Y-37748079D01*
X56875830Y-37733829D01*
X56896347Y-37721532D01*
X56917971Y-37711304D01*
X56940493Y-37703246D01*
X56963697Y-37697434D01*
X56987358Y-37693924D01*
X57011250Y-37692750D01*
X57923750Y-37692750D01*
X57947642Y-37693924D01*
X57947642Y-37693924D01*
G37*
D11*
X57467500Y-38180250D03*
D10*
G36*
X55756892Y-35818924D02*
G01*
X55780553Y-35822434D01*
X55803757Y-35828246D01*
X55826279Y-35836304D01*
X55847903Y-35846532D01*
X55868420Y-35858829D01*
X55887633Y-35873079D01*
X55905357Y-35889143D01*
X55921421Y-35906867D01*
X55935671Y-35926080D01*
X55947968Y-35946597D01*
X55958196Y-35968221D01*
X55966254Y-35990743D01*
X55972066Y-36013947D01*
X55975576Y-36037608D01*
X55976750Y-36061500D01*
X55976750Y-36549000D01*
X55975576Y-36572892D01*
X55972066Y-36596553D01*
X55966254Y-36619757D01*
X55958196Y-36642279D01*
X55947968Y-36663903D01*
X55935671Y-36684420D01*
X55921421Y-36703633D01*
X55905357Y-36721357D01*
X55887633Y-36737421D01*
X55868420Y-36751671D01*
X55847903Y-36763968D01*
X55826279Y-36774196D01*
X55803757Y-36782254D01*
X55780553Y-36788066D01*
X55756892Y-36791576D01*
X55733000Y-36792750D01*
X54820500Y-36792750D01*
X54796608Y-36791576D01*
X54772947Y-36788066D01*
X54749743Y-36782254D01*
X54727221Y-36774196D01*
X54705597Y-36763968D01*
X54685080Y-36751671D01*
X54665867Y-36737421D01*
X54648143Y-36721357D01*
X54632079Y-36703633D01*
X54617829Y-36684420D01*
X54605532Y-36663903D01*
X54595304Y-36642279D01*
X54587246Y-36619757D01*
X54581434Y-36596553D01*
X54577924Y-36572892D01*
X54576750Y-36549000D01*
X54576750Y-36061500D01*
X54577924Y-36037608D01*
X54581434Y-36013947D01*
X54587246Y-35990743D01*
X54595304Y-35968221D01*
X54605532Y-35946597D01*
X54617829Y-35926080D01*
X54632079Y-35906867D01*
X54648143Y-35889143D01*
X54665867Y-35873079D01*
X54685080Y-35858829D01*
X54705597Y-35846532D01*
X54727221Y-35836304D01*
X54749743Y-35828246D01*
X54772947Y-35822434D01*
X54796608Y-35818924D01*
X54820500Y-35817750D01*
X55733000Y-35817750D01*
X55756892Y-35818924D01*
X55756892Y-35818924D01*
G37*
D11*
X55276750Y-36305250D03*
D10*
G36*
X55756892Y-37693924D02*
G01*
X55780553Y-37697434D01*
X55803757Y-37703246D01*
X55826279Y-37711304D01*
X55847903Y-37721532D01*
X55868420Y-37733829D01*
X55887633Y-37748079D01*
X55905357Y-37764143D01*
X55921421Y-37781867D01*
X55935671Y-37801080D01*
X55947968Y-37821597D01*
X55958196Y-37843221D01*
X55966254Y-37865743D01*
X55972066Y-37888947D01*
X55975576Y-37912608D01*
X55976750Y-37936500D01*
X55976750Y-38424000D01*
X55975576Y-38447892D01*
X55972066Y-38471553D01*
X55966254Y-38494757D01*
X55958196Y-38517279D01*
X55947968Y-38538903D01*
X55935671Y-38559420D01*
X55921421Y-38578633D01*
X55905357Y-38596357D01*
X55887633Y-38612421D01*
X55868420Y-38626671D01*
X55847903Y-38638968D01*
X55826279Y-38649196D01*
X55803757Y-38657254D01*
X55780553Y-38663066D01*
X55756892Y-38666576D01*
X55733000Y-38667750D01*
X54820500Y-38667750D01*
X54796608Y-38666576D01*
X54772947Y-38663066D01*
X54749743Y-38657254D01*
X54727221Y-38649196D01*
X54705597Y-38638968D01*
X54685080Y-38626671D01*
X54665867Y-38612421D01*
X54648143Y-38596357D01*
X54632079Y-38578633D01*
X54617829Y-38559420D01*
X54605532Y-38538903D01*
X54595304Y-38517279D01*
X54587246Y-38494757D01*
X54581434Y-38471553D01*
X54577924Y-38447892D01*
X54576750Y-38424000D01*
X54576750Y-37936500D01*
X54577924Y-37912608D01*
X54581434Y-37888947D01*
X54587246Y-37865743D01*
X54595304Y-37843221D01*
X54605532Y-37821597D01*
X54617829Y-37801080D01*
X54632079Y-37781867D01*
X54648143Y-37764143D01*
X54665867Y-37748079D01*
X54685080Y-37733829D01*
X54705597Y-37721532D01*
X54727221Y-37711304D01*
X54749743Y-37703246D01*
X54772947Y-37697434D01*
X54796608Y-37693924D01*
X54820500Y-37692750D01*
X55733000Y-37692750D01*
X55756892Y-37693924D01*
X55756892Y-37693924D01*
G37*
D11*
X55276750Y-38180250D03*
D10*
G36*
X53375642Y-37693924D02*
G01*
X53399303Y-37697434D01*
X53422507Y-37703246D01*
X53445029Y-37711304D01*
X53466653Y-37721532D01*
X53487170Y-37733829D01*
X53506383Y-37748079D01*
X53524107Y-37764143D01*
X53540171Y-37781867D01*
X53554421Y-37801080D01*
X53566718Y-37821597D01*
X53576946Y-37843221D01*
X53585004Y-37865743D01*
X53590816Y-37888947D01*
X53594326Y-37912608D01*
X53595500Y-37936500D01*
X53595500Y-38424000D01*
X53594326Y-38447892D01*
X53590816Y-38471553D01*
X53585004Y-38494757D01*
X53576946Y-38517279D01*
X53566718Y-38538903D01*
X53554421Y-38559420D01*
X53540171Y-38578633D01*
X53524107Y-38596357D01*
X53506383Y-38612421D01*
X53487170Y-38626671D01*
X53466653Y-38638968D01*
X53445029Y-38649196D01*
X53422507Y-38657254D01*
X53399303Y-38663066D01*
X53375642Y-38666576D01*
X53351750Y-38667750D01*
X52439250Y-38667750D01*
X52415358Y-38666576D01*
X52391697Y-38663066D01*
X52368493Y-38657254D01*
X52345971Y-38649196D01*
X52324347Y-38638968D01*
X52303830Y-38626671D01*
X52284617Y-38612421D01*
X52266893Y-38596357D01*
X52250829Y-38578633D01*
X52236579Y-38559420D01*
X52224282Y-38538903D01*
X52214054Y-38517279D01*
X52205996Y-38494757D01*
X52200184Y-38471553D01*
X52196674Y-38447892D01*
X52195500Y-38424000D01*
X52195500Y-37936500D01*
X52196674Y-37912608D01*
X52200184Y-37888947D01*
X52205996Y-37865743D01*
X52214054Y-37843221D01*
X52224282Y-37821597D01*
X52236579Y-37801080D01*
X52250829Y-37781867D01*
X52266893Y-37764143D01*
X52284617Y-37748079D01*
X52303830Y-37733829D01*
X52324347Y-37721532D01*
X52345971Y-37711304D01*
X52368493Y-37703246D01*
X52391697Y-37697434D01*
X52415358Y-37693924D01*
X52439250Y-37692750D01*
X53351750Y-37692750D01*
X53375642Y-37693924D01*
X53375642Y-37693924D01*
G37*
D11*
X52895500Y-38180250D03*
D10*
G36*
X53375642Y-35818924D02*
G01*
X53399303Y-35822434D01*
X53422507Y-35828246D01*
X53445029Y-35836304D01*
X53466653Y-35846532D01*
X53487170Y-35858829D01*
X53506383Y-35873079D01*
X53524107Y-35889143D01*
X53540171Y-35906867D01*
X53554421Y-35926080D01*
X53566718Y-35946597D01*
X53576946Y-35968221D01*
X53585004Y-35990743D01*
X53590816Y-36013947D01*
X53594326Y-36037608D01*
X53595500Y-36061500D01*
X53595500Y-36549000D01*
X53594326Y-36572892D01*
X53590816Y-36596553D01*
X53585004Y-36619757D01*
X53576946Y-36642279D01*
X53566718Y-36663903D01*
X53554421Y-36684420D01*
X53540171Y-36703633D01*
X53524107Y-36721357D01*
X53506383Y-36737421D01*
X53487170Y-36751671D01*
X53466653Y-36763968D01*
X53445029Y-36774196D01*
X53422507Y-36782254D01*
X53399303Y-36788066D01*
X53375642Y-36791576D01*
X53351750Y-36792750D01*
X52439250Y-36792750D01*
X52415358Y-36791576D01*
X52391697Y-36788066D01*
X52368493Y-36782254D01*
X52345971Y-36774196D01*
X52324347Y-36763968D01*
X52303830Y-36751671D01*
X52284617Y-36737421D01*
X52266893Y-36721357D01*
X52250829Y-36703633D01*
X52236579Y-36684420D01*
X52224282Y-36663903D01*
X52214054Y-36642279D01*
X52205996Y-36619757D01*
X52200184Y-36596553D01*
X52196674Y-36572892D01*
X52195500Y-36549000D01*
X52195500Y-36061500D01*
X52196674Y-36037608D01*
X52200184Y-36013947D01*
X52205996Y-35990743D01*
X52214054Y-35968221D01*
X52224282Y-35946597D01*
X52236579Y-35926080D01*
X52250829Y-35906867D01*
X52266893Y-35889143D01*
X52284617Y-35873079D01*
X52303830Y-35858829D01*
X52324347Y-35846532D01*
X52345971Y-35836304D01*
X52368493Y-35828246D01*
X52391697Y-35822434D01*
X52415358Y-35818924D01*
X52439250Y-35817750D01*
X53351750Y-35817750D01*
X53375642Y-35818924D01*
X53375642Y-35818924D01*
G37*
D11*
X52895500Y-36305250D03*
D12*
X108775000Y-46181250D03*
X107975000Y-46181250D03*
X107175000Y-46181250D03*
X106375000Y-46181250D03*
X105575000Y-46181250D03*
X104775000Y-46181250D03*
X103975000Y-46181250D03*
X103175000Y-46181250D03*
X102375000Y-46181250D03*
X101575000Y-46181250D03*
X100775000Y-46181250D03*
D13*
X99075000Y-44481250D03*
X99075000Y-43681250D03*
X99075000Y-42881250D03*
X99075000Y-42081250D03*
X99075000Y-41281250D03*
X99075000Y-40481250D03*
X99075000Y-39681250D03*
X99075000Y-38881250D03*
X99075000Y-38081250D03*
X99075000Y-37281250D03*
X99075000Y-36481250D03*
D12*
X100775000Y-34781250D03*
X101575000Y-34781250D03*
X102375000Y-34781250D03*
X103175000Y-34781250D03*
X103975000Y-34781250D03*
X104775000Y-34781250D03*
X105575000Y-34781250D03*
X106375000Y-34781250D03*
X107175000Y-34781250D03*
X107975000Y-34781250D03*
X108775000Y-34781250D03*
D13*
X110475000Y-36481250D03*
X110475000Y-37281250D03*
X110475000Y-38081250D03*
X110475000Y-38881250D03*
X110475000Y-39681250D03*
X110475000Y-40481250D03*
X110475000Y-41281250D03*
X110475000Y-42081250D03*
X110475000Y-42881250D03*
X110475000Y-43681250D03*
X110475000Y-44481250D03*
D10*
G36*
X93928065Y-36247362D02*
G01*
X93951726Y-36250872D01*
X93974930Y-36256684D01*
X93997452Y-36264742D01*
X94019076Y-36274970D01*
X94039593Y-36287267D01*
X94058806Y-36301517D01*
X94076530Y-36317581D01*
X94421245Y-36662296D01*
X94437309Y-36680020D01*
X94451559Y-36699233D01*
X94463856Y-36719750D01*
X94474084Y-36741374D01*
X94482142Y-36763896D01*
X94487954Y-36787100D01*
X94491464Y-36810761D01*
X94492638Y-36834653D01*
X94491464Y-36858545D01*
X94487954Y-36882206D01*
X94482142Y-36905410D01*
X94474084Y-36927932D01*
X94463856Y-36949556D01*
X94451559Y-36970073D01*
X94437309Y-36989286D01*
X94421245Y-37007010D01*
X93776010Y-37652245D01*
X93758286Y-37668309D01*
X93739073Y-37682559D01*
X93718556Y-37694856D01*
X93696932Y-37705084D01*
X93674410Y-37713142D01*
X93651206Y-37718954D01*
X93627545Y-37722464D01*
X93603653Y-37723638D01*
X93579761Y-37722464D01*
X93556100Y-37718954D01*
X93532896Y-37713142D01*
X93510374Y-37705084D01*
X93488750Y-37694856D01*
X93468233Y-37682559D01*
X93449020Y-37668309D01*
X93431296Y-37652245D01*
X93086581Y-37307530D01*
X93070517Y-37289806D01*
X93056267Y-37270593D01*
X93043970Y-37250076D01*
X93033742Y-37228452D01*
X93025684Y-37205930D01*
X93019872Y-37182726D01*
X93016362Y-37159065D01*
X93015188Y-37135173D01*
X93016362Y-37111281D01*
X93019872Y-37087620D01*
X93025684Y-37064416D01*
X93033742Y-37041894D01*
X93043970Y-37020270D01*
X93056267Y-36999753D01*
X93070517Y-36980540D01*
X93086581Y-36962816D01*
X93731816Y-36317581D01*
X93749540Y-36301517D01*
X93768753Y-36287267D01*
X93789270Y-36274970D01*
X93810894Y-36264742D01*
X93833416Y-36256684D01*
X93856620Y-36250872D01*
X93880281Y-36247362D01*
X93904173Y-36246188D01*
X93928065Y-36247362D01*
X93928065Y-36247362D01*
G37*
D11*
X93753913Y-36984913D03*
D10*
G36*
X92602239Y-34921536D02*
G01*
X92625900Y-34925046D01*
X92649104Y-34930858D01*
X92671626Y-34938916D01*
X92693250Y-34949144D01*
X92713767Y-34961441D01*
X92732980Y-34975691D01*
X92750704Y-34991755D01*
X93095419Y-35336470D01*
X93111483Y-35354194D01*
X93125733Y-35373407D01*
X93138030Y-35393924D01*
X93148258Y-35415548D01*
X93156316Y-35438070D01*
X93162128Y-35461274D01*
X93165638Y-35484935D01*
X93166812Y-35508827D01*
X93165638Y-35532719D01*
X93162128Y-35556380D01*
X93156316Y-35579584D01*
X93148258Y-35602106D01*
X93138030Y-35623730D01*
X93125733Y-35644247D01*
X93111483Y-35663460D01*
X93095419Y-35681184D01*
X92450184Y-36326419D01*
X92432460Y-36342483D01*
X92413247Y-36356733D01*
X92392730Y-36369030D01*
X92371106Y-36379258D01*
X92348584Y-36387316D01*
X92325380Y-36393128D01*
X92301719Y-36396638D01*
X92277827Y-36397812D01*
X92253935Y-36396638D01*
X92230274Y-36393128D01*
X92207070Y-36387316D01*
X92184548Y-36379258D01*
X92162924Y-36369030D01*
X92142407Y-36356733D01*
X92123194Y-36342483D01*
X92105470Y-36326419D01*
X91760755Y-35981704D01*
X91744691Y-35963980D01*
X91730441Y-35944767D01*
X91718144Y-35924250D01*
X91707916Y-35902626D01*
X91699858Y-35880104D01*
X91694046Y-35856900D01*
X91690536Y-35833239D01*
X91689362Y-35809347D01*
X91690536Y-35785455D01*
X91694046Y-35761794D01*
X91699858Y-35738590D01*
X91707916Y-35716068D01*
X91718144Y-35694444D01*
X91730441Y-35673927D01*
X91744691Y-35654714D01*
X91760755Y-35636990D01*
X92405990Y-34991755D01*
X92423714Y-34975691D01*
X92442927Y-34961441D01*
X92463444Y-34949144D01*
X92485068Y-34938916D01*
X92507590Y-34930858D01*
X92530794Y-34925046D01*
X92554455Y-34921536D01*
X92578347Y-34920362D01*
X92602239Y-34921536D01*
X92602239Y-34921536D01*
G37*
D11*
X92428087Y-35659087D03*
D10*
G36*
X87133565Y-43803862D02*
G01*
X87157226Y-43807372D01*
X87180430Y-43813184D01*
X87202952Y-43821242D01*
X87224576Y-43831470D01*
X87245093Y-43843767D01*
X87264306Y-43858017D01*
X87282030Y-43874081D01*
X87626745Y-44218796D01*
X87642809Y-44236520D01*
X87657059Y-44255733D01*
X87669356Y-44276250D01*
X87679584Y-44297874D01*
X87687642Y-44320396D01*
X87693454Y-44343600D01*
X87696964Y-44367261D01*
X87698138Y-44391153D01*
X87696964Y-44415045D01*
X87693454Y-44438706D01*
X87687642Y-44461910D01*
X87679584Y-44484432D01*
X87669356Y-44506056D01*
X87657059Y-44526573D01*
X87642809Y-44545786D01*
X87626745Y-44563510D01*
X86981510Y-45208745D01*
X86963786Y-45224809D01*
X86944573Y-45239059D01*
X86924056Y-45251356D01*
X86902432Y-45261584D01*
X86879910Y-45269642D01*
X86856706Y-45275454D01*
X86833045Y-45278964D01*
X86809153Y-45280138D01*
X86785261Y-45278964D01*
X86761600Y-45275454D01*
X86738396Y-45269642D01*
X86715874Y-45261584D01*
X86694250Y-45251356D01*
X86673733Y-45239059D01*
X86654520Y-45224809D01*
X86636796Y-45208745D01*
X86292081Y-44864030D01*
X86276017Y-44846306D01*
X86261767Y-44827093D01*
X86249470Y-44806576D01*
X86239242Y-44784952D01*
X86231184Y-44762430D01*
X86225372Y-44739226D01*
X86221862Y-44715565D01*
X86220688Y-44691673D01*
X86221862Y-44667781D01*
X86225372Y-44644120D01*
X86231184Y-44620916D01*
X86239242Y-44598394D01*
X86249470Y-44576770D01*
X86261767Y-44556253D01*
X86276017Y-44537040D01*
X86292081Y-44519316D01*
X86937316Y-43874081D01*
X86955040Y-43858017D01*
X86974253Y-43843767D01*
X86994770Y-43831470D01*
X87016394Y-43821242D01*
X87038916Y-43813184D01*
X87062120Y-43807372D01*
X87085781Y-43803862D01*
X87109673Y-43802688D01*
X87133565Y-43803862D01*
X87133565Y-43803862D01*
G37*
D11*
X86959413Y-44541413D03*
D10*
G36*
X85807739Y-42478036D02*
G01*
X85831400Y-42481546D01*
X85854604Y-42487358D01*
X85877126Y-42495416D01*
X85898750Y-42505644D01*
X85919267Y-42517941D01*
X85938480Y-42532191D01*
X85956204Y-42548255D01*
X86300919Y-42892970D01*
X86316983Y-42910694D01*
X86331233Y-42929907D01*
X86343530Y-42950424D01*
X86353758Y-42972048D01*
X86361816Y-42994570D01*
X86367628Y-43017774D01*
X86371138Y-43041435D01*
X86372312Y-43065327D01*
X86371138Y-43089219D01*
X86367628Y-43112880D01*
X86361816Y-43136084D01*
X86353758Y-43158606D01*
X86343530Y-43180230D01*
X86331233Y-43200747D01*
X86316983Y-43219960D01*
X86300919Y-43237684D01*
X85655684Y-43882919D01*
X85637960Y-43898983D01*
X85618747Y-43913233D01*
X85598230Y-43925530D01*
X85576606Y-43935758D01*
X85554084Y-43943816D01*
X85530880Y-43949628D01*
X85507219Y-43953138D01*
X85483327Y-43954312D01*
X85459435Y-43953138D01*
X85435774Y-43949628D01*
X85412570Y-43943816D01*
X85390048Y-43935758D01*
X85368424Y-43925530D01*
X85347907Y-43913233D01*
X85328694Y-43898983D01*
X85310970Y-43882919D01*
X84966255Y-43538204D01*
X84950191Y-43520480D01*
X84935941Y-43501267D01*
X84923644Y-43480750D01*
X84913416Y-43459126D01*
X84905358Y-43436604D01*
X84899546Y-43413400D01*
X84896036Y-43389739D01*
X84894862Y-43365847D01*
X84896036Y-43341955D01*
X84899546Y-43318294D01*
X84905358Y-43295090D01*
X84913416Y-43272568D01*
X84923644Y-43250944D01*
X84935941Y-43230427D01*
X84950191Y-43211214D01*
X84966255Y-43193490D01*
X85611490Y-42548255D01*
X85629214Y-42532191D01*
X85648427Y-42517941D01*
X85668944Y-42505644D01*
X85690568Y-42495416D01*
X85713090Y-42487358D01*
X85736294Y-42481546D01*
X85759955Y-42478036D01*
X85783847Y-42476862D01*
X85807739Y-42478036D01*
X85807739Y-42478036D01*
G37*
D11*
X85633587Y-43215587D03*
D10*
G36*
X95603142Y-45536174D02*
G01*
X95626803Y-45539684D01*
X95650007Y-45545496D01*
X95672529Y-45553554D01*
X95694153Y-45563782D01*
X95714670Y-45576079D01*
X95733883Y-45590329D01*
X95751607Y-45606393D01*
X95767671Y-45624117D01*
X95781921Y-45643330D01*
X95794218Y-45663847D01*
X95804446Y-45685471D01*
X95812504Y-45707993D01*
X95818316Y-45731197D01*
X95821826Y-45754858D01*
X95823000Y-45778750D01*
X95823000Y-46266250D01*
X95821826Y-46290142D01*
X95818316Y-46313803D01*
X95812504Y-46337007D01*
X95804446Y-46359529D01*
X95794218Y-46381153D01*
X95781921Y-46401670D01*
X95767671Y-46420883D01*
X95751607Y-46438607D01*
X95733883Y-46454671D01*
X95714670Y-46468921D01*
X95694153Y-46481218D01*
X95672529Y-46491446D01*
X95650007Y-46499504D01*
X95626803Y-46505316D01*
X95603142Y-46508826D01*
X95579250Y-46510000D01*
X94666750Y-46510000D01*
X94642858Y-46508826D01*
X94619197Y-46505316D01*
X94595993Y-46499504D01*
X94573471Y-46491446D01*
X94551847Y-46481218D01*
X94531330Y-46468921D01*
X94512117Y-46454671D01*
X94494393Y-46438607D01*
X94478329Y-46420883D01*
X94464079Y-46401670D01*
X94451782Y-46381153D01*
X94441554Y-46359529D01*
X94433496Y-46337007D01*
X94427684Y-46313803D01*
X94424174Y-46290142D01*
X94423000Y-46266250D01*
X94423000Y-45778750D01*
X94424174Y-45754858D01*
X94427684Y-45731197D01*
X94433496Y-45707993D01*
X94441554Y-45685471D01*
X94451782Y-45663847D01*
X94464079Y-45643330D01*
X94478329Y-45624117D01*
X94494393Y-45606393D01*
X94512117Y-45590329D01*
X94531330Y-45576079D01*
X94551847Y-45563782D01*
X94573471Y-45553554D01*
X94595993Y-45545496D01*
X94619197Y-45539684D01*
X94642858Y-45536174D01*
X94666750Y-45535000D01*
X95579250Y-45535000D01*
X95603142Y-45536174D01*
X95603142Y-45536174D01*
G37*
D11*
X95123000Y-46022500D03*
D10*
G36*
X95603142Y-43661174D02*
G01*
X95626803Y-43664684D01*
X95650007Y-43670496D01*
X95672529Y-43678554D01*
X95694153Y-43688782D01*
X95714670Y-43701079D01*
X95733883Y-43715329D01*
X95751607Y-43731393D01*
X95767671Y-43749117D01*
X95781921Y-43768330D01*
X95794218Y-43788847D01*
X95804446Y-43810471D01*
X95812504Y-43832993D01*
X95818316Y-43856197D01*
X95821826Y-43879858D01*
X95823000Y-43903750D01*
X95823000Y-44391250D01*
X95821826Y-44415142D01*
X95818316Y-44438803D01*
X95812504Y-44462007D01*
X95804446Y-44484529D01*
X95794218Y-44506153D01*
X95781921Y-44526670D01*
X95767671Y-44545883D01*
X95751607Y-44563607D01*
X95733883Y-44579671D01*
X95714670Y-44593921D01*
X95694153Y-44606218D01*
X95672529Y-44616446D01*
X95650007Y-44624504D01*
X95626803Y-44630316D01*
X95603142Y-44633826D01*
X95579250Y-44635000D01*
X94666750Y-44635000D01*
X94642858Y-44633826D01*
X94619197Y-44630316D01*
X94595993Y-44624504D01*
X94573471Y-44616446D01*
X94551847Y-44606218D01*
X94531330Y-44593921D01*
X94512117Y-44579671D01*
X94494393Y-44563607D01*
X94478329Y-44545883D01*
X94464079Y-44526670D01*
X94451782Y-44506153D01*
X94441554Y-44484529D01*
X94433496Y-44462007D01*
X94427684Y-44438803D01*
X94424174Y-44415142D01*
X94423000Y-44391250D01*
X94423000Y-43903750D01*
X94424174Y-43879858D01*
X94427684Y-43856197D01*
X94433496Y-43832993D01*
X94441554Y-43810471D01*
X94451782Y-43788847D01*
X94464079Y-43768330D01*
X94478329Y-43749117D01*
X94494393Y-43731393D01*
X94512117Y-43715329D01*
X94531330Y-43701079D01*
X94551847Y-43688782D01*
X94573471Y-43678554D01*
X94595993Y-43670496D01*
X94619197Y-43664684D01*
X94642858Y-43661174D01*
X94666750Y-43660000D01*
X95579250Y-43660000D01*
X95603142Y-43661174D01*
X95603142Y-43661174D01*
G37*
D11*
X95123000Y-44147500D03*
D10*
G36*
X116011392Y-37401174D02*
G01*
X116035053Y-37404684D01*
X116058257Y-37410496D01*
X116080779Y-37418554D01*
X116102403Y-37428782D01*
X116122920Y-37441079D01*
X116142133Y-37455329D01*
X116159857Y-37471393D01*
X116175921Y-37489117D01*
X116190171Y-37508330D01*
X116202468Y-37528847D01*
X116212696Y-37550471D01*
X116220754Y-37572993D01*
X116226566Y-37596197D01*
X116230076Y-37619858D01*
X116231250Y-37643750D01*
X116231250Y-38556250D01*
X116230076Y-38580142D01*
X116226566Y-38603803D01*
X116220754Y-38627007D01*
X116212696Y-38649529D01*
X116202468Y-38671153D01*
X116190171Y-38691670D01*
X116175921Y-38710883D01*
X116159857Y-38728607D01*
X116142133Y-38744671D01*
X116122920Y-38758921D01*
X116102403Y-38771218D01*
X116080779Y-38781446D01*
X116058257Y-38789504D01*
X116035053Y-38795316D01*
X116011392Y-38798826D01*
X115987500Y-38800000D01*
X115500000Y-38800000D01*
X115476108Y-38798826D01*
X115452447Y-38795316D01*
X115429243Y-38789504D01*
X115406721Y-38781446D01*
X115385097Y-38771218D01*
X115364580Y-38758921D01*
X115345367Y-38744671D01*
X115327643Y-38728607D01*
X115311579Y-38710883D01*
X115297329Y-38691670D01*
X115285032Y-38671153D01*
X115274804Y-38649529D01*
X115266746Y-38627007D01*
X115260934Y-38603803D01*
X115257424Y-38580142D01*
X115256250Y-38556250D01*
X115256250Y-37643750D01*
X115257424Y-37619858D01*
X115260934Y-37596197D01*
X115266746Y-37572993D01*
X115274804Y-37550471D01*
X115285032Y-37528847D01*
X115297329Y-37508330D01*
X115311579Y-37489117D01*
X115327643Y-37471393D01*
X115345367Y-37455329D01*
X115364580Y-37441079D01*
X115385097Y-37428782D01*
X115406721Y-37418554D01*
X115429243Y-37410496D01*
X115452447Y-37404684D01*
X115476108Y-37401174D01*
X115500000Y-37400000D01*
X115987500Y-37400000D01*
X116011392Y-37401174D01*
X116011392Y-37401174D01*
G37*
D11*
X115743750Y-38100000D03*
D10*
G36*
X117886392Y-37401174D02*
G01*
X117910053Y-37404684D01*
X117933257Y-37410496D01*
X117955779Y-37418554D01*
X117977403Y-37428782D01*
X117997920Y-37441079D01*
X118017133Y-37455329D01*
X118034857Y-37471393D01*
X118050921Y-37489117D01*
X118065171Y-37508330D01*
X118077468Y-37528847D01*
X118087696Y-37550471D01*
X118095754Y-37572993D01*
X118101566Y-37596197D01*
X118105076Y-37619858D01*
X118106250Y-37643750D01*
X118106250Y-38556250D01*
X118105076Y-38580142D01*
X118101566Y-38603803D01*
X118095754Y-38627007D01*
X118087696Y-38649529D01*
X118077468Y-38671153D01*
X118065171Y-38691670D01*
X118050921Y-38710883D01*
X118034857Y-38728607D01*
X118017133Y-38744671D01*
X117997920Y-38758921D01*
X117977403Y-38771218D01*
X117955779Y-38781446D01*
X117933257Y-38789504D01*
X117910053Y-38795316D01*
X117886392Y-38798826D01*
X117862500Y-38800000D01*
X117375000Y-38800000D01*
X117351108Y-38798826D01*
X117327447Y-38795316D01*
X117304243Y-38789504D01*
X117281721Y-38781446D01*
X117260097Y-38771218D01*
X117239580Y-38758921D01*
X117220367Y-38744671D01*
X117202643Y-38728607D01*
X117186579Y-38710883D01*
X117172329Y-38691670D01*
X117160032Y-38671153D01*
X117149804Y-38649529D01*
X117141746Y-38627007D01*
X117135934Y-38603803D01*
X117132424Y-38580142D01*
X117131250Y-38556250D01*
X117131250Y-37643750D01*
X117132424Y-37619858D01*
X117135934Y-37596197D01*
X117141746Y-37572993D01*
X117149804Y-37550471D01*
X117160032Y-37528847D01*
X117172329Y-37508330D01*
X117186579Y-37489117D01*
X117202643Y-37471393D01*
X117220367Y-37455329D01*
X117239580Y-37441079D01*
X117260097Y-37428782D01*
X117281721Y-37418554D01*
X117304243Y-37410496D01*
X117327447Y-37404684D01*
X117351108Y-37401174D01*
X117375000Y-37400000D01*
X117862500Y-37400000D01*
X117886392Y-37401174D01*
X117886392Y-37401174D01*
G37*
D11*
X117618750Y-38100000D03*
D10*
G36*
X115505142Y-44544924D02*
G01*
X115528803Y-44548434D01*
X115552007Y-44554246D01*
X115574529Y-44562304D01*
X115596153Y-44572532D01*
X115616670Y-44584829D01*
X115635883Y-44599079D01*
X115653607Y-44615143D01*
X115669671Y-44632867D01*
X115683921Y-44652080D01*
X115696218Y-44672597D01*
X115706446Y-44694221D01*
X115714504Y-44716743D01*
X115720316Y-44739947D01*
X115723826Y-44763608D01*
X115725000Y-44787500D01*
X115725000Y-45700000D01*
X115723826Y-45723892D01*
X115720316Y-45747553D01*
X115714504Y-45770757D01*
X115706446Y-45793279D01*
X115696218Y-45814903D01*
X115683921Y-45835420D01*
X115669671Y-45854633D01*
X115653607Y-45872357D01*
X115635883Y-45888421D01*
X115616670Y-45902671D01*
X115596153Y-45914968D01*
X115574529Y-45925196D01*
X115552007Y-45933254D01*
X115528803Y-45939066D01*
X115505142Y-45942576D01*
X115481250Y-45943750D01*
X114993750Y-45943750D01*
X114969858Y-45942576D01*
X114946197Y-45939066D01*
X114922993Y-45933254D01*
X114900471Y-45925196D01*
X114878847Y-45914968D01*
X114858330Y-45902671D01*
X114839117Y-45888421D01*
X114821393Y-45872357D01*
X114805329Y-45854633D01*
X114791079Y-45835420D01*
X114778782Y-45814903D01*
X114768554Y-45793279D01*
X114760496Y-45770757D01*
X114754684Y-45747553D01*
X114751174Y-45723892D01*
X114750000Y-45700000D01*
X114750000Y-44787500D01*
X114751174Y-44763608D01*
X114754684Y-44739947D01*
X114760496Y-44716743D01*
X114768554Y-44694221D01*
X114778782Y-44672597D01*
X114791079Y-44652080D01*
X114805329Y-44632867D01*
X114821393Y-44615143D01*
X114839117Y-44599079D01*
X114858330Y-44584829D01*
X114878847Y-44572532D01*
X114900471Y-44562304D01*
X114922993Y-44554246D01*
X114946197Y-44548434D01*
X114969858Y-44544924D01*
X114993750Y-44543750D01*
X115481250Y-44543750D01*
X115505142Y-44544924D01*
X115505142Y-44544924D01*
G37*
D11*
X115237500Y-45243750D03*
D10*
G36*
X113630142Y-44544924D02*
G01*
X113653803Y-44548434D01*
X113677007Y-44554246D01*
X113699529Y-44562304D01*
X113721153Y-44572532D01*
X113741670Y-44584829D01*
X113760883Y-44599079D01*
X113778607Y-44615143D01*
X113794671Y-44632867D01*
X113808921Y-44652080D01*
X113821218Y-44672597D01*
X113831446Y-44694221D01*
X113839504Y-44716743D01*
X113845316Y-44739947D01*
X113848826Y-44763608D01*
X113850000Y-44787500D01*
X113850000Y-45700000D01*
X113848826Y-45723892D01*
X113845316Y-45747553D01*
X113839504Y-45770757D01*
X113831446Y-45793279D01*
X113821218Y-45814903D01*
X113808921Y-45835420D01*
X113794671Y-45854633D01*
X113778607Y-45872357D01*
X113760883Y-45888421D01*
X113741670Y-45902671D01*
X113721153Y-45914968D01*
X113699529Y-45925196D01*
X113677007Y-45933254D01*
X113653803Y-45939066D01*
X113630142Y-45942576D01*
X113606250Y-45943750D01*
X113118750Y-45943750D01*
X113094858Y-45942576D01*
X113071197Y-45939066D01*
X113047993Y-45933254D01*
X113025471Y-45925196D01*
X113003847Y-45914968D01*
X112983330Y-45902671D01*
X112964117Y-45888421D01*
X112946393Y-45872357D01*
X112930329Y-45854633D01*
X112916079Y-45835420D01*
X112903782Y-45814903D01*
X112893554Y-45793279D01*
X112885496Y-45770757D01*
X112879684Y-45747553D01*
X112876174Y-45723892D01*
X112875000Y-45700000D01*
X112875000Y-44787500D01*
X112876174Y-44763608D01*
X112879684Y-44739947D01*
X112885496Y-44716743D01*
X112893554Y-44694221D01*
X112903782Y-44672597D01*
X112916079Y-44652080D01*
X112930329Y-44632867D01*
X112946393Y-44615143D01*
X112964117Y-44599079D01*
X112983330Y-44584829D01*
X113003847Y-44572532D01*
X113025471Y-44562304D01*
X113047993Y-44554246D01*
X113071197Y-44548434D01*
X113094858Y-44544924D01*
X113118750Y-44543750D01*
X113606250Y-44543750D01*
X113630142Y-44544924D01*
X113630142Y-44544924D01*
G37*
D11*
X113362500Y-45243750D03*
D10*
G36*
X118964142Y-44513174D02*
G01*
X118987803Y-44516684D01*
X119011007Y-44522496D01*
X119033529Y-44530554D01*
X119055153Y-44540782D01*
X119075670Y-44553079D01*
X119094883Y-44567329D01*
X119112607Y-44583393D01*
X119128671Y-44601117D01*
X119142921Y-44620330D01*
X119155218Y-44640847D01*
X119165446Y-44662471D01*
X119173504Y-44684993D01*
X119179316Y-44708197D01*
X119182826Y-44731858D01*
X119184000Y-44755750D01*
X119184000Y-45668250D01*
X119182826Y-45692142D01*
X119179316Y-45715803D01*
X119173504Y-45739007D01*
X119165446Y-45761529D01*
X119155218Y-45783153D01*
X119142921Y-45803670D01*
X119128671Y-45822883D01*
X119112607Y-45840607D01*
X119094883Y-45856671D01*
X119075670Y-45870921D01*
X119055153Y-45883218D01*
X119033529Y-45893446D01*
X119011007Y-45901504D01*
X118987803Y-45907316D01*
X118964142Y-45910826D01*
X118940250Y-45912000D01*
X118452750Y-45912000D01*
X118428858Y-45910826D01*
X118405197Y-45907316D01*
X118381993Y-45901504D01*
X118359471Y-45893446D01*
X118337847Y-45883218D01*
X118317330Y-45870921D01*
X118298117Y-45856671D01*
X118280393Y-45840607D01*
X118264329Y-45822883D01*
X118250079Y-45803670D01*
X118237782Y-45783153D01*
X118227554Y-45761529D01*
X118219496Y-45739007D01*
X118213684Y-45715803D01*
X118210174Y-45692142D01*
X118209000Y-45668250D01*
X118209000Y-44755750D01*
X118210174Y-44731858D01*
X118213684Y-44708197D01*
X118219496Y-44684993D01*
X118227554Y-44662471D01*
X118237782Y-44640847D01*
X118250079Y-44620330D01*
X118264329Y-44601117D01*
X118280393Y-44583393D01*
X118298117Y-44567329D01*
X118317330Y-44553079D01*
X118337847Y-44540782D01*
X118359471Y-44530554D01*
X118381993Y-44522496D01*
X118405197Y-44516684D01*
X118428858Y-44513174D01*
X118452750Y-44512000D01*
X118940250Y-44512000D01*
X118964142Y-44513174D01*
X118964142Y-44513174D01*
G37*
D11*
X118696500Y-45212000D03*
D10*
G36*
X120839142Y-44513174D02*
G01*
X120862803Y-44516684D01*
X120886007Y-44522496D01*
X120908529Y-44530554D01*
X120930153Y-44540782D01*
X120950670Y-44553079D01*
X120969883Y-44567329D01*
X120987607Y-44583393D01*
X121003671Y-44601117D01*
X121017921Y-44620330D01*
X121030218Y-44640847D01*
X121040446Y-44662471D01*
X121048504Y-44684993D01*
X121054316Y-44708197D01*
X121057826Y-44731858D01*
X121059000Y-44755750D01*
X121059000Y-45668250D01*
X121057826Y-45692142D01*
X121054316Y-45715803D01*
X121048504Y-45739007D01*
X121040446Y-45761529D01*
X121030218Y-45783153D01*
X121017921Y-45803670D01*
X121003671Y-45822883D01*
X120987607Y-45840607D01*
X120969883Y-45856671D01*
X120950670Y-45870921D01*
X120930153Y-45883218D01*
X120908529Y-45893446D01*
X120886007Y-45901504D01*
X120862803Y-45907316D01*
X120839142Y-45910826D01*
X120815250Y-45912000D01*
X120327750Y-45912000D01*
X120303858Y-45910826D01*
X120280197Y-45907316D01*
X120256993Y-45901504D01*
X120234471Y-45893446D01*
X120212847Y-45883218D01*
X120192330Y-45870921D01*
X120173117Y-45856671D01*
X120155393Y-45840607D01*
X120139329Y-45822883D01*
X120125079Y-45803670D01*
X120112782Y-45783153D01*
X120102554Y-45761529D01*
X120094496Y-45739007D01*
X120088684Y-45715803D01*
X120085174Y-45692142D01*
X120084000Y-45668250D01*
X120084000Y-44755750D01*
X120085174Y-44731858D01*
X120088684Y-44708197D01*
X120094496Y-44684993D01*
X120102554Y-44662471D01*
X120112782Y-44640847D01*
X120125079Y-44620330D01*
X120139329Y-44601117D01*
X120155393Y-44583393D01*
X120173117Y-44567329D01*
X120192330Y-44553079D01*
X120212847Y-44540782D01*
X120234471Y-44530554D01*
X120256993Y-44522496D01*
X120280197Y-44516684D01*
X120303858Y-44513174D01*
X120327750Y-44512000D01*
X120815250Y-44512000D01*
X120839142Y-44513174D01*
X120839142Y-44513174D01*
G37*
D11*
X120571500Y-45212000D03*
D10*
G36*
X105255142Y-50457424D02*
G01*
X105278803Y-50460934D01*
X105302007Y-50466746D01*
X105324529Y-50474804D01*
X105346153Y-50485032D01*
X105366670Y-50497329D01*
X105385883Y-50511579D01*
X105403607Y-50527643D01*
X105419671Y-50545367D01*
X105433921Y-50564580D01*
X105446218Y-50585097D01*
X105456446Y-50606721D01*
X105464504Y-50629243D01*
X105470316Y-50652447D01*
X105473826Y-50676108D01*
X105475000Y-50700000D01*
X105475000Y-51187500D01*
X105473826Y-51211392D01*
X105470316Y-51235053D01*
X105464504Y-51258257D01*
X105456446Y-51280779D01*
X105446218Y-51302403D01*
X105433921Y-51322920D01*
X105419671Y-51342133D01*
X105403607Y-51359857D01*
X105385883Y-51375921D01*
X105366670Y-51390171D01*
X105346153Y-51402468D01*
X105324529Y-51412696D01*
X105302007Y-51420754D01*
X105278803Y-51426566D01*
X105255142Y-51430076D01*
X105231250Y-51431250D01*
X104318750Y-51431250D01*
X104294858Y-51430076D01*
X104271197Y-51426566D01*
X104247993Y-51420754D01*
X104225471Y-51412696D01*
X104203847Y-51402468D01*
X104183330Y-51390171D01*
X104164117Y-51375921D01*
X104146393Y-51359857D01*
X104130329Y-51342133D01*
X104116079Y-51322920D01*
X104103782Y-51302403D01*
X104093554Y-51280779D01*
X104085496Y-51258257D01*
X104079684Y-51235053D01*
X104076174Y-51211392D01*
X104075000Y-51187500D01*
X104075000Y-50700000D01*
X104076174Y-50676108D01*
X104079684Y-50652447D01*
X104085496Y-50629243D01*
X104093554Y-50606721D01*
X104103782Y-50585097D01*
X104116079Y-50564580D01*
X104130329Y-50545367D01*
X104146393Y-50527643D01*
X104164117Y-50511579D01*
X104183330Y-50497329D01*
X104203847Y-50485032D01*
X104225471Y-50474804D01*
X104247993Y-50466746D01*
X104271197Y-50460934D01*
X104294858Y-50457424D01*
X104318750Y-50456250D01*
X105231250Y-50456250D01*
X105255142Y-50457424D01*
X105255142Y-50457424D01*
G37*
D11*
X104775000Y-50943750D03*
D10*
G36*
X105255142Y-48582424D02*
G01*
X105278803Y-48585934D01*
X105302007Y-48591746D01*
X105324529Y-48599804D01*
X105346153Y-48610032D01*
X105366670Y-48622329D01*
X105385883Y-48636579D01*
X105403607Y-48652643D01*
X105419671Y-48670367D01*
X105433921Y-48689580D01*
X105446218Y-48710097D01*
X105456446Y-48731721D01*
X105464504Y-48754243D01*
X105470316Y-48777447D01*
X105473826Y-48801108D01*
X105475000Y-48825000D01*
X105475000Y-49312500D01*
X105473826Y-49336392D01*
X105470316Y-49360053D01*
X105464504Y-49383257D01*
X105456446Y-49405779D01*
X105446218Y-49427403D01*
X105433921Y-49447920D01*
X105419671Y-49467133D01*
X105403607Y-49484857D01*
X105385883Y-49500921D01*
X105366670Y-49515171D01*
X105346153Y-49527468D01*
X105324529Y-49537696D01*
X105302007Y-49545754D01*
X105278803Y-49551566D01*
X105255142Y-49555076D01*
X105231250Y-49556250D01*
X104318750Y-49556250D01*
X104294858Y-49555076D01*
X104271197Y-49551566D01*
X104247993Y-49545754D01*
X104225471Y-49537696D01*
X104203847Y-49527468D01*
X104183330Y-49515171D01*
X104164117Y-49500921D01*
X104146393Y-49484857D01*
X104130329Y-49467133D01*
X104116079Y-49447920D01*
X104103782Y-49427403D01*
X104093554Y-49405779D01*
X104085496Y-49383257D01*
X104079684Y-49360053D01*
X104076174Y-49336392D01*
X104075000Y-49312500D01*
X104075000Y-48825000D01*
X104076174Y-48801108D01*
X104079684Y-48777447D01*
X104085496Y-48754243D01*
X104093554Y-48731721D01*
X104103782Y-48710097D01*
X104116079Y-48689580D01*
X104130329Y-48670367D01*
X104146393Y-48652643D01*
X104164117Y-48636579D01*
X104183330Y-48622329D01*
X104203847Y-48610032D01*
X104225471Y-48599804D01*
X104247993Y-48591746D01*
X104271197Y-48585934D01*
X104294858Y-48582424D01*
X104318750Y-48581250D01*
X105231250Y-48581250D01*
X105255142Y-48582424D01*
X105255142Y-48582424D01*
G37*
D11*
X104775000Y-49068750D03*
D14*
X26681250Y-64293750D03*
X29831250Y-64293750D03*
X49200000Y-64293750D03*
X46050000Y-64293750D03*
X65100000Y-64293750D03*
X68250000Y-64293750D03*
X87300000Y-64293750D03*
X84150000Y-64293750D03*
X106350000Y-64293750D03*
X103200000Y-64293750D03*
X122250000Y-64293750D03*
X125400000Y-64293750D03*
X144450000Y-64293750D03*
X141300000Y-64293750D03*
X160350000Y-64293750D03*
X163500000Y-64293750D03*
X182550000Y-64293750D03*
X179400000Y-64293750D03*
X201600000Y-64293750D03*
X198450000Y-64293750D03*
X217500000Y-64293750D03*
X220650000Y-64293750D03*
X236550000Y-64293750D03*
X239700000Y-64293750D03*
X27000000Y-83343750D03*
X30150000Y-83343750D03*
X49200000Y-83343750D03*
X46050000Y-83343750D03*
X68250000Y-83343750D03*
X65100000Y-83343750D03*
X87300000Y-83343750D03*
X84150000Y-83343750D03*
X103200000Y-83343750D03*
X106350000Y-83343750D03*
X125400000Y-83343750D03*
X122250000Y-83343750D03*
X141300000Y-83343750D03*
X144450000Y-83343750D03*
X160350000Y-83343750D03*
X163500000Y-83343750D03*
X179718750Y-83343750D03*
X182868750Y-83343750D03*
X201600000Y-83343750D03*
X198450000Y-83343750D03*
X217500000Y-83343750D03*
X220650000Y-83343750D03*
X236550000Y-83343750D03*
X239700000Y-83343750D03*
X30150000Y-102393750D03*
X27000000Y-102393750D03*
X46050000Y-102393750D03*
X49200000Y-102393750D03*
X68250000Y-102393750D03*
X65100000Y-102393750D03*
X87300000Y-102393750D03*
X84150000Y-102393750D03*
X106350000Y-102393750D03*
X103200000Y-102393750D03*
X125400000Y-102393750D03*
X122250000Y-102393750D03*
X144450000Y-102393750D03*
X141300000Y-102393750D03*
X163500000Y-102393750D03*
X160350000Y-102393750D03*
X179400000Y-102393750D03*
X182550000Y-102393750D03*
X201600000Y-102393750D03*
X198450000Y-102393750D03*
X217500000Y-102393750D03*
X220650000Y-102393750D03*
X236550000Y-102393750D03*
X239700000Y-102393750D03*
X27000000Y-121443750D03*
X30150000Y-121443750D03*
X49200000Y-121443750D03*
X46050000Y-121443750D03*
X68250000Y-121443750D03*
X65100000Y-121443750D03*
X87300000Y-121443750D03*
X84150000Y-121443750D03*
X103200000Y-121443750D03*
X106350000Y-121443750D03*
X160350000Y-121443750D03*
X163500000Y-121443750D03*
X179400000Y-121443750D03*
X182550000Y-121443750D03*
X198450000Y-121443750D03*
X201600000Y-121443750D03*
X217500000Y-121443750D03*
X220650000Y-121443750D03*
X239700000Y-121443750D03*
X236550000Y-121443750D03*
D10*
G36*
X203122442Y-35070724D02*
G01*
X203146103Y-35074234D01*
X203169307Y-35080046D01*
X203191829Y-35088104D01*
X203213453Y-35098332D01*
X203233970Y-35110629D01*
X203253183Y-35124879D01*
X203270907Y-35140943D01*
X203286971Y-35158667D01*
X203301221Y-35177880D01*
X203313518Y-35198397D01*
X203323746Y-35220021D01*
X203331804Y-35242543D01*
X203337616Y-35265747D01*
X203341126Y-35289408D01*
X203342300Y-35313300D01*
X203342300Y-36225800D01*
X203341126Y-36249692D01*
X203337616Y-36273353D01*
X203331804Y-36296557D01*
X203323746Y-36319079D01*
X203313518Y-36340703D01*
X203301221Y-36361220D01*
X203286971Y-36380433D01*
X203270907Y-36398157D01*
X203253183Y-36414221D01*
X203233970Y-36428471D01*
X203213453Y-36440768D01*
X203191829Y-36450996D01*
X203169307Y-36459054D01*
X203146103Y-36464866D01*
X203122442Y-36468376D01*
X203098550Y-36469550D01*
X202611050Y-36469550D01*
X202587158Y-36468376D01*
X202563497Y-36464866D01*
X202540293Y-36459054D01*
X202517771Y-36450996D01*
X202496147Y-36440768D01*
X202475630Y-36428471D01*
X202456417Y-36414221D01*
X202438693Y-36398157D01*
X202422629Y-36380433D01*
X202408379Y-36361220D01*
X202396082Y-36340703D01*
X202385854Y-36319079D01*
X202377796Y-36296557D01*
X202371984Y-36273353D01*
X202368474Y-36249692D01*
X202367300Y-36225800D01*
X202367300Y-35313300D01*
X202368474Y-35289408D01*
X202371984Y-35265747D01*
X202377796Y-35242543D01*
X202385854Y-35220021D01*
X202396082Y-35198397D01*
X202408379Y-35177880D01*
X202422629Y-35158667D01*
X202438693Y-35140943D01*
X202456417Y-35124879D01*
X202475630Y-35110629D01*
X202496147Y-35098332D01*
X202517771Y-35088104D01*
X202540293Y-35080046D01*
X202563497Y-35074234D01*
X202587158Y-35070724D01*
X202611050Y-35069550D01*
X203098550Y-35069550D01*
X203122442Y-35070724D01*
X203122442Y-35070724D01*
G37*
D11*
X202854800Y-35769550D03*
D10*
G36*
X201247442Y-35070724D02*
G01*
X201271103Y-35074234D01*
X201294307Y-35080046D01*
X201316829Y-35088104D01*
X201338453Y-35098332D01*
X201358970Y-35110629D01*
X201378183Y-35124879D01*
X201395907Y-35140943D01*
X201411971Y-35158667D01*
X201426221Y-35177880D01*
X201438518Y-35198397D01*
X201448746Y-35220021D01*
X201456804Y-35242543D01*
X201462616Y-35265747D01*
X201466126Y-35289408D01*
X201467300Y-35313300D01*
X201467300Y-36225800D01*
X201466126Y-36249692D01*
X201462616Y-36273353D01*
X201456804Y-36296557D01*
X201448746Y-36319079D01*
X201438518Y-36340703D01*
X201426221Y-36361220D01*
X201411971Y-36380433D01*
X201395907Y-36398157D01*
X201378183Y-36414221D01*
X201358970Y-36428471D01*
X201338453Y-36440768D01*
X201316829Y-36450996D01*
X201294307Y-36459054D01*
X201271103Y-36464866D01*
X201247442Y-36468376D01*
X201223550Y-36469550D01*
X200736050Y-36469550D01*
X200712158Y-36468376D01*
X200688497Y-36464866D01*
X200665293Y-36459054D01*
X200642771Y-36450996D01*
X200621147Y-36440768D01*
X200600630Y-36428471D01*
X200581417Y-36414221D01*
X200563693Y-36398157D01*
X200547629Y-36380433D01*
X200533379Y-36361220D01*
X200521082Y-36340703D01*
X200510854Y-36319079D01*
X200502796Y-36296557D01*
X200496984Y-36273353D01*
X200493474Y-36249692D01*
X200492300Y-36225800D01*
X200492300Y-35313300D01*
X200493474Y-35289408D01*
X200496984Y-35265747D01*
X200502796Y-35242543D01*
X200510854Y-35220021D01*
X200521082Y-35198397D01*
X200533379Y-35177880D01*
X200547629Y-35158667D01*
X200563693Y-35140943D01*
X200581417Y-35124879D01*
X200600630Y-35110629D01*
X200621147Y-35098332D01*
X200642771Y-35088104D01*
X200665293Y-35080046D01*
X200688497Y-35074234D01*
X200712158Y-35070724D01*
X200736050Y-35069550D01*
X201223550Y-35069550D01*
X201247442Y-35070724D01*
X201247442Y-35070724D01*
G37*
D11*
X200979800Y-35769550D03*
D10*
G36*
X219212242Y-39012974D02*
G01*
X219235903Y-39016484D01*
X219259107Y-39022296D01*
X219281629Y-39030354D01*
X219303253Y-39040582D01*
X219323770Y-39052879D01*
X219342983Y-39067129D01*
X219360707Y-39083193D01*
X219376771Y-39100917D01*
X219391021Y-39120130D01*
X219403318Y-39140647D01*
X219413546Y-39162271D01*
X219421604Y-39184793D01*
X219427416Y-39207997D01*
X219430926Y-39231658D01*
X219432100Y-39255550D01*
X219432100Y-39743050D01*
X219430926Y-39766942D01*
X219427416Y-39790603D01*
X219421604Y-39813807D01*
X219413546Y-39836329D01*
X219403318Y-39857953D01*
X219391021Y-39878470D01*
X219376771Y-39897683D01*
X219360707Y-39915407D01*
X219342983Y-39931471D01*
X219323770Y-39945721D01*
X219303253Y-39958018D01*
X219281629Y-39968246D01*
X219259107Y-39976304D01*
X219235903Y-39982116D01*
X219212242Y-39985626D01*
X219188350Y-39986800D01*
X218275850Y-39986800D01*
X218251958Y-39985626D01*
X218228297Y-39982116D01*
X218205093Y-39976304D01*
X218182571Y-39968246D01*
X218160947Y-39958018D01*
X218140430Y-39945721D01*
X218121217Y-39931471D01*
X218103493Y-39915407D01*
X218087429Y-39897683D01*
X218073179Y-39878470D01*
X218060882Y-39857953D01*
X218050654Y-39836329D01*
X218042596Y-39813807D01*
X218036784Y-39790603D01*
X218033274Y-39766942D01*
X218032100Y-39743050D01*
X218032100Y-39255550D01*
X218033274Y-39231658D01*
X218036784Y-39207997D01*
X218042596Y-39184793D01*
X218050654Y-39162271D01*
X218060882Y-39140647D01*
X218073179Y-39120130D01*
X218087429Y-39100917D01*
X218103493Y-39083193D01*
X218121217Y-39067129D01*
X218140430Y-39052879D01*
X218160947Y-39040582D01*
X218182571Y-39030354D01*
X218205093Y-39022296D01*
X218228297Y-39016484D01*
X218251958Y-39012974D01*
X218275850Y-39011800D01*
X219188350Y-39011800D01*
X219212242Y-39012974D01*
X219212242Y-39012974D01*
G37*
D11*
X218732100Y-39499300D03*
D10*
G36*
X219212242Y-40887974D02*
G01*
X219235903Y-40891484D01*
X219259107Y-40897296D01*
X219281629Y-40905354D01*
X219303253Y-40915582D01*
X219323770Y-40927879D01*
X219342983Y-40942129D01*
X219360707Y-40958193D01*
X219376771Y-40975917D01*
X219391021Y-40995130D01*
X219403318Y-41015647D01*
X219413546Y-41037271D01*
X219421604Y-41059793D01*
X219427416Y-41082997D01*
X219430926Y-41106658D01*
X219432100Y-41130550D01*
X219432100Y-41618050D01*
X219430926Y-41641942D01*
X219427416Y-41665603D01*
X219421604Y-41688807D01*
X219413546Y-41711329D01*
X219403318Y-41732953D01*
X219391021Y-41753470D01*
X219376771Y-41772683D01*
X219360707Y-41790407D01*
X219342983Y-41806471D01*
X219323770Y-41820721D01*
X219303253Y-41833018D01*
X219281629Y-41843246D01*
X219259107Y-41851304D01*
X219235903Y-41857116D01*
X219212242Y-41860626D01*
X219188350Y-41861800D01*
X218275850Y-41861800D01*
X218251958Y-41860626D01*
X218228297Y-41857116D01*
X218205093Y-41851304D01*
X218182571Y-41843246D01*
X218160947Y-41833018D01*
X218140430Y-41820721D01*
X218121217Y-41806471D01*
X218103493Y-41790407D01*
X218087429Y-41772683D01*
X218073179Y-41753470D01*
X218060882Y-41732953D01*
X218050654Y-41711329D01*
X218042596Y-41688807D01*
X218036784Y-41665603D01*
X218033274Y-41641942D01*
X218032100Y-41618050D01*
X218032100Y-41130550D01*
X218033274Y-41106658D01*
X218036784Y-41082997D01*
X218042596Y-41059793D01*
X218050654Y-41037271D01*
X218060882Y-41015647D01*
X218073179Y-40995130D01*
X218087429Y-40975917D01*
X218103493Y-40958193D01*
X218121217Y-40942129D01*
X218140430Y-40927879D01*
X218160947Y-40915582D01*
X218182571Y-40905354D01*
X218205093Y-40897296D01*
X218228297Y-40891484D01*
X218251958Y-40887974D01*
X218275850Y-40886800D01*
X219188350Y-40886800D01*
X219212242Y-40887974D01*
X219212242Y-40887974D01*
G37*
D11*
X218732100Y-41374300D03*
D10*
G36*
X223828692Y-39108224D02*
G01*
X223852353Y-39111734D01*
X223875557Y-39117546D01*
X223898079Y-39125604D01*
X223919703Y-39135832D01*
X223940220Y-39148129D01*
X223959433Y-39162379D01*
X223977157Y-39178443D01*
X223993221Y-39196167D01*
X224007471Y-39215380D01*
X224019768Y-39235897D01*
X224029996Y-39257521D01*
X224038054Y-39280043D01*
X224043866Y-39303247D01*
X224047376Y-39326908D01*
X224048550Y-39350800D01*
X224048550Y-39838300D01*
X224047376Y-39862192D01*
X224043866Y-39885853D01*
X224038054Y-39909057D01*
X224029996Y-39931579D01*
X224019768Y-39953203D01*
X224007471Y-39973720D01*
X223993221Y-39992933D01*
X223977157Y-40010657D01*
X223959433Y-40026721D01*
X223940220Y-40040971D01*
X223919703Y-40053268D01*
X223898079Y-40063496D01*
X223875557Y-40071554D01*
X223852353Y-40077366D01*
X223828692Y-40080876D01*
X223804800Y-40082050D01*
X222892300Y-40082050D01*
X222868408Y-40080876D01*
X222844747Y-40077366D01*
X222821543Y-40071554D01*
X222799021Y-40063496D01*
X222777397Y-40053268D01*
X222756880Y-40040971D01*
X222737667Y-40026721D01*
X222719943Y-40010657D01*
X222703879Y-39992933D01*
X222689629Y-39973720D01*
X222677332Y-39953203D01*
X222667104Y-39931579D01*
X222659046Y-39909057D01*
X222653234Y-39885853D01*
X222649724Y-39862192D01*
X222648550Y-39838300D01*
X222648550Y-39350800D01*
X222649724Y-39326908D01*
X222653234Y-39303247D01*
X222659046Y-39280043D01*
X222667104Y-39257521D01*
X222677332Y-39235897D01*
X222689629Y-39215380D01*
X222703879Y-39196167D01*
X222719943Y-39178443D01*
X222737667Y-39162379D01*
X222756880Y-39148129D01*
X222777397Y-39135832D01*
X222799021Y-39125604D01*
X222821543Y-39117546D01*
X222844747Y-39111734D01*
X222868408Y-39108224D01*
X222892300Y-39107050D01*
X223804800Y-39107050D01*
X223828692Y-39108224D01*
X223828692Y-39108224D01*
G37*
D11*
X223348550Y-39594550D03*
D10*
G36*
X223828692Y-40983224D02*
G01*
X223852353Y-40986734D01*
X223875557Y-40992546D01*
X223898079Y-41000604D01*
X223919703Y-41010832D01*
X223940220Y-41023129D01*
X223959433Y-41037379D01*
X223977157Y-41053443D01*
X223993221Y-41071167D01*
X224007471Y-41090380D01*
X224019768Y-41110897D01*
X224029996Y-41132521D01*
X224038054Y-41155043D01*
X224043866Y-41178247D01*
X224047376Y-41201908D01*
X224048550Y-41225800D01*
X224048550Y-41713300D01*
X224047376Y-41737192D01*
X224043866Y-41760853D01*
X224038054Y-41784057D01*
X224029996Y-41806579D01*
X224019768Y-41828203D01*
X224007471Y-41848720D01*
X223993221Y-41867933D01*
X223977157Y-41885657D01*
X223959433Y-41901721D01*
X223940220Y-41915971D01*
X223919703Y-41928268D01*
X223898079Y-41938496D01*
X223875557Y-41946554D01*
X223852353Y-41952366D01*
X223828692Y-41955876D01*
X223804800Y-41957050D01*
X222892300Y-41957050D01*
X222868408Y-41955876D01*
X222844747Y-41952366D01*
X222821543Y-41946554D01*
X222799021Y-41938496D01*
X222777397Y-41928268D01*
X222756880Y-41915971D01*
X222737667Y-41901721D01*
X222719943Y-41885657D01*
X222703879Y-41867933D01*
X222689629Y-41848720D01*
X222677332Y-41828203D01*
X222667104Y-41806579D01*
X222659046Y-41784057D01*
X222653234Y-41760853D01*
X222649724Y-41737192D01*
X222648550Y-41713300D01*
X222648550Y-41225800D01*
X222649724Y-41201908D01*
X222653234Y-41178247D01*
X222659046Y-41155043D01*
X222667104Y-41132521D01*
X222677332Y-41110897D01*
X222689629Y-41090380D01*
X222703879Y-41071167D01*
X222719943Y-41053443D01*
X222737667Y-41037379D01*
X222756880Y-41023129D01*
X222777397Y-41010832D01*
X222799021Y-41000604D01*
X222821543Y-40992546D01*
X222844747Y-40986734D01*
X222868408Y-40983224D01*
X222892300Y-40982050D01*
X223804800Y-40982050D01*
X223828692Y-40983224D01*
X223828692Y-40983224D01*
G37*
D11*
X223348550Y-41469550D03*
D15*
X91338122Y-40011513D03*
D10*
G36*
X91444188Y-38632655D02*
G01*
X92716980Y-39905447D01*
X91232056Y-41390371D01*
X89959264Y-40117579D01*
X91444188Y-38632655D01*
X91444188Y-38632655D01*
G37*
D15*
X89287513Y-42062122D03*
D10*
G36*
X89393579Y-40683264D02*
G01*
X90666371Y-41956056D01*
X89181447Y-43440980D01*
X87908655Y-42168188D01*
X89393579Y-40683264D01*
X89393579Y-40683264D01*
G37*
D15*
X87731878Y-40506487D03*
D10*
G36*
X87837944Y-39127629D02*
G01*
X89110736Y-40400421D01*
X87625812Y-41885345D01*
X86353020Y-40612553D01*
X87837944Y-39127629D01*
X87837944Y-39127629D01*
G37*
D15*
X89782487Y-38455878D03*
D10*
G36*
X89888553Y-37077020D02*
G01*
X91161345Y-38349812D01*
X89676421Y-39834736D01*
X88403629Y-38561944D01*
X89888553Y-37077020D01*
X89888553Y-37077020D01*
G37*
D14*
X134925000Y-121443750D03*
X131775000Y-121443750D03*
D10*
G36*
X84667252Y-46290549D02*
G01*
X84690913Y-46294059D01*
X84714117Y-46299871D01*
X84736639Y-46307929D01*
X84758263Y-46318157D01*
X84778780Y-46330454D01*
X84797993Y-46344704D01*
X84815717Y-46360768D01*
X85160432Y-46705483D01*
X85176496Y-46723207D01*
X85190746Y-46742420D01*
X85203043Y-46762937D01*
X85213271Y-46784561D01*
X85221329Y-46807083D01*
X85227141Y-46830287D01*
X85230651Y-46853948D01*
X85231825Y-46877840D01*
X85230651Y-46901732D01*
X85227141Y-46925393D01*
X85221329Y-46948597D01*
X85213271Y-46971119D01*
X85203043Y-46992743D01*
X85190746Y-47013260D01*
X85176496Y-47032473D01*
X85160432Y-47050197D01*
X84515197Y-47695432D01*
X84497473Y-47711496D01*
X84478260Y-47725746D01*
X84457743Y-47738043D01*
X84436119Y-47748271D01*
X84413597Y-47756329D01*
X84390393Y-47762141D01*
X84366732Y-47765651D01*
X84342840Y-47766825D01*
X84318948Y-47765651D01*
X84295287Y-47762141D01*
X84272083Y-47756329D01*
X84249561Y-47748271D01*
X84227937Y-47738043D01*
X84207420Y-47725746D01*
X84188207Y-47711496D01*
X84170483Y-47695432D01*
X83825768Y-47350717D01*
X83809704Y-47332993D01*
X83795454Y-47313780D01*
X83783157Y-47293263D01*
X83772929Y-47271639D01*
X83764871Y-47249117D01*
X83759059Y-47225913D01*
X83755549Y-47202252D01*
X83754375Y-47178360D01*
X83755549Y-47154468D01*
X83759059Y-47130807D01*
X83764871Y-47107603D01*
X83772929Y-47085081D01*
X83783157Y-47063457D01*
X83795454Y-47042940D01*
X83809704Y-47023727D01*
X83825768Y-47006003D01*
X84471003Y-46360768D01*
X84488727Y-46344704D01*
X84507940Y-46330454D01*
X84528457Y-46318157D01*
X84550081Y-46307929D01*
X84572603Y-46299871D01*
X84595807Y-46294059D01*
X84619468Y-46290549D01*
X84643360Y-46289375D01*
X84667252Y-46290549D01*
X84667252Y-46290549D01*
G37*
D11*
X84493100Y-47028100D03*
D10*
G36*
X83341426Y-44964723D02*
G01*
X83365087Y-44968233D01*
X83388291Y-44974045D01*
X83410813Y-44982103D01*
X83432437Y-44992331D01*
X83452954Y-45004628D01*
X83472167Y-45018878D01*
X83489891Y-45034942D01*
X83834606Y-45379657D01*
X83850670Y-45397381D01*
X83864920Y-45416594D01*
X83877217Y-45437111D01*
X83887445Y-45458735D01*
X83895503Y-45481257D01*
X83901315Y-45504461D01*
X83904825Y-45528122D01*
X83905999Y-45552014D01*
X83904825Y-45575906D01*
X83901315Y-45599567D01*
X83895503Y-45622771D01*
X83887445Y-45645293D01*
X83877217Y-45666917D01*
X83864920Y-45687434D01*
X83850670Y-45706647D01*
X83834606Y-45724371D01*
X83189371Y-46369606D01*
X83171647Y-46385670D01*
X83152434Y-46399920D01*
X83131917Y-46412217D01*
X83110293Y-46422445D01*
X83087771Y-46430503D01*
X83064567Y-46436315D01*
X83040906Y-46439825D01*
X83017014Y-46440999D01*
X82993122Y-46439825D01*
X82969461Y-46436315D01*
X82946257Y-46430503D01*
X82923735Y-46422445D01*
X82902111Y-46412217D01*
X82881594Y-46399920D01*
X82862381Y-46385670D01*
X82844657Y-46369606D01*
X82499942Y-46024891D01*
X82483878Y-46007167D01*
X82469628Y-45987954D01*
X82457331Y-45967437D01*
X82447103Y-45945813D01*
X82439045Y-45923291D01*
X82433233Y-45900087D01*
X82429723Y-45876426D01*
X82428549Y-45852534D01*
X82429723Y-45828642D01*
X82433233Y-45804981D01*
X82439045Y-45781777D01*
X82447103Y-45759255D01*
X82457331Y-45737631D01*
X82469628Y-45717114D01*
X82483878Y-45697901D01*
X82499942Y-45680177D01*
X83145177Y-45034942D01*
X83162901Y-45018878D01*
X83182114Y-45004628D01*
X83202631Y-44992331D01*
X83224255Y-44982103D01*
X83246777Y-44974045D01*
X83269981Y-44968233D01*
X83293642Y-44964723D01*
X83317534Y-44963549D01*
X83341426Y-44964723D01*
X83341426Y-44964723D01*
G37*
D11*
X83167274Y-45702274D03*
D10*
G36*
X117886392Y-35019924D02*
G01*
X117910053Y-35023434D01*
X117933257Y-35029246D01*
X117955779Y-35037304D01*
X117977403Y-35047532D01*
X117997920Y-35059829D01*
X118017133Y-35074079D01*
X118034857Y-35090143D01*
X118050921Y-35107867D01*
X118065171Y-35127080D01*
X118077468Y-35147597D01*
X118087696Y-35169221D01*
X118095754Y-35191743D01*
X118101566Y-35214947D01*
X118105076Y-35238608D01*
X118106250Y-35262500D01*
X118106250Y-36175000D01*
X118105076Y-36198892D01*
X118101566Y-36222553D01*
X118095754Y-36245757D01*
X118087696Y-36268279D01*
X118077468Y-36289903D01*
X118065171Y-36310420D01*
X118050921Y-36329633D01*
X118034857Y-36347357D01*
X118017133Y-36363421D01*
X117997920Y-36377671D01*
X117977403Y-36389968D01*
X117955779Y-36400196D01*
X117933257Y-36408254D01*
X117910053Y-36414066D01*
X117886392Y-36417576D01*
X117862500Y-36418750D01*
X117375000Y-36418750D01*
X117351108Y-36417576D01*
X117327447Y-36414066D01*
X117304243Y-36408254D01*
X117281721Y-36400196D01*
X117260097Y-36389968D01*
X117239580Y-36377671D01*
X117220367Y-36363421D01*
X117202643Y-36347357D01*
X117186579Y-36329633D01*
X117172329Y-36310420D01*
X117160032Y-36289903D01*
X117149804Y-36268279D01*
X117141746Y-36245757D01*
X117135934Y-36222553D01*
X117132424Y-36198892D01*
X117131250Y-36175000D01*
X117131250Y-35262500D01*
X117132424Y-35238608D01*
X117135934Y-35214947D01*
X117141746Y-35191743D01*
X117149804Y-35169221D01*
X117160032Y-35147597D01*
X117172329Y-35127080D01*
X117186579Y-35107867D01*
X117202643Y-35090143D01*
X117220367Y-35074079D01*
X117239580Y-35059829D01*
X117260097Y-35047532D01*
X117281721Y-35037304D01*
X117304243Y-35029246D01*
X117327447Y-35023434D01*
X117351108Y-35019924D01*
X117375000Y-35018750D01*
X117862500Y-35018750D01*
X117886392Y-35019924D01*
X117886392Y-35019924D01*
G37*
D11*
X117618750Y-35718750D03*
D10*
G36*
X116011392Y-35019924D02*
G01*
X116035053Y-35023434D01*
X116058257Y-35029246D01*
X116080779Y-35037304D01*
X116102403Y-35047532D01*
X116122920Y-35059829D01*
X116142133Y-35074079D01*
X116159857Y-35090143D01*
X116175921Y-35107867D01*
X116190171Y-35127080D01*
X116202468Y-35147597D01*
X116212696Y-35169221D01*
X116220754Y-35191743D01*
X116226566Y-35214947D01*
X116230076Y-35238608D01*
X116231250Y-35262500D01*
X116231250Y-36175000D01*
X116230076Y-36198892D01*
X116226566Y-36222553D01*
X116220754Y-36245757D01*
X116212696Y-36268279D01*
X116202468Y-36289903D01*
X116190171Y-36310420D01*
X116175921Y-36329633D01*
X116159857Y-36347357D01*
X116142133Y-36363421D01*
X116122920Y-36377671D01*
X116102403Y-36389968D01*
X116080779Y-36400196D01*
X116058257Y-36408254D01*
X116035053Y-36414066D01*
X116011392Y-36417576D01*
X115987500Y-36418750D01*
X115500000Y-36418750D01*
X115476108Y-36417576D01*
X115452447Y-36414066D01*
X115429243Y-36408254D01*
X115406721Y-36400196D01*
X115385097Y-36389968D01*
X115364580Y-36377671D01*
X115345367Y-36363421D01*
X115327643Y-36347357D01*
X115311579Y-36329633D01*
X115297329Y-36310420D01*
X115285032Y-36289903D01*
X115274804Y-36268279D01*
X115266746Y-36245757D01*
X115260934Y-36222553D01*
X115257424Y-36198892D01*
X115256250Y-36175000D01*
X115256250Y-35262500D01*
X115257424Y-35238608D01*
X115260934Y-35214947D01*
X115266746Y-35191743D01*
X115274804Y-35169221D01*
X115285032Y-35147597D01*
X115297329Y-35127080D01*
X115311579Y-35107867D01*
X115327643Y-35090143D01*
X115345367Y-35074079D01*
X115364580Y-35059829D01*
X115385097Y-35047532D01*
X115406721Y-35037304D01*
X115429243Y-35029246D01*
X115452447Y-35023434D01*
X115476108Y-35019924D01*
X115500000Y-35018750D01*
X115987500Y-35018750D01*
X116011392Y-35019924D01*
X116011392Y-35019924D01*
G37*
D11*
X115743750Y-35718750D03*
M02*
