%FSLAX45Y45*%
G04 Gerber Fmt 4.5, Leading zero omitted, Abs format (unit mm)*
G04 Created by KiCad (PCBNEW (5.1.0)-1) date 2020-09-20 16:15:59*
%MOMM*%
%LPD*%
G04 APERTURE LIST*
%ADD10C,0.050000*%
%ADD11C,0.200000*%
%ADD12C,0.300000*%
G04 APERTURE END LIST*
D10*
X24663400Y-3683000D02*
X24663400Y-3454400D01*
X24155400Y-3454400D02*
X24155400Y-3683000D01*
X24155400Y-3683000D02*
X24663400Y-3683000D01*
X1549400Y-3454400D02*
X1549400Y-12725400D01*
X24155400Y-3454400D02*
X1549400Y-3454400D01*
X25298400Y-3454400D02*
X24663400Y-3454400D01*
X25298400Y-12725400D02*
X25298400Y-3454400D01*
X1549400Y-12725400D02*
X25298400Y-12725400D01*
D11*
X8093710Y-11395710D02*
X8263890Y-11565890D01*
X8263890Y-11395710D02*
X8093710Y-11565890D01*
X9109710Y-11395710D02*
X9279890Y-11565890D01*
X9279890Y-11395710D02*
X9109710Y-11565890D01*
X6188710Y-5680710D02*
X6358890Y-5850890D01*
X6358890Y-5680710D02*
X6188710Y-5850890D01*
X7204710Y-5680710D02*
X7374890Y-5850890D01*
X7374890Y-5680710D02*
X7204710Y-5850890D01*
X13808710Y-7585710D02*
X13978890Y-7755890D01*
X13978890Y-7585710D02*
X13808710Y-7755890D01*
X14824710Y-7585710D02*
X14994890Y-7755890D01*
X14994890Y-7585710D02*
X14824710Y-7755890D01*
X23333710Y-11395710D02*
X23503890Y-11565890D01*
X23503890Y-11395710D02*
X23333710Y-11565890D01*
X24349710Y-11395710D02*
X24519890Y-11565890D01*
X24519890Y-11395710D02*
X24349710Y-11565890D01*
X19523710Y-7585710D02*
X19693890Y-7755890D01*
X19693890Y-7585710D02*
X19523710Y-7755890D01*
X20539710Y-7585710D02*
X20709890Y-7755890D01*
X20709890Y-7585710D02*
X20539710Y-7755890D01*
X8093710Y-9490710D02*
X8263890Y-9660890D01*
X8263890Y-9490710D02*
X8093710Y-9660890D01*
X9109710Y-9490710D02*
X9279890Y-9660890D01*
X9279890Y-9490710D02*
X9109710Y-9660890D01*
X15713710Y-9490710D02*
X15883890Y-9660890D01*
X15883890Y-9490710D02*
X15713710Y-9660890D01*
X16729710Y-9490710D02*
X16899890Y-9660890D01*
X16899890Y-9490710D02*
X16729710Y-9660890D01*
X4283710Y-9490710D02*
X4453890Y-9660890D01*
X4453890Y-9490710D02*
X4283710Y-9660890D01*
X5299710Y-9490710D02*
X5469890Y-9660890D01*
X5469890Y-9490710D02*
X5299710Y-9660890D01*
X4283710Y-11395710D02*
X4453890Y-11565890D01*
X4453890Y-11395710D02*
X4283710Y-11565890D01*
X5299710Y-11395710D02*
X5469890Y-11565890D01*
X5469890Y-11395710D02*
X5299710Y-11565890D01*
X21428710Y-7585710D02*
X21598890Y-7755890D01*
X21598890Y-7585710D02*
X21428710Y-7755890D01*
X22444710Y-7585710D02*
X22614890Y-7755890D01*
X22614890Y-7585710D02*
X22444710Y-7755890D01*
X21428710Y-5680710D02*
X21598890Y-5850890D01*
X21598890Y-5680710D02*
X21428710Y-5850890D01*
X22444710Y-5680710D02*
X22614890Y-5850890D01*
X22614890Y-5680710D02*
X22444710Y-5850890D01*
X6188710Y-9490710D02*
X6358890Y-9660890D01*
X6358890Y-9490710D02*
X6188710Y-9660890D01*
X7204710Y-9490710D02*
X7374890Y-9660890D01*
X7374890Y-9490710D02*
X7204710Y-9660890D01*
X15713710Y-5680710D02*
X15883890Y-5850890D01*
X15883890Y-5680710D02*
X15713710Y-5850890D01*
X16729710Y-5680710D02*
X16899890Y-5850890D01*
X16899890Y-5680710D02*
X16729710Y-5850890D01*
X9998710Y-11395710D02*
X10168890Y-11565890D01*
X10168890Y-11395710D02*
X9998710Y-11565890D01*
X11014710Y-11395710D02*
X11184890Y-11565890D01*
X11184890Y-11395710D02*
X11014710Y-11565890D01*
X19523710Y-5680710D02*
X19693890Y-5850890D01*
X19693890Y-5680710D02*
X19523710Y-5850890D01*
X20539710Y-5680710D02*
X20709890Y-5850890D01*
X20709890Y-5680710D02*
X20539710Y-5850890D01*
X21428710Y-11395710D02*
X21598890Y-11565890D01*
X21598890Y-11395710D02*
X21428710Y-11565890D01*
X22444710Y-11395710D02*
X22614890Y-11565890D01*
X22614890Y-11395710D02*
X22444710Y-11565890D01*
X6188710Y-7585710D02*
X6358890Y-7755890D01*
X6358890Y-7585710D02*
X6188710Y-7755890D01*
X7204710Y-7585710D02*
X7374890Y-7755890D01*
X7374890Y-7585710D02*
X7204710Y-7755890D01*
X17618710Y-7585710D02*
X17788890Y-7755890D01*
X17788890Y-7585710D02*
X17618710Y-7755890D01*
X18634710Y-7585710D02*
X18804890Y-7755890D01*
X18804890Y-7585710D02*
X18634710Y-7755890D01*
X23333710Y-9490710D02*
X23503890Y-9660890D01*
X23503890Y-9490710D02*
X23333710Y-9660890D01*
X24349710Y-9490710D02*
X24519890Y-9660890D01*
X24519890Y-9490710D02*
X24349710Y-9660890D01*
X9998710Y-9490710D02*
X10168890Y-9660890D01*
X10168890Y-9490710D02*
X9998710Y-9660890D01*
X11014710Y-9490710D02*
X11184890Y-9660890D01*
X11184890Y-9490710D02*
X11014710Y-9660890D01*
X21428710Y-9490710D02*
X21598890Y-9660890D01*
X21598890Y-9490710D02*
X21428710Y-9660890D01*
X22444710Y-9490710D02*
X22614890Y-9660890D01*
X22614890Y-9490710D02*
X22444710Y-9660890D01*
X11903710Y-9490710D02*
X12073890Y-9660890D01*
X12073890Y-9490710D02*
X11903710Y-9660890D01*
X12919710Y-9490710D02*
X13089890Y-9660890D01*
X13089890Y-9490710D02*
X12919710Y-9660890D01*
X2378710Y-5680710D02*
X2548890Y-5850890D01*
X2548890Y-5680710D02*
X2378710Y-5850890D01*
X3394710Y-5680710D02*
X3564890Y-5850890D01*
X3564890Y-5680710D02*
X3394710Y-5850890D01*
X6188710Y-11395710D02*
X6358890Y-11565890D01*
X6358890Y-11395710D02*
X6188710Y-11565890D01*
X7204710Y-11395710D02*
X7374890Y-11565890D01*
X7374890Y-11395710D02*
X7204710Y-11565890D01*
X2378710Y-9490710D02*
X2548890Y-9660890D01*
X2548890Y-9490710D02*
X2378710Y-9660890D01*
X3394710Y-9490710D02*
X3564890Y-9660890D01*
X3564890Y-9490710D02*
X3394710Y-9660890D01*
X23333710Y-5680710D02*
X23503890Y-5850890D01*
X23503890Y-5680710D02*
X23333710Y-5850890D01*
X24349710Y-5680710D02*
X24519890Y-5850890D01*
X24519890Y-5680710D02*
X24349710Y-5850890D01*
X11903710Y-7585710D02*
X12073890Y-7755890D01*
X12073890Y-7585710D02*
X11903710Y-7755890D01*
X12919710Y-7585710D02*
X13089890Y-7755890D01*
X13089890Y-7585710D02*
X12919710Y-7755890D01*
X4283710Y-5680710D02*
X4453890Y-5850890D01*
X4453890Y-5680710D02*
X4283710Y-5850890D01*
X5299710Y-5680710D02*
X5469890Y-5850890D01*
X5469890Y-5680710D02*
X5299710Y-5850890D01*
X17618710Y-5680710D02*
X17788890Y-5850890D01*
X17788890Y-5680710D02*
X17618710Y-5850890D01*
X18634710Y-5680710D02*
X18804890Y-5850890D01*
X18804890Y-5680710D02*
X18634710Y-5850890D01*
X12868910Y-11395710D02*
X13039090Y-11565890D01*
X13039090Y-11395710D02*
X12868910Y-11565890D01*
X13884910Y-11395710D02*
X14055090Y-11565890D01*
X14055090Y-11395710D02*
X13884910Y-11565890D01*
X8093710Y-5680710D02*
X8263890Y-5850890D01*
X8263890Y-5680710D02*
X8093710Y-5850890D01*
X9109710Y-5680710D02*
X9279890Y-5850890D01*
X9279890Y-5680710D02*
X9109710Y-5850890D01*
X19523710Y-9490710D02*
X19693890Y-9660890D01*
X19693890Y-9490710D02*
X19523710Y-9660890D01*
X20539710Y-9490710D02*
X20709890Y-9660890D01*
X20709890Y-9490710D02*
X20539710Y-9660890D01*
X19523710Y-11395710D02*
X19693890Y-11565890D01*
X19693890Y-11395710D02*
X19523710Y-11565890D01*
X20539710Y-11395710D02*
X20709890Y-11565890D01*
X20709890Y-11395710D02*
X20539710Y-11565890D01*
X4283710Y-7585710D02*
X4453890Y-7755890D01*
X4453890Y-7585710D02*
X4283710Y-7755890D01*
X5299710Y-7585710D02*
X5469890Y-7755890D01*
X5469890Y-7585710D02*
X5299710Y-7755890D01*
X17618710Y-11395710D02*
X17788890Y-11565890D01*
X17788890Y-11395710D02*
X17618710Y-11565890D01*
X18634710Y-11395710D02*
X18804890Y-11565890D01*
X18804890Y-11395710D02*
X18634710Y-11565890D01*
X23333710Y-7585710D02*
X23503890Y-7755890D01*
X23503890Y-7585710D02*
X23333710Y-7755890D01*
X24349710Y-7585710D02*
X24519890Y-7755890D01*
X24519890Y-7585710D02*
X24349710Y-7755890D01*
X17618710Y-9490710D02*
X17788890Y-9660890D01*
X17788890Y-9490710D02*
X17618710Y-9660890D01*
X18634710Y-9490710D02*
X18804890Y-9660890D01*
X18804890Y-9490710D02*
X18634710Y-9660890D01*
X15713710Y-7585710D02*
X15883890Y-7755890D01*
X15883890Y-7585710D02*
X15713710Y-7755890D01*
X16729710Y-7585710D02*
X16899890Y-7755890D01*
X16899890Y-7585710D02*
X16729710Y-7755890D01*
X2378710Y-11395710D02*
X2548890Y-11565890D01*
X2548890Y-11395710D02*
X2378710Y-11565890D01*
X3394710Y-11395710D02*
X3564890Y-11565890D01*
X3564890Y-11395710D02*
X3394710Y-11565890D01*
X8093710Y-7585710D02*
X8263890Y-7755890D01*
X8263890Y-7585710D02*
X8093710Y-7755890D01*
X9109710Y-7585710D02*
X9279890Y-7755890D01*
X9279890Y-7585710D02*
X9109710Y-7755890D01*
X9998710Y-5680710D02*
X10168890Y-5850890D01*
X10168890Y-5680710D02*
X9998710Y-5850890D01*
X11014710Y-5680710D02*
X11184890Y-5850890D01*
X11184890Y-5680710D02*
X11014710Y-5850890D01*
X13808710Y-9490710D02*
X13978890Y-9660890D01*
X13978890Y-9490710D02*
X13808710Y-9660890D01*
X14824710Y-9490710D02*
X14994890Y-9660890D01*
X14994890Y-9490710D02*
X14824710Y-9660890D01*
X2378710Y-7585710D02*
X2548890Y-7755890D01*
X2548890Y-7585710D02*
X2378710Y-7755890D01*
X3394710Y-7585710D02*
X3564890Y-7755890D01*
X3564890Y-7585710D02*
X3394710Y-7755890D01*
X9998710Y-7585710D02*
X10168890Y-7755890D01*
X10168890Y-7585710D02*
X9998710Y-7755890D01*
X11014710Y-7585710D02*
X11184890Y-7755890D01*
X11184890Y-7585710D02*
X11014710Y-7755890D01*
X13808710Y-5680710D02*
X13978890Y-5850890D01*
X13978890Y-5680710D02*
X13808710Y-5850890D01*
X14824710Y-5680710D02*
X14994890Y-5850890D01*
X14994890Y-5680710D02*
X14824710Y-5850890D01*
X15713710Y-11395710D02*
X15883890Y-11565890D01*
X15883890Y-11395710D02*
X15713710Y-11565890D01*
X16729710Y-11395710D02*
X16899890Y-11565890D01*
X16899890Y-11395710D02*
X16729710Y-11565890D01*
X11903710Y-5680710D02*
X12073890Y-5850890D01*
X12073890Y-5680710D02*
X11903710Y-5850890D01*
X12919710Y-5680710D02*
X13089890Y-5850890D01*
X13089890Y-5680710D02*
X12919710Y-5850890D01*
X12420600Y-10782300D02*
G75*
G03X12420600Y-10782300I-152400J0D01*
G01*
X14808200Y-10782300D02*
G75*
G03X14808200Y-10782300I-152400J0D01*
G01*
X8686800Y-11281410D02*
X8686800Y-11680190D01*
X8487410Y-11480800D02*
X8886190Y-11480800D01*
X6781800Y-5566410D02*
X6781800Y-5965190D01*
X6582410Y-5765800D02*
X6981190Y-5765800D01*
X14401800Y-7471410D02*
X14401800Y-7870190D01*
X14202410Y-7670800D02*
X14601190Y-7670800D01*
X23926800Y-11281410D02*
X23926800Y-11680190D01*
X23727410Y-11480800D02*
X24126190Y-11480800D01*
X20116800Y-7471410D02*
X20116800Y-7870190D01*
X19917410Y-7670800D02*
X20316190Y-7670800D01*
X8686800Y-9376410D02*
X8686800Y-9775190D01*
X8487410Y-9575800D02*
X8886190Y-9575800D01*
X16306800Y-9376410D02*
X16306800Y-9775190D01*
X16107410Y-9575800D02*
X16506190Y-9575800D01*
X4876800Y-9376410D02*
X4876800Y-9775190D01*
X4677410Y-9575800D02*
X5076190Y-9575800D01*
X4876800Y-11281410D02*
X4876800Y-11680190D01*
X4677410Y-11480800D02*
X5076190Y-11480800D01*
X22021800Y-7471410D02*
X22021800Y-7870190D01*
X21822410Y-7670800D02*
X22221190Y-7670800D01*
X22021800Y-5566410D02*
X22021800Y-5965190D01*
X21822410Y-5765800D02*
X22221190Y-5765800D01*
X6781800Y-9376410D02*
X6781800Y-9775190D01*
X6582410Y-9575800D02*
X6981190Y-9575800D01*
X16306800Y-5566410D02*
X16306800Y-5965190D01*
X16107410Y-5765800D02*
X16506190Y-5765800D01*
X10591800Y-11281410D02*
X10591800Y-11680190D01*
X10392410Y-11480800D02*
X10791190Y-11480800D01*
X20116800Y-5566410D02*
X20116800Y-5965190D01*
X19917410Y-5765800D02*
X20316190Y-5765800D01*
X22021800Y-11281410D02*
X22021800Y-11680190D01*
X21822410Y-11480800D02*
X22221190Y-11480800D01*
X6781800Y-7471410D02*
X6781800Y-7870190D01*
X6582410Y-7670800D02*
X6981190Y-7670800D01*
X18211800Y-7471410D02*
X18211800Y-7870190D01*
X18012410Y-7670800D02*
X18411190Y-7670800D01*
X23926800Y-9376410D02*
X23926800Y-9775190D01*
X23727410Y-9575800D02*
X24126190Y-9575800D01*
X10591800Y-9376410D02*
X10591800Y-9775190D01*
X10392410Y-9575800D02*
X10791190Y-9575800D01*
X22021800Y-9376410D02*
X22021800Y-9775190D01*
X21822410Y-9575800D02*
X22221190Y-9575800D01*
X12496800Y-9376410D02*
X12496800Y-9775190D01*
X12297410Y-9575800D02*
X12696190Y-9575800D01*
X2971800Y-5566410D02*
X2971800Y-5965190D01*
X2772410Y-5765800D02*
X3171190Y-5765800D01*
X6781800Y-11281410D02*
X6781800Y-11680190D01*
X6582410Y-11480800D02*
X6981190Y-11480800D01*
X2971800Y-9376410D02*
X2971800Y-9775190D01*
X2772410Y-9575800D02*
X3171190Y-9575800D01*
X23926800Y-5566410D02*
X23926800Y-5965190D01*
X23727410Y-5765800D02*
X24126190Y-5765800D01*
X12496800Y-7471410D02*
X12496800Y-7870190D01*
X12297410Y-7670800D02*
X12696190Y-7670800D01*
X4876800Y-5566410D02*
X4876800Y-5965190D01*
X4677410Y-5765800D02*
X5076190Y-5765800D01*
X18211800Y-5566410D02*
X18211800Y-5965190D01*
X18012410Y-5765800D02*
X18411190Y-5765800D01*
X12268200Y-12106910D02*
X12268200Y-12505690D01*
X12068810Y-12306300D02*
X12467590Y-12306300D01*
X13462000Y-11281410D02*
X13462000Y-11680190D01*
X13262610Y-11480800D02*
X13661390Y-11480800D01*
X14655800Y-12106910D02*
X14655800Y-12505690D01*
X14456410Y-12306300D02*
X14855190Y-12306300D01*
X8686800Y-5566410D02*
X8686800Y-5965190D01*
X8487410Y-5765800D02*
X8886190Y-5765800D01*
X20116800Y-9376410D02*
X20116800Y-9775190D01*
X19917410Y-9575800D02*
X20316190Y-9575800D01*
X20116800Y-11281410D02*
X20116800Y-11680190D01*
X19917410Y-11480800D02*
X20316190Y-11480800D01*
X4876800Y-7471410D02*
X4876800Y-7870190D01*
X4677410Y-7670800D02*
X5076190Y-7670800D01*
X18211800Y-11281410D02*
X18211800Y-11680190D01*
X18012410Y-11480800D02*
X18411190Y-11480800D01*
X23926800Y-7471410D02*
X23926800Y-7870190D01*
X23727410Y-7670800D02*
X24126190Y-7670800D01*
X18211800Y-9376410D02*
X18211800Y-9775190D01*
X18012410Y-9575800D02*
X18411190Y-9575800D01*
X16306800Y-7471410D02*
X16306800Y-7870190D01*
X16107410Y-7670800D02*
X16506190Y-7670800D01*
X2971800Y-11281410D02*
X2971800Y-11680190D01*
X2772410Y-11480800D02*
X3171190Y-11480800D01*
X8686800Y-7471410D02*
X8686800Y-7870190D01*
X8487410Y-7670800D02*
X8886190Y-7670800D01*
X10591800Y-5566410D02*
X10591800Y-5965190D01*
X10392410Y-5765800D02*
X10791190Y-5765800D01*
X14401800Y-9376410D02*
X14401800Y-9775190D01*
X14202410Y-9575800D02*
X14601190Y-9575800D01*
X2971800Y-7471410D02*
X2971800Y-7870190D01*
X2772410Y-7670800D02*
X3171190Y-7670800D01*
X10591800Y-7471410D02*
X10591800Y-7870190D01*
X10392410Y-7670800D02*
X10791190Y-7670800D01*
X14401800Y-5566410D02*
X14401800Y-5965190D01*
X14202410Y-5765800D02*
X14601190Y-5765800D01*
X16306800Y-11281410D02*
X16306800Y-11680190D01*
X16107410Y-11480800D02*
X16506190Y-11480800D01*
X12496800Y-5566410D02*
X12496800Y-5965190D01*
X12297410Y-5765800D02*
X12696190Y-5765800D01*
D12*
X1833328Y-13193614D02*
X1833328Y-12893614D01*
X1904757Y-12893614D01*
X1947614Y-12907900D01*
X1976186Y-12936471D01*
X1990471Y-12965043D01*
X2004757Y-13022186D01*
X2004757Y-13065043D01*
X1990471Y-13122186D01*
X1976186Y-13150757D01*
X1947614Y-13179329D01*
X1904757Y-13193614D01*
X1833328Y-13193614D01*
X2133328Y-13193614D02*
X2133328Y-12993614D01*
X2133328Y-13050757D02*
X2147614Y-13022186D01*
X2161900Y-13007900D01*
X2190471Y-12993614D01*
X2219043Y-12993614D01*
X2319043Y-13193614D02*
X2319043Y-12993614D01*
X2319043Y-12893614D02*
X2304757Y-12907900D01*
X2319043Y-12922186D01*
X2333328Y-12907900D01*
X2319043Y-12893614D01*
X2319043Y-12922186D01*
X2504757Y-13193614D02*
X2476186Y-13179329D01*
X2461900Y-13150757D01*
X2461900Y-12893614D01*
X2661900Y-13193614D02*
X2633328Y-13179329D01*
X2619043Y-13150757D01*
X2619043Y-12893614D01*
X3004757Y-13193614D02*
X3004757Y-12893614D01*
X3104757Y-13107900D01*
X3204757Y-12893614D01*
X3204757Y-13193614D01*
X3476186Y-13193614D02*
X3476186Y-13036471D01*
X3461900Y-13007900D01*
X3433328Y-12993614D01*
X3376186Y-12993614D01*
X3347614Y-13007900D01*
X3476186Y-13179329D02*
X3447614Y-13193614D01*
X3376186Y-13193614D01*
X3347614Y-13179329D01*
X3333328Y-13150757D01*
X3333328Y-13122186D01*
X3347614Y-13093614D01*
X3376186Y-13079329D01*
X3447614Y-13079329D01*
X3476186Y-13065043D01*
X3619043Y-12993614D02*
X3619043Y-13293614D01*
X3619043Y-13007900D02*
X3647614Y-12993614D01*
X3704757Y-12993614D01*
X3733328Y-13007900D01*
X3747614Y-13022186D01*
X3761900Y-13050757D01*
X3761900Y-13136471D01*
X3747614Y-13165043D01*
X3733328Y-13179329D01*
X3704757Y-13193614D01*
X3647614Y-13193614D01*
X3619043Y-13179329D01*
X3890471Y-13165043D02*
X3904757Y-13179329D01*
X3890471Y-13193614D01*
X3876186Y-13179329D01*
X3890471Y-13165043D01*
X3890471Y-13193614D01*
X3890471Y-13007900D02*
X3904757Y-13022186D01*
X3890471Y-13036471D01*
X3876186Y-13022186D01*
X3890471Y-13007900D01*
X3890471Y-13036471D01*
X1376720Y-13602810D02*
X1546900Y-13772990D01*
X1546900Y-13602810D02*
X1376720Y-13772990D01*
X1990471Y-13823614D02*
X1819043Y-13823614D01*
X1904757Y-13823614D02*
X1904757Y-13523614D01*
X1876186Y-13566471D01*
X1847614Y-13595043D01*
X1819043Y-13609329D01*
X2119043Y-13795043D02*
X2133328Y-13809329D01*
X2119043Y-13823614D01*
X2104757Y-13809329D01*
X2119043Y-13795043D01*
X2119043Y-13823614D01*
X2233328Y-13523614D02*
X2433328Y-13523614D01*
X2304757Y-13823614D01*
X2604757Y-13523614D02*
X2633328Y-13523614D01*
X2661900Y-13537900D01*
X2676186Y-13552186D01*
X2690471Y-13580757D01*
X2704757Y-13637900D01*
X2704757Y-13709329D01*
X2690471Y-13766471D01*
X2676186Y-13795043D01*
X2661900Y-13809329D01*
X2633328Y-13823614D01*
X2604757Y-13823614D01*
X2576186Y-13809329D01*
X2561900Y-13795043D01*
X2547614Y-13766471D01*
X2533328Y-13709329D01*
X2533328Y-13637900D01*
X2547614Y-13580757D01*
X2561900Y-13552186D01*
X2576186Y-13537900D01*
X2604757Y-13523614D01*
X2833328Y-13823614D02*
X2833328Y-13623614D01*
X2833328Y-13652186D02*
X2847614Y-13637900D01*
X2876186Y-13623614D01*
X2919043Y-13623614D01*
X2947614Y-13637900D01*
X2961900Y-13666471D01*
X2961900Y-13823614D01*
X2961900Y-13666471D02*
X2976186Y-13637900D01*
X3004757Y-13623614D01*
X3047614Y-13623614D01*
X3076186Y-13637900D01*
X3090471Y-13666471D01*
X3090471Y-13823614D01*
X3233328Y-13823614D02*
X3233328Y-13623614D01*
X3233328Y-13652186D02*
X3247614Y-13637900D01*
X3276186Y-13623614D01*
X3319043Y-13623614D01*
X3347614Y-13637900D01*
X3361900Y-13666471D01*
X3361900Y-13823614D01*
X3361900Y-13666471D02*
X3376186Y-13637900D01*
X3404757Y-13623614D01*
X3447614Y-13623614D01*
X3476186Y-13637900D01*
X3490471Y-13666471D01*
X3490471Y-13823614D01*
X4076186Y-13509329D02*
X3819043Y-13895043D01*
X4461900Y-13523614D02*
X4490471Y-13523614D01*
X4519043Y-13537900D01*
X4533328Y-13552186D01*
X4547614Y-13580757D01*
X4561900Y-13637900D01*
X4561900Y-13709329D01*
X4547614Y-13766471D01*
X4533328Y-13795043D01*
X4519043Y-13809329D01*
X4490471Y-13823614D01*
X4461900Y-13823614D01*
X4433328Y-13809329D01*
X4419043Y-13795043D01*
X4404757Y-13766471D01*
X4390471Y-13709329D01*
X4390471Y-13637900D01*
X4404757Y-13580757D01*
X4419043Y-13552186D01*
X4433328Y-13537900D01*
X4461900Y-13523614D01*
X4690471Y-13795043D02*
X4704757Y-13809329D01*
X4690471Y-13823614D01*
X4676186Y-13809329D01*
X4690471Y-13795043D01*
X4690471Y-13823614D01*
X4890471Y-13523614D02*
X4919043Y-13523614D01*
X4947614Y-13537900D01*
X4961900Y-13552186D01*
X4976186Y-13580757D01*
X4990471Y-13637900D01*
X4990471Y-13709329D01*
X4976186Y-13766471D01*
X4961900Y-13795043D01*
X4947614Y-13809329D01*
X4919043Y-13823614D01*
X4890471Y-13823614D01*
X4861900Y-13809329D01*
X4847614Y-13795043D01*
X4833328Y-13766471D01*
X4819043Y-13709329D01*
X4819043Y-13637900D01*
X4833328Y-13580757D01*
X4847614Y-13552186D01*
X4861900Y-13537900D01*
X4890471Y-13523614D01*
X5247614Y-13523614D02*
X5190471Y-13523614D01*
X5161900Y-13537900D01*
X5147614Y-13552186D01*
X5119043Y-13595043D01*
X5104757Y-13652186D01*
X5104757Y-13766471D01*
X5119043Y-13795043D01*
X5133328Y-13809329D01*
X5161900Y-13823614D01*
X5219043Y-13823614D01*
X5247614Y-13809329D01*
X5261900Y-13795043D01*
X5276186Y-13766471D01*
X5276186Y-13695043D01*
X5261900Y-13666471D01*
X5247614Y-13652186D01*
X5219043Y-13637900D01*
X5161900Y-13637900D01*
X5133328Y-13652186D01*
X5119043Y-13666471D01*
X5104757Y-13695043D01*
X5376186Y-13523614D02*
X5576186Y-13523614D01*
X5447614Y-13823614D01*
X5676186Y-13523614D02*
X5676186Y-13580757D01*
X5790471Y-13523614D02*
X5790471Y-13580757D01*
X6233328Y-13937900D02*
X6219043Y-13923614D01*
X6190471Y-13880757D01*
X6176186Y-13852186D01*
X6161900Y-13809329D01*
X6147614Y-13737900D01*
X6147614Y-13680757D01*
X6161900Y-13609329D01*
X6176186Y-13566471D01*
X6190471Y-13537900D01*
X6219043Y-13495043D01*
X6233328Y-13480757D01*
X6361900Y-13823614D02*
X6419043Y-13823614D01*
X6447614Y-13809329D01*
X6461900Y-13795043D01*
X6490471Y-13752186D01*
X6504757Y-13695043D01*
X6504757Y-13580757D01*
X6490471Y-13552186D01*
X6476186Y-13537900D01*
X6447614Y-13523614D01*
X6390471Y-13523614D01*
X6361900Y-13537900D01*
X6347614Y-13552186D01*
X6333328Y-13580757D01*
X6333328Y-13652186D01*
X6347614Y-13680757D01*
X6361900Y-13695043D01*
X6390471Y-13709329D01*
X6447614Y-13709329D01*
X6476186Y-13695043D01*
X6490471Y-13680757D01*
X6504757Y-13652186D01*
X6761900Y-13623614D02*
X6761900Y-13823614D01*
X6690471Y-13509329D02*
X6619043Y-13723614D01*
X6804757Y-13723614D01*
X7147614Y-13823614D02*
X7147614Y-13523614D01*
X7276186Y-13823614D02*
X7276186Y-13666471D01*
X7261900Y-13637900D01*
X7233328Y-13623614D01*
X7190471Y-13623614D01*
X7161900Y-13637900D01*
X7147614Y-13652186D01*
X7461900Y-13823614D02*
X7433328Y-13809329D01*
X7419043Y-13795043D01*
X7404757Y-13766471D01*
X7404757Y-13680757D01*
X7419043Y-13652186D01*
X7433328Y-13637900D01*
X7461900Y-13623614D01*
X7504757Y-13623614D01*
X7533328Y-13637900D01*
X7547614Y-13652186D01*
X7561900Y-13680757D01*
X7561900Y-13766471D01*
X7547614Y-13795043D01*
X7533328Y-13809329D01*
X7504757Y-13823614D01*
X7461900Y-13823614D01*
X7733328Y-13823614D02*
X7704757Y-13809329D01*
X7690471Y-13780757D01*
X7690471Y-13523614D01*
X7961900Y-13809329D02*
X7933328Y-13823614D01*
X7876186Y-13823614D01*
X7847614Y-13809329D01*
X7833328Y-13780757D01*
X7833328Y-13666471D01*
X7847614Y-13637900D01*
X7876186Y-13623614D01*
X7933328Y-13623614D01*
X7961900Y-13637900D01*
X7976186Y-13666471D01*
X7976186Y-13695043D01*
X7833328Y-13723614D01*
X8090471Y-13809329D02*
X8119043Y-13823614D01*
X8176186Y-13823614D01*
X8204757Y-13809329D01*
X8219043Y-13780757D01*
X8219043Y-13766471D01*
X8204757Y-13737900D01*
X8176186Y-13723614D01*
X8133328Y-13723614D01*
X8104757Y-13709329D01*
X8090471Y-13680757D01*
X8090471Y-13666471D01*
X8104757Y-13637900D01*
X8133328Y-13623614D01*
X8176186Y-13623614D01*
X8204757Y-13637900D01*
X8319043Y-13937900D02*
X8333328Y-13923614D01*
X8361900Y-13880757D01*
X8376186Y-13852186D01*
X8390471Y-13809329D01*
X8404757Y-13737900D01*
X8404757Y-13680757D01*
X8390471Y-13609329D01*
X8376186Y-13566471D01*
X8361900Y-13537900D01*
X8333328Y-13495043D01*
X8319043Y-13480757D01*
X8861900Y-13937900D02*
X8847614Y-13923614D01*
X8819043Y-13880757D01*
X8804757Y-13852186D01*
X8790471Y-13809329D01*
X8776186Y-13737900D01*
X8776186Y-13680757D01*
X8790471Y-13609329D01*
X8804757Y-13566471D01*
X8819043Y-13537900D01*
X8847614Y-13495043D01*
X8861900Y-13480757D01*
X8976186Y-13623614D02*
X8976186Y-13823614D01*
X8976186Y-13652186D02*
X8990471Y-13637900D01*
X9019043Y-13623614D01*
X9061900Y-13623614D01*
X9090471Y-13637900D01*
X9104757Y-13666471D01*
X9104757Y-13823614D01*
X9290471Y-13823614D02*
X9261900Y-13809329D01*
X9247614Y-13795043D01*
X9233328Y-13766471D01*
X9233328Y-13680757D01*
X9247614Y-13652186D01*
X9261900Y-13637900D01*
X9290471Y-13623614D01*
X9333328Y-13623614D01*
X9361900Y-13637900D01*
X9376186Y-13652186D01*
X9390471Y-13680757D01*
X9390471Y-13766471D01*
X9376186Y-13795043D01*
X9361900Y-13809329D01*
X9333328Y-13823614D01*
X9290471Y-13823614D01*
X9476186Y-13623614D02*
X9590471Y-13623614D01*
X9519043Y-13523614D02*
X9519043Y-13780757D01*
X9533328Y-13809329D01*
X9561900Y-13823614D01*
X9590471Y-13823614D01*
X9919043Y-13623614D02*
X9919043Y-13923614D01*
X9919043Y-13637900D02*
X9947614Y-13623614D01*
X10004757Y-13623614D01*
X10033328Y-13637900D01*
X10047614Y-13652186D01*
X10061900Y-13680757D01*
X10061900Y-13766471D01*
X10047614Y-13795043D01*
X10033328Y-13809329D01*
X10004757Y-13823614D01*
X9947614Y-13823614D01*
X9919043Y-13809329D01*
X10233328Y-13823614D02*
X10204757Y-13809329D01*
X10190471Y-13780757D01*
X10190471Y-13523614D01*
X10476186Y-13823614D02*
X10476186Y-13666471D01*
X10461900Y-13637900D01*
X10433328Y-13623614D01*
X10376186Y-13623614D01*
X10347614Y-13637900D01*
X10476186Y-13809329D02*
X10447614Y-13823614D01*
X10376186Y-13823614D01*
X10347614Y-13809329D01*
X10333328Y-13780757D01*
X10333328Y-13752186D01*
X10347614Y-13723614D01*
X10376186Y-13709329D01*
X10447614Y-13709329D01*
X10476186Y-13695043D01*
X10576186Y-13623614D02*
X10690471Y-13623614D01*
X10619043Y-13523614D02*
X10619043Y-13780757D01*
X10633328Y-13809329D01*
X10661900Y-13823614D01*
X10690471Y-13823614D01*
X10904757Y-13809329D02*
X10876186Y-13823614D01*
X10819043Y-13823614D01*
X10790471Y-13809329D01*
X10776186Y-13780757D01*
X10776186Y-13666471D01*
X10790471Y-13637900D01*
X10819043Y-13623614D01*
X10876186Y-13623614D01*
X10904757Y-13637900D01*
X10919043Y-13666471D01*
X10919043Y-13695043D01*
X10776186Y-13723614D01*
X11176186Y-13823614D02*
X11176186Y-13523614D01*
X11176186Y-13809329D02*
X11147614Y-13823614D01*
X11090471Y-13823614D01*
X11061900Y-13809329D01*
X11047614Y-13795043D01*
X11033328Y-13766471D01*
X11033328Y-13680757D01*
X11047614Y-13652186D01*
X11061900Y-13637900D01*
X11090471Y-13623614D01*
X11147614Y-13623614D01*
X11176186Y-13637900D01*
X11290471Y-13937900D02*
X11304757Y-13923614D01*
X11333328Y-13880757D01*
X11347614Y-13852186D01*
X11361900Y-13809329D01*
X11376186Y-13737900D01*
X11376186Y-13680757D01*
X11361900Y-13609329D01*
X11347614Y-13566471D01*
X11333328Y-13537900D01*
X11304757Y-13495043D01*
X11290471Y-13480757D01*
X1546900Y-14083900D02*
G75*
G03X1546900Y-14083900I-152400J0D01*
G01*
X1804757Y-13919614D02*
X1990471Y-13919614D01*
X1890471Y-14033900D01*
X1933328Y-14033900D01*
X1961900Y-14048186D01*
X1976186Y-14062471D01*
X1990471Y-14091043D01*
X1990471Y-14162471D01*
X1976186Y-14191043D01*
X1961900Y-14205329D01*
X1933328Y-14219614D01*
X1847614Y-14219614D01*
X1819043Y-14205329D01*
X1804757Y-14191043D01*
X2119043Y-14191043D02*
X2133328Y-14205329D01*
X2119043Y-14219614D01*
X2104757Y-14205329D01*
X2119043Y-14191043D01*
X2119043Y-14219614D01*
X2319043Y-13919614D02*
X2347614Y-13919614D01*
X2376186Y-13933900D01*
X2390471Y-13948186D01*
X2404757Y-13976757D01*
X2419043Y-14033900D01*
X2419043Y-14105329D01*
X2404757Y-14162471D01*
X2390471Y-14191043D01*
X2376186Y-14205329D01*
X2347614Y-14219614D01*
X2319043Y-14219614D01*
X2290471Y-14205329D01*
X2276186Y-14191043D01*
X2261900Y-14162471D01*
X2247614Y-14105329D01*
X2247614Y-14033900D01*
X2261900Y-13976757D01*
X2276186Y-13948186D01*
X2290471Y-13933900D01*
X2319043Y-13919614D01*
X2690471Y-13919614D02*
X2547614Y-13919614D01*
X2533328Y-14062471D01*
X2547614Y-14048186D01*
X2576186Y-14033900D01*
X2647614Y-14033900D01*
X2676186Y-14048186D01*
X2690471Y-14062471D01*
X2704757Y-14091043D01*
X2704757Y-14162471D01*
X2690471Y-14191043D01*
X2676186Y-14205329D01*
X2647614Y-14219614D01*
X2576186Y-14219614D01*
X2547614Y-14205329D01*
X2533328Y-14191043D01*
X2833328Y-14219614D02*
X2833328Y-14019614D01*
X2833328Y-14048186D02*
X2847614Y-14033900D01*
X2876186Y-14019614D01*
X2919043Y-14019614D01*
X2947614Y-14033900D01*
X2961900Y-14062471D01*
X2961900Y-14219614D01*
X2961900Y-14062471D02*
X2976186Y-14033900D01*
X3004757Y-14019614D01*
X3047614Y-14019614D01*
X3076186Y-14033900D01*
X3090471Y-14062471D01*
X3090471Y-14219614D01*
X3233328Y-14219614D02*
X3233328Y-14019614D01*
X3233328Y-14048186D02*
X3247614Y-14033900D01*
X3276186Y-14019614D01*
X3319043Y-14019614D01*
X3347614Y-14033900D01*
X3361900Y-14062471D01*
X3361900Y-14219614D01*
X3361900Y-14062471D02*
X3376186Y-14033900D01*
X3404757Y-14019614D01*
X3447614Y-14019614D01*
X3476186Y-14033900D01*
X3490471Y-14062471D01*
X3490471Y-14219614D01*
X4076186Y-13905329D02*
X3819043Y-14291043D01*
X4461900Y-13919614D02*
X4490471Y-13919614D01*
X4519043Y-13933900D01*
X4533328Y-13948186D01*
X4547614Y-13976757D01*
X4561900Y-14033900D01*
X4561900Y-14105329D01*
X4547614Y-14162471D01*
X4533328Y-14191043D01*
X4519043Y-14205329D01*
X4490471Y-14219614D01*
X4461900Y-14219614D01*
X4433328Y-14205329D01*
X4419043Y-14191043D01*
X4404757Y-14162471D01*
X4390471Y-14105329D01*
X4390471Y-14033900D01*
X4404757Y-13976757D01*
X4419043Y-13948186D01*
X4433328Y-13933900D01*
X4461900Y-13919614D01*
X4690471Y-14191043D02*
X4704757Y-14205329D01*
X4690471Y-14219614D01*
X4676186Y-14205329D01*
X4690471Y-14191043D01*
X4690471Y-14219614D01*
X4990471Y-14219614D02*
X4819043Y-14219614D01*
X4904757Y-14219614D02*
X4904757Y-13919614D01*
X4876186Y-13962471D01*
X4847614Y-13991043D01*
X4819043Y-14005329D01*
X5104757Y-13948186D02*
X5119043Y-13933900D01*
X5147614Y-13919614D01*
X5219043Y-13919614D01*
X5247614Y-13933900D01*
X5261900Y-13948186D01*
X5276186Y-13976757D01*
X5276186Y-14005329D01*
X5261900Y-14048186D01*
X5090471Y-14219614D01*
X5276186Y-14219614D01*
X5461900Y-13919614D02*
X5490471Y-13919614D01*
X5519043Y-13933900D01*
X5533328Y-13948186D01*
X5547614Y-13976757D01*
X5561900Y-14033900D01*
X5561900Y-14105329D01*
X5547614Y-14162471D01*
X5533328Y-14191043D01*
X5519043Y-14205329D01*
X5490471Y-14219614D01*
X5461900Y-14219614D01*
X5433328Y-14205329D01*
X5419043Y-14191043D01*
X5404757Y-14162471D01*
X5390471Y-14105329D01*
X5390471Y-14033900D01*
X5404757Y-13976757D01*
X5419043Y-13948186D01*
X5433328Y-13933900D01*
X5461900Y-13919614D01*
X5676186Y-13919614D02*
X5676186Y-13976757D01*
X5790471Y-13919614D02*
X5790471Y-13976757D01*
X6233328Y-14333900D02*
X6219043Y-14319614D01*
X6190471Y-14276757D01*
X6176186Y-14248186D01*
X6161900Y-14205329D01*
X6147614Y-14133900D01*
X6147614Y-14076757D01*
X6161900Y-14005329D01*
X6176186Y-13962471D01*
X6190471Y-13933900D01*
X6219043Y-13891043D01*
X6233328Y-13876757D01*
X6333328Y-13948186D02*
X6347614Y-13933900D01*
X6376186Y-13919614D01*
X6447614Y-13919614D01*
X6476186Y-13933900D01*
X6490471Y-13948186D01*
X6504757Y-13976757D01*
X6504757Y-14005329D01*
X6490471Y-14048186D01*
X6319043Y-14219614D01*
X6504757Y-14219614D01*
X6861900Y-14219614D02*
X6861900Y-13919614D01*
X6990471Y-14219614D02*
X6990471Y-14062471D01*
X6976186Y-14033900D01*
X6947614Y-14019614D01*
X6904757Y-14019614D01*
X6876186Y-14033900D01*
X6861900Y-14048186D01*
X7176186Y-14219614D02*
X7147614Y-14205329D01*
X7133328Y-14191043D01*
X7119043Y-14162471D01*
X7119043Y-14076757D01*
X7133328Y-14048186D01*
X7147614Y-14033900D01*
X7176186Y-14019614D01*
X7219043Y-14019614D01*
X7247614Y-14033900D01*
X7261900Y-14048186D01*
X7276186Y-14076757D01*
X7276186Y-14162471D01*
X7261900Y-14191043D01*
X7247614Y-14205329D01*
X7219043Y-14219614D01*
X7176186Y-14219614D01*
X7447614Y-14219614D02*
X7419043Y-14205329D01*
X7404757Y-14176757D01*
X7404757Y-13919614D01*
X7676186Y-14205329D02*
X7647614Y-14219614D01*
X7590471Y-14219614D01*
X7561900Y-14205329D01*
X7547614Y-14176757D01*
X7547614Y-14062471D01*
X7561900Y-14033900D01*
X7590471Y-14019614D01*
X7647614Y-14019614D01*
X7676186Y-14033900D01*
X7690471Y-14062471D01*
X7690471Y-14091043D01*
X7547614Y-14119614D01*
X7804757Y-14205329D02*
X7833328Y-14219614D01*
X7890471Y-14219614D01*
X7919043Y-14205329D01*
X7933328Y-14176757D01*
X7933328Y-14162471D01*
X7919043Y-14133900D01*
X7890471Y-14119614D01*
X7847614Y-14119614D01*
X7819043Y-14105329D01*
X7804757Y-14076757D01*
X7804757Y-14062471D01*
X7819043Y-14033900D01*
X7847614Y-14019614D01*
X7890471Y-14019614D01*
X7919043Y-14033900D01*
X8033328Y-14333900D02*
X8047614Y-14319614D01*
X8076186Y-14276757D01*
X8090471Y-14248186D01*
X8104757Y-14205329D01*
X8119043Y-14133900D01*
X8119043Y-14076757D01*
X8104757Y-14005329D01*
X8090471Y-13962471D01*
X8076186Y-13933900D01*
X8047614Y-13891043D01*
X8033328Y-13876757D01*
X8576186Y-14333900D02*
X8561900Y-14319614D01*
X8533328Y-14276757D01*
X8519043Y-14248186D01*
X8504757Y-14205329D01*
X8490471Y-14133900D01*
X8490471Y-14076757D01*
X8504757Y-14005329D01*
X8519043Y-13962471D01*
X8533328Y-13933900D01*
X8561900Y-13891043D01*
X8576186Y-13876757D01*
X8690471Y-14019614D02*
X8690471Y-14219614D01*
X8690471Y-14048186D02*
X8704757Y-14033900D01*
X8733328Y-14019614D01*
X8776186Y-14019614D01*
X8804757Y-14033900D01*
X8819043Y-14062471D01*
X8819043Y-14219614D01*
X9004757Y-14219614D02*
X8976186Y-14205329D01*
X8961900Y-14191043D01*
X8947614Y-14162471D01*
X8947614Y-14076757D01*
X8961900Y-14048186D01*
X8976186Y-14033900D01*
X9004757Y-14019614D01*
X9047614Y-14019614D01*
X9076186Y-14033900D01*
X9090471Y-14048186D01*
X9104757Y-14076757D01*
X9104757Y-14162471D01*
X9090471Y-14191043D01*
X9076186Y-14205329D01*
X9047614Y-14219614D01*
X9004757Y-14219614D01*
X9190471Y-14019614D02*
X9304757Y-14019614D01*
X9233328Y-13919614D02*
X9233328Y-14176757D01*
X9247614Y-14205329D01*
X9276186Y-14219614D01*
X9304757Y-14219614D01*
X9633328Y-14019614D02*
X9633328Y-14319614D01*
X9633328Y-14033900D02*
X9661900Y-14019614D01*
X9719043Y-14019614D01*
X9747614Y-14033900D01*
X9761900Y-14048186D01*
X9776186Y-14076757D01*
X9776186Y-14162471D01*
X9761900Y-14191043D01*
X9747614Y-14205329D01*
X9719043Y-14219614D01*
X9661900Y-14219614D01*
X9633328Y-14205329D01*
X9947614Y-14219614D02*
X9919043Y-14205329D01*
X9904757Y-14176757D01*
X9904757Y-13919614D01*
X10190471Y-14219614D02*
X10190471Y-14062471D01*
X10176186Y-14033900D01*
X10147614Y-14019614D01*
X10090471Y-14019614D01*
X10061900Y-14033900D01*
X10190471Y-14205329D02*
X10161900Y-14219614D01*
X10090471Y-14219614D01*
X10061900Y-14205329D01*
X10047614Y-14176757D01*
X10047614Y-14148186D01*
X10061900Y-14119614D01*
X10090471Y-14105329D01*
X10161900Y-14105329D01*
X10190471Y-14091043D01*
X10290471Y-14019614D02*
X10404757Y-14019614D01*
X10333328Y-13919614D02*
X10333328Y-14176757D01*
X10347614Y-14205329D01*
X10376186Y-14219614D01*
X10404757Y-14219614D01*
X10619043Y-14205329D02*
X10590471Y-14219614D01*
X10533328Y-14219614D01*
X10504757Y-14205329D01*
X10490471Y-14176757D01*
X10490471Y-14062471D01*
X10504757Y-14033900D01*
X10533328Y-14019614D01*
X10590471Y-14019614D01*
X10619043Y-14033900D01*
X10633328Y-14062471D01*
X10633328Y-14091043D01*
X10490471Y-14119614D01*
X10890471Y-14219614D02*
X10890471Y-13919614D01*
X10890471Y-14205329D02*
X10861900Y-14219614D01*
X10804757Y-14219614D01*
X10776186Y-14205329D01*
X10761900Y-14191043D01*
X10747614Y-14162471D01*
X10747614Y-14076757D01*
X10761900Y-14048186D01*
X10776186Y-14033900D01*
X10804757Y-14019614D01*
X10861900Y-14019614D01*
X10890471Y-14033900D01*
X11004757Y-14333900D02*
X11019043Y-14319614D01*
X11047614Y-14276757D01*
X11061900Y-14248186D01*
X11076186Y-14205329D01*
X11090471Y-14133900D01*
X11090471Y-14076757D01*
X11076186Y-14005329D01*
X11061900Y-13962471D01*
X11047614Y-13933900D01*
X11019043Y-13891043D01*
X11004757Y-13876757D01*
X1347510Y-14319310D02*
X1347510Y-14718090D01*
X1148120Y-14518700D02*
X1546900Y-14518700D01*
X1804757Y-14354414D02*
X1990471Y-14354414D01*
X1890471Y-14468700D01*
X1933328Y-14468700D01*
X1961900Y-14482986D01*
X1976186Y-14497271D01*
X1990471Y-14525843D01*
X1990471Y-14597271D01*
X1976186Y-14625843D01*
X1961900Y-14640129D01*
X1933328Y-14654414D01*
X1847614Y-14654414D01*
X1819043Y-14640129D01*
X1804757Y-14625843D01*
X2119043Y-14625843D02*
X2133328Y-14640129D01*
X2119043Y-14654414D01*
X2104757Y-14640129D01*
X2119043Y-14625843D01*
X2119043Y-14654414D01*
X2276186Y-14654414D02*
X2333328Y-14654414D01*
X2361900Y-14640129D01*
X2376186Y-14625843D01*
X2404757Y-14582986D01*
X2419043Y-14525843D01*
X2419043Y-14411557D01*
X2404757Y-14382986D01*
X2390471Y-14368700D01*
X2361900Y-14354414D01*
X2304757Y-14354414D01*
X2276186Y-14368700D01*
X2261900Y-14382986D01*
X2247614Y-14411557D01*
X2247614Y-14482986D01*
X2261900Y-14511557D01*
X2276186Y-14525843D01*
X2304757Y-14540129D01*
X2361900Y-14540129D01*
X2390471Y-14525843D01*
X2404757Y-14511557D01*
X2419043Y-14482986D01*
X2561900Y-14654414D02*
X2619043Y-14654414D01*
X2647614Y-14640129D01*
X2661900Y-14625843D01*
X2690471Y-14582986D01*
X2704757Y-14525843D01*
X2704757Y-14411557D01*
X2690471Y-14382986D01*
X2676186Y-14368700D01*
X2647614Y-14354414D01*
X2590471Y-14354414D01*
X2561900Y-14368700D01*
X2547614Y-14382986D01*
X2533328Y-14411557D01*
X2533328Y-14482986D01*
X2547614Y-14511557D01*
X2561900Y-14525843D01*
X2590471Y-14540129D01*
X2647614Y-14540129D01*
X2676186Y-14525843D01*
X2690471Y-14511557D01*
X2704757Y-14482986D01*
X2833328Y-14654414D02*
X2833328Y-14454414D01*
X2833328Y-14482986D02*
X2847614Y-14468700D01*
X2876186Y-14454414D01*
X2919043Y-14454414D01*
X2947614Y-14468700D01*
X2961900Y-14497271D01*
X2961900Y-14654414D01*
X2961900Y-14497271D02*
X2976186Y-14468700D01*
X3004757Y-14454414D01*
X3047614Y-14454414D01*
X3076186Y-14468700D01*
X3090471Y-14497271D01*
X3090471Y-14654414D01*
X3233328Y-14654414D02*
X3233328Y-14454414D01*
X3233328Y-14482986D02*
X3247614Y-14468700D01*
X3276186Y-14454414D01*
X3319043Y-14454414D01*
X3347614Y-14468700D01*
X3361900Y-14497271D01*
X3361900Y-14654414D01*
X3361900Y-14497271D02*
X3376186Y-14468700D01*
X3404757Y-14454414D01*
X3447614Y-14454414D01*
X3476186Y-14468700D01*
X3490471Y-14497271D01*
X3490471Y-14654414D01*
X4076186Y-14340129D02*
X3819043Y-14725843D01*
X4461900Y-14354414D02*
X4490471Y-14354414D01*
X4519043Y-14368700D01*
X4533328Y-14382986D01*
X4547614Y-14411557D01*
X4561900Y-14468700D01*
X4561900Y-14540129D01*
X4547614Y-14597271D01*
X4533328Y-14625843D01*
X4519043Y-14640129D01*
X4490471Y-14654414D01*
X4461900Y-14654414D01*
X4433328Y-14640129D01*
X4419043Y-14625843D01*
X4404757Y-14597271D01*
X4390471Y-14540129D01*
X4390471Y-14468700D01*
X4404757Y-14411557D01*
X4419043Y-14382986D01*
X4433328Y-14368700D01*
X4461900Y-14354414D01*
X4690471Y-14625843D02*
X4704757Y-14640129D01*
X4690471Y-14654414D01*
X4676186Y-14640129D01*
X4690471Y-14625843D01*
X4690471Y-14654414D01*
X4990471Y-14654414D02*
X4819043Y-14654414D01*
X4904757Y-14654414D02*
X4904757Y-14354414D01*
X4876186Y-14397271D01*
X4847614Y-14425843D01*
X4819043Y-14440129D01*
X5261900Y-14354414D02*
X5119043Y-14354414D01*
X5104757Y-14497271D01*
X5119043Y-14482986D01*
X5147614Y-14468700D01*
X5219043Y-14468700D01*
X5247614Y-14482986D01*
X5261900Y-14497271D01*
X5276186Y-14525843D01*
X5276186Y-14597271D01*
X5261900Y-14625843D01*
X5247614Y-14640129D01*
X5219043Y-14654414D01*
X5147614Y-14654414D01*
X5119043Y-14640129D01*
X5104757Y-14625843D01*
X5376186Y-14354414D02*
X5576186Y-14354414D01*
X5447614Y-14654414D01*
X5676186Y-14354414D02*
X5676186Y-14411557D01*
X5790471Y-14354414D02*
X5790471Y-14411557D01*
X6233328Y-14768700D02*
X6219043Y-14754414D01*
X6190471Y-14711557D01*
X6176186Y-14682986D01*
X6161900Y-14640129D01*
X6147614Y-14568700D01*
X6147614Y-14511557D01*
X6161900Y-14440129D01*
X6176186Y-14397271D01*
X6190471Y-14368700D01*
X6219043Y-14325843D01*
X6233328Y-14311557D01*
X6476186Y-14454414D02*
X6476186Y-14654414D01*
X6404757Y-14340129D02*
X6333328Y-14554414D01*
X6519043Y-14554414D01*
X6647614Y-14654414D02*
X6704757Y-14654414D01*
X6733328Y-14640129D01*
X6747614Y-14625843D01*
X6776186Y-14582986D01*
X6790471Y-14525843D01*
X6790471Y-14411557D01*
X6776186Y-14382986D01*
X6761900Y-14368700D01*
X6733328Y-14354414D01*
X6676186Y-14354414D01*
X6647614Y-14368700D01*
X6633328Y-14382986D01*
X6619043Y-14411557D01*
X6619043Y-14482986D01*
X6633328Y-14511557D01*
X6647614Y-14525843D01*
X6676186Y-14540129D01*
X6733328Y-14540129D01*
X6761900Y-14525843D01*
X6776186Y-14511557D01*
X6790471Y-14482986D01*
X7147614Y-14654414D02*
X7147614Y-14354414D01*
X7276186Y-14654414D02*
X7276186Y-14497271D01*
X7261900Y-14468700D01*
X7233328Y-14454414D01*
X7190471Y-14454414D01*
X7161900Y-14468700D01*
X7147614Y-14482986D01*
X7461900Y-14654414D02*
X7433328Y-14640129D01*
X7419043Y-14625843D01*
X7404757Y-14597271D01*
X7404757Y-14511557D01*
X7419043Y-14482986D01*
X7433328Y-14468700D01*
X7461900Y-14454414D01*
X7504757Y-14454414D01*
X7533328Y-14468700D01*
X7547614Y-14482986D01*
X7561900Y-14511557D01*
X7561900Y-14597271D01*
X7547614Y-14625843D01*
X7533328Y-14640129D01*
X7504757Y-14654414D01*
X7461900Y-14654414D01*
X7733328Y-14654414D02*
X7704757Y-14640129D01*
X7690471Y-14611557D01*
X7690471Y-14354414D01*
X7961900Y-14640129D02*
X7933328Y-14654414D01*
X7876186Y-14654414D01*
X7847614Y-14640129D01*
X7833328Y-14611557D01*
X7833328Y-14497271D01*
X7847614Y-14468700D01*
X7876186Y-14454414D01*
X7933328Y-14454414D01*
X7961900Y-14468700D01*
X7976186Y-14497271D01*
X7976186Y-14525843D01*
X7833328Y-14554414D01*
X8090471Y-14640129D02*
X8119043Y-14654414D01*
X8176186Y-14654414D01*
X8204757Y-14640129D01*
X8219043Y-14611557D01*
X8219043Y-14597271D01*
X8204757Y-14568700D01*
X8176186Y-14554414D01*
X8133328Y-14554414D01*
X8104757Y-14540129D01*
X8090471Y-14511557D01*
X8090471Y-14497271D01*
X8104757Y-14468700D01*
X8133328Y-14454414D01*
X8176186Y-14454414D01*
X8204757Y-14468700D01*
X8319043Y-14768700D02*
X8333328Y-14754414D01*
X8361900Y-14711557D01*
X8376186Y-14682986D01*
X8390471Y-14640129D01*
X8404757Y-14568700D01*
X8404757Y-14511557D01*
X8390471Y-14440129D01*
X8376186Y-14397271D01*
X8361900Y-14368700D01*
X8333328Y-14325843D01*
X8319043Y-14311557D01*
X8861900Y-14768700D02*
X8847614Y-14754414D01*
X8819043Y-14711557D01*
X8804757Y-14682986D01*
X8790471Y-14640129D01*
X8776186Y-14568700D01*
X8776186Y-14511557D01*
X8790471Y-14440129D01*
X8804757Y-14397271D01*
X8819043Y-14368700D01*
X8847614Y-14325843D01*
X8861900Y-14311557D01*
X8976186Y-14454414D02*
X8976186Y-14654414D01*
X8976186Y-14482986D02*
X8990471Y-14468700D01*
X9019043Y-14454414D01*
X9061900Y-14454414D01*
X9090471Y-14468700D01*
X9104757Y-14497271D01*
X9104757Y-14654414D01*
X9290471Y-14654414D02*
X9261900Y-14640129D01*
X9247614Y-14625843D01*
X9233328Y-14597271D01*
X9233328Y-14511557D01*
X9247614Y-14482986D01*
X9261900Y-14468700D01*
X9290471Y-14454414D01*
X9333328Y-14454414D01*
X9361900Y-14468700D01*
X9376186Y-14482986D01*
X9390471Y-14511557D01*
X9390471Y-14597271D01*
X9376186Y-14625843D01*
X9361900Y-14640129D01*
X9333328Y-14654414D01*
X9290471Y-14654414D01*
X9476186Y-14454414D02*
X9590471Y-14454414D01*
X9519043Y-14354414D02*
X9519043Y-14611557D01*
X9533328Y-14640129D01*
X9561900Y-14654414D01*
X9590471Y-14654414D01*
X9919043Y-14454414D02*
X9919043Y-14754414D01*
X9919043Y-14468700D02*
X9947614Y-14454414D01*
X10004757Y-14454414D01*
X10033328Y-14468700D01*
X10047614Y-14482986D01*
X10061900Y-14511557D01*
X10061900Y-14597271D01*
X10047614Y-14625843D01*
X10033328Y-14640129D01*
X10004757Y-14654414D01*
X9947614Y-14654414D01*
X9919043Y-14640129D01*
X10233328Y-14654414D02*
X10204757Y-14640129D01*
X10190471Y-14611557D01*
X10190471Y-14354414D01*
X10476186Y-14654414D02*
X10476186Y-14497271D01*
X10461900Y-14468700D01*
X10433328Y-14454414D01*
X10376186Y-14454414D01*
X10347614Y-14468700D01*
X10476186Y-14640129D02*
X10447614Y-14654414D01*
X10376186Y-14654414D01*
X10347614Y-14640129D01*
X10333328Y-14611557D01*
X10333328Y-14582986D01*
X10347614Y-14554414D01*
X10376186Y-14540129D01*
X10447614Y-14540129D01*
X10476186Y-14525843D01*
X10576186Y-14454414D02*
X10690471Y-14454414D01*
X10619043Y-14354414D02*
X10619043Y-14611557D01*
X10633328Y-14640129D01*
X10661900Y-14654414D01*
X10690471Y-14654414D01*
X10904757Y-14640129D02*
X10876186Y-14654414D01*
X10819043Y-14654414D01*
X10790471Y-14640129D01*
X10776186Y-14611557D01*
X10776186Y-14497271D01*
X10790471Y-14468700D01*
X10819043Y-14454414D01*
X10876186Y-14454414D01*
X10904757Y-14468700D01*
X10919043Y-14497271D01*
X10919043Y-14525843D01*
X10776186Y-14554414D01*
X11176186Y-14654414D02*
X11176186Y-14354414D01*
X11176186Y-14640129D02*
X11147614Y-14654414D01*
X11090471Y-14654414D01*
X11061900Y-14640129D01*
X11047614Y-14625843D01*
X11033328Y-14597271D01*
X11033328Y-14511557D01*
X11047614Y-14482986D01*
X11061900Y-14468700D01*
X11090471Y-14454414D01*
X11147614Y-14454414D01*
X11176186Y-14468700D01*
X11290471Y-14768700D02*
X11304757Y-14754414D01*
X11333328Y-14711557D01*
X11347614Y-14682986D01*
X11361900Y-14640129D01*
X11376186Y-14568700D01*
X11376186Y-14511557D01*
X11361900Y-14440129D01*
X11347614Y-14397271D01*
X11333328Y-14368700D01*
X11304757Y-14325843D01*
X11290471Y-14311557D01*
M02*
