%FSLAX45Y45*%
G04 Gerber Fmt 4.5, Leading zero omitted, Abs format (unit mm)*
G04 Created by KiCad (PCBNEW (5.1.0)-1) date 2020-09-20 16:15:59*
%MOMM*%
%LPD*%
G04 APERTURE LIST*
%ADD10C,0.050000*%
%ADD11C,0.200000*%
%ADD12C,0.300000*%
G04 APERTURE END LIST*
D10*
X24663400Y-3683000D02*
X24663400Y-3454400D01*
X24155400Y-3454400D02*
X24155400Y-3683000D01*
X24155400Y-3683000D02*
X24663400Y-3683000D01*
X1549400Y-3454400D02*
X1549400Y-12725400D01*
X24155400Y-3454400D02*
X1549400Y-3454400D01*
X25298400Y-3454400D02*
X24663400Y-3454400D01*
X25298400Y-12725400D02*
X25298400Y-3454400D01*
X1549400Y-12725400D02*
X25298400Y-12725400D01*
D11*
X6990400Y-5009200D02*
X7030400Y-5049200D01*
X7030400Y-5009200D02*
X6990400Y-5049200D01*
X7346000Y-3967800D02*
X7386000Y-4007800D01*
X7386000Y-3967800D02*
X7346000Y-4007800D01*
X7346000Y-4069400D02*
X7386000Y-4109400D01*
X7386000Y-4069400D02*
X7346000Y-4109400D01*
X7346000Y-4272600D02*
X7386000Y-4312600D01*
X7386000Y-4272600D02*
X7346000Y-4312600D01*
X7346489Y-4170559D02*
X7386489Y-4210559D01*
X7386489Y-4170559D02*
X7346489Y-4210559D01*
X7473000Y-5081700D02*
X7513000Y-5121700D01*
X7513000Y-5081700D02*
X7473000Y-5121700D01*
X8387400Y-4907600D02*
X8427400Y-4947600D01*
X8427400Y-4907600D02*
X8387400Y-4947600D01*
X8768400Y-4983800D02*
X8808400Y-5023800D01*
X8808400Y-4983800D02*
X8768400Y-5023800D01*
X8870000Y-4929300D02*
X8910000Y-4969300D01*
X8910000Y-4929300D02*
X8870000Y-4969300D01*
X9047800Y-4501200D02*
X9087800Y-4541200D01*
X9087800Y-4501200D02*
X9047800Y-4541200D01*
X9098600Y-4983800D02*
X9138600Y-5023800D01*
X9138600Y-4983800D02*
X9098600Y-5023800D01*
X9131005Y-4445730D02*
X9171005Y-4485730D01*
X9171005Y-4445730D02*
X9131005Y-4485730D01*
X9228687Y-4424324D02*
X9268687Y-4464324D01*
X9268687Y-4424324D02*
X9228687Y-4464324D01*
X9301800Y-4348800D02*
X9341800Y-4388800D01*
X9341800Y-4348800D02*
X9301800Y-4388800D01*
X10546400Y-4577400D02*
X10586400Y-4617400D01*
X10586400Y-4577400D02*
X10546400Y-4617400D01*
X12857800Y-4018600D02*
X12897800Y-4058600D01*
X12897800Y-4018600D02*
X12857800Y-4058600D01*
X12857800Y-4121800D02*
X12897800Y-4161800D01*
X12897800Y-4121800D02*
X12857800Y-4161800D01*
X12857800Y-4221800D02*
X12897800Y-4261800D01*
X12897800Y-4221800D02*
X12857800Y-4261800D01*
X12857800Y-4348800D02*
X12897800Y-4388800D01*
X12897800Y-4348800D02*
X12857800Y-4388800D01*
X12857800Y-4501200D02*
X12897800Y-4541200D01*
X12897800Y-4501200D02*
X12857800Y-4541200D01*
X12857800Y-4602800D02*
X12897800Y-4642800D01*
X12897800Y-4602800D02*
X12857800Y-4642800D01*
X12857800Y-4729800D02*
X12897800Y-4769800D01*
X12897800Y-4729800D02*
X12857800Y-4769800D01*
X12959400Y-5060000D02*
X12999400Y-5100000D01*
X12999400Y-5060000D02*
X12959400Y-5100000D01*
X15245400Y-5136200D02*
X15285400Y-5176200D01*
X15285400Y-5136200D02*
X15245400Y-5176200D01*
X22154200Y-4729800D02*
X22194200Y-4769800D01*
X22194200Y-4729800D02*
X22154200Y-4769800D01*
X22255800Y-4729800D02*
X22295800Y-4769800D01*
X22295800Y-4729800D02*
X22255800Y-4769800D01*
X22357400Y-4729800D02*
X22397400Y-4769800D01*
X22397400Y-4729800D02*
X22357400Y-4769800D01*
X23703600Y-4395900D02*
X23743600Y-4435900D01*
X23743600Y-4395900D02*
X23703600Y-4435900D01*
X23723201Y-4176799D02*
X23763201Y-4216799D01*
X23763201Y-4176799D02*
X23723201Y-4216799D01*
X24116800Y-3911900D02*
X24156800Y-3951900D01*
X24156800Y-3911900D02*
X24116800Y-3951900D01*
X24117300Y-4044400D02*
X24157300Y-4084400D01*
X24157300Y-4044400D02*
X24117300Y-4084400D01*
X24201800Y-3911900D02*
X24241800Y-3951900D01*
X24241800Y-3911900D02*
X24201800Y-3951900D01*
X24202300Y-4044400D02*
X24242300Y-4084400D01*
X24242300Y-4044400D02*
X24202300Y-4084400D01*
X24286800Y-3911900D02*
X24326800Y-3951900D01*
X24326800Y-3911900D02*
X24286800Y-3951900D01*
X24287300Y-4044400D02*
X24327300Y-4084400D01*
X24327300Y-4044400D02*
X24287300Y-4084400D01*
X24371800Y-3911900D02*
X24411800Y-3951900D01*
X24411800Y-3911900D02*
X24371800Y-3951900D01*
X24372300Y-4044400D02*
X24412300Y-4084400D01*
X24412300Y-4044400D02*
X24372300Y-4084400D01*
X24456800Y-3911900D02*
X24496800Y-3951900D01*
X24496800Y-3911900D02*
X24456800Y-3951900D01*
X24457300Y-4044400D02*
X24497300Y-4084400D01*
X24497300Y-4044400D02*
X24457300Y-4084400D01*
X24541800Y-3911900D02*
X24581800Y-3951900D01*
X24581800Y-3911900D02*
X24541800Y-3951900D01*
X24542300Y-4044400D02*
X24582300Y-4084400D01*
X24582300Y-4044400D02*
X24542300Y-4084400D01*
X24626800Y-3911900D02*
X24666800Y-3951900D01*
X24666800Y-3911900D02*
X24626800Y-3951900D01*
X24627300Y-4044400D02*
X24667300Y-4084400D01*
X24667300Y-4044400D02*
X24627300Y-4084400D01*
X24712300Y-3911900D02*
X24752300Y-3951900D01*
X24752300Y-3911900D02*
X24712300Y-3951900D01*
X24712300Y-4044400D02*
X24752300Y-4084400D01*
X24752300Y-4044400D02*
X24712300Y-4084400D01*
X24032300Y-3628400D02*
G75*
G03X24032300Y-3628400I-30000J0D01*
G01*
X24022300Y-3668400D02*
X24022300Y-3588400D01*
X23982300Y-3668400D02*
X23982300Y-3588400D01*
X24022300Y-3588400D02*
G75*
G03X23982300Y-3588400I-20000J0D01*
G01*
X23982300Y-3668400D02*
G75*
G03X24022300Y-3668400I20000J0D01*
G01*
X24032300Y-3966400D02*
G75*
G03X24032300Y-3966400I-30000J0D01*
G01*
X24022300Y-4041400D02*
X24022300Y-3891400D01*
X23982300Y-4041400D02*
X23982300Y-3891400D01*
X24022300Y-3891400D02*
G75*
G03X23982300Y-3891400I-20000J0D01*
G01*
X23982300Y-4041400D02*
G75*
G03X24022300Y-4041400I20000J0D01*
G01*
X24897300Y-3628400D02*
G75*
G03X24897300Y-3628400I-30000J0D01*
G01*
X24887300Y-3668400D02*
X24887300Y-3588400D01*
X24847300Y-3668400D02*
X24847300Y-3588400D01*
X24887300Y-3588400D02*
G75*
G03X24847300Y-3588400I-20000J0D01*
G01*
X24847300Y-3668400D02*
G75*
G03X24887300Y-3668400I20000J0D01*
G01*
X24897300Y-3966400D02*
G75*
G03X24897300Y-3966400I-30000J0D01*
G01*
X24887300Y-4041400D02*
X24887300Y-3891400D01*
X24847300Y-4041400D02*
X24847300Y-3891400D01*
X24887300Y-3891400D02*
G75*
G03X24847300Y-3891400I-20000J0D01*
G01*
X24847300Y-4041400D02*
G75*
G03X24887300Y-4041400I20000J0D01*
G01*
X10201800Y-9972600D02*
X10201800Y-10042600D01*
X10166800Y-10007600D02*
X10236800Y-10007600D01*
X10981800Y-9972600D02*
X10981800Y-10042600D01*
X10946800Y-10007600D02*
X11016800Y-10007600D01*
X17821800Y-9972600D02*
X17821800Y-10042600D01*
X17786800Y-10007600D02*
X17856800Y-10007600D01*
X18601800Y-9972600D02*
X18601800Y-10042600D01*
X18566800Y-10007600D02*
X18636800Y-10007600D01*
X21631800Y-11877600D02*
X21631800Y-11947600D01*
X21596800Y-11912600D02*
X21666800Y-11912600D01*
X22411800Y-11877600D02*
X22411800Y-11947600D01*
X22376800Y-11912600D02*
X22446800Y-11912600D01*
X23536800Y-9972600D02*
X23536800Y-10042600D01*
X23501800Y-10007600D02*
X23571800Y-10007600D01*
X24316800Y-9972600D02*
X24316800Y-10042600D01*
X24281800Y-10007600D02*
X24351800Y-10007600D01*
X8296800Y-9972600D02*
X8296800Y-10042600D01*
X8261800Y-10007600D02*
X8331800Y-10007600D01*
X9076800Y-9972600D02*
X9076800Y-10042600D01*
X9041800Y-10007600D02*
X9111800Y-10007600D01*
X23536800Y-11877600D02*
X23536800Y-11947600D01*
X23501800Y-11912600D02*
X23571800Y-11912600D01*
X24316800Y-11877600D02*
X24316800Y-11947600D01*
X24281800Y-11912600D02*
X24351800Y-11912600D01*
X2581800Y-6162600D02*
X2581800Y-6232600D01*
X2546800Y-6197600D02*
X2616800Y-6197600D01*
X3361800Y-6162600D02*
X3361800Y-6232600D01*
X3326800Y-6197600D02*
X3396800Y-6197600D01*
X12106800Y-8093000D02*
X12106800Y-8163000D01*
X12071800Y-8128000D02*
X12141800Y-8128000D01*
X12886800Y-8093000D02*
X12886800Y-8163000D01*
X12851800Y-8128000D02*
X12921800Y-8128000D01*
X13072000Y-11877600D02*
X13072000Y-11947600D01*
X13037000Y-11912600D02*
X13107000Y-11912600D01*
X13852000Y-11877600D02*
X13852000Y-11947600D01*
X13817000Y-11912600D02*
X13887000Y-11912600D01*
X19726800Y-6162600D02*
X19726800Y-6232600D01*
X19691800Y-6197600D02*
X19761800Y-6197600D01*
X20506800Y-6162600D02*
X20506800Y-6232600D01*
X20471800Y-6197600D02*
X20541800Y-6197600D01*
X15891400Y-8067600D02*
X15891400Y-8137600D01*
X15856400Y-8102600D02*
X15926400Y-8102600D01*
X16671400Y-8067600D02*
X16671400Y-8137600D01*
X16636400Y-8102600D02*
X16706400Y-8102600D01*
X21631800Y-9972600D02*
X21631800Y-10042600D01*
X21596800Y-10007600D02*
X21666800Y-10007600D01*
X22411800Y-9972600D02*
X22411800Y-10042600D01*
X22376800Y-10007600D02*
X22446800Y-10007600D01*
X2581800Y-8067600D02*
X2581800Y-8137600D01*
X2546800Y-8102600D02*
X2616800Y-8102600D01*
X3361800Y-8067600D02*
X3361800Y-8137600D01*
X3326800Y-8102600D02*
X3396800Y-8102600D01*
X23536800Y-8067600D02*
X23536800Y-8137600D01*
X23501800Y-8102600D02*
X23571800Y-8102600D01*
X24316800Y-8067600D02*
X24316800Y-8137600D01*
X24281800Y-8102600D02*
X24351800Y-8102600D01*
X17821800Y-6162600D02*
X17821800Y-6232600D01*
X17786800Y-6197600D02*
X17856800Y-6197600D01*
X18601800Y-6162600D02*
X18601800Y-6232600D01*
X18566800Y-6197600D02*
X18636800Y-6197600D01*
X6386700Y-6188000D02*
X6386700Y-6258000D01*
X6351700Y-6223000D02*
X6421700Y-6223000D01*
X7166700Y-6188000D02*
X7166700Y-6258000D01*
X7131700Y-6223000D02*
X7201700Y-6223000D01*
X15916800Y-6162600D02*
X15916800Y-6232600D01*
X15881800Y-6197600D02*
X15951800Y-6197600D01*
X16696800Y-6162600D02*
X16696800Y-6232600D01*
X16661800Y-6197600D02*
X16731800Y-6197600D01*
X6391800Y-9972600D02*
X6391800Y-10042600D01*
X6356800Y-10007600D02*
X6426800Y-10007600D01*
X7171800Y-9972600D02*
X7171800Y-10042600D01*
X7136800Y-10007600D02*
X7206800Y-10007600D01*
X14011800Y-9972600D02*
X14011800Y-10042600D01*
X13976800Y-10007600D02*
X14046800Y-10007600D01*
X14791800Y-9972600D02*
X14791800Y-10042600D01*
X14756800Y-10007600D02*
X14826800Y-10007600D01*
X2581800Y-11877600D02*
X2581800Y-11947600D01*
X2546800Y-11912600D02*
X2616800Y-11912600D01*
X3361800Y-11877600D02*
X3361800Y-11947600D01*
X3326800Y-11912600D02*
X3396800Y-11912600D01*
X6391800Y-11877600D02*
X6391800Y-11947600D01*
X6356800Y-11912600D02*
X6426800Y-11912600D01*
X7171800Y-11877600D02*
X7171800Y-11947600D01*
X7136800Y-11912600D02*
X7206800Y-11912600D01*
X19726800Y-11877600D02*
X19726800Y-11947600D01*
X19691800Y-11912600D02*
X19761800Y-11912600D01*
X20506800Y-11877600D02*
X20506800Y-11947600D01*
X20471800Y-11912600D02*
X20541800Y-11912600D01*
X23536800Y-6162600D02*
X23536800Y-6232600D01*
X23501800Y-6197600D02*
X23571800Y-6197600D01*
X24316800Y-6162600D02*
X24316800Y-6232600D01*
X24281800Y-6197600D02*
X24351800Y-6197600D01*
X10201800Y-11877600D02*
X10201800Y-11947600D01*
X10166800Y-11912600D02*
X10236800Y-11912600D01*
X10981800Y-11877600D02*
X10981800Y-11947600D01*
X10946800Y-11912600D02*
X11016800Y-11912600D01*
X6391800Y-8067600D02*
X6391800Y-8137600D01*
X6356800Y-8102600D02*
X6426800Y-8102600D01*
X7171800Y-8067600D02*
X7171800Y-8137600D01*
X7136800Y-8102600D02*
X7206800Y-8102600D01*
X6781800Y-4063400D02*
X6781800Y-4133400D01*
X6746800Y-4098400D02*
X6816800Y-4098400D01*
X6781800Y-4553400D02*
X6781800Y-4623400D01*
X6746800Y-4588400D02*
X6816800Y-4588400D01*
X10201800Y-8067600D02*
X10201800Y-8137600D01*
X10166800Y-8102600D02*
X10236800Y-8102600D01*
X10981800Y-8067600D02*
X10981800Y-8137600D01*
X10946800Y-8102600D02*
X11016800Y-8102600D01*
X15916800Y-11877600D02*
X15916800Y-11947600D01*
X15881800Y-11912600D02*
X15951800Y-11912600D01*
X16696800Y-11877600D02*
X16696800Y-11947600D01*
X16661800Y-11912600D02*
X16731800Y-11912600D01*
X10201800Y-6162600D02*
X10201800Y-6232600D01*
X10166800Y-6197600D02*
X10236800Y-6197600D01*
X10981800Y-6162600D02*
X10981800Y-6232600D01*
X10946800Y-6197600D02*
X11016800Y-6197600D01*
X17821800Y-8067600D02*
X17821800Y-8137600D01*
X17786800Y-8102600D02*
X17856800Y-8102600D01*
X18601800Y-8067600D02*
X18601800Y-8137600D01*
X18566800Y-8102600D02*
X18636800Y-8102600D01*
X4486800Y-8067600D02*
X4486800Y-8137600D01*
X4451800Y-8102600D02*
X4521800Y-8102600D01*
X5266800Y-8067600D02*
X5266800Y-8137600D01*
X5231800Y-8102600D02*
X5301800Y-8102600D01*
X2581800Y-9972600D02*
X2581800Y-10042600D01*
X2546800Y-10007600D02*
X2616800Y-10007600D01*
X3361800Y-9972600D02*
X3361800Y-10042600D01*
X3326800Y-10007600D02*
X3396800Y-10007600D01*
X4486800Y-6162600D02*
X4486800Y-6232600D01*
X4451800Y-6197600D02*
X4521800Y-6197600D01*
X5266800Y-6162600D02*
X5266800Y-6232600D01*
X5231800Y-6197600D02*
X5301800Y-6197600D01*
X12106800Y-6162600D02*
X12106800Y-6232600D01*
X12071800Y-6197600D02*
X12141800Y-6197600D01*
X12886800Y-6162600D02*
X12886800Y-6232600D01*
X12851800Y-6197600D02*
X12921800Y-6197600D01*
X12106800Y-9921800D02*
X12106800Y-9991800D01*
X12071800Y-9956800D02*
X12141800Y-9956800D01*
X12886800Y-9921800D02*
X12886800Y-9991800D01*
X12851800Y-9956800D02*
X12921800Y-9956800D01*
X15916800Y-9972600D02*
X15916800Y-10042600D01*
X15881800Y-10007600D02*
X15951800Y-10007600D01*
X16696800Y-9972600D02*
X16696800Y-10042600D01*
X16661800Y-10007600D02*
X16731800Y-10007600D01*
X17821800Y-11877600D02*
X17821800Y-11947600D01*
X17786800Y-11912600D02*
X17856800Y-11912600D01*
X18601800Y-11877600D02*
X18601800Y-11947600D01*
X18566800Y-11912600D02*
X18636800Y-11912600D01*
X4486800Y-11877600D02*
X4486800Y-11947600D01*
X4451800Y-11912600D02*
X4521800Y-11912600D01*
X5266800Y-11877600D02*
X5266800Y-11947600D01*
X5231800Y-11912600D02*
X5301800Y-11912600D01*
X8296800Y-11877600D02*
X8296800Y-11947600D01*
X8261800Y-11912600D02*
X8331800Y-11912600D01*
X9076800Y-11877600D02*
X9076800Y-11947600D01*
X9041800Y-11912600D02*
X9111800Y-11912600D01*
X19726800Y-9972600D02*
X19726800Y-10042600D01*
X19691800Y-10007600D02*
X19761800Y-10007600D01*
X20506800Y-9972600D02*
X20506800Y-10042600D01*
X20471800Y-10007600D02*
X20541800Y-10007600D01*
X13986400Y-8067600D02*
X13986400Y-8137600D01*
X13951400Y-8102600D02*
X14021400Y-8102600D01*
X14766400Y-8067600D02*
X14766400Y-8137600D01*
X14731400Y-8102600D02*
X14801400Y-8102600D01*
X4486800Y-9972600D02*
X4486800Y-10042600D01*
X4451800Y-10007600D02*
X4521800Y-10007600D01*
X5266800Y-9972600D02*
X5266800Y-10042600D01*
X5231800Y-10007600D02*
X5301800Y-10007600D01*
X8296800Y-6162600D02*
X8296800Y-6232600D01*
X8261800Y-6197600D02*
X8331800Y-6197600D01*
X9076800Y-6162600D02*
X9076800Y-6232600D01*
X9041800Y-6197600D02*
X9111800Y-6197600D01*
X21606400Y-8067600D02*
X21606400Y-8137600D01*
X21571400Y-8102600D02*
X21641400Y-8102600D01*
X22386400Y-8067600D02*
X22386400Y-8137600D01*
X22351400Y-8102600D02*
X22421400Y-8102600D01*
X8296800Y-8067600D02*
X8296800Y-8137600D01*
X8261800Y-8102600D02*
X8331800Y-8102600D01*
X9076800Y-8067600D02*
X9076800Y-8137600D01*
X9041800Y-8102600D02*
X9111800Y-8102600D01*
X19726800Y-8067600D02*
X19726800Y-8137600D01*
X19691800Y-8102600D02*
X19761800Y-8102600D01*
X20506800Y-8067600D02*
X20506800Y-8137600D01*
X20471800Y-8102600D02*
X20541800Y-8102600D01*
X21631800Y-6162600D02*
X21631800Y-6232600D01*
X21596800Y-6197600D02*
X21666800Y-6197600D01*
X22411800Y-6162600D02*
X22411800Y-6232600D01*
X22376800Y-6197600D02*
X22446800Y-6197600D01*
X14011800Y-6162600D02*
X14011800Y-6232600D01*
X13976800Y-6197600D02*
X14046800Y-6197600D01*
X14791800Y-6162600D02*
X14791800Y-6232600D01*
X14756800Y-6197600D02*
X14826800Y-6197600D01*
X14129333Y-7371833D02*
X14129333Y-7265766D01*
X14023266Y-7265766D01*
X14023266Y-7371833D01*
X14129333Y-7371833D01*
X14081926Y-7188994D02*
X13961033Y-7378757D01*
X14191567Y-7258843D02*
X14070674Y-7448606D01*
X13961033Y-7378757D02*
G75*
G03X14070674Y-7448606I54820J-34925D01*
G01*
X14191567Y-7258843D02*
G75*
G03X14081926Y-7188994I-54820J34925D01*
G01*
X14706833Y-7244833D02*
X14706833Y-7138766D01*
X14600766Y-7138766D01*
X14600766Y-7244833D01*
X14706833Y-7244833D01*
X14590923Y-7158446D02*
X14586978Y-7216312D01*
X14720622Y-7167288D02*
X14716677Y-7225154D01*
X14586978Y-7216312D02*
G75*
G03X14716677Y-7225154I64850J-4421D01*
G01*
X14720622Y-7167288D02*
G75*
G03X14590923Y-7158446I-64850J4421D01*
G01*
X23654333Y-11181834D02*
X23654333Y-11075767D01*
X23548266Y-11075767D01*
X23548266Y-11181834D01*
X23654333Y-11181834D01*
X23606926Y-10998994D02*
X23486033Y-11188757D01*
X23716567Y-11068843D02*
X23595674Y-11258606D01*
X23486033Y-11188757D02*
G75*
G03X23595674Y-11258606I54820J-34925D01*
G01*
X23716567Y-11068843D02*
G75*
G03X23606926Y-10998994I-54820J34925D01*
G01*
X24231833Y-11054834D02*
X24231833Y-10948767D01*
X24125766Y-10948767D01*
X24125766Y-11054834D01*
X24231833Y-11054834D01*
X24115923Y-10968446D02*
X24111978Y-11026312D01*
X24245622Y-10977288D02*
X24241677Y-11035154D01*
X24111978Y-11026312D02*
G75*
G03X24241677Y-11035154I64850J-4421D01*
G01*
X24245622Y-10977288D02*
G75*
G03X24115923Y-10968446I-64850J4421D01*
G01*
X19844334Y-7371833D02*
X19844334Y-7265766D01*
X19738267Y-7265766D01*
X19738267Y-7371833D01*
X19844334Y-7371833D01*
X19796926Y-7188994D02*
X19676033Y-7378757D01*
X19906567Y-7258843D02*
X19785674Y-7448606D01*
X19676033Y-7378757D02*
G75*
G03X19785674Y-7448606I54820J-34925D01*
G01*
X19906567Y-7258843D02*
G75*
G03X19796926Y-7188994I-54820J34925D01*
G01*
X20421834Y-7244833D02*
X20421834Y-7138766D01*
X20315767Y-7138766D01*
X20315767Y-7244833D01*
X20421834Y-7244833D01*
X20305923Y-7158446D02*
X20301978Y-7216312D01*
X20435622Y-7167288D02*
X20431677Y-7225154D01*
X20301978Y-7216312D02*
G75*
G03X20431677Y-7225154I64850J-4421D01*
G01*
X20435622Y-7167288D02*
G75*
G03X20305923Y-7158446I-64850J4421D01*
G01*
X8414334Y-9276834D02*
X8414334Y-9170767D01*
X8308266Y-9170767D01*
X8308266Y-9276834D01*
X8414334Y-9276834D01*
X8366926Y-9093994D02*
X8246033Y-9283757D01*
X8476567Y-9163843D02*
X8355674Y-9353606D01*
X8246033Y-9283757D02*
G75*
G03X8355674Y-9353606I54820J-34925D01*
G01*
X8476567Y-9163843D02*
G75*
G03X8366926Y-9093994I-54820J34925D01*
G01*
X8991834Y-9149834D02*
X8991834Y-9043767D01*
X8885767Y-9043767D01*
X8885767Y-9149834D01*
X8991834Y-9149834D01*
X8875923Y-9063446D02*
X8871978Y-9121312D01*
X9005622Y-9072288D02*
X9001677Y-9130154D01*
X8871978Y-9121312D02*
G75*
G03X9001677Y-9130154I64850J-4421D01*
G01*
X9005622Y-9072288D02*
G75*
G03X8875923Y-9063446I-64850J4421D01*
G01*
X16034333Y-9276834D02*
X16034333Y-9170767D01*
X15928266Y-9170767D01*
X15928266Y-9276834D01*
X16034333Y-9276834D01*
X15986926Y-9093994D02*
X15866033Y-9283757D01*
X16096567Y-9163843D02*
X15975674Y-9353606D01*
X15866033Y-9283757D02*
G75*
G03X15975674Y-9353606I54820J-34925D01*
G01*
X16096567Y-9163843D02*
G75*
G03X15986926Y-9093994I-54820J34925D01*
G01*
X16611833Y-9149834D02*
X16611833Y-9043767D01*
X16505766Y-9043767D01*
X16505766Y-9149834D01*
X16611833Y-9149834D01*
X16495923Y-9063446D02*
X16491978Y-9121312D01*
X16625622Y-9072288D02*
X16621677Y-9130154D01*
X16491978Y-9121312D02*
G75*
G03X16621677Y-9130154I64850J-4421D01*
G01*
X16625622Y-9072288D02*
G75*
G03X16495923Y-9063446I-64850J4421D01*
G01*
X4604334Y-9276834D02*
X4604334Y-9170767D01*
X4498267Y-9170767D01*
X4498267Y-9276834D01*
X4604334Y-9276834D01*
X4556926Y-9093994D02*
X4436033Y-9283757D01*
X4666567Y-9163843D02*
X4545674Y-9353606D01*
X4436033Y-9283757D02*
G75*
G03X4545674Y-9353606I54820J-34925D01*
G01*
X4666567Y-9163843D02*
G75*
G03X4556926Y-9093994I-54820J34925D01*
G01*
X5181834Y-9149834D02*
X5181834Y-9043767D01*
X5075767Y-9043767D01*
X5075767Y-9149834D01*
X5181834Y-9149834D01*
X5065923Y-9063446D02*
X5061978Y-9121312D01*
X5195622Y-9072288D02*
X5191677Y-9130154D01*
X5061978Y-9121312D02*
G75*
G03X5191677Y-9130154I64850J-4421D01*
G01*
X5195622Y-9072288D02*
G75*
G03X5065923Y-9063446I-64850J4421D01*
G01*
X4604334Y-11181834D02*
X4604334Y-11075767D01*
X4498267Y-11075767D01*
X4498267Y-11181834D01*
X4604334Y-11181834D01*
X4556926Y-10998994D02*
X4436033Y-11188757D01*
X4666567Y-11068843D02*
X4545674Y-11258606D01*
X4436033Y-11188757D02*
G75*
G03X4545674Y-11258606I54820J-34925D01*
G01*
X4666567Y-11068843D02*
G75*
G03X4556926Y-10998994I-54820J34925D01*
G01*
X5181834Y-11054834D02*
X5181834Y-10948767D01*
X5075767Y-10948767D01*
X5075767Y-11054834D01*
X5181834Y-11054834D01*
X5065923Y-10968446D02*
X5061978Y-11026312D01*
X5195622Y-10977288D02*
X5191677Y-11035154D01*
X5061978Y-11026312D02*
G75*
G03X5191677Y-11035154I64850J-4421D01*
G01*
X5195622Y-10977288D02*
G75*
G03X5065923Y-10968446I-64850J4421D01*
G01*
X21749334Y-7371833D02*
X21749334Y-7265766D01*
X21643267Y-7265766D01*
X21643267Y-7371833D01*
X21749334Y-7371833D01*
X21701926Y-7188994D02*
X21581033Y-7378757D01*
X21811567Y-7258843D02*
X21690674Y-7448606D01*
X21581033Y-7378757D02*
G75*
G03X21690674Y-7448606I54820J-34925D01*
G01*
X21811567Y-7258843D02*
G75*
G03X21701926Y-7188994I-54820J34925D01*
G01*
X22326834Y-7244833D02*
X22326834Y-7138766D01*
X22220767Y-7138766D01*
X22220767Y-7244833D01*
X22326834Y-7244833D01*
X22210923Y-7158446D02*
X22206978Y-7216312D01*
X22340622Y-7167288D02*
X22336677Y-7225154D01*
X22206978Y-7216312D02*
G75*
G03X22336677Y-7225154I64850J-4421D01*
G01*
X22340622Y-7167288D02*
G75*
G03X22210923Y-7158446I-64850J4421D01*
G01*
X21749334Y-5466834D02*
X21749334Y-5360767D01*
X21643267Y-5360767D01*
X21643267Y-5466834D01*
X21749334Y-5466834D01*
X21701926Y-5283994D02*
X21581033Y-5473757D01*
X21811567Y-5353843D02*
X21690674Y-5543606D01*
X21581033Y-5473757D02*
G75*
G03X21690674Y-5543606I54820J-34925D01*
G01*
X21811567Y-5353843D02*
G75*
G03X21701926Y-5283994I-54820J34925D01*
G01*
X22326834Y-5339834D02*
X22326834Y-5233767D01*
X22220767Y-5233767D01*
X22220767Y-5339834D01*
X22326834Y-5339834D01*
X22210923Y-5253446D02*
X22206978Y-5311312D01*
X22340622Y-5262288D02*
X22336677Y-5320154D01*
X22206978Y-5311312D02*
G75*
G03X22336677Y-5320154I64850J-4421D01*
G01*
X22340622Y-5262288D02*
G75*
G03X22210923Y-5253446I-64850J4421D01*
G01*
X6509333Y-9276834D02*
X6509333Y-9170767D01*
X6403266Y-9170767D01*
X6403266Y-9276834D01*
X6509333Y-9276834D01*
X6461926Y-9093994D02*
X6341033Y-9283757D01*
X6571567Y-9163843D02*
X6450674Y-9353606D01*
X6341033Y-9283757D02*
G75*
G03X6450674Y-9353606I54820J-34925D01*
G01*
X6571567Y-9163843D02*
G75*
G03X6461926Y-9093994I-54820J34925D01*
G01*
X7086833Y-9149834D02*
X7086833Y-9043767D01*
X6980766Y-9043767D01*
X6980766Y-9149834D01*
X7086833Y-9149834D01*
X6970923Y-9063446D02*
X6966978Y-9121312D01*
X7100622Y-9072288D02*
X7096677Y-9130154D01*
X6966978Y-9121312D02*
G75*
G03X7096677Y-9130154I64850J-4421D01*
G01*
X7100622Y-9072288D02*
G75*
G03X6970923Y-9063446I-64850J4421D01*
G01*
X16034333Y-5466834D02*
X16034333Y-5360767D01*
X15928266Y-5360767D01*
X15928266Y-5466834D01*
X16034333Y-5466834D01*
X15986926Y-5283994D02*
X15866033Y-5473757D01*
X16096567Y-5353843D02*
X15975674Y-5543606D01*
X15866033Y-5473757D02*
G75*
G03X15975674Y-5543606I54820J-34925D01*
G01*
X16096567Y-5353843D02*
G75*
G03X15986926Y-5283994I-54820J34925D01*
G01*
X16611833Y-5339834D02*
X16611833Y-5233767D01*
X16505766Y-5233767D01*
X16505766Y-5339834D01*
X16611833Y-5339834D01*
X16495923Y-5253446D02*
X16491978Y-5311312D01*
X16625622Y-5262288D02*
X16621677Y-5320154D01*
X16491978Y-5311312D02*
G75*
G03X16621677Y-5320154I64850J-4421D01*
G01*
X16625622Y-5262288D02*
G75*
G03X16495923Y-5253446I-64850J4421D01*
G01*
X10319334Y-11181834D02*
X10319334Y-11075767D01*
X10213267Y-11075767D01*
X10213267Y-11181834D01*
X10319334Y-11181834D01*
X10271926Y-10998994D02*
X10151033Y-11188757D01*
X10381567Y-11068843D02*
X10260674Y-11258606D01*
X10151033Y-11188757D02*
G75*
G03X10260674Y-11258606I54820J-34925D01*
G01*
X10381567Y-11068843D02*
G75*
G03X10271926Y-10998994I-54820J34925D01*
G01*
X10896834Y-11054834D02*
X10896834Y-10948767D01*
X10790767Y-10948767D01*
X10790767Y-11054834D01*
X10896834Y-11054834D01*
X10780923Y-10968446D02*
X10776978Y-11026312D01*
X10910622Y-10977288D02*
X10906677Y-11035154D01*
X10776978Y-11026312D02*
G75*
G03X10906677Y-11035154I64850J-4421D01*
G01*
X10910622Y-10977288D02*
G75*
G03X10780923Y-10968446I-64850J4421D01*
G01*
X19844334Y-5466834D02*
X19844334Y-5360767D01*
X19738267Y-5360767D01*
X19738267Y-5466834D01*
X19844334Y-5466834D01*
X19796926Y-5283994D02*
X19676033Y-5473757D01*
X19906567Y-5353843D02*
X19785674Y-5543606D01*
X19676033Y-5473757D02*
G75*
G03X19785674Y-5543606I54820J-34925D01*
G01*
X19906567Y-5353843D02*
G75*
G03X19796926Y-5283994I-54820J34925D01*
G01*
X20421834Y-5339834D02*
X20421834Y-5233767D01*
X20315767Y-5233767D01*
X20315767Y-5339834D01*
X20421834Y-5339834D01*
X20305923Y-5253446D02*
X20301978Y-5311312D01*
X20435622Y-5262288D02*
X20431677Y-5320154D01*
X20301978Y-5311312D02*
G75*
G03X20431677Y-5320154I64850J-4421D01*
G01*
X20435622Y-5262288D02*
G75*
G03X20305923Y-5253446I-64850J4421D01*
G01*
X21749334Y-11181834D02*
X21749334Y-11075767D01*
X21643267Y-11075767D01*
X21643267Y-11181834D01*
X21749334Y-11181834D01*
X21701926Y-10998994D02*
X21581033Y-11188757D01*
X21811567Y-11068843D02*
X21690674Y-11258606D01*
X21581033Y-11188757D02*
G75*
G03X21690674Y-11258606I54820J-34925D01*
G01*
X21811567Y-11068843D02*
G75*
G03X21701926Y-10998994I-54820J34925D01*
G01*
X22326834Y-11054834D02*
X22326834Y-10948767D01*
X22220767Y-10948767D01*
X22220767Y-11054834D01*
X22326834Y-11054834D01*
X22210923Y-10968446D02*
X22206978Y-11026312D01*
X22340622Y-10977288D02*
X22336677Y-11035154D01*
X22206978Y-11026312D02*
G75*
G03X22336677Y-11035154I64850J-4421D01*
G01*
X22340622Y-10977288D02*
G75*
G03X22210923Y-10968446I-64850J4421D01*
G01*
X6509333Y-7371833D02*
X6509333Y-7265766D01*
X6403266Y-7265766D01*
X6403266Y-7371833D01*
X6509333Y-7371833D01*
X6461926Y-7188994D02*
X6341033Y-7378757D01*
X6571567Y-7258843D02*
X6450674Y-7448606D01*
X6341033Y-7378757D02*
G75*
G03X6450674Y-7448606I54820J-34925D01*
G01*
X6571567Y-7258843D02*
G75*
G03X6461926Y-7188994I-54820J34925D01*
G01*
X7086833Y-7244833D02*
X7086833Y-7138766D01*
X6980766Y-7138766D01*
X6980766Y-7244833D01*
X7086833Y-7244833D01*
X6970923Y-7158446D02*
X6966978Y-7216312D01*
X7100622Y-7167288D02*
X7096677Y-7225154D01*
X6966978Y-7216312D02*
G75*
G03X7096677Y-7225154I64850J-4421D01*
G01*
X7100622Y-7167288D02*
G75*
G03X6970923Y-7158446I-64850J4421D01*
G01*
X17939334Y-7371833D02*
X17939334Y-7265766D01*
X17833267Y-7265766D01*
X17833267Y-7371833D01*
X17939334Y-7371833D01*
X17891926Y-7188994D02*
X17771033Y-7378757D01*
X18001567Y-7258843D02*
X17880674Y-7448606D01*
X17771033Y-7378757D02*
G75*
G03X17880674Y-7448606I54820J-34925D01*
G01*
X18001567Y-7258843D02*
G75*
G03X17891926Y-7188994I-54820J34925D01*
G01*
X18516834Y-7244833D02*
X18516834Y-7138766D01*
X18410767Y-7138766D01*
X18410767Y-7244833D01*
X18516834Y-7244833D01*
X18400923Y-7158446D02*
X18396978Y-7216312D01*
X18530622Y-7167288D02*
X18526677Y-7225154D01*
X18396978Y-7216312D02*
G75*
G03X18526677Y-7225154I64850J-4421D01*
G01*
X18530622Y-7167288D02*
G75*
G03X18400923Y-7158446I-64850J4421D01*
G01*
X23654333Y-9276834D02*
X23654333Y-9170767D01*
X23548266Y-9170767D01*
X23548266Y-9276834D01*
X23654333Y-9276834D01*
X23606926Y-9093994D02*
X23486033Y-9283757D01*
X23716567Y-9163843D02*
X23595674Y-9353606D01*
X23486033Y-9283757D02*
G75*
G03X23595674Y-9353606I54820J-34925D01*
G01*
X23716567Y-9163843D02*
G75*
G03X23606926Y-9093994I-54820J34925D01*
G01*
X24231833Y-9149834D02*
X24231833Y-9043767D01*
X24125766Y-9043767D01*
X24125766Y-9149834D01*
X24231833Y-9149834D01*
X24115923Y-9063446D02*
X24111978Y-9121312D01*
X24245622Y-9072288D02*
X24241677Y-9130154D01*
X24111978Y-9121312D02*
G75*
G03X24241677Y-9130154I64850J-4421D01*
G01*
X24245622Y-9072288D02*
G75*
G03X24115923Y-9063446I-64850J4421D01*
G01*
X10319334Y-9276834D02*
X10319334Y-9170767D01*
X10213267Y-9170767D01*
X10213267Y-9276834D01*
X10319334Y-9276834D01*
X10271926Y-9093994D02*
X10151033Y-9283757D01*
X10381567Y-9163843D02*
X10260674Y-9353606D01*
X10151033Y-9283757D02*
G75*
G03X10260674Y-9353606I54820J-34925D01*
G01*
X10381567Y-9163843D02*
G75*
G03X10271926Y-9093994I-54820J34925D01*
G01*
X10896834Y-9149834D02*
X10896834Y-9043767D01*
X10790767Y-9043767D01*
X10790767Y-9149834D01*
X10896834Y-9149834D01*
X10780923Y-9063446D02*
X10776978Y-9121312D01*
X10910622Y-9072288D02*
X10906677Y-9130154D01*
X10776978Y-9121312D02*
G75*
G03X10906677Y-9130154I64850J-4421D01*
G01*
X10910622Y-9072288D02*
G75*
G03X10780923Y-9063446I-64850J4421D01*
G01*
X21749334Y-9276834D02*
X21749334Y-9170767D01*
X21643267Y-9170767D01*
X21643267Y-9276834D01*
X21749334Y-9276834D01*
X21701926Y-9093994D02*
X21581033Y-9283757D01*
X21811567Y-9163843D02*
X21690674Y-9353606D01*
X21581033Y-9283757D02*
G75*
G03X21690674Y-9353606I54820J-34925D01*
G01*
X21811567Y-9163843D02*
G75*
G03X21701926Y-9093994I-54820J34925D01*
G01*
X22326834Y-9149834D02*
X22326834Y-9043767D01*
X22220767Y-9043767D01*
X22220767Y-9149834D01*
X22326834Y-9149834D01*
X22210923Y-9063446D02*
X22206978Y-9121312D01*
X22340622Y-9072288D02*
X22336677Y-9130154D01*
X22206978Y-9121312D02*
G75*
G03X22336677Y-9130154I64850J-4421D01*
G01*
X22340622Y-9072288D02*
G75*
G03X22210923Y-9063446I-64850J4421D01*
G01*
X12224333Y-9276834D02*
X12224333Y-9170767D01*
X12118266Y-9170767D01*
X12118266Y-9276834D01*
X12224333Y-9276834D01*
X12176926Y-9093994D02*
X12056033Y-9283757D01*
X12286567Y-9163843D02*
X12165674Y-9353606D01*
X12056033Y-9283757D02*
G75*
G03X12165674Y-9353606I54820J-34925D01*
G01*
X12286567Y-9163843D02*
G75*
G03X12176926Y-9093994I-54820J34925D01*
G01*
X12801833Y-9149834D02*
X12801833Y-9043767D01*
X12695766Y-9043767D01*
X12695766Y-9149834D01*
X12801833Y-9149834D01*
X12685923Y-9063446D02*
X12681978Y-9121312D01*
X12815622Y-9072288D02*
X12811677Y-9130154D01*
X12681978Y-9121312D02*
G75*
G03X12811677Y-9130154I64850J-4421D01*
G01*
X12815622Y-9072288D02*
G75*
G03X12685923Y-9063446I-64850J4421D01*
G01*
X2699334Y-5466834D02*
X2699334Y-5360767D01*
X2593267Y-5360767D01*
X2593267Y-5466834D01*
X2699334Y-5466834D01*
X2651926Y-5283994D02*
X2531033Y-5473757D01*
X2761567Y-5353843D02*
X2640674Y-5543606D01*
X2531033Y-5473757D02*
G75*
G03X2640674Y-5543606I54820J-34925D01*
G01*
X2761567Y-5353843D02*
G75*
G03X2651926Y-5283994I-54820J34925D01*
G01*
X3276833Y-5339834D02*
X3276833Y-5233767D01*
X3170766Y-5233767D01*
X3170766Y-5339834D01*
X3276833Y-5339834D01*
X3160923Y-5253446D02*
X3156978Y-5311312D01*
X3290622Y-5262288D02*
X3286677Y-5320154D01*
X3156978Y-5311312D02*
G75*
G03X3286677Y-5320154I64850J-4421D01*
G01*
X3290622Y-5262288D02*
G75*
G03X3160923Y-5253446I-64850J4421D01*
G01*
X6509333Y-11181834D02*
X6509333Y-11075767D01*
X6403266Y-11075767D01*
X6403266Y-11181834D01*
X6509333Y-11181834D01*
X6461926Y-10998994D02*
X6341033Y-11188757D01*
X6571567Y-11068843D02*
X6450674Y-11258606D01*
X6341033Y-11188757D02*
G75*
G03X6450674Y-11258606I54820J-34925D01*
G01*
X6571567Y-11068843D02*
G75*
G03X6461926Y-10998994I-54820J34925D01*
G01*
X7086833Y-11054834D02*
X7086833Y-10948767D01*
X6980766Y-10948767D01*
X6980766Y-11054834D01*
X7086833Y-11054834D01*
X6970923Y-10968446D02*
X6966978Y-11026312D01*
X7100622Y-10977288D02*
X7096677Y-11035154D01*
X6966978Y-11026312D02*
G75*
G03X7096677Y-11035154I64850J-4421D01*
G01*
X7100622Y-10977288D02*
G75*
G03X6970923Y-10968446I-64850J4421D01*
G01*
X2699334Y-9276834D02*
X2699334Y-9170767D01*
X2593267Y-9170767D01*
X2593267Y-9276834D01*
X2699334Y-9276834D01*
X2651926Y-9093994D02*
X2531033Y-9283757D01*
X2761567Y-9163843D02*
X2640674Y-9353606D01*
X2531033Y-9283757D02*
G75*
G03X2640674Y-9353606I54820J-34925D01*
G01*
X2761567Y-9163843D02*
G75*
G03X2651926Y-9093994I-54820J34925D01*
G01*
X3276833Y-9149834D02*
X3276833Y-9043767D01*
X3170766Y-9043767D01*
X3170766Y-9149834D01*
X3276833Y-9149834D01*
X3160923Y-9063446D02*
X3156978Y-9121312D01*
X3290622Y-9072288D02*
X3286677Y-9130154D01*
X3156978Y-9121312D02*
G75*
G03X3286677Y-9130154I64850J-4421D01*
G01*
X3290622Y-9072288D02*
G75*
G03X3160923Y-9063446I-64850J4421D01*
G01*
X23654333Y-5466834D02*
X23654333Y-5360767D01*
X23548266Y-5360767D01*
X23548266Y-5466834D01*
X23654333Y-5466834D01*
X23606926Y-5283994D02*
X23486033Y-5473757D01*
X23716567Y-5353843D02*
X23595674Y-5543606D01*
X23486033Y-5473757D02*
G75*
G03X23595674Y-5543606I54820J-34925D01*
G01*
X23716567Y-5353843D02*
G75*
G03X23606926Y-5283994I-54820J34925D01*
G01*
X24231833Y-5339834D02*
X24231833Y-5233767D01*
X24125766Y-5233767D01*
X24125766Y-5339834D01*
X24231833Y-5339834D01*
X24115923Y-5253446D02*
X24111978Y-5311312D01*
X24245622Y-5262288D02*
X24241677Y-5320154D01*
X24111978Y-5311312D02*
G75*
G03X24241677Y-5320154I64850J-4421D01*
G01*
X24245622Y-5262288D02*
G75*
G03X24115923Y-5253446I-64850J4421D01*
G01*
X12224333Y-7371833D02*
X12224333Y-7265766D01*
X12118266Y-7265766D01*
X12118266Y-7371833D01*
X12224333Y-7371833D01*
X12176926Y-7188994D02*
X12056033Y-7378757D01*
X12286567Y-7258843D02*
X12165674Y-7448606D01*
X12056033Y-7378757D02*
G75*
G03X12165674Y-7448606I54820J-34925D01*
G01*
X12286567Y-7258843D02*
G75*
G03X12176926Y-7188994I-54820J34925D01*
G01*
X12801833Y-7244833D02*
X12801833Y-7138766D01*
X12695766Y-7138766D01*
X12695766Y-7244833D01*
X12801833Y-7244833D01*
X12685923Y-7158446D02*
X12681978Y-7216312D01*
X12815622Y-7167288D02*
X12811677Y-7225154D01*
X12681978Y-7216312D02*
G75*
G03X12811677Y-7225154I64850J-4421D01*
G01*
X12815622Y-7167288D02*
G75*
G03X12685923Y-7158446I-64850J4421D01*
G01*
X4604334Y-5466834D02*
X4604334Y-5360767D01*
X4498267Y-5360767D01*
X4498267Y-5466834D01*
X4604334Y-5466834D01*
X4556926Y-5283994D02*
X4436033Y-5473757D01*
X4666567Y-5353843D02*
X4545674Y-5543606D01*
X4436033Y-5473757D02*
G75*
G03X4545674Y-5543606I54820J-34925D01*
G01*
X4666567Y-5353843D02*
G75*
G03X4556926Y-5283994I-54820J34925D01*
G01*
X5181834Y-5339834D02*
X5181834Y-5233767D01*
X5075767Y-5233767D01*
X5075767Y-5339834D01*
X5181834Y-5339834D01*
X5065923Y-5253446D02*
X5061978Y-5311312D01*
X5195622Y-5262288D02*
X5191677Y-5320154D01*
X5061978Y-5311312D02*
G75*
G03X5191677Y-5320154I64850J-4421D01*
G01*
X5195622Y-5262288D02*
G75*
G03X5065923Y-5253446I-64850J4421D01*
G01*
X17939334Y-5466834D02*
X17939334Y-5360767D01*
X17833267Y-5360767D01*
X17833267Y-5466834D01*
X17939334Y-5466834D01*
X17891926Y-5283994D02*
X17771033Y-5473757D01*
X18001567Y-5353843D02*
X17880674Y-5543606D01*
X17771033Y-5473757D02*
G75*
G03X17880674Y-5543606I54820J-34925D01*
G01*
X18001567Y-5353843D02*
G75*
G03X17891926Y-5283994I-54820J34925D01*
G01*
X18516834Y-5339834D02*
X18516834Y-5233767D01*
X18410767Y-5233767D01*
X18410767Y-5339834D01*
X18516834Y-5339834D01*
X18400923Y-5253446D02*
X18396978Y-5311312D01*
X18530622Y-5262288D02*
X18526677Y-5320154D01*
X18396978Y-5311312D02*
G75*
G03X18526677Y-5320154I64850J-4421D01*
G01*
X18530622Y-5262288D02*
G75*
G03X18400923Y-5253446I-64850J4421D01*
G01*
X13189533Y-11181834D02*
X13189533Y-11075767D01*
X13083466Y-11075767D01*
X13083466Y-11181834D01*
X13189533Y-11181834D01*
X13142126Y-10998994D02*
X13021233Y-11188757D01*
X13251767Y-11068843D02*
X13130874Y-11258606D01*
X13021233Y-11188757D02*
G75*
G03X13130874Y-11258606I54820J-34925D01*
G01*
X13251767Y-11068843D02*
G75*
G03X13142126Y-10998994I-54820J34925D01*
G01*
X13767033Y-11054834D02*
X13767033Y-10948767D01*
X13660966Y-10948767D01*
X13660966Y-11054834D01*
X13767033Y-11054834D01*
X13651123Y-10968446D02*
X13647178Y-11026312D01*
X13780822Y-10977288D02*
X13776877Y-11035154D01*
X13647178Y-11026312D02*
G75*
G03X13776877Y-11035154I64850J-4421D01*
G01*
X13780822Y-10977288D02*
G75*
G03X13651123Y-10968446I-64850J4421D01*
G01*
X8414334Y-5466834D02*
X8414334Y-5360767D01*
X8308266Y-5360767D01*
X8308266Y-5466834D01*
X8414334Y-5466834D01*
X8366926Y-5283994D02*
X8246033Y-5473757D01*
X8476567Y-5353843D02*
X8355674Y-5543606D01*
X8246033Y-5473757D02*
G75*
G03X8355674Y-5543606I54820J-34925D01*
G01*
X8476567Y-5353843D02*
G75*
G03X8366926Y-5283994I-54820J34925D01*
G01*
X8991834Y-5339834D02*
X8991834Y-5233767D01*
X8885767Y-5233767D01*
X8885767Y-5339834D01*
X8991834Y-5339834D01*
X8875923Y-5253446D02*
X8871978Y-5311312D01*
X9005622Y-5262288D02*
X9001677Y-5320154D01*
X8871978Y-5311312D02*
G75*
G03X9001677Y-5320154I64850J-4421D01*
G01*
X9005622Y-5262288D02*
G75*
G03X8875923Y-5253446I-64850J4421D01*
G01*
X19844334Y-9276834D02*
X19844334Y-9170767D01*
X19738267Y-9170767D01*
X19738267Y-9276834D01*
X19844334Y-9276834D01*
X19796926Y-9093994D02*
X19676033Y-9283757D01*
X19906567Y-9163843D02*
X19785674Y-9353606D01*
X19676033Y-9283757D02*
G75*
G03X19785674Y-9353606I54820J-34925D01*
G01*
X19906567Y-9163843D02*
G75*
G03X19796926Y-9093994I-54820J34925D01*
G01*
X20421834Y-9149834D02*
X20421834Y-9043767D01*
X20315767Y-9043767D01*
X20315767Y-9149834D01*
X20421834Y-9149834D01*
X20305923Y-9063446D02*
X20301978Y-9121312D01*
X20435622Y-9072288D02*
X20431677Y-9130154D01*
X20301978Y-9121312D02*
G75*
G03X20431677Y-9130154I64850J-4421D01*
G01*
X20435622Y-9072288D02*
G75*
G03X20305923Y-9063446I-64850J4421D01*
G01*
X19844334Y-11181834D02*
X19844334Y-11075767D01*
X19738267Y-11075767D01*
X19738267Y-11181834D01*
X19844334Y-11181834D01*
X19796926Y-10998994D02*
X19676033Y-11188757D01*
X19906567Y-11068843D02*
X19785674Y-11258606D01*
X19676033Y-11188757D02*
G75*
G03X19785674Y-11258606I54820J-34925D01*
G01*
X19906567Y-11068843D02*
G75*
G03X19796926Y-10998994I-54820J34925D01*
G01*
X20421834Y-11054834D02*
X20421834Y-10948767D01*
X20315767Y-10948767D01*
X20315767Y-11054834D01*
X20421834Y-11054834D01*
X20305923Y-10968446D02*
X20301978Y-11026312D01*
X20435622Y-10977288D02*
X20431677Y-11035154D01*
X20301978Y-11026312D02*
G75*
G03X20431677Y-11035154I64850J-4421D01*
G01*
X20435622Y-10977288D02*
G75*
G03X20305923Y-10968446I-64850J4421D01*
G01*
X4604334Y-7371833D02*
X4604334Y-7265766D01*
X4498267Y-7265766D01*
X4498267Y-7371833D01*
X4604334Y-7371833D01*
X4556926Y-7188994D02*
X4436033Y-7378757D01*
X4666567Y-7258843D02*
X4545674Y-7448606D01*
X4436033Y-7378757D02*
G75*
G03X4545674Y-7448606I54820J-34925D01*
G01*
X4666567Y-7258843D02*
G75*
G03X4556926Y-7188994I-54820J34925D01*
G01*
X5181834Y-7244833D02*
X5181834Y-7138766D01*
X5075767Y-7138766D01*
X5075767Y-7244833D01*
X5181834Y-7244833D01*
X5065923Y-7158446D02*
X5061978Y-7216312D01*
X5195622Y-7167288D02*
X5191677Y-7225154D01*
X5061978Y-7216312D02*
G75*
G03X5191677Y-7225154I64850J-4421D01*
G01*
X5195622Y-7167288D02*
G75*
G03X5065923Y-7158446I-64850J4421D01*
G01*
X17939334Y-11181834D02*
X17939334Y-11075767D01*
X17833267Y-11075767D01*
X17833267Y-11181834D01*
X17939334Y-11181834D01*
X17891926Y-10998994D02*
X17771033Y-11188757D01*
X18001567Y-11068843D02*
X17880674Y-11258606D01*
X17771033Y-11188757D02*
G75*
G03X17880674Y-11258606I54820J-34925D01*
G01*
X18001567Y-11068843D02*
G75*
G03X17891926Y-10998994I-54820J34925D01*
G01*
X18516834Y-11054834D02*
X18516834Y-10948767D01*
X18410767Y-10948767D01*
X18410767Y-11054834D01*
X18516834Y-11054834D01*
X18400923Y-10968446D02*
X18396978Y-11026312D01*
X18530622Y-10977288D02*
X18526677Y-11035154D01*
X18396978Y-11026312D02*
G75*
G03X18526677Y-11035154I64850J-4421D01*
G01*
X18530622Y-10977288D02*
G75*
G03X18400923Y-10968446I-64850J4421D01*
G01*
X23654333Y-7371833D02*
X23654333Y-7265766D01*
X23548266Y-7265766D01*
X23548266Y-7371833D01*
X23654333Y-7371833D01*
X23606926Y-7188994D02*
X23486033Y-7378757D01*
X23716567Y-7258843D02*
X23595674Y-7448606D01*
X23486033Y-7378757D02*
G75*
G03X23595674Y-7448606I54820J-34925D01*
G01*
X23716567Y-7258843D02*
G75*
G03X23606926Y-7188994I-54820J34925D01*
G01*
X24231833Y-7244833D02*
X24231833Y-7138766D01*
X24125766Y-7138766D01*
X24125766Y-7244833D01*
X24231833Y-7244833D01*
X24115923Y-7158446D02*
X24111978Y-7216312D01*
X24245622Y-7167288D02*
X24241677Y-7225154D01*
X24111978Y-7216312D02*
G75*
G03X24241677Y-7225154I64850J-4421D01*
G01*
X24245622Y-7167288D02*
G75*
G03X24115923Y-7158446I-64850J4421D01*
G01*
X17939334Y-9276834D02*
X17939334Y-9170767D01*
X17833267Y-9170767D01*
X17833267Y-9276834D01*
X17939334Y-9276834D01*
X17891926Y-9093994D02*
X17771033Y-9283757D01*
X18001567Y-9163843D02*
X17880674Y-9353606D01*
X17771033Y-9283757D02*
G75*
G03X17880674Y-9353606I54820J-34925D01*
G01*
X18001567Y-9163843D02*
G75*
G03X17891926Y-9093994I-54820J34925D01*
G01*
X18516834Y-9149834D02*
X18516834Y-9043767D01*
X18410767Y-9043767D01*
X18410767Y-9149834D01*
X18516834Y-9149834D01*
X18400923Y-9063446D02*
X18396978Y-9121312D01*
X18530622Y-9072288D02*
X18526677Y-9130154D01*
X18396978Y-9121312D02*
G75*
G03X18526677Y-9130154I64850J-4421D01*
G01*
X18530622Y-9072288D02*
G75*
G03X18400923Y-9063446I-64850J4421D01*
G01*
X16034333Y-7371833D02*
X16034333Y-7265766D01*
X15928266Y-7265766D01*
X15928266Y-7371833D01*
X16034333Y-7371833D01*
X15986926Y-7188994D02*
X15866033Y-7378757D01*
X16096567Y-7258843D02*
X15975674Y-7448606D01*
X15866033Y-7378757D02*
G75*
G03X15975674Y-7448606I54820J-34925D01*
G01*
X16096567Y-7258843D02*
G75*
G03X15986926Y-7188994I-54820J34925D01*
G01*
X16611833Y-7244833D02*
X16611833Y-7138766D01*
X16505766Y-7138766D01*
X16505766Y-7244833D01*
X16611833Y-7244833D01*
X16495923Y-7158446D02*
X16491978Y-7216312D01*
X16625622Y-7167288D02*
X16621677Y-7225154D01*
X16491978Y-7216312D02*
G75*
G03X16621677Y-7225154I64850J-4421D01*
G01*
X16625622Y-7167288D02*
G75*
G03X16495923Y-7158446I-64850J4421D01*
G01*
X2699334Y-11181834D02*
X2699334Y-11075767D01*
X2593267Y-11075767D01*
X2593267Y-11181834D01*
X2699334Y-11181834D01*
X2651926Y-10998994D02*
X2531033Y-11188757D01*
X2761567Y-11068843D02*
X2640674Y-11258606D01*
X2531033Y-11188757D02*
G75*
G03X2640674Y-11258606I54820J-34925D01*
G01*
X2761567Y-11068843D02*
G75*
G03X2651926Y-10998994I-54820J34925D01*
G01*
X3276833Y-11054834D02*
X3276833Y-10948767D01*
X3170766Y-10948767D01*
X3170766Y-11054834D01*
X3276833Y-11054834D01*
X3160923Y-10968446D02*
X3156978Y-11026312D01*
X3290622Y-10977288D02*
X3286677Y-11035154D01*
X3156978Y-11026312D02*
G75*
G03X3286677Y-11035154I64850J-4421D01*
G01*
X3290622Y-10977288D02*
G75*
G03X3160923Y-10968446I-64850J4421D01*
G01*
X8414334Y-7371833D02*
X8414334Y-7265766D01*
X8308266Y-7265766D01*
X8308266Y-7371833D01*
X8414334Y-7371833D01*
X8366926Y-7188994D02*
X8246033Y-7378757D01*
X8476567Y-7258843D02*
X8355674Y-7448606D01*
X8246033Y-7378757D02*
G75*
G03X8355674Y-7448606I54820J-34925D01*
G01*
X8476567Y-7258843D02*
G75*
G03X8366926Y-7188994I-54820J34925D01*
G01*
X8991834Y-7244833D02*
X8991834Y-7138766D01*
X8885767Y-7138766D01*
X8885767Y-7244833D01*
X8991834Y-7244833D01*
X8875923Y-7158446D02*
X8871978Y-7216312D01*
X9005622Y-7167288D02*
X9001677Y-7225154D01*
X8871978Y-7216312D02*
G75*
G03X9001677Y-7225154I64850J-4421D01*
G01*
X9005622Y-7167288D02*
G75*
G03X8875923Y-7158446I-64850J4421D01*
G01*
X10319334Y-5466834D02*
X10319334Y-5360767D01*
X10213267Y-5360767D01*
X10213267Y-5466834D01*
X10319334Y-5466834D01*
X10271926Y-5283994D02*
X10151033Y-5473757D01*
X10381567Y-5353843D02*
X10260674Y-5543606D01*
X10151033Y-5473757D02*
G75*
G03X10260674Y-5543606I54820J-34925D01*
G01*
X10381567Y-5353843D02*
G75*
G03X10271926Y-5283994I-54820J34925D01*
G01*
X10896834Y-5339834D02*
X10896834Y-5233767D01*
X10790767Y-5233767D01*
X10790767Y-5339834D01*
X10896834Y-5339834D01*
X10780923Y-5253446D02*
X10776978Y-5311312D01*
X10910622Y-5262288D02*
X10906677Y-5320154D01*
X10776978Y-5311312D02*
G75*
G03X10906677Y-5320154I64850J-4421D01*
G01*
X10910622Y-5262288D02*
G75*
G03X10780923Y-5253446I-64850J4421D01*
G01*
X14129333Y-9276834D02*
X14129333Y-9170767D01*
X14023266Y-9170767D01*
X14023266Y-9276834D01*
X14129333Y-9276834D01*
X14081926Y-9093994D02*
X13961033Y-9283757D01*
X14191567Y-9163843D02*
X14070674Y-9353606D01*
X13961033Y-9283757D02*
G75*
G03X14070674Y-9353606I54820J-34925D01*
G01*
X14191567Y-9163843D02*
G75*
G03X14081926Y-9093994I-54820J34925D01*
G01*
X14706833Y-9149834D02*
X14706833Y-9043767D01*
X14600766Y-9043767D01*
X14600766Y-9149834D01*
X14706833Y-9149834D01*
X14590923Y-9063446D02*
X14586978Y-9121312D01*
X14720622Y-9072288D02*
X14716677Y-9130154D01*
X14586978Y-9121312D02*
G75*
G03X14716677Y-9130154I64850J-4421D01*
G01*
X14720622Y-9072288D02*
G75*
G03X14590923Y-9063446I-64850J4421D01*
G01*
X2699334Y-7371833D02*
X2699334Y-7265766D01*
X2593267Y-7265766D01*
X2593267Y-7371833D01*
X2699334Y-7371833D01*
X2651926Y-7188994D02*
X2531033Y-7378757D01*
X2761567Y-7258843D02*
X2640674Y-7448606D01*
X2531033Y-7378757D02*
G75*
G03X2640674Y-7448606I54820J-34925D01*
G01*
X2761567Y-7258843D02*
G75*
G03X2651926Y-7188994I-54820J34925D01*
G01*
X3276833Y-7244833D02*
X3276833Y-7138766D01*
X3170766Y-7138766D01*
X3170766Y-7244833D01*
X3276833Y-7244833D01*
X3160923Y-7158446D02*
X3156978Y-7216312D01*
X3290622Y-7167288D02*
X3286677Y-7225154D01*
X3156978Y-7216312D02*
G75*
G03X3286677Y-7225154I64850J-4421D01*
G01*
X3290622Y-7167288D02*
G75*
G03X3160923Y-7158446I-64850J4421D01*
G01*
X10319334Y-7371833D02*
X10319334Y-7265766D01*
X10213267Y-7265766D01*
X10213267Y-7371833D01*
X10319334Y-7371833D01*
X10271926Y-7188994D02*
X10151033Y-7378757D01*
X10381567Y-7258843D02*
X10260674Y-7448606D01*
X10151033Y-7378757D02*
G75*
G03X10260674Y-7448606I54820J-34925D01*
G01*
X10381567Y-7258843D02*
G75*
G03X10271926Y-7188994I-54820J34925D01*
G01*
X10896834Y-7244833D02*
X10896834Y-7138766D01*
X10790767Y-7138766D01*
X10790767Y-7244833D01*
X10896834Y-7244833D01*
X10780923Y-7158446D02*
X10776978Y-7216312D01*
X10910622Y-7167288D02*
X10906677Y-7225154D01*
X10776978Y-7216312D02*
G75*
G03X10906677Y-7225154I64850J-4421D01*
G01*
X10910622Y-7167288D02*
G75*
G03X10780923Y-7158446I-64850J4421D01*
G01*
X14129333Y-5466834D02*
X14129333Y-5360767D01*
X14023266Y-5360767D01*
X14023266Y-5466834D01*
X14129333Y-5466834D01*
X14081926Y-5283994D02*
X13961033Y-5473757D01*
X14191567Y-5353843D02*
X14070674Y-5543606D01*
X13961033Y-5473757D02*
G75*
G03X14070674Y-5543606I54820J-34925D01*
G01*
X14191567Y-5353843D02*
G75*
G03X14081926Y-5283994I-54820J34925D01*
G01*
X14706833Y-5339834D02*
X14706833Y-5233767D01*
X14600766Y-5233767D01*
X14600766Y-5339834D01*
X14706833Y-5339834D01*
X14590923Y-5253446D02*
X14586978Y-5311312D01*
X14720622Y-5262288D02*
X14716677Y-5320154D01*
X14586978Y-5311312D02*
G75*
G03X14716677Y-5320154I64850J-4421D01*
G01*
X14720622Y-5262288D02*
G75*
G03X14590923Y-5253446I-64850J4421D01*
G01*
X16034333Y-11181834D02*
X16034333Y-11075767D01*
X15928266Y-11075767D01*
X15928266Y-11181834D01*
X16034333Y-11181834D01*
X15986926Y-10998994D02*
X15866033Y-11188757D01*
X16096567Y-11068843D02*
X15975674Y-11258606D01*
X15866033Y-11188757D02*
G75*
G03X15975674Y-11258606I54820J-34925D01*
G01*
X16096567Y-11068843D02*
G75*
G03X15986926Y-10998994I-54820J34925D01*
G01*
X16611833Y-11054834D02*
X16611833Y-10948767D01*
X16505766Y-10948767D01*
X16505766Y-11054834D01*
X16611833Y-11054834D01*
X16495923Y-10968446D02*
X16491978Y-11026312D01*
X16625622Y-10977288D02*
X16621677Y-11035154D01*
X16491978Y-11026312D02*
G75*
G03X16621677Y-11035154I64850J-4421D01*
G01*
X16625622Y-10977288D02*
G75*
G03X16495923Y-10968446I-64850J4421D01*
G01*
X12224333Y-5466834D02*
X12224333Y-5360767D01*
X12118266Y-5360767D01*
X12118266Y-5466834D01*
X12224333Y-5466834D01*
X12176926Y-5283994D02*
X12056033Y-5473757D01*
X12286567Y-5353843D02*
X12165674Y-5543606D01*
X12056033Y-5473757D02*
G75*
G03X12165674Y-5543606I54820J-34925D01*
G01*
X12286567Y-5353843D02*
G75*
G03X12176926Y-5283994I-54820J34925D01*
G01*
X12801833Y-5339834D02*
X12801833Y-5233767D01*
X12695766Y-5233767D01*
X12695766Y-5339834D01*
X12801833Y-5339834D01*
X12685923Y-5253446D02*
X12681978Y-5311312D01*
X12815622Y-5262288D02*
X12811677Y-5320154D01*
X12681978Y-5311312D02*
G75*
G03X12811677Y-5320154I64850J-4421D01*
G01*
X12815622Y-5262288D02*
G75*
G03X12685923Y-5253446I-64850J4421D01*
G01*
X8414334Y-11181834D02*
X8414334Y-11075767D01*
X8308266Y-11075767D01*
X8308266Y-11181834D01*
X8414334Y-11181834D01*
X8366926Y-10998994D02*
X8246033Y-11188757D01*
X8476567Y-11068843D02*
X8355674Y-11258606D01*
X8246033Y-11188757D02*
G75*
G03X8355674Y-11258606I54820J-34925D01*
G01*
X8476567Y-11068843D02*
G75*
G03X8366926Y-10998994I-54820J34925D01*
G01*
X8991834Y-11054834D02*
X8991834Y-10948767D01*
X8885767Y-10948767D01*
X8885767Y-11054834D01*
X8991834Y-11054834D01*
X8875923Y-10968446D02*
X8871978Y-11026312D01*
X9005622Y-10977288D02*
X9001677Y-11035154D01*
X8871978Y-11026312D02*
G75*
G03X9001677Y-11035154I64850J-4421D01*
G01*
X9005622Y-10977288D02*
G75*
G03X8875923Y-10968446I-64850J4421D01*
G01*
X6509333Y-5466834D02*
X6509333Y-5360767D01*
X6403266Y-5360767D01*
X6403266Y-5466834D01*
X6509333Y-5466834D01*
X6461926Y-5283994D02*
X6341033Y-5473757D01*
X6571567Y-5353843D02*
X6450674Y-5543606D01*
X6341033Y-5473757D02*
G75*
G03X6450674Y-5543606I54820J-34925D01*
G01*
X6571567Y-5353843D02*
G75*
G03X6461926Y-5283994I-54820J34925D01*
G01*
X7086833Y-5339834D02*
X7086833Y-5233767D01*
X6980766Y-5233767D01*
X6980766Y-5339834D01*
X7086833Y-5339834D01*
X6970923Y-5253446D02*
X6966978Y-5311312D01*
X7100622Y-5262288D02*
X7096677Y-5320154D01*
X6966978Y-5311312D02*
G75*
G03X7096677Y-5320154I64850J-4421D01*
G01*
X7100622Y-5262288D02*
G75*
G03X6970923Y-5253446I-64850J4421D01*
G01*
X1930400Y-5011400D02*
X2090400Y-4851400D01*
X1930400Y-4691400D01*
X1770400Y-4851400D01*
X1930400Y-5011400D01*
X24917400Y-8821400D02*
X25077400Y-8661400D01*
X24917400Y-8501400D01*
X24757400Y-8661400D01*
X24917400Y-8821400D01*
X1930400Y-12504400D02*
X2090400Y-12344400D01*
X1930400Y-12184400D01*
X1770400Y-12344400D01*
X1930400Y-12504400D01*
X1930400Y-8821400D02*
X2090400Y-8661400D01*
X1930400Y-8501400D01*
X1770400Y-8661400D01*
X1930400Y-8821400D01*
X24917400Y-12504400D02*
X25077400Y-12344400D01*
X24917400Y-12184400D01*
X24757400Y-12344400D01*
X24917400Y-12504400D01*
X24917400Y-5011400D02*
X25077400Y-4851400D01*
X24917400Y-4691400D01*
X24757400Y-4851400D01*
X24917400Y-5011400D01*
X13487400Y-8821400D02*
X13647400Y-8661400D01*
X13487400Y-8501400D01*
X13327400Y-8661400D01*
X13487400Y-8821400D01*
D12*
X1833328Y-13193614D02*
X1833328Y-12893614D01*
X1904757Y-12893614D01*
X1947614Y-12907900D01*
X1976186Y-12936471D01*
X1990471Y-12965043D01*
X2004757Y-13022186D01*
X2004757Y-13065043D01*
X1990471Y-13122186D01*
X1976186Y-13150757D01*
X1947614Y-13179329D01*
X1904757Y-13193614D01*
X1833328Y-13193614D01*
X2133328Y-13193614D02*
X2133328Y-12993614D01*
X2133328Y-13050757D02*
X2147614Y-13022186D01*
X2161900Y-13007900D01*
X2190471Y-12993614D01*
X2219043Y-12993614D01*
X2319043Y-13193614D02*
X2319043Y-12993614D01*
X2319043Y-12893614D02*
X2304757Y-12907900D01*
X2319043Y-12922186D01*
X2333328Y-12907900D01*
X2319043Y-12893614D01*
X2319043Y-12922186D01*
X2504757Y-13193614D02*
X2476186Y-13179329D01*
X2461900Y-13150757D01*
X2461900Y-12893614D01*
X2661900Y-13193614D02*
X2633328Y-13179329D01*
X2619043Y-13150757D01*
X2619043Y-12893614D01*
X3004757Y-13193614D02*
X3004757Y-12893614D01*
X3104757Y-13107900D01*
X3204757Y-12893614D01*
X3204757Y-13193614D01*
X3476186Y-13193614D02*
X3476186Y-13036471D01*
X3461900Y-13007900D01*
X3433328Y-12993614D01*
X3376186Y-12993614D01*
X3347614Y-13007900D01*
X3476186Y-13179329D02*
X3447614Y-13193614D01*
X3376186Y-13193614D01*
X3347614Y-13179329D01*
X3333328Y-13150757D01*
X3333328Y-13122186D01*
X3347614Y-13093614D01*
X3376186Y-13079329D01*
X3447614Y-13079329D01*
X3476186Y-13065043D01*
X3619043Y-12993614D02*
X3619043Y-13293614D01*
X3619043Y-13007900D02*
X3647614Y-12993614D01*
X3704757Y-12993614D01*
X3733328Y-13007900D01*
X3747614Y-13022186D01*
X3761900Y-13050757D01*
X3761900Y-13136471D01*
X3747614Y-13165043D01*
X3733328Y-13179329D01*
X3704757Y-13193614D01*
X3647614Y-13193614D01*
X3619043Y-13179329D01*
X3890471Y-13165043D02*
X3904757Y-13179329D01*
X3890471Y-13193614D01*
X3876186Y-13179329D01*
X3890471Y-13165043D01*
X3890471Y-13193614D01*
X3890471Y-13007900D02*
X3904757Y-13022186D01*
X3890471Y-13036471D01*
X3876186Y-13022186D01*
X3890471Y-13007900D01*
X3890471Y-13036471D01*
X1506900Y-13667900D02*
X1546900Y-13707900D01*
X1546900Y-13667900D02*
X1506900Y-13707900D01*
X1890471Y-13523614D02*
X1919043Y-13523614D01*
X1947614Y-13537900D01*
X1961900Y-13552186D01*
X1976186Y-13580757D01*
X1990471Y-13637900D01*
X1990471Y-13709329D01*
X1976186Y-13766471D01*
X1961900Y-13795043D01*
X1947614Y-13809329D01*
X1919043Y-13823614D01*
X1890471Y-13823614D01*
X1861900Y-13809329D01*
X1847614Y-13795043D01*
X1833328Y-13766471D01*
X1819043Y-13709329D01*
X1819043Y-13637900D01*
X1833328Y-13580757D01*
X1847614Y-13552186D01*
X1861900Y-13537900D01*
X1890471Y-13523614D01*
X2119043Y-13795043D02*
X2133328Y-13809329D01*
X2119043Y-13823614D01*
X2104757Y-13809329D01*
X2119043Y-13795043D01*
X2119043Y-13823614D01*
X2390471Y-13623614D02*
X2390471Y-13823614D01*
X2319043Y-13509329D02*
X2247614Y-13723614D01*
X2433328Y-13723614D01*
X2604757Y-13523614D02*
X2633328Y-13523614D01*
X2661900Y-13537900D01*
X2676186Y-13552186D01*
X2690471Y-13580757D01*
X2704757Y-13637900D01*
X2704757Y-13709329D01*
X2690471Y-13766471D01*
X2676186Y-13795043D01*
X2661900Y-13809329D01*
X2633328Y-13823614D01*
X2604757Y-13823614D01*
X2576186Y-13809329D01*
X2561900Y-13795043D01*
X2547614Y-13766471D01*
X2533328Y-13709329D01*
X2533328Y-13637900D01*
X2547614Y-13580757D01*
X2561900Y-13552186D01*
X2576186Y-13537900D01*
X2604757Y-13523614D01*
X2833328Y-13823614D02*
X2833328Y-13623614D01*
X2833328Y-13652186D02*
X2847614Y-13637900D01*
X2876186Y-13623614D01*
X2919043Y-13623614D01*
X2947614Y-13637900D01*
X2961900Y-13666471D01*
X2961900Y-13823614D01*
X2961900Y-13666471D02*
X2976186Y-13637900D01*
X3004757Y-13623614D01*
X3047614Y-13623614D01*
X3076186Y-13637900D01*
X3090471Y-13666471D01*
X3090471Y-13823614D01*
X3233328Y-13823614D02*
X3233328Y-13623614D01*
X3233328Y-13652186D02*
X3247614Y-13637900D01*
X3276186Y-13623614D01*
X3319043Y-13623614D01*
X3347614Y-13637900D01*
X3361900Y-13666471D01*
X3361900Y-13823614D01*
X3361900Y-13666471D02*
X3376186Y-13637900D01*
X3404757Y-13623614D01*
X3447614Y-13623614D01*
X3476186Y-13637900D01*
X3490471Y-13666471D01*
X3490471Y-13823614D01*
X4076186Y-13509329D02*
X3819043Y-13895043D01*
X4461900Y-13523614D02*
X4490471Y-13523614D01*
X4519043Y-13537900D01*
X4533328Y-13552186D01*
X4547614Y-13580757D01*
X4561900Y-13637900D01*
X4561900Y-13709329D01*
X4547614Y-13766471D01*
X4533328Y-13795043D01*
X4519043Y-13809329D01*
X4490471Y-13823614D01*
X4461900Y-13823614D01*
X4433328Y-13809329D01*
X4419043Y-13795043D01*
X4404757Y-13766471D01*
X4390471Y-13709329D01*
X4390471Y-13637900D01*
X4404757Y-13580757D01*
X4419043Y-13552186D01*
X4433328Y-13537900D01*
X4461900Y-13523614D01*
X4690471Y-13795043D02*
X4704757Y-13809329D01*
X4690471Y-13823614D01*
X4676186Y-13809329D01*
X4690471Y-13795043D01*
X4690471Y-13823614D01*
X4890471Y-13523614D02*
X4919043Y-13523614D01*
X4947614Y-13537900D01*
X4961900Y-13552186D01*
X4976186Y-13580757D01*
X4990471Y-13637900D01*
X4990471Y-13709329D01*
X4976186Y-13766471D01*
X4961900Y-13795043D01*
X4947614Y-13809329D01*
X4919043Y-13823614D01*
X4890471Y-13823614D01*
X4861900Y-13809329D01*
X4847614Y-13795043D01*
X4833328Y-13766471D01*
X4819043Y-13709329D01*
X4819043Y-13637900D01*
X4833328Y-13580757D01*
X4847614Y-13552186D01*
X4861900Y-13537900D01*
X4890471Y-13523614D01*
X5276186Y-13823614D02*
X5104757Y-13823614D01*
X5190471Y-13823614D02*
X5190471Y-13523614D01*
X5161900Y-13566471D01*
X5133328Y-13595043D01*
X5104757Y-13609329D01*
X5533328Y-13523614D02*
X5476186Y-13523614D01*
X5447614Y-13537900D01*
X5433328Y-13552186D01*
X5404757Y-13595043D01*
X5390471Y-13652186D01*
X5390471Y-13766471D01*
X5404757Y-13795043D01*
X5419043Y-13809329D01*
X5447614Y-13823614D01*
X5504757Y-13823614D01*
X5533328Y-13809329D01*
X5547614Y-13795043D01*
X5561900Y-13766471D01*
X5561900Y-13695043D01*
X5547614Y-13666471D01*
X5533328Y-13652186D01*
X5504757Y-13637900D01*
X5447614Y-13637900D01*
X5419043Y-13652186D01*
X5404757Y-13666471D01*
X5390471Y-13695043D01*
X5676186Y-13523614D02*
X5676186Y-13580757D01*
X5790471Y-13523614D02*
X5790471Y-13580757D01*
X6233328Y-13937900D02*
X6219043Y-13923614D01*
X6190471Y-13880757D01*
X6176186Y-13852186D01*
X6161900Y-13809329D01*
X6147614Y-13737900D01*
X6147614Y-13680757D01*
X6161900Y-13609329D01*
X6176186Y-13566471D01*
X6190471Y-13537900D01*
X6219043Y-13495043D01*
X6233328Y-13480757D01*
X6476186Y-13623614D02*
X6476186Y-13823614D01*
X6404757Y-13509329D02*
X6333328Y-13723614D01*
X6519043Y-13723614D01*
X6776186Y-13523614D02*
X6633328Y-13523614D01*
X6619043Y-13666471D01*
X6633328Y-13652186D01*
X6661900Y-13637900D01*
X6733328Y-13637900D01*
X6761900Y-13652186D01*
X6776186Y-13666471D01*
X6790471Y-13695043D01*
X6790471Y-13766471D01*
X6776186Y-13795043D01*
X6761900Y-13809329D01*
X6733328Y-13823614D01*
X6661900Y-13823614D01*
X6633328Y-13809329D01*
X6619043Y-13795043D01*
X7147614Y-13823614D02*
X7147614Y-13523614D01*
X7276186Y-13823614D02*
X7276186Y-13666471D01*
X7261900Y-13637900D01*
X7233328Y-13623614D01*
X7190471Y-13623614D01*
X7161900Y-13637900D01*
X7147614Y-13652186D01*
X7461900Y-13823614D02*
X7433328Y-13809329D01*
X7419043Y-13795043D01*
X7404757Y-13766471D01*
X7404757Y-13680757D01*
X7419043Y-13652186D01*
X7433328Y-13637900D01*
X7461900Y-13623614D01*
X7504757Y-13623614D01*
X7533328Y-13637900D01*
X7547614Y-13652186D01*
X7561900Y-13680757D01*
X7561900Y-13766471D01*
X7547614Y-13795043D01*
X7533328Y-13809329D01*
X7504757Y-13823614D01*
X7461900Y-13823614D01*
X7733328Y-13823614D02*
X7704757Y-13809329D01*
X7690471Y-13780757D01*
X7690471Y-13523614D01*
X7961900Y-13809329D02*
X7933328Y-13823614D01*
X7876186Y-13823614D01*
X7847614Y-13809329D01*
X7833328Y-13780757D01*
X7833328Y-13666471D01*
X7847614Y-13637900D01*
X7876186Y-13623614D01*
X7933328Y-13623614D01*
X7961900Y-13637900D01*
X7976186Y-13666471D01*
X7976186Y-13695043D01*
X7833328Y-13723614D01*
X8090471Y-13809329D02*
X8119043Y-13823614D01*
X8176186Y-13823614D01*
X8204757Y-13809329D01*
X8219043Y-13780757D01*
X8219043Y-13766471D01*
X8204757Y-13737900D01*
X8176186Y-13723614D01*
X8133328Y-13723614D01*
X8104757Y-13709329D01*
X8090471Y-13680757D01*
X8090471Y-13666471D01*
X8104757Y-13637900D01*
X8133328Y-13623614D01*
X8176186Y-13623614D01*
X8204757Y-13637900D01*
X8319043Y-13937900D02*
X8333328Y-13923614D01*
X8361900Y-13880757D01*
X8376186Y-13852186D01*
X8390471Y-13809329D01*
X8404757Y-13737900D01*
X8404757Y-13680757D01*
X8390471Y-13609329D01*
X8376186Y-13566471D01*
X8361900Y-13537900D01*
X8333328Y-13495043D01*
X8319043Y-13480757D01*
X1546900Y-14083900D02*
G75*
G03X1546900Y-14083900I-30000J0D01*
G01*
X1890471Y-13919614D02*
X1919043Y-13919614D01*
X1947614Y-13933900D01*
X1961900Y-13948186D01*
X1976186Y-13976757D01*
X1990471Y-14033900D01*
X1990471Y-14105329D01*
X1976186Y-14162471D01*
X1961900Y-14191043D01*
X1947614Y-14205329D01*
X1919043Y-14219614D01*
X1890471Y-14219614D01*
X1861900Y-14205329D01*
X1847614Y-14191043D01*
X1833328Y-14162471D01*
X1819043Y-14105329D01*
X1819043Y-14033900D01*
X1833328Y-13976757D01*
X1847614Y-13948186D01*
X1861900Y-13933900D01*
X1890471Y-13919614D01*
X2119043Y-14191043D02*
X2133328Y-14205329D01*
X2119043Y-14219614D01*
X2104757Y-14205329D01*
X2119043Y-14191043D01*
X2119043Y-14219614D01*
X2390471Y-13919614D02*
X2333328Y-13919614D01*
X2304757Y-13933900D01*
X2290471Y-13948186D01*
X2261900Y-13991043D01*
X2247614Y-14048186D01*
X2247614Y-14162471D01*
X2261900Y-14191043D01*
X2276186Y-14205329D01*
X2304757Y-14219614D01*
X2361900Y-14219614D01*
X2390471Y-14205329D01*
X2404757Y-14191043D01*
X2419043Y-14162471D01*
X2419043Y-14091043D01*
X2404757Y-14062471D01*
X2390471Y-14048186D01*
X2361900Y-14033900D01*
X2304757Y-14033900D01*
X2276186Y-14048186D01*
X2261900Y-14062471D01*
X2247614Y-14091043D01*
X2604757Y-13919614D02*
X2633328Y-13919614D01*
X2661900Y-13933900D01*
X2676186Y-13948186D01*
X2690471Y-13976757D01*
X2704757Y-14033900D01*
X2704757Y-14105329D01*
X2690471Y-14162471D01*
X2676186Y-14191043D01*
X2661900Y-14205329D01*
X2633328Y-14219614D01*
X2604757Y-14219614D01*
X2576186Y-14205329D01*
X2561900Y-14191043D01*
X2547614Y-14162471D01*
X2533328Y-14105329D01*
X2533328Y-14033900D01*
X2547614Y-13976757D01*
X2561900Y-13948186D01*
X2576186Y-13933900D01*
X2604757Y-13919614D01*
X2833328Y-14219614D02*
X2833328Y-14019614D01*
X2833328Y-14048186D02*
X2847614Y-14033900D01*
X2876186Y-14019614D01*
X2919043Y-14019614D01*
X2947614Y-14033900D01*
X2961900Y-14062471D01*
X2961900Y-14219614D01*
X2961900Y-14062471D02*
X2976186Y-14033900D01*
X3004757Y-14019614D01*
X3047614Y-14019614D01*
X3076186Y-14033900D01*
X3090471Y-14062471D01*
X3090471Y-14219614D01*
X3233328Y-14219614D02*
X3233328Y-14019614D01*
X3233328Y-14048186D02*
X3247614Y-14033900D01*
X3276186Y-14019614D01*
X3319043Y-14019614D01*
X3347614Y-14033900D01*
X3361900Y-14062471D01*
X3361900Y-14219614D01*
X3361900Y-14062471D02*
X3376186Y-14033900D01*
X3404757Y-14019614D01*
X3447614Y-14019614D01*
X3476186Y-14033900D01*
X3490471Y-14062471D01*
X3490471Y-14219614D01*
X4076186Y-13905329D02*
X3819043Y-14291043D01*
X4461900Y-13919614D02*
X4490471Y-13919614D01*
X4519043Y-13933900D01*
X4533328Y-13948186D01*
X4547614Y-13976757D01*
X4561900Y-14033900D01*
X4561900Y-14105329D01*
X4547614Y-14162471D01*
X4533328Y-14191043D01*
X4519043Y-14205329D01*
X4490471Y-14219614D01*
X4461900Y-14219614D01*
X4433328Y-14205329D01*
X4419043Y-14191043D01*
X4404757Y-14162471D01*
X4390471Y-14105329D01*
X4390471Y-14033900D01*
X4404757Y-13976757D01*
X4419043Y-13948186D01*
X4433328Y-13933900D01*
X4461900Y-13919614D01*
X4690471Y-14191043D02*
X4704757Y-14205329D01*
X4690471Y-14219614D01*
X4676186Y-14205329D01*
X4690471Y-14191043D01*
X4690471Y-14219614D01*
X4890471Y-13919614D02*
X4919043Y-13919614D01*
X4947614Y-13933900D01*
X4961900Y-13948186D01*
X4976186Y-13976757D01*
X4990471Y-14033900D01*
X4990471Y-14105329D01*
X4976186Y-14162471D01*
X4961900Y-14191043D01*
X4947614Y-14205329D01*
X4919043Y-14219614D01*
X4890471Y-14219614D01*
X4861900Y-14205329D01*
X4847614Y-14191043D01*
X4833328Y-14162471D01*
X4819043Y-14105329D01*
X4819043Y-14033900D01*
X4833328Y-13976757D01*
X4847614Y-13948186D01*
X4861900Y-13933900D01*
X4890471Y-13919614D01*
X5104757Y-13948186D02*
X5119043Y-13933900D01*
X5147614Y-13919614D01*
X5219043Y-13919614D01*
X5247614Y-13933900D01*
X5261900Y-13948186D01*
X5276186Y-13976757D01*
X5276186Y-14005329D01*
X5261900Y-14048186D01*
X5090471Y-14219614D01*
X5276186Y-14219614D01*
X5533328Y-14019614D02*
X5533328Y-14219614D01*
X5461900Y-13905329D02*
X5390471Y-14119614D01*
X5576186Y-14119614D01*
X5676186Y-13919614D02*
X5676186Y-13976757D01*
X5790471Y-13919614D02*
X5790471Y-13976757D01*
X6233328Y-14333900D02*
X6219043Y-14319614D01*
X6190471Y-14276757D01*
X6176186Y-14248186D01*
X6161900Y-14205329D01*
X6147614Y-14133900D01*
X6147614Y-14076757D01*
X6161900Y-14005329D01*
X6176186Y-13962471D01*
X6190471Y-13933900D01*
X6219043Y-13891043D01*
X6233328Y-13876757D01*
X6404757Y-13919614D02*
X6433328Y-13919614D01*
X6461900Y-13933900D01*
X6476186Y-13948186D01*
X6490471Y-13976757D01*
X6504757Y-14033900D01*
X6504757Y-14105329D01*
X6490471Y-14162471D01*
X6476186Y-14191043D01*
X6461900Y-14205329D01*
X6433328Y-14219614D01*
X6404757Y-14219614D01*
X6376186Y-14205329D01*
X6361900Y-14191043D01*
X6347614Y-14162471D01*
X6333328Y-14105329D01*
X6333328Y-14033900D01*
X6347614Y-13976757D01*
X6361900Y-13948186D01*
X6376186Y-13933900D01*
X6404757Y-13919614D01*
X6861900Y-14219614D02*
X6861900Y-13919614D01*
X6990471Y-14219614D02*
X6990471Y-14062471D01*
X6976186Y-14033900D01*
X6947614Y-14019614D01*
X6904757Y-14019614D01*
X6876186Y-14033900D01*
X6861900Y-14048186D01*
X7176186Y-14219614D02*
X7147614Y-14205329D01*
X7133328Y-14191043D01*
X7119043Y-14162471D01*
X7119043Y-14076757D01*
X7133328Y-14048186D01*
X7147614Y-14033900D01*
X7176186Y-14019614D01*
X7219043Y-14019614D01*
X7247614Y-14033900D01*
X7261900Y-14048186D01*
X7276186Y-14076757D01*
X7276186Y-14162471D01*
X7261900Y-14191043D01*
X7247614Y-14205329D01*
X7219043Y-14219614D01*
X7176186Y-14219614D01*
X7447614Y-14219614D02*
X7419043Y-14205329D01*
X7404757Y-14176757D01*
X7404757Y-13919614D01*
X7676186Y-14205329D02*
X7647614Y-14219614D01*
X7590471Y-14219614D01*
X7561900Y-14205329D01*
X7547614Y-14176757D01*
X7547614Y-14062471D01*
X7561900Y-14033900D01*
X7590471Y-14019614D01*
X7647614Y-14019614D01*
X7676186Y-14033900D01*
X7690471Y-14062471D01*
X7690471Y-14091043D01*
X7547614Y-14119614D01*
X7804757Y-14205329D02*
X7833328Y-14219614D01*
X7890471Y-14219614D01*
X7919043Y-14205329D01*
X7933328Y-14176757D01*
X7933328Y-14162471D01*
X7919043Y-14133900D01*
X7890471Y-14119614D01*
X7847614Y-14119614D01*
X7819043Y-14105329D01*
X7804757Y-14076757D01*
X7804757Y-14062471D01*
X7819043Y-14033900D01*
X7847614Y-14019614D01*
X7890471Y-14019614D01*
X7919043Y-14033900D01*
X8290471Y-14105329D02*
X8519043Y-14105329D01*
X8404757Y-14219614D02*
X8404757Y-13991043D01*
X9019043Y-14019614D02*
X9019043Y-14219614D01*
X8947614Y-13905329D02*
X8876186Y-14119614D01*
X9061900Y-14119614D01*
X9390471Y-14205329D02*
X9419043Y-14219614D01*
X9476186Y-14219614D01*
X9504757Y-14205329D01*
X9519043Y-14176757D01*
X9519043Y-14162471D01*
X9504757Y-14133900D01*
X9476186Y-14119614D01*
X9433328Y-14119614D01*
X9404757Y-14105329D01*
X9390471Y-14076757D01*
X9390471Y-14062471D01*
X9404757Y-14033900D01*
X9433328Y-14019614D01*
X9476186Y-14019614D01*
X9504757Y-14033900D01*
X9690471Y-14219614D02*
X9661900Y-14205329D01*
X9647614Y-14176757D01*
X9647614Y-13919614D01*
X9847614Y-14219614D02*
X9819043Y-14205329D01*
X9804757Y-14191043D01*
X9790471Y-14162471D01*
X9790471Y-14076757D01*
X9804757Y-14048186D01*
X9819043Y-14033900D01*
X9847614Y-14019614D01*
X9890471Y-14019614D01*
X9919043Y-14033900D01*
X9933328Y-14048186D01*
X9947614Y-14076757D01*
X9947614Y-14162471D01*
X9933328Y-14191043D01*
X9919043Y-14205329D01*
X9890471Y-14219614D01*
X9847614Y-14219614D01*
X10033328Y-14019614D02*
X10147614Y-14019614D01*
X10076186Y-13919614D02*
X10076186Y-14176757D01*
X10090471Y-14205329D01*
X10119043Y-14219614D01*
X10147614Y-14219614D01*
X10233328Y-14205329D02*
X10261900Y-14219614D01*
X10319043Y-14219614D01*
X10347614Y-14205329D01*
X10361900Y-14176757D01*
X10361900Y-14162471D01*
X10347614Y-14133900D01*
X10319043Y-14119614D01*
X10276186Y-14119614D01*
X10247614Y-14105329D01*
X10233328Y-14076757D01*
X10233328Y-14062471D01*
X10247614Y-14033900D01*
X10276186Y-14019614D01*
X10319043Y-14019614D01*
X10347614Y-14033900D01*
X10461900Y-14333900D02*
X10476186Y-14319614D01*
X10504757Y-14276757D01*
X10519043Y-14248186D01*
X10533328Y-14205329D01*
X10547614Y-14133900D01*
X10547614Y-14076757D01*
X10533328Y-14005329D01*
X10519043Y-13962471D01*
X10504757Y-13933900D01*
X10476186Y-13891043D01*
X10461900Y-13876757D01*
X1511900Y-14444900D02*
X1511900Y-14514900D01*
X1476900Y-14479900D02*
X1546900Y-14479900D01*
X1890471Y-14315614D02*
X1919043Y-14315614D01*
X1947614Y-14329900D01*
X1961900Y-14344186D01*
X1976186Y-14372757D01*
X1990471Y-14429900D01*
X1990471Y-14501329D01*
X1976186Y-14558471D01*
X1961900Y-14587043D01*
X1947614Y-14601329D01*
X1919043Y-14615614D01*
X1890471Y-14615614D01*
X1861900Y-14601329D01*
X1847614Y-14587043D01*
X1833328Y-14558471D01*
X1819043Y-14501329D01*
X1819043Y-14429900D01*
X1833328Y-14372757D01*
X1847614Y-14344186D01*
X1861900Y-14329900D01*
X1890471Y-14315614D01*
X2119043Y-14587043D02*
X2133328Y-14601329D01*
X2119043Y-14615614D01*
X2104757Y-14601329D01*
X2119043Y-14587043D01*
X2119043Y-14615614D01*
X2233328Y-14315614D02*
X2433328Y-14315614D01*
X2304757Y-14615614D01*
X2604757Y-14315614D02*
X2633328Y-14315614D01*
X2661900Y-14329900D01*
X2676186Y-14344186D01*
X2690471Y-14372757D01*
X2704757Y-14429900D01*
X2704757Y-14501329D01*
X2690471Y-14558471D01*
X2676186Y-14587043D01*
X2661900Y-14601329D01*
X2633328Y-14615614D01*
X2604757Y-14615614D01*
X2576186Y-14601329D01*
X2561900Y-14587043D01*
X2547614Y-14558471D01*
X2533328Y-14501329D01*
X2533328Y-14429900D01*
X2547614Y-14372757D01*
X2561900Y-14344186D01*
X2576186Y-14329900D01*
X2604757Y-14315614D01*
X2833328Y-14615614D02*
X2833328Y-14415614D01*
X2833328Y-14444186D02*
X2847614Y-14429900D01*
X2876186Y-14415614D01*
X2919043Y-14415614D01*
X2947614Y-14429900D01*
X2961900Y-14458471D01*
X2961900Y-14615614D01*
X2961900Y-14458471D02*
X2976186Y-14429900D01*
X3004757Y-14415614D01*
X3047614Y-14415614D01*
X3076186Y-14429900D01*
X3090471Y-14458471D01*
X3090471Y-14615614D01*
X3233328Y-14615614D02*
X3233328Y-14415614D01*
X3233328Y-14444186D02*
X3247614Y-14429900D01*
X3276186Y-14415614D01*
X3319043Y-14415614D01*
X3347614Y-14429900D01*
X3361900Y-14458471D01*
X3361900Y-14615614D01*
X3361900Y-14458471D02*
X3376186Y-14429900D01*
X3404757Y-14415614D01*
X3447614Y-14415614D01*
X3476186Y-14429900D01*
X3490471Y-14458471D01*
X3490471Y-14615614D01*
X4076186Y-14301329D02*
X3819043Y-14687043D01*
X4461900Y-14315614D02*
X4490471Y-14315614D01*
X4519043Y-14329900D01*
X4533328Y-14344186D01*
X4547614Y-14372757D01*
X4561900Y-14429900D01*
X4561900Y-14501329D01*
X4547614Y-14558471D01*
X4533328Y-14587043D01*
X4519043Y-14601329D01*
X4490471Y-14615614D01*
X4461900Y-14615614D01*
X4433328Y-14601329D01*
X4419043Y-14587043D01*
X4404757Y-14558471D01*
X4390471Y-14501329D01*
X4390471Y-14429900D01*
X4404757Y-14372757D01*
X4419043Y-14344186D01*
X4433328Y-14329900D01*
X4461900Y-14315614D01*
X4690471Y-14587043D02*
X4704757Y-14601329D01*
X4690471Y-14615614D01*
X4676186Y-14601329D01*
X4690471Y-14587043D01*
X4690471Y-14615614D01*
X4890471Y-14315614D02*
X4919043Y-14315614D01*
X4947614Y-14329900D01*
X4961900Y-14344186D01*
X4976186Y-14372757D01*
X4990471Y-14429900D01*
X4990471Y-14501329D01*
X4976186Y-14558471D01*
X4961900Y-14587043D01*
X4947614Y-14601329D01*
X4919043Y-14615614D01*
X4890471Y-14615614D01*
X4861900Y-14601329D01*
X4847614Y-14587043D01*
X4833328Y-14558471D01*
X4819043Y-14501329D01*
X4819043Y-14429900D01*
X4833328Y-14372757D01*
X4847614Y-14344186D01*
X4861900Y-14329900D01*
X4890471Y-14315614D01*
X5104757Y-14344186D02*
X5119043Y-14329900D01*
X5147614Y-14315614D01*
X5219043Y-14315614D01*
X5247614Y-14329900D01*
X5261900Y-14344186D01*
X5276186Y-14372757D01*
X5276186Y-14401329D01*
X5261900Y-14444186D01*
X5090471Y-14615614D01*
X5276186Y-14615614D01*
X5447614Y-14444186D02*
X5419043Y-14429900D01*
X5404757Y-14415614D01*
X5390471Y-14387043D01*
X5390471Y-14372757D01*
X5404757Y-14344186D01*
X5419043Y-14329900D01*
X5447614Y-14315614D01*
X5504757Y-14315614D01*
X5533328Y-14329900D01*
X5547614Y-14344186D01*
X5561900Y-14372757D01*
X5561900Y-14387043D01*
X5547614Y-14415614D01*
X5533328Y-14429900D01*
X5504757Y-14444186D01*
X5447614Y-14444186D01*
X5419043Y-14458471D01*
X5404757Y-14472757D01*
X5390471Y-14501329D01*
X5390471Y-14558471D01*
X5404757Y-14587043D01*
X5419043Y-14601329D01*
X5447614Y-14615614D01*
X5504757Y-14615614D01*
X5533328Y-14601329D01*
X5547614Y-14587043D01*
X5561900Y-14558471D01*
X5561900Y-14501329D01*
X5547614Y-14472757D01*
X5533328Y-14458471D01*
X5504757Y-14444186D01*
X5676186Y-14315614D02*
X5676186Y-14372757D01*
X5790471Y-14315614D02*
X5790471Y-14372757D01*
X6233328Y-14729900D02*
X6219043Y-14715614D01*
X6190471Y-14672757D01*
X6176186Y-14644186D01*
X6161900Y-14601329D01*
X6147614Y-14529900D01*
X6147614Y-14472757D01*
X6161900Y-14401329D01*
X6176186Y-14358471D01*
X6190471Y-14329900D01*
X6219043Y-14287043D01*
X6233328Y-14272757D01*
X6361900Y-14615614D02*
X6419043Y-14615614D01*
X6447614Y-14601329D01*
X6461900Y-14587043D01*
X6490471Y-14544186D01*
X6504757Y-14487043D01*
X6504757Y-14372757D01*
X6490471Y-14344186D01*
X6476186Y-14329900D01*
X6447614Y-14315614D01*
X6390471Y-14315614D01*
X6361900Y-14329900D01*
X6347614Y-14344186D01*
X6333328Y-14372757D01*
X6333328Y-14444186D01*
X6347614Y-14472757D01*
X6361900Y-14487043D01*
X6390471Y-14501329D01*
X6447614Y-14501329D01*
X6476186Y-14487043D01*
X6490471Y-14472757D01*
X6504757Y-14444186D01*
X6761900Y-14315614D02*
X6704757Y-14315614D01*
X6676186Y-14329900D01*
X6661900Y-14344186D01*
X6633328Y-14387043D01*
X6619043Y-14444186D01*
X6619043Y-14558471D01*
X6633328Y-14587043D01*
X6647614Y-14601329D01*
X6676186Y-14615614D01*
X6733328Y-14615614D01*
X6761900Y-14601329D01*
X6776186Y-14587043D01*
X6790471Y-14558471D01*
X6790471Y-14487043D01*
X6776186Y-14458471D01*
X6761900Y-14444186D01*
X6733328Y-14429900D01*
X6676186Y-14429900D01*
X6647614Y-14444186D01*
X6633328Y-14458471D01*
X6619043Y-14487043D01*
X7147614Y-14615614D02*
X7147614Y-14315614D01*
X7276186Y-14615614D02*
X7276186Y-14458471D01*
X7261900Y-14429900D01*
X7233328Y-14415614D01*
X7190471Y-14415614D01*
X7161900Y-14429900D01*
X7147614Y-14444186D01*
X7461900Y-14615614D02*
X7433328Y-14601329D01*
X7419043Y-14587043D01*
X7404757Y-14558471D01*
X7404757Y-14472757D01*
X7419043Y-14444186D01*
X7433328Y-14429900D01*
X7461900Y-14415614D01*
X7504757Y-14415614D01*
X7533328Y-14429900D01*
X7547614Y-14444186D01*
X7561900Y-14472757D01*
X7561900Y-14558471D01*
X7547614Y-14587043D01*
X7533328Y-14601329D01*
X7504757Y-14615614D01*
X7461900Y-14615614D01*
X7733328Y-14615614D02*
X7704757Y-14601329D01*
X7690471Y-14572757D01*
X7690471Y-14315614D01*
X7961900Y-14601329D02*
X7933328Y-14615614D01*
X7876186Y-14615614D01*
X7847614Y-14601329D01*
X7833328Y-14572757D01*
X7833328Y-14458471D01*
X7847614Y-14429900D01*
X7876186Y-14415614D01*
X7933328Y-14415614D01*
X7961900Y-14429900D01*
X7976186Y-14458471D01*
X7976186Y-14487043D01*
X7833328Y-14515614D01*
X8090471Y-14601329D02*
X8119043Y-14615614D01*
X8176186Y-14615614D01*
X8204757Y-14601329D01*
X8219043Y-14572757D01*
X8219043Y-14558471D01*
X8204757Y-14529900D01*
X8176186Y-14515614D01*
X8133328Y-14515614D01*
X8104757Y-14501329D01*
X8090471Y-14472757D01*
X8090471Y-14458471D01*
X8104757Y-14429900D01*
X8133328Y-14415614D01*
X8176186Y-14415614D01*
X8204757Y-14429900D01*
X8319043Y-14729900D02*
X8333328Y-14715614D01*
X8361900Y-14672757D01*
X8376186Y-14644186D01*
X8390471Y-14601329D01*
X8404757Y-14529900D01*
X8404757Y-14472757D01*
X8390471Y-14401329D01*
X8376186Y-14358471D01*
X8361900Y-14329900D01*
X8333328Y-14287043D01*
X8319043Y-14272757D01*
X1524933Y-14928934D02*
X1524933Y-14822867D01*
X1418866Y-14822867D01*
X1418866Y-14928934D01*
X1524933Y-14928934D01*
X1990471Y-15011614D02*
X1819043Y-15011614D01*
X1904757Y-15011614D02*
X1904757Y-14711614D01*
X1876186Y-14754471D01*
X1847614Y-14783043D01*
X1819043Y-14797329D01*
X2119043Y-14983043D02*
X2133328Y-14997329D01*
X2119043Y-15011614D01*
X2104757Y-14997329D01*
X2119043Y-14983043D01*
X2119043Y-15011614D01*
X2404757Y-14711614D02*
X2261900Y-14711614D01*
X2247614Y-14854471D01*
X2261900Y-14840186D01*
X2290471Y-14825900D01*
X2361900Y-14825900D01*
X2390471Y-14840186D01*
X2404757Y-14854471D01*
X2419043Y-14883043D01*
X2419043Y-14954471D01*
X2404757Y-14983043D01*
X2390471Y-14997329D01*
X2361900Y-15011614D01*
X2290471Y-15011614D01*
X2261900Y-14997329D01*
X2247614Y-14983043D01*
X2604757Y-14711614D02*
X2633328Y-14711614D01*
X2661900Y-14725900D01*
X2676186Y-14740186D01*
X2690471Y-14768757D01*
X2704757Y-14825900D01*
X2704757Y-14897329D01*
X2690471Y-14954471D01*
X2676186Y-14983043D01*
X2661900Y-14997329D01*
X2633328Y-15011614D01*
X2604757Y-15011614D01*
X2576186Y-14997329D01*
X2561900Y-14983043D01*
X2547614Y-14954471D01*
X2533328Y-14897329D01*
X2533328Y-14825900D01*
X2547614Y-14768757D01*
X2561900Y-14740186D01*
X2576186Y-14725900D01*
X2604757Y-14711614D01*
X2833328Y-15011614D02*
X2833328Y-14811614D01*
X2833328Y-14840186D02*
X2847614Y-14825900D01*
X2876186Y-14811614D01*
X2919043Y-14811614D01*
X2947614Y-14825900D01*
X2961900Y-14854471D01*
X2961900Y-15011614D01*
X2961900Y-14854471D02*
X2976186Y-14825900D01*
X3004757Y-14811614D01*
X3047614Y-14811614D01*
X3076186Y-14825900D01*
X3090471Y-14854471D01*
X3090471Y-15011614D01*
X3233328Y-15011614D02*
X3233328Y-14811614D01*
X3233328Y-14840186D02*
X3247614Y-14825900D01*
X3276186Y-14811614D01*
X3319043Y-14811614D01*
X3347614Y-14825900D01*
X3361900Y-14854471D01*
X3361900Y-15011614D01*
X3361900Y-14854471D02*
X3376186Y-14825900D01*
X3404757Y-14811614D01*
X3447614Y-14811614D01*
X3476186Y-14825900D01*
X3490471Y-14854471D01*
X3490471Y-15011614D01*
X4076186Y-14697329D02*
X3819043Y-15083043D01*
X4461900Y-14711614D02*
X4490471Y-14711614D01*
X4519043Y-14725900D01*
X4533328Y-14740186D01*
X4547614Y-14768757D01*
X4561900Y-14825900D01*
X4561900Y-14897329D01*
X4547614Y-14954471D01*
X4533328Y-14983043D01*
X4519043Y-14997329D01*
X4490471Y-15011614D01*
X4461900Y-15011614D01*
X4433328Y-14997329D01*
X4419043Y-14983043D01*
X4404757Y-14954471D01*
X4390471Y-14897329D01*
X4390471Y-14825900D01*
X4404757Y-14768757D01*
X4419043Y-14740186D01*
X4433328Y-14725900D01*
X4461900Y-14711614D01*
X4690471Y-14983043D02*
X4704757Y-14997329D01*
X4690471Y-15011614D01*
X4676186Y-14997329D01*
X4690471Y-14983043D01*
X4690471Y-15011614D01*
X4890471Y-14711614D02*
X4919043Y-14711614D01*
X4947614Y-14725900D01*
X4961900Y-14740186D01*
X4976186Y-14768757D01*
X4990471Y-14825900D01*
X4990471Y-14897329D01*
X4976186Y-14954471D01*
X4961900Y-14983043D01*
X4947614Y-14997329D01*
X4919043Y-15011614D01*
X4890471Y-15011614D01*
X4861900Y-14997329D01*
X4847614Y-14983043D01*
X4833328Y-14954471D01*
X4819043Y-14897329D01*
X4819043Y-14825900D01*
X4833328Y-14768757D01*
X4847614Y-14740186D01*
X4861900Y-14725900D01*
X4890471Y-14711614D01*
X5261900Y-14711614D02*
X5119043Y-14711614D01*
X5104757Y-14854471D01*
X5119043Y-14840186D01*
X5147614Y-14825900D01*
X5219043Y-14825900D01*
X5247614Y-14840186D01*
X5261900Y-14854471D01*
X5276186Y-14883043D01*
X5276186Y-14954471D01*
X5261900Y-14983043D01*
X5247614Y-14997329D01*
X5219043Y-15011614D01*
X5147614Y-15011614D01*
X5119043Y-14997329D01*
X5104757Y-14983043D01*
X5419043Y-15011614D02*
X5476186Y-15011614D01*
X5504757Y-14997329D01*
X5519043Y-14983043D01*
X5547614Y-14940186D01*
X5561900Y-14883043D01*
X5561900Y-14768757D01*
X5547614Y-14740186D01*
X5533328Y-14725900D01*
X5504757Y-14711614D01*
X5447614Y-14711614D01*
X5419043Y-14725900D01*
X5404757Y-14740186D01*
X5390471Y-14768757D01*
X5390471Y-14840186D01*
X5404757Y-14868757D01*
X5419043Y-14883043D01*
X5447614Y-14897329D01*
X5504757Y-14897329D01*
X5533328Y-14883043D01*
X5547614Y-14868757D01*
X5561900Y-14840186D01*
X5676186Y-14711614D02*
X5676186Y-14768757D01*
X5790471Y-14711614D02*
X5790471Y-14768757D01*
X6233328Y-15125900D02*
X6219043Y-15111614D01*
X6190471Y-15068757D01*
X6176186Y-15040186D01*
X6161900Y-14997329D01*
X6147614Y-14925900D01*
X6147614Y-14868757D01*
X6161900Y-14797329D01*
X6176186Y-14754471D01*
X6190471Y-14725900D01*
X6219043Y-14683043D01*
X6233328Y-14668757D01*
X6404757Y-14711614D02*
X6433328Y-14711614D01*
X6461900Y-14725900D01*
X6476186Y-14740186D01*
X6490471Y-14768757D01*
X6504757Y-14825900D01*
X6504757Y-14897329D01*
X6490471Y-14954471D01*
X6476186Y-14983043D01*
X6461900Y-14997329D01*
X6433328Y-15011614D01*
X6404757Y-15011614D01*
X6376186Y-14997329D01*
X6361900Y-14983043D01*
X6347614Y-14954471D01*
X6333328Y-14897329D01*
X6333328Y-14825900D01*
X6347614Y-14768757D01*
X6361900Y-14740186D01*
X6376186Y-14725900D01*
X6404757Y-14711614D01*
X6861900Y-15011614D02*
X6861900Y-14711614D01*
X6990471Y-15011614D02*
X6990471Y-14854471D01*
X6976186Y-14825900D01*
X6947614Y-14811614D01*
X6904757Y-14811614D01*
X6876186Y-14825900D01*
X6861900Y-14840186D01*
X7176186Y-15011614D02*
X7147614Y-14997329D01*
X7133328Y-14983043D01*
X7119043Y-14954471D01*
X7119043Y-14868757D01*
X7133328Y-14840186D01*
X7147614Y-14825900D01*
X7176186Y-14811614D01*
X7219043Y-14811614D01*
X7247614Y-14825900D01*
X7261900Y-14840186D01*
X7276186Y-14868757D01*
X7276186Y-14954471D01*
X7261900Y-14983043D01*
X7247614Y-14997329D01*
X7219043Y-15011614D01*
X7176186Y-15011614D01*
X7447614Y-15011614D02*
X7419043Y-14997329D01*
X7404757Y-14968757D01*
X7404757Y-14711614D01*
X7676186Y-14997329D02*
X7647614Y-15011614D01*
X7590471Y-15011614D01*
X7561900Y-14997329D01*
X7547614Y-14968757D01*
X7547614Y-14854471D01*
X7561900Y-14825900D01*
X7590471Y-14811614D01*
X7647614Y-14811614D01*
X7676186Y-14825900D01*
X7690471Y-14854471D01*
X7690471Y-14883043D01*
X7547614Y-14911614D01*
X7804757Y-14997329D02*
X7833328Y-15011614D01*
X7890471Y-15011614D01*
X7919043Y-14997329D01*
X7933328Y-14968757D01*
X7933328Y-14954471D01*
X7919043Y-14925900D01*
X7890471Y-14911614D01*
X7847614Y-14911614D01*
X7819043Y-14897329D01*
X7804757Y-14868757D01*
X7804757Y-14854471D01*
X7819043Y-14825900D01*
X7847614Y-14811614D01*
X7890471Y-14811614D01*
X7919043Y-14825900D01*
X8290471Y-14897329D02*
X8519043Y-14897329D01*
X8404757Y-15011614D02*
X8404757Y-14783043D01*
X8904757Y-15011614D02*
X8961900Y-15011614D01*
X8990471Y-14997329D01*
X9004757Y-14983043D01*
X9033328Y-14940186D01*
X9047614Y-14883043D01*
X9047614Y-14768757D01*
X9033328Y-14740186D01*
X9019043Y-14725900D01*
X8990471Y-14711614D01*
X8933328Y-14711614D01*
X8904757Y-14725900D01*
X8890471Y-14740186D01*
X8876186Y-14768757D01*
X8876186Y-14840186D01*
X8890471Y-14868757D01*
X8904757Y-14883043D01*
X8933328Y-14897329D01*
X8990471Y-14897329D01*
X9019043Y-14883043D01*
X9033328Y-14868757D01*
X9047614Y-14840186D01*
X9304757Y-14811614D02*
X9304757Y-15011614D01*
X9233328Y-14697329D02*
X9161900Y-14911614D01*
X9347614Y-14911614D01*
X9676186Y-14997329D02*
X9704757Y-15011614D01*
X9761900Y-15011614D01*
X9790471Y-14997329D01*
X9804757Y-14968757D01*
X9804757Y-14954471D01*
X9790471Y-14925900D01*
X9761900Y-14911614D01*
X9719043Y-14911614D01*
X9690471Y-14897329D01*
X9676186Y-14868757D01*
X9676186Y-14854471D01*
X9690471Y-14825900D01*
X9719043Y-14811614D01*
X9761900Y-14811614D01*
X9790471Y-14825900D01*
X9976186Y-15011614D02*
X9947614Y-14997329D01*
X9933328Y-14968757D01*
X9933328Y-14711614D01*
X10133328Y-15011614D02*
X10104757Y-14997329D01*
X10090471Y-14983043D01*
X10076186Y-14954471D01*
X10076186Y-14868757D01*
X10090471Y-14840186D01*
X10104757Y-14825900D01*
X10133328Y-14811614D01*
X10176186Y-14811614D01*
X10204757Y-14825900D01*
X10219043Y-14840186D01*
X10233328Y-14868757D01*
X10233328Y-14954471D01*
X10219043Y-14983043D01*
X10204757Y-14997329D01*
X10176186Y-15011614D01*
X10133328Y-15011614D01*
X10319043Y-14811614D02*
X10433328Y-14811614D01*
X10361900Y-14711614D02*
X10361900Y-14968757D01*
X10376186Y-14997329D01*
X10404757Y-15011614D01*
X10433328Y-15011614D01*
X10519043Y-14997329D02*
X10547614Y-15011614D01*
X10604757Y-15011614D01*
X10633328Y-14997329D01*
X10647614Y-14968757D01*
X10647614Y-14954471D01*
X10633328Y-14925900D01*
X10604757Y-14911614D01*
X10561900Y-14911614D01*
X10533328Y-14897329D01*
X10519043Y-14868757D01*
X10519043Y-14854471D01*
X10533328Y-14825900D01*
X10561900Y-14811614D01*
X10604757Y-14811614D01*
X10633328Y-14825900D01*
X10747614Y-15125900D02*
X10761900Y-15111614D01*
X10790471Y-15068757D01*
X10804757Y-15040186D01*
X10819043Y-14997329D01*
X10833328Y-14925900D01*
X10833328Y-14868757D01*
X10819043Y-14797329D01*
X10804757Y-14754471D01*
X10790471Y-14725900D01*
X10761900Y-14683043D01*
X10747614Y-14668757D01*
X1386900Y-15431900D02*
X1546900Y-15271900D01*
X1386900Y-15111900D01*
X1226900Y-15271900D01*
X1386900Y-15431900D01*
X1804757Y-15107614D02*
X1990471Y-15107614D01*
X1890471Y-15221900D01*
X1933328Y-15221900D01*
X1961900Y-15236186D01*
X1976186Y-15250471D01*
X1990471Y-15279043D01*
X1990471Y-15350471D01*
X1976186Y-15379043D01*
X1961900Y-15393329D01*
X1933328Y-15407614D01*
X1847614Y-15407614D01*
X1819043Y-15393329D01*
X1804757Y-15379043D01*
X2119043Y-15379043D02*
X2133328Y-15393329D01*
X2119043Y-15407614D01*
X2104757Y-15393329D01*
X2119043Y-15379043D01*
X2119043Y-15407614D01*
X2247614Y-15136186D02*
X2261900Y-15121900D01*
X2290471Y-15107614D01*
X2361900Y-15107614D01*
X2390471Y-15121900D01*
X2404757Y-15136186D01*
X2419043Y-15164757D01*
X2419043Y-15193329D01*
X2404757Y-15236186D01*
X2233328Y-15407614D01*
X2419043Y-15407614D01*
X2604757Y-15107614D02*
X2633328Y-15107614D01*
X2661900Y-15121900D01*
X2676186Y-15136186D01*
X2690471Y-15164757D01*
X2704757Y-15221900D01*
X2704757Y-15293329D01*
X2690471Y-15350471D01*
X2676186Y-15379043D01*
X2661900Y-15393329D01*
X2633328Y-15407614D01*
X2604757Y-15407614D01*
X2576186Y-15393329D01*
X2561900Y-15379043D01*
X2547614Y-15350471D01*
X2533328Y-15293329D01*
X2533328Y-15221900D01*
X2547614Y-15164757D01*
X2561900Y-15136186D01*
X2576186Y-15121900D01*
X2604757Y-15107614D01*
X2833328Y-15407614D02*
X2833328Y-15207614D01*
X2833328Y-15236186D02*
X2847614Y-15221900D01*
X2876186Y-15207614D01*
X2919043Y-15207614D01*
X2947614Y-15221900D01*
X2961900Y-15250471D01*
X2961900Y-15407614D01*
X2961900Y-15250471D02*
X2976186Y-15221900D01*
X3004757Y-15207614D01*
X3047614Y-15207614D01*
X3076186Y-15221900D01*
X3090471Y-15250471D01*
X3090471Y-15407614D01*
X3233328Y-15407614D02*
X3233328Y-15207614D01*
X3233328Y-15236186D02*
X3247614Y-15221900D01*
X3276186Y-15207614D01*
X3319043Y-15207614D01*
X3347614Y-15221900D01*
X3361900Y-15250471D01*
X3361900Y-15407614D01*
X3361900Y-15250471D02*
X3376186Y-15221900D01*
X3404757Y-15207614D01*
X3447614Y-15207614D01*
X3476186Y-15221900D01*
X3490471Y-15250471D01*
X3490471Y-15407614D01*
X4076186Y-15093329D02*
X3819043Y-15479043D01*
X4461900Y-15107614D02*
X4490471Y-15107614D01*
X4519043Y-15121900D01*
X4533328Y-15136186D01*
X4547614Y-15164757D01*
X4561900Y-15221900D01*
X4561900Y-15293329D01*
X4547614Y-15350471D01*
X4533328Y-15379043D01*
X4519043Y-15393329D01*
X4490471Y-15407614D01*
X4461900Y-15407614D01*
X4433328Y-15393329D01*
X4419043Y-15379043D01*
X4404757Y-15350471D01*
X4390471Y-15293329D01*
X4390471Y-15221900D01*
X4404757Y-15164757D01*
X4419043Y-15136186D01*
X4433328Y-15121900D01*
X4461900Y-15107614D01*
X4690471Y-15379043D02*
X4704757Y-15393329D01*
X4690471Y-15407614D01*
X4676186Y-15393329D01*
X4690471Y-15379043D01*
X4690471Y-15407614D01*
X4990471Y-15407614D02*
X4819043Y-15407614D01*
X4904757Y-15407614D02*
X4904757Y-15107614D01*
X4876186Y-15150471D01*
X4847614Y-15179043D01*
X4819043Y-15193329D01*
X5104757Y-15136186D02*
X5119043Y-15121900D01*
X5147614Y-15107614D01*
X5219043Y-15107614D01*
X5247614Y-15121900D01*
X5261900Y-15136186D01*
X5276186Y-15164757D01*
X5276186Y-15193329D01*
X5261900Y-15236186D01*
X5090471Y-15407614D01*
X5276186Y-15407614D01*
X5533328Y-15107614D02*
X5476186Y-15107614D01*
X5447614Y-15121900D01*
X5433328Y-15136186D01*
X5404757Y-15179043D01*
X5390471Y-15236186D01*
X5390471Y-15350471D01*
X5404757Y-15379043D01*
X5419043Y-15393329D01*
X5447614Y-15407614D01*
X5504757Y-15407614D01*
X5533328Y-15393329D01*
X5547614Y-15379043D01*
X5561900Y-15350471D01*
X5561900Y-15279043D01*
X5547614Y-15250471D01*
X5533328Y-15236186D01*
X5504757Y-15221900D01*
X5447614Y-15221900D01*
X5419043Y-15236186D01*
X5404757Y-15250471D01*
X5390471Y-15279043D01*
X5676186Y-15107614D02*
X5676186Y-15164757D01*
X5790471Y-15107614D02*
X5790471Y-15164757D01*
X6233328Y-15521900D02*
X6219043Y-15507614D01*
X6190471Y-15464757D01*
X6176186Y-15436186D01*
X6161900Y-15393329D01*
X6147614Y-15321900D01*
X6147614Y-15264757D01*
X6161900Y-15193329D01*
X6176186Y-15150471D01*
X6190471Y-15121900D01*
X6219043Y-15079043D01*
X6233328Y-15064757D01*
X6319043Y-15107614D02*
X6519043Y-15107614D01*
X6390471Y-15407614D01*
X6861900Y-15407614D02*
X6861900Y-15107614D01*
X6990471Y-15407614D02*
X6990471Y-15250471D01*
X6976186Y-15221900D01*
X6947614Y-15207614D01*
X6904757Y-15207614D01*
X6876186Y-15221900D01*
X6861900Y-15236186D01*
X7176186Y-15407614D02*
X7147614Y-15393329D01*
X7133328Y-15379043D01*
X7119043Y-15350471D01*
X7119043Y-15264757D01*
X7133328Y-15236186D01*
X7147614Y-15221900D01*
X7176186Y-15207614D01*
X7219043Y-15207614D01*
X7247614Y-15221900D01*
X7261900Y-15236186D01*
X7276186Y-15264757D01*
X7276186Y-15350471D01*
X7261900Y-15379043D01*
X7247614Y-15393329D01*
X7219043Y-15407614D01*
X7176186Y-15407614D01*
X7447614Y-15407614D02*
X7419043Y-15393329D01*
X7404757Y-15364757D01*
X7404757Y-15107614D01*
X7676186Y-15393329D02*
X7647614Y-15407614D01*
X7590471Y-15407614D01*
X7561900Y-15393329D01*
X7547614Y-15364757D01*
X7547614Y-15250471D01*
X7561900Y-15221900D01*
X7590471Y-15207614D01*
X7647614Y-15207614D01*
X7676186Y-15221900D01*
X7690471Y-15250471D01*
X7690471Y-15279043D01*
X7547614Y-15307614D01*
X7804757Y-15393329D02*
X7833328Y-15407614D01*
X7890471Y-15407614D01*
X7919043Y-15393329D01*
X7933328Y-15364757D01*
X7933328Y-15350471D01*
X7919043Y-15321900D01*
X7890471Y-15307614D01*
X7847614Y-15307614D01*
X7819043Y-15293329D01*
X7804757Y-15264757D01*
X7804757Y-15250471D01*
X7819043Y-15221900D01*
X7847614Y-15207614D01*
X7890471Y-15207614D01*
X7919043Y-15221900D01*
X8033328Y-15521900D02*
X8047614Y-15507614D01*
X8076186Y-15464757D01*
X8090471Y-15436186D01*
X8104757Y-15393329D01*
X8119043Y-15321900D01*
X8119043Y-15264757D01*
X8104757Y-15193329D01*
X8090471Y-15150471D01*
X8076186Y-15121900D01*
X8047614Y-15079043D01*
X8033328Y-15064757D01*
M02*
