M48
; DRILL file {KiCad (5.1.0)-1} date 9/20/2020 4:45:06 PM
; FORMAT={-:-/ absolute / inch / decimal}
; #@! TF.CreationDate,2020-09-20T16:45:06-04:00
; #@! TF.GenerationSoftware,Kicad,Pcbnew,(5.1.0)-1
; #@! TF.FileFunction,Plated,1,2,PTH
FMAT,2
INCH
T1C0.0157
T2C0.0236
T3C0.0276
T4C0.0591
T5C0.1260
%
G90
G05
T1
X2.76Y-1.98
X2.9Y-1.57
X2.9Y-1.61
X2.9Y-1.69
X2.9002Y-1.6498
X2.95Y-2.0085
X3.31Y-1.94
X3.46Y-1.97
X3.5Y-1.9485
X3.57Y-1.78
X3.59Y-1.97
X3.6028Y-1.7582
X3.6412Y-1.7497
X3.67Y-1.72
X4.16Y-1.81
X5.07Y-1.59
X5.07Y-1.6306
X5.07Y-1.67
X5.07Y-1.72
X5.07Y-1.78
X5.07Y-1.82
X5.07Y-1.87
X5.11Y-2.0
X6.01Y-2.03
X8.73Y-1.87
X8.77Y-1.87
X8.81Y-1.87
X9.04Y-1.76
X9.3477Y-1.6523
X9.35Y-1.77
X9.4169Y-1.7731
X9.5027Y-1.548
X9.5029Y-1.6002
X9.5361Y-1.548
X9.5363Y-1.6002
X9.5696Y-1.548
X9.5698Y-1.6002
X9.6031Y-1.548
X9.6033Y-1.6002
X9.6365Y-1.548
X9.6367Y-1.6002
X9.67Y-1.548
X9.6702Y-1.6002
X9.7035Y-1.548
X9.7037Y-1.6002
X9.7371Y-1.548
X9.7371Y-1.6002
T3
X4.0165Y-3.94
X4.3235Y-3.94
X7.0165Y-3.94
X7.3235Y-3.94
X8.5165Y-4.69
X8.8235Y-4.69
X9.2665Y-3.94
X9.5735Y-3.94
X3.2665Y-3.94
X3.5735Y-3.94
X9.2665Y-4.69
X9.5735Y-4.69
X1.0165Y-2.44
X1.3235Y-2.44
X4.7665Y-3.2
X5.0735Y-3.2
X5.1465Y-4.69
X5.4535Y-4.69
X7.7665Y-2.44
X8.0735Y-2.44
X6.2565Y-3.19
X6.5635Y-3.19
X8.5165Y-3.94
X8.8235Y-3.94
X1.0165Y-3.19
X1.3235Y-3.19
X9.2665Y-3.19
X9.5735Y-3.19
X7.0165Y-2.44
X7.3235Y-2.44
X2.5144Y-2.45
X2.8215Y-2.45
X6.2665Y-2.44
X6.5735Y-2.44
X2.5165Y-3.94
X2.8235Y-3.94
X5.5165Y-3.94
X5.8235Y-3.94
X1.0165Y-4.69
X1.3235Y-4.69
X2.5165Y-4.69
X2.8235Y-4.69
X7.7665Y-4.69
X8.0735Y-4.69
X9.2665Y-2.44
X9.5735Y-2.44
X4.0165Y-4.69
X4.3235Y-4.69
X2.5165Y-3.19
X2.8235Y-3.19
X2.67Y-1.6135
X2.67Y-1.8065
X4.0165Y-3.19
X4.3235Y-3.19
X6.2665Y-4.69
X6.5735Y-4.69
X4.0165Y-2.44
X4.3235Y-2.44
X7.0165Y-3.19
X7.3235Y-3.19
X1.7665Y-3.19
X2.0735Y-3.19
X1.0165Y-3.94
X1.3235Y-3.94
X1.7665Y-2.44
X2.0735Y-2.44
X4.7665Y-2.44
X5.0735Y-2.44
X4.7665Y-3.92
X5.0735Y-3.92
X6.2665Y-3.94
X6.5735Y-3.94
X7.0165Y-4.69
X7.3235Y-4.69
X1.7665Y-4.69
X2.0735Y-4.69
X3.2665Y-4.69
X3.5735Y-4.69
X7.7665Y-3.94
X8.0735Y-3.94
X5.5065Y-3.19
X5.8135Y-3.19
X1.7665Y-3.94
X2.0735Y-3.94
X3.2665Y-2.44
X3.5735Y-2.44
X8.5065Y-3.19
X8.8135Y-3.19
X3.2665Y-3.19
X3.5735Y-3.19
X7.7665Y-3.19
X8.0735Y-3.19
X8.5165Y-2.44
X8.8235Y-2.44
X5.5165Y-2.44
X5.8235Y-2.44
T5
X0.76Y-1.91
X9.81Y-3.41
X0.76Y-4.86
X0.76Y-3.41
X9.81Y-4.86
X9.81Y-1.91
X5.31Y-3.41
T2
G00X9.4497Y-1.4443
M15
G01X9.4497Y-1.4128
M16
G05
G00X9.4497Y-1.5911
M15
G01X9.4497Y-1.532
M16
G05
G00X9.7903Y-1.4443
M15
G01X9.7903Y-1.4128
M16
G05
G00X9.7903Y-1.5911
M15
G01X9.7903Y-1.532
M16
G05
T4
G00X5.5656Y-2.8441
M15
G01X5.5181Y-2.9188
M16
G05
G00X5.77Y-2.82
M15
G01X5.7684Y-2.8428
M16
G05
G00X9.3156Y-4.3441
M15
G01X9.2681Y-4.4188
M16
G05
G00X9.52Y-4.32
M15
G01X9.5184Y-4.3428
M16
G05
G00X7.8156Y-2.8441
M15
G01X7.7681Y-2.9188
M16
G05
G00X8.02Y-2.82
M15
G01X8.0184Y-2.8428
M16
G05
G00X3.3156Y-3.5941
M15
G01X3.2681Y-3.6688
M16
G05
G00X3.52Y-3.57
M15
G01X3.5184Y-3.5928
M16
G05
G00X6.3156Y-3.5941
M15
G01X6.2681Y-3.6688
M16
G05
G00X6.52Y-3.57
M15
G01X6.5184Y-3.5928
M16
G05
G00X1.8156Y-3.5941
M15
G01X1.7681Y-3.6688
M16
G05
G00X2.02Y-3.57
M15
G01X2.0184Y-3.5928
M16
G05
G00X1.8156Y-4.3441
M15
G01X1.7681Y-4.4188
M16
G05
G00X2.02Y-4.32
M15
G01X2.0184Y-4.3428
M16
G05
G00X8.5656Y-2.8441
M15
G01X8.5181Y-2.9188
M16
G05
G00X8.77Y-2.82
M15
G01X8.7684Y-2.8428
M16
G05
G00X8.5656Y-2.0941
M15
G01X8.5181Y-2.1688
M16
G05
G00X8.77Y-2.07
M15
G01X8.7684Y-2.0928
M16
G05
G00X2.5656Y-3.5941
M15
G01X2.5181Y-3.6688
M16
G05
G00X2.77Y-3.57
M15
G01X2.7684Y-3.5928
M16
G05
G00X6.3156Y-2.0941
M15
G01X6.2681Y-2.1688
M16
G05
G00X6.52Y-2.07
M15
G01X6.5184Y-2.0928
M16
G05
G00X4.0656Y-4.3441
M15
G01X4.0181Y-4.4188
M16
G05
G00X4.27Y-4.32
M15
G01X4.2684Y-4.3428
M16
G05
G00X7.8156Y-2.0941
M15
G01X7.7681Y-2.1688
M16
G05
G00X8.02Y-2.07
M15
G01X8.0184Y-2.0928
M16
G05
G00X8.5656Y-4.3441
M15
G01X8.5181Y-4.4188
M16
G05
G00X8.77Y-4.32
M15
G01X8.7684Y-4.3428
M16
G05
G00X2.5656Y-2.8441
M15
G01X2.5181Y-2.9188
M16
G05
G00X2.77Y-2.82
M15
G01X2.7684Y-2.8428
M16
G05
G00X7.0656Y-2.8441
M15
G01X7.0181Y-2.9188
M16
G05
G00X7.27Y-2.82
M15
G01X7.2684Y-2.8428
M16
G05
G00X9.3156Y-3.5941
M15
G01X9.2681Y-3.6688
M16
G05
G00X9.52Y-3.57
M15
G01X9.5184Y-3.5928
M16
G05
G00X4.0656Y-3.5941
M15
G01X4.0181Y-3.6688
M16
G05
G00X4.27Y-3.57
M15
G01X4.2684Y-3.5928
M16
G05
G00X8.5656Y-3.5941
M15
G01X8.5181Y-3.6688
M16
G05
G00X8.77Y-3.57
M15
G01X8.7684Y-3.5928
M16
G05
G00X4.8156Y-3.5941
M15
G01X4.7681Y-3.6688
M16
G05
G00X5.02Y-3.57
M15
G01X5.0184Y-3.5928
M16
G05
G00X1.0656Y-2.0941
M15
G01X1.0181Y-2.1688
M16
G05
G00X1.27Y-2.07
M15
G01X1.2684Y-2.0928
M16
G05
G00X2.5656Y-4.3441
M15
G01X2.5181Y-4.4188
M16
G05
G00X2.77Y-4.32
M15
G01X2.7684Y-4.3428
M16
G05
G00X1.0656Y-3.5941
M15
G01X1.0181Y-3.6688
M16
G05
G00X1.27Y-3.57
M15
G01X1.2684Y-3.5928
M16
G05
G00X9.3156Y-2.0941
M15
G01X9.2681Y-2.1688
M16
G05
G00X9.52Y-2.07
M15
G01X9.5184Y-2.0928
M16
G05
G00X4.8156Y-2.8441
M15
G01X4.7681Y-2.9188
M16
G05
G00X5.02Y-2.82
M15
G01X5.0184Y-2.8428
M16
G05
G00X1.8156Y-2.0941
M15
G01X1.7681Y-2.1688
M16
G05
G00X2.02Y-2.07
M15
G01X2.0184Y-2.0928
M16
G05
G00X7.0656Y-2.0941
M15
G01X7.0181Y-2.1688
M16
G05
G00X7.27Y-2.07
M15
G01X7.2684Y-2.0928
M16
G05
G00X5.1956Y-4.3441
M15
G01X5.1481Y-4.4188
M16
G05
G00X5.4Y-4.32
M15
G01X5.3984Y-4.3428
M16
G05
G00X3.3156Y-2.0941
M15
G01X3.2681Y-2.1688
M16
G05
G00X3.52Y-2.07
M15
G01X3.5184Y-2.0928
M16
G05
G00X7.8156Y-3.5941
M15
G01X7.7681Y-3.6688
M16
G05
G00X8.02Y-3.57
M15
G01X8.0184Y-3.5928
M16
G05
G00X7.8156Y-4.3441
M15
G01X7.7681Y-4.4188
M16
G05
G00X8.02Y-4.32
M15
G01X8.0184Y-4.3428
M16
G05
G00X1.8156Y-2.8441
M15
G01X1.7681Y-2.9188
M16
G05
G00X2.02Y-2.82
M15
G01X2.0184Y-2.8428
M16
G05
G00X7.0656Y-4.3441
M15
G01X7.0181Y-4.4188
M16
G05
G00X7.27Y-4.32
M15
G01X7.2684Y-4.3428
M16
G05
G00X9.3156Y-2.8441
M15
G01X9.2681Y-2.9188
M16
G05
G00X9.52Y-2.82
M15
G01X9.5184Y-2.8428
M16
G05
G00X7.0656Y-3.5941
M15
G01X7.0181Y-3.6688
M16
G05
G00X7.27Y-3.57
M15
G01X7.2684Y-3.5928
M16
G05
G00X6.3156Y-2.8441
M15
G01X6.2681Y-2.9188
M16
G05
G00X6.52Y-2.82
M15
G01X6.5184Y-2.8428
M16
G05
G00X1.0656Y-4.3441
M15
G01X1.0181Y-4.4188
M16
G05
G00X1.27Y-4.32
M15
G01X1.2684Y-4.3428
M16
G05
G00X3.3156Y-2.8441
M15
G01X3.2681Y-2.9188
M16
G05
G00X3.52Y-2.82
M15
G01X3.5184Y-2.8428
M16
G05
G00X4.0656Y-2.0941
M15
G01X4.0181Y-2.1688
M16
G05
G00X4.27Y-2.07
M15
G01X4.2684Y-2.0928
M16
G05
G00X5.5656Y-3.5941
M15
G01X5.5181Y-3.6688
M16
G05
G00X5.77Y-3.57
M15
G01X5.7684Y-3.5928
M16
G05
G00X1.0656Y-2.8441
M15
G01X1.0181Y-2.9188
M16
G05
G00X1.27Y-2.82
M15
G01X1.2684Y-2.8428
M16
G05
G00X4.0656Y-2.8441
M15
G01X4.0181Y-2.9188
M16
G05
G00X4.27Y-2.82
M15
G01X4.2684Y-2.8428
M16
G05
G00X5.5656Y-2.0941
M15
G01X5.5181Y-2.1688
M16
G05
G00X5.77Y-2.07
M15
G01X5.7684Y-2.0928
M16
G05
G00X6.3156Y-4.3441
M15
G01X6.2681Y-4.4188
M16
G05
G00X6.52Y-4.32
M15
G01X6.5184Y-4.3428
M16
G05
G00X4.8156Y-2.0941
M15
G01X4.7681Y-2.1688
M16
G05
G00X5.02Y-2.07
M15
G01X5.0184Y-2.0928
M16
G05
G00X3.3156Y-4.3441
M15
G01X3.2681Y-4.4188
M16
G05
G00X3.52Y-4.32
M15
G01X3.5184Y-4.3428
M16
G05
G00X2.5656Y-2.0941
M15
G01X2.5181Y-2.1688
M16
G05
G00X2.77Y-2.07
M15
G01X2.7684Y-2.0928
M16
G05
T0
M30
